<?xml version="1.0" encoding="UTF-8" standalone="no"?><svg xmlns:svg="http://www.w3.org/2000/svg" xmlns="http://www.w3.org/2000/svg" version="1.1" style="overflow:visible" viewBox="-250 -250 500 500" height="500px" width="500px"><rect fill-opacity="0" fill="rgb(0,0,0)" height="500" width="500" y="-250" x="-250" /><svg version="1.1" y="-250" x="-250" viewBox="-250 -250 500 500" height="500px" width="500px" style="overflow:visible"><g transform="rotate(0,0,0)" stroke-linejoin="round" fill="#fff"><path stroke-linecap="butt" stroke-linejoin="round" stroke-width="0" stroke-opacity="0" stroke="rgb(0,0,0)" fill="rgb(255,0,0)" d="m9.67215-134.07407c-7.340983-0.061634-15.568515 2.225011-15.568515 2.225011s21.698375 15.449685 24.311954 37.87005l-73.17956 3.433039s13.14831 18.303645 19.57686 19.319309c4.908724 0.775217 11.210735 1.284375 18.35813 1.600881c7.064265 13.012054 14.60283 25.84544 26.439505 37.06544c-23.391065 19.045015-49.768945 32.908004-77.22403 48.952945l8.99504 6.461963c10.13914-4.896204 20.457034-9.2531 30.76082-13.65593c2.533203 45.524809-19.360195 97.73725-44.97962 119.6681c11.100745 0.427278 41.236135-9.52663 58.580045-55.15361h80.051215c0.251625 12.435245 0.081855 25.604294-0.755557 39.12227c-0.777521 12.549315 5.967076 16.80586 14.055259 20.61216c9.041789 4.254589 13.053025-11.86175 13.053025-28.515545c0-36.192915-2.562087-66.412795-4.867347-86.32685l26.45149 17.052955l35.836-16.31014c2.007181-4.053565 0.775803-7.643625-4.697024-10.62704l-98.4232-45.077285l32.740895-35.374705c13.385375-0.763088 22.778725-1.414562 22.778725-1.414562c7.72842 0.997483 15.929594 3.032222 23.184939-0.303102c8.375406-3.850143-11.823925-28.75516-18.88173-29.767765c-6.520053-0.573521-21.77666 6.141003-21.77666 6.141003l-43.84062 2.056693c2.672238-3.198873 4.475241-6.945503 4.445899-10.62704c-0.107729-13.51925-15.536895-24.697175-30.59677-27.951996c-1.487602-0.321498-3.135217-0.459562-4.829284-0.473768zm-129.65305 24.867515s23.210525 39.720499 35.64186 43.736239c15.560949 5.027282 22.43116-8.031668 16.063469-20.108875c-9.29475-17.63308-51.70533-23.627365-51.70533-23.627365zm165.26975 39.11173c-6.272686 8.68666-12.956125 16.43067-20.00118 23.449545c-11.02416-6.446145-18.92831-13.665621-27.889946-22.62377c15.032249 0.168257 31.987115-0.219123 47.891125-0.826277zm-177.3219 35.953385c-10.291715 0.03009-18.41678 1.145196-18.41678 1.145196s33.135125 31.890895 46.187895 32.364089c16.340315 0.592832 19.397765-13.846245 9.988265-23.73132c-7.727971-8.11739-24.5361-9.834245-37.764905-9.782735zm63.623604 3.008711l-41.37001 112.451599c-15.142665-5.212472-30.34551-7.261338-30.34551-7.261338s25.08537 41.183605 38.2058 47.77153c16.426079 8.246665 26.283019-5.082439 21.272524-19.585956c-0.591022-1.71088-1.499961-3.320185-2.625438-4.849939l18.37615-117.9681l-3.513178-10.557425zm96.43505 11.536455l31.421354 20.25958c0.613394 3.950502 1.268879 8.388471 1.954966 13.768215h-63.69577c0.380341-5.414704 0.614456-11.10168 0.721922-17.0153c10.116275-4.918483 20.04776-10.38938 29.596234-17.012325zm-32.41288 53.791399h67.96294c0.56678 6.169631 1.074204 12.77924 1.470789 19.763775h-73.226225c1.483479-6.104539 2.764616-12.67707 3.79349-19.763775z" /></g></svg><svg version="1.1" y="-250" x="-250" viewBox="-250 -250 500 500" height="500px" width="500px" style="overflow:visible"><g transform="rotate(0,0,0)" stroke-linejoin="round" fill="#fff"><path stroke-linecap="round" stroke-linejoin="round" stroke-width="24" stroke-opacity="1" stroke="rgb(255,0,0)" fill="none" d="m195 0a195 195 0 0 1-195 195a195 195 0 0 1-195-195a195 195 0 0 1 195-195a195 195 0 0 1 195 195z" /></g></svg></svg>