<svg xmlns="http://www.w3.org/2000/svg" width="72" height="45" viewBox="0 0 72 45"><defs><style>.a{fill:#147591;}.b{fill:#fff;}</style></defs><g transform="translate(-1049.863 -692.967)"><path class="a" d="M4.18,0H67.82A4.18,4.18,0,0,1,72,4.18V40.82A4.18,4.18,0,0,1,67.82,45H4.182A4.182,4.182,0,0,1,0,40.818V4.18A4.18,4.18,0,0,1,4.18,0Z" transform="translate(1049.863 692.967)"/><g transform="translate(1057.569 704.923)"><path class="b" d="M1077.92,723.291v-.72l-.344.72h-2.981l-.374-.773v.773h-5.572l-.658-1.559h-1.116l-.7,1.559h-2.889v-4.7l2.118-4.792h4.055l.569,1.358v-1.347h4.959l1.091,2.286,1.068-2.3H1092.8a2.667,2.667,0,0,1,1.361.369l0-.369h3.944v.519a3.214,3.214,0,0,1,1.758-.519h6.96l.611,1.378v-1.378h4.46l.81,1.378v-1.378h4.264v9.5h-4.38l-1.029-1.657v1.648h-5.444l-.766-1.7h-1.068l-.717,1.7h-3.3a4.269,4.269,0,0,1-2.15-.675v.675h-6.56v-2.218c0-.322-.247-.3-.247-.3h-.239v2.517Z" transform="translate(-1063.287 -713.795)"/><path class="b" d="M1083.076,733.924h8.62l1.245,1.408,1.273-1.408h6.627a3.045,3.045,0,0,1,1.213.331v-.331h5.9a3.009,3.009,0,0,1,1.378.374v-.374h7.586v.345a2.578,2.578,0,0,1,1.267-.345h4.942v.345a3.022,3.022,0,0,1,1.28-.345h3.88v8.957a2.139,2.139,0,0,1-1.565.578h-5.116v-.285a2.622,2.622,0,0,1-1.228.285h-13.59v-2.315c0-.228-.1-.269-.3-.269h-.187v2.584h-4.247V740.89a2.859,2.859,0,0,1-1.258.253h-1.527v2.315h-5.234l-1.191-1.453-1.274,1.453h-8.493Z" transform="translate(-1071.716 -722.369)"/><path class="a" d="M1130.4,736.414h5.41v1.451h-3.754v1.265h3.648v1.278h-3.648v1.331h3.754v1.415h-5.41Z" transform="translate(-1091.876 -723.43)"/><path class="a" d="M1155.39,739.051c2.033.1,2.2,1.121,2.2,2.2a1.969,1.969,0,0,1-2.121,1.941H1152V741.75h2.708c.46,0,1.143,0,1.143-.647,0-.308-.12-.5-.608-.555-.218-.032-1.022-.076-1.144-.079-1.836-.048-2.265-.962-2.265-2.074a1.858,1.858,0,0,1,1.972-1.955h3.474v1.444h-2.542c-.579.006-1.2-.068-1.2.586,0,.413.308.5.7.534C1154.366,739.005,1155.268,739.052,1155.39,739.051Z" transform="translate(-1101.003 -723.441)"/><path class="a" d="M1144.539,739.051c2.034.1,2.2,1.121,2.2,2.2a1.969,1.969,0,0,1-2.122,1.941h-3.474V741.75h2.707c.459,0,1.144,0,1.144-.647,0-.308-.121-.5-.61-.555-.218-.032-1.022-.076-1.142-.079-1.839-.048-2.264-.962-2.264-2.074a1.857,1.857,0,0,1,1.97-1.955h3.475v1.444h-2.542c-.58.006-1.2-.068-1.2.586,0,.413.309.5.7.534C1143.516,739.005,1144.419,739.052,1144.539,739.051Z" transform="translate(-1096.382 -723.441)"/><path class="a" d="M1101.086,736.429h-5.806l-1.9,2.091-1.834-2.106h-6.522v6.739h6.31l1.986-2.227,1.94,2.243h3.176v-2.289h2.225c.858,0,2.422-.029,2.422-2.391A1.866,1.866,0,0,0,1101.086,736.429Zm-10.612,5.31h-3.816v-1.331h3.65V739.13h-3.65v-1.265l4.024.009,1.611,1.834Zm6.324.782-2.376-2.813,2.376-2.633Zm3.73-3.029h-2.061v-1.618h2.068a.815.815,0,1,1-.007,1.618Z" transform="translate(-1072.547 -723.43)"/><path class="a" d="M1123.109,740.111a1.839,1.839,0,0,0,1.143-1.866,1.778,1.778,0,0,0-1.986-1.8h-4.3v6.74h1.655V740.8h2.166c.572,0,.8.572.812,1.143l.044,1.235h1.611l-.06-1.385C1124.192,740.712,1123.892,740.2,1123.109,740.111Zm-1.428-.7h-2.061v-1.527h2.067a.794.794,0,0,1,.91.775C1122.6,739.112,1122.357,739.413,1121.681,739.413Z" transform="translate(-1086.578 -723.441)"/><rect class="a" width="1.655" height="6.747" transform="translate(32.05 1.35)"/><path class="a" d="M1095.523,716.16h5.407v1.451h-3.752v1.265h3.647v1.278h-3.647v1.331h3.752V722.9h-5.407Z" transform="translate(-1077.019 -714.802)"/><path class="a" d="M1111.8,719.83a1.838,1.838,0,0,0,1.144-1.866,1.778,1.778,0,0,0-1.986-1.8h-4.3V722.9h1.655v-2.376h2.166c.572,0,.8.571.813,1.142l.045,1.234h1.61l-.059-1.385C1112.884,720.432,1112.581,719.92,1111.8,719.83Zm-1.429-.7h-2.061v-1.527h2.069a.8.8,0,0,1,.911.774C1111.288,718.832,1111.047,719.132,1110.37,719.132Z" transform="translate(-1081.76 -714.802)"/><path class="a" d="M1077.985,716.16l-2.03,4.521-2.023-4.521h-2.595v6.491l-2.888-6.491h-2.19l-2.949,6.739h1.746l.646-1.5h3.3l.655,1.5h3.331v-5l2.212,5h1.5l2.264-4.919V722.9h1.655V716.16Zm-11.658,3.781.987-2.355,1.028,2.355Z" transform="translate(-1063.297 -714.802)"/><path class="a" d="M1139.695,716.154v4.666l-2.79-4.666h-2.445v6.329l-2.819-6.326h-2.19l-2.279,5.22s-.963,0-1.061-.024c-.4-.082-1.021-.363-1.029-1.552v-.489c0-1.58.858-1.7,1.957-1.7h1.022v-1.464H1125.9c-.753,0-2.389.574-2.444,3.343-.038,1.866.775,3.4,2.61,3.4h2.182l.646-1.5h3.3l.654,1.5h3.265v-4.935l2.978,4.935h2.257v-6.746Zm-10.163,3.788.986-2.356,1.038,2.356Z" transform="translate(-1088.916 -714.8)"/></g></g></svg>