<svg xmlns="http://www.w3.org/2000/svg" width="72" height="45" viewBox="0 0 72 45"><defs><style>.a{fill:#f9f9f9;}.b{fill:#fbb231;}.b,.c,.d{fill-rule:evenodd;}.c{fill:#ec1c2e;}.d{fill:#fff;}.e{fill:none;stroke:#fff;stroke-miterlimit:2.613;stroke-width:0.216px;}</style></defs><g transform="translate(-360.613 -128.641)"><path class="a" d="M4.181,0H67.819A4.181,4.181,0,0,1,72,4.181V40.818A4.182,4.182,0,0,1,67.818,45H4.181A4.181,4.181,0,0,1,0,40.819V4.181A4.181,4.181,0,0,1,4.181,0Z" transform="translate(360.613 128.641)"/><g transform="translate(375.032 138.224)"><path class="b" d="M428.813,171.17l.666-.017.658-.048.645-.082.64-.114.623-.144.615-.174.6-.2.589-.231.575-.261.558-.283.54-.314.527-.335.506-.361.487-.384.471-.405.449-.431.431-.449.405-.471.384-.487.361-.506.336-.527.313-.541.283-.558.262-.575.231-.589.2-.6.175-.614.143-.623.113-.64.083-.645.048-.658.017-.667-.017-.662-.048-.654-.083-.645-.113-.632-.143-.623-.175-.61-.2-.6-.231-.584-.262-.57-.283-.558-.313-.536-.336-.527-.361-.506-.384-.484-.405-.47-.431-.449-.449-.427-.471-.405-.487-.384-.506-.361-.527-.336-.54-.309-.558-.283-.575-.262-.589-.231-.6-.2-.615-.174-.623-.144-.64-.113-.645-.083-.658-.048-.666-.017-.663.017-.658.048-.644.083-.637.113-.623.144-.614.174-.6.2-.589.231-.571.262-.553.283-.54.309-.523.336-.505.361-.489.384-.466.405-.449.427-.427.449-.406.47-.383.484-.357.506-.336.527-.31.536-.287.558-.257.57-.231.584-.2.6-.175.61-.143.623-.113.632-.082.645-.049.654-.017.662.017.667.049.658.082.645.113.64.143.623.175.614.2.6.231.589.257.575.287.558.31.541.336.527.357.506.383.487.406.471.427.449.449.431.466.405.489.384.505.361.523.335.54.314.553.283.571.261.589.231.6.2.614.174.623.144.637.114.644.082.658.048.663.017Z" transform="translate(-398.59 -145.335)"/><path class="c" d="M398.673,171.17l.661-.017.658-.048.645-.082.636-.114.623-.144.614-.174.6-.2.588-.231.571-.261.554-.283.54-.314.522-.335.506-.361.488-.384.466-.405.449-.431.427-.449.405-.471.383-.487.357-.506.336-.527.309-.541.287-.558.257-.575.232-.589.2-.6.174-.614.144-.623.113-.64.083-.645.047-.658.018-.667-.018-.662-.047-.654-.083-.645-.113-.632-.144-.623-.174-.61-.2-.6-.232-.584-.257-.57-.287-.558-.309-.536-.336-.527-.357-.506-.383-.484-.405-.47-.427-.449-.449-.427-.466-.405-.488-.384-.506-.361-.522-.336-.54-.309-.554-.283-.571-.262-.588-.231-.6-.2-.614-.174-.623-.144-.636-.113-.645-.083-.658-.048-.661-.017-.667.017-.658.048-.645.083-.641.113-.623.144-.614.174-.6.2-.588.231-.575.262-.558.283-.54.309-.527.336-.506.361-.488.384-.471.405-.448.427-.432.449-.405.47-.383.484-.362.506-.335.527-.314.536-.283.558-.262.57-.231.584-.2.6-.174.61-.144.623-.114.632-.083.645-.048.654-.017.662.017.667.048.658.083.645.114.64.144.623.174.614.2.6.231.589.262.575.283.558.314.541.335.527.362.506.383.487.405.471.432.449.448.431.471.405.488.384.506.361.527.335.54.314.558.283.575.261.588.231.6.2.614.174.623.144.641.114.645.082.658.048.667.017Z" transform="translate(-385.731 -145.335)"/><path class="b" d="M420.695,153.446h6.863v-.7h-6.27l-.593.7Z" transform="translate(-400.625 -148.491)"/><path class="b" d="M418.9,156.163h7.891v-.7h-7.477l-.414.7Z" transform="translate(-399.861 -149.649)"/><path class="b" d="M417.567,158.873h8.658v-.7h-8.353l-.3.7Z" transform="translate(-399.292 -150.803)"/><path class="b" d="M416.648,161.591h9.185v-.7h-8.968l-.218.7Z" transform="translate(-398.901 -151.961)"/><path class="b" d="M417.018,174.723h8.9v-.7H416.8l.218.7Z" transform="translate(-398.965 -157.555)"/><path class="b" d="M418.083,177.44h8.244v-.7h-8.571l.327.7Z" transform="translate(-399.373 -158.712)"/><path class="b" d="M419.608,180.15h7.321v-.7h-7.76l.439.7Z" transform="translate(-399.975 -159.867)"/><path class="b" d="M421.7,182.864h6.048v-.706h-6.662l.614.706Z" transform="translate(-400.789 -161.021)"/><path class="b" d="M416.11,164.3H425.6v-.7h-9.36l-.135.7Z" transform="translate(-398.671 -153.115)"/><path class="b" d="M426.189,172.013h3.621v-.7h-3.49l-.131.7Z" transform="translate(-402.965 -156.4)"/><path class="b" d="M426.691,169.3h3.333v-.706h-3.2l-.131.706Z" transform="translate(-403.179 -155.243)"/><path class="b" d="M415.692,168.594h.942v.706h-.9l-.044-.706Z" transform="translate(-398.493 -155.243)"/><path class="d" d="M409.916,166.3l-.06,0-.061-.008-.057-.008-.056-.009-.053-.008-.056-.009-.056-.008-.062-.009-.06-.008-.07,0-.078,0-.082,0h-.092l-.1,0-.113.009-.126.008-.087.013-.083.013-.075.026-.065.026-.061.031-.056.035-.044.044-.04.039-.025.048-.022.048-.009.052v.052l.013.057.018.056.034.057.044.057.087.082.105.066.121.056.131.048.139.044.144.048.144.053.139.056.131.074.122.091.109.11.092.135.07.165.044.2.017.236-.017.274-.031.2-.052.179-.07.166-.087.144-.1.127-.114.108-.122.1-.134.083-.14.065-.144.056-.148.044-.152.035-.148.027-.143.013-.144.009-.135,0H407.8l-.174,0h-.152l-.143,0-.131,0-.117-.009-.1-.009-.1-.013-.092-.009-.082-.017-.083-.014-.074-.021-.075-.018-.069-.027-.07-.025-.074-.026.2-.963.04.009.047.013.061.017.075.018.078.017.087.017.1.022.1.018.109.017.114.018.117.013.122.013.126,0,.128,0h.125l.127,0,.127-.026.1-.035.078-.047.061-.061.043-.061.035-.07.022-.069.017-.065.01-.127-.04-.109-.075-.087-.109-.074-.131-.065-.152-.066-.17-.061-.17-.069-.174-.078-.165-.092-.153-.113-.14-.135-.109-.166-.078-.2-.04-.235,0-.279.022-.17.031-.162.043-.148.052-.139.07-.131.078-.113.092-.109.109-.1.127-.083.139-.07.156-.065.174-.048.2-.04.214-.03.235-.017.258,0h.16l.148,0,.136,0,.122,0,.109.008.1.009.087.009.078.009.074.008.061.013.056.009.053.008.043.008.039.005.039.009.035,0-.223.984Z" transform="translate(-394.474 -153.797)"/><path class="e" d="M409.916,166.3h0l-.06,0-.061-.008-.057-.008-.056-.009-.053-.008-.056-.009-.056-.008-.062-.009-.06-.008-.07,0-.078,0-.082,0h-.092l-.1,0-.113.009-.126.008h0l-.087.013-.083.013-.075.026-.065.026-.061.031-.056.035-.044.044-.04.039-.025.048-.022.048-.009.052v.052l.013.057.018.056.034.057.044.057h0l.087.082.105.066.121.056.131.048.139.044.144.048.144.053.139.056.131.074.122.091.109.11.092.135.07.165.044.2.017.236-.017.274h0l-.031.2-.052.179-.07.166-.087.144-.1.127-.114.108-.122.1-.134.083-.14.065-.144.056-.148.044-.152.035-.148.027-.143.013-.144.009-.135,0H407.8l-.174,0h-.152l-.143,0-.131,0-.117-.009-.1-.009-.1-.013-.092-.009-.082-.017-.083-.014-.074-.021-.075-.018-.069-.027-.07-.025-.074-.026.2-.963h0l.04.009.047.013.061.017.075.018.078.017.087.017.1.022.1.018.109.017.114.018.117.013.122.013.126,0,.128,0h.125l.127,0h0l.127-.026.1-.035.078-.047.061-.061.043-.061.035-.07.022-.069.017-.065h0l.01-.127-.04-.109-.075-.087-.109-.074-.131-.065-.152-.066-.17-.061-.17-.069-.174-.078-.165-.092-.153-.113-.14-.135-.109-.166-.078-.2-.04-.235,0-.279h0l.022-.17.031-.162.043-.148.052-.139.07-.131.078-.113.092-.109.109-.1.127-.083.139-.07.156-.065.174-.048.2-.04.214-.03.235-.017.258,0h.16l.148,0,.136,0,.122,0,.109.008.1.009.087.009.078.009.074.008.061.013.056.009.053.008.043.008.039.005.039.009.035,0-.223.984" transform="translate(-394.474 -153.797)"/><path class="d" d="M413.795,163.524H415l-.179,1.054h.728l-.157.985-.767-.022-.418,2.431,0,.087.021.074.044.057.057.047.078.031.087.026.1.017.1.01.1,0,.087-.009.079-.013.07-.017.057-.017.039-.013.026-.009.008,0-.152.811-.031.022-.031.017-.031.017-.03.017-.031.013-.035.013-.039.013-.039.013-.043.013-.044.009-.052.009-.052.009-.057.009-.066.008-.07.008-.074.009h-.331l-.174-.013-.152-.017-.139-.026-.118-.031-.1-.04-.082-.043-.074-.053-.057-.057-.044-.061-.031-.074-.021-.075-.013-.082,0-.092v-.1l.013-.1.013-.109.832-4.753Z" transform="translate(-397.32 -153.083)"/><path class="e" d="M413.795,163.524H415l-.179,1.054h.728l-.157.985-.767-.022-.418,2.431h0l0,.087.021.074.044.057.057.047.078.031.087.026.1.017.1.01h0l.1,0,.087-.009.079-.013.07-.017.057-.017.039-.013.026-.009.008,0-.152.811h0l-.031.022-.031.017-.031.017-.03.017-.031.013-.035.013-.039.013-.039.013-.043.013-.044.009-.052.009-.052.009-.057.009-.066.008-.07.008-.074.009h-.331l-.174-.013-.152-.017-.139-.026-.118-.031-.1-.04-.082-.043-.074-.053-.057-.057-.044-.061-.031-.074-.021-.075-.013-.082,0-.092v-.1l.013-.1.013-.109.832-4.753" transform="translate(-397.32 -153.083)"/><path class="e" d="M418.225,167.92h0l-.013.074,0,.078.008.083.017.083.031.083.036.079.047.082.052.074.061.075.065.066.07.065.078.052.079.048.087.039.087.031.087.018h0l.113.017.109.013.113.013.113.009.113,0h.118l.113,0,.118-.009.117-.017.118-.022.122-.026.117-.039.123-.048.126-.053.122-.069.126-.074-.174,1.072h0l-.07.035-.069.035-.07.025-.065.027-.066.021-.07.022-.069.017-.074.014-.078.013-.087.009-.091.008-.1.008-.113.005h-.117l-.136,0H419.3l-.213,0-.217-.022-.219-.031-.218-.053-.213-.065-.2-.084-.2-.108-.183-.127-.17-.148-.148-.179-.126-.2-.105-.231-.073-.257-.048-.292-.013-.322.022-.357h0l.017-.14.026-.161.035-.169.048-.184.066-.186.078-.188.1-.191.122-.183.139-.175.17-.165.192-.148.218-.131.252-.109.284-.078.313-.052.354-.018h0l.17,0,.179.017.179.03.179.043.174.066.17.078.157.1.143.122.13.149.109.175.087.2.061.231.035.26,0,.3-.031.331-.066.367-.022.266h-3.176l.2-.859h1.908l.009-.109-.005-.1-.009-.1-.017-.087-.031-.083-.03-.075-.044-.065-.043-.061-.052-.052-.057-.044-.065-.039-.066-.035-.07-.025-.07-.018-.074-.013-.078-.009h0l-.083,0-.078.013-.074.018-.074.025-.075.035-.064.04-.066.048-.056.052-.057.061-.052.065-.047.07-.04.075-.04.078-.03.087-.026.087-.018.091-.174.9" transform="translate(-399.03 -153.797)"/><path class="d" d="M433.974,164.694l-.056-.03-.056-.027-.062-.031-.065-.031-.066-.026-.073-.026-.075-.026-.078-.026-.083-.022-.084-.017-.091-.018-.091-.013-.1-.009-.1-.008h-.323l-.113.008-.118.014-.121.021-.122.035-.122.048-.122.061-.122.078-.117.1-.114.113-.109.14-.1.161-.1.191-.091.218-.083.245-.069.279-.027.156-.017.152-.009.153.005.149.012.148.03.14.039.131.048.131.066.118.078.113.092.1.1.092.117.078.135.065.148.057.165.039.057.013.066.013.078.009.087.009.1.009h.209l.109-.009.113-.014.113-.021.109-.031.109-.035.109-.048.1-.056.091-.07.087-.078-.2,1.163-.027.022-.025.026-.035.031-.039.025-.048.035-.061.031-.07.031-.078.026-.1.031-.113.022-.13.018-.153.017-.169.008-.2.005-.221-.005-.245-.013-.2-.022-.2-.044-.2-.065-.2-.087-.192-.1-.183-.132-.174-.152-.161-.174-.144-.2-.121-.218-.1-.244-.078-.266-.052-.292-.018-.309.009-.34.047-.362.036-.178.038-.174.044-.17.044-.161.047-.153.057-.152.057-.144.061-.135.066-.135.065-.127.074-.122.078-.113.079-.109.087-.1.087-.1.092-.091.1-.087.1-.083.1-.074.109-.07.117-.065.117-.056.122-.052.126-.049.135-.043.134-.035.14-.031.149-.026.147-.022.157-.017.157-.008.166-.005.14.005.134.008.131.013.13.018.122.017.117.026.113.022.1.026.1.026.087.026.083.027.069.026.061.022.052.018.039.017.027.009-.219,1.207Z" transform="translate(-404.388 -152.937)"/><path class="e" d="M433.974,164.694h0l-.056-.03-.056-.027-.062-.031-.065-.031-.066-.026-.073-.026-.075-.026-.078-.026-.083-.022-.084-.017-.091-.018-.091-.013-.1-.009-.1-.008h-.323l-.113.008-.118.014-.121.021-.122.035-.122.048-.122.061-.122.078-.117.1-.114.113-.109.14-.1.161-.1.191-.091.218-.083.245-.069.279h0l-.027.156-.017.152-.009.153.005.149.012.148.03.14.039.131.048.131.066.118.078.113.092.1.1.092.117.078.135.065.148.057.165.039h0l.057.013.066.013.078.009.087.009.1.009h.209l.109-.009.113-.014.113-.021.109-.031.109-.035.109-.048.1-.056.091-.07.087-.078-.2,1.163h0l-.027.022-.025.026-.035.031-.039.025-.048.035-.061.031-.07.031-.078.026-.1.031-.113.022-.13.018-.153.017-.169.008-.2.005-.221-.005-.245-.013h0l-.2-.022-.2-.044-.2-.065-.2-.087-.192-.1-.183-.132-.174-.152-.161-.174-.144-.2-.121-.218-.1-.244-.078-.266-.052-.292-.018-.309.009-.34.047-.362h0l.036-.178.038-.174.044-.17.044-.161.047-.153.057-.152.057-.144.061-.135.066-.135.065-.127.074-.122.078-.113.079-.109.087-.1.087-.1.092-.091.1-.087.1-.083.1-.074.109-.07.117-.065.117-.056.122-.052.126-.049.135-.043.134-.035.14-.031.149-.026.147-.022.157-.017.157-.008.166-.005h0l.14.005.134.008.131.013.13.018.122.017.117.026.113.022.1.026.1.026.087.026.083.027.069.026.061.022.052.018.039.017.027.009-.219,1.207" transform="translate(-404.388 -152.937)"/><path class="d" d="M453,169.261h-1.207l.087-.483v-.044l-.07.088-.074.078-.073.07-.079.062-.078.057-.078.047-.078.04-.083.039-.082.031-.083.022-.083.022-.087.013-.086.014-.083.009-.087,0h-.087l-.227-.018-.209-.048-.192-.074-.175-.1-.157-.127-.14-.147-.122-.162-.1-.182-.086-.2-.07-.2-.048-.214-.035-.223-.013-.222,0-.226.022-.222.039-.222.065-.258.079-.244.092-.222.109-.209.113-.2.131-.175.135-.156.144-.144.152-.127.161-.109.166-.1.166-.074.174-.061.174-.039.174-.026.179-.009.127,0,.122.014.114.022.1.031.1.035.088.038.087.048.078.048.07.051.065.057.057.057.052.057.043.057.039.057.035.053.026.052h0l.306-1.713h1.185l-.985,5.7Z" transform="translate(-412.685 -153.099)"/><path class="e" d="M453,169.261h-1.207l.087-.483v-.044h0l-.07.088-.074.078-.073.07-.079.062-.078.057-.078.047-.078.04-.083.039-.082.031-.083.022-.083.022-.087.013-.086.014-.083.009-.087,0h-.087l-.227-.018-.209-.048-.192-.074-.175-.1-.157-.127-.14-.147-.122-.162-.1-.182-.086-.2-.07-.2-.048-.214-.035-.223-.013-.222,0-.226.022-.222.039-.222h0l.065-.258.079-.244.092-.222.109-.209.113-.2.131-.175.135-.156.144-.144.152-.127.161-.109.166-.1.166-.074.174-.061.174-.039.174-.026.179-.009h0l.127,0,.122.014.114.022.1.031.1.035.088.038.087.048.078.048.07.051.065.057.057.057.052.057.043.057.039.057.035.053.026.052h0l.306-1.713h1.185l-.985,5.7" transform="translate(-412.685 -153.099)"/><path class="b" d="M452.066,169.752l.122-.009.113-.026.105-.031.1-.048.091-.052.087-.066.083-.073.074-.079.065-.087.061-.1.056-.1.048-.1.043-.11.035-.113.03-.118.022-.117.021-.122.013-.126v-.119l0-.121-.013-.113-.017-.109-.031-.1-.035-.1-.043-.087-.052-.083-.056-.07-.066-.061-.074-.052-.078-.035-.083-.022-.091-.009-.119.009-.109.017-.1.035-.1.043-.087.057-.087.07-.074.074-.074.083-.065.1-.061.1-.057.1-.047.113-.043.117-.034.119-.035.126-.026.127-.023.192.009.209.03.213.057.2.087.179.113.144.144.1.174.035Z" transform="translate(-413.726 -154.645)"/><path class="d" d="M402.962,169.017l-.175.967h-1.1l.031-.179.023-.161.016-.122.018-.066-.061.07-.07.07-.082.065-.092.061-.1.061-.109.052-.114.052-.117.044-.127.039-.125.031-.127.026-.13.017-.127.009-.126,0-.122-.013-.118-.017-.152-.04-.139-.044-.122-.057-.109-.065-.1-.069-.087-.079-.07-.083-.061-.087-.052-.092-.044-.1-.034-.1-.026-.1-.018-.1-.013-.1-.009-.1v-.1l.013-.17.027-.161.044-.152.057-.148.069-.139.078-.126.092-.122.1-.11.109-.1.122-.092.127-.082.13-.07.139-.06.144-.049.148-.039.153-.026h.008l.022,0,.031,0,.047,0,.052-.009.061,0,.065-.009.075-.009.074-.008.075-.009.079,0,.069-.009.07,0,.064-.005.062,0h.148l.1,0,.1.005h.1l.078,0,.061,0,.043,0h.013l.009-.031.026-.078.021-.092.009-.082-.017-.1-.039-.088-.052-.078-.07-.066-.082-.056-.091-.04-.1-.026-.113-.008-.122,0-.131,0h-.135l-.139,0-.144.009-.14.013-.139.013-.135.018-.131.017-.126.022-.113.021-.1.022-.1.027-.079.025-.061.031-.048.026.31-1.05.1-.039.1-.035.105-.03.1-.022.105-.022.113-.017.113-.018.118-.009.122-.008.127,0,.131,0h.418l.153,0,.153,0,.122.008.131.022.135.031.139.039.135.053.131.061.13.074.123.082.107.1.1.1.087.117.064.131.044.14.026.148v.165l-.026.174-.44,2.3Z" transform="translate(-391.38 -153.823)"/><path class="e" d="M402.962,169.017l-.175.967h-1.1l.031-.179.023-.161.016-.122.018-.066h0l-.061.07-.07.07-.082.065-.092.061-.1.061-.109.052-.114.052-.117.044-.127.039-.125.031-.127.026-.13.017-.127.009-.126,0-.122-.013-.118-.017h0l-.152-.04-.139-.044-.122-.057-.109-.065-.1-.069-.087-.079-.07-.083-.061-.087-.052-.092-.044-.1-.034-.1-.026-.1-.018-.1-.013-.1-.009-.1v-.1h0l.013-.17.027-.161.044-.152.057-.148.069-.139.078-.126.092-.122.1-.11.109-.1.122-.092.127-.082.13-.07.139-.06.144-.049.148-.039.153-.026h.008l.022,0,.031,0,.047,0,.052-.009.061,0,.065-.009.075-.009.074-.008.075-.009.079,0,.069-.009.07,0,.064-.005.062,0h.148l.1,0,.1.005h.1l.078,0,.061,0,.043,0h.013l.009-.031.026-.078.021-.092.009-.082h0l-.017-.1-.039-.088-.052-.078-.07-.066-.082-.056-.091-.04-.1-.026-.113-.008h0l-.122,0-.131,0h-.135l-.139,0-.144.009-.14.013-.139.013-.135.018-.131.017-.126.022-.113.021-.1.022-.1.027-.079.025-.061.031-.048.026.31-1.05h0l.1-.039.1-.035.105-.03.1-.022.105-.022.113-.017.113-.018.118-.009.122-.008.127,0,.131,0h.418l.153,0,.153,0h0l.122.008.131.022.135.031.139.039.135.053.131.061.13.074.123.082.107.1.1.1.087.117.064.131.044.14.026.148v.165l-.026.174-.44,2.3" transform="translate(-391.38 -153.823)"/><path class="c" d="M402.918,169.765l0-.022-.018-.022-.026-.013-.043-.008-.048-.008-.056-.005h-.131l-.069.005-.074.008-.07.008-.07.009-.065.009-.061.013-.052.013-.048.013-.03.009-.035.014-.048.017-.048.022-.056.026-.057.031-.061.03-.057.035-.061.043-.057.043-.053.053-.047.052-.044.056-.03.062-.025.069-.014.07,0,.148.021.117.044.087.057.065.065.043.075.026.07.013.069,0,.13,0,.118-.013.113-.018.1-.026.086-.031.083-.039.074-.039.066-.048.057-.044.051-.052.044-.048.035-.052.03-.052.028-.052.021-.048.012-.048.036-.126.03-.144.026-.139.022-.114Z" transform="translate(-392.386 -155.708)"/><path class="d" d="M389.057,169.245h-1.184l.989-5.721h2.06l.2,3.394,1.425-3.394H394.7l-1.011,5.721H392.5l.749-4.274H393.2l-1.774,4.274H390.09l-.009-.179-.031-.475-.039-.675-.044-.776-.044-.779-.039-.684-.031-.5-.009-.209h-.065l-.724,4.274Z" transform="translate(-386.643 -153.083)"/><path class="e" d="M389.057,169.245h-1.184l.989-5.721h2.06l.2,3.394,1.425-3.394H394.7l-1.011,5.721H392.5l.749-4.274H393.2l-1.774,4.274H390.09l-.009-.179-.031-.475-.039-.675-.044-.776-.044-.779-.039-.684-.031-.5-.009-.209h-.065l-.724,4.274" transform="translate(-386.643 -153.083)"/><path class="d" d="M440.651,169.017l-.179.967h-1.094l.008-.179,0-.157v-.117l.008-.052-.056.065-.066.065-.078.061-.087.062-.091.056-.105.052-.109.053-.109.043-.118.035-.122.035-.121.022-.122.017-.127.009-.121,0-.118-.013-.118-.017-.157-.04-.139-.044-.123-.057-.114-.065-.1-.069-.083-.079-.069-.083-.06-.087-.052-.092-.04-.1-.035-.1-.022-.1-.019-.1-.012-.1-.01-.1v-.1l.01-.17.026-.161.039-.152.057-.148.065-.139.083-.126.091-.122.1-.11.114-.1.117-.092.126-.082.135-.07.135-.06.143-.049.144-.039.148-.026h.009l.021,0,.031,0,.044,0,.057-.009.06,0,.066-.009.069-.009.075-.008.078-.009.074,0,.074-.009.069,0,.061-.005.061,0h.152l.1,0,.1.005h.1l.083,0,.069,0,.039,0h.018l.009-.031.013-.078.013-.092.008-.082-.017-.1-.035-.088-.057-.078-.066-.066-.078-.056-.091-.04-.1-.026-.105-.008-.122,0-.13,0h-.135l-.14,0-.143.009-.14.013-.139.013-.135.018-.131.017-.126.022-.114.021-.1.022-.1.027-.078.025-.062.031-.047.026.305-1.05.1-.039.1-.035.1-.03.1-.022.109-.022.109-.017.112-.018.119-.009.121-.008.126,0,.126,0h.41l.148,0,.148,0,.122.008.131.022.135.031.14.039.135.053.134.061.131.074.122.082.11.1.1.1.087.117.066.131.048.14.031.148v.165l-.022.174-.457,2.3Z" transform="translate(-407.443 -153.823)"/><path class="d" d="M443.25,172.8l.026-.026.179-.968-.052-.008-.179.968.027-.027v.061l.021,0,0-.022-.026.026Z" transform="translate(-410.221 -156.607)"/><path class="d" d="M441.316,173.467l.026.031h1.094v-.061h-1.094l.026.031h-.052l0,.031h.03l-.026-.031Z" transform="translate(-409.407 -157.306)"/><path class="d" d="M441.389,172.613l-.04-.034-.017.07-.005.117v.157l-.008.179h.052l.008-.179.009-.157,0-.117v-.036l-.039-.034.044.034Z" transform="translate(-409.41 -156.94)"/><path class="d" d="M438.487,173.172h0l.122.017.118.013.121,0,.127-.009.126-.017.122-.022.122-.034.121-.035.109-.044.113-.052.105-.052.091-.061.092-.062.078-.06.07-.07.057-.066-.044-.034-.057.065-.061.061-.079.061-.082.061-.092.052-.1.053-.1.052-.109.043-.113.035-.122.036-.122.022-.117.017-.127.009-.121,0-.118-.013-.113-.017h0l-.009.052Z" transform="translate(-408.204 -156.94)"/><path class="d" d="M436.65,171.311h0l0,.1.009.1.013.1.017.1.022.1.035.1.039.1.057.092.061.092.07.082.087.083.1.07.113.07.127.056.143.044.157.039.009-.052-.157-.04-.135-.044-.118-.056-.114-.062-.091-.069-.078-.075-.07-.083-.061-.083-.047-.091-.039-.092-.036-.091-.021-.1-.017-.1-.013-.1-.009-.1,0-.1h-.061Z" transform="translate(-407.421 -156.4)"/><path class="d" d="M438.214,168.4h0l-.152.026-.148.039-.144.048-.139.061-.136.07-.13.087-.118.092-.113.1-.1.109-.092.122-.087.131-.065.144-.056.148-.04.157-.026.165-.013.17h.061l0-.17.026-.156.039-.148.057-.148.065-.135.078-.122.092-.122.1-.108.113-.1.118-.092.121-.078.137-.07.13-.06.144-.048.139-.04.144-.026h0V168.4Z" transform="translate(-407.421 -155.159)"/><path class="d" d="M440.272,168.237h-.048l-.061.009-.061.005-.069,0-.074.008-.074,0-.078.009-.075.008-.069.009-.066.009-.06,0-.057.009-.044,0-.035,0-.017,0h-.009v.052h.009l.026,0,.026,0,.044,0,.057-.009.06,0,.066-.009.069-.009.075-.008.078-.009.074,0,.074-.009.069,0,.061,0h.109v-.061Z" transform="translate(-408.582 -155.091)"/><path class="d" d="M441.527,168.285l.026-.022h-.018l-.039,0-.069,0-.083-.008h-.2l-.1-.009h-.1v.061h.21l.1.009h.179l.069,0,.039,0h.018l.026-.022-.026.022.022,0,0-.026-.052-.009Z" transform="translate(-409.248 -155.091)"/><path class="d" d="M442.008,167.835h0l0,.082-.014.087-.013.078-.008.03.052.009.008-.031.013-.079.013-.1.013-.082h-.056Z" transform="translate(-409.684 -154.92)"/><path class="d" d="M441.136,167.042v0l.1,0,.091.026.087.039.074.052.06.061.052.074.036.078.017.092h.052l-.018-.1-.034-.1-.061-.082-.069-.071-.083-.06-.1-.04-.1-.025-.109-.013v.056Z" transform="translate(-409.332 -154.558)"/><path class="d" d="M437.88,167.244l.043.026.043-.022.057-.031.075-.026.095-.025.105-.022.112-.022.126-.022.126-.017.135-.019.139-.013.14-.013.143-.008h.405l.122,0v-.052l-.122,0-.13-.009h-.135l-.14.009-.143.008-.14.013-.139.013-.135.017-.135.017-.127.022-.113.022-.105.022-.1.025-.082.027-.065.03-.052.031.043.026-.052-.008Z" transform="translate(-407.945 -154.551)"/><path class="d" d="M438.2,165.58l-.018.022-.3,1.05.052.008.305-1.051-.018.022-.017-.053-.014,0,0,.018.018-.022Z" transform="translate(-407.945 -153.959)"/><path class="d" d="M440.381,165.222h0l-.148-.009-.148,0h-.41l-.126.009-.126,0-.121.009-.119.008-.117.018-.108.018-.109.022-.105.022-.1.03-.1.035-.1.039.017.053.1-.039.1-.034.1-.031.105-.021.109-.022.108-.017.109-.018.119-.008.121-.009.126,0h.536l.148,0h.148v-.052Z" transform="translate(-408.184 -153.801)"/><path class="d" d="M443.314,166.709h0l.022-.179v-.165l-.03-.153-.049-.143-.07-.135-.088-.122-.1-.109-.108-.1-.126-.083-.131-.078-.139-.061-.135-.053-.143-.039-.136-.031-.135-.021-.122-.009v.052l.122.009.126.022.135.03.135.039.136.052.13.061.131.07.117.083.109.1.1.1.087.113.061.128.048.135.031.144v.165l-.022.17h0l.052.008Z" transform="translate(-409.623 -153.811)"/><path class="d" d="M443.587,170.1h0l.458-2.3-.052-.008-.458,2.3h0l.052.008Z" transform="translate(-410.354 -154.9)"/><path class="b" d="M440.6,169.762l-.008-.026-.017-.021-.031-.013-.043-.013-.048-.005-.057,0h-.066l-.065,0-.07.009-.07.009-.069.009-.066.009-.064.013-.057.008-.057.013-.043.008-.03,0-.035.013-.043.013-.049.017-.057.026-.052.027-.061.031-.056.039-.057.04-.057.048-.047.047-.048.057-.039.061-.031.065-.026.07-.013.074,0,.148.02.117.036.087.052.065.065.043.075.026.074.013.074,0,.131,0,.121-.013.114-.022.1-.03.1-.035.083-.039.078-.044.07-.052.062-.048.051-.056.048-.053.039-.057.03-.052.022-.053.017-.052.013-.048.018-.122.022-.126.017-.122.008-.109Z" transform="translate(-408.449 -155.705)"/><path class="d" d="M457.379,172.014l.01-.1.033-.118.061-.1.074-.091.092-.074.105-.053.113-.035.121-.013.122.013.113.035.1.053.092.074.074.091.061.1.034.118.009.1h-.131l0-.079-.027-.1-.043-.087-.057-.075-.069-.061-.083-.043-.1-.031-.1-.009-.1.009-.1.031-.083.043-.07.061-.056.075-.043.087-.026.1-.009.079Z" transform="translate(-416.251 -156.449)"/><path class="d" d="M458.063,172.257V172h.239l.053,0,.048.008.034.013.031.017.022.026.017.026.009.03,0,.031,0,.039-.009.031-.013.026-.009.009H458.3l.017-.005.031,0,.026-.008.022-.009.017-.013.009-.014.008-.021v-.031l0-.022-.009-.018-.012-.008-.014-.009-.022,0-.021,0h-.179v.17Z" transform="translate(-416.542 -156.692)"/><path class="d" d="M457.377,172.451l0,.025.014.126.033.117.061.1.074.087.092.073.105.058.113.035.121.013.122-.013.113-.035.1-.058.092-.073.074-.087.061-.1.034-.117.013-.126,0-.025h-.131l0,.025-.008.1-.027.1-.043.083-.057.073-.069.062-.083.047-.1.031-.1.009-.1-.009-.1-.031-.083-.047-.07-.062-.056-.073-.043-.083-.026-.1-.009-.1v-.025Z" transform="translate(-416.249 -156.886)"/><path class="d" d="M458.063,172.451v.265h.109V172.5h.109l.13.218h.088l-.131-.218h.031l.03-.009.026-.009.022-.017.008-.013H458.3l-.022,0h-.109v0Z" transform="translate(-416.542 -156.886)"/><path class="e" d="M457.373,172.04h0l.014-.127.033-.118.061-.1.074-.091.092-.073.105-.053.113-.036.122-.013h0l.122.013.113.036.105.053.092.073.074.091.061.1.034.118.013.127h0l-.013.126-.034.117-.061.105-.074.087-.092.073-.105.057-.113.034-.122.013h0l-.122-.013-.113-.034-.105-.057-.092-.073-.074-.087-.061-.105-.033-.117-.014-.126m.506.24h-.11v-.528h.239l.053,0,.048.009.034.013.03.017.022.026.017.026.009.03,0,.031h0l0,.039-.009.03L458.2,172l-.017.022-.022.017-.026.009-.03.009h-.03l.131.218h-.088l-.13-.218h-.108v.218m.108-.262h0l.039-.009.031,0,.026-.009.022-.009.018-.013.009-.014.008-.021v-.031h0l0-.022-.009-.018-.012-.008-.013-.009-.022,0-.021,0h-.178v.174h.108m0,.527h0l.1-.009.1-.031.083-.047.069-.062.057-.073.044-.083.026-.1.009-.1h0l-.009-.1-.026-.1-.044-.087-.057-.075-.069-.061-.083-.043-.1-.031-.1-.009h0l-.1.009-.1.031-.083.043-.071.061-.056.075-.043.087-.026.1-.009.1h0l.009.1.026.1.043.083.056.073.071.062.083.047.1.031.1.009" transform="translate(-416.248 -156.449)"/><path class="d" d="M444.151,169.991h1.229l.439-2.479.017-.1.027-.1.026-.1.035-.1.043-.1.052-.092.057-.087.07-.083.078-.074.087-.07.1-.066.113-.052.126-.043.14-.035.152-.026.17-.009h.109l.2-1.119-.122.008-.117.014-.109.021-.1.03-.1.035-.091.045-.087.047-.083.052-.078.062-.075.061-.07.07-.069.069-.066.074-.065.082-.065.078-.061.087.131-.788h-1.225l-.814,4.666Z" transform="translate(-410.616 -153.83)"/><path class="e" d="M444.151,169.991h1.229l.439-2.479h0l.017-.1.027-.1.026-.1.035-.1.043-.1.052-.092.057-.087.07-.083.078-.074.087-.07.1-.066.113-.052.126-.043.14-.035.152-.026.17-.009h.109l.2-1.119h0l-.122.008-.117.014-.109.021-.1.03-.1.035-.091.045-.087.047-.083.052-.078.062-.075.061-.07.07-.069.069-.066.074-.065.082-.065.078-.061.087.131-.788h-1.225l-.814,4.666h0" transform="translate(-410.616 -153.83)"/><path class="d" d="M424.05,169.991h1.25l.419-2.479.017-.1.022-.092.022-.091.031-.087.035-.087.044-.083.052-.078.061-.074.07-.066.078-.065.1-.052.1-.048.122-.04.135-.034.148-.022.169-.013h.014l.017,0,.022,0H427l.022,0,.018,0,.012,0h.005l0-.017.013-.052.017-.078.022-.1.03-.113.031-.122.04-.122.038-.122.036-.082.043-.083.043-.082.043-.074.039-.065.031-.052.022-.031.008-.013h0l-.018,0-.021,0-.031,0h-.03l-.035,0-.031,0h-.031l-.135.008-.122.014-.113.021-.1.027-.1.035-.092.044-.083.043-.078.052-.073.057-.07.065-.065.066-.065.073-.066.075-.061.083-.065.086-.066.087.157-.788h-1.25l-.815,4.666Z" transform="translate(-402.054 -153.83)"/><path class="e" d="M424.05,169.991h1.25l.419-2.479h0l.017-.1.022-.092.022-.091.031-.087.035-.087.044-.083.052-.078.061-.074.07-.066.078-.065.1-.052.1-.048.122-.04.135-.034.148-.022.169-.013h.014l.017,0,.022,0H427l.022,0,.018,0,.012,0h.005l0-.017.013-.052.017-.078.022-.1.03-.113.031-.122.04-.122.038-.122h0l.036-.082.043-.083.043-.082.043-.074.039-.065.031-.052.022-.031.008-.013h0l-.018,0-.021,0-.031,0h-.03l-.035,0-.031,0h-.031l-.135.008-.122.014-.113.021-.1.027-.1.035-.092.044-.083.043-.078.052-.073.057-.07.065-.065.066-.065.073-.066.075-.061.083-.065.086-.066.087.157-.788h-1.25l-.815,4.666h0" transform="translate(-402.054 -153.83)"/><path class="b" d="M457.4,181.117V181.1l.033-.113.061-.1.074-.087.092-.07.105-.053.113-.03.121-.013.122.013.113.03.1.053.092.07.074.087.061.1.034.113v.018h-.126l-.027-.091-.043-.083-.057-.075-.069-.061-.083-.048-.1-.03-.1-.009-.1.009-.1.03-.083.048-.07.061-.056.075-.043.083-.026.091Z" transform="translate(-416.259 -160.371)"/><path class="b" d="M458.063,181.363v-.152h.292l.048.008.034.008.031.017.022.022.017.026.009.03,0,.039h-.087v-.022l0-.022-.009-.017-.012-.008-.014-.009-.022,0-.021,0h-.179v.087Z" transform="translate(-416.542 -160.617)"/><path class="b" d="M457.373,181.571l.014-.1h.126v0l-.009.092Z" transform="translate(-416.249 -160.73)"/><path class="b" d="M458.063,181.571v-.1h.109v.087h.109l.039-.008.031,0,.026-.009.022-.008.017-.013.009-.013.008-.021v-.009h.087l0,.03-.009.026-.013.022-.017.017Z" transform="translate(-416.542 -160.73)"/><path class="b" d="M459.28,181.571l-.008-.092v0h.126l.013.1Z" transform="translate(-417.057 -160.73)"/><path class="b" d="M457.373,181.642v.013l.014.126.033.118.061.1.074.091.092.075.105.052.113.035.121.013.122-.013.113-.035.1-.052.092-.075.074-.091.061-.1.034-.118.013-.126v-.013h-.13v.013l-.008.1-.027.1-.043.082-.057.073-.069.062-.083.048-.1.031-.1.009-.1-.009-.1-.031-.083-.048-.07-.062-.056-.073-.043-.082-.026-.1-.009-.1v-.013Z" transform="translate(-416.249 -160.801)"/><path class="b" d="M458.063,181.642v.253h.109v-.218h.109l.13.218h.088l-.131-.218h.031l.03-.008.026-.009.022-.018h-.414Z" transform="translate(-416.542 -160.801)"/><path class="d" d="M421.161,166.682l-.035-.261-.061-.231-.087-.2-.109-.175-.13-.148-.144-.122-.157-.1-.17-.079-.173-.066-.179-.043-.179-.03-.179-.018-.17,0-.354.018-.313.052-.284.079-.253.109-.218.131-.192.148-.17.165-.139.174-.122.183-.1.191-.077.188-.066.186-.048.184-.036.169-.025.162-.017.139-.022.357.014.322.048.292.073.257.106.231.126.2.148.179.17.148.183.126.2.109.2.083.214.065.218.053.219.03.217.022.214,0h.143l.136,0h.117l.114,0,.1-.009.092-.009.087-.009.079-.013.074-.014.069-.017.07-.022.065-.021.065-.027.07-.025.069-.035.071-.035.174-1.072-.126.074-.122.069-.126.053-.123.048-.118.039-.122.026-.118.022-.117.018-.118.009-.113,0h-.118l-.113,0-.113-.009-.113-.013-.11-.013-.113-.017-.087-.018-.087-.03-.087-.038-.079-.049-.078-.052-.071-.065-.065-.066-.061-.075-.052-.073-.047-.082-.036-.079-.03-.083-.018-.083-.008-.083,0-.073.011-.056h2.827l.022-.266.066-.367.03-.331Zm-1.181.4h-1.592l0,0h0l.011-.061.017-.091.026-.087.03-.087.039-.078.04-.075.048-.071.052-.065.057-.061.056-.052.067-.048.064-.04.075-.035.074-.025.074-.018.078-.013.083,0,.079.009.074.013.07.018.069.025.065.035.065.04.057.044.052.052.043.061.044.065.03.075.03.083.017.087.009.1.005.105Z" transform="translate(-399.03 -153.797)"/></g></g></svg>