<svg width="240" height="152" viewBox="0 0 240 152" fill="none" xmlns="http://www.w3.org/2000/svg">
<rect width="240" height="152" rx="8" fill="#DDDDDD"/>
<rect y="16" width="240" height="32" fill="#666666"/>
<rect x="8" y="56" width="224" height="32" fill="white"/>
<path d="M175.327 72H174.237V64.7754L172.052 65.5781V64.5938L175.157 63.4277H175.327V72ZM184.493 72H178.903V71.2207L181.856 67.9395C182.293 67.4434 182.594 67.041 182.758 66.7324C182.926 66.4199 183.01 66.0977 183.01 65.7656C183.01 65.3203 182.875 64.9551 182.606 64.6699C182.336 64.3848 181.977 64.2422 181.528 64.2422C180.989 64.2422 180.569 64.3965 180.268 64.7051C179.971 65.0098 179.823 65.4355 179.823 65.9824H178.739C178.739 65.1973 178.991 64.5625 179.495 64.0781C180.002 63.5938 180.68 63.3516 181.528 63.3516C182.321 63.3516 182.948 63.5605 183.409 63.9785C183.87 64.3926 184.1 64.9453 184.1 65.6367C184.1 66.4766 183.565 67.4766 182.495 68.6367L180.209 71.1152H184.493V72ZM187.617 67.207H188.432C188.943 67.1992 189.346 67.0645 189.639 66.8027C189.932 66.541 190.078 66.1875 190.078 65.7422C190.078 64.7422 189.58 64.2422 188.584 64.2422C188.115 64.2422 187.74 64.377 187.459 64.6465C187.182 64.9121 187.043 65.2656 187.043 65.707H185.959C185.959 65.0312 186.205 64.4707 186.697 64.0254C187.193 63.5762 187.822 63.3516 188.584 63.3516C189.389 63.3516 190.02 63.5645 190.477 63.9902C190.934 64.416 191.162 65.0078 191.162 65.7656C191.162 66.1367 191.041 66.4961 190.799 66.8438C190.561 67.1914 190.234 67.4512 189.82 67.623C190.289 67.7715 190.65 68.0176 190.904 68.3613C191.162 68.7051 191.291 69.125 191.291 69.6211C191.291 70.3867 191.041 70.9941 190.541 71.4434C190.041 71.8926 189.391 72.1172 188.59 72.1172C187.789 72.1172 187.137 71.9004 186.633 71.4668C186.133 71.0332 185.883 70.4609 185.883 69.75H186.973C186.973 70.1992 187.119 70.5586 187.412 70.8281C187.705 71.0977 188.098 71.2324 188.59 71.2324C189.113 71.2324 189.514 71.0957 189.791 70.8223C190.068 70.5488 190.207 70.1562 190.207 69.6445C190.207 69.1484 190.055 68.7676 189.75 68.502C189.445 68.2363 189.006 68.0996 188.432 68.0918H187.617V67.207ZM197.755 69.1348H198.939V70.0195H197.755V72H196.666V70.0195H192.781V69.3809L196.601 63.4688H197.755V69.1348ZM194.011 69.1348H196.666V64.9512L196.537 65.1855L194.011 69.1348ZM204.192 67.7227L204.626 63.4688H208.997V64.4707H205.546L205.288 66.7969C205.706 66.5508 206.18 66.4277 206.712 66.4277C207.489 66.4277 208.106 66.6855 208.563 67.2012C209.02 67.7129 209.249 68.4062 209.249 69.2812C209.249 70.1602 209.011 70.8535 208.534 71.3613C208.061 71.8652 207.399 72.1172 206.548 72.1172C205.794 72.1172 205.179 71.9082 204.702 71.4902C204.225 71.0723 203.954 70.4941 203.888 69.7559H204.913C204.979 70.2441 205.153 70.6133 205.434 70.8633C205.716 71.1094 206.087 71.2324 206.548 71.2324C207.052 71.2324 207.446 71.0605 207.731 70.7168C208.02 70.373 208.165 69.8984 208.165 69.293C208.165 68.7227 208.009 68.2656 207.696 67.9219C207.388 67.5742 206.975 67.4004 206.46 67.4004C205.987 67.4004 205.616 67.5039 205.346 67.7109L205.059 67.9453L204.192 67.7227ZM215.086 63.4629V64.3828H214.887C214.043 64.3984 213.371 64.6484 212.871 65.1328C212.371 65.6172 212.082 66.2988 212.004 67.1777C212.454 66.6621 213.067 66.4043 213.844 66.4043C214.586 66.4043 215.178 66.666 215.62 67.1895C216.065 67.7129 216.288 68.3887 216.288 69.2168C216.288 70.0957 216.047 70.7988 215.567 71.3262C215.09 71.8535 214.45 72.1172 213.645 72.1172C212.829 72.1172 212.166 71.8047 211.659 71.1797C211.151 70.5508 210.897 69.7422 210.897 68.7539V68.3379C210.897 66.7676 211.231 65.5684 211.899 64.7402C212.571 63.9082 213.569 63.4824 214.893 63.4629H215.086ZM213.663 67.3066C213.291 67.3066 212.95 67.418 212.637 67.6406C212.325 67.8633 212.108 68.1426 211.987 68.4785V68.877C211.987 69.5801 212.145 70.1465 212.461 70.5762C212.778 71.0059 213.172 71.2207 213.645 71.2207C214.133 71.2207 214.516 71.041 214.793 70.6816C215.075 70.3223 215.215 69.8516 215.215 69.2695C215.215 68.6836 215.073 68.2109 214.788 67.8516C214.506 67.4883 214.131 67.3066 213.663 67.3066ZM223.479 64.0781L219.945 72H218.809L222.33 64.3594H217.713V63.4688H223.479V64.0781Z" fill="#333333"/>
<circle cx="213" cy="67" r="15" stroke="#0288D1" stroke-width="2" stroke-linecap="round" stroke-dasharray="2 4"/>
</svg>
