<svg width="240" height="152" viewBox="0 0 240 152" fill="none" xmlns="http://www.w3.org/2000/svg">
<rect width="240" height="152" rx="8" fill="#B4DCB4"/>
<rect x="8" y="8" width="224" height="136" rx="2" fill="#666666"/>
<path d="M16 20C16 17.7909 17.7909 16 20 16H220C222.209 16 224 17.7909 224 20V144H16V20Z" fill="#B4DCB4"/>
<path d="M192.118 83H191.029V75.7754L188.843 76.5781V75.5938L191.948 74.4277H192.118V83ZM201.284 83H195.694V82.2207L198.647 78.9395C199.085 78.4434 199.386 78.041 199.55 77.7324C199.718 77.4199 199.802 77.0977 199.802 76.7656C199.802 76.3203 199.667 75.9551 199.397 75.6699C199.128 75.3848 198.768 75.2422 198.319 75.2422C197.78 75.2422 197.36 75.3965 197.059 75.7051C196.762 76.0098 196.614 76.4355 196.614 76.9824H195.53C195.53 76.1973 195.782 75.5625 196.286 75.0781C196.794 74.5938 197.471 74.3516 198.319 74.3516C199.112 74.3516 199.739 74.5605 200.2 74.9785C200.661 75.3926 200.891 75.9453 200.891 76.6367C200.891 77.4766 200.356 78.4766 199.286 79.6367L197.001 82.1152H201.284V83ZM204.409 78.207H205.223C205.735 78.1992 206.137 78.0645 206.43 77.8027C206.723 77.541 206.87 77.1875 206.87 76.7422C206.87 75.7422 206.371 75.2422 205.375 75.2422C204.907 75.2422 204.532 75.377 204.25 75.6465C203.973 75.9121 203.834 76.2656 203.834 76.707H202.75C202.75 76.0312 202.996 75.4707 203.489 75.0254C203.985 74.5762 204.614 74.3516 205.375 74.3516C206.18 74.3516 206.811 74.5645 207.268 74.9902C207.725 75.416 207.954 76.0078 207.954 76.7656C207.954 77.1367 207.832 77.4961 207.59 77.8438C207.352 78.1914 207.026 78.4512 206.612 78.623C207.08 78.7715 207.442 79.0176 207.696 79.3613C207.954 79.7051 208.082 80.125 208.082 80.6211C208.082 81.3867 207.832 81.9941 207.332 82.4434C206.832 82.8926 206.182 83.1172 205.381 83.1172C204.58 83.1172 203.928 82.9004 203.424 82.4668C202.924 82.0332 202.674 81.4609 202.674 80.75H203.764C203.764 81.1992 203.911 81.5586 204.204 81.8281C204.496 82.0977 204.889 82.2324 205.381 82.2324C205.905 82.2324 206.305 82.0957 206.582 81.8223C206.86 81.5488 206.998 81.1562 206.998 80.6445C206.998 80.1484 206.846 79.7676 206.541 79.502C206.237 79.2363 205.797 79.0996 205.223 79.0918H204.409V78.207ZM214.547 80.1348H215.73V81.0195H214.547V83H213.457V81.0195H209.572V80.3809L213.393 74.4688H214.547V80.1348ZM210.803 80.1348H213.457V75.9512L213.328 76.1855L210.803 80.1348Z" fill="#333333"/>
<ellipse cx="120" cy="87" rx="28" ry="36" fill="#666666"/>
<path d="M49.8906 36.6562H45.7812L45 39H42.5078L46.7422 27.625H48.9141L53.1719 39H50.6797L49.8906 36.6562ZM46.4141 34.7578H49.2578L47.8281 30.5L46.4141 34.7578ZM57.3969 27.625L60.3188 35.875L63.225 27.625H66.3031V39H63.9516V35.8906L64.1859 30.5234L61.1156 39H59.5063L56.4438 30.5312L56.6781 35.8906V39H54.3344V27.625H57.3969ZM75.2938 34.0703H70.7938V37.1172H76.075V39H68.45V27.625H76.0594V29.5234H70.7938V32.2344H75.2938V34.0703ZM81.7609 34.8359H79.8937V39H77.55V27.625H81.7766C83.1203 27.625 84.1568 27.9245 84.8859 28.5234C85.6151 29.1224 85.9797 29.9688 85.9797 31.0625C85.9797 31.8385 85.8104 32.487 85.4719 33.0078C85.1385 33.5234 84.6307 33.9349 83.9484 34.2422L86.4094 38.8906V39H83.8937L81.7609 34.8359ZM79.8937 32.9375H81.7844C82.3729 32.9375 82.8286 32.7891 83.1516 32.4922C83.4745 32.1901 83.6359 31.776 83.6359 31.25C83.6359 30.7135 83.4823 30.2917 83.175 29.9844C82.8729 29.6771 82.4068 29.5234 81.7766 29.5234H79.8937V32.9375ZM90.3609 39H88.0172V27.625H90.3609V39ZM101.57 35.2109C101.482 36.4349 101.029 37.3984 100.211 38.1016C99.3984 38.8047 98.3255 39.1562 96.9922 39.1562C95.5339 39.1562 94.3854 38.6667 93.5469 37.6875C92.7135 36.7031 92.2969 35.3542 92.2969 33.6406V32.9453C92.2969 31.8516 92.4896 30.888 92.875 30.0547C93.2604 29.2214 93.8099 28.5833 94.5234 28.1406C95.2422 27.6927 96.0755 27.4688 97.0234 27.4688C98.3359 27.4688 99.3932 27.8203 100.195 28.5234C100.997 29.2266 101.461 30.2135 101.586 31.4844H99.2422C99.1849 30.75 98.9792 30.2188 98.625 29.8906C98.276 29.5573 97.7422 29.3906 97.0234 29.3906C96.2422 29.3906 95.6562 29.6719 95.2656 30.2344C94.8802 30.7917 94.6823 31.6589 94.6719 32.8359V33.6953C94.6719 34.9245 94.8568 35.8229 95.2266 36.3906C95.6016 36.9583 96.1901 37.2422 96.9922 37.2422C97.7161 37.2422 98.2552 37.0781 98.6094 36.75C98.9688 36.4167 99.1745 35.9036 99.2266 35.2109H101.57ZM109.631 36.6562H105.522L104.741 39H102.248L106.483 27.625H108.655L112.912 39H110.42L109.631 36.6562ZM106.155 34.7578H108.998L107.569 30.5L106.155 34.7578ZM123.325 39H120.981L116.419 31.5156V39H114.075V27.625H116.419L120.989 35.125V27.625H123.325V39ZM136.4 34.0703H131.9V37.1172H137.181V39H129.556V27.625H137.166V29.5234H131.9V32.2344H136.4V34.0703ZM142.727 31.5469L144.859 27.625H147.555L144.242 33.2656L147.641 39H144.914L142.727 35.0156L140.539 39H137.812L141.211 33.2656L137.898 27.625H140.594L142.727 31.5469ZM151.272 34.9922V39H148.928V27.625H153.366C154.22 27.625 154.97 27.7812 155.616 28.0938C156.267 28.4062 156.767 28.8516 157.116 29.4297C157.465 30.0026 157.639 30.6562 157.639 31.3906C157.639 32.5052 157.256 33.3854 156.491 34.0312C155.73 34.6719 154.676 34.9922 153.327 34.9922H151.272ZM151.272 33.0938H153.366C153.985 33.0938 154.457 32.9479 154.78 32.6562C155.108 32.3646 155.272 31.9479 155.272 31.4062C155.272 30.849 155.108 30.3984 154.78 30.0547C154.452 29.7109 153.998 29.5339 153.42 29.5234H151.272V33.0938ZM163.567 34.8359H161.7V39H159.356V27.625H163.583C164.927 27.625 165.963 27.9245 166.692 28.5234C167.421 29.1224 167.786 29.9688 167.786 31.0625C167.786 31.8385 167.617 32.487 167.278 33.0078C166.945 33.5234 166.437 33.9349 165.755 34.2422L168.216 38.8906V39H165.7L163.567 34.8359ZM161.7 32.9375H163.591C164.179 32.9375 164.635 32.7891 164.958 32.4922C165.281 32.1901 165.442 31.776 165.442 31.25C165.442 30.7135 165.289 30.2917 164.981 29.9844C164.679 29.6771 164.213 29.5234 163.583 29.5234H161.7V32.9375ZM176.519 34.0703H172.019V37.1172H177.3V39H169.675V27.625H177.284V29.5234H172.019V32.2344H176.519V34.0703ZM184.673 36.0156C184.673 35.5729 184.517 35.2344 184.205 35C183.892 34.7604 183.33 34.5104 182.517 34.25C181.705 33.9844 181.061 33.724 180.587 33.4688C179.296 32.7708 178.65 31.8307 178.65 30.6484C178.65 30.0339 178.822 29.487 179.166 29.0078C179.515 28.5234 180.012 28.1458 180.658 27.875C181.309 27.6042 182.038 27.4688 182.845 27.4688C183.658 27.4688 184.382 27.6172 185.017 27.9141C185.653 28.2057 186.145 28.6198 186.494 29.1562C186.848 29.6927 187.025 30.3021 187.025 30.9844H184.681C184.681 30.4635 184.517 30.0599 184.189 29.7734C183.861 29.4818 183.4 29.3359 182.806 29.3359C182.233 29.3359 181.788 29.4583 181.47 29.7031C181.153 29.9427 180.994 30.2604 180.994 30.6562C180.994 31.026 181.179 31.3359 181.548 31.5859C181.923 31.8359 182.473 32.0703 183.197 32.2891C184.53 32.6901 185.502 33.1875 186.111 33.7812C186.72 34.375 187.025 35.1146 187.025 36C187.025 36.9844 186.653 37.7578 185.908 38.3203C185.163 38.8776 184.16 39.1562 182.9 39.1562C182.025 39.1562 181.228 38.9974 180.509 38.6797C179.791 38.3568 179.241 37.9167 178.861 37.3594C178.486 36.8021 178.298 36.1562 178.298 35.4219H180.65C180.65 36.6771 181.4 37.3047 182.9 37.3047C183.457 37.3047 183.892 37.1927 184.205 36.9688C184.517 36.7396 184.673 36.4219 184.673 36.0156ZM194.617 36.0156C194.617 35.5729 194.461 35.2344 194.148 35C193.836 34.7604 193.273 34.5104 192.461 34.25C191.648 33.9844 191.005 33.724 190.531 33.4688C189.24 32.7708 188.594 31.8307 188.594 30.6484C188.594 30.0339 188.766 29.487 189.109 29.0078C189.458 28.5234 189.956 28.1458 190.602 27.875C191.253 27.6042 191.982 27.4688 192.789 27.4688C193.602 27.4688 194.326 27.6172 194.961 27.9141C195.596 28.2057 196.089 28.6198 196.438 29.1562C196.792 29.6927 196.969 30.3021 196.969 30.9844H194.625C194.625 30.4635 194.461 30.0599 194.133 29.7734C193.805 29.4818 193.344 29.3359 192.75 29.3359C192.177 29.3359 191.732 29.4583 191.414 29.7031C191.096 29.9427 190.938 30.2604 190.938 30.6562C190.938 31.026 191.122 31.3359 191.492 31.5859C191.867 31.8359 192.417 32.0703 193.141 32.2891C194.474 32.6901 195.445 33.1875 196.055 33.7812C196.664 34.375 196.969 35.1146 196.969 36C196.969 36.9844 196.596 37.7578 195.852 38.3203C195.107 38.8776 194.104 39.1562 192.844 39.1562C191.969 39.1562 191.172 38.9974 190.453 38.6797C189.734 38.3568 189.185 37.9167 188.805 37.3594C188.43 36.8021 188.242 36.1562 188.242 35.4219H190.594C190.594 36.6771 191.344 37.3047 192.844 37.3047C193.401 37.3047 193.836 37.1927 194.148 36.9688C194.461 36.7396 194.617 36.4219 194.617 36.0156Z" fill="#666666"/>
<path d="M52.5672 100H50.3094V91.2969L47.6141 92.1328V90.2969L52.325 88.6094H52.5672V100ZM64.1672 100H56.3703V98.4531L60.05 94.5312C60.5552 93.9792 60.9276 93.4974 61.1672 93.0859C61.412 92.6745 61.5344 92.2839 61.5344 91.9141C61.5344 91.4089 61.4068 91.013 61.1516 90.7266C60.8964 90.4349 60.5318 90.2891 60.0578 90.2891C59.5474 90.2891 59.1437 90.4661 58.8469 90.8203C58.5552 91.1693 58.4094 91.6302 58.4094 92.2031H56.1437C56.1437 91.5104 56.3078 90.8776 56.6359 90.3047C56.9693 89.7318 57.438 89.2839 58.0422 88.9609C58.6464 88.6328 59.3312 88.4688 60.0969 88.4688C61.2687 88.4688 62.1776 88.75 62.8234 89.3125C63.4745 89.875 63.8 90.6693 63.8 91.6953C63.8 92.2578 63.6542 92.8307 63.3625 93.4141C63.0708 93.9974 62.5708 94.6771 61.8625 95.4531L59.2766 98.1797H64.1672V100ZM67.9547 93.3125H69.1578C69.7307 93.3125 70.1552 93.1693 70.4312 92.8828C70.7073 92.5964 70.8453 92.2161 70.8453 91.7422C70.8453 91.2839 70.7073 90.9271 70.4312 90.6719C70.1604 90.4167 69.7854 90.2891 69.3062 90.2891C68.874 90.2891 68.512 90.4089 68.2203 90.6484C67.9286 90.8828 67.7828 91.1901 67.7828 91.5703H65.525C65.525 90.9766 65.6839 90.4453 66.0016 89.9766C66.3245 89.5026 66.7724 89.1328 67.3453 88.8672C67.9234 88.6016 68.5589 88.4688 69.2516 88.4688C70.4547 88.4688 71.3974 88.7578 72.0797 89.3359C72.762 89.9089 73.1031 90.7005 73.1031 91.7109C73.1031 92.2318 72.9443 92.7109 72.6266 93.1484C72.3089 93.5859 71.8922 93.9219 71.3766 94.1562C72.0172 94.3854 72.4937 94.7292 72.8062 95.1875C73.124 95.6458 73.2828 96.1875 73.2828 96.8125C73.2828 97.8229 72.913 98.6328 72.1734 99.2422C71.4391 99.8516 70.4651 100.156 69.2516 100.156C68.1161 100.156 67.1865 99.8568 66.4625 99.2578C65.7437 98.6589 65.3844 97.8672 65.3844 96.8828H67.6422C67.6422 97.3099 67.801 97.6589 68.1187 97.9297C68.4417 98.2005 68.8375 98.3359 69.3062 98.3359C69.8427 98.3359 70.262 98.1953 70.5641 97.9141C70.8714 97.6276 71.025 97.25 71.025 96.7812C71.025 95.6458 70.4 95.0781 69.15 95.0781H67.9547V93.3125ZM81.625 95.7188H82.9141V97.5391H81.625V100H79.3672V97.5391H74.7031L74.6016 96.1172L79.3437 88.625H81.625V95.7188ZM76.8516 95.7188H79.3672V91.7031L79.2187 91.9609L76.8516 95.7188ZM88.6531 94.4062L89.3094 88.625H95.6844V90.5078H91.1609L90.8797 92.9531C91.4161 92.6667 91.9865 92.5234 92.5906 92.5234C93.674 92.5234 94.5229 92.8594 95.1375 93.5312C95.7521 94.2031 96.0594 95.1432 96.0594 96.3516C96.0594 97.0859 95.9031 97.7448 95.5906 98.3281C95.2833 98.9062 94.8406 99.3568 94.2625 99.6797C93.6844 99.9974 93.0021 100.156 92.2156 100.156C91.5281 100.156 90.8901 100.018 90.3016 99.7422C89.713 99.4609 89.2469 99.0677 88.9031 98.5625C88.5646 98.0573 88.3849 97.4818 88.3641 96.8359H90.5984C90.6453 97.3099 90.8094 97.6797 91.0906 97.9453C91.3771 98.2057 91.7495 98.3359 92.2078 98.3359C92.7182 98.3359 93.1115 98.1536 93.3875 97.7891C93.6635 97.4193 93.8016 96.8984 93.8016 96.2266C93.8016 95.5807 93.6427 95.0859 93.325 94.7422C93.0073 94.3984 92.5568 94.2266 91.9734 94.2266C91.437 94.2266 91.0021 94.3672 90.6687 94.6484L90.45 94.8516L88.6531 94.4062ZM103.73 88.5078V90.3672H103.511C102.49 90.3828 101.667 90.6484 101.042 91.1641C100.422 91.6797 100.05 92.3958 99.925 93.3125C100.529 92.6979 101.292 92.3906 102.214 92.3906C103.204 92.3906 103.99 92.7448 104.573 93.4531C105.157 94.1615 105.448 95.0938 105.448 96.25C105.448 96.9896 105.287 97.6589 104.964 98.2578C104.646 98.8568 104.193 99.3229 103.605 99.6562C103.021 99.9896 102.36 100.156 101.62 100.156C100.422 100.156 99.4536 99.7396 98.7141 98.9062C97.9797 98.0729 97.6125 96.9609 97.6125 95.5703V94.7578C97.6125 93.5234 97.8443 92.4349 98.3078 91.4922C98.7766 90.5443 99.4458 89.8125 100.316 89.2969C101.191 88.776 102.204 88.513 103.355 88.5078H103.73ZM101.527 94.2031C101.162 94.2031 100.831 94.2995 100.534 94.4922C100.237 94.6797 100.019 94.9297 99.8781 95.2422V95.9297C99.8781 96.6849 100.027 97.276 100.323 97.7031C100.62 98.125 101.037 98.3359 101.573 98.3359C102.058 98.3359 102.448 98.1458 102.745 97.7656C103.047 97.3802 103.198 96.8828 103.198 96.2734C103.198 95.6536 103.047 95.1536 102.745 94.7734C102.443 94.3932 102.037 94.2031 101.527 94.2031ZM114.627 89.8906L110.228 100H107.845L112.252 90.4531H106.595V88.625H114.627V89.8906ZM123.594 91.6484C123.594 92.2005 123.456 92.6901 123.18 93.1172C122.904 93.5443 122.523 93.8854 122.039 94.1406C122.591 94.4062 123.029 94.7734 123.352 95.2422C123.674 95.7057 123.836 96.2526 123.836 96.8828C123.836 97.8932 123.492 98.6927 122.805 99.2812C122.117 99.8646 121.182 100.156 120 100.156C118.818 100.156 117.88 99.862 117.188 99.2734C116.495 98.6849 116.148 97.888 116.148 96.8828C116.148 96.2526 116.31 95.7031 116.633 95.2344C116.956 94.7656 117.391 94.401 117.938 94.1406C117.453 93.8854 117.073 93.5443 116.797 93.1172C116.526 92.6901 116.391 92.2005 116.391 91.6484C116.391 90.6797 116.714 89.9089 117.359 89.3359C118.005 88.7578 118.883 88.4688 119.992 88.4688C121.096 88.4688 121.971 88.7552 122.617 89.3281C123.268 89.8958 123.594 90.6693 123.594 91.6484ZM121.57 96.7188C121.57 96.224 121.427 95.8281 121.141 95.5312C120.854 95.2344 120.469 95.0859 119.984 95.0859C119.505 95.0859 119.122 95.2344 118.836 95.5312C118.549 95.8229 118.406 96.2188 118.406 96.7188C118.406 97.2031 118.547 97.5938 118.828 97.8906C119.109 98.1875 119.5 98.3359 120 98.3359C120.49 98.3359 120.872 98.1927 121.148 97.9062C121.43 97.6198 121.57 97.224 121.57 96.7188ZM121.336 91.7578C121.336 91.3151 121.219 90.9609 120.984 90.6953C120.75 90.4245 120.419 90.2891 119.992 90.2891C119.57 90.2891 119.242 90.4193 119.008 90.6797C118.773 90.9401 118.656 91.2995 118.656 91.7578C118.656 92.2109 118.773 92.5755 119.008 92.8516C119.242 93.1276 119.573 93.2656 120 93.2656C120.427 93.2656 120.755 93.1276 120.984 92.8516C121.219 92.5755 121.336 92.2109 121.336 91.7578ZM130.748 95.4531C130.16 96.0312 129.472 96.3203 128.686 96.3203C127.681 96.3203 126.876 95.9766 126.272 95.2891C125.668 94.5964 125.366 93.6641 125.366 92.4922C125.366 91.7474 125.527 91.0651 125.85 90.4453C126.178 89.8203 126.634 89.3359 127.217 88.9922C127.801 88.6432 128.457 88.4688 129.186 88.4688C129.936 88.4688 130.603 88.6562 131.186 89.0312C131.769 89.4062 132.222 89.9453 132.545 90.6484C132.868 91.3516 133.032 92.1562 133.037 93.0625V93.8984C133.037 95.7943 132.566 97.2839 131.623 98.3672C130.681 99.4505 129.345 100.029 127.616 100.102L127.061 100.109V98.2266L127.561 98.2188C129.524 98.1302 130.587 97.2083 130.748 95.4531ZM129.241 94.5938C129.605 94.5938 129.918 94.5 130.178 94.3125C130.444 94.125 130.644 93.8984 130.78 93.6328V92.7031C130.78 91.9375 130.634 91.3438 130.342 90.9219C130.051 90.5 129.66 90.2891 129.17 90.2891C128.717 90.2891 128.345 90.4974 128.053 90.9141C127.761 91.3255 127.616 91.8438 127.616 92.4688C127.616 93.0885 127.756 93.599 128.037 94C128.324 94.3958 128.725 94.5938 129.241 94.5938ZM142.411 95.2969C142.411 96.8698 142.085 98.0729 141.434 98.9062C140.783 99.7396 139.83 100.156 138.575 100.156C137.335 100.156 136.387 99.7474 135.731 98.9297C135.075 98.112 134.739 96.9401 134.723 95.4141V93.3203C134.723 91.7318 135.052 90.526 135.708 89.7031C136.369 88.8802 137.32 88.4688 138.559 88.4688C139.799 88.4688 140.747 88.8776 141.403 89.6953C142.059 90.5078 142.395 91.6771 142.411 93.2031V95.2969ZM140.153 93C140.153 92.0573 140.023 91.3724 139.762 90.9453C139.507 90.513 139.106 90.2969 138.559 90.2969C138.028 90.2969 137.635 90.5026 137.38 90.9141C137.13 91.3203 136.997 91.9583 136.981 92.8281V95.5938C136.981 96.5208 137.106 97.2109 137.356 97.6641C137.611 98.112 138.018 98.3359 138.575 98.3359C139.127 98.3359 139.526 98.1198 139.77 97.6875C140.015 97.2552 140.143 96.5938 140.153 95.7031V93ZM153.611 100H151.353V91.2969L148.658 92.1328V90.2969L153.369 88.6094H153.611V100ZM165.211 100H157.414V98.4531L161.094 94.5312C161.599 93.9792 161.971 93.4974 162.211 93.0859C162.456 92.6745 162.578 92.2839 162.578 91.9141C162.578 91.4089 162.451 91.013 162.195 90.7266C161.94 90.4349 161.576 90.2891 161.102 90.2891C160.591 90.2891 160.188 90.4661 159.891 90.8203C159.599 91.1693 159.453 91.6302 159.453 92.2031H157.188C157.188 91.5104 157.352 90.8776 157.68 90.3047C158.013 89.7318 158.482 89.2839 159.086 88.9609C159.69 88.6328 160.375 88.4688 161.141 88.4688C162.312 88.4688 163.221 88.75 163.867 89.3125C164.518 89.875 164.844 90.6693 164.844 91.6953C164.844 92.2578 164.698 92.8307 164.406 93.4141C164.115 93.9974 163.615 94.6771 162.906 95.4531L160.32 98.1797H165.211V100ZM168.998 93.3125H170.202C170.774 93.3125 171.199 93.1693 171.475 92.8828C171.751 92.5964 171.889 92.2161 171.889 91.7422C171.889 91.2839 171.751 90.9271 171.475 90.6719C171.204 90.4167 170.829 90.2891 170.35 90.2891C169.918 90.2891 169.556 90.4089 169.264 90.6484C168.972 90.8828 168.827 91.1901 168.827 91.5703H166.569C166.569 90.9766 166.728 90.4453 167.045 89.9766C167.368 89.5026 167.816 89.1328 168.389 88.8672C168.967 88.6016 169.603 88.4688 170.295 88.4688C171.498 88.4688 172.441 88.7578 173.123 89.3359C173.806 89.9089 174.147 90.7005 174.147 91.7109C174.147 92.2318 173.988 92.7109 173.67 93.1484C173.353 93.5859 172.936 93.9219 172.42 94.1562C173.061 94.3854 173.537 94.7292 173.85 95.1875C174.168 95.6458 174.327 96.1875 174.327 96.8125C174.327 97.8229 173.957 98.6328 173.217 99.2422C172.483 99.8516 171.509 100.156 170.295 100.156C169.16 100.156 168.23 99.8568 167.506 99.2578C166.787 98.6589 166.428 97.8672 166.428 96.8828H168.686C168.686 97.3099 168.845 97.6589 169.162 97.9297C169.485 98.2005 169.881 98.3359 170.35 98.3359C170.886 98.3359 171.306 98.1953 171.608 97.9141C171.915 97.6276 172.069 97.25 172.069 96.7812C172.069 95.6458 171.444 95.0781 170.194 95.0781H168.998V93.3125ZM182.669 95.7188H183.958V97.5391H182.669V100H180.411V97.5391H175.747L175.645 96.1172L180.387 88.625H182.669V95.7188ZM177.895 95.7188H180.411V91.7031L180.262 91.9609L177.895 95.7188ZM185.613 94.4062L186.269 88.625H192.644V90.5078H188.12L187.839 92.9531C188.376 92.6667 188.946 92.5234 189.55 92.5234C190.633 92.5234 191.482 92.8594 192.097 93.5312C192.711 94.2031 193.019 95.1432 193.019 96.3516C193.019 97.0859 192.863 97.7448 192.55 98.3281C192.243 98.9062 191.8 99.3568 191.222 99.6797C190.644 99.9974 189.961 100.156 189.175 100.156C188.488 100.156 187.849 100.018 187.261 99.7422C186.672 99.4609 186.206 99.0677 185.863 98.5625C185.524 98.0573 185.344 97.4818 185.323 96.8359H187.558C187.605 97.3099 187.769 97.6797 188.05 97.9453C188.336 98.2057 188.709 98.3359 189.167 98.3359C189.678 98.3359 190.071 98.1536 190.347 97.7891C190.623 97.4193 190.761 96.8984 190.761 96.2266C190.761 95.5807 190.602 95.0859 190.284 94.7422C189.967 94.3984 189.516 94.2266 188.933 94.2266C188.396 94.2266 187.961 94.3672 187.628 94.6484L187.409 94.8516L185.613 94.4062Z" fill="white"/>
<circle cx="202" cy="78" r="18" stroke="#0288D1" stroke-width="2" stroke-linecap="round" stroke-dasharray="2 4"/>
</svg>
