<svg width="171" height="20" viewBox="0 0 171 20" fill="none" xmlns="http://www.w3.org/2000/svg">
<path d="M7.20508 11.3838C7.20508 12.5094 6.94759 13.4163 6.43262 14.1045C5.91764 14.7926 5.22038 15.1367 4.34082 15.1367C3.44303 15.1367 2.73665 14.8519 2.22168 14.2822V17.8438H0.957031V7.60352H2.1123L2.17383 8.42383C2.6888 7.78581 3.4043 7.4668 4.32031 7.4668C5.20898 7.4668 5.91081 7.80176 6.42578 8.47168C6.94531 9.1416 7.20508 10.0736 7.20508 11.2676V11.3838ZM5.94043 11.2402C5.94043 10.4062 5.7627 9.74772 5.40723 9.26465C5.05176 8.78158 4.56413 8.54004 3.94434 8.54004C3.17871 8.54004 2.60449 8.87956 2.22168 9.55859V13.0928C2.59993 13.7673 3.17871 14.1045 3.95801 14.1045C4.56413 14.1045 5.04492 13.8652 5.40039 13.3867C5.76042 12.9036 5.94043 12.1882 5.94043 11.2402ZM12.6436 8.73828C12.4521 8.70638 12.2448 8.69043 12.0215 8.69043C11.1921 8.69043 10.6292 9.04362 10.333 9.75V15H9.06836V7.60352H10.2988L10.3193 8.45801C10.734 7.7972 11.3219 7.4668 12.083 7.4668C12.3291 7.4668 12.516 7.4987 12.6436 7.5625V8.73828ZM15.4365 15H14.1719V7.60352H15.4365V15ZM14.0693 5.6416C14.0693 5.43652 14.1309 5.26335 14.2539 5.12207C14.3815 4.98079 14.5684 4.91016 14.8145 4.91016C15.0605 4.91016 15.2474 4.98079 15.375 5.12207C15.5026 5.26335 15.5664 5.43652 15.5664 5.6416C15.5664 5.84668 15.5026 6.01758 15.375 6.1543C15.2474 6.29102 15.0605 6.35938 14.8145 6.35938C14.5684 6.35938 14.3815 6.29102 14.2539 6.1543C14.1309 6.01758 14.0693 5.84668 14.0693 5.6416ZM20.1572 13.2842L21.9893 7.60352H23.2812L20.6289 15H19.665L16.9854 7.60352H18.2773L20.1572 13.2842ZM29.2051 15C29.1322 14.8542 29.0729 14.5944 29.0273 14.2207C28.4395 14.8314 27.7376 15.1367 26.9219 15.1367C26.1927 15.1367 25.5934 14.9316 25.124 14.5215C24.6592 14.1068 24.4268 13.5827 24.4268 12.9492C24.4268 12.179 24.7184 11.582 25.3018 11.1582C25.8896 10.7298 26.7145 10.5156 27.7764 10.5156H29.0068V9.93457C29.0068 9.49251 28.8747 9.1416 28.6104 8.88184C28.346 8.61751 27.9564 8.48535 27.4414 8.48535C26.9902 8.48535 26.612 8.59928 26.3066 8.82715C26.0013 9.05501 25.8486 9.33073 25.8486 9.6543H24.5771C24.5771 9.28516 24.707 8.92969 24.9668 8.58789C25.2311 8.24154 25.5866 7.9681 26.0332 7.76758C26.4844 7.56706 26.9788 7.4668 27.5166 7.4668C28.3688 7.4668 29.0365 7.68099 29.5195 8.10938C30.0026 8.5332 30.2533 9.11882 30.2715 9.86621V13.2705C30.2715 13.9495 30.3581 14.4896 30.5312 14.8906V15H29.2051ZM27.1064 14.0361C27.5029 14.0361 27.8789 13.9336 28.2344 13.7285C28.5898 13.5234 28.8473 13.2568 29.0068 12.9287V11.4111H28.0156C26.4661 11.4111 25.6914 11.8646 25.6914 12.7715C25.6914 13.168 25.8236 13.4779 26.0879 13.7012C26.3522 13.9245 26.6917 14.0361 27.1064 14.0361ZM35.4707 14.1045C35.9219 14.1045 36.3161 13.9678 36.6533 13.6943C36.9906 13.4209 37.1774 13.0791 37.2139 12.6689H38.4102C38.3874 13.0928 38.2415 13.4961 37.9727 13.8789C37.7038 14.2617 37.3438 14.5671 36.8926 14.7949C36.446 15.0228 35.972 15.1367 35.4707 15.1367C34.4635 15.1367 33.6615 14.8018 33.0645 14.1318C32.472 13.4574 32.1758 12.5368 32.1758 11.3701V11.1582C32.1758 10.4382 32.3079 9.79785 32.5723 9.2373C32.8366 8.67676 33.2148 8.24154 33.707 7.93164C34.2038 7.62174 34.7894 7.4668 35.4639 7.4668C36.2933 7.4668 36.9814 7.71517 37.5283 8.21191C38.0798 8.70866 38.3737 9.35352 38.4102 10.1465H37.2139C37.1774 9.66797 36.9951 9.27604 36.667 8.9707C36.3434 8.66081 35.9424 8.50586 35.4639 8.50586C34.8213 8.50586 34.3223 8.73828 33.9668 9.20312C33.6159 9.66341 33.4404 10.3311 33.4404 11.2061V11.4453C33.4404 12.2975 33.6159 12.9538 33.9668 13.4141C34.3177 13.8743 34.819 14.1045 35.4707 14.1045ZM42.502 13.1475L44.2246 7.60352H45.5781L42.6045 16.1416C42.1442 17.3721 41.4128 17.9873 40.4102 17.9873L40.1709 17.9668L39.6992 17.8779V16.8525L40.041 16.8799C40.4694 16.8799 40.8021 16.7933 41.0391 16.6201C41.2806 16.4469 41.4788 16.1302 41.6338 15.6699L41.9141 14.918L39.2754 7.60352H40.6562L42.502 13.1475ZM57.8867 11.5684C57.832 12.6712 57.5586 13.5417 57.0664 14.1797C56.5742 14.8177 55.9157 15.1367 55.0908 15.1367C54.2386 15.1367 53.6917 14.7539 53.4502 13.9883C53.2041 14.3757 52.9215 14.665 52.6025 14.8564C52.2881 15.0433 51.9622 15.1367 51.625 15.1367C50.9779 15.1367 50.488 14.8724 50.1553 14.3438C49.8226 13.8151 49.6995 13.0837 49.7861 12.1494C49.8545 11.3975 50.0254 10.7275 50.2988 10.1396C50.5768 9.5472 50.9323 9.08236 51.3652 8.74512C51.8027 8.40788 52.2607 8.23926 52.7393 8.23926C53.1084 8.23926 53.4388 8.28939 53.7305 8.38965C54.0221 8.48535 54.3503 8.67676 54.7148 8.96387L54.3594 12.751C54.2728 13.8037 54.5645 14.3301 55.2344 14.3301C55.7493 14.3301 56.1663 14.0749 56.4854 13.5645C56.8044 13.054 56.9775 12.3887 57.0049 11.5684C57.0915 9.79557 56.7611 8.44434 56.0137 7.51465C55.2708 6.58496 54.1383 6.12012 52.6162 6.12012C51.7002 6.12012 50.8867 6.34798 50.1758 6.80371C49.4648 7.25488 48.9043 7.90885 48.4941 8.76562C48.084 9.6224 47.8538 10.6113 47.8037 11.7324C47.749 12.8626 47.8857 13.8447 48.2139 14.6787C48.542 15.5081 49.041 16.1416 49.7109 16.5791C50.3854 17.0212 51.1989 17.2422 52.1514 17.2422C52.5615 17.2422 52.9717 17.1921 53.3818 17.0918C53.7965 16.9915 54.1406 16.8617 54.4141 16.7021L54.667 17.4883C54.3844 17.666 54.0085 17.8118 53.5391 17.9258C53.0742 18.0397 52.6025 18.0967 52.124 18.0967C50.9847 18.0967 50.0049 17.8392 49.1846 17.3242C48.3643 16.8138 47.749 16.0755 47.3389 15.1094C46.9333 14.1478 46.7578 13.0221 46.8125 11.7324C46.8672 10.4792 47.1475 9.35352 47.6533 8.35547C48.1592 7.35286 48.8451 6.5804 49.7109 6.03809C50.5768 5.49121 51.5544 5.21777 52.6436 5.21777C53.7783 5.21777 54.7513 5.47298 55.5625 5.9834C56.3737 6.49382 56.9775 7.22982 57.374 8.19141C57.7705 9.15299 57.9414 10.2786 57.8867 11.5684ZM50.873 12.1494C50.8092 12.7965 50.8685 13.2933 51.0508 13.6396C51.2376 13.986 51.5316 14.1592 51.9326 14.1592C52.2061 14.1592 52.4681 14.043 52.7188 13.8105C52.974 13.5781 53.1836 13.2454 53.3477 12.8125L53.3545 12.751L53.6689 9.3125C53.4137 9.18034 53.1403 9.11426 52.8486 9.11426C52.3154 9.11426 51.8734 9.38542 51.5225 9.92773C51.1761 10.4701 50.9596 11.2106 50.873 12.1494ZM59.4561 11.2334C59.4561 10.5088 59.5973 9.8571 59.8799 9.27832C60.167 8.69954 60.5635 8.25293 61.0693 7.93848C61.5798 7.62402 62.1608 7.4668 62.8125 7.4668C63.8197 7.4668 64.6331 7.81543 65.2529 8.5127C65.8773 9.20996 66.1895 10.1374 66.1895 11.2949V11.3838C66.1895 12.1038 66.0505 12.751 65.7725 13.3252C65.499 13.8949 65.1048 14.3392 64.5898 14.6582C64.0794 14.9772 63.4915 15.1367 62.8262 15.1367C61.8236 15.1367 61.0101 14.7881 60.3857 14.0908C59.766 13.3936 59.4561 12.4707 59.4561 11.3223V11.2334ZM60.7275 11.3838C60.7275 12.2041 60.9167 12.8626 61.2949 13.3594C61.6777 13.8561 62.1882 14.1045 62.8262 14.1045C63.4688 14.1045 63.9792 13.8538 64.3574 13.3525C64.7357 12.8467 64.9248 12.1403 64.9248 11.2334C64.9248 10.4222 64.7311 9.76595 64.3438 9.26465C63.9609 8.75879 63.4505 8.50586 62.8125 8.50586C62.1882 8.50586 61.6846 8.75423 61.3018 9.25098C60.9189 9.74772 60.7275 10.4587 60.7275 11.3838ZM69.2148 7.60352L69.249 8.42383C69.7913 7.78581 70.5228 7.4668 71.4434 7.4668C72.4779 7.4668 73.182 7.86328 73.5557 8.65625C73.8018 8.30078 74.1208 8.01367 74.5127 7.79492C74.9092 7.57617 75.3763 7.4668 75.9141 7.4668C77.5365 7.4668 78.3613 8.32585 78.3887 10.0439V15H77.124V10.1191C77.124 9.59049 77.0033 9.19629 76.7617 8.93652C76.5202 8.6722 76.1146 8.54004 75.5449 8.54004C75.0755 8.54004 74.6859 8.68132 74.376 8.96387C74.0661 9.24186 73.8861 9.61784 73.8359 10.0918V15H72.5645V10.1533C72.5645 9.0778 72.0381 8.54004 70.9854 8.54004C70.1559 8.54004 69.5885 8.89323 69.2832 9.59961V15H68.0186V7.60352H69.2148ZM80.2178 11.2334C80.2178 10.5088 80.359 9.8571 80.6416 9.27832C80.9287 8.69954 81.3252 8.25293 81.8311 7.93848C82.3415 7.62402 82.9225 7.4668 83.5742 7.4668C84.5814 7.4668 85.3949 7.81543 86.0146 8.5127C86.639 9.20996 86.9512 10.1374 86.9512 11.2949V11.3838C86.9512 12.1038 86.8122 12.751 86.5342 13.3252C86.2607 13.8949 85.8665 14.3392 85.3516 14.6582C84.8411 14.9772 84.2533 15.1367 83.5879 15.1367C82.5853 15.1367 81.7718 14.7881 81.1475 14.0908C80.5277 13.3936 80.2178 12.4707 80.2178 11.3223V11.2334ZM81.4893 11.3838C81.4893 12.2041 81.6784 12.8626 82.0566 13.3594C82.4395 13.8561 82.9499 14.1045 83.5879 14.1045C84.2305 14.1045 84.7409 13.8538 85.1191 13.3525C85.4974 12.8467 85.6865 12.1403 85.6865 11.2334C85.6865 10.4222 85.4928 9.76595 85.1055 9.26465C84.7227 8.75879 84.2122 8.50586 83.5742 8.50586C82.9499 8.50586 82.4463 8.75423 82.0635 9.25098C81.6807 9.74772 81.4893 10.4587 81.4893 11.3838ZM91.7539 14.1045C92.2051 14.1045 92.5993 13.9678 92.9365 13.6943C93.2738 13.4209 93.4606 13.0791 93.4971 12.6689H94.6934C94.6706 13.0928 94.5247 13.4961 94.2559 13.8789C93.987 14.2617 93.627 14.5671 93.1758 14.7949C92.7292 15.0228 92.2552 15.1367 91.7539 15.1367C90.7467 15.1367 89.9447 14.8018 89.3477 14.1318C88.7552 13.4574 88.459 12.5368 88.459 11.3701V11.1582C88.459 10.4382 88.5911 9.79785 88.8555 9.2373C89.1198 8.67676 89.498 8.24154 89.9902 7.93164C90.487 7.62174 91.0726 7.4668 91.7471 7.4668C92.5765 7.4668 93.2646 7.71517 93.8115 8.21191C94.363 8.70866 94.6569 9.35352 94.6934 10.1465H93.4971C93.4606 9.66797 93.2783 9.27604 92.9502 8.9707C92.6266 8.66081 92.2256 8.50586 91.7471 8.50586C91.1045 8.50586 90.6055 8.73828 90.25 9.20312C89.8991 9.66341 89.7236 10.3311 89.7236 11.2061V11.4453C89.7236 12.2975 89.8991 12.9538 90.25 13.4141C90.6009 13.8743 91.1022 14.1045 91.7539 14.1045ZM97.6299 8.49902C98.1904 7.81087 98.9196 7.4668 99.8174 7.4668C101.381 7.4668 102.169 8.34863 102.183 10.1123V15H100.918V10.1055C100.913 9.57227 100.79 9.17806 100.549 8.92285C100.312 8.66764 99.9404 8.54004 99.4346 8.54004C99.0244 8.54004 98.6644 8.64941 98.3545 8.86816C98.0446 9.08691 97.8031 9.37402 97.6299 9.72949V15H96.3652V4.5H97.6299V8.49902ZM105.7 15H104.436V7.60352H105.7V15ZM104.333 5.6416C104.333 5.43652 104.395 5.26335 104.518 5.12207C104.645 4.98079 104.832 4.91016 105.078 4.91016C105.324 4.91016 105.511 4.98079 105.639 5.12207C105.766 5.26335 105.83 5.43652 105.83 5.6416C105.83 5.84668 105.766 6.01758 105.639 6.1543C105.511 6.29102 105.324 6.35938 105.078 6.35938C104.832 6.35938 104.645 6.29102 104.518 6.1543C104.395 6.01758 104.333 5.84668 104.333 5.6416ZM110.045 11.5752L109.252 12.4023V15H107.987V4.5H109.252V10.8506L109.929 10.0371L112.232 7.60352H113.771L110.893 10.6934L114.105 15H112.622L110.045 11.5752ZM119.893 15C119.82 14.8542 119.76 14.5944 119.715 14.2207C119.127 14.8314 118.425 15.1367 117.609 15.1367C116.88 15.1367 116.281 14.9316 115.812 14.5215C115.347 14.1068 115.114 13.5827 115.114 12.9492C115.114 12.179 115.406 11.582 115.989 11.1582C116.577 10.7298 117.402 10.5156 118.464 10.5156H119.694V9.93457C119.694 9.49251 119.562 9.1416 119.298 8.88184C119.034 8.61751 118.644 8.48535 118.129 8.48535C117.678 8.48535 117.299 8.59928 116.994 8.82715C116.689 9.05501 116.536 9.33073 116.536 9.6543H115.265C115.265 9.28516 115.395 8.92969 115.654 8.58789C115.919 8.24154 116.274 7.9681 116.721 7.76758C117.172 7.56706 117.666 7.4668 118.204 7.4668C119.056 7.4668 119.724 7.68099 120.207 8.10938C120.69 8.5332 120.941 9.11882 120.959 9.86621V13.2705C120.959 13.9495 121.046 14.4896 121.219 14.8906V15H119.893ZM117.794 14.0361C118.19 14.0361 118.566 13.9336 118.922 13.7285C119.277 13.5234 119.535 13.2568 119.694 12.9287V11.4111H118.703C117.154 11.4111 116.379 11.8646 116.379 12.7715C116.379 13.168 116.511 13.4779 116.775 13.7012C117.04 13.9245 117.379 14.0361 117.794 14.0361ZM126.261 15.1367C125.258 15.1367 124.442 14.8086 123.813 14.1523C123.185 13.4915 122.87 12.6097 122.87 11.5068V11.2744C122.87 10.5407 123.009 9.88672 123.287 9.3125C123.57 8.73372 123.962 8.28255 124.463 7.95898C124.969 7.63086 125.516 7.4668 126.104 7.4668C127.065 7.4668 127.812 7.78353 128.346 8.41699C128.879 9.05046 129.146 9.95736 129.146 11.1377V11.6641H124.135C124.153 12.3932 124.365 12.9834 124.771 13.4346C125.181 13.8812 125.7 14.1045 126.329 14.1045C126.776 14.1045 127.154 14.0133 127.464 13.8311C127.774 13.6488 128.045 13.4072 128.277 13.1064L129.05 13.708C128.43 14.6605 127.5 15.1367 126.261 15.1367ZM126.104 8.50586C125.593 8.50586 125.165 8.69271 124.818 9.06641C124.472 9.43555 124.258 9.95508 124.176 10.625H127.881V10.5293C127.844 9.88672 127.671 9.38997 127.361 9.03906C127.051 8.68359 126.632 8.50586 126.104 8.50586ZM134.44 8.73828C134.249 8.70638 134.042 8.69043 133.818 8.69043C132.989 8.69043 132.426 9.04362 132.13 9.75V15H130.865V7.60352H132.096L132.116 8.45801C132.531 7.7972 133.119 7.4668 133.88 7.4668C134.126 7.4668 134.313 7.4987 134.44 7.5625V8.73828ZM137.233 15H135.969V7.60352H137.233V15ZM135.866 5.6416C135.866 5.43652 135.928 5.26335 136.051 5.12207C136.178 4.98079 136.365 4.91016 136.611 4.91016C136.857 4.91016 137.044 4.98079 137.172 5.12207C137.299 5.26335 137.363 5.43652 137.363 5.6416C137.363 5.84668 137.299 6.01758 137.172 6.1543C137.044 6.29102 136.857 6.35938 136.611 6.35938C136.365 6.35938 136.178 6.29102 136.051 6.1543C135.928 6.01758 135.866 5.84668 135.866 5.6416ZM139.541 14.3369C139.541 14.1182 139.605 13.9359 139.732 13.79C139.865 13.6442 140.061 13.5713 140.32 13.5713C140.58 13.5713 140.776 13.6442 140.908 13.79C141.045 13.9359 141.113 14.1182 141.113 14.3369C141.113 14.5465 141.045 14.722 140.908 14.8633C140.776 15.0046 140.58 15.0752 140.32 15.0752C140.061 15.0752 139.865 15.0046 139.732 14.8633C139.605 14.722 139.541 14.5465 139.541 14.3369ZM146.422 14.1045C146.873 14.1045 147.267 13.9678 147.604 13.6943C147.942 13.4209 148.129 13.0791 148.165 12.6689H149.361C149.339 13.0928 149.193 13.4961 148.924 13.8789C148.655 14.2617 148.295 14.5671 147.844 14.7949C147.397 15.0228 146.923 15.1367 146.422 15.1367C145.415 15.1367 144.613 14.8018 144.016 14.1318C143.423 13.4574 143.127 12.5368 143.127 11.3701V11.1582C143.127 10.4382 143.259 9.79785 143.523 9.2373C143.788 8.67676 144.166 8.24154 144.658 7.93164C145.155 7.62174 145.741 7.4668 146.415 7.4668C147.244 7.4668 147.933 7.71517 148.479 8.21191C149.031 8.70866 149.325 9.35352 149.361 10.1465H148.165C148.129 9.66797 147.946 9.27604 147.618 8.9707C147.295 8.66081 146.894 8.50586 146.415 8.50586C145.772 8.50586 145.273 8.73828 144.918 9.20312C144.567 9.66341 144.392 10.3311 144.392 11.2061V11.4453C144.392 12.2975 144.567 12.9538 144.918 13.4141C145.269 13.8743 145.77 14.1045 146.422 14.1045ZM150.698 11.2334C150.698 10.5088 150.84 9.8571 151.122 9.27832C151.409 8.69954 151.806 8.25293 152.312 7.93848C152.822 7.62402 153.403 7.4668 154.055 7.4668C155.062 7.4668 155.875 7.81543 156.495 8.5127C157.119 9.20996 157.432 10.1374 157.432 11.2949V11.3838C157.432 12.1038 157.293 12.751 157.015 13.3252C156.741 13.8949 156.347 14.3392 155.832 14.6582C155.322 14.9772 154.734 15.1367 154.068 15.1367C153.066 15.1367 152.252 14.7881 151.628 14.0908C151.008 13.3936 150.698 12.4707 150.698 11.3223V11.2334ZM151.97 11.3838C151.97 12.2041 152.159 12.8626 152.537 13.3594C152.92 13.8561 153.43 14.1045 154.068 14.1045C154.711 14.1045 155.221 13.8538 155.6 13.3525C155.978 12.8467 156.167 12.1403 156.167 11.2334C156.167 10.4222 155.973 9.76595 155.586 9.26465C155.203 8.75879 154.693 8.50586 154.055 8.50586C153.43 8.50586 152.927 8.75423 152.544 9.25098C152.161 9.74772 151.97 10.4587 151.97 11.3838ZM160.457 7.60352L160.491 8.42383C161.034 7.78581 161.765 7.4668 162.686 7.4668C163.72 7.4668 164.424 7.86328 164.798 8.65625C165.044 8.30078 165.363 8.01367 165.755 7.79492C166.151 7.57617 166.618 7.4668 167.156 7.4668C168.779 7.4668 169.604 8.32585 169.631 10.0439V15H168.366V10.1191C168.366 9.59049 168.245 9.19629 168.004 8.93652C167.762 8.6722 167.357 8.54004 166.787 8.54004C166.318 8.54004 165.928 8.68132 165.618 8.96387C165.308 9.24186 165.128 9.61784 165.078 10.0918V15H163.807V10.1533C163.807 9.0778 163.28 8.54004 162.228 8.54004C161.398 8.54004 160.831 8.89323 160.525 9.59961V15H159.261V7.60352H160.457Z" fill="black" fill-opacity="0.6"/>
</svg>
