<svg width="1920" height="752" viewBox="0 0 1920 752" fill="none" xmlns="http://www.w3.org/2000/svg">
<rect width="1920" height="752" fill="#FBC02D"/>
<mask id="mask0" mask-type="alpha" maskUnits="userSpaceOnUse" x="863" y="102" width="164" height="164">
<circle cx="945" cy="184" r="80" stroke="white" stroke-width="3" stroke-linecap="round" stroke-dasharray="4 8"/>
</mask>
<g mask="url(#mask0)">
<path fill-rule="evenodd" clip-rule="evenodd" d="M1025 96H865V152H1013V140H1025V96Z" fill="white"/>
</g>
<path d="M1018.49 142.909C1019.15 142.509 1020 142.989 1020 143.766V152.234C1020 153.011 1019.15 153.491 1018.49 153.091L1011.43 148.857C1010.78 148.469 1010.78 147.531 1011.43 147.143L1018.49 142.909Z" fill="white"/>
<path fill-rule="evenodd" clip-rule="evenodd" d="M830.77 157.74C828.43 160.08 828.43 163.89 830.77 166.23C833.11 168.6 836.89 168.6 839.26 166.23C841.6 163.89 841.6 160.08 839.26 157.74C836.92 155.4 833.11 155.4 830.77 157.74ZM852.79 195L868 210.21L863.71 214.5L853.21 204H838C833.02 204 829 199.98 829 195V177.75C829 174.03 832.03 171 835.75 171H835.84C836.86 171 837.85 171.27 838.72 171.69C839.5 172.05 840.22 172.56 840.79 173.19L844.99 177.84C848.17 181.35 854.02 184.02 859 183.96V190.44C853.3 190.44 846.7 187.41 842.5 183.96V195H852.79ZM847 207H829V213H847V207Z" fill="#616161"/>
<rect x="861.5" y="159.5" width="13" height="21" rx="1.5" stroke="white" stroke-width="3"/>
<path fill-rule="evenodd" clip-rule="evenodd" d="M856 116C856 129.255 845.255 140 832 140C818.745 140 808 129.255 808 116C808 102.745 818.745 92 832 92C845.255 92 856 102.745 856 116ZM829 145C829 146.657 827.657 148 826 148C824.343 148 823 146.657 823 145C823 143.343 824.343 142 826 142C827.657 142 829 143.343 829 145ZM828 154C829.105 154 830 153.105 830 152C830 150.895 829.105 150 828 150C826.895 150 826 150.895 826 152C826 153.105 826.895 154 828 154Z" fill="white"/>
<path d="M838.06 126.99H839.72C840.56 126.99 841.25 126.35 841.35 125.53L843 109.05H838V105H836.03V109.05H831.06L831.36 111.39C833.07 111.86 834.67 112.71 835.63 113.65C837.07 115.07 838.06 116.54 838.06 118.94V126.99ZM821 125.99V125H836.03V125.99C836.03 126.54 835.58 126.99 835.02 126.99H822.01C821.45 126.99 821 126.54 821 125.99ZM836.03 118.99C836.03 110.99 821 110.99 821 118.99H836.03ZM821.02 121H836.02V123H821.02V121Z" fill="#616161"/>
<path d="M1100 162H1052V168H1100V162ZM1103 192V186L1100 171H1052L1049 186V192H1052V210H1082V192H1094V210H1100V192H1103ZM1076 204H1058V192H1076V204Z" fill="#616161"/>
<rect x="1009.5" y="159.5" width="29" height="21" rx="1.5" stroke="white" stroke-width="3"/>
<circle cx="1068" cy="130" r="24" fill="white"/>
<path d="M1074.06 140.99H1075.72C1076.56 140.99 1077.25 140.35 1077.35 139.53L1079 123.05H1074V119H1072.03V123.05H1067.06L1067.36 125.39C1069.07 125.86 1070.67 126.71 1071.63 127.65C1073.07 129.07 1074.06 130.54 1074.06 132.94V140.99ZM1057 139.99V139H1072.03V139.99C1072.03 140.54 1071.58 140.99 1071.02 140.99H1058.01C1057.45 140.99 1057 140.54 1057 139.99ZM1072.03 132.99C1072.03 124.99 1057 124.99 1057 132.99H1072.03ZM1057.02 135H1072.02V137H1057.02V135Z" fill="#616161"/>
<path d="M1044 154L1056 150L1048 142L1044 154Z" fill="white"/>
<circle cx="1103" cy="143" r="3" fill="white"/>
<path d="M1100 112H1106L1105 136H1101L1100 112Z" fill="white"/>
<path d="M893.267 68.336C897.971 68.336 901.211 64.808 901.211 59.048C901.211 53.288 897.971 49.904 893.267 49.904C888.563 49.904 885.323 53.264 885.323 59.048C885.323 64.808 888.563 68.336 893.267 68.336ZM893.267 65.264C890.627 65.264 888.947 62.84 888.947 59.048C888.947 55.232 890.627 52.952 893.267 52.952C895.907 52.952 897.587 55.232 897.587 59.048C897.587 62.84 895.907 65.264 893.267 65.264ZM904.392 68H907.896V59.984C908.664 58.04 909.936 57.344 910.992 57.344C911.544 57.344 911.928 57.416 912.384 57.56L913.008 54.512C912.6 54.344 912.168 54.224 911.424 54.224C910.032 54.224 908.592 55.184 907.608 56.936H907.512L907.272 54.56H904.392V68ZM919.292 68.336C920.684 68.336 922.028 67.568 923.012 66.608H923.084L923.372 68H926.228V48.848H922.7V53.576L922.844 55.688C921.884 54.8 920.948 54.224 919.436 54.224C916.532 54.224 913.796 56.912 913.796 61.304C913.796 65.696 915.956 68.336 919.292 68.336ZM920.204 65.432C918.428 65.432 917.42 64.04 917.42 61.256C917.42 58.568 918.692 57.128 920.204 57.128C921.044 57.128 921.884 57.392 922.7 58.136V64.04C921.932 65.048 921.14 65.432 920.204 65.432ZM935.841 68.336C937.521 68.336 939.225 67.76 940.545 66.848L939.345 64.688C938.385 65.288 937.425 65.624 936.321 65.624C934.329 65.624 932.889 64.472 932.601 62.264H940.881C940.977 61.952 941.049 61.304 941.049 60.656C941.049 56.936 939.129 54.224 935.433 54.224C932.217 54.224 929.169 56.936 929.169 61.304C929.169 65.72 932.097 68.336 935.841 68.336ZM932.553 59.936C932.817 57.968 934.065 56.96 935.481 56.96C937.209 56.96 938.025 58.112 938.025 59.936H932.553ZM943.955 68H947.459V59.984C948.227 58.04 949.499 57.344 950.555 57.344C951.107 57.344 951.491 57.416 951.947 57.56L952.571 54.512C952.163 54.344 951.731 54.224 950.987 54.224C949.595 54.224 948.155 55.184 947.171 56.936H947.075L946.835 54.56H943.955V68ZM967.189 68.336C971.893 68.336 975.133 64.808 975.133 59.048C975.133 53.288 971.893 49.904 967.189 49.904C962.485 49.904 959.245 53.264 959.245 59.048C959.245 64.808 962.485 68.336 967.189 68.336ZM967.189 65.264C964.549 65.264 962.869 62.84 962.869 59.048C962.869 55.232 964.549 52.952 967.189 52.952C969.829 52.952 971.509 55.232 971.509 59.048C971.509 62.84 969.829 65.264 967.189 65.264ZM978.314 68H981.818V58.76C982.826 57.776 983.522 57.248 984.626 57.248C985.946 57.248 986.522 57.992 986.522 60.056V68H990.05V59.624C990.05 56.24 988.802 54.224 985.898 54.224C984.074 54.224 982.706 55.184 981.53 56.336H981.434L981.194 54.56H978.314V68ZM997.001 68.336C997.817 68.336 998.417 68.192 998.825 68.024L998.393 65.408C998.153 65.456 998.057 65.456 997.913 65.456C997.577 65.456 997.193 65.192 997.193 64.4V48.848H993.689V64.232C993.689 66.728 994.553 68.336 997.001 68.336ZM1001.26 68H1004.76V54.56H1001.26V68ZM1003.04 52.4C1004.24 52.4 1005.12 51.584 1005.12 50.48C1005.12 49.328 1004.24 48.56 1003.04 48.56C1001.81 48.56 1000.92 49.328 1000.92 50.48C1000.92 51.584 1001.81 52.4 1003.04 52.4ZM1008.55 68H1012.05V58.76C1013.06 57.776 1013.76 57.248 1014.86 57.248C1016.18 57.248 1016.76 57.992 1016.76 60.056V68H1020.28V59.624C1020.28 56.24 1019.04 54.224 1016.13 54.224C1014.31 54.224 1012.94 55.184 1011.76 56.336H1011.67L1011.43 54.56H1008.55V68ZM1029.76 68.336C1031.44 68.336 1033.14 67.76 1034.46 66.848L1033.26 64.688C1032.3 65.288 1031.34 65.624 1030.24 65.624C1028.24 65.624 1026.8 64.472 1026.52 62.264H1034.8C1034.89 61.952 1034.96 61.304 1034.96 60.656C1034.96 56.936 1033.04 54.224 1029.35 54.224C1026.13 54.224 1023.08 56.936 1023.08 61.304C1023.08 65.72 1026.01 68.336 1029.76 68.336ZM1026.47 59.936C1026.73 57.968 1027.98 56.96 1029.4 56.96C1031.12 56.96 1031.94 58.112 1031.94 59.936H1026.47Z" fill="white"/>
<path d="M873.602 266H884.762V263.024H877.154V258.272H883.394V255.296H877.154V251.192H884.498V248.24H873.602V266ZM891.392 266.336C892.928 266.336 894.272 265.568 895.448 264.56H895.52L895.784 266H898.664V258.152C898.664 254.264 896.912 252.224 893.504 252.224C891.392 252.224 889.472 253.016 887.888 254L889.16 256.328C890.408 255.608 891.608 255.056 892.856 255.056C894.512 255.056 895.088 256.064 895.136 257.384C889.736 257.96 887.408 259.472 887.408 262.352C887.408 264.632 888.992 266.336 891.392 266.336ZM892.544 263.576C891.512 263.576 890.768 263.12 890.768 262.064C890.768 260.864 891.872 259.976 895.136 259.544V262.256C894.296 263.096 893.552 263.576 892.544 263.576ZM906.099 266.336C909.603 266.336 911.451 264.44 911.451 262.088C911.451 259.592 909.483 258.704 907.707 258.032C906.291 257.504 904.971 257.144 904.971 256.16C904.971 255.392 905.547 254.864 906.747 254.864C907.755 254.864 908.691 255.344 909.651 256.016L911.235 253.88C910.107 253.04 908.619 252.224 906.651 252.224C903.627 252.224 901.659 253.928 901.659 256.352C901.659 258.584 903.627 259.616 905.331 260.264C906.747 260.816 908.139 261.272 908.139 262.28C908.139 263.12 907.539 263.696 906.195 263.696C904.947 263.696 903.795 263.168 902.595 262.232L900.987 264.44C902.307 265.544 904.299 266.336 906.099 266.336ZM915.318 271.4C918.318 271.4 919.758 269.576 920.934 266.408L925.71 252.56H922.326L920.478 258.8C920.166 260.048 919.83 261.344 919.518 262.592H919.398C919.014 261.296 918.678 260 918.27 258.8L916.134 252.56H912.582L917.814 265.76L917.574 266.552C917.19 267.728 916.422 268.592 915.054 268.592C914.742 268.592 914.358 268.496 914.118 268.424L913.47 271.136C913.998 271.304 914.526 271.4 915.318 271.4ZM933.649 266H937.201V259.688H939.577C943.393 259.688 946.441 257.864 946.441 253.808C946.441 249.608 943.417 248.24 939.481 248.24H933.649V266ZM937.201 256.88V251.048H939.217C941.665 251.048 942.961 251.744 942.961 253.808C942.961 255.848 941.785 256.88 939.337 256.88H937.201ZM951.696 266.336C953.232 266.336 954.576 265.568 955.752 264.56H955.824L956.088 266H958.968V258.152C958.968 254.264 957.216 252.224 953.808 252.224C951.696 252.224 949.776 253.016 948.192 254L949.464 256.328C950.712 255.608 951.912 255.056 953.16 255.056C954.816 255.056 955.392 256.064 955.44 257.384C950.04 257.96 947.712 259.472 947.712 262.352C947.712 264.632 949.296 266.336 951.696 266.336ZM952.848 263.576C951.816 263.576 951.072 263.12 951.072 262.064C951.072 260.864 952.176 259.976 955.44 259.544V262.256C954.6 263.096 953.856 263.576 952.848 263.576ZM963.74 271.4C966.74 271.4 968.18 269.576 969.356 266.408L974.132 252.56H970.748L968.9 258.8C968.588 260.048 968.252 261.344 967.94 262.592H967.82C967.436 261.296 967.1 260 966.692 258.8L964.556 252.56H961.004L966.236 265.76L965.996 266.552C965.612 267.728 964.844 268.592 963.476 268.592C963.164 268.592 962.78 268.496 962.54 268.424L961.892 271.136C962.42 271.304 962.948 271.4 963.74 271.4ZM976.345 266H979.849V256.76C980.809 255.752 981.673 255.248 982.441 255.248C983.713 255.248 984.313 255.992 984.313 258.056V266H987.841V256.76C988.801 255.752 989.665 255.248 990.433 255.248C991.705 255.248 992.305 255.992 992.305 258.056V266H995.833V257.624C995.833 254.24 994.513 252.224 991.657 252.224C989.905 252.224 988.609 253.28 987.385 254.576C986.737 253.088 985.609 252.224 983.689 252.224C981.937 252.224 980.689 253.184 979.561 254.36H979.465L979.225 252.56H976.345V266ZM1005.31 266.336C1006.99 266.336 1008.69 265.76 1010.01 264.848L1008.81 262.688C1007.85 263.288 1006.89 263.624 1005.79 263.624C1003.8 263.624 1002.36 262.472 1002.07 260.264H1010.35C1010.45 259.952 1010.52 259.304 1010.52 258.656C1010.52 254.936 1008.6 252.224 1004.9 252.224C1001.69 252.224 998.638 254.936 998.638 259.304C998.638 263.72 1001.57 266.336 1005.31 266.336ZM1002.02 257.936C1002.29 255.968 1003.53 254.96 1004.95 254.96C1006.68 254.96 1007.49 256.112 1007.49 257.936H1002.02ZM1013.42 266H1016.93V256.76C1017.94 255.776 1018.63 255.248 1019.74 255.248C1021.06 255.248 1021.63 255.992 1021.63 258.056V266H1025.16V257.624C1025.16 254.24 1023.91 252.224 1021.01 252.224C1019.18 252.224 1017.82 253.184 1016.64 254.336H1016.54L1016.3 252.56H1013.42V266ZM1033.72 266.336C1034.89 266.336 1035.83 266.072 1036.55 265.832L1035.97 263.264C1035.61 263.408 1035.09 263.552 1034.65 263.552C1033.45 263.552 1032.83 262.832 1032.83 261.296V255.344H1036.14V252.56H1032.83V248.96H1029.88L1029.47 252.56L1027.41 252.728V255.344H1029.3V261.296C1029.3 264.32 1030.53 266.336 1033.72 266.336ZM1042.44 266.336C1045.94 266.336 1047.79 264.44 1047.79 262.088C1047.79 259.592 1045.82 258.704 1044.04 258.032C1042.63 257.504 1041.31 257.144 1041.31 256.16C1041.31 255.392 1041.88 254.864 1043.08 254.864C1044.09 254.864 1045.03 255.344 1045.99 256.016L1047.57 253.88C1046.44 253.04 1044.96 252.224 1042.99 252.224C1039.96 252.224 1038 253.928 1038 256.352C1038 258.584 1039.96 259.616 1041.67 260.264C1043.08 260.816 1044.48 261.272 1044.48 262.28C1044.48 263.12 1043.88 263.696 1042.53 263.696C1041.28 263.696 1040.13 263.168 1038.93 262.232L1037.32 264.44C1038.64 265.544 1040.64 266.336 1042.44 266.336Z" fill="white"/>
<path d="M808 314C808 305.163 815.163 298 824 298H1096C1104.84 298 1112 305.163 1112 314V410C1112 418.837 1104.84 426 1096 426H824C815.163 426 808 418.837 808 410V314Z" fill="#FAF9F9"/>
<path fill-rule="evenodd" clip-rule="evenodd" d="M1063.09 370.413L1063.09 370.409C1060.72 368.025 1056.71 364 1049.18 364H1033.94C1017.44 363.94 1004 350.5 1004 334H992C992 352.96 1004.66 369.04 1022 374.26V386H1058V382.3L1061.7 386H1078.65L1063.34 370.66C1063.26 370.58 1063.18 370.497 1063.09 370.413ZM1090 397.38V397.7L1090.16 397.54L1090 397.38ZM1040 358C1046.63 358 1052 352.627 1052 346C1052 339.373 1046.63 334 1040 334C1033.37 334 1028 339.373 1028 346C1028 352.627 1033.37 358 1040 358Z" fill="#616161"/>
<path d="M936 382H1112V398H936V382Z" fill="#616161"/>
<path d="M974 350H970C970 344.48 965.52 340 960 340C954.48 340 950 344.48 950 350H946C943.8 350 942.02 351.8 942.02 354L942 378C942 380.2 943.8 382 946 382H974C976.2 382 978 380.2 978 378V354C978 351.8 976.2 350 974 350ZM960 344C963.32 344 966 346.68 966 350H954C954 346.68 956.68 344 960 344ZM960 364C954.48 364 950 359.52 950 354H954C954 357.32 956.68 360 960 360C963.32 360 966 357.32 966 354H970C970 359.52 965.52 364 960 364Z" fill="#FBC02D"/>
<path fill-rule="evenodd" clip-rule="evenodd" d="M901 343C901 349.6 895.6 355 889 355C882.4 355 877 349.6 877 343C877 336.4 882.4 331 889 331C895.6 331 901 336.4 901 343ZM856.752 426L866.8 375.4L856 379.6V400H844V371.8L875.2 358.6C876.1 358.6 876.85 358.45 877.6 358.3C878.35 358.15 879.1 358 880 358C884.2 358 887.8 360.4 890.2 364L896.2 373.6C901 382 910.6 388 922 388V400C908.8 400 896.8 394 889 385L885.4 403L898 415V426H886V424L873.4 412L870.25 426H856.752Z" fill="#616161"/>
<path d="M864.364 494H867.916V487.688H870.292C874.108 487.688 877.156 485.864 877.156 481.808C877.156 477.608 874.132 476.24 870.196 476.24H864.364V494ZM867.916 484.88V479.048H869.932C872.38 479.048 873.676 479.744 873.676 481.808C873.676 483.848 872.5 484.88 870.052 484.88H867.916ZM885.09 494.336C888.45 494.336 891.546 491.744 891.546 487.304C891.546 482.816 888.45 480.224 885.09 480.224C881.73 480.224 878.634 482.816 878.634 487.304C878.634 491.744 881.73 494.336 885.09 494.336ZM885.09 491.456C883.266 491.456 882.234 489.824 882.234 487.304C882.234 484.76 883.266 483.104 885.09 483.104C886.914 483.104 887.946 484.76 887.946 487.304C887.946 489.824 886.914 491.456 885.09 491.456ZM896.542 494H900.574L901.942 488.144C902.23 486.896 902.422 485.648 902.686 484.232H902.806C903.07 485.648 903.286 486.872 903.574 488.144L904.99 494H909.142L912.454 480.56H909.19L907.726 487.208C907.462 488.504 907.294 489.8 907.054 491.12H906.934C906.646 489.8 906.406 488.504 906.094 487.208L904.414 480.56H901.27L899.662 487.208C899.326 488.48 899.086 489.8 898.822 491.12H898.726C898.486 489.8 898.318 488.504 898.054 487.208L896.59 480.56H893.062L896.542 494ZM920.673 494.336C922.353 494.336 924.057 493.76 925.377 492.848L924.177 490.688C923.217 491.288 922.257 491.624 921.153 491.624C919.161 491.624 917.721 490.472 917.433 488.264H925.713C925.809 487.952 925.881 487.304 925.881 486.656C925.881 482.936 923.961 480.224 920.265 480.224C917.049 480.224 914.001 482.936 914.001 487.304C914.001 491.72 916.929 494.336 920.673 494.336ZM917.385 485.936C917.649 483.968 918.897 482.96 920.313 482.96C922.041 482.96 922.857 484.112 922.857 485.936H917.385ZM928.787 494H932.291V485.984C933.059 484.04 934.331 483.344 935.387 483.344C935.939 483.344 936.323 483.416 936.779 483.56L937.403 480.512C936.995 480.344 936.563 480.224 935.819 480.224C934.427 480.224 932.987 481.184 932.003 482.936H931.907L931.667 480.56H928.787V494ZM944.791 494.336C946.471 494.336 948.175 493.76 949.495 492.848L948.295 490.688C947.335 491.288 946.375 491.624 945.271 491.624C943.279 491.624 941.839 490.472 941.551 488.264H949.831C949.927 487.952 949.999 487.304 949.999 486.656C949.999 482.936 948.079 480.224 944.383 480.224C941.167 480.224 938.119 482.936 938.119 487.304C938.119 491.72 941.047 494.336 944.791 494.336ZM941.503 485.936C941.767 483.968 943.015 482.96 944.431 482.96C946.159 482.96 946.975 484.112 946.975 485.936H941.503ZM957.632 494.336C959.024 494.336 960.368 493.568 961.352 492.608H961.424L961.712 494H964.568V474.848H961.04V479.576L961.184 481.688C960.224 480.8 959.288 480.224 957.776 480.224C954.872 480.224 952.136 482.912 952.136 487.304C952.136 491.696 954.296 494.336 957.632 494.336ZM958.544 491.432C956.768 491.432 955.76 490.04 955.76 487.256C955.76 484.568 957.032 483.128 958.544 483.128C959.384 483.128 960.224 483.392 961.04 484.136V490.04C960.272 491.048 959.48 491.432 958.544 491.432ZM980.531 494.336C983.483 494.336 986.243 491.672 986.243 487.04C986.243 482.936 984.251 480.224 980.939 480.224C979.619 480.224 978.275 480.872 977.219 481.832L977.291 479.672V474.848H973.787V494H976.547L976.859 492.584H976.931C978.035 493.712 979.331 494.336 980.531 494.336ZM979.739 491.432C979.019 491.432 978.131 491.168 977.291 490.424V484.52C978.227 483.584 979.043 483.128 979.955 483.128C981.803 483.128 982.619 484.544 982.619 487.112C982.619 490.04 981.371 491.432 979.739 491.432ZM990.22 499.4C993.22 499.4 994.66 497.576 995.836 494.408L1000.61 480.56H997.228L995.38 486.8C995.068 488.048 994.732 489.344 994.42 490.592H994.3C993.916 489.296 993.58 488 993.172 486.8L991.036 480.56H987.484L992.716 493.76L992.476 494.552C992.092 495.728 991.324 496.592 989.956 496.592C989.644 496.592 989.26 496.496 989.02 496.424L988.372 499.136C988.9 499.304 989.428 499.4 990.22 499.4ZM1008.55 494H1011.91V486.872C1011.91 484.832 1011.65 482.6 1011.48 480.68H1011.6L1013.4 484.496L1018.54 494H1022.14V476.24H1018.78V483.32C1018.78 485.336 1019.04 487.688 1019.23 489.536H1019.11L1017.34 485.696L1012.18 476.24H1008.55V494ZM1026.53 494H1030.08V487.688H1032.46C1036.27 487.688 1039.32 485.864 1039.32 481.808C1039.32 477.608 1036.3 476.24 1032.36 476.24H1026.53V494ZM1030.08 484.88V479.048H1032.1C1034.54 479.048 1035.84 479.744 1035.84 481.808C1035.84 483.848 1034.66 484.88 1032.22 484.88H1030.08ZM1049.59 494.336C1054.3 494.336 1057.54 490.808 1057.54 485.048C1057.54 479.288 1054.3 475.904 1049.59 475.904C1044.89 475.904 1041.65 479.264 1041.65 485.048C1041.65 490.808 1044.89 494.336 1049.59 494.336ZM1049.59 491.264C1046.95 491.264 1045.27 488.84 1045.27 485.048C1045.27 481.232 1046.95 478.952 1049.59 478.952C1052.23 478.952 1053.91 481.232 1053.91 485.048C1053.91 488.84 1052.23 491.264 1049.59 491.264Z" fill="white"/>
<path d="M926.24 590.28C929.66 590.28 931.68 588.22 931.68 585.8C931.68 583.66 930.5 582.52 928.7 581.78L926.76 580.96C925.5 580.46 924.44 580.08 924.44 579.02C924.44 578.04 925.28 577.46 926.58 577.46C927.8 577.46 928.78 577.9 929.72 578.68L931.22 576.82C930.02 575.6 928.3 574.92 926.58 574.92C923.58 574.92 921.46 576.78 921.46 579.2C921.46 581.36 922.96 582.56 924.46 583.18L926.44 584.02C927.76 584.58 928.66 584.92 928.66 586.02C928.66 587.06 927.84 587.72 926.3 587.72C925 587.72 923.6 587.06 922.54 586.08L920.84 588.12C922.28 589.5 924.26 590.28 926.24 590.28ZM938.92 590.28C940.32 590.28 941.74 589.8 942.84 589.04L941.84 587.24C941.04 587.74 940.24 588.02 939.32 588.02C937.66 588.02 936.46 587.06 936.22 585.22H943.12C943.2 584.96 943.26 584.42 943.26 583.88C943.26 580.78 941.66 578.52 938.58 578.52C935.9 578.52 933.36 580.78 933.36 584.42C933.36 588.1 935.8 590.28 938.92 590.28ZM936.18 583.28C936.4 581.64 937.44 580.8 938.62 580.8C940.06 580.8 940.74 581.76 940.74 583.28H936.18ZM945.682 590H948.602V583.32C949.242 581.7 950.302 581.12 951.182 581.12C951.642 581.12 951.962 581.18 952.342 581.3L952.862 578.76C952.522 578.62 952.162 578.52 951.542 578.52C950.382 578.52 949.182 579.32 948.362 580.78H948.282L948.082 578.8H945.682V590ZM957.186 590H960.586L964.326 578.8H961.506L959.866 584.38C959.566 585.48 959.246 586.64 958.966 587.78H958.866C958.566 586.64 958.246 585.48 957.966 584.38L956.326 578.8H953.366L957.186 590ZM966.189 590H969.109V578.8H966.189V590ZM967.669 577C968.669 577 969.409 576.32 969.409 575.4C969.409 574.44 968.669 573.8 967.669 573.8C966.649 573.8 965.909 574.44 965.909 575.4C965.909 576.32 966.649 577 967.669 577ZM977.024 590.28C978.264 590.28 979.624 589.86 980.684 588.92L979.524 586.98C978.904 587.5 978.144 587.88 977.344 587.88C975.724 587.88 974.564 586.52 974.564 584.42C974.564 582.3 975.724 580.92 977.424 580.92C978.064 580.92 978.584 581.18 979.144 581.66L980.544 579.76C979.724 579.06 978.664 578.52 977.284 578.52C974.244 578.52 971.564 580.68 971.564 584.42C971.564 588.12 973.924 590.28 977.024 590.28ZM987.065 590.28C988.465 590.28 989.885 589.8 990.985 589.04L989.985 587.24C989.185 587.74 988.385 588.02 987.465 588.02C985.805 588.02 984.605 587.06 984.365 585.22H991.265C991.345 584.96 991.405 584.42 991.405 583.88C991.405 580.78 989.805 578.52 986.725 578.52C984.045 578.52 981.505 580.78 981.505 584.42C981.505 588.1 983.945 590.28 987.065 590.28ZM984.325 583.28C984.545 581.64 985.585 580.8 986.765 580.8C988.205 580.8 988.885 581.76 988.885 583.28H984.325ZM998.597 590H1001.56V584H1006.82V581.52H1001.56V577.66H1007.72V575.2H998.597V590ZM1014.55 590.28C1015.95 590.28 1017.37 589.8 1018.47 589.04L1017.47 587.24C1016.67 587.74 1015.87 588.02 1014.95 588.02C1013.29 588.02 1012.09 587.06 1011.85 585.22H1018.75C1018.83 584.96 1018.89 584.42 1018.89 583.88C1018.89 580.78 1017.29 578.52 1014.21 578.52C1011.53 578.52 1008.99 580.78 1008.99 584.42C1008.99 588.1 1011.43 590.28 1014.55 590.28ZM1011.81 583.28C1012.03 581.64 1013.07 580.8 1014.25 580.8C1015.69 580.8 1016.37 581.76 1016.37 583.28H1011.81ZM1026.17 590.28C1027.57 590.28 1028.99 589.8 1030.09 589.04L1029.09 587.24C1028.29 587.74 1027.49 588.02 1026.57 588.02C1024.91 588.02 1023.71 587.06 1023.47 585.22H1030.37C1030.45 584.96 1030.51 584.42 1030.51 583.88C1030.51 580.78 1028.91 578.52 1025.83 578.52C1023.15 578.52 1020.61 580.78 1020.61 584.42C1020.61 588.1 1023.05 590.28 1026.17 590.28ZM1023.43 583.28C1023.65 581.64 1024.69 580.8 1025.87 580.8C1027.31 580.8 1027.99 581.76 1027.99 583.28H1023.43Z" fill="#616161"/>
<path d="M926.24 628.28C929.66 628.28 931.68 626.22 931.68 623.8C931.68 621.66 930.5 620.52 928.7 619.78L926.76 618.96C925.5 618.46 924.44 618.08 924.44 617.02C924.44 616.04 925.28 615.46 926.58 615.46C927.8 615.46 928.78 615.9 929.72 616.68L931.22 614.82C930.02 613.6 928.3 612.92 926.58 612.92C923.58 612.92 921.46 614.78 921.46 617.2C921.46 619.36 922.96 620.56 924.46 621.18L926.44 622.02C927.76 622.58 928.66 622.92 928.66 624.02C928.66 625.06 927.84 625.72 926.3 625.72C925 625.72 923.6 625.06 922.54 624.08L920.84 626.12C922.28 627.5 924.26 628.28 926.24 628.28ZM936.82 628.28C938.1 628.28 939.22 627.64 940.2 626.8H940.26L940.48 628H942.88V621.46C942.88 618.22 941.42 616.52 938.58 616.52C936.82 616.52 935.22 617.18 933.9 618L934.96 619.94C936 619.34 937 618.88 938.04 618.88C939.42 618.88 939.9 619.72 939.94 620.82C935.44 621.3 933.5 622.56 933.5 624.96C933.5 626.86 934.82 628.28 936.82 628.28ZM937.78 625.98C936.92 625.98 936.3 625.6 936.3 624.72C936.3 623.72 937.22 622.98 939.94 622.62V624.88C939.24 625.58 938.62 625.98 937.78 625.98ZM948.637 628.28C949.317 628.28 949.817 628.16 950.157 628.02L949.797 625.84C949.597 625.88 949.517 625.88 949.397 625.88C949.117 625.88 948.797 625.66 948.797 625V612.04H945.877V624.86C945.877 626.94 946.597 628.28 948.637 628.28ZM957.045 628.28C958.445 628.28 959.865 627.8 960.965 627.04L959.965 625.24C959.165 625.74 958.365 626.02 957.445 626.02C955.785 626.02 954.585 625.06 954.345 623.22H961.245C961.325 622.96 961.385 622.42 961.385 621.88C961.385 618.78 959.785 616.52 956.705 616.52C954.025 616.52 951.485 618.78 951.485 622.42C951.485 626.1 953.925 628.28 957.045 628.28ZM954.305 621.28C954.525 619.64 955.565 618.8 956.745 618.8C958.185 618.8 958.865 619.76 958.865 621.28H954.305ZM967.007 628.28C969.927 628.28 971.467 626.7 971.467 624.74C971.467 622.66 969.827 621.92 968.347 621.36C967.167 620.92 966.067 620.62 966.067 619.8C966.067 619.16 966.547 618.72 967.547 618.72C968.387 618.72 969.167 619.12 969.967 619.68L971.287 617.9C970.347 617.2 969.107 616.52 967.467 616.52C964.947 616.52 963.307 617.94 963.307 619.96C963.307 621.82 964.947 622.68 966.367 623.22C967.547 623.68 968.707 624.06 968.707 624.9C968.707 625.6 968.207 626.08 967.087 626.08C966.047 626.08 965.087 625.64 964.087 624.86L962.747 626.7C963.847 627.62 965.507 628.28 967.007 628.28ZM984.52 628.28C986.44 628.28 988.02 627.52 989.24 626.1L987.68 624.26C986.88 625.12 985.88 625.72 984.62 625.72C982.28 625.72 980.76 623.78 980.76 620.56C980.76 617.38 982.44 615.46 984.68 615.46C985.8 615.46 986.66 615.98 987.4 616.7L988.96 614.82C988 613.82 986.5 612.92 984.62 612.92C980.88 612.92 977.74 615.78 977.74 620.66C977.74 625.6 980.78 628.28 984.52 628.28ZM996.065 628.28C998.865 628.28 1001.44 626.12 1001.44 622.42C1001.44 618.68 998.865 616.52 996.065 616.52C993.265 616.52 990.685 618.68 990.685 622.42C990.685 626.12 993.265 628.28 996.065 628.28ZM996.065 625.88C994.545 625.88 993.685 624.52 993.685 622.42C993.685 620.3 994.545 618.92 996.065 618.92C997.585 618.92 998.445 620.3 998.445 622.42C998.445 624.52 997.585 625.88 996.065 625.88ZM1003.9 628H1006.82V620.3C1007.62 619.46 1008.34 619.04 1008.98 619.04C1010.04 619.04 1010.54 619.66 1010.54 621.38V628H1013.48V620.3C1014.28 619.46 1015 619.04 1015.64 619.04C1016.7 619.04 1017.2 619.66 1017.2 621.38V628H1020.14V621.02C1020.14 618.2 1019.04 616.52 1016.66 616.52C1015.2 616.52 1014.12 617.4 1013.1 618.48C1012.56 617.24 1011.62 616.52 1010.02 616.52C1008.56 616.52 1007.52 617.32 1006.58 618.3H1006.5L1006.3 616.8H1003.9V628ZM1023.18 628H1026.1V620.3C1026.9 619.46 1027.62 619.04 1028.26 619.04C1029.32 619.04 1029.82 619.66 1029.82 621.38V628H1032.76V620.3C1033.56 619.46 1034.28 619.04 1034.92 619.04C1035.98 619.04 1036.48 619.66 1036.48 621.38V628H1039.42V621.02C1039.42 618.2 1038.32 616.52 1035.94 616.52C1034.48 616.52 1033.4 617.4 1032.38 618.48C1031.84 617.24 1030.9 616.52 1029.3 616.52C1027.84 616.52 1026.8 617.32 1025.86 618.3H1025.78L1025.58 616.8H1023.18V628ZM1042.46 628H1045.38V616.8H1042.46V628ZM1043.94 615C1044.94 615 1045.68 614.32 1045.68 613.4C1045.68 612.44 1044.94 611.8 1043.94 611.8C1042.92 611.8 1042.18 612.44 1042.18 613.4C1042.18 614.32 1042.92 615 1043.94 615ZM1051.73 628.28C1054.65 628.28 1056.19 626.7 1056.19 624.74C1056.19 622.66 1054.55 621.92 1053.07 621.36C1051.89 620.92 1050.79 620.62 1050.79 619.8C1050.79 619.16 1051.27 618.72 1052.27 618.72C1053.11 618.72 1053.89 619.12 1054.69 619.68L1056.01 617.9C1055.07 617.2 1053.83 616.52 1052.19 616.52C1049.67 616.52 1048.03 617.94 1048.03 619.96C1048.03 621.82 1049.67 622.68 1051.09 623.22C1052.27 623.68 1053.43 624.06 1053.43 624.9C1053.43 625.6 1052.93 626.08 1051.81 626.08C1050.77 626.08 1049.81 625.64 1048.81 624.86L1047.47 626.7C1048.57 627.62 1050.23 628.28 1051.73 628.28ZM1061.64 628.28C1064.56 628.28 1066.1 626.7 1066.1 624.74C1066.1 622.66 1064.46 621.92 1062.98 621.36C1061.8 620.92 1060.7 620.62 1060.7 619.8C1060.7 619.16 1061.18 618.72 1062.18 618.72C1063.02 618.72 1063.8 619.12 1064.6 619.68L1065.92 617.9C1064.98 617.2 1063.74 616.52 1062.1 616.52C1059.58 616.52 1057.94 617.94 1057.94 619.96C1057.94 621.82 1059.58 622.68 1061 623.22C1062.18 623.68 1063.34 624.06 1063.34 624.9C1063.34 625.6 1062.84 626.08 1061.72 626.08C1060.68 626.08 1059.72 625.64 1058.72 624.86L1057.38 626.7C1058.48 627.62 1060.14 628.28 1061.64 628.28ZM1068.34 628H1071.26V616.8H1068.34V628ZM1069.82 615C1070.82 615 1071.56 614.32 1071.56 613.4C1071.56 612.44 1070.82 611.8 1069.82 611.8C1068.8 611.8 1068.06 612.44 1068.06 613.4C1068.06 614.32 1068.8 615 1069.82 615ZM1079.09 628.28C1081.89 628.28 1084.47 626.12 1084.47 622.42C1084.47 618.68 1081.89 616.52 1079.09 616.52C1076.29 616.52 1073.71 618.68 1073.71 622.42C1073.71 626.12 1076.29 628.28 1079.09 628.28ZM1079.09 625.88C1077.57 625.88 1076.71 624.52 1076.71 622.42C1076.71 620.3 1077.57 618.92 1079.09 618.92C1080.61 618.92 1081.47 620.3 1081.47 622.42C1081.47 624.52 1080.61 625.88 1079.09 625.88ZM1086.93 628H1089.85V620.3C1090.69 619.48 1091.27 619.04 1092.19 619.04C1093.29 619.04 1093.77 619.66 1093.77 621.38V628H1096.71V621.02C1096.71 618.2 1095.67 616.52 1093.25 616.52C1091.73 616.52 1090.59 617.32 1089.61 618.28H1089.53L1089.33 616.8H1086.93V628Z" fill="#616161"/>
<path d="M833.051 699.82L833.931 698.82L834.811 699.82L835.441 699.36L834.771 698.22L835.971 697.69L835.731 696.95L834.451 697.24L834.331 695.92H833.541L833.411 697.24L832.131 696.95L831.891 697.69L833.081 698.22L832.421 699.36L833.051 699.82ZM837.37 704H838.85V701.37H839.84C841.43 701.37 842.7 700.61 842.7 698.92C842.7 697.17 841.44 696.6 839.8 696.6H837.37V704ZM838.85 700.2V697.77H839.69C840.71 697.77 841.25 698.06 841.25 698.92C841.25 699.77 840.76 700.2 839.74 700.2H838.85ZM844.89 704.14C845.53 704.14 846.09 703.82 846.58 703.4H846.61L846.72 704H847.92V700.73C847.92 699.11 847.19 698.26 845.77 698.26C844.89 698.26 844.09 698.59 843.43 699L843.96 699.97C844.48 699.67 844.98 699.44 845.5 699.44C846.19 699.44 846.43 699.86 846.45 700.41C844.2 700.65 843.23 701.28 843.23 702.48C843.23 703.43 843.89 704.14 844.89 704.14ZM845.37 702.99C844.94 702.99 844.63 702.8 844.63 702.36C844.63 701.86 845.09 701.49 846.45 701.31V702.44C846.1 702.79 845.79 702.99 845.37 702.99ZM849.908 706.25C851.158 706.25 851.758 705.49 852.248 704.17L854.238 698.4H852.828L852.058 701C851.928 701.52 851.788 702.06 851.658 702.58H851.608C851.448 702.04 851.308 701.5 851.138 701L850.248 698.4H848.768L850.948 703.9L850.848 704.23C850.688 704.72 850.368 705.08 849.798 705.08C849.668 705.08 849.508 705.04 849.408 705.01L849.138 706.14C849.358 706.21 849.578 706.25 849.908 706.25ZM855.16 704H856.62V700.15C857.02 699.73 857.38 699.52 857.7 699.52C858.23 699.52 858.48 699.83 858.48 700.69V704H859.95V700.15C860.35 699.73 860.71 699.52 861.03 699.52C861.56 699.52 861.81 699.83 861.81 700.69V704H863.28V700.51C863.28 699.1 862.73 698.26 861.54 698.26C860.81 698.26 860.27 698.7 859.76 699.24C859.49 698.62 859.02 698.26 858.22 698.26C857.49 698.26 856.97 698.66 856.5 699.15H856.46L856.36 698.4H855.16V704ZM867.229 704.14C867.929 704.14 868.639 703.9 869.189 703.52L868.689 702.62C868.289 702.87 867.889 703.01 867.429 703.01C866.599 703.01 865.999 702.53 865.879 701.61H869.329C869.369 701.48 869.399 701.21 869.399 700.94C869.399 699.39 868.599 698.26 867.059 698.26C865.719 698.26 864.449 699.39 864.449 701.21C864.449 703.05 865.669 704.14 867.229 704.14ZM865.859 700.64C865.969 699.82 866.489 699.4 867.079 699.4C867.799 699.4 868.139 699.88 868.139 700.64H865.859ZM870.609 704H872.069V700.15C872.489 699.74 872.779 699.52 873.239 699.52C873.789 699.52 874.029 699.83 874.029 700.69V704H875.499V700.51C875.499 699.1 874.979 698.26 873.769 698.26C873.009 698.26 872.439 698.66 871.949 699.14H871.909L871.809 698.4H870.609V704ZM879.066 704.14C879.556 704.14 879.946 704.03 880.246 703.93L880.006 702.86C879.856 702.92 879.636 702.98 879.456 702.98C878.956 702.98 878.696 702.68 878.696 702.04V699.56H880.076V698.4H878.696V696.9H877.466L877.296 698.4L876.436 698.47V699.56H877.226V702.04C877.226 703.3 877.736 704.14 879.066 704.14ZM886.74 696.08C886.49 695.98 886.11 695.88 885.68 695.88C884.27 695.88 883.73 696.78 883.73 697.95V698.41L882.98 698.47V699.56H883.73V704H885.2V699.56H886.25V698.4H885.2V697.92C885.2 697.3 885.44 697.04 885.88 697.04C886.06 697.04 886.28 697.09 886.47 697.16L886.74 696.08ZM889.514 704.14C890.214 704.14 890.924 703.9 891.474 703.52L890.974 702.62C890.574 702.87 890.174 703.01 889.714 703.01C888.884 703.01 888.284 702.53 888.164 701.61H891.614C891.654 701.48 891.684 701.21 891.684 700.94C891.684 699.39 890.884 698.26 889.344 698.26C888.004 698.26 886.734 699.39 886.734 701.21C886.734 703.05 887.954 704.14 889.514 704.14ZM888.144 700.64C888.254 699.82 888.774 699.4 889.364 699.4C890.084 699.4 890.424 699.88 890.424 700.64H888.144ZM895.324 704.14C896.024 704.14 896.734 703.9 897.284 703.52L896.784 702.62C896.384 702.87 895.984 703.01 895.524 703.01C894.694 703.01 894.094 702.53 893.974 701.61H897.424C897.464 701.48 897.494 701.21 897.494 700.94C897.494 699.39 896.694 698.26 895.154 698.26C893.814 698.26 892.544 699.39 892.544 701.21C892.544 703.05 893.764 704.14 895.324 704.14ZM893.954 700.64C894.064 699.82 894.584 699.4 895.174 699.4C895.894 699.4 896.234 699.88 896.234 700.64H893.954ZM900.971 704H902.431V698.4H900.971V704ZM901.711 697.5C902.211 697.5 902.581 697.16 902.581 696.7C902.581 696.22 902.211 695.9 901.711 695.9C901.201 695.9 900.831 696.22 900.831 696.7C900.831 697.16 901.201 697.5 901.711 697.5ZM905.608 704.14C907.068 704.14 907.838 703.35 907.838 702.37C907.838 701.33 907.018 700.96 906.278 700.68C905.688 700.46 905.138 700.31 905.138 699.9C905.138 699.58 905.378 699.36 905.878 699.36C906.298 699.36 906.688 699.56 907.088 699.84L907.748 698.95C907.278 698.6 906.658 698.26 905.838 698.26C904.578 698.26 903.758 698.97 903.758 699.98C903.758 700.91 904.578 701.34 905.288 701.61C905.878 701.84 906.458 702.03 906.458 702.45C906.458 702.8 906.208 703.04 905.648 703.04C905.128 703.04 904.648 702.82 904.148 702.43L903.478 703.35C904.028 703.81 904.858 704.14 905.608 704.14ZM911.225 704H912.685V700.66C913.005 699.85 913.535 699.56 913.975 699.56C914.205 699.56 914.365 699.59 914.555 699.65L914.815 698.38C914.645 698.31 914.465 698.26 914.155 698.26C913.575 698.26 912.975 698.66 912.565 699.39H912.525L912.425 698.4H911.225V704ZM917.893 704.14C918.593 704.14 919.303 703.9 919.853 703.52L919.353 702.62C918.953 702.87 918.553 703.01 918.093 703.01C917.263 703.01 916.663 702.53 916.543 701.61H919.993C920.033 701.48 920.063 701.21 920.063 700.94C920.063 699.39 919.263 698.26 917.723 698.26C916.383 698.26 915.113 699.39 915.113 701.21C915.113 703.05 916.333 704.14 917.893 704.14ZM916.523 700.64C916.633 699.82 917.153 699.4 917.743 699.4C918.463 699.4 918.803 699.88 918.803 700.64H916.523ZM924.663 706.15H926.133V698.4H924.983L924.863 698.95H924.823C924.373 698.48 923.923 698.26 923.303 698.26C922.093 698.26 920.953 699.38 920.953 701.21C920.953 703.04 921.853 704.14 923.243 704.14C923.793 704.14 924.343 703.86 924.723 703.47L924.663 704.37V706.15ZM923.623 702.93C922.883 702.93 922.463 702.35 922.463 701.19C922.463 700.07 922.993 699.47 923.623 699.47C923.973 699.47 924.323 699.58 924.663 699.89V702.35C924.343 702.77 924.013 702.93 923.623 702.93ZM929.369 704.14C930.139 704.14 930.679 703.77 931.159 703.2H931.199L931.309 704H932.509V698.4H931.039V702.18C930.659 702.68 930.359 702.88 929.899 702.88C929.359 702.88 929.119 702.58 929.119 701.71V698.4H927.649V701.9C927.649 703.3 928.169 704.14 929.369 704.14ZM934.076 704H935.536V698.4H934.076V704ZM934.816 697.5C935.316 697.5 935.686 697.16 935.686 696.7C935.686 696.22 935.316 695.9 934.816 695.9C934.306 695.9 933.936 696.22 933.936 696.7C933.936 697.16 934.306 697.5 934.816 697.5ZM937.113 704H938.573V700.66C938.893 699.85 939.423 699.56 939.863 699.56C940.093 699.56 940.253 699.59 940.443 699.65L940.703 698.38C940.533 698.31 940.353 698.26 940.043 698.26C939.463 698.26 938.863 698.66 938.453 699.39H938.413L938.313 698.4H937.113V704ZM943.782 704.14C944.482 704.14 945.192 703.9 945.742 703.52L945.242 702.62C944.842 702.87 944.442 703.01 943.982 703.01C943.152 703.01 942.552 702.53 942.432 701.61H945.882C945.922 701.48 945.952 701.21 945.952 700.94C945.952 699.39 945.152 698.26 943.612 698.26C942.272 698.26 941.002 699.39 941.002 701.21C941.002 703.05 942.222 704.14 943.782 704.14ZM942.412 700.64C942.522 699.82 943.042 699.4 943.632 699.4C944.352 699.4 944.692 699.88 944.692 700.64H942.412ZM949.132 704.14C949.712 704.14 950.272 703.82 950.682 703.42H950.712L950.832 704H952.022V696.02H950.552V697.99L950.612 698.87C950.212 698.5 949.822 698.26 949.192 698.26C947.982 698.26 946.842 699.38 946.842 701.21C946.842 703.04 947.742 704.14 949.132 704.14ZM949.512 702.93C948.772 702.93 948.352 702.35 948.352 701.19C948.352 700.07 948.882 699.47 949.512 699.47C949.862 699.47 950.212 699.58 950.552 699.89V702.35C950.232 702.77 949.902 702.93 949.512 702.93ZM958.673 704.14C959.903 704.14 961.053 703.03 961.053 701.1C961.053 699.39 960.223 698.26 958.843 698.26C958.293 698.26 957.733 698.53 957.293 698.93L957.323 698.03V696.02H955.863V704H957.013L957.143 703.41H957.173C957.633 703.88 958.173 704.14 958.673 704.14ZM958.343 702.93C958.043 702.93 957.673 702.82 957.323 702.51V700.05C957.713 699.66 958.053 699.47 958.433 699.47C959.203 699.47 959.543 700.06 959.543 701.13C959.543 702.35 959.023 702.93 958.343 702.93ZM962.711 706.25C963.961 706.25 964.561 705.49 965.051 704.17L967.041 698.4H965.631L964.861 701C964.731 701.52 964.591 702.06 964.461 702.58H964.411C964.251 702.04 964.111 701.5 963.941 701L963.051 698.4H961.571L963.751 703.9L963.651 704.23C963.491 704.72 963.171 705.08 962.601 705.08C962.471 705.08 962.311 705.04 962.211 705.01L961.941 706.14C962.161 706.21 962.381 706.25 962.711 706.25ZM972.278 704.14C972.768 704.14 973.158 704.03 973.458 703.93L973.218 702.86C973.068 702.92 972.848 702.98 972.668 702.98C972.168 702.98 971.908 702.68 971.908 702.04V699.56H973.288V698.4H971.908V696.9H970.678L970.508 698.4L969.648 698.47V699.56H970.438V702.04C970.438 703.3 970.948 704.14 972.278 704.14ZM974.428 704H975.888V700.15C976.308 699.74 976.598 699.52 977.058 699.52C977.608 699.52 977.848 699.83 977.848 700.69V704H979.318V700.51C979.318 699.1 978.798 698.26 977.588 698.26C976.828 698.26 976.278 698.66 975.828 699.08L975.888 698.03V696.02H974.428V704ZM983.254 704.14C983.954 704.14 984.664 703.9 985.214 703.52L984.714 702.62C984.314 702.87 983.914 703.01 983.454 703.01C982.624 703.01 982.024 702.53 981.904 701.61H985.354C985.394 701.48 985.424 701.21 985.424 700.94C985.424 699.39 984.624 698.26 983.084 698.26C981.744 698.26 980.474 699.39 980.474 701.21C980.474 703.05 981.694 704.14 983.254 704.14ZM981.884 700.64C981.994 699.82 982.514 699.4 983.104 699.4C983.824 699.4 984.164 699.88 984.164 700.64H981.884ZM991.28 704.14C991.9 704.14 992.58 703.93 993.11 703.46L992.53 702.49C992.22 702.75 991.84 702.94 991.44 702.94C990.63 702.94 990.05 702.26 990.05 701.21C990.05 700.15 990.63 699.46 991.48 699.46C991.8 699.46 992.06 699.59 992.34 699.83L993.04 698.88C992.63 698.53 992.1 698.26 991.41 698.26C989.89 698.26 988.55 699.34 988.55 701.21C988.55 703.06 989.73 704.14 991.28 704.14ZM994.174 704H995.634V700.66C995.954 699.85 996.484 699.56 996.924 699.56C997.154 699.56 997.314 699.59 997.504 699.65L997.764 698.38C997.594 698.31 997.414 698.26 997.104 698.26C996.524 698.26 995.924 698.66 995.514 699.39H995.474L995.374 698.4H994.174V704ZM1000.84 704.14C1001.54 704.14 1002.25 703.9 1002.8 703.52L1002.3 702.62C1001.9 702.87 1001.5 703.01 1001.04 703.01C1000.21 703.01 999.612 702.53 999.492 701.61H1002.94C1002.98 701.48 1003.01 701.21 1003.01 700.94C1003.01 699.39 1002.21 698.26 1000.67 698.26C999.332 698.26 998.062 699.39 998.062 701.21C998.062 703.05 999.282 704.14 1000.84 704.14ZM999.472 700.64C999.582 699.82 1000.1 699.4 1000.69 699.4C1001.41 699.4 1001.75 699.88 1001.75 700.64H999.472ZM1006.19 704.14C1006.77 704.14 1007.33 703.82 1007.74 703.42H1007.77L1007.89 704H1009.08V696.02H1007.61V697.99L1007.67 698.87C1007.27 698.5 1006.88 698.26 1006.25 698.26C1005.04 698.26 1003.9 699.38 1003.9 701.21C1003.9 703.04 1004.8 704.14 1006.19 704.14ZM1006.57 702.93C1005.83 702.93 1005.41 702.35 1005.41 701.19C1005.41 700.07 1005.94 699.47 1006.57 699.47C1006.92 699.47 1007.27 699.58 1007.61 699.89V702.35C1007.29 702.77 1006.96 702.93 1006.57 702.93ZM1010.66 704H1012.12V698.4H1010.66V704ZM1011.4 697.5C1011.9 697.5 1012.27 697.16 1012.27 696.7C1012.27 696.22 1011.9 695.9 1011.4 695.9C1010.89 695.9 1010.52 696.22 1010.52 696.7C1010.52 697.16 1010.89 697.5 1011.4 697.5ZM1015.75 704.14C1016.24 704.14 1016.63 704.03 1016.93 703.93L1016.69 702.86C1016.54 702.92 1016.32 702.98 1016.14 702.98C1015.64 702.98 1015.38 702.68 1015.38 702.04V699.56H1016.76V698.4H1015.38V696.9H1014.15L1013.98 698.4L1013.12 698.47V699.56H1013.91V702.04C1013.91 703.3 1014.42 704.14 1015.75 704.14ZM1022.54 704.14C1023.16 704.14 1023.84 703.93 1024.37 703.46L1023.79 702.49C1023.48 702.75 1023.1 702.94 1022.7 702.94C1021.89 702.94 1021.31 702.26 1021.31 701.21C1021.31 700.15 1021.89 699.46 1022.74 699.46C1023.06 699.46 1023.32 699.59 1023.6 699.83L1024.3 698.88C1023.89 698.53 1023.36 698.26 1022.67 698.26C1021.15 698.26 1019.81 699.34 1019.81 701.21C1019.81 703.06 1020.99 704.14 1022.54 704.14ZM1026.7 704.14C1027.34 704.14 1027.9 703.82 1028.39 703.4H1028.42L1028.53 704H1029.73V700.73C1029.73 699.11 1029 698.26 1027.58 698.26C1026.7 698.26 1025.9 698.59 1025.24 699L1025.77 699.97C1026.29 699.67 1026.79 699.44 1027.31 699.44C1028 699.44 1028.24 699.86 1028.26 700.41C1026.01 700.65 1025.04 701.28 1025.04 702.48C1025.04 703.43 1025.7 704.14 1026.7 704.14ZM1027.18 702.99C1026.75 702.99 1026.44 702.8 1026.44 702.36C1026.44 701.86 1026.9 701.49 1028.26 701.31V702.44C1027.91 702.79 1027.6 702.99 1027.18 702.99ZM1031.22 704H1032.68V700.66C1033 699.85 1033.53 699.56 1033.97 699.56C1034.2 699.56 1034.36 699.59 1034.55 699.65L1034.81 698.38C1034.64 698.31 1034.46 698.26 1034.15 698.26C1033.57 698.26 1032.97 698.66 1032.56 699.39H1032.52L1032.42 698.4H1031.22V704ZM1037.43 704.14C1038.01 704.14 1038.57 703.82 1038.98 703.42H1039.01L1039.13 704H1040.32V696.02H1038.85V697.99L1038.91 698.87C1038.51 698.5 1038.12 698.26 1037.49 698.26C1036.28 698.26 1035.14 699.38 1035.14 701.21C1035.14 703.04 1036.04 704.14 1037.43 704.14ZM1037.81 702.93C1037.07 702.93 1036.65 702.35 1036.65 701.19C1036.65 700.07 1037.18 699.47 1037.81 699.47C1038.16 699.47 1038.51 699.58 1038.85 699.89V702.35C1038.53 702.77 1038.2 702.93 1037.81 702.93ZM1046.54 704.14C1047.16 704.14 1047.84 703.93 1048.37 703.46L1047.79 702.49C1047.48 702.75 1047.1 702.94 1046.7 702.94C1045.89 702.94 1045.31 702.26 1045.31 701.21C1045.31 700.15 1045.89 699.46 1046.74 699.46C1047.06 699.46 1047.32 699.59 1047.6 699.83L1048.3 698.88C1047.89 698.53 1047.36 698.26 1046.67 698.26C1045.15 698.26 1043.81 699.34 1043.81 701.21C1043.81 703.06 1044.99 704.14 1046.54 704.14ZM1051.47 704.14C1052.87 704.14 1054.16 703.06 1054.16 701.21C1054.16 699.34 1052.87 698.26 1051.47 698.26C1050.07 698.26 1048.78 699.34 1048.78 701.21C1048.78 703.06 1050.07 704.14 1051.47 704.14ZM1051.47 702.94C1050.71 702.94 1050.28 702.26 1050.28 701.21C1050.28 700.15 1050.71 699.46 1051.47 699.46C1052.23 699.46 1052.66 700.15 1052.66 701.21C1052.66 702.26 1052.23 702.94 1051.47 702.94ZM1055.39 704H1056.85V700.15C1057.25 699.73 1057.61 699.52 1057.93 699.52C1058.46 699.52 1058.71 699.83 1058.71 700.69V704H1060.18V700.15C1060.58 699.73 1060.94 699.52 1061.26 699.52C1061.79 699.52 1062.04 699.83 1062.04 700.69V704H1063.51V700.51C1063.51 699.1 1062.96 698.26 1061.77 698.26C1061.04 698.26 1060.5 698.7 1059.99 699.24C1059.72 698.62 1059.25 698.26 1058.45 698.26C1057.72 698.26 1057.2 698.66 1056.73 699.15H1056.69L1056.59 698.4H1055.39V704ZM1065.03 706.15H1066.49V704.45L1066.45 703.53C1066.88 703.92 1067.35 704.14 1067.84 704.14C1069.07 704.14 1070.22 703.03 1070.22 701.11C1070.22 699.39 1069.4 698.26 1068.02 698.26C1067.42 698.26 1066.84 698.58 1066.37 698.98H1066.33L1066.23 698.4H1065.03V706.15ZM1067.51 702.93C1067.21 702.93 1066.85 702.82 1066.49 702.51V700.05C1066.88 699.66 1067.22 699.47 1067.6 699.47C1068.37 699.47 1068.71 700.06 1068.71 701.13C1068.71 702.35 1068.19 702.93 1067.51 702.93ZM1072.71 704.14C1073.35 704.14 1073.91 703.82 1074.4 703.4H1074.43L1074.54 704H1075.74V700.73C1075.74 699.11 1075.01 698.26 1073.59 698.26C1072.71 698.26 1071.91 698.59 1071.25 699L1071.78 699.97C1072.3 699.67 1072.8 699.44 1073.32 699.44C1074.01 699.44 1074.25 699.86 1074.27 700.41C1072.02 700.65 1071.05 701.28 1071.05 702.48C1071.05 703.43 1071.71 704.14 1072.71 704.14ZM1073.19 702.99C1072.76 702.99 1072.45 702.8 1072.45 702.36C1072.45 701.86 1072.91 701.49 1074.27 701.31V702.44C1073.92 702.79 1073.61 702.99 1073.19 702.99ZM1077.24 704H1078.7V700.15C1079.12 699.74 1079.41 699.52 1079.87 699.52C1080.42 699.52 1080.66 699.83 1080.66 700.69V704H1082.13V700.51C1082.13 699.1 1081.61 698.26 1080.4 698.26C1079.64 698.26 1079.07 698.66 1078.58 699.14H1078.54L1078.44 698.4H1077.24V704ZM1084.14 706.25C1085.39 706.25 1085.99 705.49 1086.48 704.17L1088.47 698.4H1087.06L1086.29 701C1086.16 701.52 1086.02 702.06 1085.89 702.58H1085.84C1085.68 702.04 1085.54 701.5 1085.37 701L1084.48 698.4H1083L1085.18 703.9L1085.08 704.23C1084.92 704.72 1084.6 705.08 1084.03 705.08C1083.9 705.08 1083.74 705.04 1083.64 705.01L1083.37 706.14C1083.59 706.21 1083.81 706.25 1084.14 706.25Z" fill="#616161"/>
<path d="M809.82 677H812.78V671H818.04V668.52H812.78V664.66H818.94V662.2H809.82V677ZM820.81 677H823.73V670.32C824.37 668.7 825.43 668.12 826.31 668.12C826.77 668.12 827.09 668.18 827.47 668.3L827.99 665.76C827.65 665.62 827.29 665.52 826.67 665.52C825.51 665.52 824.31 666.32 823.49 667.78H823.41L823.21 665.8H820.81V677ZM834.147 677.28C835.547 677.28 836.967 676.8 838.067 676.04L837.067 674.24C836.267 674.74 835.467 675.02 834.547 675.02C832.887 675.02 831.687 674.06 831.447 672.22H838.347C838.427 671.96 838.487 671.42 838.487 670.88C838.487 667.78 836.887 665.52 833.807 665.52C831.127 665.52 828.587 667.78 828.587 671.42C828.587 675.1 831.027 677.28 834.147 677.28ZM831.407 670.28C831.627 668.64 832.667 667.8 833.847 667.8C835.287 667.8 835.967 668.76 835.967 670.28H831.407ZM845.768 677.28C847.168 677.28 848.588 676.8 849.688 676.04L848.688 674.24C847.888 674.74 847.088 675.02 846.168 675.02C844.508 675.02 843.308 674.06 843.068 672.22H849.968C850.048 671.96 850.108 671.42 850.108 670.88C850.108 667.78 848.508 665.52 845.428 665.52C842.748 665.52 840.208 667.78 840.208 671.42C840.208 675.1 842.648 677.28 845.768 677.28ZM843.028 670.28C843.248 668.64 844.288 667.8 845.468 667.8C846.908 667.8 847.588 668.76 847.588 670.28H843.028Z" fill="white"/>
<path d="M1030.85 677H1033.81V671H1039.07V668.52H1033.81V664.66H1039.97V662.2H1030.85V677ZM1046.62 677.28C1049.42 677.28 1052 675.12 1052 671.42C1052 667.68 1049.42 665.52 1046.62 665.52C1043.82 665.52 1041.24 667.68 1041.24 671.42C1041.24 675.12 1043.82 677.28 1046.62 677.28ZM1046.62 674.88C1045.1 674.88 1044.24 673.52 1044.24 671.42C1044.24 669.3 1045.1 667.92 1046.62 667.92C1048.14 667.92 1049 669.3 1049 671.42C1049 673.52 1048.14 674.88 1046.62 674.88ZM1054.46 677H1057.38V670.32C1058.02 668.7 1059.08 668.12 1059.96 668.12C1060.42 668.12 1060.74 668.18 1061.12 668.3L1061.64 665.76C1061.3 665.62 1060.94 665.52 1060.32 665.52C1059.16 665.52 1057.96 666.32 1057.14 667.78H1057.06L1056.86 665.8H1054.46V677ZM1067.8 677.28C1069.2 677.28 1070.62 676.8 1071.72 676.04L1070.72 674.24C1069.92 674.74 1069.12 675.02 1068.2 675.02C1066.54 675.02 1065.34 674.06 1065.1 672.22H1072C1072.08 671.96 1072.14 671.42 1072.14 670.88C1072.14 667.78 1070.54 665.52 1067.46 665.52C1064.78 665.52 1062.24 667.78 1062.24 671.42C1062.24 675.1 1064.68 677.28 1067.8 677.28ZM1065.06 670.28C1065.28 668.64 1066.32 667.8 1067.5 667.8C1068.94 667.8 1069.62 668.76 1069.62 670.28H1065.06ZM1077 677H1080.4L1084.14 665.8H1081.32L1079.68 671.38C1079.38 672.48 1079.06 673.64 1078.78 674.78H1078.68C1078.38 673.64 1078.06 672.48 1077.78 671.38L1076.14 665.8H1073.18L1077 677ZM1090.71 677.28C1092.11 677.28 1093.53 676.8 1094.63 676.04L1093.63 674.24C1092.83 674.74 1092.03 675.02 1091.11 675.02C1089.45 675.02 1088.25 674.06 1088.01 672.22H1094.91C1094.99 671.96 1095.05 671.42 1095.05 670.88C1095.05 667.78 1093.45 665.52 1090.37 665.52C1087.69 665.52 1085.15 667.78 1085.15 671.42C1085.15 675.1 1087.59 677.28 1090.71 677.28ZM1087.97 670.28C1088.19 668.64 1089.23 667.8 1090.41 667.8C1091.85 667.8 1092.53 668.76 1092.53 670.28H1087.97ZM1097.47 677H1100.39V670.32C1101.03 668.7 1102.09 668.12 1102.97 668.12C1103.43 668.12 1103.75 668.18 1104.13 668.3L1104.65 665.76C1104.31 665.62 1103.95 665.52 1103.33 665.52C1102.17 665.52 1100.97 666.32 1100.15 667.78H1100.07L1099.87 665.8H1097.47V677ZM1107.34 671.96H1109.26L1109.68 664.58L1109.78 661.8H1106.82L1106.92 664.58L1107.34 671.96ZM1108.3 677.28C1109.34 677.28 1110.14 676.44 1110.14 675.36C1110.14 674.28 1109.34 673.44 1108.3 673.44C1107.26 673.44 1106.48 674.28 1106.48 675.36C1106.48 676.44 1107.26 677.28 1108.3 677.28Z" fill="white"/>
<path d="M921.82 552H924.78V537.2H921.82V552ZM928.182 552H931.102V544.3C931.942 543.48 932.522 543.04 933.442 543.04C934.542 543.04 935.022 543.66 935.022 545.38V552H937.962V545.02C937.962 542.2 936.922 540.52 934.502 540.52C932.982 540.52 931.842 541.32 930.862 542.28H930.782L930.582 540.8H928.182V552ZM940.994 552H943.914V540.8H940.994V552ZM942.474 539C943.474 539 944.214 538.32 944.214 537.4C944.214 536.44 943.474 535.8 942.474 535.8C941.454 535.8 940.714 536.44 940.714 537.4C940.714 538.32 941.454 539 942.474 539ZM951.168 552.28C952.148 552.28 952.928 552.06 953.528 551.86L953.048 549.72C952.748 549.84 952.308 549.96 951.948 549.96C950.948 549.96 950.428 549.36 950.428 548.08V543.12H953.188V540.8H950.428V537.8H947.968L947.628 540.8L945.908 540.94V543.12H947.488V548.08C947.488 550.6 948.508 552.28 951.168 552.28ZM955.467 552H958.387V540.8H955.467V552ZM956.947 539C957.947 539 958.687 538.32 958.687 537.4C958.687 536.44 957.947 535.8 956.947 535.8C955.927 535.8 955.187 536.44 955.187 537.4C955.187 538.32 955.927 539 956.947 539ZM964.301 552.28C965.581 552.28 966.701 551.64 967.681 550.8H967.741L967.961 552H970.361V545.46C970.361 542.22 968.901 540.52 966.061 540.52C964.301 540.52 962.701 541.18 961.381 542L962.441 543.94C963.481 543.34 964.481 542.88 965.521 542.88C966.901 542.88 967.381 543.72 967.421 544.82C962.921 545.3 960.981 546.56 960.981 548.96C960.981 550.86 962.301 552.28 964.301 552.28ZM965.261 549.98C964.401 549.98 963.781 549.6 963.781 548.72C963.781 547.72 964.701 546.98 967.421 546.62V548.88C966.721 549.58 966.101 549.98 965.261 549.98ZM976.117 552.28C976.797 552.28 977.297 552.16 977.637 552.02L977.277 549.84C977.077 549.88 976.997 549.88 976.877 549.88C976.597 549.88 976.277 549.66 976.277 549V536.04H973.357V548.86C973.357 550.94 974.077 552.28 976.117 552.28ZM990.477 552.28C992.397 552.28 993.977 551.52 995.197 550.1L993.637 548.26C992.837 549.12 991.837 549.72 990.577 549.72C988.237 549.72 986.717 547.78 986.717 544.56C986.717 541.38 988.397 539.46 990.637 539.46C991.757 539.46 992.617 539.98 993.357 540.7L994.917 538.82C993.957 537.82 992.457 536.92 990.577 536.92C986.837 536.92 983.697 539.78 983.697 544.66C983.697 549.6 986.737 552.28 990.477 552.28ZM1002.02 552.28C1004.82 552.28 1007.4 550.12 1007.4 546.42C1007.4 542.68 1004.82 540.52 1002.02 540.52C999.222 540.52 996.642 542.68 996.642 546.42C996.642 550.12 999.222 552.28 1002.02 552.28ZM1002.02 549.88C1000.5 549.88 999.642 548.52 999.642 546.42C999.642 544.3 1000.5 542.92 1002.02 542.92C1003.54 542.92 1004.4 544.3 1004.4 546.42C1004.4 548.52 1003.54 549.88 1002.02 549.88ZM1012.96 552.28C1015.88 552.28 1017.42 550.7 1017.42 548.74C1017.42 546.66 1015.78 545.92 1014.3 545.36C1013.12 544.92 1012.02 544.62 1012.02 543.8C1012.02 543.16 1012.5 542.72 1013.5 542.72C1014.34 542.72 1015.12 543.12 1015.92 543.68L1017.24 541.9C1016.3 541.2 1015.06 540.52 1013.42 540.52C1010.9 540.52 1009.26 541.94 1009.26 543.96C1009.26 545.82 1010.9 546.68 1012.32 547.22C1013.5 547.68 1014.66 548.06 1014.66 548.9C1014.66 549.6 1014.16 550.08 1013.04 550.08C1012 550.08 1011.04 549.64 1010.04 548.86L1008.7 550.7C1009.8 551.62 1011.46 552.28 1012.96 552.28ZM1023.3 552.28C1024.28 552.28 1025.06 552.06 1025.66 551.86L1025.18 549.72C1024.88 549.84 1024.44 549.96 1024.08 549.96C1023.08 549.96 1022.56 549.36 1022.56 548.08V543.12H1025.32V540.8H1022.56V537.8H1020.1L1019.76 540.8L1018.04 540.94V543.12H1019.62V548.08C1019.62 550.6 1020.64 552.28 1023.3 552.28Z" fill="#616161"/>
<path d="M904 592.781C904 610.007 900.443 623.184 893.329 632.31C886.215 641.437 875.801 646 862.085 646C848.541 646 838.183 641.522 831.012 632.567C823.841 623.611 820.171 610.777 820 594.064V571.134C820 553.736 823.585 540.531 830.756 531.519C837.984 522.506 848.37 518 861.915 518C875.459 518 885.817 522.478 892.988 531.433C900.159 540.332 903.829 553.137 904 569.85V592.781ZM879.329 567.626C879.329 557.301 877.907 549.8 875.061 545.123C872.272 540.389 867.89 538.021 861.915 538.021C856.11 538.021 851.813 540.275 849.024 544.781C846.293 549.23 844.841 556.217 844.671 565.743V596.032C844.671 606.185 846.037 613.743 848.768 618.706C851.557 623.611 855.996 626.064 862.085 626.064C868.118 626.064 872.472 623.697 875.146 618.963C877.821 614.228 879.215 606.984 879.329 597.23V567.626Z" fill="white"/>
<path d="M859 669H1003" stroke="white" stroke-width="3" stroke-linecap="round" stroke-dasharray="4 8"/>
<path d="M1012.51 663.909C1011.85 663.509 1011 663.989 1011 664.766V673.234C1011 674.011 1011.85 674.491 1012.51 674.091L1019.57 669.857C1020.22 669.469 1020.22 668.531 1019.57 668.143L1012.51 663.909Z" fill="white"/>
</svg>
