<svg width="1920" height="752" viewBox="0 0 1920 752" fill="none" xmlns="http://www.w3.org/2000/svg">
<rect width="1920" height="752" fill="#FBC02D"/>
<mask id="mask0" mask-type="alpha" maskUnits="userSpaceOnUse" x="863" y="138" width="164" height="164">
<circle cx="945" cy="220" r="80" stroke="white" stroke-width="3" stroke-linecap="round" stroke-dasharray="4 8"/>
</mask>
<g mask="url(#mask0)">
<path fill-rule="evenodd" clip-rule="evenodd" d="M1025 132H865V188H1013V176H1025V132Z" fill="white"/>
</g>
<path d="M1018.49 178.909C1019.15 178.509 1020 178.989 1020 179.766V188.234C1020 189.011 1019.15 189.491 1018.49 189.091L1011.43 184.857C1010.78 184.469 1010.78 183.531 1011.43 183.143L1018.49 178.909Z" fill="white"/>
<path fill-rule="evenodd" clip-rule="evenodd" d="M830.77 193.74C828.43 196.08 828.43 199.89 830.77 202.23C833.11 204.6 836.89 204.6 839.26 202.23C841.6 199.89 841.6 196.08 839.26 193.74C836.92 191.4 833.11 191.4 830.77 193.74ZM852.79 231L868 246.21L863.71 250.5L853.21 240H838C833.02 240 829 235.98 829 231V213.75C829 210.03 832.03 207 835.75 207H835.84C836.86 207 837.85 207.27 838.72 207.69C839.5 208.05 840.22 208.56 840.79 209.19L844.99 213.84C848.17 217.35 854.02 220.02 859 219.96V226.44C853.3 226.44 846.7 223.41 842.5 219.96V231H852.79ZM847 243H829V249H847V243Z" fill="#616161"/>
<rect x="861.5" y="195.5" width="13" height="21" rx="1.5" stroke="white" stroke-width="3"/>
<path fill-rule="evenodd" clip-rule="evenodd" d="M856 152C856 165.255 845.255 176 832 176C818.745 176 808 165.255 808 152C808 138.745 818.745 128 832 128C845.255 128 856 138.745 856 152ZM829 181C829 182.657 827.657 184 826 184C824.343 184 823 182.657 823 181C823 179.343 824.343 178 826 178C827.657 178 829 179.343 829 181ZM828 190C829.105 190 830 189.105 830 188C830 186.895 829.105 186 828 186C826.895 186 826 186.895 826 188C826 189.105 826.895 190 828 190Z" fill="white"/>
<path d="M838.06 162.99H839.72C840.56 162.99 841.25 162.35 841.35 161.53L843 145.05H838V141H836.03V145.05H831.06L831.36 147.39C833.07 147.86 834.67 148.71 835.63 149.65C837.07 151.07 838.06 152.54 838.06 154.94V162.99V162.99ZM821 161.99V161H836.03V161.99C836.03 162.54 835.58 162.99 835.02 162.99H822.01C821.45 162.99 821 162.54 821 161.99V161.99ZM836.03 154.99C836.03 146.99 821 146.99 821 154.99H836.03ZM821.02 157H836.02V159H821.02V157Z" fill="#616161"/>
<path d="M1100 198H1052V204H1100V198ZM1103 228V222L1100 207H1052L1049 222V228H1052V246H1082V228H1094V246H1100V228H1103ZM1076 240H1058V228H1076V240Z" fill="#616161"/>
<rect x="1009.5" y="195.5" width="29" height="21" rx="1.5" stroke="white" stroke-width="3"/>
<circle cx="1068" cy="166" r="24" fill="white"/>
<path d="M1074.06 176.99H1075.72C1076.56 176.99 1077.25 176.35 1077.35 175.53L1079 159.05H1074V155H1072.03V159.05H1067.06L1067.36 161.39C1069.07 161.86 1070.67 162.71 1071.63 163.65C1073.07 165.07 1074.06 166.54 1074.06 168.94V176.99V176.99ZM1057 175.99V175H1072.03V175.99C1072.03 176.54 1071.58 176.99 1071.02 176.99H1058.01C1057.45 176.99 1057 176.54 1057 175.99V175.99ZM1072.03 168.99C1072.03 160.99 1057 160.99 1057 168.99H1072.03ZM1057.02 171H1072.02V173H1057.02V171Z" fill="#616161"/>
<path d="M1044 190L1056 186L1048 178L1044 190Z" fill="white"/>
<circle cx="1103" cy="179" r="3" fill="white"/>
<path d="M1100 148H1106L1105 172H1101L1100 148Z" fill="white"/>
<path d="M882.576 51.608C882 51.776 881.328 51.848 880.584 51.848H877.704V50.6C877.704 49.856 877.776 48.968 877.848 48.392H874.416C874.512 48.992 874.56 49.856 874.56 50.6V51.848H870.408C869.568 51.848 868.248 51.824 867.336 51.68V54.824C868.08 54.752 869.592 54.704 870.456 54.704H879.144C878.448 55.712 876.96 57.104 875.112 58.304C873.048 59.624 869.952 61.28 865.32 62.312L867.168 65.144C869.76 64.352 872.328 63.368 874.536 62.192V66.296C874.536 67.256 874.44 68.696 874.344 69.368H877.8C877.728 68.624 877.632 67.256 877.632 66.296C877.632 64.784 877.656 62.168 877.656 60.248C879.648 58.736 881.472 56.936 882.696 55.544C883.2 54.968 883.944 54.152 884.544 53.552L882.576 51.608ZM879.168 61.568C881.256 62.72 882.816 63.728 884.904 65.384L886.92 62.744C884.616 61.16 883.368 60.464 881.16 59.264L879.168 61.568ZM900.12 53.72L897.264 54.656C897.864 55.904 898.92 58.808 899.208 59.984L902.088 58.976C901.752 57.872 900.576 54.752 900.12 53.72ZM905.592 54.392C905.328 57.392 904.176 60.584 902.544 62.624C900.552 65.12 897.216 66.944 894.576 67.64L897.096 70.208C899.904 69.152 902.904 67.136 905.136 64.256C906.768 62.144 907.776 59.648 908.4 57.224C908.544 56.744 908.688 56.24 908.976 55.472L905.592 54.392ZM894.552 54.992L891.672 56.024C892.248 57.08 893.448 60.272 893.856 61.568L896.784 60.464C896.304 59.12 895.152 56.216 894.552 54.992ZM932.856 59.168C930.648 58.088 926.04 56.384 922.824 55.448V51.92C922.824 50.912 922.944 49.856 923.04 49.016H919.296C919.464 49.856 919.536 51.056 919.536 51.92V65.696C919.536 66.656 919.44 68.096 919.296 69.032H923.04C922.944 68.072 922.824 66.392 922.824 65.696V58.904C925.416 59.792 929.016 61.184 931.488 62.48L932.856 59.168ZM953.76 55.52L951.984 56.264C952.752 57.344 953.256 58.28 953.856 59.6L955.68 58.784C955.224 57.824 954.336 56.384 953.76 55.52ZM956.448 54.416L954.696 55.232C955.464 56.288 956.016 57.176 956.664 58.472L958.464 57.608C957.96 56.672 957.048 55.256 956.448 54.416ZM937.752 51.584L938.064 54.848C940.824 54.248 945.816 53.72 947.88 53.504C946.272 54.704 944.376 57.392 944.376 60.824C944.376 65.984 949.08 68.672 954.072 68.984L955.176 65.696C951.144 65.504 947.496 64.088 947.496 60.176C947.496 57.368 949.632 54.296 952.512 53.528C953.784 53.24 955.824 53.216 957.096 53.216L957.072 50.144C955.392 50.216 952.8 50.36 950.352 50.552C946.008 50.936 942.072 51.296 940.08 51.464C939.624 51.512 938.712 51.56 937.752 51.584ZM976.296 52.928L976.272 51.2C976.272 50.456 976.32 49.52 976.416 48.776H973.008C973.128 49.616 973.2 50.504 973.248 51.2C973.272 51.728 973.296 52.304 973.32 52.928H965.376C964.56 52.928 963.408 52.856 962.712 52.76V55.952C963.552 55.904 964.584 55.856 965.448 55.856H972C970.056 58.592 966.096 61.976 961.44 64.184L963.648 66.68C967.44 64.664 971.328 61.328 973.44 58.568C973.488 61.04 973.488 63.44 973.488 65.048C973.488 65.744 973.248 66.056 972.648 66.056C971.832 66.056 970.536 65.96 969.456 65.768L969.72 68.888C971.088 68.984 972.432 69.032 973.896 69.032C975.72 69.032 976.608 68.144 976.584 66.608C976.536 63.368 976.44 59.36 976.368 55.856H979.464C980.112 55.856 981.024 55.904 981.792 55.928V52.736C981.216 52.832 980.088 52.928 979.296 52.928H976.296ZM986.208 60.656C987.096 60.584 988.704 60.536 990.072 60.536H1002.96C1003.97 60.536 1005.19 60.632 1005.77 60.656V56.888C1005.14 56.936 1004.06 57.032 1002.96 57.032H990.072C988.824 57.032 987.072 56.96 986.208 56.888V60.656ZM1028.59 51.584C1028.14 50.696 1027.3 49.16 1026.7 48.296L1024.8 49.064C1025.33 49.832 1025.93 50.912 1026.38 51.8C1025.83 51.944 1025.14 52.016 1024.49 52.016H1019.57L1019.59 51.992C1019.88 51.464 1020.48 50.384 1021.06 49.544L1017.58 48.464C1017.36 49.28 1016.86 50.408 1016.5 50.984C1015.3 53.048 1013.06 56.36 1008.86 58.952L1011.46 60.944C1013.86 59.288 1016.09 56.984 1017.77 54.752H1024.66C1024.3 56.192 1023.34 58.16 1022.16 59.864C1020.55 58.904 1018.92 57.992 1017.65 57.344L1015.63 59.624C1016.86 60.32 1018.49 61.304 1020.1 62.36C1018.13 64.4 1015.42 66.44 1011.17 67.736L1013.95 70.16C1017.84 68.672 1020.65 66.512 1022.81 64.184C1023.67 64.808 1024.46 65.384 1025.04 65.888L1027.2 63.056C1026.6 62.624 1025.78 62.096 1024.9 61.52C1026.48 59.24 1027.61 56.816 1028.21 54.968C1028.42 54.368 1028.74 53.72 1029 53.24L1027.25 52.16L1028.59 51.584ZM1027.63 47.984C1028.3 48.896 1029.07 50.288 1029.55 51.296L1031.47 50.48C1031.04 49.616 1030.15 48.104 1029.53 47.216L1027.63 47.984ZM1034.21 60.656C1035.1 60.584 1036.7 60.536 1038.07 60.536H1050.96C1051.97 60.536 1053.19 60.632 1053.77 60.656V56.888C1053.14 56.936 1052.06 57.032 1050.96 57.032H1038.07C1036.82 57.032 1035.07 56.96 1034.21 56.888V60.656Z" fill="white"/>
<path d="M904.752 88.448H919.2V91.448H922.248V85.808H913.44V83.672H910.416V85.808H901.848V91.448H904.752V88.448ZM915.384 95.264C914.88 97.112 914.04 98.552 912.864 99.704C911.28 99.128 909.72 98.6 908.28 98.192C908.76 97.256 909.288 96.272 909.792 95.264H915.384ZM922.68 95.264V92.576H911.136C911.64 91.568 912.12 90.584 912.552 89.648L909.552 89.024C909.072 90.128 908.496 91.352 907.872 92.576H901.344V95.264H906.504C905.472 97.208 904.464 99.032 903.6 100.424L906.6 101.24L907.032 100.472C908.04 100.784 909.072 101.168 910.128 101.552C907.968 102.584 905.232 103.16 901.872 103.496C902.424 104.12 903.24 105.416 903.504 106.088C907.536 105.512 910.8 104.576 913.344 102.872C915.768 103.928 917.976 105.056 919.44 106.04L921.72 103.712C920.208 102.776 918.048 101.768 915.72 100.808C917.016 99.344 918 97.544 918.696 95.264H922.68ZM929.904 92.312C932.4 90.464 934.536 88.304 935.904 86.36C937.296 88.304 939.6 90.488 942.096 92.312H929.904ZM937.416 100.088H944.136V97.592H937.416V94.832H943.032V92.96C943.896 93.56 944.76 94.088 945.624 94.568C946.152 93.68 946.776 92.768 947.52 92C943.728 90.392 939.816 87.248 937.248 83.6H934.296C932.52 86.528 928.656 90.224 924.552 92.288C925.2 92.888 925.992 93.92 926.352 94.592C927.264 94.088 928.152 93.536 929.016 92.936V94.832H934.44V97.592H927.792V100.088H934.44V102.944H925.872V105.512H946.296V102.944H937.416V100.088ZM958.752 87.248L958.776 90.32C961.752 90.584 966.048 90.584 968.976 90.32V87.248C966.408 87.56 961.68 87.656 958.752 87.248ZM957.936 97.16C957.696 98.264 957.528 99.272 957.528 100.256C957.528 102.68 959.472 104.168 963.576 104.168C966.264 104.168 968.184 103.976 969.72 103.688L969.648 100.472C967.584 100.904 965.832 101.096 963.696 101.096C961.296 101.096 960.384 100.472 960.384 99.416C960.384 98.768 960.48 98.192 960.672 97.424L957.936 97.16ZM951.768 85.4C951.768 86.144 951.624 87.056 951.528 87.728C951.264 89.552 950.544 93.56 950.544 97.136C950.544 100.352 951 103.256 951.48 104.912L954.216 104.72C954.192 104.384 954.192 104 954.168 103.736C954.168 103.496 954.24 102.968 954.312 102.632C954.552 101.36 955.344 98.792 956.016 96.8L954.528 95.648C954.192 96.416 953.808 97.208 953.472 98.048C953.4 97.544 953.376 96.968 953.376 96.512C953.376 94.136 954.192 89.384 954.528 87.8C954.624 87.368 954.912 86.168 955.104 85.688L951.768 85.4ZM980.016 86.144C979.056 85.352 977.136 84.344 975.672 83.768L974.112 85.904C975.624 86.552 977.496 87.656 978.36 88.496L980.016 86.144ZM978.696 92.528C977.736 91.712 975.744 90.776 974.256 90.248L972.744 92.384C974.256 93.032 976.152 94.088 977.064 94.904L978.696 92.528ZM977.64 96.32C976.296 99.128 974.592 102.152 973.392 103.976L975.888 105.752C977.232 103.4 978.624 100.64 979.824 98.096L977.64 96.32ZM987.624 90.032H990.6V94.376H987.552C987.6 93.584 987.624 92.816 987.624 92.024V90.032ZM995.184 97.064V94.376H993.384V87.344H987.624V83.696H984.792V87.344H980.784V90.032H984.792V92C984.792 92.792 984.768 93.584 984.72 94.376H979.608V97.064H984.288C983.592 99.752 981.984 102.224 978.336 104.144C979.104 104.576 980.208 105.56 980.712 106.16C984.384 104.144 986.136 101.408 986.928 98.456C988.296 101.936 990.336 104.6 993.456 106.136C993.888 105.344 994.776 104.216 995.448 103.64C992.52 102.44 990.48 100.016 989.328 97.064H995.184ZM1001.71 96.32C1000.34 99.128 998.616 102.152 997.416 103.976L999.912 105.752C1001.26 103.4 1002.67 100.64 1003.87 98.096L1001.71 96.32ZM1002.7 92.528C1001.74 91.712 999.744 90.776 998.256 90.248L996.744 92.384C998.256 93.032 1000.15 94.088 1001.06 94.904L1002.7 92.528ZM1014.29 94.616V95.6H1008.41V94.544H1006.39C1008.12 94.088 1009.75 93.536 1011.24 92.84C1012.94 93.656 1014.82 94.184 1016.78 94.616H1014.29ZM1008.26 99.632C1008.36 99.056 1008.38 98.48 1008.41 97.976H1014.29V99.632H1008.26ZM1013.47 88.304C1012.9 88.952 1012.2 89.528 1011.38 90.032C1010.54 89.576 1009.75 89 1008.98 88.304H1013.47ZM1018.92 88.304V85.832H1012.8V83.696H1009.85V85.832H1003.82V86C1002.82 85.232 1001.04 84.32 999.672 83.792L998.112 85.904C999.624 86.552 1001.5 87.656 1002.36 88.496L1003.82 86.408V88.304H1005.7C1006.61 89.528 1007.62 90.488 1008.7 91.304C1006.94 91.928 1004.93 92.36 1002.84 92.648C1003.27 93.2 1003.94 94.4 1004.18 95.048C1004.69 94.952 1005.19 94.832 1005.67 94.712V97.328C1005.67 99.368 1005.36 102.704 1002.67 104.816C1003.37 105.128 1004.45 105.896 1004.95 106.328C1006.44 105.128 1007.28 103.568 1007.78 101.984H1014.29V106.04H1017.1V94.688L1017.96 94.856C1018.22 93.968 1018.87 92.936 1019.5 92.288C1017.53 92.024 1015.7 91.688 1014 91.16C1015.06 90.344 1015.97 89.408 1016.69 88.304H1018.92Z" fill="white"/>
<path d="M808 282C808 273.163 815.163 266 824 266H1096C1104.84 266 1112 273.163 1112 282V378C1112 386.837 1104.84 394 1096 394H824C815.163 394 808 386.837 808 378V282Z" fill="#FAF9F9"/>
<path fill-rule="evenodd" clip-rule="evenodd" d="M1063.09 338.413L1063.09 338.409C1060.72 336.025 1056.71 332 1049.18 332H1033.94C1017.44 331.94 1004 318.5 1004 302H992C992 320.96 1004.66 337.04 1022 342.26V354H1058V350.3L1061.7 354H1078.65L1063.34 338.66C1063.26 338.58 1063.18 338.497 1063.09 338.413ZM1090 365.38V365.7L1090.16 365.54L1090 365.38ZM1040 326C1046.63 326 1052 320.627 1052 314C1052 307.373 1046.63 302 1040 302C1033.37 302 1028 307.373 1028 314C1028 320.627 1033.37 326 1040 326Z" fill="#616161"/>
<path d="M936 350H1112V366H936V350Z" fill="#616161"/>
<path d="M974 318H970C970 312.48 965.52 308 960 308C954.48 308 950 312.48 950 318H946C943.8 318 942.02 319.8 942.02 322L942 346C942 348.2 943.8 350 946 350H974C976.2 350 978 348.2 978 346V322C978 319.8 976.2 318 974 318ZM960 312C963.32 312 966 314.68 966 318H954C954 314.68 956.68 312 960 312ZM960 332C954.48 332 950 327.52 950 322H954C954 325.32 956.68 328 960 328C963.32 328 966 325.32 966 322H970C970 327.52 965.52 332 960 332Z" fill="#FBC02D"/>
<path fill-rule="evenodd" clip-rule="evenodd" d="M901 311C901 317.6 895.6 323 889 323C882.4 323 877 317.6 877 311C877 304.4 882.4 299 889 299C895.6 299 901 304.4 901 311ZM856.752 394L866.8 343.4L856 347.6V368H844V339.8L875.2 326.6C876.1 326.6 876.85 326.45 877.6 326.3C878.35 326.15 879.1 326 880 326C884.2 326 887.8 328.4 890.2 332L896.2 341.6C901 350 910.6 356 922 356V368C908.8 368 896.8 362 889 353L885.4 371L898 383V394H886V392L873.4 380L870.25 394H856.752Z" fill="#616161"/>
<path d="M875.976 488.68L874.248 488.92C874.344 488.224 874.392 487.576 874.392 486.976V475.792H871.584V478.864H865.704V481.528H871.584V484.384H865.968V486.976H871.584V487C871.584 487.648 871.512 488.464 871.32 489.304C868.8 489.64 866.448 489.928 864.72 490.096L865.248 492.928C866.688 492.712 868.392 492.448 870.192 492.16C869.256 493.744 867.72 495.232 865.32 496.24C866.016 496.816 866.928 497.704 867.408 498.376C870.864 496.696 872.688 494.104 873.576 491.608L876.072 491.2L875.976 488.68ZM887.136 489.928H880.224V486.976H886.176V484.384H880.224V481.528H886.704V478.864H880.224V475.792H877.368V498.088H880.224V492.568H887.136V489.928ZM905.76 494.872H894.504V492.784H905.76V494.872ZM896.448 485.104H903.576V486.784H896.448V485.104ZM906.336 488.872V482.992H893.808V488.872H898.176C898.08 489.352 897.936 489.856 897.816 490.336H891.792V498.136H894.504V497.344H905.76V498.136H908.592V490.336H900.648C900.864 489.88 901.08 489.4 901.272 488.872H906.336ZM906.96 479.392C907.632 478.6 908.352 477.64 909.048 476.728L905.976 475.768C905.52 476.896 904.608 478.36 903.84 479.392H899.904L901.584 478.768C901.248 477.904 900.456 476.536 899.76 475.6L897.264 476.44C897.84 477.352 898.488 478.528 898.824 479.392H895.128L895.896 479.056C895.488 478.168 894.552 476.896 893.76 475.984L891.288 477.04C891.84 477.76 892.44 478.624 892.872 479.392H889.968V484.504H892.56V481.816H907.56V484.504H910.32V479.392H906.96ZM920.448 485.392H924.576V482.776H920.448V479.2C921.912 478.84 923.304 478.432 924.504 477.952L922.488 475.744C920.16 476.8 916.296 477.712 912.84 478.216C913.176 478.816 913.536 479.824 913.656 480.448C914.952 480.28 916.32 480.064 917.688 479.8V482.776H913.128V485.392H917.136C916.056 487.888 914.304 490.624 912.576 492.304C913.032 493.024 913.728 494.248 914.016 495.088C915.336 493.696 916.608 491.632 917.688 489.448V498.04H920.448V489.76C921.408 490.744 922.416 491.824 922.992 492.568L924.648 490.12C924 489.616 921.624 487.576 920.448 486.688V485.392ZM928.488 478.576H925.704V491.992H928.488V478.576ZM931.368 476.128V494.584C931.368 495.016 931.176 495.16 930.72 495.184C930.216 495.184 928.68 495.184 927.12 495.112C927.552 495.928 927.984 497.248 928.104 498.064C930.288 498.088 931.896 497.992 932.88 497.512C933.864 497.056 934.2 496.264 934.2 494.608V476.128H931.368ZM942.672 486.448C943.728 487.648 944.784 489.352 945.168 490.456L947.304 489.28C946.848 488.128 945.72 486.544 944.64 485.368L942.672 486.448ZM954.552 482.416H951.888V480.04H949.248V482.416H941.544V484.84H949.248V490.984C949.248 491.296 949.152 491.392 948.816 491.392C948.456 491.416 947.28 491.416 946.248 491.368C946.56 492.064 946.872 493.072 946.968 493.768C948.744 493.768 949.92 493.744 950.784 493.36C951.624 492.976 951.888 492.328 951.888 491.032V484.84H954.552V482.416ZM940.632 494.344V479.44H955.296V494.344H940.632ZM937.8 476.704V498.04H940.632V497.104H955.296V498.04H958.272V476.704H937.8ZM965.352 475.768C964.272 479.152 962.4 482.56 960.384 484.744C960.912 485.464 961.704 487.024 961.968 487.72C962.448 487.144 962.952 486.496 963.432 485.848V498.04H966.144V481.216C966.888 479.68 967.536 478.12 968.064 476.584L965.352 475.768ZM976.368 491.512V485.248C977.184 487.504 978.192 489.664 979.32 491.512H976.368ZM970.656 491.512C971.784 489.736 972.792 487.624 973.584 485.416V491.512H970.656ZM982.992 482.656V479.944H976.368V475.792H973.584V479.944H967.512V482.656H972.24C970.92 486.448 968.688 490.24 966.264 492.4C966.912 492.88 967.824 493.888 968.304 494.56C969.072 493.792 969.768 492.856 970.44 491.848V494.056H973.584V497.92H976.368V494.056H979.584V491.944C980.208 492.88 980.832 493.744 981.504 494.488C982.008 493.744 982.992 492.784 983.64 492.28C981.312 490.096 979.104 486.352 977.784 482.656H982.992ZM1007.52 478.48C1007.11 477.64 1006.22 476.128 1005.58 475.216L1003.68 476.008C1004.35 476.896 1005.12 478.312 1005.62 479.32L1007.52 478.48ZM991.392 476.92C991.416 478.408 991.224 480.136 990.888 481.96C989.688 482.056 988.56 482.128 987.816 482.152C986.952 482.176 986.16 482.224 985.296 482.152L985.56 485.368C986.304 485.248 987.528 485.08 988.2 485.008C988.656 484.936 989.4 484.84 990.24 484.744C989.4 487.984 987.768 492.736 985.464 495.856L988.56 497.104C990.744 493.6 992.472 488.008 993.408 484.408C994.08 484.36 994.656 484.312 995.04 484.312C996.528 484.312 997.344 484.576 997.344 486.472C997.344 488.824 997.032 491.656 996.384 492.976C996 493.768 995.4 494.008 994.608 494.008C993.984 494.008 992.592 493.768 991.68 493.504L992.208 496.648C993 496.84 994.152 496.984 995.04 496.984C996.864 496.984 998.16 496.456 998.952 494.8C999.96 492.736 1000.3 488.944 1000.3 486.136C1000.3 482.728 998.52 481.6 996 481.6C995.52 481.6 994.8 481.648 994.008 481.696C994.176 480.832 994.368 479.968 994.512 479.248C994.632 478.648 994.776 477.904 994.92 477.28L991.392 476.92ZM1004.66 479.584C1004.18 478.696 1003.34 477.184 1002.74 476.296L1000.85 477.088C1001.4 477.856 1002 479.008 1002.48 479.92L1000.27 480.856C1001.98 482.968 1003.66 487.168 1004.28 489.808L1007.3 488.392C1006.61 486.304 1004.83 482.296 1003.44 480.112L1004.66 479.584ZM1018.03 478.432H1027.97V479.704H1030.61V476.416H1015.54V479.704H1018.03V478.432ZM1019.09 488.224V487.288H1021.54V488.224H1019.09ZM1019.09 484.696H1021.54V485.632H1019.09V484.696ZM1026.86 484.696V485.632H1024.32V484.696H1026.86ZM1026.86 488.224H1024.32V487.288H1026.86V488.224ZM1021.54 494.488H1024.32V492.904H1030.85V490.84H1024.32V489.952H1029.41V482.92H1024.32V482.08H1029.82V480.112H1024.32V478.864H1021.54V480.112H1016.21V482.08H1021.54V482.92H1016.66V489.952H1021.54V490.84H1015.32V492.904H1021.54V494.488ZM1015.03 480.088C1014.26 478.936 1012.61 477.352 1011.26 476.272L1009.08 477.904C1010.42 479.056 1012.01 480.712 1012.68 481.888L1015.03 480.088ZM1014.38 484.984H1008.98V487.6H1011.67V492.832C1010.71 493.648 1009.63 494.44 1008.7 495.04L1010.04 497.872C1011.26 496.84 1012.25 495.928 1013.21 494.992C1014.65 496.84 1016.57 497.536 1019.42 497.656C1022.35 497.776 1027.44 497.728 1030.42 497.584C1030.56 496.792 1030.97 495.472 1031.3 494.8C1027.99 495.064 1022.33 495.136 1019.45 495.016C1017 494.92 1015.32 494.248 1014.38 492.64V484.984ZM1049.76 494.872H1038.5V492.784H1049.76V494.872ZM1040.45 485.104H1047.58V486.784H1040.45V485.104ZM1050.34 488.872V482.992H1037.81V488.872H1042.18C1042.08 489.352 1041.94 489.856 1041.82 490.336H1035.79V498.136H1038.5V497.344H1049.76V498.136H1052.59V490.336H1044.65C1044.86 489.88 1045.08 489.4 1045.27 488.872H1050.34ZM1050.96 479.392C1051.63 478.6 1052.35 477.64 1053.05 476.728L1049.98 475.768C1049.52 476.896 1048.61 478.36 1047.84 479.392H1043.9L1045.58 478.768C1045.25 477.904 1044.46 476.536 1043.76 475.6L1041.26 476.44C1041.84 477.352 1042.49 478.528 1042.82 479.392H1039.13L1039.9 479.056C1039.49 478.168 1038.55 476.896 1037.76 475.984L1035.29 477.04C1035.84 477.76 1036.44 478.624 1036.87 479.392H1033.97V484.504H1036.56V481.816H1051.56V484.504H1054.32V479.392H1050.96Z" fill="white"/>
<path d="M873.116 416.438C872.78 416.536 872.388 416.578 871.954 416.578H870.274V415.85C870.274 415.416 870.316 414.898 870.358 414.562H868.356C868.412 414.912 868.44 415.416 868.44 415.85V416.578H866.018C865.528 416.578 864.758 416.564 864.226 416.48V418.314C864.66 418.272 865.542 418.244 866.046 418.244H871.114C870.708 418.832 869.84 419.644 868.762 420.344C867.558 421.114 865.752 422.08 863.05 422.682L864.128 424.334C865.64 423.872 867.138 423.298 868.426 422.612V425.006C868.426 425.566 868.37 426.406 868.314 426.798H870.33C870.288 426.364 870.232 425.566 870.232 425.006C870.232 424.124 870.246 422.598 870.246 421.478C871.408 420.596 872.472 419.546 873.186 418.734C873.48 418.398 873.914 417.922 874.264 417.572L873.116 416.438ZM871.128 422.248C872.346 422.92 873.256 423.508 874.474 424.474L875.65 422.934C874.306 422.01 873.578 421.604 872.29 420.904L871.128 422.248ZM883.35 417.67L881.684 418.216C882.034 418.944 882.65 420.638 882.818 421.324L884.498 420.736C884.302 420.092 883.616 418.272 883.35 417.67ZM886.542 418.062C886.388 419.812 885.716 421.674 884.764 422.864C883.602 424.32 881.656 425.384 880.116 425.79L881.586 427.288C883.224 426.672 884.974 425.496 886.276 423.816C887.228 422.584 887.816 421.128 888.18 419.714C888.264 419.434 888.348 419.14 888.516 418.692L886.542 418.062ZM880.102 418.412L878.422 419.014C878.758 419.63 879.458 421.492 879.696 422.248L881.404 421.604C881.124 420.82 880.452 419.126 880.102 418.412ZM902.446 420.848C901.158 420.218 898.47 419.224 896.594 418.678V416.62C896.594 416.032 896.664 415.416 896.72 414.926H894.536C894.634 415.416 894.676 416.116 894.676 416.62V424.656C894.676 425.216 894.62 426.056 894.536 426.602H896.72C896.664 426.042 896.594 425.062 896.594 424.656V420.694C898.106 421.212 900.206 422.024 901.648 422.78L902.446 420.848ZM914.64 418.72L913.604 419.154C914.052 419.784 914.346 420.33 914.696 421.1L915.76 420.624C915.494 420.064 914.976 419.224 914.64 418.72ZM916.208 418.076L915.186 418.552C915.634 419.168 915.956 419.686 916.334 420.442L917.384 419.938C917.09 419.392 916.558 418.566 916.208 418.076ZM905.302 416.424L905.484 418.328C907.094 417.978 910.006 417.67 911.21 417.544C910.272 418.244 909.166 419.812 909.166 421.814C909.166 424.824 911.91 426.392 914.822 426.574L915.466 424.656C913.114 424.544 910.986 423.718 910.986 421.436C910.986 419.798 912.232 418.006 913.912 417.558C914.654 417.39 915.844 417.376 916.586 417.376L916.572 415.584C915.592 415.626 914.08 415.71 912.652 415.822C910.118 416.046 907.822 416.256 906.66 416.354C906.394 416.382 905.862 416.41 905.302 416.424ZM922.102 423.48C921.584 423.48 921.024 422.794 921.024 421.394C921.024 419.868 922.242 417.852 924.538 417.376C924.37 418.524 924.118 419.714 923.796 420.736C923.236 422.612 922.676 423.48 922.102 423.48ZM925.91 426.574C929.41 426.042 931.202 423.97 931.202 421.058C931.202 418.034 929.032 415.64 925.602 415.64C922.004 415.64 919.218 418.384 919.218 421.576C919.218 423.914 920.52 425.608 922.046 425.608C923.558 425.608 924.762 423.9 925.588 421.1C925.98 419.798 926.218 418.51 926.414 417.334C928.276 417.656 929.312 419.084 929.312 421.002C929.312 423.018 927.94 424.292 926.162 424.712C925.798 424.796 925.406 424.866 924.874 424.936L925.91 426.574ZM942.598 423.984H940.078V423.326H942.598V423.984ZM940.078 421.45H942.598V422.052H940.078V421.45ZM936.186 418.664V417.992H938.384V418.664H936.186ZM942.346 417.992V418.664H940.078V417.992H942.346ZM945.748 422.052H944.292V420.33H940.078V419.714H944.054V416.942H940.078V416.368H945.426V415.052H940.078V414.142H938.384V415.052H933.162V416.368H938.384V416.942H934.59V419.714H938.384V420.33H934.24V421.45H938.384V422.052H932.84V423.326H938.384V423.984H934.128V425.188H938.384V425.622C938.384 425.874 938.3 425.958 938.034 425.972C937.81 425.972 936.984 425.972 936.312 425.944C936.522 426.294 936.774 426.868 936.858 427.26C938.048 427.26 938.804 427.232 939.336 427.022C939.882 426.784 940.078 426.448 940.078 425.622V425.188H942.598V425.762H944.292V423.326H945.748V422.052ZM949.29 423.088V422.178H951.628V423.088H949.29ZM951.628 420.078V420.946H949.29V420.078H951.628ZM953.238 418.678H947.708V427.134H949.29V424.306H951.628V425.552C951.628 425.72 951.572 425.776 951.404 425.776C951.222 425.79 950.662 425.79 950.144 425.762C950.354 426.14 950.592 426.756 950.676 427.176C951.53 427.176 952.174 427.148 952.622 426.91C953.098 426.672 953.238 426.28 953.238 425.566V418.678ZM957.228 425.356C957.228 425.552 957.158 425.608 956.934 425.608C956.696 425.622 955.968 425.622 955.254 425.594C955.506 426.028 955.772 426.714 955.856 427.162C956.864 427.176 957.62 427.134 958.152 426.882C958.712 426.616 958.866 426.21 958.866 425.384V418.426H957.228V425.356ZM955.968 418.818H954.442V424.53H955.968V418.818ZM956.766 416.214C957.116 415.724 957.494 415.178 957.83 414.632L956.024 414.1C955.744 414.744 955.296 415.57 954.876 416.214H950.984L951.754 415.948C951.516 415.416 950.956 414.66 950.452 414.128L948.87 414.674C949.262 415.136 949.668 415.738 949.92 416.214H946.938V417.712H959.608V416.214H956.766ZM965.208 415.626C964.62 415.136 963.43 414.534 962.534 414.198L961.624 415.444C962.534 415.822 963.696 416.494 964.228 416.984L965.208 415.626ZM964.284 419.294C963.682 418.832 962.464 418.272 961.554 417.964L960.7 419.224C961.624 419.588 962.8 420.204 963.36 420.694L964.284 419.294ZM963.934 421.52C963.108 423.144 962.044 424.88 961.288 425.93L962.702 427.05C963.542 425.692 964.424 424.096 965.166 422.64L963.934 421.52ZM970.206 425.188V422.626H973.034V421.058H970.206V418.762H973.538V417.166H970.318L971.13 416.2C970.416 415.514 968.946 414.632 967.812 414.114L966.706 415.402C967.63 415.864 968.708 416.55 969.436 417.166H965.292V418.762H968.47V421.058H965.796V422.626H968.47V425.188H964.802V426.756H973.832V425.188H970.206ZM983.702 417.978C983.1 419.546 982.302 420.876 981.294 421.968C980.216 420.834 979.39 419.49 978.802 417.978H983.702ZM987.678 417.978V416.354H982.12V414.142H980.426V416.354H974.938V417.978H976.94C977.696 420.022 978.662 421.772 979.922 423.214C978.508 424.292 976.758 425.09 974.686 425.636C975.022 426.042 975.54 426.826 975.736 427.26C977.864 426.588 979.67 425.678 981.196 424.46C982.666 425.706 984.486 426.644 986.74 427.218C986.992 426.742 987.524 425.958 987.93 425.552C985.802 425.076 984.038 424.25 982.596 423.144C983.884 421.744 984.906 420.036 985.662 417.978H987.678ZM993.488 420.68C993.488 421.66 994.3 422.472 995.28 422.472C996.26 422.472 997.072 421.66 997.072 420.68C997.072 419.7 996.26 418.888 995.28 418.888C994.3 418.888 993.488 419.7 993.488 420.68ZM1006.96 415.584C1006.4 415.122 1005.28 414.534 1004.42 414.198L1003.51 415.444C1004.39 415.822 1005.49 416.466 1005.99 416.956L1006.96 415.584ZM1006.19 419.308C1005.63 418.832 1004.46 418.286 1003.6 417.978L1002.71 419.224C1003.6 419.602 1004.7 420.218 1005.23 420.694L1006.19 419.308ZM1005.57 421.52C1004.79 423.158 1003.79 424.922 1003.09 425.986L1004.55 427.022C1005.33 425.65 1006.14 424.04 1006.84 422.556L1005.57 421.52ZM1011.39 417.852H1013.13V420.386H1011.35C1011.38 419.924 1011.39 419.476 1011.39 419.014V417.852ZM1015.8 421.954V420.386H1014.75V416.284H1011.39V414.156H1009.74V416.284H1007.4V417.852H1009.74V419C1009.74 419.462 1009.73 419.924 1009.7 420.386H1006.72V421.954H1009.45C1009.04 423.522 1008.1 424.964 1005.98 426.084C1006.42 426.336 1007.07 426.91 1007.36 427.26C1009.5 426.084 1010.53 424.488 1010.99 422.766C1011.79 424.796 1012.98 426.35 1014.8 427.246C1015.05 426.784 1015.57 426.126 1015.96 425.79C1014.25 425.09 1013.06 423.676 1012.39 421.954H1015.8ZM1019.61 421.52C1018.81 423.158 1017.81 424.922 1017.11 425.986L1018.56 427.022C1019.35 425.65 1020.17 424.04 1020.87 422.556L1019.61 421.52ZM1020.19 419.308C1019.63 418.832 1018.46 418.286 1017.6 417.978L1016.71 419.224C1017.6 419.602 1018.7 420.218 1019.23 420.694L1020.19 419.308ZM1026.95 420.526V421.1H1023.52V420.484H1022.34C1023.35 420.218 1024.3 419.896 1025.17 419.49C1026.16 419.966 1027.26 420.274 1028.4 420.526H1026.95ZM1023.43 423.452C1023.49 423.116 1023.5 422.78 1023.52 422.486H1026.95V423.452H1023.43ZM1026.47 416.844C1026.14 417.222 1025.73 417.558 1025.25 417.852C1024.76 417.586 1024.3 417.25 1023.85 416.844H1026.47ZM1029.65 416.844V415.402H1026.08V414.156H1024.36V415.402H1020.84V415.5C1020.26 415.052 1019.22 414.52 1018.42 414.212L1017.51 415.444C1018.39 415.822 1019.49 416.466 1019.99 416.956L1020.84 415.738V416.844H1021.94C1022.47 417.558 1023.06 418.118 1023.69 418.594C1022.66 418.958 1021.49 419.21 1020.27 419.378C1020.52 419.7 1020.91 420.4 1021.05 420.778C1021.35 420.722 1021.64 420.652 1021.92 420.582V422.108C1021.92 423.298 1021.74 425.244 1020.17 426.476C1020.58 426.658 1021.21 427.106 1021.5 427.358C1022.37 426.658 1022.86 425.748 1023.15 424.824H1026.95V427.19H1028.59V420.568L1029.09 420.666C1029.24 420.148 1029.62 419.546 1029.99 419.168C1028.84 419.014 1027.77 418.818 1026.78 418.51C1027.4 418.034 1027.93 417.488 1028.35 416.844H1029.65ZM1040.64 418.72L1039.6 419.154C1040.05 419.784 1040.35 420.33 1040.7 421.1L1041.76 420.624C1041.49 420.064 1040.98 419.224 1040.64 418.72ZM1042.21 418.076L1041.19 418.552C1041.63 419.168 1041.96 419.686 1042.33 420.442L1043.38 419.938C1043.09 419.392 1042.56 418.566 1042.21 418.076ZM1031.3 416.424L1031.48 418.328C1033.09 417.978 1036.01 417.67 1037.21 417.544C1036.27 418.244 1035.17 419.812 1035.17 421.814C1035.17 424.824 1037.91 426.392 1040.82 426.574L1041.47 424.656C1039.11 424.544 1036.99 423.718 1036.99 421.436C1036.99 419.798 1038.23 418.006 1039.91 417.558C1040.65 417.39 1041.84 417.376 1042.59 417.376L1042.57 415.584C1041.59 415.626 1040.08 415.71 1038.65 415.822C1036.12 416.046 1033.82 416.256 1032.66 416.354C1032.39 416.382 1031.86 416.41 1031.3 416.424ZM1048.79 425.678C1048.07 424.81 1046.73 423.424 1045.74 422.612L1044.28 423.872C1045.26 424.712 1046.44 425.916 1047.29 426.966L1048.79 425.678ZM851.906 445.754C851.542 445.754 850.898 445.362 850.898 444.942C850.898 444.452 851.458 443.878 852.312 443.444C852.34 444.172 852.354 444.802 852.354 445.152C852.354 445.628 852.158 445.754 851.906 445.754ZM853.88 440.77C853.88 440.364 853.88 439.944 853.894 439.524C854.804 439.412 855.756 439.272 856.54 439.09L856.498 437.354C855.77 437.564 854.86 437.746 853.95 437.872C853.964 437.522 853.978 437.186 853.992 436.878C854.02 436.528 854.076 435.926 854.104 435.674H852.2C852.242 435.926 852.298 436.598 852.298 436.892C852.298 437.13 852.298 437.536 852.284 438.026C852.004 438.04 851.738 438.054 851.486 438.054C850.982 438.054 850.38 438.04 849.568 437.942L849.596 439.622C850.198 439.678 850.898 439.692 851.528 439.692C851.752 439.692 852.004 439.678 852.27 439.664V440.826C852.27 441.148 852.27 441.47 852.284 441.792C850.59 442.534 849.176 443.78 849.176 444.998C849.176 446.468 851.094 447.63 852.452 447.63C853.348 447.63 853.978 447.182 853.978 445.46C853.978 444.984 853.936 443.92 853.908 442.814C854.762 442.576 855.658 442.436 856.512 442.436C857.716 442.436 858.556 442.982 858.556 443.92C858.556 444.928 857.66 445.502 856.54 445.698C856.05 445.782 855.462 445.796 854.832 445.796L855.476 447.574C856.022 447.546 856.652 447.49 857.296 447.35C859.494 446.804 860.348 445.572 860.348 443.934C860.348 442.03 858.668 440.896 856.54 440.896C855.77 440.896 854.818 441.022 853.88 441.26V440.77ZM857.296 438.53C858.164 438.95 859.97 439.972 860.628 440.546L861.468 439.118C860.74 438.6 859.13 437.69 858.066 437.172L857.296 438.53ZM872.682 446.244H867.712V444.34H872.682V446.244ZM870.848 438.558H869.154V442.87H866.088V448.218H867.712V447.7H872.682V448.204H874.39V442.87H870.848V441.344H875.216V439.874H870.848V438.558ZM870.302 436.766V435.156H868.566V436.766H863.582V440.294C863.582 442.31 863.484 445.25 862.336 447.252C862.728 447.434 863.47 447.91 863.778 448.19C865.038 446.006 865.248 442.548 865.248 440.294V438.348H875.398V436.766H870.302ZM885.142 441.274C886.038 442.128 886.57 443.024 886.57 443.962C886.57 445.11 885.506 445.992 883.574 445.992C882.202 445.992 881.502 445.362 881.502 444.228C881.502 443.976 881.53 443.626 881.558 443.22C881.74 443.22 881.936 443.22 882.118 443.22C882.972 443.22 883.784 443.164 884.568 443.094L884.61 441.442C883.7 441.54 882.678 441.61 881.824 441.61H881.726C881.796 440.994 881.88 440.336 881.964 439.72C883.084 439.72 883.84 439.678 884.666 439.594L884.722 437.942C884.064 438.04 883.168 438.096 882.174 438.11C882.244 437.662 882.286 437.298 882.328 437.06C882.384 436.696 882.454 436.332 882.566 435.828L880.62 435.716C880.648 436.178 880.62 436.57 880.592 436.948C880.564 437.256 880.536 437.634 880.48 438.054C879.472 437.97 878.436 437.802 877.638 437.536L877.54 439.146C878.352 439.37 879.332 439.538 880.298 439.636C880.214 440.266 880.144 440.91 880.06 441.526C879.164 441.442 878.226 441.288 877.33 440.98L877.232 442.66C877.974 442.87 878.884 443.024 879.892 443.122C879.836 443.696 879.794 444.186 879.794 444.522C879.794 446.832 881.334 447.784 883.518 447.784C886.556 447.784 888.432 446.272 888.432 444.186C888.432 443.01 888.012 442.03 887.088 440.854L885.142 441.274ZM893.906 445.754C893.542 445.754 892.898 445.362 892.898 444.942C892.898 444.452 893.458 443.878 894.312 443.444C894.34 444.172 894.354 444.802 894.354 445.152C894.354 445.628 894.158 445.754 893.906 445.754ZM895.88 440.77C895.88 440.364 895.88 439.944 895.894 439.524C896.804 439.412 897.756 439.272 898.54 439.09L898.498 437.354C897.77 437.564 896.86 437.746 895.95 437.872C895.964 437.522 895.978 437.186 895.992 436.878C896.02 436.528 896.076 435.926 896.104 435.674H894.2C894.242 435.926 894.298 436.598 894.298 436.892C894.298 437.13 894.298 437.536 894.284 438.026C894.004 438.04 893.738 438.054 893.486 438.054C892.982 438.054 892.38 438.04 891.568 437.942L891.596 439.622C892.198 439.678 892.898 439.692 893.528 439.692C893.752 439.692 894.004 439.678 894.27 439.664V440.826C894.27 441.148 894.27 441.47 894.284 441.792C892.59 442.534 891.176 443.78 891.176 444.998C891.176 446.468 893.094 447.63 894.452 447.63C895.348 447.63 895.978 447.182 895.978 445.46C895.978 444.984 895.936 443.92 895.908 442.814C896.762 442.576 897.658 442.436 898.512 442.436C899.716 442.436 900.556 442.982 900.556 443.92C900.556 444.928 899.66 445.502 898.54 445.698C898.05 445.782 897.462 445.796 896.832 445.796L897.476 447.574C898.022 447.546 898.652 447.49 899.296 447.35C901.494 446.804 902.348 445.572 902.348 443.934C902.348 442.03 900.668 440.896 898.54 440.896C897.77 440.896 896.818 441.022 895.88 441.26V440.77ZM899.296 438.53C900.164 438.95 901.97 439.972 902.628 440.546L903.468 439.118C902.74 438.6 901.13 437.69 900.066 437.172L899.296 438.53ZM908.76 443.85C909.516 443.584 910.244 443.262 910.93 442.912C911.672 443.276 912.47 443.598 913.324 443.85H908.76ZM908.69 446.412V445.222H913.352V446.412H908.69ZM909.362 439.944H912.47C912.05 440.378 911.518 440.784 910.93 441.148C910.3 440.812 909.754 440.42 909.292 440L909.362 439.944ZM913.884 438.628L913.604 438.698H910.552C910.706 438.502 910.86 438.306 911 438.11L909.446 437.802H915.298V439.356H917.006V436.29H911.812V435.156H910.104V436.29H904.994V439.356H906.632V437.802H909.208C908.508 438.838 907.22 439.874 905.274 440.616C905.638 440.868 906.156 441.456 906.38 441.848C907.01 441.554 907.57 441.246 908.088 440.91C908.48 441.288 908.9 441.638 909.348 441.96C907.864 442.618 906.142 443.08 904.434 443.346C904.714 443.696 905.064 444.382 905.204 444.816C905.834 444.69 906.45 444.55 907.066 444.382V448.218H908.69V447.784H913.352V448.19H915.074V444.298C915.536 444.382 916.012 444.466 916.502 444.536C916.726 444.06 917.202 443.318 917.552 442.926C915.746 442.744 914.052 442.394 912.596 441.876C913.576 441.148 914.402 440.308 915.004 439.3L913.884 438.628ZM923.488 442.618C923.25 442.24 922.242 440.7 921.864 440.182V439.566H923.264V438.026H921.864V435.142H920.352V438.026H918.672V439.566H920.226C919.876 441.218 919.134 443.164 918.35 444.256C918.588 444.634 918.924 445.264 919.078 445.726C919.554 445.026 919.988 444.046 920.352 442.968V448.204H921.864V442.17C922.172 442.772 922.466 443.402 922.634 443.808L923.488 442.618ZM926.022 444.354C924.832 444.97 923.6 445.6 922.774 445.978L923.488 447.378C924.384 446.888 925.476 446.272 926.456 445.698L926.022 444.354ZM923.572 442.828C924.076 443.374 924.65 444.13 924.902 444.62L926.092 443.78C925.812 443.304 925.224 442.59 924.706 442.086L923.572 442.828ZM930.138 442.044C929.816 442.506 929.27 443.094 928.78 443.556C928.556 443.164 928.36 442.758 928.206 442.324V441.778H931.468V440.42H928.206V439.804H930.922V438.558H928.206V437.998H931.216V436.696H929.858C930.082 436.346 930.334 435.926 930.586 435.506L928.934 435.128C928.794 435.576 928.514 436.22 928.304 436.696H926.568C926.428 436.276 926.092 435.632 925.77 435.156L924.454 435.604C924.65 435.94 924.86 436.332 925 436.696H923.572V437.998H926.596V438.558H923.95V439.804H926.596V440.42H923.306V441.778H926.596V446.552C926.596 446.72 926.54 446.79 926.372 446.79C926.204 446.79 925.658 446.79 925.182 446.762C925.392 447.168 925.574 447.812 925.63 448.246C926.498 448.246 927.156 448.204 927.618 447.966C928.066 447.714 928.206 447.322 928.206 446.566V445.11C928.836 446.16 929.662 447.014 930.684 447.574C930.922 447.154 931.384 446.538 931.734 446.23C930.88 445.88 930.138 445.334 929.55 444.648C930.096 444.2 930.81 443.528 931.398 442.926L930.138 442.044ZM941.142 441.274C942.038 442.128 942.57 443.024 942.57 443.962C942.57 445.11 941.506 445.992 939.574 445.992C938.202 445.992 937.502 445.362 937.502 444.228C937.502 443.976 937.53 443.626 937.558 443.22C937.74 443.22 937.936 443.22 938.118 443.22C938.972 443.22 939.784 443.164 940.568 443.094L940.61 441.442C939.7 441.54 938.678 441.61 937.824 441.61H937.726C937.796 440.994 937.88 440.336 937.964 439.72C939.084 439.72 939.84 439.678 940.666 439.594L940.722 437.942C940.064 438.04 939.168 438.096 938.174 438.11C938.244 437.662 938.286 437.298 938.328 437.06C938.384 436.696 938.454 436.332 938.566 435.828L936.62 435.716C936.648 436.178 936.62 436.57 936.592 436.948C936.564 437.256 936.536 437.634 936.48 438.054C935.472 437.97 934.436 437.802 933.638 437.536L933.54 439.146C934.352 439.37 935.332 439.538 936.298 439.636C936.214 440.266 936.144 440.91 936.06 441.526C935.164 441.442 934.226 441.288 933.33 440.98L933.232 442.66C933.974 442.87 934.884 443.024 935.892 443.122C935.836 443.696 935.794 444.186 935.794 444.522C935.794 446.832 937.334 447.784 939.518 447.784C942.556 447.784 944.432 446.272 944.432 444.186C944.432 443.01 944.012 442.03 943.088 440.854L941.142 441.274ZM959.412 442.31H953.882V440.672H958.586V439.076H953.882V437.242C955.422 437.06 956.892 436.822 958.138 436.5L956.934 435.114C954.638 435.716 950.802 436.094 947.428 436.234C947.596 436.598 947.806 437.27 947.848 437.704C949.22 437.648 950.69 437.564 952.146 437.438V439.076H947.568V440.672H952.146V442.31H946.616V443.934H952.146V446.188C952.146 446.468 952.02 446.566 951.698 446.58C951.39 446.58 950.214 446.58 949.178 446.538C949.444 446.986 949.766 447.714 949.864 448.19C951.292 448.204 952.3 448.162 952.972 447.91C953.63 447.644 953.882 447.21 953.882 446.216V443.934H959.412V442.31ZM964.942 436.878V437.62H962.786V436.878H964.942ZM962.786 439.538V438.74H964.942V439.538H962.786ZM966.496 440.728V435.674H961.134V448.218H962.786V440.728H966.496ZM969.044 439.566V438.74H971.27V439.566H969.044ZM971.27 436.878V437.62H969.044V436.878H971.27ZM965.81 445.698V444.83H968.12V445.698H965.81ZM968.12 442.8V443.64H965.81V442.8H968.12ZM972.95 435.674H967.462V440.756H971.27V446.23C971.27 446.454 971.186 446.538 970.934 446.538C970.752 446.552 970.234 446.552 969.688 446.538V441.568H964.298V447.63H965.81V446.916H969.282C969.45 447.35 969.604 447.868 969.646 448.218C970.85 448.218 971.662 448.176 972.208 447.896C972.768 447.63 972.95 447.14 972.95 446.244V435.674ZM987.216 439.356C986.516 438.852 984.794 437.914 983.8 437.48L982.904 438.852C983.856 439.272 985.438 440.182 986.236 440.826L987.216 439.356ZM981.994 437.228C981.448 437.396 980.804 437.55 980.132 437.662C980.328 436.92 980.496 436.22 980.608 435.772L978.69 435.576C978.662 436.29 978.508 437.13 978.312 437.9C977.892 437.928 977.472 437.942 977.066 437.942C976.562 437.942 975.82 437.914 975.218 437.844L975.344 439.468C975.946 439.496 976.506 439.51 977.08 439.51C977.318 439.51 977.556 439.51 977.794 439.496C977.178 440.994 976.086 443.038 974.966 444.396L976.66 445.25C977.78 443.668 978.97 441.26 979.628 439.314C980.552 439.188 981.406 439.006 982.036 438.838L981.994 437.228ZM982.33 444.942C982.33 445.684 982.022 446.23 981.084 446.23C980.328 446.23 979.894 445.88 979.894 445.362C979.894 444.872 980.412 444.536 981.21 444.536C981.602 444.536 981.966 444.592 982.33 444.676V444.942ZM982.106 440.084C982.148 440.924 982.218 442.142 982.26 443.178C981.966 443.15 981.644 443.122 981.322 443.122C979.39 443.122 978.256 444.172 978.256 445.53C978.256 447.056 979.614 447.826 981.336 447.826C983.31 447.826 984.01 446.818 984.01 445.53V445.404C984.766 445.866 985.396 446.426 985.886 446.874L986.81 445.39C986.11 444.76 985.13 444.06 983.94 443.612C983.898 442.926 983.87 442.254 983.856 441.862C983.842 441.246 983.814 440.672 983.856 440.084H982.106ZM996.624 435.506C996.4 435.828 995.952 436.29 995.56 436.668C994.622 437.592 992.718 439.132 991.64 440.014C990.254 441.162 990.142 441.932 991.514 443.094C992.788 444.172 994.902 445.978 995.658 446.776C996.05 447.196 996.484 447.63 996.876 448.064L998.486 446.58C997.114 445.25 994.44 443.136 993.404 442.254C992.648 441.61 992.634 441.456 993.376 440.826C994.3 440.028 996.134 438.614 997.03 437.886C997.352 437.634 997.814 437.27 998.248 436.948L996.624 435.506ZM1004.87 442.38C1004.39 443.612 1003.57 445.124 1002.7 446.272L1004.66 447.098C1005.39 446.048 1006.21 444.452 1006.72 443.094C1007.21 441.792 1007.71 439.874 1007.91 438.88C1007.96 438.572 1008.13 437.886 1008.24 437.494L1006.2 437.06C1006.03 438.852 1005.5 440.826 1004.87 442.38ZM1011.79 442.086C1012.35 443.598 1012.85 445.376 1013.24 447.028L1015.31 446.356C1014.92 444.97 1014.18 442.744 1013.69 441.47C1013.16 440.126 1012.19 437.97 1011.62 436.878L1009.76 437.48C1010.34 438.558 1011.25 440.616 1011.79 442.086ZM1023.07 438.67L1021.4 439.216C1021.75 439.944 1022.37 441.638 1022.54 442.324L1024.22 441.736C1024.02 441.092 1023.34 439.272 1023.07 438.67ZM1026.26 439.062C1026.11 440.812 1025.44 442.674 1024.48 443.864C1023.32 445.32 1021.38 446.384 1019.84 446.79L1021.31 448.288C1022.94 447.672 1024.69 446.496 1026 444.816C1026.95 443.584 1027.54 442.128 1027.9 440.714C1027.98 440.434 1028.07 440.14 1028.24 439.692L1026.26 439.062ZM1019.82 439.412L1018.14 440.014C1018.48 440.63 1019.18 442.492 1019.42 443.248L1021.12 442.604C1020.84 441.82 1020.17 440.126 1019.82 439.412ZM1041.63 437.872C1041.2 437.872 1040.84 437.508 1040.84 437.06C1040.84 436.612 1041.2 436.248 1041.63 436.248C1042.08 436.248 1042.45 436.612 1042.45 437.06C1042.45 437.508 1042.08 437.872 1041.63 437.872ZM1034.19 437.718C1034.19 437.326 1034.23 436.696 1034.3 436.262H1032.23C1032.3 436.696 1032.34 437.41 1032.34 437.718V445.348C1032.34 446.552 1033.04 447.224 1034.26 447.434C1034.86 447.532 1035.7 447.602 1036.61 447.602C1038.15 447.602 1040.28 447.504 1041.59 447.308V445.264C1040.44 445.572 1038.18 445.754 1036.72 445.754C1036.09 445.754 1035.52 445.726 1035.1 445.67C1034.47 445.544 1034.19 445.39 1034.19 444.788V442.198C1036.01 441.75 1038.26 441.05 1039.67 440.49C1040.14 440.322 1040.77 440.056 1041.31 439.832L1040.74 438.474C1040.99 438.642 1041.3 438.74 1041.63 438.74C1042.56 438.74 1043.31 437.984 1043.31 437.06C1043.31 436.136 1042.56 435.38 1041.63 435.38C1040.71 435.38 1039.97 436.136 1039.97 437.06C1039.97 437.48 1040.12 437.872 1040.37 438.166C1039.9 438.446 1039.48 438.642 1039.03 438.81C1037.78 439.342 1035.84 439.958 1034.19 440.364V437.718ZM1045.29 442.716C1045.81 442.674 1046.74 442.646 1047.54 442.646H1055.06C1055.65 442.646 1056.36 442.702 1056.7 442.716V440.518C1056.33 440.546 1055.7 440.602 1055.06 440.602H1047.54C1046.81 440.602 1045.79 440.56 1045.29 440.518V442.716ZM1064.29 443.402H1065.73L1066.22 438.614L1066.29 436.528H1063.73L1063.78 438.614L1064.29 443.402ZM1065 447.126C1065.83 447.126 1066.46 446.566 1066.46 445.754C1066.46 444.956 1065.83 444.368 1065 444.368C1064.17 444.368 1063.54 444.956 1063.54 445.754C1063.54 446.566 1064.17 447.126 1065 447.126Z" fill="#616161"/>
<path d="M954.96 580.04V577.94C954.96 577.14 955.04 576.48 955.08 576.08H952.24C952.3 576.48 952.36 577.14 952.36 577.94V580.04H947.62V578.08C947.62 577.28 947.68 576.64 947.74 576.26H944.9C944.94 576.64 945.02 577.3 945.02 578.06V580.04H943.32C942.32 580.04 941.52 579.92 941.16 579.86V582.58C941.6 582.54 942.32 582.5 943.32 582.5H945.02V585.22C945.02 586.12 944.96 586.92 944.9 587.32H947.7C947.68 586.92 947.62 586.1 947.62 585.22V582.5H952.36V583.26C952.36 588.16 950.66 589.9 946.8 591.24L948.94 593.26C953.76 591.14 954.96 588.12 954.96 583.16V582.5H956.44C957.5 582.5 958.2 582.52 958.64 582.56V579.9C958.1 580 957.5 580.04 956.44 580.04H954.96ZM961.84 585.88C962.58 585.82 963.92 585.78 965.06 585.78H975.8C976.64 585.78 977.66 585.86 978.14 585.88V582.74C977.62 582.78 976.72 582.86 975.8 582.86H965.06C964.02 582.86 962.56 582.8 961.84 582.74V585.88ZM996.36 578.54C995.98 577.8 995.26 576.54 994.76 575.8L993.18 576.46C993.72 577.22 994.34 578.4 994.74 579.22L996.36 578.54ZM985.98 585.14C988.58 584.5 991.8 583.5 993.82 582.7C994.48 582.46 995.38 582.08 996.16 581.76L995.08 579.22C994.3 579.7 993.62 580.02 992.9 580.3C991.12 581.06 988.34 581.94 985.98 582.52V578.74C985.98 578.18 986.04 577.28 986.14 576.66H983.18C983.28 577.28 983.34 578.3 983.34 578.74V589.64C983.34 591.36 984.34 592.32 986.08 592.62C986.94 592.76 988.14 592.86 989.44 592.86C991.64 592.86 994.68 592.72 996.56 592.44V589.52C994.92 589.96 991.68 590.22 989.6 590.22C988.7 590.22 987.88 590.18 987.28 590.1C986.38 589.92 985.98 589.7 985.98 588.84V585.14ZM995.54 575.54C996.1 576.3 996.74 577.46 997.16 578.3L998.74 577.62C998.38 576.92 997.66 575.64 997.12 574.9L995.54 575.54ZM1015.04 577.22C1014.64 577.36 1013.84 577.48 1012.96 577.48H1005.92C1005.32 577.48 1004.1 577.42 1003.56 577.34V580.18C1003.98 580.16 1005.08 580.04 1005.92 580.04H1012.7C1012.26 581.46 1011.04 583.44 1009.72 584.94C1007.84 587.04 1004.74 589.46 1001.52 590.68L1003.58 592.84C1006.32 591.54 1008.98 589.46 1011.1 587.22C1012.98 589.04 1014.84 591.08 1016.14 592.88L1018.42 590.9C1017.24 589.46 1014.82 586.9 1012.84 585.18C1014.18 583.38 1015.3 581.24 1015.98 579.68C1016.16 579.28 1016.52 578.66 1016.68 578.44L1015.04 577.22ZM1027.04 583.16H1030.48V580.98H1027.04V578C1028.26 577.7 1029.42 577.36 1030.42 576.96L1028.74 575.12C1026.8 576 1023.58 576.76 1020.7 577.18C1020.98 577.68 1021.28 578.52 1021.38 579.04C1022.46 578.9 1023.6 578.72 1024.74 578.5V580.98H1020.94V583.16H1024.28C1023.38 585.24 1021.92 587.52 1020.48 588.92C1020.86 589.52 1021.44 590.54 1021.68 591.24C1022.78 590.08 1023.84 588.36 1024.74 586.54V593.7H1027.04V586.8C1027.84 587.62 1028.68 588.52 1029.16 589.14L1030.54 587.1C1030 586.68 1028.02 584.98 1027.04 584.24V583.16ZM1033.74 577.48H1031.42V588.66H1033.74V577.48ZM1036.14 575.44V590.82C1036.14 591.18 1035.98 591.3 1035.6 591.32C1035.18 591.32 1033.9 591.32 1032.6 591.26C1032.96 591.94 1033.32 593.04 1033.42 593.72C1035.24 593.74 1036.58 593.66 1037.4 593.26C1038.22 592.88 1038.5 592.22 1038.5 590.84V575.44H1036.14ZM1051.4 585.66V583.2H1055.62V585.66H1051.4ZM1045.18 585.66C1045.22 584.92 1045.24 584.2 1045.24 583.56V583.2H1049V585.66H1045.18ZM1049 578.66V580.98H1045.24V578.66H1049ZM1055.62 580.98H1051.4V578.66H1055.62V580.98ZM1057.98 576.4H1042.88V583.54C1042.88 586.34 1042.7 589.9 1040.52 592.3C1041.06 592.58 1042.02 593.4 1042.4 593.84C1043.84 592.28 1044.56 590.08 1044.92 587.9H1049V593.48H1051.4V587.9H1055.62V590.9C1055.62 591.26 1055.48 591.38 1055.1 591.38C1054.74 591.38 1053.42 591.4 1052.3 591.34C1052.6 591.96 1052.98 592.98 1053.06 593.62C1054.86 593.64 1056.08 593.6 1056.9 593.2C1057.7 592.84 1057.98 592.2 1057.98 590.92V576.4ZM1074.38 578.56C1073.74 577.82 1072.32 576.8 1071.2 576.14L1070.06 577.74C1071.16 578.48 1072.54 579.56 1073.16 580.34L1074.38 578.56ZM1069.14 582.78C1070.3 583.46 1071.76 584.54 1072.42 585.26L1073.62 583.36C1072.9 582.66 1071.42 581.68 1070.26 581.06L1069.14 582.78ZM1067.34 576.16C1067.12 577.56 1066.66 579.58 1066.24 580.84L1067.74 581.26C1068.24 580.1 1068.82 578.2 1069.34 576.6L1067.34 576.16ZM1063.46 580.84C1063.36 579.6 1062.96 577.7 1062.44 576.26L1060.78 576.7C1061.24 578.14 1061.64 580.08 1061.68 581.3L1063.46 580.84ZM1068.92 587.42C1068.5 586.86 1066.6 584.62 1066.02 584.04V583.9H1068.98V581.68H1066.02V575.14H1063.82V581.68H1060.8V583.9H1063.08C1062.46 585.72 1061.44 587.86 1060.44 589.08C1060.8 589.74 1061.32 590.82 1061.52 591.54C1062.38 590.34 1063.18 588.48 1063.82 586.62V593.68H1066.02V586.66C1066.6 587.58 1067.16 588.62 1067.46 589.26L1068.92 587.42ZM1079.5 587.88L1079.14 585.66L1077.1 586.04V575.04H1074.86V586.44L1068.92 587.5L1069.28 589.72L1074.86 588.72V593.72H1077.1V588.32L1079.5 587.88Z" fill="#616161"/>
<path d="M945.88 617.54H943.74V615.72H945.88V617.54ZM945.88 621.16H943.74V619.3H945.88V621.16ZM945.88 624.78H943.74V622.92H945.88V624.78ZM948.08 613.84H941.62V626.68H948.08V613.84ZM942.6 626.84C942.18 628.22 941.38 629.62 940.44 630.54C940.96 630.84 941.86 631.44 942.3 631.82C943.28 630.74 944.22 629.02 944.78 627.34L942.6 626.84ZM950.52 629.68C951.3 627.56 951.54 625.08 951.6 622.9C952.1 624.54 952.72 626.04 953.5 627.36C952.66 628.36 951.66 629.14 950.52 629.68ZM956.22 621.12C955.92 622.72 955.44 624.14 954.82 625.36C954.1 624.1 953.56 622.66 953.16 621.12H956.22ZM957.28 619.02L956.9 619.06H951.62V616.24H958.8V614.1H949.44V621.6C949.44 623.92 949.34 626.8 948.34 629.12C947.98 628.42 947.4 627.48 946.86 626.78L945.02 627.56C945.6 628.42 946.26 629.58 946.52 630.32L948.14 629.54C947.96 629.9 947.76 630.24 947.52 630.58C948.06 630.82 949.02 631.44 949.42 631.8C949.84 631.22 950.18 630.54 950.46 629.84C950.94 630.32 951.46 631.14 951.74 631.7C952.94 631.06 954 630.26 954.9 629.28C955.78 630.28 956.82 631.14 958.04 631.78C958.36 631.18 959.06 630.32 959.58 629.88C958.3 629.3 957.2 628.46 956.28 627.42C957.5 625.36 958.3 622.7 958.68 619.32L957.28 619.02ZM968.68 618.12H963.1V620.2H976.98V618.12H971.14V616.82H978.82V614.66H971.14V613.08H968.68V614.66H961.2V616.82H968.68V618.12ZM978.56 625.44V621.18H961.46V625.44H963.76V623.32H976.16V625.44H978.56ZM966.14 623.94C965.9 627.02 965.4 628.82 960.66 629.74C961.14 630.24 961.74 631.18 961.96 631.8C967.42 630.5 968.3 627.96 968.62 623.94H966.14ZM974.28 629.36C973.56 629.36 973.44 629.28 973.44 628.64V623.94H971.04V628.68C971.04 630.82 971.62 631.5 973.94 631.5H976.52C978.4 631.5 979.02 630.76 979.28 627.88C978.64 627.72 977.62 627.36 977.14 626.98C977.06 629.02 976.94 629.36 976.28 629.36H974.28ZM999.16 623.3H991.26V620.96H997.98V618.68H991.26V616.06C993.46 615.8 995.56 615.46 997.34 615L995.62 613.02C992.34 613.88 986.86 614.42 982.04 614.62C982.28 615.14 982.58 616.1 982.64 616.72C984.6 616.64 986.7 616.52 988.78 616.34V618.68H982.24V620.96H988.78V623.3H980.88V625.62H988.78V628.84C988.78 629.24 988.6 629.38 988.14 629.4C987.7 629.4 986.02 629.4 984.54 629.34C984.92 629.98 985.38 631.02 985.52 631.7C987.56 631.72 989 631.66 989.96 631.3C990.9 630.92 991.26 630.3 991.26 628.88V625.62H999.16V623.3ZM1010.72 625.36V623.44C1010.84 623.56 1010.92 623.66 1011 623.74C1011.32 623.3 1011.64 622.82 1011.92 622.3C1012.28 623.74 1012.72 625.06 1013.28 626.24C1012.4 627.48 1011.24 628.48 1009.76 629.26C1009.3 628.92 1008.72 628.56 1008.1 628.2C1008.6 627.42 1008.94 626.48 1009.16 625.36H1010.72ZM1004.98 625.36H1006.92C1006.74 626.08 1006.48 626.68 1006.16 627.18C1005.58 626.9 1005 626.66 1004.4 626.42L1004.98 625.36ZM1015.74 618.86C1015.52 620.62 1015.16 622.2 1014.66 623.56C1014.12 622.12 1013.72 620.54 1013.44 618.86H1015.74ZM1019.32 618.86V616.66H1014C1014.26 615.6 1014.48 614.5 1014.64 613.38L1012.24 613.06C1011.76 616.62 1010.8 620.02 1009.1 622.06C1009.54 622.36 1010.26 622.98 1010.72 623.44H1005.96L1006.44 622.48L1005.58 622.3H1006.86V619.88C1007.64 620.5 1008.48 621.2 1008.92 621.62L1010.18 619.98C1009.74 619.68 1008.32 618.84 1007.36 618.3H1010.64V616.42H1008.74C1009.22 615.8 1009.84 614.96 1010.46 614.1L1008.46 613.3C1008.14 614.06 1007.58 615.12 1007.12 615.84L1008.44 616.42H1006.86V613.06H1004.68V616.42H1003L1004.28 615.86C1004.12 615.16 1003.6 614.14 1003.08 613.38L1001.36 614.1C1001.78 614.82 1002.22 615.74 1002.4 616.42H1000.88V618.3H1004C1003.04 619.34 1001.7 620.3 1000.48 620.8C1000.92 621.22 1001.42 622 1001.68 622.52C1002.68 621.96 1003.76 621.12 1004.68 620.2V622.12L1004.24 622.02C1004.04 622.46 1003.8 622.94 1003.56 623.44H1000.66V625.36H1002.56C1002.06 626.32 1001.56 627.22 1001.12 627.92L1003.2 628.56L1003.42 628.18C1003.8 628.34 1004.18 628.52 1004.54 628.72C1003.6 629.24 1002.34 629.58 1000.74 629.78C1001.12 630.28 1001.54 631.08 1001.68 631.76C1003.82 631.32 1005.42 630.74 1006.6 629.86C1007.42 630.38 1008.14 630.9 1008.68 631.36L1009.58 630.44C1009.9 630.92 1010.2 631.46 1010.34 631.8C1012.08 630.92 1013.46 629.84 1014.56 628.52C1015.46 629.82 1016.56 630.88 1017.92 631.7C1018.28 631.04 1019.02 630.12 1019.56 629.64C1018.1 628.88 1016.94 627.74 1016.02 626.32C1017.1 624.3 1017.78 621.82 1018.2 618.86H1019.32ZM1034.38 616.56C1033.74 615.82 1032.32 614.8 1031.2 614.14L1030.06 615.74C1031.16 616.48 1032.54 617.56 1033.16 618.34L1034.38 616.56ZM1029.14 620.78C1030.3 621.46 1031.76 622.54 1032.42 623.26L1033.62 621.36C1032.9 620.66 1031.42 619.68 1030.26 619.06L1029.14 620.78ZM1027.34 614.16C1027.12 615.56 1026.66 617.58 1026.24 618.84L1027.74 619.26C1028.24 618.1 1028.82 616.2 1029.34 614.6L1027.34 614.16ZM1023.46 618.84C1023.36 617.6 1022.96 615.7 1022.44 614.26L1020.78 614.7C1021.24 616.14 1021.64 618.08 1021.68 619.3L1023.46 618.84ZM1028.92 625.42C1028.5 624.86 1026.6 622.62 1026.02 622.04V621.9H1028.98V619.68H1026.02V613.14H1023.82V619.68H1020.8V621.9H1023.08C1022.46 623.72 1021.44 625.86 1020.44 627.08C1020.8 627.74 1021.32 628.82 1021.52 629.54C1022.38 628.34 1023.18 626.48 1023.82 624.62V631.68H1026.02V624.66C1026.6 625.58 1027.16 626.62 1027.46 627.26L1028.92 625.42ZM1039.5 625.88L1039.14 623.66L1037.1 624.04V613.04H1034.86V624.44L1028.92 625.5L1029.28 627.72L1034.86 626.72V631.72H1037.1V626.32L1039.5 625.88Z" fill="#616161"/>
<path d="M818.65 701.82L819.53 700.82L820.41 701.82L821.04 701.36L820.37 700.22L821.57 699.69L821.33 698.95L820.05 699.24L819.93 697.92H819.14L819.01 699.24L817.73 698.95L817.49 699.69L818.68 700.22L818.02 701.36L818.65 701.82ZM830.029 699.15C829.799 699.22 829.469 699.27 829.159 699.27H827.149L827.179 699.22C827.299 699 827.549 698.55 827.789 698.2L826.329 697.72C826.239 698.06 826.029 698.52 825.879 698.77C825.379 699.63 824.509 700.92 822.759 701.99L823.879 702.82C824.859 702.15 825.729 701.27 826.399 700.4H829.209C829.049 701.15 828.469 702.35 827.789 703.13C826.919 704.12 825.809 704.99 823.759 705.6L824.939 706.66C826.819 705.91 828.029 705 828.979 703.84C829.879 702.72 830.449 701.39 830.719 700.5C830.799 700.25 830.939 699.97 831.049 699.78L830.029 699.15ZM834.949 706.42C835.189 706.27 835.409 706.2 835.549 706.15C837.899 705.38 839.979 704.19 841.349 702.55L840.639 701.42C839.359 702.98 837.129 704.26 835.499 704.72V699.53C835.499 699.14 835.539 698.78 835.599 698.4H834.029C834.089 698.68 834.139 699.15 834.139 699.53V704.95C834.139 705.18 834.129 705.35 834.009 705.6L834.949 706.42ZM849.349 698.32L848.519 698.67C848.879 699.18 849.109 699.61 849.399 700.24L850.269 699.87C850.039 699.41 849.639 698.74 849.349 698.32ZM850.729 697.84L849.879 698.19C850.249 698.69 850.499 699.08 850.819 699.71L851.669 699.33C851.429 698.89 851.039 698.24 850.729 697.84ZM845.009 698.13L844.289 699.23C844.949 699.6 845.989 700.27 846.549 700.66L847.289 699.56C846.769 699.2 845.669 698.49 845.009 698.13ZM843.159 705.23L843.909 706.54C844.789 706.38 846.229 705.88 847.249 705.31C848.879 704.36 850.299 703.1 851.219 701.71L850.449 700.35C849.659 701.78 848.259 703.15 846.559 704.1C845.479 704.7 844.279 705.04 843.159 705.23ZM843.469 700.41L842.749 701.51C843.419 701.87 844.459 702.54 845.029 702.94L845.759 701.82C845.249 701.46 844.149 700.77 843.469 700.41ZM857.109 700.05L855.919 700.44C856.169 700.96 856.609 702.17 856.729 702.66L857.929 702.24C857.789 701.78 857.299 700.48 857.109 700.05ZM859.389 700.33C859.279 701.58 858.799 702.91 858.119 703.76C857.289 704.8 855.899 705.56 854.799 705.85L855.849 706.92C857.019 706.48 858.269 705.64 859.199 704.44C859.879 703.56 860.299 702.52 860.559 701.51C860.619 701.31 860.679 701.1 860.799 700.78L859.389 700.33ZM854.789 700.58L853.589 701.01C853.829 701.45 854.329 702.78 854.499 703.32L855.719 702.86C855.519 702.3 855.039 701.09 854.789 700.58ZM870.749 702.32C869.829 701.87 867.909 701.16 866.569 700.77V699.3C866.569 698.88 866.619 698.44 866.659 698.09H865.099C865.169 698.44 865.199 698.94 865.199 699.3V705.04C865.199 705.44 865.159 706.04 865.099 706.43H866.659C866.619 706.03 866.569 705.33 866.569 705.04V702.21C867.649 702.58 869.149 703.16 870.179 703.7L870.749 702.32ZM879.919 699.7C879.669 699.74 879.409 699.77 879.159 699.77H877.279C877.299 699.48 877.309 699.18 877.319 698.87C877.329 698.63 877.349 698.21 877.379 697.98H875.909C875.949 698.22 875.979 698.68 875.979 698.9C875.979 699.2 875.969 699.49 875.959 699.77H874.529C874.149 699.77 873.629 699.74 873.209 699.7V701.01C873.639 700.97 874.189 700.97 874.529 700.97H875.849C875.629 702.49 875.129 703.61 874.199 704.53C873.799 704.94 873.309 705.28 872.889 705.51L874.049 706.45C875.839 705.18 876.789 703.61 877.159 700.97H879.409C879.409 702.05 879.279 704.05 878.989 704.68C878.879 704.92 878.739 705.03 878.419 705.03C878.029 705.03 877.509 704.98 877.019 704.89L877.169 706.23C877.659 706.27 878.259 706.31 878.829 706.31C879.519 706.31 879.899 706.05 880.119 705.54C880.549 704.52 880.669 701.73 880.709 700.65C880.709 700.54 880.749 700.29 880.779 700.12L879.919 699.7ZM882.979 702.94C883.349 702.91 884.019 702.89 884.589 702.89H889.959C890.379 702.89 890.889 702.93 891.129 702.94V701.37C890.869 701.39 890.419 701.43 889.959 701.43H884.589C884.069 701.43 883.339 701.4 882.979 701.37V702.94ZM901.129 699.49C900.899 699.04 900.479 698.41 900.189 698.01L899.359 698.4C899.729 698.9 899.969 699.27 900.289 699.9L901.129 699.49ZM899.789 700.07C899.559 699.62 899.159 698.98 898.879 698.56L898.039 698.92C898.409 699.43 898.629 699.83 898.919 700.46L899.789 700.07ZM896.259 699.44C896.259 699.02 896.309 698.58 896.349 698.23H894.789C894.859 698.59 894.889 699.08 894.889 699.44V705.19C894.889 705.58 894.849 706.19 894.789 706.58H896.359C896.309 706.17 896.259 705.47 896.259 705.19V702.36C897.339 702.72 898.839 703.3 899.879 703.85L900.439 702.46C899.519 702.01 897.589 701.3 896.259 700.9V699.44ZM905.219 700.53C905.979 699.94 906.619 699.29 907.049 698.68C907.509 699.3 908.199 699.95 908.969 700.53H905.219ZM904.729 701.62H909.399V700.83C909.949 701.21 910.529 701.54 911.079 701.8C911.289 701.45 911.549 701.02 911.849 700.71C910.269 700.15 908.679 699.01 907.619 697.54H906.379C905.629 698.72 904.049 700.14 902.339 700.89C902.589 701.15 902.899 701.6 903.039 701.89C903.619 701.61 904.199 701.27 904.729 700.89V701.62ZM902.959 703.55H905.279C905.069 704.14 904.789 704.8 904.519 705.36L903.009 705.41L903.169 706.57C904.869 706.49 907.339 706.39 909.689 706.26C909.849 706.48 909.989 706.69 910.089 706.88L911.199 706.21C910.729 705.46 909.799 704.42 908.909 703.64L907.859 704.19C908.189 704.49 908.529 704.85 908.839 705.21C907.819 705.25 906.789 705.29 905.829 705.32C906.129 704.76 906.459 704.14 906.749 703.55H911.229V702.45H902.959V703.55ZM916.809 703.18C916.599 702.98 915.829 702.29 915.349 701.9C915.829 701.24 916.229 700.52 916.529 699.76L915.859 699.33L915.649 699.38H915.199V697.54H914.019V699.38H912.599V700.45H915.019C914.359 701.61 913.309 702.66 912.219 703.25C912.399 703.48 912.679 704.06 912.779 704.38C913.199 704.12 913.619 703.79 914.019 703.42V706.87H915.199V703.1C915.539 703.47 915.879 703.87 916.089 704.15L916.809 703.18ZM919.689 705.42V701.76H921.579V700.61H919.689V697.62H918.469V700.61H916.569V701.76H918.469V705.42H916.159V706.58H921.819V705.42H919.689ZM926.539 699.02L926.549 700.3C927.789 700.41 929.579 700.41 930.799 700.3V699.02C929.729 699.15 927.759 699.19 926.539 699.02ZM926.199 703.15C926.099 703.61 926.029 704.03 926.029 704.44C926.029 705.45 926.839 706.07 928.549 706.07C929.669 706.07 930.469 705.99 931.109 705.87L931.079 704.53C930.219 704.71 929.489 704.79 928.599 704.79C927.599 704.79 927.219 704.53 927.219 704.09C927.219 703.82 927.259 703.58 927.339 703.26L926.199 703.15ZM923.629 698.25C923.629 698.56 923.569 698.94 923.529 699.22C923.419 699.98 923.119 701.65 923.119 703.14C923.119 704.48 923.309 705.69 923.509 706.38L924.649 706.3C924.639 706.16 924.639 706 924.629 705.89C924.629 705.79 924.659 705.57 924.689 705.43C924.789 704.9 925.119 703.83 925.399 703L924.779 702.52C924.639 702.84 924.479 703.17 924.339 703.52C924.309 703.31 924.299 703.07 924.299 702.88C924.299 701.89 924.639 699.91 924.779 699.25C924.819 699.07 924.939 698.57 925.019 698.37L923.629 698.25ZM936.499 704.41C936.499 705.06 936.269 705.35 935.629 705.35C934.939 705.35 934.439 705.17 934.439 704.68C934.439 704.26 934.899 704 935.669 704C935.949 704 936.229 704.03 936.489 704.07C936.499 704.2 936.499 704.32 936.499 704.41ZM940.779 704.87C940.099 704.23 939.029 703.55 937.769 703.17C937.719 702.44 937.679 701.66 937.659 701.06C938.459 701.04 939.639 701 940.469 700.92L940.419 699.74C939.599 699.83 938.439 699.87 937.659 699.89C937.659 699.64 937.659 699.39 937.659 699.17C937.679 698.78 937.709 698.3 937.749 698.01H936.259C936.319 698.26 936.349 698.68 936.359 699.17C936.369 699.59 936.379 700.18 936.379 700.78C936.379 701.3 936.419 702.15 936.449 702.92C936.259 702.9 936.059 702.89 935.859 702.89C934.039 702.89 933.159 703.71 933.159 704.74C933.159 706.09 934.319 706.55 935.729 706.55C937.389 706.55 937.839 705.71 937.839 704.84C937.839 704.74 937.839 704.63 937.829 704.5C938.709 704.9 939.459 705.49 940.019 706.05L940.779 704.87ZM944.133 697.94C944.123 698.22 944.103 698.62 944.053 698.98C943.903 700 943.773 701.23 943.773 702.15C943.773 702.81 943.843 703.42 943.893 703.8L945.123 703.72C945.063 703.26 945.063 702.94 945.073 702.67C945.123 701.37 946.143 699.61 947.313 699.61C948.133 699.61 948.643 700.46 948.643 701.99C948.643 704.39 947.103 705.11 944.903 705.45L945.653 706.6C948.273 706.12 949.993 704.78 949.993 701.98C949.993 699.8 948.923 698.45 947.543 698.45C946.423 698.45 945.563 699.29 945.093 700.05C945.153 699.5 945.353 698.49 945.493 698L944.133 697.94ZM953.803 699.04H955.683V700.41H953.803V699.04ZM954.823 702.29C954.843 702.02 954.863 701.74 954.883 701.47H956.833V697.99H952.723V701.47H953.723C953.643 703.13 953.443 704.93 952.133 706.01C952.413 706.21 952.753 706.58 952.923 706.88C953.983 705.98 954.453 704.7 954.683 703.33H955.793C955.723 704.91 955.633 705.55 955.483 705.72C955.393 705.83 955.303 705.85 955.153 705.85C954.973 705.85 954.573 705.85 954.173 705.8C954.343 706.09 954.463 706.52 954.473 706.83C954.953 706.85 955.413 706.84 955.683 706.8C956.003 706.76 956.233 706.67 956.433 706.43C956.713 706.09 956.813 705.13 956.913 702.72C956.913 702.58 956.923 702.29 956.923 702.29H954.823ZM958.743 698.74H957.583V704.37H958.743V698.74ZM959.933 697.73V705.43C959.933 705.61 959.853 705.67 959.663 705.67C959.453 705.67 958.813 705.67 958.163 705.65C958.343 705.98 958.523 706.53 958.573 706.88C959.483 706.88 960.153 706.84 960.563 706.65C960.973 706.46 961.113 706.13 961.113 705.43V697.73H959.933ZM966.633 699.94C967.213 699.51 967.713 699.03 968.063 698.57C968.423 699.03 968.973 699.52 969.553 699.94H966.633ZM966.283 700.9H967.553V701.45H965.133V702.43H967.553V704.14C967.553 704.25 967.513 704.29 967.383 704.29C967.283 704.29 966.893 704.29 966.553 704.27C966.683 704.55 966.823 704.97 966.863 705.27C967.483 705.27 967.933 705.26 968.273 705.1C968.613 704.94 968.693 704.67 968.693 704.16V702.43H971.233V701.45H968.693V700.9H969.983V700.24C970.293 700.44 970.603 700.61 970.893 700.75C971.073 700.41 971.333 699.96 971.583 699.65C970.473 699.27 969.373 698.47 968.603 697.54H967.433C966.883 698.35 965.753 699.28 964.623 699.74C964.843 700.01 965.113 700.48 965.243 700.78C965.593 700.61 965.943 700.41 966.283 700.19V700.9ZM969.063 703.05C969.513 703.61 970.043 704.39 970.263 704.88L971.263 704.39C971.013 703.88 970.453 703.15 970.003 702.61L969.063 703.05ZM965.973 702.66C965.733 703.28 965.293 703.89 964.773 704.3C965.023 704.44 965.453 704.71 965.653 704.89C966.173 704.42 966.693 703.66 967.003 702.91L965.973 702.66ZM964.853 699.29C964.523 698.82 963.803 698.18 963.223 697.76L962.333 698.47C962.913 698.92 963.613 699.6 963.903 700.07L964.853 699.29ZM964.593 701.41H962.333V702.5H963.433V704.61C963.003 704.95 962.513 705.29 962.113 705.53L962.693 706.77C963.223 706.35 963.653 705.96 964.083 705.57C964.733 706.35 965.563 706.63 966.803 706.68C968.003 706.73 970.013 706.71 971.223 706.65C971.273 706.31 971.453 705.73 971.593 705.45C970.263 705.55 967.993 705.58 966.823 705.53C965.773 705.49 965.013 705.22 964.593 704.55V701.41ZM975.203 698.56C974.803 698.23 974.003 697.81 973.393 697.57L972.743 698.46C973.373 698.73 974.153 699.19 974.513 699.54L975.203 698.56ZM974.653 701.22C974.253 700.88 973.423 700.49 972.803 700.27L972.173 701.16C972.803 701.43 973.593 701.87 973.973 702.21L974.653 701.22ZM974.213 702.8C973.653 703.97 972.943 705.23 972.443 705.99L973.483 706.73C974.043 705.75 974.623 704.6 975.123 703.54L974.213 702.8ZM978.373 700.18H979.613V701.99H978.343C978.363 701.66 978.373 701.34 978.373 701.01V700.18ZM981.523 703.11V701.99H980.773V699.06H978.373V697.54H977.193V699.06H975.523V700.18H977.193V701C977.193 701.33 977.183 701.66 977.163 701.99H975.033V703.11H976.983C976.693 704.23 976.023 705.26 974.503 706.06C974.823 706.24 975.283 706.65 975.493 706.9C977.023 706.06 977.753 704.92 978.083 703.69C978.653 705.14 979.503 706.25 980.803 706.89C980.983 706.56 981.353 706.09 981.633 705.85C980.413 705.35 979.563 704.34 979.083 703.11H981.523ZM984.243 702.8C983.673 703.97 982.953 705.23 982.453 705.99L983.493 706.73C984.053 705.75 984.643 704.6 985.143 703.54L984.243 702.8ZM984.653 701.22C984.253 700.88 983.423 700.49 982.803 700.27L982.173 701.16C982.803 701.43 983.593 701.87 983.973 702.21L984.653 701.22ZM989.483 702.09V702.5H987.033V702.06H986.193C986.913 701.87 987.593 701.64 988.213 701.35C988.923 701.69 989.703 701.91 990.523 702.09H989.483ZM986.973 704.18C987.013 703.94 987.023 703.7 987.033 703.49H989.483V704.18H986.973ZM989.143 699.46C988.903 699.73 988.613 699.97 988.273 700.18C987.923 699.99 987.593 699.75 987.273 699.46H989.143ZM991.413 699.46V698.43H988.863V697.54H987.633V698.43H985.123V698.5C984.703 698.18 983.963 697.8 983.393 697.58L982.743 698.46C983.373 698.73 984.153 699.19 984.513 699.54L985.123 698.67V699.46H985.903C986.283 699.97 986.703 700.37 987.153 700.71C986.423 700.97 985.583 701.15 984.713 701.27C984.893 701.5 985.173 702 985.273 702.27C985.483 702.23 985.693 702.18 985.893 702.13V703.22C985.893 704.07 985.763 705.46 984.643 706.34C984.933 706.47 985.383 706.79 985.593 706.97C986.213 706.47 986.563 705.82 986.773 705.16H989.483V706.85H990.653V702.12L991.013 702.19C991.123 701.82 991.393 701.39 991.653 701.12C990.833 701.01 990.073 700.87 989.363 700.65C989.803 700.31 990.183 699.92 990.483 699.46H991.413ZM1001.44 702.65H997.493V701.48H1000.85V700.34H997.493V699.03C998.593 698.9 999.643 698.73 1000.53 698.5L999.673 697.51C998.033 697.94 995.293 698.21 992.883 698.31C993.003 698.57 993.153 699.05 993.183 699.36C994.163 699.32 995.213 699.26 996.253 699.17V700.34H992.983V701.48H996.253V702.65H992.303V703.81H996.253V705.42C996.253 705.62 996.163 705.69 995.933 705.7C995.713 705.7 994.873 705.7 994.133 705.67C994.323 705.99 994.553 706.51 994.623 706.85C995.643 706.86 996.363 706.83 996.843 706.65C997.313 706.46 997.493 706.15 997.493 705.44V703.81H1001.44V702.65ZM1007.22 703.68V702.72C1007.28 702.78 1007.32 702.83 1007.36 702.87C1007.52 702.65 1007.68 702.41 1007.82 702.15C1008 702.87 1008.22 703.53 1008.5 704.12C1008.06 704.74 1007.48 705.24 1006.74 705.63C1006.51 705.46 1006.22 705.28 1005.91 705.1C1006.16 704.71 1006.33 704.24 1006.44 703.68H1007.22ZM1004.35 703.68H1005.32C1005.23 704.04 1005.1 704.34 1004.94 704.59C1004.65 704.45 1004.36 704.33 1004.06 704.21L1004.35 703.68ZM1009.73 700.43C1009.62 701.31 1009.44 702.1 1009.19 702.78C1008.92 702.06 1008.72 701.27 1008.58 700.43H1009.73ZM1011.52 700.43V699.33H1008.86C1008.99 698.8 1009.1 698.25 1009.18 697.69L1007.98 697.53C1007.74 699.31 1007.26 701.01 1006.41 702.03C1006.63 702.18 1006.99 702.49 1007.22 702.72H1004.84L1005.08 702.24L1004.65 702.15H1005.29V700.94C1005.68 701.25 1006.1 701.6 1006.32 701.81L1006.95 700.99C1006.73 700.84 1006.02 700.42 1005.54 700.15H1007.18V699.21H1006.23C1006.47 698.9 1006.78 698.48 1007.09 698.05L1006.09 697.65C1005.93 698.03 1005.65 698.56 1005.42 698.92L1006.08 699.21H1005.29V697.53H1004.2V699.21H1003.36L1004 698.93C1003.92 698.58 1003.66 698.07 1003.4 697.69L1002.54 698.05C1002.75 698.41 1002.97 698.87 1003.06 699.21H1002.3V700.15H1003.86C1003.38 700.67 1002.71 701.15 1002.1 701.4C1002.32 701.61 1002.57 702 1002.7 702.26C1003.2 701.98 1003.74 701.56 1004.2 701.1V702.06L1003.98 702.01C1003.88 702.23 1003.76 702.47 1003.64 702.72H1002.19V703.68H1003.14C1002.89 704.16 1002.64 704.61 1002.42 704.96L1003.46 705.28L1003.57 705.09C1003.76 705.17 1003.95 705.26 1004.13 705.36C1003.66 705.62 1003.03 705.79 1002.23 705.89C1002.42 706.14 1002.63 706.54 1002.7 706.88C1003.77 706.66 1004.57 706.37 1005.16 705.93C1005.57 706.19 1005.93 706.45 1006.2 706.68L1006.65 706.22C1006.81 706.46 1006.96 706.73 1007.03 706.9C1007.9 706.46 1008.59 705.92 1009.14 705.26C1009.59 705.91 1010.14 706.44 1010.82 706.85C1011 706.52 1011.37 706.06 1011.64 705.82C1010.91 705.44 1010.33 704.87 1009.87 704.16C1010.41 703.15 1010.75 701.91 1010.96 700.43H1011.52ZM1019.05 699.28C1018.73 698.91 1018.02 698.4 1017.46 698.07L1016.89 698.87C1017.44 699.24 1018.13 699.78 1018.44 700.17L1019.05 699.28ZM1016.43 701.39C1017.01 701.73 1017.74 702.27 1018.07 702.63L1018.67 701.68C1018.31 701.33 1017.57 700.84 1016.99 700.53L1016.43 701.39ZM1015.53 698.08C1015.42 698.78 1015.19 699.79 1014.98 700.42L1015.73 700.63C1015.98 700.05 1016.27 699.1 1016.53 698.3L1015.53 698.08ZM1013.59 700.42C1013.54 699.8 1013.34 698.85 1013.08 698.13L1012.25 698.35C1012.48 699.07 1012.68 700.04 1012.7 700.65L1013.59 700.42ZM1016.32 703.71C1016.11 703.43 1015.16 702.31 1014.87 702.02V701.95H1016.35V700.84H1014.87V697.57H1013.77V700.84H1012.26V701.95H1013.4C1013.09 702.86 1012.58 703.93 1012.08 704.54C1012.26 704.87 1012.52 705.41 1012.62 705.77C1013.05 705.17 1013.45 704.24 1013.77 703.31V706.84H1014.87V703.33C1015.16 703.79 1015.44 704.31 1015.59 704.63L1016.32 703.71ZM1021.61 703.94L1021.43 702.83L1020.41 703.02V697.52H1019.29V703.22L1016.32 703.75L1016.5 704.86L1019.29 704.36V706.86H1020.41V704.16L1021.61 703.94ZM1031.66 698.7C1031.49 698.35 1031.12 697.72 1030.85 697.34L1030.06 697.67C1030.34 698.04 1030.66 698.63 1030.87 699.05L1031.66 698.7ZM1024.94 698.05C1024.95 698.67 1024.87 699.39 1024.73 700.15C1024.23 700.19 1023.76 700.22 1023.45 700.23C1023.09 700.24 1022.76 700.26 1022.4 700.23L1022.51 701.57C1022.82 701.52 1023.33 701.45 1023.61 701.42C1023.8 701.39 1024.11 701.35 1024.46 701.31C1024.11 702.66 1023.43 704.64 1022.47 705.94L1023.76 706.46C1024.67 705 1025.39 702.67 1025.78 701.17C1026.06 701.15 1026.3 701.13 1026.46 701.13C1027.08 701.13 1027.42 701.24 1027.42 702.03C1027.42 703.01 1027.29 704.19 1027.02 704.74C1026.86 705.07 1026.61 705.17 1026.28 705.17C1026.02 705.17 1025.44 705.07 1025.06 704.96L1025.28 706.27C1025.61 706.35 1026.09 706.41 1026.46 706.41C1027.22 706.41 1027.76 706.19 1028.09 705.5C1028.51 704.64 1028.65 703.06 1028.65 701.89C1028.65 700.47 1027.91 700 1026.86 700C1026.66 700 1026.36 700.02 1026.03 700.04C1026.1 699.68 1026.18 699.32 1026.24 699.02C1026.29 698.77 1026.35 698.46 1026.41 698.2L1024.94 698.05ZM1030.47 699.16C1030.27 698.79 1029.92 698.16 1029.67 697.79L1028.88 698.12C1029.11 698.44 1029.36 698.92 1029.56 699.3L1028.64 699.69C1029.35 700.57 1030.05 702.32 1030.31 703.42L1031.57 702.83C1031.28 701.96 1030.54 700.29 1029.96 699.38L1030.47 699.16ZM1038.03 699.22C1037.46 698.78 1036.45 698.04 1035.64 697.52L1034.87 698.39C1035.65 698.93 1036.67 699.71 1037.25 700.19L1038.03 699.22ZM1033.16 700.23C1032.98 701.4 1032.6 702.67 1032.11 703.53L1033.26 703.96C1033.76 703.1 1034.08 701.7 1034.29 700.52L1033.16 700.23ZM1036.61 705.57C1036.1 705.57 1036.02 705.5 1036.02 704.99V704.38C1038.03 702.74 1039.6 700.68 1040.69 698.59L1039.49 698.12C1038.73 699.72 1037.53 701.38 1036.02 702.8V699.78H1034.75V703.87C1033.94 704.49 1033.06 705.03 1032.13 705.45C1032.37 705.68 1032.73 706.12 1032.91 706.39C1033.55 706.08 1034.18 705.72 1034.76 705.32C1034.83 706.42 1035.25 706.76 1036.48 706.76H1038.23C1039.46 706.76 1039.81 706.17 1039.97 704.37C1039.62 704.29 1039.09 704.08 1038.8 703.87C1038.72 705.28 1038.64 705.57 1038.13 705.57H1036.61ZM1039.02 701.41C1039.61 702.35 1040.23 703.63 1040.46 704.46L1041.6 703.88C1041.35 703.06 1040.72 701.84 1040.09 700.9L1039.02 701.41ZM1045.75 703.88H1048.19C1047.95 704.25 1047.64 704.56 1047.27 704.81C1046.66 704.65 1046.03 704.5 1045.41 704.37L1045.75 703.88ZM1044.06 700.42H1045.11V701.35H1044.06V700.42ZM1046.23 698.91H1047.36V699.48H1046.23V698.91ZM1049.68 700.42V701.35H1048.48V700.42H1049.68ZM1046.23 701.35V700.42H1047.36V701.35H1046.23ZM1051.43 703.88V702.92H1046.38C1046.52 702.7 1046.66 702.49 1046.78 702.28H1050.87V699.48H1048.48V698.91H1051.19V697.88H1042.48V698.91H1045.11V699.48H1042.94V702.28H1045.42C1045.29 702.49 1045.16 702.7 1045.02 702.92H1042.3V703.88H1044.38C1044.08 704.31 1043.79 704.7 1043.54 705.02L1044.69 705.38L1044.8 705.23C1045.13 705.3 1045.45 705.38 1045.77 705.46C1044.88 705.69 1043.8 705.81 1042.48 705.86C1042.66 706.12 1042.85 706.54 1042.93 706.88C1044.87 706.73 1046.35 706.47 1047.47 705.92C1048.6 706.25 1049.61 706.6 1050.37 706.91L1051.1 705.94C1050.42 705.7 1049.55 705.43 1048.58 705.16C1048.95 704.81 1049.26 704.39 1049.51 703.88H1051.43ZM1056.34 699.02L1056.35 700.3C1057.59 700.41 1059.38 700.41 1060.6 700.3V699.02C1059.53 699.15 1057.56 699.19 1056.34 699.02ZM1056 703.15C1055.9 703.61 1055.83 704.03 1055.83 704.44C1055.83 705.45 1056.64 706.07 1058.35 706.07C1059.47 706.07 1060.27 705.99 1060.91 705.87L1060.88 704.53C1060.02 704.71 1059.29 704.79 1058.4 704.79C1057.4 704.79 1057.02 704.53 1057.02 704.09C1057.02 703.82 1057.06 703.58 1057.14 703.26L1056 703.15ZM1053.43 698.25C1053.43 698.56 1053.37 698.94 1053.33 699.22C1053.22 699.98 1052.92 701.65 1052.92 703.14C1052.92 704.48 1053.11 705.69 1053.31 706.38L1054.45 706.3C1054.44 706.16 1054.44 706 1054.43 705.89C1054.43 705.79 1054.46 705.57 1054.49 705.43C1054.59 704.9 1054.92 703.83 1055.2 703L1054.58 702.52C1054.44 702.84 1054.28 703.17 1054.14 703.52C1054.11 703.31 1054.1 703.07 1054.1 702.88C1054.1 701.89 1054.44 699.91 1054.58 699.25C1054.62 699.07 1054.74 698.57 1054.82 698.37L1053.43 698.25ZM1071.3 700.54C1070.8 700.18 1069.57 699.51 1068.86 699.2L1068.22 700.18C1068.9 700.48 1070.03 701.13 1070.6 701.59L1071.3 700.54ZM1067.57 699.02C1067.18 699.14 1066.72 699.25 1066.24 699.33C1066.38 698.8 1066.5 698.3 1066.58 697.98L1065.21 697.84C1065.19 698.35 1065.08 698.95 1064.94 699.5C1064.64 699.52 1064.34 699.53 1064.05 699.53C1063.69 699.53 1063.16 699.51 1062.73 699.46L1062.82 700.62C1063.25 700.64 1063.65 700.65 1064.06 700.65C1064.23 700.65 1064.4 700.65 1064.57 700.64C1064.13 701.71 1063.35 703.17 1062.55 704.14L1063.76 704.75C1064.56 703.62 1065.41 701.9 1065.88 700.51C1066.54 700.42 1067.15 700.29 1067.6 700.17L1067.57 699.02ZM1067.81 704.53C1067.81 705.06 1067.59 705.45 1066.92 705.45C1066.38 705.45 1066.07 705.2 1066.07 704.83C1066.07 704.48 1066.44 704.24 1067.01 704.24C1067.29 704.24 1067.55 704.28 1067.81 704.34V704.53ZM1067.65 701.06C1067.68 701.66 1067.73 702.53 1067.76 703.27C1067.55 703.25 1067.32 703.23 1067.09 703.23C1065.71 703.23 1064.9 703.98 1064.9 704.95C1064.9 706.04 1065.87 706.59 1067.1 706.59C1068.51 706.59 1069.01 705.87 1069.01 704.95V704.86C1069.55 705.19 1070 705.59 1070.35 705.91L1071.01 704.85C1070.51 704.4 1069.81 703.9 1068.96 703.58C1068.93 703.09 1068.91 702.61 1068.9 702.33C1068.89 701.89 1068.87 701.48 1068.9 701.06H1067.65ZM1074.13 697.94C1074.12 698.22 1074.1 698.62 1074.05 698.98C1073.9 700 1073.77 701.23 1073.77 702.15C1073.77 702.81 1073.84 703.42 1073.89 703.8L1075.12 703.72C1075.06 703.26 1075.06 702.94 1075.07 702.67C1075.12 701.37 1076.14 699.61 1077.31 699.61C1078.13 699.61 1078.64 700.46 1078.64 701.99C1078.64 704.39 1077.1 705.11 1074.9 705.45L1075.65 706.6C1078.27 706.12 1079.99 704.78 1079.99 701.98C1079.99 699.8 1078.92 698.45 1077.54 698.45C1076.42 698.45 1075.56 699.29 1075.09 700.05C1075.15 699.5 1075.35 698.49 1075.49 698L1074.13 697.94ZM1086.63 704.69C1086.63 705.26 1086.29 705.42 1085.76 705.42C1085.08 705.42 1084.73 705.18 1084.73 704.81C1084.73 704.47 1085.11 704.2 1085.81 704.2C1086.09 704.2 1086.36 704.23 1086.62 704.27C1086.63 704.44 1086.63 704.58 1086.63 704.69ZM1090.59 704.94C1090.02 704.46 1089.07 703.8 1087.82 703.44C1087.79 703.06 1087.77 702.66 1087.75 702.29C1088.71 702.26 1089.48 702.19 1090.37 702.09V700.92C1089.56 701.02 1088.73 701.11 1087.73 701.15L1087.74 700.12C1088.69 700.07 1089.49 699.99 1090.14 699.93L1090.11 698.79C1089.25 698.92 1088.52 699 1087.75 699.03L1087.76 698.64C1087.77 698.39 1087.8 698.14 1087.83 697.94H1086.48C1086.52 698.13 1086.53 698.44 1086.53 698.62V699.07H1086.04C1085.43 699.07 1084.51 699 1083.89 698.88L1083.9 700.01C1084.47 700.1 1085.42 700.16 1086.05 700.16H1086.52V701.19H1086.05C1085.52 701.19 1084.23 701.12 1083.66 701.01L1083.65 702.18C1084.31 702.26 1085.45 702.31 1086.03 702.31H1086.54C1086.55 702.6 1086.56 702.91 1086.58 703.21C1086.38 703.19 1086.18 703.18 1085.97 703.18C1084.44 703.18 1083.52 703.88 1083.52 704.88C1083.52 705.93 1084.36 706.53 1085.94 706.53C1087.25 706.53 1087.89 705.88 1087.89 705.03C1087.89 704.93 1087.89 704.81 1087.88 704.68C1088.67 705.04 1089.35 705.55 1089.88 706.05L1090.59 704.94ZM1095.89 702.71C1095.89 702.19 1096.27 701.93 1096.65 701.93C1096.93 701.93 1097.16 702.04 1097.3 702.28C1097.43 703.14 1097.06 703.45 1096.65 703.45C1096.26 703.45 1095.89 703.17 1095.89 702.71ZM1101.17 699.12C1100.65 699.11 1099.3 699.12 1098.3 699.12C1098.3 699 1098.31 698.9 1098.31 698.82C1098.32 698.66 1098.35 698.13 1098.38 697.97H1096.94C1096.98 698.13 1097.01 698.51 1097.03 698.83C1097.04 698.9 1097.04 699.01 1097.04 699.13C1095.71 699.15 1093.91 699.2 1092.78 699.2L1092.81 700.4C1094.03 700.33 1095.56 700.27 1097.06 700.25L1097.07 700.91C1096.95 700.89 1096.82 700.88 1096.68 700.88C1095.6 700.88 1094.7 701.61 1094.7 702.73C1094.7 703.94 1095.64 704.55 1096.41 704.55C1096.57 704.55 1096.72 704.53 1096.86 704.5C1096.31 705.09 1095.44 705.42 1094.44 705.63L1095.49 706.69C1097.91 706.01 1098.67 704.37 1098.67 703.08C1098.67 702.56 1098.55 702.08 1098.3 701.71C1098.3 701.28 1098.3 700.74 1098.29 700.24C1099.63 700.24 1100.56 700.26 1101.16 700.29L1101.17 699.12Z" fill="#616161"/>
<path d="M827.16 664.34C826.78 663.6 826.24 662.74 825.74 662L824.08 662.68C824.6 663.4 825.08 664.24 825.48 665.04L827.16 664.34ZM815.48 672.7C815.48 671.66 816.26 671.14 817 671.14C817.54 671.14 818.02 671.36 818.3 671.82C818.56 673.56 817.84 674.2 817.02 674.2C816.22 674.2 815.48 673.62 815.48 672.7ZM824.46 664.92C824.1 664.2 823.56 663.28 823.06 662.58L821.42 663.26C821.9 663.96 822.32 664.74 822.72 665.52H820.3C820.3 665.28 820.32 665.08 820.32 664.92C820.34 664.6 820.4 663.54 820.46 663.22H817.58C817.66 663.56 817.72 664.3 817.78 664.94C817.78 665.1 817.8 665.3 817.8 665.54C815.12 665.58 811.54 665.68 809.26 665.68L809.32 668.08C811.76 667.94 814.84 667.82 817.84 667.78L817.86 669.1C817.6 669.06 817.34 669.04 817.06 669.04C814.9 669.04 813.1 670.5 813.1 672.76C813.1 675.16 815 676.38 816.52 676.38C816.84 676.38 817.14 676.34 817.42 676.28C816.34 677.46 814.58 678.12 812.58 678.54L814.7 680.66C819.52 679.3 821.04 676.04 821.04 673.44C821.04 672.4 820.8 671.44 820.3 670.7C820.3 669.84 820.3 668.76 820.28 667.76C822.96 667.76 824.82 667.82 826.02 667.88L826.04 665.52C825.46 665.5 824.32 665.52 823.08 665.52L824.46 664.92Z" fill="white"/>
<path d="M1015.74 670.5L1016.76 673.1C1018.46 672.38 1022.4 670.74 1024.7 670.74C1026.42 670.74 1027.54 671.78 1027.54 673.26C1027.54 675.96 1024.18 677.14 1019.68 677.26L1020.72 679.72C1027.02 679.34 1030.16 676.88 1030.16 673.3C1030.16 670.3 1028.06 668.44 1024.94 668.44C1022.54 668.44 1019.18 669.58 1017.84 669.98C1017.24 670.18 1016.32 670.4 1015.74 670.5ZM1047.62 665.06C1047.12 665.48 1046.54 665.82 1045.8 666.26C1044.86 666.78 1043.14 667.66 1041.52 668.6C1040.72 667.08 1039.8 665.18 1039.04 663.12L1036.54 664.14C1037.44 666.24 1038.4 668.34 1039.32 670.04C1037.42 671.44 1036.04 673.06 1036.04 675.26C1036.04 678.66 1039.02 679.76 1042.96 679.76C1045.54 679.76 1047.64 679.56 1049.32 679.28L1049.36 676.42C1047.6 676.82 1044.92 677.14 1042.88 677.14C1040.14 677.14 1038.76 676.38 1038.76 674.96C1038.76 673.58 1039.86 672.44 1041.52 671.36C1043.32 670.2 1045.8 669.04 1047.04 668.42C1047.76 668.06 1048.4 667.72 1049 667.36L1047.62 665.06ZM1059.24 678.54C1058.22 677.3 1056.3 675.32 1054.88 674.16L1052.8 675.96C1054.2 677.16 1055.88 678.88 1057.1 680.38L1059.24 678.54ZM1086.22 668.8H1084.7V666.24H1086.22V668.8ZM1086.22 673.46H1084.7V670.92H1086.22V673.46ZM1077.82 670.92H1079.26V673.46H1077.82V670.92ZM1082.72 670.92V673.46H1081.24V670.92H1082.72ZM1081.24 668.8V666.24H1082.72V668.8H1081.24ZM1077.82 666.24H1079.26V668.8H1077.82V666.24ZM1075.72 668.8H1073.04V670.92H1075.72V673.46H1073.34V675.58H1090.72V673.46H1088.4V670.92H1091V668.8H1088.4V666.24H1090.28V664.14H1078.28C1078.58 663.68 1078.84 663.22 1079.06 662.74L1076.74 662.06C1075.86 663.92 1074.28 665.74 1072.6 666.84C1073.14 667.22 1074.1 667.98 1074.54 668.4C1074.94 668.1 1075.32 667.74 1075.72 667.36V668.8ZM1075.1 680.76C1076.08 679.72 1076.94 678.08 1077.38 676.56L1075.08 676C1074.62 677.46 1073.72 679 1072.84 679.84L1075.1 680.76ZM1078.66 676.7C1078.88 677.92 1079.04 679.56 1079.04 680.52L1081.36 680.18C1081.34 679.24 1081.12 677.66 1080.88 676.44L1078.66 676.7ZM1082.62 676.74C1083.06 677.96 1083.52 679.58 1083.64 680.54L1086.02 680.08C1085.84 679.1 1085.34 677.54 1084.86 676.36L1082.62 676.74ZM1086.58 676.64C1087.46 677.92 1088.52 679.68 1088.94 680.74L1091.38 679.92C1090.88 678.82 1089.76 677.14 1088.86 675.92L1086.58 676.64ZM1106.38 665.56C1105.74 664.82 1104.32 663.8 1103.2 663.14L1102.06 664.74C1103.16 665.48 1104.54 666.56 1105.16 667.34L1106.38 665.56ZM1101.14 669.78C1102.3 670.46 1103.76 671.54 1104.42 672.26L1105.62 670.36C1104.9 669.66 1103.42 668.68 1102.26 668.06L1101.14 669.78ZM1099.34 663.16C1099.12 664.56 1098.66 666.58 1098.24 667.84L1099.74 668.26C1100.24 667.1 1100.82 665.2 1101.34 663.6L1099.34 663.16ZM1095.46 667.84C1095.36 666.6 1094.96 664.7 1094.44 663.26L1092.78 663.7C1093.24 665.14 1093.64 667.08 1093.68 668.3L1095.46 667.84ZM1100.92 674.42C1100.5 673.86 1098.6 671.62 1098.02 671.04V670.9H1100.98V668.68H1098.02V662.14H1095.82V668.68H1092.8V670.9H1095.08C1094.46 672.72 1093.44 674.86 1092.44 676.08C1092.8 676.74 1093.32 677.82 1093.52 678.54C1094.38 677.34 1095.18 675.48 1095.82 673.62V680.68H1098.02V673.66C1098.6 674.58 1099.16 675.62 1099.46 676.26L1100.92 674.42ZM1111.5 674.88L1111.14 672.66L1109.1 673.04V662.04H1106.86V673.44L1100.92 674.5L1101.28 676.72L1106.86 675.72V680.72H1109.1V675.32L1111.5 674.88Z" fill="white"/>
<path d="M949 548.92C948.78 548.7 948.24 548.16 947.64 547.6C948.18 547.04 948.8 546.32 949.5 545.64L947.98 544.38C947.64 545 947.06 545.92 946.54 546.6C946.34 546.42 946.16 546.26 946 546.12C947 544.64 947.86 543.02 948.46 541.38L947.12 540.5L946.74 540.6H945.88V537.08H943.54V540.6H940.96V542.74H945.52C944.3 545.12 942.36 547.46 940.4 548.82C940.78 549.24 941.4 550.4 941.62 550.98C942.26 550.48 942.9 549.9 943.54 549.22V555.74H945.88V548.56C946.54 549.32 947.2 550.16 947.58 550.74L949 548.92ZM948.28 538.6V540.84H951.16C951.06 545.94 950.76 551 946.66 553.88C947.28 554.34 948.02 555.12 948.42 555.76C952.88 552.38 953.42 546.62 953.58 540.84H956.48C956.34 549.02 956.12 552.24 955.56 552.9C955.34 553.2 955.14 553.28 954.82 553.28C954.34 553.28 953.4 553.28 952.36 553.2C952.78 553.9 953.06 554.96 953.1 555.66C954.18 555.68 955.28 555.7 956 555.56C956.76 555.42 957.26 555.16 957.8 554.36C958.56 553.28 958.74 549.8 958.92 539.8C958.94 539.48 958.94 538.6 958.94 538.6H948.28ZM964.6 547.56H967.08V548.92H964.6V547.56ZM967.08 541.5V542.66H964.6V541.5H967.08ZM964.6 544.48H967.08V545.74H964.6V544.48ZM970.48 548.92H969.26V541.5H970.62V539.42H969.26V537.3H967.08V539.42H964.6V537.3H962.46V539.42H960.9V541.5H962.46V548.92H960.66V551H970.48V548.92ZM963.14 551.14C962.58 552.34 961.54 553.6 960.5 554.38C961.04 554.7 961.96 555.38 962.4 555.8C963.48 554.82 964.66 553.26 965.36 551.8L963.14 551.14ZM973.5 547C973.52 546.38 973.52 545.8 973.52 545.28V544.54H976.4V547H973.5ZM976.4 540.1V542.44H973.52V540.1H976.4ZM978.7 537.94H971.3V545.28C971.3 547.88 971.2 551.26 970.04 553.76C969.54 552.94 968.6 551.84 967.88 551.04L966.08 552.02C966.86 552.94 967.82 554.26 968.22 555.04L969.88 554.1C969.82 554.22 969.74 554.32 969.68 554.44C970.2 554.64 971.18 555.36 971.56 555.78C972.64 553.98 973.14 551.48 973.36 549.12H976.4V553.06C976.4 553.38 976.3 553.48 976 553.48C975.72 553.48 974.76 553.5 973.9 553.44C974.2 554.04 974.5 555.08 974.58 555.7C976.06 555.72 977.08 555.66 977.78 555.28C978.48 554.9 978.7 554.28 978.7 553.1V537.94ZM985.8 550.52H994.4V551.34H985.8V550.52ZM991.08 543.7V545.02H987.44C987.88 544.62 988.2 544.18 988.42 543.7H991.08ZM984.66 541.52H986.68C986.68 541.8 986.64 542.06 986.56 542.3H984.38L984.66 541.52ZM988.86 539.34H991.08V540.14H988.86V539.34ZM995.42 539.34V540.14H993.34V539.34H995.42ZM991.08 542.3H988.8C988.82 542.04 988.84 541.78 988.86 541.52H991.08V542.3ZM996.54 543.7C996.5 544 996.44 544.18 996.36 544.28C996.24 544.42 996.12 544.42 995.94 544.42C995.72 544.44 995.3 544.42 994.84 544.36C994.92 544.54 995.02 544.78 995.08 545.02H993.34V543.7H996.54ZM994.4 547.16H985.8V546.38H994.4V547.16ZM994.4 549.24H985.8V548.44H994.4V549.24ZM996.82 552.7V545.8C996.94 545.8 997.04 545.78 997.12 545.78C997.54 545.76 997.98 545.6 998.28 545.3C998.62 544.94 998.74 544.22 998.84 542.92C998.86 542.7 998.88 542.3 998.88 542.3H993.34V541.52H997.58V537.94H993.34V537.08H991.08V537.94H988.86V537.08H986.7V537.94H982.16V539.34H986.7V540.14H982.9C982.56 541.32 982.08 542.76 981.64 543.74L983.8 543.88L983.88 543.7H985.62C984.8 544.36 983.36 544.86 980.88 545.18C981.24 545.62 981.8 546.52 982 547.02C982.54 546.94 983.02 546.86 983.48 546.76V552.7H986.2C984.8 553.28 982.76 553.78 980.9 554.1C981.4 554.5 982.24 555.34 982.62 555.8C984.66 555.3 987.2 554.4 988.86 553.42L987.28 552.7H992.62L991.1 553.64C993.18 554.32 995.26 555.16 996.44 555.76L999.08 554.62C997.82 554.08 995.72 553.32 993.8 552.7H996.82ZM1011.4 547.66V545.2H1015.62V547.66H1011.4ZM1005.18 547.66C1005.22 546.92 1005.24 546.2 1005.24 545.56V545.2H1009V547.66H1005.18ZM1009 540.66V542.98H1005.24V540.66H1009ZM1015.62 542.98H1011.4V540.66H1015.62V542.98ZM1017.98 538.4H1002.88V545.54C1002.88 548.34 1002.7 551.9 1000.52 554.3C1001.06 554.58 1002.02 555.4 1002.4 555.84C1003.84 554.28 1004.56 552.08 1004.92 549.9H1009V555.48H1011.4V549.9H1015.62V552.9C1015.62 553.26 1015.48 553.38 1015.1 553.38C1014.74 553.38 1013.42 553.4 1012.3 553.34C1012.6 553.96 1012.98 554.98 1013.06 555.62C1014.86 555.64 1016.08 555.6 1016.9 555.2C1017.7 554.84 1017.98 554.2 1017.98 552.92V538.4Z" fill="#616161"/>
<path d="M924 594.781C924 612.007 920.443 625.184 913.329 634.31C906.215 643.437 895.801 648 882.085 648C868.541 648 858.183 643.522 851.012 634.567C843.841 625.611 840.171 612.777 840 596.064V573.134C840 555.736 843.585 542.531 850.756 533.519C857.984 524.506 868.37 520 881.915 520C895.459 520 905.817 524.478 912.988 533.433C920.159 542.332 923.829 555.137 924 571.85V594.781ZM899.329 569.626C899.329 559.301 897.907 551.8 895.061 547.123C892.272 542.389 887.89 540.021 881.915 540.021C876.11 540.021 871.813 542.275 869.024 546.781C866.293 551.23 864.841 558.217 864.671 567.743V598.032C864.671 608.185 866.037 615.743 868.768 620.706C871.557 625.611 875.996 628.064 882.085 628.064C888.118 628.064 892.472 625.697 895.146 620.963C897.821 616.228 899.215 608.984 899.329 599.23V569.626Z" fill="white"/>
<path d="M836 671H988" stroke="white" stroke-width="3" stroke-linecap="round" stroke-dasharray="4 8"/>
<path d="M997.514 665.909C996.848 665.509 996 665.989 996 666.766V675.234C996 676.011 996.848 676.491 997.514 676.091L1004.57 671.857C1005.22 671.469 1005.22 670.531 1004.57 670.143L997.514 665.909Z" fill="white"/>
</svg>
