<?xml version="1.0" encoding="utf-8"?>
<!-- Generator: Adobe Illustrator 26.5.0, SVG Export Plug-In . SVG Version: 6.00 Build 0)  -->
<svg version="1.1" id="レイヤー_1" xmlns="http://www.w3.org/2000/svg" xmlns:xlink="http://www.w3.org/1999/xlink" x="0px"
	 y="0px" viewBox="0 0 159 159" style="enable-background:new 0 0 159 159;" xml:space="preserve">
<style type="text/css">
	.st0{fill-rule:evenodd;clip-rule:evenodd;}
</style>
<path d="M68.8,141.6h-21c-0.6,0-1-0.4-1-1v-20.9c0-0.6,0.4-1,1-1s1,0.4,1,1v19.9h20c0.6,0,1,0.4,1,1S69.4,141.6,68.8,141.6z"/>
<path d="M111.2,141.6H90.4c-0.6,0-1-0.4-1-1s0.4-1,1-1h19.8v-19.9c0-0.6,0.4-1,1-1s1,0.4,1,1v20.9
	C112.2,141.2,111.7,141.6,111.2,141.6z"/>
<path d="M77.9,135.2c-0.3,0-0.5-0.1-0.7-0.3c-0.4-0.4-0.4-1,0-1.4l5.4-5.1c0.4-0.4,1-0.4,1.4,0c0.4,0.4,0.4,1,0,1.4l-5.4,5.1
	C78.4,135.1,78.1,135.2,77.9,135.2z"/>
<path d="M69,76.2c-0.1,0-0.3,0-0.4-0.1c-0.3-0.1-0.5-0.4-0.6-0.7l-2.7-10.6c-0.1-0.5,0.2-1.1,0.7-1.2c0.5-0.1,1.1,0.2,1.2,0.7
	l2.3,9.3l6.7-3.9c0.5-0.3,1.1-0.1,1.4,0.4c0.3,0.5,0.1,1.1-0.4,1.3l-7.9,4.6C69.4,76.2,69.2,76.2,69,76.2z"/>
<path d="M90,76.2c-0.2,0-0.4,0-0.5-0.1l-7.9-4.6c-0.5-0.3-0.6-0.9-0.4-1.3c0.3-0.5,0.9-0.6,1.4-0.4l6.7,3.9l2.3-9.3
	c0.1-0.5,0.7-0.9,1.2-0.7c0.5,0.1,0.9,0.7,0.7,1.2L91,75.5c-0.1,0.3-0.3,0.6-0.6,0.7C90.3,76.2,90.1,76.2,90,76.2z"/>
<path d="M79.5,71.6c-5.5,0-14.5-5-20-13.2c-0.5,0.2-1,0.3-1.6,0.3c-2.9,0-5.3-2.4-5.3-5.3c0-2.1,1.2-3.9,3-4.7
	c-0.1-1-0.2-1.9-0.2-2.9c0-14.3,10.8-25.9,24.1-25.9c13.3,0,24.1,11.6,24.1,25.9c0,0.9-0.1,1.9-0.2,2.9c1.8,0.9,3,2.7,3,4.7
	c0,2.9-2.4,5.3-5.3,5.3c-0.5,0-1.1-0.1-1.6-0.3C94.1,66.6,85,71.6,79.5,71.6z M59.9,56.1c0.3,0,0.7,0.2,0.8,0.5
	c4.8,7.8,13.6,13,18.7,13c5.2,0,13.9-5.2,18.7-13c0.3-0.4,0.8-0.6,1.3-0.4c0.5,0.3,1,0.4,1.5,0.4c1.8,0,3.3-1.5,3.3-3.3
	c0-1.5-1-2.7-2.4-3.2c-0.5-0.1-0.8-0.6-0.7-1.1c0.2-1.1,0.3-2.3,0.3-3.3c0-13.2-9.9-23.9-22.1-23.9c-12.2,0-22.1,10.7-22.1,23.9
	c0,1.1,0.1,2.2,0.3,3.3c0.1,0.5-0.2,1-0.7,1.1c-1.4,0.4-2.4,1.7-2.4,3.2c0,1.8,1.5,3.3,3.3,3.3c0.5,0,1-0.1,1.5-0.4
	C59.6,56.2,59.8,56.1,59.9,56.1z"/>
<path d="M91.3,53.2c-2.3,0-4.5-0.4-6.7-1.1c-8.7-3-14.1-10-14.3-10.3c-0.3-0.4-0.2-1.1,0.2-1.4c0.4-0.3,1.1-0.2,1.4,0.2
	c0.1,0.1,5.3,6.9,13.4,9.7c5,1.7,10.6,1.2,15.5-1.4l0.9-0.5c0.5-0.3,1.1-0.1,1.3,0.4c0.3,0.5,0.1,1.1-0.4,1.3l-0.9,0.5
	C98.5,52.3,94.9,53.2,91.3,53.2z"/>
<path d="M60.6,51c-1.3,0-2.8-0.2-4.2-0.8c-0.5-0.2-0.8-0.8-0.6-1.3c0.2-0.5,0.8-0.8,1.3-0.6c8,3.2,14.6-5.9,14.7-6
	c0.3-0.4,0.9-0.6,1.4-0.2c0.4,0.3,0.6,0.9,0.2,1.4C73.4,43.5,68,51,60.6,51z"/>
<path d="M72.4,58.2c-2.3,0-4.1-1.2-4.1-1.3c-0.4-0.3-0.6-0.9-0.2-1.4c0.3-0.4,0.9-0.5,1.4-0.2c0,0,1.3,0.9,3,0.9c1.7,0,3-0.9,3-0.9
	c0.4-0.3,1.1-0.2,1.4,0.2c0.3,0.4,0.2,1.1-0.2,1.4C76.4,57,74.7,58.2,72.4,58.2z"/>
<path d="M86.6,58.2c-2.3,0-4.1-1.2-4.1-1.3c-0.4-0.3-0.6-0.9-0.2-1.4c0.3-0.4,0.9-0.6,1.4-0.2c0,0,1.3,0.9,3,0.9c1.7,0,3-0.9,3-0.9
	c0.4-0.3,1.1-0.2,1.4,0.2c0.3,0.4,0.2,1.1-0.2,1.4C90.7,57,88.9,58.2,86.6,58.2z"/>
<path d="M66.4,138.6c-0.3,0-0.5-0.1-0.7-0.3l-5.8-6.1c-5.7-1.1-21.3-22.5-22.6-25.2c-1.1-2.2,0.3-12.1,1.7-20
	c1.4-7.8,3.3-17.4,4.2-19.1c0.9-1.8,7.1-4.9,18.4-9c0.5-0.2,1.1,0.1,1.3,0.6c0.2,0.5-0.1,1.1-0.6,1.3c-11.2,4.1-16.7,7-17.3,8
	c-1.4,2.7-7.3,34.3-5.9,37.3c0.8,1.7,5.3,7.9,10.1,13.6c7,8.3,10.3,10.6,11.1,10.6c0,0,0.1,0,0.1,0c0.3,0,0.5,0.1,0.7,0.3l5.4,5.7
	l7.9-7.3l-4.8-5.6c-0.2-0.2-0.3-0.5-0.2-0.8c0,0,0,0,0,0c0,0-0.1-0.6-0.8-1.8c-0.5-0.9-8.4-10.9-13.5-17.4c-0.2-0.2-0.2-0.5-0.2-0.8
	l2.5-18.8c0.1-0.5,0.6-0.9,1.1-0.9c0.5,0.1,0.9,0.6,0.9,1.1l-2.5,18.3c2.2,2.7,12.7,16.1,13.5,17.4c0.7,1.2,0.9,2,1,2.5l5.2,6.1
	c0.4,0.4,0.3,1-0.1,1.4l-9.4,8.6C66.9,138.5,66.6,138.6,66.4,138.6z"/>
<path d="M60.3,132.2c-0.3,0-0.6-0.1-0.8-0.3c-0.4-0.4-0.3-1.1,0.1-1.4l10-8.6c0.4-0.4,1.1-0.3,1.4,0.1c0.4,0.4,0.3,1.1-0.1,1.4
	L61,132C60.8,132.2,60.6,132.2,60.3,132.2z"/>
<path d="M92.6,138.6c-0.2,0-0.5-0.1-0.7-0.3l-9.4-8.6c-0.4-0.4-0.4-1-0.1-1.4l5.2-6.1c0.1-0.5,0.3-1.3,1-2.5
	c0.7-1.3,11.3-14.7,13.5-17.4L99.7,84c-0.1-0.5,0.3-1.1,0.9-1.1c0.6-0.1,1.1,0.3,1.1,0.9l2.5,18.8c0,0.3,0,0.6-0.2,0.8
	c0,0,0,0.1-0.1,0.1c-5.2,6.5-12.9,16.4-13.5,17.3c-0.7,1.3-0.8,1.9-0.8,1.9c0.1,0.3,0,0.5-0.2,0.7l-4.8,5.6l7.9,7.3l5.4-5.7
	c0.2-0.2,0.5-0.3,0.8-0.3c0,0,0,0,0,0c0.9,0,4.2-2.2,11.1-10.6c4.8-5.7,9.2-11.9,10.1-13.6c1.5-3-4.5-34.6-5.9-37.3
	c-0.5-1-6-3.9-17.2-8c-0.5-0.2-0.8-0.8-0.6-1.3c0.2-0.5,0.8-0.8,1.3-0.6c11.3,4.1,17.4,7.2,18.3,9c1.3,2.5,7.9,34.8,5.9,39.1
	c-1.3,2.8-17,24.2-22.6,25.2l-5.8,6.1C93.1,138.5,92.9,138.6,92.6,138.6z"/>
<path d="M98.7,132.2c-0.2,0-0.5-0.1-0.7-0.2l-10-8.6c-0.4-0.4-0.5-1-0.1-1.4c0.4-0.4,1-0.5,1.4-0.1l10,8.6c0.4,0.4,0.5,1,0.1,1.4
	C99.2,132.1,99,132.2,98.7,132.2z"/>
<path class="st0" d="M75.7,132.1c0.4-0.4,1-0.4,1.4,0l3.2,3c0.4,0.4,0.4,1,0,1.4c-0.4,0.4-1,0.4-1.4,0l-3.2-3
	C75.3,133.1,75.3,132.5,75.7,132.1z"/>
<path class="st0" d="M66,136.8c0.5-0.3,1.1-0.2,1.4,0.2c1.3,1.8,3,4,4.7,5.9c0.4,0.4,0.3,1.1-0.1,1.4s-1.1,0.3-1.4-0.1
	c-1.7-2-3.5-4.2-4.8-6.1C65.4,137.7,65.5,137.1,66,136.8z"/>
<path class="st0" d="M83.5,132.1c0.4,0.4,0.4,1,0,1.4L72,144.3c-0.2,0.2-0.2,0.5,0,0.7c0.2,0.2,0.5,0.2,0.7,0l0,0l0,0l4.5-4.2
	c0.4-0.4,1-0.4,1.4,0c0.4,0.4,0.4,1,0,1.4l-4.5,4.2c-1,1-2.6,0.9-3.5-0.1c-1-1-0.9-2.6,0.1-3.5l0,0l0,0L82,132.1
	C82.4,131.7,83.1,131.7,83.5,132.1z"/>
<path class="st0" d="M78.5,140.8c0.4,0.4,0.4,1,0,1.4l-5.3,5c-0.2,0.2-0.2,0.5,0,0.7c0.2,0.2,0.5,0.2,0.7,0l0,0l0,0l5.3-5
	c0.4-0.4,1-0.4,1.4,0c0.4,0.4,0.4,1,0,1.4l-5.3,5c-1,1-2.6,0.9-3.5-0.1c-1-1-0.9-2.6,0.1-3.5l0,0l0,0l5.3-5
	C77.5,140.4,78.2,140.4,78.5,140.8z"/>
<path class="st0" d="M80.6,142.9c0.4,0.4,0.4,1,0,1.4l-4.6,4.3c-0.2,0.2-0.2,0.5,0,0.7c0.2,0.2,0.5,0.2,0.7,0l0,0l0,0l4.6-4.3
	c0.4-0.4,1-0.4,1.4,0c0.4,0.4,0.4,1,0,1.4l-4.6,4.3c-1,1-2.6,0.9-3.5-0.1c-1-1-0.9-2.6,0.1-3.5l0,0h0l4.6-4.3
	C79.5,142.5,80.2,142.5,80.6,142.9z"/>
<path class="st0" d="M93.2,136.8c0.4,0.3,0.6,0.9,0.2,1.4c-2.4,3.3-6,7.6-8.2,9.8c-1.1,1.1-2,2-2.7,2.6c-0.3,0.3-0.6,0.5-0.8,0.7
	c-0.1,0.1-0.2,0.1-0.2,0.2l-0.1,0l0,0c-1,0.9-2.5,0.9-3.5-0.1c-1-1-0.9-2.6,0.1-3.5l0,0l3.4-3.2c0.4-0.4,1-0.4,1.4,0
	c0.4,0.4,0.4,1,0,1.4l-3.4,3.2c-0.2,0.2-0.2,0.5,0,0.7c0.2,0.2,0.5,0.2,0.7,0c0,0,0,0,0,0 M80.2,150L80.2,150L80.2,150L80.2,150
	c0.1-0.1,0.2-0.1,0.3-0.2c0.2-0.2,0.4-0.4,0.7-0.7c0.6-0.6,1.5-1.4,2.6-2.5c2.1-2.1,5.7-6.3,8-9.6c0.3-0.4,0.9-0.6,1.4-0.2"/>
<path class="st0" d="M75,128.3c0.4-0.4,1-0.4,1.4,0l3.8,3.6c0.4,0.4,0.4,1,0,1.4c-0.4,0.4-1,0.4-1.4,0l-3.8-3.6
	C74.7,129.4,74.7,128.7,75,128.3z"/>
<path class="st0" d="M79.5,70c0.6,0,1,0.4,1,1l0,60.9c0,0.5-0.4,1-1,1c-0.6,0-1-0.4-1-1l0-60.9C78.5,70.5,78.9,70,79.5,70z"/>
<path class="st0" d="M84.3,86.4c0-0.6,0.4-1,1-1h10.3c0.6,0,1,0.4,1,1v7.8c0,0.6-0.4,1-1,1H85.3c-0.6,0-1-0.4-1-1V86.4z M86.3,87.4
	v5.8h8.3v-5.8H86.3z"/>
</svg>
