<svg width="656" height="96" viewBox="0 0 656 96" fill="none" xmlns="http://www.w3.org/2000/svg">
<path fill-rule="evenodd" clip-rule="evenodd" d="M48 96C74.5097 96 96 74.5097 96 48C96 21.4903 74.5097 0 48 0C21.4903 0 0 21.4903 0 48C0 74.5097 21.4903 96 48 96ZM77.9754 59.2278C76.4801 59.7188 74.9686 60.1741 73.442 60.5926C75.0446 62.6325 76.0005 65.2047 76.0005 68.0001C76.0005 74.6275 70.6279 80.0001 64.0005 80.0001C57.3731 80.0001 52.0005 74.6275 52.0005 68.0001V63.9183C50.6739 63.9727 49.3404 64.0001 48.0005 64.0001C37.5331 64.0001 27.457 62.3249 18.0256 59.2278C16.9419 56.3359 16.2647 53.2453 16.0636 50.0257C25.9641 53.8833 36.7351 56.0001 48.0005 56.0001C59.2659 56.0001 70.0369 53.8833 79.9374 50.0257C79.7363 53.2453 79.0591 56.3359 77.9754 59.2278Z" fill="white"/>
<path fill-rule="evenodd" clip-rule="evenodd" d="M194.26 70.1738C187.234 76.2939 178.05 80 168 80C145.909 80 128 62.0914 128 40C128 17.9086 145.909 0 168 0C184.32 0 198.357 9.77337 204.578 23.7865C206.015 27.0254 211.068 28.1538 213.74 25.8262C220.766 19.7061 229.95 16 240 16C250.05 16 259.234 19.7061 266.26 25.8262C268.932 28.1538 273.985 27.0254 275.422 23.7864C281.643 9.77337 295.68 0 312 0C328.32 0 342.357 9.77337 348.578 23.7864C350.015 27.0254 355.068 28.1538 357.74 25.8262C364.766 19.7061 373.95 16 384 16C394.05 16 403.234 19.7061 410.26 25.8262C412.932 28.1538 417.985 27.0254 419.422 23.7864C425.643 9.77336 439.68 0 456 0C472.32 0 486.357 9.77336 492.578 23.7864C494.015 27.0254 499.068 28.1538 501.74 25.8262C508.766 19.7061 517.95 16 528 16C539.058 16 549.067 20.4869 556.308 27.7394C558.749 30.1842 563.565 29.4873 565.121 26.4032C573.026 10.7411 589.258 0 608 0C634.51 0 656 21.4903 656 48C656 74.5097 634.51 96 608 96C592.682 96 579.041 88.8251 570.252 77.6528C568.117 74.9386 563.261 75.214 561.352 78.0913C554.188 88.8846 541.925 96 528 96C511.68 96 497.643 86.2266 491.422 72.2136C489.985 68.9746 484.932 67.8462 482.26 70.1738C475.234 76.2939 466.05 80 456 80C445.95 80 436.766 76.2939 429.74 70.1738C427.068 67.8462 422.015 68.9746 420.578 72.2136C414.357 86.2266 400.32 96 384 96C367.68 96 353.643 86.2266 347.422 72.2136C345.985 68.9746 340.932 67.8462 338.26 70.1738C331.234 76.2939 322.05 80 312 80C301.95 80 292.766 76.2939 285.74 70.1738C283.068 67.8462 278.015 68.9746 276.578 72.2136C270.357 86.2266 256.32 96 240 96C223.68 96 209.643 86.2266 203.422 72.2135C201.985 68.9746 196.932 67.8462 194.26 70.1738ZM163.536 31.806C163.52 32.911 163.52 34.0077 163.52 35.08C163.52 36.0742 164.457 36.802 165.429 36.5949C168.542 35.9317 171.602 35.584 174.16 35.584C182.672 35.584 189.392 40.12 189.392 47.736C189.392 54.288 185.976 59.216 177.184 61.4C175.171 61.8376 173.193 62.07 171.382 62.2042C170.505 62.2692 169.699 61.731 169.4 60.9039L168.299 57.8652C167.827 56.5612 168.793 55.191 170.179 55.1454C171.619 55.0981 172.963 54.9973 174.16 54.792C178.64 54.008 182.224 51.712 182.224 47.68C182.224 43.928 178.864 41.744 174.048 41.744C171.132 41.744 168.093 42.1522 165.141 42.8639C164.25 43.0788 163.648 43.8986 163.674 44.8148C163.707 45.9922 163.742 47.1384 163.775 48.2103L163.775 48.2192L163.775 48.2221V48.2223V48.2224V48.2225V48.2226L163.775 48.2228C163.85 50.6402 163.912 52.6781 163.912 53.84C163.912 60.728 161.392 62.52 157.808 62.52C152.376 62.52 144.704 57.872 144.704 51.992C144.704 47.4216 149.682 42.7526 155.892 39.7419C156.635 39.3816 157.11 38.6241 157.095 37.7984C157.08 36.9669 157.08 36.1355 157.08 35.304V32.7641C157.08 31.6182 156.12 30.7187 154.974 30.7536C154.677 30.7627 154.389 30.768 154.112 30.768C152.195 30.768 150.116 30.7356 148.171 30.6215C147.153 30.5618 146.371 29.7159 146.354 28.696L146.31 26.0618C146.29 24.849 147.345 23.9008 148.554 24.0031C150.698 24.1845 152.431 24.216 153.944 24.216C154.382 24.216 154.83 24.2055 155.289 24.1889C156.332 24.1513 157.161 23.299 157.176 22.2554C157.192 21.1289 157.192 20.2003 157.192 19.568C157.192 18.9745 157.135 17.9958 157.057 17.0424C156.956 15.8106 157.925 14.696 159.161 14.696H162.182C163.374 14.696 164.306 15.7326 164.196 16.9195C164.11 17.8336 164.025 18.8023 163.968 19.512C163.945 20.0231 163.922 20.5535 163.898 21.0992C163.845 22.344 164.935 23.3324 166.164 23.1292C168.011 22.8238 169.817 22.466 171.484 22.0708C172.76 21.7684 174.023 22.6975 174.055 24.0079L174.121 26.7318C174.144 27.68 173.498 28.5165 172.569 28.7045C170.296 29.1643 167.776 29.5502 165.273 29.8801C164.296 30.0088 163.551 30.8213 163.536 31.806ZM151.592 51.768C151.592 53.448 154.168 55.016 155.624 55.016C156.632 55.016 157.416 54.512 157.416 52.608C157.416 51.7423 157.395 50.4483 157.352 48.8982C157.312 47.4397 155.757 46.535 154.591 47.4118C152.718 48.8199 151.592 50.3784 151.592 51.768ZM179.087 27.0851C178.064 26.5477 177.667 25.2685 178.237 24.2631L179.338 22.322C179.858 21.4035 181.004 21.0471 181.944 21.5285C185.365 23.2816 189.564 25.6559 192.352 27.45C193.224 28.0115 193.468 29.1584 192.942 30.0526L191.734 32.1064C191.099 33.1859 189.623 33.44 188.594 32.7258C185.94 30.8828 181.996 28.6125 179.087 27.0851ZM252.26 52.2993C250.691 52.6379 250.129 54.6141 251.121 55.8762C253.139 58.4434 254.28 61.1007 254.28 63.8481C254.28 68.4401 250.024 71.9681 242.296 71.9681C236.808 71.9681 234.008 69.4481 234.008 64.9121C234.008 64.3148 234.047 63.58 234.103 62.7425C234.172 61.6936 235.048 60.8801 236.099 60.8801H236.472C239.247 60.8801 241.912 60.7322 244.495 60.5266C245.508 60.446 246.291 59.6093 246.317 58.5934L246.382 56.052C246.413 54.8427 245.371 53.8843 244.167 53.9925C241.16 54.2626 238.015 54.4401 235.296 54.4401C235.087 54.4401 234.925 54.2583 234.949 54.0507C235.153 52.2732 235.385 50.4186 235.624 48.6103C235.755 47.6188 236.602 46.8819 237.603 46.8708C240.432 46.8395 242.685 46.7288 244.925 46.5388C245.922 46.4542 246.689 45.6306 246.723 44.6308L246.807 42.1677C246.849 40.9191 245.748 39.9346 244.505 40.0541C242.882 40.2101 241.043 40.3204 239.066 40.3851C237.828 40.4257 236.866 39.3214 237.036 38.094C237.139 37.3572 237.225 36.7315 237.312 36.2401C237.441 35.4001 237.589 34.5602 237.777 33.6128C238.017 32.4037 237.147 31.2478 235.916 31.177L232.727 30.9934C231.531 30.9246 230.547 31.9168 230.518 33.1143C230.495 34.0526 230.432 34.9314 230.368 35.7921C230.346 36.0385 230.323 36.2961 230.3 36.564C230.252 37.1106 230.201 37.7002 230.138 38.325C230.032 39.3859 229.085 40.1497 228.025 40.0337C225.607 39.7689 223.207 39.3806 221.056 38.8568C219.779 38.5459 218.474 39.4315 218.394 40.7434L218.258 42.9657C218.201 43.9091 218.811 44.7675 219.73 44.9878C222.024 45.5376 224.567 45.984 227.141 46.3102C228.262 46.4522 229.069 47.4706 228.93 48.5913C228.866 49.1107 228.803 49.6305 228.74 50.1493C228.656 50.8366 228.573 51.5221 228.488 52.2026C228.354 53.2661 227.397 54.0291 226.334 53.8988C224.185 53.6356 221.998 53.2537 219.843 52.6837C218.563 52.3452 217.244 53.2301 217.166 54.552L217.021 57.0366C216.967 57.9733 217.569 58.8261 218.482 59.045C220.599 59.5531 222.992 59.9623 225.579 60.2726C226.676 60.4041 227.478 61.3797 227.382 62.4804C227.257 63.9185 227.176 65.1525 227.176 66.0881C227.176 75.3281 233.336 79.1361 242.072 79.1361C254.224 79.1361 261.728 73.0881 261.728 64.7441C261.728 60.3753 260.279 56.6828 257.112 52.4104C256.656 51.7959 255.878 51.5185 255.13 51.6799L252.26 52.2993ZM328.281 22.682C328.26 21.4192 327.088 20.4921 325.848 20.7302C320.426 21.771 314.626 22.4326 309.454 22.7707C308.587 22.8274 307.91 22.0436 308.08 21.1921C308.183 20.7062 308.278 20.2204 308.374 19.7325L308.374 19.7307C308.483 19.1767 308.592 18.6201 308.714 18.0579C308.992 16.7727 308.078 15.4808 306.764 15.4245L303.678 15.2922C302.517 15.2425 301.57 16.19 301.532 17.3515C301.499 18.3461 301.412 19.3909 301.248 20.8001C301.235 20.9573 301.216 21.1176 301.192 21.2817C301.05 22.2867 300.147 23.03 299.133 22.9788C296.956 22.8691 294.579 22.6331 292.388 22.333C291.161 22.165 290.048 23.1055 290.048 24.3436V27.0541C290.048 28.0816 290.826 28.9438 291.85 29.0304C293.494 29.1694 295.265 29.2843 297.132 29.3562C298.411 29.4054 299.343 30.604 299.022 31.8423C297.795 36.5821 296.162 41.7781 294.284 45.9585C293.789 47.0616 294.307 48.379 295.445 48.7875L298.288 49.8083C299.193 50.133 300.178 49.7542 300.696 48.945C300.915 48.6038 301.144 48.2819 301.416 47.9601C304.72 43.7041 310.376 41.4081 316.76 41.4081C322.136 41.4081 325.048 44.2081 325.048 47.5121C325.048 54.9965 314.771 56.8497 303.71 55.6061C302.265 55.4436 301.068 56.7775 301.451 58.1808L302.232 61.035C302.449 61.8293 303.133 62.4121 303.954 62.4855C321.116 64.0219 332.496 59.457 332.496 47.2881C332.496 40.2321 326.56 35.4161 317.6 35.4161C314.291 35.4161 311.361 35.8409 308.486 36.8132C306.762 37.3962 304.79 35.7435 305.243 33.9809C305.51 32.9409 305.768 31.8713 306.012 30.8036C306.213 29.9242 306.969 29.2804 307.869 29.2238C314.242 28.8227 321.35 27.9901 326.629 27.2194C327.617 27.0751 328.339 26.2165 328.323 25.2179L328.281 22.682ZM375.879 31.3165C374.687 31.1949 373.658 32.1411 373.61 33.3379C373.511 35.8172 373.201 38.5174 372.729 41.3367C372.58 42.2294 371.837 42.8991 370.934 42.9661C368.722 43.1303 366.711 43.2504 365.296 43.296C364.939 43.306 364.587 43.3176 364.239 43.3292L364.237 43.3293C363.405 43.3569 362.593 43.3838 361.774 43.3847C360.538 43.3861 359.508 44.4171 359.609 45.6488L359.855 48.6449C359.95 49.8069 361.016 50.6428 362.17 50.4783C363.614 50.2724 365.174 50.0691 366.192 49.96C366.68 49.8829 367.31 49.794 368.038 49.6987C369.436 49.5158 370.558 50.8158 370.162 52.1688C368.25 58.7024 365.265 66.886 361.234 73.1326C360.521 74.2366 360.949 75.7508 362.169 76.2388L365.477 77.5622C366.377 77.9221 367.408 77.5885 367.889 76.7474C372.311 69.0113 375.854 57.8485 377.927 49.9567C378.147 49.1224 378.869 48.517 379.729 48.4553C380.677 48.3874 381.489 48.336 382.096 48.336C385.624 48.336 387.528 48.952 387.528 53.376C387.528 58.864 386.8 65.472 385.232 68.552C384.392 70.4 382.936 70.96 381.088 70.96C380.255 70.96 378.854 70.7768 377.409 70.5046C375.961 70.2319 374.595 71.4679 374.839 72.9208L375.325 75.8185C375.458 76.608 376.047 77.2477 376.835 77.3918C378.503 77.6973 380.482 77.904 382.152 77.904C386.352 77.904 389.432 76.672 391.28 72.808C393.632 67.992 394.416 59.144 394.416 52.592C394.416 44.64 390.272 42.008 384.392 42.008C383.827 42.008 383.12 42.0365 382.321 42.0791C381.016 42.1487 379.992 40.9821 380.254 39.7011C380.484 38.5719 380.702 37.49 380.864 36.52C381.01 35.7888 381.187 34.9659 381.37 34.1392C381.631 32.9641 380.814 31.8201 379.616 31.6979L375.879 31.3165ZM395.854 42.104C395.131 40.983 395.535 39.423 396.766 38.9101L399.545 37.7523C400.409 37.3921 401.41 37.6761 401.906 38.4699C404.811 43.1121 408.337 51.0229 410.148 56.0865C410.486 57.0307 410.034 58.0638 409.128 58.4918L405.944 59.9944C404.794 60.5371 403.434 59.8844 403.079 58.6637C401.56 53.4498 398.799 46.6756 395.854 42.104ZM445.25 16.7717C445.433 15.6639 446.49 14.924 447.598 15.1083C453.102 16.0241 460.75 16.8876 466.054 17.2932C467.216 17.3821 468.073 18.4269 467.915 19.5819L467.57 22.1064C467.425 23.1626 466.48 23.9205 465.419 23.8196C460.064 23.3109 452.314 22.4147 446.486 21.5103C445.398 21.3414 444.665 20.3136 444.845 19.227L445.25 16.7717ZM468.365 33.7307C469.306 32.9923 469.475 31.6036 468.685 30.7054L466.982 28.7695C466.438 28.151 465.566 27.9209 464.762 28.0994C464.154 28.2345 463.478 28.3567 462.944 28.416C458.352 29.032 445.752 29.592 443.12 29.592C442.109 29.592 441.098 29.5779 440.179 29.5498C438.936 29.5117 437.899 30.559 438.008 31.7974L438.279 34.8919C438.382 36.0715 439.482 36.8995 440.653 36.7281C441.439 36.6132 442.309 36.5055 443.232 36.424C445.288 36.2437 448.762 35.9471 452.021 35.714C453.814 35.5858 454.777 37.6852 453.522 38.9714C449.919 42.6624 445.377 47.2251 441.97 50.6462C440.068 52.5574 438.52 54.1123 437.688 54.96C437.078 55.5702 436.477 56.1313 435.912 56.6349C434.904 57.5317 434.949 59.158 436.057 59.9277L438.879 61.889C439.751 62.4945 440.942 62.3131 441.608 61.4875C445.065 57.2059 448.585 53.4155 450.344 51.656C451.632 50.312 452.808 49.416 453.928 49.416C455.048 49.416 456.224 50.144 456.896 52.104C456.995 52.4583 457.109 52.8878 457.233 53.3581L457.235 53.3666L457.237 53.372L457.238 53.3761C457.604 54.7617 458.062 56.4962 458.52 57.704C459.864 61.344 462.72 62.464 467.984 62.464C470.328 62.464 474.596 62.2377 477.32 61.9089C478.224 61.7997 478.887 61.0453 478.943 60.1361L479.136 56.9937C479.217 55.6835 478.034 54.6481 476.733 54.8242C474.339 55.148 471.502 55.352 468.432 55.352C466.248 55.352 465.016 54.512 464.512 52.776C464.239 52.0177 463.966 51.0457 463.693 50.0738C463.462 49.2514 463.231 48.429 463 47.736C462.227 45.6942 461.237 44.5224 459.655 44.0065C459.608 43.9913 459.569 43.976 459.524 43.9554C458.81 43.6256 458.401 42.6286 458.969 42.0837C461.083 40.056 464.596 36.8667 466.528 35.192C466.814 34.9695 467.114 34.729 467.429 34.4755L467.43 34.4751C467.727 34.237 468.037 33.9874 468.365 33.7307ZM514.727 30.953C513.617 30.904 512.684 31.7694 512.618 32.8787C512.547 34.0912 512.438 35.433 512.264 36.6881C511.424 42.4001 510.696 49.2881 510.696 54.4401C510.696 57.1955 510.914 59.7954 511.141 61.8219C511.258 62.8688 512.185 63.6269 513.236 63.5586L516.126 63.3706C517.279 63.2956 518.122 62.2617 518.036 61.1093C517.925 59.6048 517.937 58.4099 517.976 57.3521C518.256 50.0721 523.968 40.2161 530.52 40.2161C535.112 40.2161 537.968 44.9761 537.968 53.5441C537.968 65.8433 530.746 70.2638 520.078 72.3848C518.653 72.6681 517.923 74.299 518.717 75.5158L520.497 78.2456C520.937 78.9207 521.741 79.2688 522.53 79.1051C536.465 76.2146 545.528 68.6978 545.528 53.4881C545.528 41.2801 539.536 33.7201 531.808 33.7201C528.888 33.7201 526.283 34.7397 524.068 36.259C522.311 37.464 519.166 36.0618 519.634 33.9834C519.659 33.873 519.684 33.7637 519.709 33.6556C519.998 32.3961 519.088 31.1454 517.797 31.0884L514.727 30.953ZM564 60.0001C566.209 60.0001 568 58.2092 568 56.0001C568 53.7909 566.209 52.0001 564 52.0001C561.791 52.0001 560 53.7909 560 56.0001C560 58.2092 561.791 60.0001 564 60.0001ZM585.146 55.9825C584.561 56.4981 583.799 56.7559 582.861 56.7559C581.643 56.7559 580.734 56.3282 580.137 55.4727C579.539 54.6172 579.24 53.211 579.24 51.254V50.7266C579.24 48.793 579.539 47.3985 580.137 46.543C580.746 45.6758 581.643 45.2422 582.826 45.2422C583.787 45.2422 584.561 45.5528 585.146 46.1739C585.303 46.3365 585.439 46.5124 585.555 46.7017C586.124 47.6271 586.927 48.5645 588.013 48.5645H588.803C589.916 48.5645 590.849 47.6434 590.588 46.5616C590.265 45.2198 589.612 44.0887 588.627 43.168C587.197 41.8087 585.293 41.129 582.914 41.129C580.195 41.129 578.057 42.002 576.498 43.7481C574.939 45.4942 574.16 47.8321 574.16 50.7618V51.0958C574.16 54.1426 574.945 56.5333 576.516 58.2676C578.086 59.9903 580.23 60.8516 582.949 60.8516C584.402 60.8516 585.727 60.5587 586.922 59.9727C588.129 59.3751 589.078 58.543 589.77 57.4766C590.09 56.9776 590.337 56.4561 590.511 55.9119C590.85 54.8533 589.918 53.9258 588.806 53.9258H588.007C586.959 53.9258 586.173 54.8351 585.481 55.6352L585.41 55.7177C585.329 55.8105 585.242 55.8987 585.146 55.9825ZM592.574 50.8145C592.574 48.9278 592.937 47.2462 593.663 45.7696C594.39 44.293 595.433 43.1505 596.792 42.3419C598.163 41.5333 599.751 41.129 601.556 41.129C604.122 41.129 606.214 41.9141 607.831 43.4844C609.46 45.0547 610.369 47.1876 610.556 49.8829L610.591 51.1837C610.591 54.1016 609.777 56.4454 608.148 58.2149C606.519 59.9727 604.333 60.8516 601.591 60.8516C598.849 60.8516 596.658 59.9727 595.017 58.2149C593.388 56.4571 592.574 54.0665 592.574 51.043V50.8145ZM597.654 51.1837C597.654 52.9883 597.994 54.3712 598.673 55.3321C599.353 56.2813 600.326 56.7559 601.591 56.7559C602.822 56.7559 603.783 56.2872 604.474 55.3497C605.165 54.4005 605.511 52.8887 605.511 50.8145C605.511 49.045 605.165 47.6739 604.474 46.7012C603.783 45.7286 602.81 45.2422 601.556 45.2422C600.314 45.2422 599.353 45.7286 598.673 46.7012C597.994 47.6622 597.654 49.1563 597.654 51.1837ZM617.548 41.4805C617.873 41.4805 618.142 41.731 618.166 42.0549C618.208 42.6142 618.947 42.8622 619.389 42.5174C620.576 41.5918 622.03 41.129 623.749 41.129C624.764 41.129 625.648 41.2951 626.399 41.6275C627.808 42.2505 629.986 42.4368 631.378 41.7783C632.294 41.3454 633.337 41.129 634.507 41.129C636.569 41.129 638.104 41.7325 639.112 42.9395C640.12 44.1348 640.624 45.9395 640.624 48.3536V58.5001C640.624 59.6046 639.728 60.5001 638.624 60.5001H637.526C636.422 60.5001 635.526 59.6046 635.526 58.5001V48.3712C635.526 47.293 635.315 46.5079 634.893 46.0157C634.471 45.5118 633.727 45.2598 632.661 45.2598C631.267 45.2598 630.266 45.868 629.657 47.0842C629.541 47.3142 629.497 47.5717 629.497 47.829L629.512 58.4974C629.513 59.603 628.617 60.5001 627.512 60.5001H626.434C625.33 60.5001 624.434 59.6046 624.434 58.5001V48.3887C624.434 47.2872 624.217 46.4903 623.784 45.9981C623.35 45.5059 622.612 45.2598 621.569 45.2598C620.312 45.2598 619.357 45.7146 618.706 46.6242C618.514 46.8937 618.44 47.2263 618.44 47.5577V58.5001C618.44 59.6046 617.545 60.5001 616.44 60.5001H615.36C614.255 60.5001 613.36 59.6046 613.36 58.5001V43.4805C613.36 42.376 614.255 41.4805 615.36 41.4805H617.548Z" fill="white"/>
</svg>
