<svg width="352" height="232" viewBox="0 0 352 232" fill="none" xmlns="http://www.w3.org/2000/svg">
<path fill-rule="evenodd" clip-rule="evenodd" d="M176 144C215.765 144 248 111.765 248 72C248 32.2355 215.765 0 176 0C136.235 0 104 32.2355 104 72C104 111.765 136.235 144 176 144ZM220.962 88.8415C218.719 89.578 216.452 90.2609 214.162 90.8887C216.566 93.9485 218 97.8068 218 102C218 111.941 209.941 120 200 120C190.058 120 182 111.941 182 102V95.8772C180.01 95.9587 178.009 95.9999 176 95.9999C160.298 95.9999 145.184 93.487 131.037 88.8415C129.412 84.5036 128.396 79.8677 128.094 75.0382C142.945 80.8247 159.101 83.9999 176 83.9999C192.898 83.9999 209.054 80.8247 223.905 75.0382C223.603 79.8677 222.587 84.5036 220.962 88.8415Z" fill="white"/>
<path fill-rule="evenodd" clip-rule="evenodd" d="M44.1734 214.783C39.4892 218.863 33.3665 221.333 26.6667 221.333C11.9391 221.333 0 209.394 0 194.667C0 179.939 11.9391 168 26.6667 168C37.5465 168 46.9046 174.516 51.0517 183.858C52.0103 186.017 55.3785 186.769 57.16 185.217C61.8442 181.137 67.9669 178.667 74.6667 178.667C81.3665 178.667 87.4892 181.137 92.1733 185.217C93.9548 186.769 97.323 186.017 98.2816 183.858C102.429 174.516 111.787 168 122.667 168C133.547 168 142.905 174.516 147.052 183.858C148.01 186.017 151.379 186.769 153.16 185.217C157.844 181.137 163.967 178.667 170.667 178.667C177.366 178.667 183.489 181.137 188.173 185.217C189.955 186.769 193.323 186.017 194.282 183.858C198.429 174.516 207.787 168 218.667 168C229.547 168 238.905 174.516 243.052 183.858C244.01 186.017 247.379 186.769 249.16 185.217C253.844 181.137 259.967 178.667 266.667 178.667C274.038 178.667 280.712 181.658 285.539 186.493C287.166 188.123 290.377 187.658 291.414 185.602C296.684 175.161 307.506 168 320 168C337.673 168 352 182.327 352 200C352 217.673 337.673 232 320 232C309.788 232 300.694 227.217 294.835 219.769C293.411 217.959 290.174 218.143 288.901 220.061C284.125 227.256 275.95 232 266.667 232C255.787 232 246.429 225.484 242.282 216.142C241.323 213.983 237.955 213.231 236.173 214.783C231.489 218.863 225.366 221.333 218.667 221.333C211.967 221.333 205.844 218.863 201.16 214.783C199.379 213.231 196.01 213.983 195.052 216.142C190.905 225.484 181.547 232 170.667 232C159.787 232 150.429 225.484 146.282 216.142C145.323 213.983 141.955 213.231 140.173 214.783C135.489 218.863 129.366 221.333 122.667 221.333C115.967 221.333 109.844 218.863 105.16 214.783C103.379 213.231 100.01 213.983 99.0517 216.142C94.9046 225.484 85.5465 232 74.6667 232C63.7868 232 54.4288 225.484 50.2816 216.142C49.323 213.983 45.9548 213.231 44.1734 214.783ZM23.6905 189.204C23.6797 189.941 23.6797 190.672 23.6797 191.387C23.6797 192.049 24.304 192.535 24.9523 192.397C27.0277 191.954 29.0678 191.723 30.7731 191.723C36.4477 191.723 40.9277 194.747 40.9277 199.824C40.9277 204.192 38.6504 207.477 32.7891 208.933C31.4472 209.225 30.1281 209.38 28.9209 209.469C28.3361 209.513 27.7993 209.154 27.5996 208.603L26.8658 206.577C26.551 205.707 27.1952 204.794 28.1193 204.764C29.0788 204.732 29.9747 204.665 30.7731 204.528C33.7597 204.005 36.1491 202.475 36.1491 199.787C36.1491 197.285 33.9091 195.829 30.6984 195.829C28.7542 195.829 26.7284 196.101 24.7604 196.576C24.1663 196.719 23.7651 197.266 23.7822 197.877C23.8043 198.664 23.8278 199.431 23.8499 200.147L23.8499 200.148C23.8994 201.76 23.9411 203.119 23.9411 203.893C23.9411 208.485 22.2611 209.68 19.8717 209.68C16.2504 209.68 11.1357 206.581 11.1357 202.661C11.1357 199.614 14.454 196.502 18.5942 194.495C19.0896 194.254 19.4064 193.749 19.3965 193.199C19.3864 192.645 19.3864 192.09 19.3864 191.536V189.843C19.3864 189.079 18.7461 188.479 17.9826 188.502C17.7845 188.508 17.5926 188.512 17.4077 188.512C16.1298 188.512 14.7439 188.49 13.4471 188.414C12.7683 188.375 12.2472 187.811 12.2358 187.131L12.2066 185.375C12.1931 184.566 12.8966 183.934 13.7024 184.002C15.1315 184.123 16.2872 184.144 17.2957 184.144C17.5876 184.144 17.8865 184.137 18.1925 184.126C18.8879 184.101 19.44 183.533 19.4501 182.837C19.4611 182.086 19.4611 181.467 19.4611 181.045C19.4611 180.65 19.423 179.997 19.371 179.362C19.3037 178.54 19.9498 177.797 20.7737 177.797H22.7874C23.5821 177.797 24.2038 178.488 24.1301 179.28C24.0733 179.889 24.0163 180.535 23.9784 181.008C23.9629 181.349 23.9474 181.702 23.9319 182.066C23.8966 182.896 24.6227 183.555 25.4422 183.419C26.674 183.216 27.878 182.977 28.9891 182.714C29.8394 182.512 30.6817 183.132 30.7029 184.005L30.7468 185.821C30.7621 186.453 30.3318 187.011 29.712 187.136C28.1972 187.443 26.5168 187.7 24.8482 187.92C24.1973 188.006 23.7001 188.548 23.6905 189.204ZM15.7277 202.512C15.7277 203.632 17.4451 204.677 18.4157 204.677C19.0877 204.677 19.6104 204.341 19.6104 203.072C19.6104 202.495 19.5961 201.632 19.5676 200.599C19.5407 199.626 18.5044 199.023 17.7269 199.608C16.4784 200.547 15.7277 201.586 15.7277 202.512ZM34.058 186.057C33.3758 185.698 33.111 184.846 33.491 184.175L34.2248 182.881C34.572 182.269 35.3357 182.031 35.9622 182.352C38.2433 183.521 41.0425 185.104 42.9007 186.3C43.4823 186.674 43.6453 187.439 43.2946 188.035L42.4892 189.404C42.0658 190.124 41.0819 190.293 40.396 189.817C38.6261 188.589 35.9968 187.075 34.058 186.057ZM82.8396 202.866C81.7935 203.092 81.4188 204.409 82.0803 205.251C83.4257 206.962 84.1863 208.734 84.1863 210.565C84.1863 213.627 81.349 215.979 76.197 215.979C72.5383 215.979 70.6717 214.299 70.6717 211.275C70.6717 210.877 70.6979 210.387 70.7348 209.828C70.781 209.129 71.3648 208.587 72.0656 208.587H72.3143C74.1645 208.587 75.9407 208.488 77.6631 208.351C78.3384 208.297 78.8606 207.74 78.8779 207.062L78.9209 205.368C78.9414 204.562 78.2472 203.923 77.444 203.995C75.44 204.175 73.3432 204.293 71.5303 204.293C71.391 204.293 71.2827 204.172 71.2987 204.034C71.4352 202.849 71.5898 201.612 71.7489 200.407C71.8361 199.746 72.4013 199.255 73.068 199.247C74.9544 199.226 76.4565 199.153 77.9499 199.026C78.6144 198.969 79.1258 198.42 79.1484 197.754L79.2041 196.112C79.2323 195.279 78.4985 194.623 77.6694 194.703C76.5876 194.807 75.3614 194.88 74.0437 194.923C73.2181 194.95 72.5772 194.214 72.6906 193.396L72.6907 193.396L72.6908 193.394C72.7588 192.904 72.8166 192.487 72.8743 192.16C72.9605 191.6 73.059 191.04 73.1844 190.409C73.3443 189.602 72.7644 188.832 71.944 188.785L69.8179 188.662C69.0207 188.616 68.364 189.278 68.3449 190.076C68.33 190.702 68.2875 191.288 68.245 191.861C68.2301 192.026 68.2151 192.197 68.1996 192.376V192.376V192.376C68.1679 192.741 68.1337 193.134 68.092 193.55C68.0211 194.257 67.3897 194.766 66.6832 194.689C65.0707 194.513 63.4712 194.254 62.0368 193.905C61.1855 193.697 60.3154 194.288 60.2622 195.162L60.172 196.644C60.1337 197.273 60.5404 197.845 61.1531 197.992C62.6826 198.358 64.3775 198.656 66.0939 198.873C66.8408 198.968 67.3789 199.647 67.2865 200.394C67.2439 200.738 67.202 201.083 67.1602 201.427L67.1595 201.433C67.1038 201.891 67.0483 202.348 66.9914 202.802C66.9025 203.511 66.2646 204.019 65.5554 203.933C64.1229 203.757 62.6651 203.502 61.2282 203.122C60.3748 202.897 59.4954 203.487 59.444 204.368L59.3473 206.024C59.3109 206.649 59.7126 207.217 60.3209 207.363C61.7323 207.702 63.3276 207.975 65.0521 208.182C65.7835 208.269 66.3184 208.92 66.2546 209.654C66.1713 210.612 66.117 211.435 66.117 212.059C66.117 218.219 70.2237 220.757 76.0477 220.757C84.149 220.757 89.1517 216.725 89.1517 211.163C89.1517 208.25 88.1856 205.789 86.0741 202.94C85.7703 202.531 85.2514 202.346 84.7529 202.453L82.8396 202.866ZM133.52 183.121C133.506 182.279 132.725 181.661 131.898 181.82C128.284 182.514 124.417 182.955 120.969 183.18C120.391 183.218 119.939 182.696 120.053 182.128C120.122 181.804 120.185 181.48 120.249 181.155L120.249 181.154C120.322 180.784 120.394 180.413 120.476 180.039C120.661 179.182 120.052 178.321 119.176 178.283L117.118 178.195C116.344 178.162 115.713 178.793 115.688 179.568C115.666 180.231 115.607 180.927 115.498 181.867C115.49 181.972 115.477 182.078 115.461 182.188C115.366 182.858 114.764 183.353 114.088 183.319C112.637 183.246 111.052 183.089 109.592 182.889C108.774 182.777 108.032 183.404 108.032 184.229V186.036C108.032 186.721 108.55 187.296 109.233 187.354C110.329 187.446 111.509 187.523 112.755 187.571C113.607 187.604 114.228 188.403 114.015 189.228C113.196 192.388 112.107 195.852 110.856 198.639C110.526 199.374 110.871 200.253 111.63 200.525L113.525 201.206C114.128 201.422 114.785 201.169 115.131 200.63C115.276 200.403 115.429 200.188 115.61 199.973C117.813 197.136 121.584 195.605 125.84 195.605C129.424 195.605 131.365 197.472 131.365 199.675C131.365 204.664 124.514 205.9 117.14 205.071C116.176 204.962 115.378 205.852 115.634 206.787L116.154 208.69C116.299 209.22 116.755 209.608 117.302 209.657C128.744 210.681 136.33 207.638 136.33 199.525C136.33 194.821 132.373 191.611 126.4 191.611C124.194 191.611 122.24 191.894 120.324 192.542C119.174 192.931 117.86 191.829 118.162 190.654C118.34 189.961 118.512 189.248 118.674 188.536C118.808 187.949 119.312 187.52 119.912 187.483C124.161 187.215 128.9 186.66 132.419 186.146C133.078 186.05 133.559 185.478 133.548 184.812L133.52 183.121ZM165.252 188.878C164.458 188.797 163.772 189.427 163.74 190.225C163.674 191.878 163.467 193.678 163.153 195.558C163.053 196.153 162.557 196.599 161.956 196.644C160.481 196.754 159.14 196.834 158.197 196.864C157.959 196.871 157.724 196.878 157.492 196.886L157.491 196.886L157.491 196.886C156.936 196.905 156.395 196.923 155.849 196.923C155.025 196.924 154.338 197.611 154.406 198.433L154.57 200.43C154.633 201.205 155.343 201.762 156.113 201.652C157.076 201.515 158.116 201.379 158.794 201.307C159.12 201.255 159.54 201.196 160.025 201.132C160.957 201.011 161.705 201.877 161.441 202.779C160.166 207.135 158.176 212.591 155.489 216.755C155.014 217.491 155.299 218.501 156.112 218.826L158.318 219.708C158.918 219.948 159.605 219.726 159.925 219.165C162.874 214.008 165.236 206.566 166.618 201.304C166.764 200.748 167.246 200.345 167.819 200.304C168.451 200.258 168.992 200.224 169.397 200.224C171.749 200.224 173.018 200.635 173.018 203.584C173.018 207.243 172.533 211.648 171.488 213.701C170.928 214.933 169.957 215.307 168.725 215.307C168.17 215.307 167.236 215.185 166.272 215.003C165.307 214.821 164.396 215.645 164.559 216.614L164.883 218.546C164.972 219.072 165.365 219.498 165.89 219.595C167.002 219.798 168.321 219.936 169.434 219.936C172.234 219.936 174.288 219.115 175.52 216.539C177.088 213.328 177.61 207.429 177.61 203.061C177.61 197.76 174.848 196.005 170.928 196.005C170.551 196.005 170.08 196.024 169.547 196.053C168.677 196.099 167.995 195.321 168.169 194.467C168.323 193.715 168.468 192.993 168.576 192.347C168.673 191.859 168.791 191.311 168.913 190.759C169.087 189.976 168.542 189.213 167.744 189.132L165.252 188.878ZM178.569 196.069C178.087 195.322 178.356 194.282 179.177 193.94L181.029 193.168C181.606 192.928 182.273 193.117 182.604 193.647C184.541 196.741 186.891 202.015 188.098 205.391C188.324 206.02 188.023 206.709 187.418 206.995L185.296 207.996C184.529 208.358 183.622 207.923 183.385 207.109C182.373 203.633 180.532 199.117 178.569 196.069ZM211.5 179.181C211.622 178.443 212.327 177.949 213.065 178.072C216.735 178.683 221.833 179.258 225.369 179.529C226.144 179.588 226.715 180.285 226.61 181.055L226.38 182.738C226.283 183.442 225.653 183.947 224.945 183.88C221.375 183.541 216.209 182.943 212.324 182.34C211.598 182.228 211.11 181.542 211.229 180.818L211.5 179.181ZM226.909 190.487C227.537 189.995 227.649 189.069 227.123 188.47L225.988 187.18C225.625 186.767 225.044 186.614 224.508 186.733C224.102 186.823 223.652 186.904 223.296 186.944C220.234 187.355 211.834 187.728 210.08 187.728C209.406 187.728 208.732 187.719 208.119 187.7C207.291 187.674 206.599 188.373 206.672 189.198L206.852 191.261C206.921 192.048 207.654 192.6 208.435 192.485C208.959 192.409 209.539 192.337 210.154 192.283C211.525 192.162 213.841 191.965 216.014 191.809C217.209 191.724 217.851 193.123 217.014 193.981C214.612 196.442 211.584 199.483 209.313 201.764C208.045 203.038 207.013 204.075 206.458 204.64C206.052 205.047 205.651 205.421 205.274 205.757C204.602 206.354 204.633 207.439 205.371 207.952L207.253 209.259C207.833 209.663 208.628 209.542 209.072 208.992C211.376 206.137 213.723 203.61 214.896 202.437C215.754 201.541 216.538 200.944 217.285 200.944C218.032 200.944 218.816 201.429 219.264 202.736C219.33 202.972 219.406 203.259 219.488 203.572L219.49 203.578L219.491 203.581L219.492 203.584L219.492 203.584L219.492 203.585C219.736 204.509 220.041 205.664 220.346 206.469C221.242 208.896 223.146 209.643 226.656 209.643C228.218 209.643 231.063 209.492 232.88 209.273C233.482 209.2 233.924 208.697 233.962 208.091L234.091 205.996C234.144 205.122 233.356 204.432 232.488 204.549C230.893 204.765 229.001 204.901 226.954 204.901C225.498 204.901 224.677 204.341 224.341 203.184C224.159 202.678 223.977 202.03 223.795 201.383C223.641 200.834 223.487 200.286 223.333 199.824C222.818 198.463 222.158 197.682 221.103 197.338C221.086 197.332 221.071 197.327 221.056 197.321C221.043 197.316 221.03 197.31 221.016 197.304C220.539 197.084 220.267 196.419 220.646 196.056C222.055 194.704 224.397 192.578 225.685 191.461C225.876 191.313 226.075 191.153 226.286 190.984L226.286 190.983C226.484 190.825 226.691 190.658 226.909 190.487ZM257.817 188.635C257.077 188.603 256.455 189.18 256.412 189.919C256.365 190.727 256.292 191.622 256.176 192.459C255.616 196.267 255.13 200.859 255.13 204.293C255.13 206.13 255.275 207.864 255.427 209.215C255.505 209.913 256.123 210.418 256.824 210.372L258.751 210.247C259.519 210.197 260.081 209.508 260.024 208.74C259.95 207.737 259.957 206.94 259.984 206.235C260.17 201.381 263.978 194.811 268.346 194.811C271.408 194.811 273.312 197.984 273.312 203.696C273.312 211.896 268.497 214.843 261.385 216.257C260.435 216.445 259.948 217.533 260.477 218.344L261.664 220.164C261.958 220.614 262.494 220.846 263.02 220.737C272.31 218.81 278.352 213.799 278.352 203.659C278.352 195.52 274.357 190.48 269.205 190.48C267.258 190.48 265.522 191.16 264.045 192.173C262.874 192.976 260.777 192.041 261.089 190.656C261.106 190.582 261.122 190.509 261.139 190.437C261.332 189.597 260.725 188.764 259.864 188.726L257.817 188.635ZM290.666 208C292.139 208 293.333 206.806 293.333 205.333C293.333 203.861 292.139 202.667 290.666 202.667C289.194 202.667 288 203.861 288 205.333C288 206.806 289.194 208 290.666 208ZM304.764 205.322C304.373 205.665 303.866 205.837 303.241 205.837C302.428 205.837 301.823 205.552 301.424 204.982C301.026 204.411 300.827 203.474 300.827 202.169V201.818C300.827 200.529 301.026 199.599 301.424 199.029C301.83 198.451 302.428 198.161 303.217 198.161C303.858 198.161 304.373 198.369 304.764 198.783C304.868 198.891 304.959 199.008 305.037 199.134C305.416 199.751 305.951 200.376 306.675 200.376H307.202C307.944 200.376 308.566 199.762 308.392 199.041C308.177 198.147 307.741 197.392 307.084 196.779C306.131 195.872 304.862 195.419 303.276 195.419C301.463 195.419 300.037 196.001 298.998 197.165C297.959 198.329 297.44 199.888 297.44 201.841V202.064C297.44 204.095 297.963 205.689 299.01 206.845C300.057 207.994 301.487 208.568 303.299 208.568C304.268 208.568 305.151 208.372 305.948 207.982C306.752 207.583 307.385 207.029 307.846 206.318C308.059 205.985 308.224 205.637 308.34 205.275C308.567 204.569 307.945 203.951 307.204 203.951H306.671C305.973 203.951 305.448 204.557 304.987 205.09L304.94 205.145C304.886 205.207 304.827 205.266 304.764 205.322ZM309.715 201.876C309.715 200.619 309.958 199.497 310.442 198.513C310.926 197.529 311.622 196.767 312.528 196.228C313.442 195.689 314.501 195.419 315.704 195.419C317.415 195.419 318.809 195.943 319.887 196.99C320.973 198.036 321.579 199.458 321.704 201.255L321.727 202.122C321.727 204.068 321.184 205.63 320.098 206.81C319.012 207.982 317.555 208.568 315.727 208.568C313.899 208.568 312.438 207.982 311.344 206.81C310.258 205.638 309.715 204.044 309.715 202.029V201.876ZM313.102 202.122C313.102 203.326 313.329 204.247 313.782 204.888C314.235 205.521 314.883 205.837 315.727 205.837C316.547 205.837 317.188 205.525 317.649 204.9C318.11 204.267 318.34 203.259 318.34 201.876C318.34 200.697 318.11 199.783 317.649 199.134C317.188 198.486 316.54 198.161 315.704 198.161C314.876 198.161 314.235 198.486 313.782 199.134C313.329 199.775 313.102 200.771 313.102 202.122ZM326.365 195.654C326.581 195.654 326.761 195.821 326.777 196.037C326.805 196.409 327.297 196.575 327.592 196.345C328.384 195.728 329.353 195.419 330.499 195.419C331.176 195.419 331.765 195.53 332.266 195.752C333.205 196.167 334.657 196.291 335.585 195.852C336.196 195.564 336.891 195.419 337.671 195.419C339.046 195.419 340.069 195.822 340.741 196.626C341.413 197.423 341.749 198.626 341.749 200.236V207C341.749 207.736 341.152 208.333 340.416 208.333H339.684C338.947 208.333 338.35 207.736 338.35 207V200.247C338.35 199.529 338.21 199.005 337.929 198.677C337.647 198.341 337.151 198.173 336.44 198.173C335.511 198.173 334.843 198.579 334.437 199.389C334.361 199.543 334.331 199.714 334.331 199.886L334.341 206.998C334.342 207.735 333.745 208.333 333.007 208.333H332.289C331.553 208.333 330.956 207.736 330.956 207V200.259C330.956 199.525 330.811 198.994 330.522 198.665C330.233 198.337 329.741 198.173 329.046 198.173C328.207 198.173 327.571 198.476 327.137 199.083C327.009 199.262 326.96 199.484 326.96 199.705V207C326.96 207.736 326.363 208.333 325.626 208.333H324.906C324.17 208.333 323.573 207.736 323.573 207V196.987C323.573 196.251 324.17 195.654 324.906 195.654H326.365Z" fill="white"/>
</svg>
