<svg width="656" height="96" viewBox="0 0 656 96" fill="none" xmlns="http://www.w3.org/2000/svg">
<path fill-rule="evenodd" clip-rule="evenodd" d="M48 96C74.5097 96 96 74.5097 96 48C96 21.4903 74.5097 0 48 0C21.4903 0 0 21.4903 0 48C0 74.5097 21.4903 96 48 96ZM77.9754 59.2278C76.4801 59.7188 74.9686 60.1741 73.442 60.5926C75.0446 62.6325 76.0005 65.2047 76.0005 68.0001C76.0005 74.6275 70.6279 80.0001 64.0005 80.0001C57.3731 80.0001 52.0005 74.6275 52.0005 68.0001V63.9183C50.6739 63.9727 49.3404 64.0001 48.0005 64.0001C37.5331 64.0001 27.457 62.3249 18.0256 59.2278C16.9419 56.3359 16.2647 53.2453 16.0636 50.0257C25.9641 53.8833 36.7351 56.0001 48.0005 56.0001C59.2659 56.0001 70.0369 53.8833 79.9374 50.0257C79.7363 53.2453 79.0591 56.3359 77.9754 59.2278Z" fill="#FBC02D"/>
<path d="M168 80C178.05 80 187.234 76.2939 194.26 70.1738C196.932 67.8462 201.985 68.9746 203.422 72.2135C209.643 86.2266 223.68 96 240 96C256.32 96 270.357 86.2266 276.578 72.2136C278.015 68.9746 283.068 67.8462 285.74 70.1738C292.766 76.2939 301.95 80 312 80C322.05 80 331.234 76.2939 338.26 70.1738C340.932 67.8462 345.985 68.9746 347.422 72.2136C353.643 86.2266 367.68 96 384 96C400.32 96 414.357 86.2266 420.578 72.2136C422.015 68.9746 427.068 67.8462 429.74 70.1738C436.766 76.2939 445.95 80 456 80C466.05 80 475.234 76.2939 482.26 70.1738C484.932 67.8462 489.985 68.9746 491.422 72.2136C497.643 86.2266 511.68 96 528 96C541.925 96 554.188 88.8846 561.352 78.0913C563.261 75.214 568.117 74.9386 570.252 77.6528C579.041 88.8251 592.682 96 608 96C634.51 96 656 74.5097 656 48C656 21.4903 634.51 0 608 0C589.258 0 573.026 10.7411 565.121 26.4032C563.565 29.4873 558.749 30.1842 556.308 27.7394C549.067 20.4869 539.058 16 528 16C517.95 16 508.766 19.7061 501.74 25.8262C499.068 28.1538 494.015 27.0254 492.578 23.7864C486.357 9.77336 472.32 0 456 0C439.68 0 425.643 9.77336 419.422 23.7864C417.985 27.0254 412.932 28.1538 410.26 25.8262C403.234 19.7061 394.05 16 384 16C373.95 16 364.766 19.7061 357.74 25.8262C355.068 28.1538 350.015 27.0254 348.578 23.7864C342.357 9.77337 328.32 0 312 0C295.68 0 281.643 9.77337 275.422 23.7864C273.985 27.0254 268.932 28.1538 266.26 25.8262C259.234 19.7061 250.05 16 240 16C229.95 16 220.766 19.7061 213.74 25.8262C211.068 28.1538 206.015 27.0254 204.578 23.7865C198.357 9.77337 184.32 0 168 0C145.909 0 128 17.9086 128 40C128 62.0914 145.909 80 168 80Z" fill="#FBC02D"/>
<path fill-rule="evenodd" clip-rule="evenodd" d="M163.536 31.806C163.52 32.911 163.52 34.0077 163.52 35.08C163.52 36.0742 164.457 36.802 165.429 36.5949C168.542 35.9317 171.602 35.584 174.16 35.584C182.672 35.584 189.392 40.12 189.392 47.736C189.392 54.288 185.976 59.216 177.184 61.4C175.171 61.8376 173.193 62.07 171.382 62.2042C170.505 62.2692 169.699 61.731 169.4 60.9039L168.299 57.8652C167.827 56.5612 168.793 55.191 170.179 55.1454C171.619 55.0981 172.963 54.9973 174.16 54.792C178.64 54.008 182.224 51.712 182.224 47.68C182.224 43.928 178.864 41.744 174.048 41.744C171.132 41.744 168.093 42.1522 165.141 42.8639C164.25 43.0788 163.648 43.8986 163.674 44.8148C163.707 45.9965 163.742 47.1469 163.775 48.2221C163.85 50.6398 163.912 52.678 163.912 53.84C163.912 60.728 161.392 62.52 157.808 62.52C152.376 62.52 144.704 57.872 144.704 51.992C144.704 47.4216 149.682 42.7526 155.892 39.7419C156.635 39.3816 157.11 38.6241 157.095 37.7984C157.08 36.9669 157.08 36.1355 157.08 35.304V32.7641C157.08 31.6182 156.12 30.7187 154.974 30.7536C154.677 30.7627 154.389 30.768 154.112 30.768C152.195 30.768 150.116 30.7356 148.171 30.6215C147.153 30.5618 146.371 29.7159 146.354 28.696L146.31 26.0618C146.29 24.849 147.345 23.9008 148.554 24.0031C150.698 24.1845 152.431 24.216 153.944 24.216C154.382 24.216 154.83 24.2055 155.289 24.1889C156.332 24.1513 157.161 23.299 157.176 22.2554C157.192 21.1289 157.192 20.2003 157.192 19.568C157.192 18.9745 157.135 17.9958 157.057 17.0424C156.956 15.8106 157.925 14.696 159.161 14.696H162.182C163.374 14.696 164.306 15.7326 164.196 16.9195C164.11 17.8336 164.025 18.8023 163.968 19.512C163.945 20.0231 163.922 20.5535 163.898 21.0992C163.845 22.344 164.935 23.3324 166.164 23.1292C168.011 22.8238 169.817 22.466 171.484 22.0708C172.76 21.7684 174.023 22.6975 174.055 24.0079L174.121 26.7318C174.144 27.68 173.498 28.5165 172.569 28.7045C170.296 29.1643 167.776 29.5502 165.273 29.8801C164.296 30.0088 163.551 30.8213 163.536 31.806ZM151.592 51.768C151.592 53.448 154.168 55.016 155.624 55.016C156.632 55.016 157.416 54.512 157.416 52.608C157.416 51.7423 157.395 50.4483 157.352 48.8982C157.312 47.4397 155.757 46.535 154.591 47.4118C152.718 48.8199 151.592 50.3784 151.592 51.768Z" fill="white"/>
<path d="M179.087 27.0851C178.064 26.5477 177.667 25.2685 178.237 24.2631L179.338 22.322C179.858 21.4035 181.004 21.0471 181.944 21.5285C185.365 23.2816 189.564 25.6559 192.352 27.45C193.224 28.0115 193.468 29.1584 192.942 30.0526L191.734 32.1064C191.099 33.1859 189.623 33.44 188.594 32.7258C185.94 30.8828 181.996 28.6125 179.087 27.0851Z" fill="white"/>
<path d="M251.121 55.8762C250.129 54.6141 250.691 52.6379 252.26 52.2993L255.13 51.6799C255.878 51.5185 256.656 51.7959 257.112 52.4104C260.279 56.6828 261.728 60.3753 261.728 64.7441C261.728 73.0881 254.224 79.1361 242.072 79.1361C233.336 79.1361 227.176 75.3281 227.176 66.0881C227.176 65.1525 227.257 63.9185 227.382 62.4804C227.478 61.3797 226.676 60.4041 225.579 60.2726C222.992 59.9623 220.599 59.5531 218.482 59.045C217.569 58.8261 216.967 57.9733 217.021 57.0366L217.166 54.552C217.244 53.2301 218.563 52.3452 219.843 52.6837C221.998 53.2537 224.185 53.6356 226.334 53.8988C227.397 54.0291 228.354 53.2661 228.488 52.2026C228.573 51.5221 228.656 50.8366 228.74 50.1493C228.803 49.6305 228.866 49.1107 228.93 48.5913C229.069 47.4706 228.262 46.4522 227.141 46.3102C224.567 45.984 222.024 45.5376 219.73 44.9878C218.811 44.7675 218.201 43.9091 218.258 42.9657L218.394 40.7434C218.474 39.4315 219.779 38.5459 221.056 38.8568C223.207 39.3806 225.607 39.7689 228.025 40.0337C229.085 40.1497 230.032 39.3859 230.138 38.325C230.201 37.7002 230.252 37.1106 230.3 36.564C230.323 36.2961 230.346 36.0385 230.368 35.7921C230.432 34.9314 230.495 34.0526 230.518 33.1143C230.547 31.9168 231.531 30.9246 232.727 30.9934L235.916 31.177C237.147 31.2478 238.017 32.4037 237.777 33.6128C237.589 34.5602 237.441 35.4001 237.312 36.2401C237.225 36.7315 237.139 37.3572 237.036 38.094C236.866 39.3214 237.828 40.4257 239.066 40.3851C241.043 40.3204 242.882 40.2101 244.505 40.0541C245.748 39.9346 246.849 40.9191 246.807 42.1677L246.723 44.6308C246.689 45.6306 245.922 46.4542 244.925 46.5388C242.685 46.7288 240.432 46.8395 237.603 46.8708C236.602 46.8819 235.755 47.6188 235.624 48.6103C235.385 50.4186 235.153 52.2732 234.949 54.0507C234.925 54.2583 235.087 54.4401 235.296 54.4401C238.015 54.4401 241.16 54.2626 244.166 53.9925C245.371 53.8843 246.413 54.8427 246.382 56.052L246.317 58.5934C246.291 59.6093 245.508 60.446 244.495 60.5266C241.912 60.7322 239.247 60.8801 236.472 60.8801H236.099C235.048 60.8801 234.172 61.6936 234.103 62.7425C234.047 63.58 234.008 64.3148 234.008 64.9121C234.008 69.4481 236.808 71.9681 242.296 71.9681C250.024 71.9681 254.28 68.4401 254.28 63.8481C254.28 61.1007 253.139 58.4434 251.121 55.8762Z" fill="white"/>
<path d="M328.281 22.682C328.26 21.4192 327.088 20.4921 325.848 20.7302C320.426 21.771 314.626 22.4326 309.454 22.7707C308.587 22.8274 307.91 22.0436 308.08 21.1921C308.183 20.7062 308.278 20.2204 308.374 19.7325L308.374 19.7307C308.483 19.1767 308.592 18.6201 308.714 18.0579C308.992 16.7727 308.078 15.4808 306.764 15.4245L303.678 15.2922C302.517 15.2425 301.57 16.19 301.532 17.3515C301.499 18.3461 301.412 19.3909 301.248 20.8001C301.235 20.9573 301.216 21.1176 301.192 21.2817C301.05 22.2867 300.147 23.03 299.133 22.9788C296.956 22.8691 294.579 22.6331 292.388 22.333C291.161 22.165 290.048 23.1055 290.048 24.3436V27.0541C290.048 28.0816 290.826 28.9438 291.85 29.0304C293.494 29.1694 295.265 29.2843 297.132 29.3562C298.411 29.4054 299.343 30.604 299.022 31.8423C297.795 36.5821 296.162 41.7781 294.284 45.9585C293.789 47.0616 294.307 48.379 295.445 48.7875L298.288 49.8083C299.193 50.133 300.178 49.7542 300.696 48.945C300.915 48.6038 301.144 48.2819 301.416 47.9601C304.72 43.7041 310.376 41.4081 316.76 41.4081C322.136 41.4081 325.048 44.2081 325.048 47.5121C325.048 54.9965 314.771 56.8497 303.71 55.6061C302.265 55.4436 301.068 56.7775 301.451 58.1808L302.232 61.035C302.449 61.8293 303.133 62.4121 303.954 62.4855C321.116 64.0219 332.496 59.457 332.496 47.2881C332.496 40.2321 326.56 35.4161 317.6 35.4161C314.291 35.4161 311.361 35.8409 308.486 36.8132C306.762 37.3962 304.79 35.7435 305.243 33.9809C305.51 32.9409 305.768 31.8713 306.012 30.8036C306.213 29.9242 306.969 29.2804 307.869 29.2238C314.242 28.8227 321.35 27.9901 326.629 27.2194C327.617 27.0751 328.339 26.2165 328.323 25.2179L328.281 22.682Z" fill="white"/>
<path d="M373.61 33.3379C373.658 32.1411 374.687 31.1949 375.879 31.3165L379.616 31.6979C380.814 31.8201 381.631 32.9641 381.37 34.1392C381.187 34.9659 381.01 35.7888 380.864 36.52C380.702 37.49 380.484 38.5719 380.254 39.7011C379.992 40.9821 381.016 42.1487 382.321 42.0791C383.12 42.0365 383.827 42.008 384.392 42.008C390.272 42.008 394.416 44.64 394.416 52.592C394.416 59.144 393.632 67.992 391.28 72.808C389.432 76.672 386.352 77.904 382.152 77.904C380.482 77.904 378.503 77.6973 376.835 77.3918C376.047 77.2476 375.458 76.608 375.325 75.8185L374.839 72.9208C374.595 71.4679 375.961 70.2319 377.409 70.5046C378.854 70.7768 380.255 70.96 381.088 70.96C382.936 70.96 384.392 70.4 385.232 68.552C386.8 65.472 387.528 58.864 387.528 53.376C387.528 48.952 385.624 48.336 382.096 48.336C381.489 48.336 380.677 48.3874 379.729 48.4553C378.869 48.517 378.147 49.1224 377.927 49.9567C375.854 57.8485 372.311 69.0113 367.889 76.7474C367.408 77.5885 366.377 77.9221 365.477 77.5622L362.169 76.2388C360.949 75.7508 360.521 74.2366 361.234 73.1326C365.265 66.886 368.25 58.7024 370.162 52.1688C370.558 50.8158 369.436 49.5158 368.038 49.6987C367.31 49.794 366.68 49.8829 366.192 49.96C365.174 50.0691 363.614 50.2724 362.17 50.4783C361.016 50.6428 359.95 49.8069 359.855 48.6449L359.609 45.6488C359.508 44.4171 360.538 43.3861 361.774 43.3847C362.593 43.3838 363.405 43.3569 364.237 43.3293C364.586 43.3177 364.938 43.306 365.296 43.296C366.711 43.2504 368.722 43.1303 370.934 42.9661C371.837 42.8991 372.58 42.2294 372.729 41.3367C373.201 38.5174 373.511 35.8172 373.61 33.3379Z" fill="white"/>
<path d="M395.854 42.104C395.131 40.983 395.535 39.423 396.766 38.9101L399.545 37.7523C400.409 37.3921 401.41 37.6761 401.906 38.4699C404.811 43.1121 408.337 51.0229 410.148 56.0865C410.486 57.0307 410.034 58.0638 409.128 58.4918L405.944 59.9944C404.794 60.5371 403.434 59.8844 403.079 58.6637C401.56 53.4498 398.799 46.6756 395.854 42.104Z" fill="white"/>
<path d="M447.598 15.1083C446.49 14.924 445.433 15.6639 445.25 16.7717L444.845 19.227C444.665 20.3136 445.398 21.3414 446.486 21.5103C452.314 22.4147 460.064 23.3109 465.419 23.8196C466.48 23.9205 467.425 23.1626 467.57 22.1064L467.915 19.5819C468.073 18.4269 467.216 17.3821 466.054 17.2932C460.75 16.8876 453.102 16.0241 447.598 15.1083Z" fill="white"/>
<path d="M468.365 33.7307C469.306 32.9923 469.475 31.6036 468.685 30.7054L466.982 28.7695C466.438 28.151 465.566 27.9209 464.762 28.0994C464.154 28.2345 463.478 28.3567 462.944 28.416C458.352 29.032 445.752 29.592 443.12 29.592C442.109 29.592 441.098 29.5779 440.179 29.5498C438.936 29.5117 437.899 30.559 438.008 31.7974L438.279 34.8919C438.382 36.0715 439.482 36.8995 440.653 36.7281C441.439 36.6132 442.309 36.5055 443.232 36.424C445.288 36.2437 448.762 35.9471 452.021 35.714C453.814 35.5858 454.777 37.6852 453.522 38.9714C449.919 42.6624 445.377 47.2251 441.97 50.6462C440.068 52.5574 438.52 54.1123 437.688 54.96C437.078 55.5702 436.477 56.1313 435.912 56.6349C434.904 57.5317 434.949 59.158 436.057 59.9277L438.879 61.889C439.751 62.4945 440.942 62.3131 441.608 61.4875C445.065 57.2059 448.585 53.4155 450.344 51.656C451.632 50.312 452.808 49.416 453.928 49.416C455.048 49.416 456.224 50.144 456.896 52.104C456.995 52.4583 457.109 52.8878 457.233 53.3581L457.235 53.3666L457.237 53.372L457.238 53.3761C457.604 54.7617 458.062 56.4962 458.52 57.704C459.864 61.344 462.72 62.464 467.984 62.464C470.328 62.464 474.596 62.2377 477.32 61.9089C478.224 61.7997 478.887 61.0453 478.943 60.1361L479.136 56.9937C479.217 55.6835 478.034 54.6481 476.733 54.8242C474.339 55.148 471.502 55.352 468.432 55.352C466.248 55.352 465.016 54.512 464.512 52.776C464.239 52.0177 463.966 51.0457 463.693 50.0738C463.462 49.2514 463.231 48.429 463 47.736C462.227 45.6942 461.237 44.5224 459.655 44.0065C459.608 43.9913 459.569 43.976 459.524 43.9554C458.81 43.6256 458.401 42.6286 458.969 42.0837C461.083 40.056 464.596 36.8667 466.528 35.192C466.814 34.9695 467.114 34.729 467.429 34.4755C467.726 34.2373 468.037 33.9876 468.365 33.7307Z" fill="white"/>
<path d="M512.618 32.8787C512.684 31.7694 513.617 30.904 514.727 30.953L517.797 31.0884C519.088 31.1454 519.998 32.3961 519.709 33.6556C519.684 33.7637 519.659 33.873 519.634 33.9834C519.166 36.0618 522.311 37.464 524.068 36.259C526.283 34.7397 528.888 33.7201 531.808 33.7201C539.536 33.7201 545.528 41.2801 545.528 53.4881C545.528 68.6978 536.465 76.2146 522.53 79.1051C521.741 79.2688 520.937 78.9207 520.497 78.2456L518.717 75.5158C517.923 74.299 518.653 72.6681 520.078 72.3848C530.746 70.2638 537.968 65.8433 537.968 53.5441C537.968 44.9761 535.112 40.2161 530.52 40.2161C523.968 40.2161 518.256 50.0721 517.976 57.3521C517.937 58.4099 517.925 59.6048 518.036 61.1093C518.122 62.2617 517.279 63.2956 516.126 63.3706L513.236 63.5586C512.185 63.6269 511.258 62.8688 511.141 61.8219C510.914 59.7954 510.696 57.1955 510.696 54.4401C510.696 49.2881 511.424 42.4001 512.264 36.6881C512.438 35.433 512.547 34.0912 512.618 32.8787Z" fill="white"/>
<path d="M564 60.0001C566.209 60.0001 568 58.2092 568 56.0001C568 53.7909 566.209 52.0001 564 52.0001C561.791 52.0001 560 53.7909 560 56.0001C560 58.2092 561.791 60.0001 564 60.0001Z" fill="white"/>
<path d="M582.861 56.7559C583.799 56.7559 584.561 56.4981 585.146 55.9825C585.242 55.8987 585.329 55.8105 585.41 55.7177L585.481 55.6352C586.173 54.8351 586.959 53.9258 588.007 53.9258H588.806C589.918 53.9258 590.85 54.8533 590.511 55.9119C590.337 56.4561 590.09 56.9776 589.77 57.4766C589.078 58.543 588.129 59.3751 586.922 59.9727C585.727 60.5587 584.402 60.8516 582.949 60.8516C580.23 60.8516 578.086 59.9903 576.516 58.2676C574.945 56.5333 574.16 54.1426 574.16 51.0958V50.7618C574.16 47.8321 574.939 45.4942 576.498 43.7481C578.057 42.002 580.195 41.129 582.914 41.129C585.293 41.129 587.197 41.8087 588.627 43.168C589.612 44.0887 590.265 45.2198 590.588 46.5616C590.849 47.6434 589.916 48.5645 588.803 48.5645H588.013C586.927 48.5645 586.124 47.6271 585.555 46.7017C585.439 46.5124 585.303 46.3365 585.146 46.1739C584.561 45.5528 583.787 45.2422 582.826 45.2422C581.643 45.2422 580.746 45.6758 580.137 46.543C579.539 47.3985 579.24 48.793 579.24 50.7266V51.254C579.24 53.211 579.539 54.6172 580.137 55.4727C580.734 56.3282 581.643 56.7559 582.861 56.7559Z" fill="white"/>
<path fill-rule="evenodd" clip-rule="evenodd" d="M592.574 50.8145C592.574 48.9278 592.937 47.2462 593.663 45.7696C594.39 44.293 595.433 43.1505 596.792 42.3419C598.163 41.5333 599.751 41.129 601.556 41.129C604.122 41.129 606.214 41.9141 607.831 43.4844C609.46 45.0547 610.369 47.1876 610.556 49.8829L610.591 51.1837C610.591 54.1016 609.777 56.4454 608.148 58.2149C606.519 59.9727 604.333 60.8516 601.591 60.8516C598.849 60.8516 596.658 59.9727 595.017 58.2149C593.388 56.4571 592.574 54.0665 592.574 51.043V50.8145ZM597.654 51.1837C597.654 52.9883 597.994 54.3712 598.673 55.3321C599.353 56.2813 600.326 56.7559 601.591 56.7559C602.822 56.7559 603.783 56.2872 604.474 55.3497C605.165 54.4005 605.511 52.8887 605.511 50.8145C605.511 49.045 605.165 47.6739 604.474 46.7012C603.783 45.7286 602.81 45.2422 601.556 45.2422C600.314 45.2422 599.353 45.7286 598.673 46.7012C597.994 47.6622 597.654 49.1563 597.654 51.1837Z" fill="white"/>
<path d="M618.166 42.0549C618.142 41.731 617.873 41.4805 617.548 41.4805H615.36C614.255 41.4805 613.36 42.376 613.36 43.4805V58.5001C613.36 59.6046 614.255 60.5001 615.36 60.5001H616.44C617.545 60.5001 618.44 59.6046 618.44 58.5001V47.5577C618.44 47.2263 618.514 46.8937 618.706 46.6242C619.357 45.7146 620.312 45.2598 621.569 45.2598C622.612 45.2598 623.35 45.5059 623.784 45.9981C624.217 46.4903 624.434 47.2872 624.434 48.3887V58.5001C624.434 59.6046 625.33 60.5001 626.434 60.5001H627.512C628.617 60.5001 629.513 59.603 629.512 58.4974L629.497 47.829C629.497 47.5717 629.541 47.3142 629.657 47.0842C630.266 45.868 631.267 45.2598 632.661 45.2598C633.727 45.2598 634.471 45.5118 634.893 46.0157C635.315 46.5079 635.526 47.293 635.526 48.3712V58.5001C635.526 59.6046 636.422 60.5001 637.526 60.5001H638.624C639.728 60.5001 640.624 59.6046 640.624 58.5001V48.3536C640.624 45.9395 640.12 44.1348 639.112 42.9395C638.104 41.7325 636.569 41.129 634.507 41.129C633.337 41.129 632.294 41.3454 631.378 41.7783C629.986 42.4368 627.808 42.2505 626.399 41.6275C625.648 41.2951 624.764 41.129 623.749 41.129C622.03 41.129 620.576 41.5918 619.389 42.5174C618.947 42.8622 618.208 42.6142 618.166 42.0549Z" fill="white"/>
</svg>
