<svg xmlns="http://www.w3.org/2000/svg" xmlns:xlink="http://www.w3.org/1999/xlink" width="184" height="208" viewBox="0 0 184 208">
  <defs>
    <clipPath id="clip-OwnPlate-Logo-MonoWhite">
      <rect width="184" height="208"/>
    </clipPath>
  </defs>
  <g id="OwnPlate-Logo-MonoWhite" clip-path="url(#clip-OwnPlate-Logo-MonoWhite)">
    <g id="Logo" transform="translate(-489 -505)">
      <g id="Logo-Mark" transform="translate(509 505)">
        <path id="Logo-Mark-2" data-name="Logo-Mark" d="M72,144a71.663,71.663,0,0,1-40.256-12.3A72.21,72.21,0,0,1,5.658,100.026,71.906,71.906,0,0,1,12.3,31.744,72.21,72.21,0,0,1,43.974,5.658,71.906,71.906,0,0,1,112.256,12.3a72.21,72.21,0,0,1,26.086,31.678,71.906,71.906,0,0,1-6.638,68.282,72.21,72.21,0,0,1-31.678,26.086A71.55,71.55,0,0,1,72,144Zm6-48.123h0V102a18,18,0,1,0,32.164-11.105c2.274-.625,4.561-1.314,6.8-2.049a47.816,47.816,0,0,0,2.943-13.808A131.245,131.245,0,0,1,72,84a131.262,131.262,0,0,1-47.9-8.964,47.869,47.869,0,0,0,2.943,13.808A143.618,143.618,0,0,0,72,96c1.984,0,4-.041,6-.122Z" transform="translate(0 0)" fill="#fff"/>
      </g>
      <g id="Logo-Text" transform="translate(489 665)">
        <rect id="Base" width="184" height="48" transform="translate(0 0)" fill="red" opacity="0"/>
        <path id="Logo-Text-2" data-name="Logo-Text" d="M34.8-116.521a19.313,19.313,0,0,1-1.67,8.284,12.576,12.576,0,0,1-4.779,5.493,13.22,13.22,0,0,1-7.13,1.934,13.31,13.31,0,0,1-7.1-1.912,12.7,12.7,0,0,1-4.834-5.46,18.76,18.76,0,0,1-1.736-8.163v-1.582a19.211,19.211,0,0,1,1.7-8.317,12.679,12.679,0,0,1,4.812-5.515,13.236,13.236,0,0,1,7.108-1.923,13.236,13.236,0,0,1,7.108,1.923,12.679,12.679,0,0,1,4.812,5.515,19.157,19.157,0,0,1,1.7,8.295Zm-6.68-1.45q0-5.032-1.8-7.646a5.872,5.872,0,0,0-5.142-2.615,5.874,5.874,0,0,0-5.12,2.582q-1.8,2.582-1.824,7.57v1.56q0,4.9,1.8,7.6a5.856,5.856,0,0,0,5.186,2.7,5.8,5.8,0,0,0,5.1-2.6q1.78-2.6,1.8-7.592Zm30.829,8.086,3.12-15.139H68.2L62.14-101.25H56.822l-4.5-14.963-4.5,14.963h-5.3l-6.064-23.774h6.13l3.1,15.117,4.351-15.117h4.592Zm17.337-15.139.2,2.747a8.3,8.3,0,0,1,6.833-3.186q3.779,0,5.625,2.219t1.89,6.636v15.359h-6.35v-15.205a4.12,4.12,0,0,0-.879-2.933,3.935,3.935,0,0,0-2.922-.912,4.369,4.369,0,0,0-4.021,2.285v16.765h-6.35v-23.774Zm25.017,12.5v11.272H94.716v-31.992H107.2a14.439,14.439,0,0,1,6.339,1.318,9.715,9.715,0,0,1,4.208,3.746,10.446,10.446,0,0,1,1.472,5.526A9.186,9.186,0,0,1,116-115.236q-3.219,2.714-8.91,2.714Zm0-5.339H107.2a5.79,5.79,0,0,0,3.988-1.23,4.475,4.475,0,0,0,1.373-3.516,5.277,5.277,0,0,0-1.384-3.8,5.171,5.171,0,0,0-3.823-1.494h-6.042Zm26.918,16.611h-6.372V-135h6.372Zm18.106,0a7.052,7.052,0,0,1-.637-2.131,7.683,7.683,0,0,1-6,2.571,8.441,8.441,0,0,1-5.79-2.021,6.5,6.5,0,0,1-2.3-5.1,6.719,6.719,0,0,1,2.8-5.8q2.8-2.021,8.1-2.043h2.922v-1.362a3.918,3.918,0,0,0-.846-2.637,3.328,3.328,0,0,0-2.67-.989,3.783,3.783,0,0,0-2.516.769,2.613,2.613,0,0,0-.912,2.109h-6.35a6.379,6.379,0,0,1,1.274-3.823,8.424,8.424,0,0,1,3.6-2.758,13.133,13.133,0,0,1,5.229-1,10.376,10.376,0,0,1,6.976,2.208,7.725,7.725,0,0,1,2.582,6.207v10.305a11.366,11.366,0,0,0,.945,5.12v.374Zm-5.251-4.417a5.469,5.469,0,0,0,2.593-.626,4.113,4.113,0,0,0,1.758-1.681v-4.087h-2.373q-4.768,0-5.076,3.3l-.022.374a2.542,2.542,0,0,0,.835,1.956A3.243,3.243,0,0,0,141.081-105.667Zm22.753-25.2v5.845H167.9v4.658h-4.065V-108.5a2.833,2.833,0,0,0,.505,1.89,2.538,2.538,0,0,0,1.934.571,10.127,10.127,0,0,0,1.868-.154v4.812a13.073,13.073,0,0,1-3.845.571q-6.68,0-6.812-6.746v-12.81h-3.472v-4.658h3.472v-5.845Zm17.645,30.059a11.671,11.671,0,0,1-8.514-3.208,11.4,11.4,0,0,1-3.285-8.547v-.615a14.362,14.362,0,0,1,1.384-6.405,10.159,10.159,0,0,1,3.922-4.351,11.008,11.008,0,0,1,5.79-1.527,9.867,9.867,0,0,1,7.679,3.076q2.8,3.076,2.8,8.723v2.593H176.118a5.9,5.9,0,0,0,1.857,3.735,5.613,5.613,0,0,0,3.922,1.406,6.854,6.854,0,0,0,5.735-2.659l3.12,3.494a9.533,9.533,0,0,1-3.867,3.153A12.688,12.688,0,0,1,181.479-100.811Zm-.725-19.512a3.977,3.977,0,0,0-3.065,1.274,6.584,6.584,0,0,0-1.505,3.647h8.833v-.505a4.694,4.694,0,0,0-1.143-3.263A4.1,4.1,0,0,0,180.754-120.322Z" transform="translate(-7.419 141.25)" fill="#fff"/>
      </g>
    </g>
  </g>
</svg>
