<svg width="192" height="192" viewBox="0 0 192 192" fill="none" xmlns="http://www.w3.org/2000/svg">
<path d="M96 176C90.5849 176.001 85.1835 175.457 79.8776 174.375C74.7304 173.32 69.7003 171.759 64.8609 169.713C60.1039 167.699 55.5531 165.229 51.2724 162.337C47.0239 159.466 43.0593 156.195 39.4324 152.569C35.8069 148.942 32.536 144.978 29.6641 140.729C26.7726 136.448 24.3024 131.897 22.2883 127.14C20.2427 122.301 18.6812 117.27 17.6266 112.123C16.544 106.817 15.9991 101.415 16 96C15.9986 90.5849 16.543 85.1834 17.625 79.8775C18.6796 74.7304 20.2411 69.7003 22.2866 64.8608C24.3008 60.1036 26.771 55.5527 29.6625 51.2717C32.5344 47.0231 35.8053 43.0585 39.4308 39.4317C43.0575 35.8074 47.0219 32.5376 51.27 29.6667C55.5507 26.7751 60.1013 24.305 64.8582 22.2908C69.6977 20.2452 74.7278 18.6837 79.8749 17.6292C85.1815 16.5456 90.5839 15.9998 96 16C101.415 15.9986 106.817 16.543 112.122 17.625C117.27 18.6795 122.3 20.241 127.139 22.2867C131.896 24.3008 136.447 26.771 140.728 29.6625C144.977 32.5344 148.942 35.8053 152.568 39.4308C156.193 43.0578 159.463 47.0224 162.333 51.2708C165.225 55.5518 167.695 60.1028 169.709 64.86C171.755 69.6994 173.316 74.7295 174.371 79.8767C175.454 85.1827 176 90.5845 176 96C176.001 101.415 175.457 106.817 174.375 112.122C173.321 117.27 171.759 122.3 169.713 127.139C167.699 131.896 165.229 136.447 162.337 140.728C159.466 144.977 156.195 148.942 152.569 152.568C148.942 156.194 144.978 159.465 140.729 162.337C136.448 165.228 131.897 167.698 127.14 169.712C122.3 171.758 117.27 173.32 112.123 174.374C106.817 175.456 101.415 176.001 96 176ZM102.667 122.53V129.333C102.662 132.008 103.196 134.655 104.238 137.118C105.242 139.495 106.697 141.654 108.523 143.477C110.345 145.304 112.503 146.76 114.879 147.764C117.343 148.806 119.992 149.34 122.667 149.333C125.341 149.338 127.989 148.804 130.452 147.761C132.828 146.757 134.987 145.3 136.808 143.473C138.635 141.651 140.09 139.492 141.094 137.115C142.136 134.653 142.671 132.007 142.667 129.333C142.67 127.072 142.288 124.826 141.538 122.693C140.814 120.635 139.757 118.71 138.409 116.995C140.92 116.306 143.461 115.54 145.961 114.718C147.804 109.794 148.906 104.624 149.231 99.3767C132.263 105.991 114.206 109.368 95.9949 109.333C77.7873 109.365 59.7349 105.987 42.7708 99.3733C43.0964 104.621 44.1984 109.791 46.0409 114.715C62.1639 120.004 79.0275 122.688 95.9959 122.665C98.2043 122.665 100.449 122.619 102.667 122.529L102.667 122.53Z" fill="#FBC02D"/>
</svg>
