<svg width="192" height="192" viewBox="0 0 192 192" fill="none" xmlns="http://www.w3.org/2000/svg">
<path d="M96 192C89.5019 192.002 83.0202 191.348 76.6531 190.05C70.4765 188.785 64.4404 186.911 58.6331 184.456C52.9247 182.039 47.4637 179.075 42.3269 175.605C37.2287 172.159 32.4711 168.234 28.1189 163.883C23.7683 159.531 19.8433 154.773 16.397 149.675C12.9271 144.538 9.9629 139.077 7.5459 133.368C5.09124 127.561 3.21744 121.525 1.95191 115.348C0.652825 108.981 -0.00105159 102.499 3.15315e-06 96C-0.00165617 89.5019 0.651597 83.0201 1.94995 76.653C3.21547 70.4765 5.08927 64.4404 7.54395 58.633C9.96094 52.9244 12.9252 47.4632 16.395 42.326C19.8413 37.2278 23.7664 32.4702 28.1169 28.118C32.469 23.7689 37.2263 19.8451 42.324 16.4C47.4608 12.9302 52.9216 9.96599 58.6299 7.549C64.4372 5.09421 70.4733 3.22041 76.6499 1.955C83.0178 0.654766 89.5007 -0.0002123 96 3.15292e-06C102.498 -0.00165617 108.98 0.651646 115.347 1.95C121.523 3.2154 127.56 5.08921 133.367 7.544C139.076 9.96098 144.537 12.9252 149.674 16.395C154.772 19.8413 159.53 23.7664 163.882 28.117C168.231 32.4693 172.155 37.2269 175.6 42.325C179.07 47.4621 182.034 52.9233 184.451 58.632C186.906 64.4393 188.78 70.4754 190.045 76.652C191.345 83.0193 192 89.5014 192 96C192.002 102.498 191.348 108.98 190.05 115.347C188.785 121.524 186.911 127.56 184.456 133.367C182.039 139.076 179.075 144.537 175.605 149.674C172.159 154.772 168.234 159.53 163.883 163.882C159.531 168.233 154.773 172.158 149.675 175.604C144.538 179.074 139.077 182.038 133.368 184.455C127.561 186.91 121.524 188.784 115.348 190.049C108.981 191.348 102.499 192.001 96 192ZM104 127.836V136C103.994 139.209 104.635 142.387 105.886 145.342C107.09 148.194 108.837 150.785 111.028 152.972C113.213 155.164 115.804 156.912 118.655 158.117C121.611 159.368 124.79 160.008 128 160C131.209 160.006 134.387 159.364 137.342 158.113C140.194 156.908 142.784 155.161 144.97 152.968C147.162 150.781 148.909 148.19 150.113 145.338C151.363 142.384 152.005 139.208 152 136C152.003 133.286 151.546 130.591 150.646 128.031C149.777 125.562 148.509 123.252 146.891 121.194C149.904 120.367 152.953 119.448 155.953 118.462C158.164 112.553 159.487 106.349 159.877 100.052C139.516 107.989 117.847 112.041 95.9939 112C74.1448 112.038 52.4819 107.984 32.125 100.048C32.5157 106.345 33.8381 112.549 36.0491 118.458C55.3967 124.805 75.633 128.026 95.9951 127.998C98.6451 127.998 101.339 127.943 104.001 127.835L104 127.836Z" fill="white"/>
</svg>
