<svg id="Layer_1" data-name="Layer 1" xmlns="http://www.w3.org/2000/svg" viewBox="0 0 679 579"><title>UE_Logo_Stacked_RGB_web</title><path d="M327.2,391a30.69,30.69,0,1,0-30.69,30.36A30.27,30.27,0,0,0,327.2,391m25.07-49.67v99.35H326.73v-9a50.37,50.37,0,0,1-32.33,11.5c-30.23,0-53.89-23.22-53.89-52.21s23.66-52.2,53.89-52.2a50.37,50.37,0,0,1,32.33,11.5v-9Zm84.9,76.81H418c-5.85,0-9.6-2.52-9.6-7.81V363.87h28.81V341.33H408.36V313H382.59v28.29H363.14v22.54h19.45v52.89c0,13.34,9.61,23.92,26.94,23.92h27.64Zm58.22,25.07c29.52,0,46.15-13.8,46.15-32.88,0-13.58-9.84-23.7-30.46-28.07l-21.78-4.37c-12.65-2.29-16.64-4.59-16.64-9.19,0-6,6.1-9.66,17.34-9.66,12.18,0,21.08,3.22,23.66,14.26H539.2c-1.41-20.7-16.64-34.5-47.56-34.5-26.71,0-45.45,10.81-45.45,31.74,0,14.48,10.31,23.92,32.57,28.51l24.36,5.52c9.61,1.84,12.18,4.37,12.18,8.29,0,6.2-7.26,10.11-19,10.11-14.75,0-23.19-3.22-26.47-14.26H444.08c3.75,20.7,19.45,34.5,51.31,34.5M137.46,306.14h96.29v23H163.46V362h68.41v22.31H163.46v33.34h70.29v23H137.46Z"/><path d="M539.2,189.6V171.54h-6.85c-11,0-19,5-23.89,12.88V172.31H488.88v98h19.78V214.59c0-15.18,9.39-25,22.32-25ZM397.06,212.28c3.53-15,15.86-25,30.55-25s27,10,30.34,25ZM428,170.38a50.88,50.88,0,0,0-51.3,50.94c0,29.21,23.1,51.12,53.06,51.12,18.21,0,33.08-7.88,43.07-20.95l-14.29-10.38c-7.44,9.8-17.23,14.42-28.78,14.42a33.3,33.3,0,0,1-33.09-27.87h81.25v-6.34c0-29.22-21.14-50.94-49.92-50.94M315,255.53a34,34,0,1,1,34.26-34,34.11,34.11,0,0,1-34.26,34m-53.84,14.79h19.58V258a50.31,50.31,0,0,0,35.63,14.61c29.37,0,52.47-22.87,52.47-51.12,0-28.44-23.1-51.32-52.47-51.32A49.82,49.82,0,0,0,281,184.8v-49H261.19Zm-69.5-15.76c19,0,33.67-14.41,33.67-35.75v-83h20.56V270.32H225.56V257.83c-9.2,9.42-21.93,14.8-36.22,14.8-29.37,0-51.88-20.95-51.88-52.66V135.79H158v83c0,21.73,14.48,35.75,33.67,35.75"/></svg>