<?xml version="1.0" standalone="no"?>
<!DOCTYPE svg PUBLIC "-//W3C//DTD SVG 20010904//EN"
 "http://www.w3.org/TR/2001/REC-SVG-20010904/DTD/svg10.dtd">
<svg version="1.0" xmlns="http://www.w3.org/2000/svg"
 width="801.000000pt" height="801.000000pt" viewBox="0 0 801.000000 801.000000"
 preserveAspectRatio="xMidYMid meet">
<metadata>
Created by potrace 1.14, written by Peter Selinger 2001-2017
</metadata>
<g transform="translate(0.000000,801.000000) scale(0.100000,-0.100000)"
fill="#000000" stroke="none">
<path d="M3253 5608 l-682 -682 344 -344 c276 -276 348 -342 362 -336 10 4
319 310 686 679 l669 672 -335 334 c-183 184 -340 339 -348 346 -13 10 -126
-99 -696 -669z"/>
<path d="M4057 4812 c-372 -372 -677 -681 -677 -686 0 -5 155 -164 345 -354
l345 -345 680 681 c374 374 680 682 680 685 0 5 -689 697 -694 697 0 0 -306
-305 -679 -678z"/>
<path d="M2071 2971 l-35 -6 0 -88 1 -88 -64 4 c-54 3 -66 1 -74 -15 -6 -11
-8 -107 -5 -245 5 -228 7 -255 27 -368 13 -77 14 -82 24 -130 5 -22 9 -42 10
-45 3 -17 49 -141 63 -170 l17 -35 99 -3 c66 -2 102 1 106 9 4 6 -8 49 -26 96
-28 71 -74 231 -88 308 -21 113 -27 192 -27 358 -1 226 -2 218 19 215 15 -3
17 8 20 94 3 109 -3 119 -67 109z"/>
<path d="M2200 2965 c-10 -12 -11 -195 -2 -196 33 -6 73 -5 83 2 9 5 12 35 11
100 -1 51 -4 95 -7 97 -9 9 -77 7 -85 -3z"/>
<path d="M6672 2969 c-20 -7 -21 -15 -20 -104 0 -62 4 -96 12 -97 86 -11 91
-6 90 101 0 50 -3 94 -6 97 -10 10 -53 11 -76 3z"/>
<path d="M6833 2972 c-20 -3 -23 -10 -24 -50 -2 -116 -2 -143 5 -149 12 -12
76 -10 87 3 5 7 9 51 7 100 -3 84 -4 88 -28 94 -14 3 -35 4 -47 2z"/>
<path d="M4854 2818 c-4 -6 -6 -32 -5 -57 1 -25 -1 -57 -4 -71 l-5 -25 -245 2
c-135 0 -246 -2 -246 -5 -9 -38 -5 -183 5 -189 6 -4 91 -8 188 -8 97 -1 180
-4 184 -8 4 -4 -12 -44 -35 -89 -71 -141 -171 -261 -287 -344 l-61 -44 -1 -98
c0 -121 5 -132 50 -110 118 56 307 242 392 386 21 35 43 61 50 59 8 -3 12 -63
13 -203 1 -109 2 -220 2 -246 l1 -48 100 0 100 0 1 28 c0 15 1 179 1 365 0
225 4 340 11 344 6 3 37 7 69 8 32 1 61 4 64 8 9 8 10 155 2 178 -5 13 -16 20
-30 19 -13 -1 -44 -2 -70 -1 l-48 1 1 68 c0 37 0 73 0 80 -1 16 -187 17 -197
0z"/>
<path d="M6251 2733 c-36 -112 -91 -209 -151 -270 l-42 -42 -2 -111 c-1 -148
4 -151 110 -61 80 68 159 162 195 233 10 20 24 40 31 44 18 11 278 8 290 -4
12 -12 1 -95 -17 -118 -10 -15 -31 -17 -146 -16 -74 0 -142 -2 -152 -5 -16 -4
-17 -15 -15 -96 l3 -92 104 -5 c64 -3 106 -9 108 -16 5 -16 -93 -104 -163
-145 -33 -20 -93 -48 -134 -63 -41 -16 -84 -32 -96 -36 -18 -7 -21 -17 -22
-104 -2 -82 0 -97 14 -103 27 -10 201 53 303 109 72 40 118 77 196 153 89 88
107 112 148 195 62 127 87 232 93 401 5 109 3 137 -8 141 -7 3 -105 5 -218 5
l-205 1 0 48 0 49 -96 3 -96 3 -32 -98z"/>
<path d="M1531 2790 l-35 -5 -2 -195 c-2 -107 -5 -222 -9 -255 -13 -131 -67
-348 -113 -462 -16 -38 -26 -75 -24 -81 2 -8 36 -12 108 -12 103 0 104 0 118
28 39 77 92 282 111 427 3 28 8 161 11 298 4 200 2 248 -9 253 -19 7 -117 10
-156 4z"/>
<path d="M2994 2792 c-7 -4 -36 -43 -65 -87 -49 -73 -180 -216 -253 -274 -52
-42 -160 -107 -241 -145 -44 -21 -82 -40 -84 -42 -10 -10 -7 -185 3 -194 23
-18 212 69 318 147 26 19 52 32 58 28 6 -4 10 -95 10 -251 0 -155 4 -244 10
-245 48 -6 178 -3 188 4 9 7 12 87 12 341 l0 332 96 119 c103 129 164 224 164
256 0 18 -8 19 -102 19 -57 0 -108 -4 -114 -8z"/>
<path d="M3767 2784 c-4 -4 -7 -236 -7 -515 0 -439 2 -508 15 -513 17 -6 155
27 205 51 60 28 143 84 187 127 42 41 42 42 43 116 3 185 1 188 -70 115 -60
-62 -145 -119 -164 -112 -14 6 -16 53 -18 369 l-3 363 -90 3 c-50 1 -94 0 -98
-4z"/>
<path d="M3460 2765 c-5 -6 -10 -117 -10 -246 -1 -129 -2 -250 -4 -269 -6 -64
-38 -203 -62 -274 -14 -39 -26 -75 -27 -81 -2 -5 -11 -28 -21 -49 -27 -63 -21
-67 96 -64 l103 3 32 86 c18 47 34 97 37 110 2 13 11 58 19 99 9 41 19 113 22
160 9 111 9 519 0 528 -11 11 -175 9 -185 -3z"/>
<path d="M389 2730 c-1 -22 -1 -51 -1 -65 0 -14 0 -43 1 -65 l1 -40 90 0 c79
0 90 -2 91 -17 5 -74 3 -136 -6 -141 -5 -4 -53 -7 -105 -8 -52 -1 -99 -2 -103
-3 -4 0 -6 -45 -5 -98 l3 -98 111 -5 110 -5 1 -80 c3 -130 29 -219 80 -267 54
-51 100 -61 311 -63 105 -2 194 1 197 5 11 18 8 192 -4 199 -6 4 -83 5 -170 3
l-160 -4 -25 25 c-14 15 -27 36 -27 49 -1 13 -2 48 -3 78 l-1 55 225 5 225 5
3 94 c2 56 -1 97 -7 101 -6 3 -105 5 -222 5 -238 -1 -227 -5 -223 78 2 23 3
52 3 64 1 22 2 23 199 25 l197 3 0 100 0 100 -392 3 -393 2 -1 -40z"/>
<path d="M5348 2392 l-28 -3 0 -100 0 -99 48 -1 c205 -3 544 0 549 4 7 8 8
185 1 193 -7 6 -522 11 -570 6z"/>
<path d="M7078 2390 c-21 -6 -23 -10 -23 -99 -1 -51 3 -95 8 -98 13 -8 572 -7
585 1 7 4 11 43 11 97 0 72 -3 91 -15 96 -20 7 -535 10 -566 3z"/>
</g>
</svg>
