<svg xmlns="http://www.w3.org/2000/svg" width="72" height="45" viewBox="0 0 72 45"><defs><style>.a{fill:#f9f9f9;}.b{fill:#004a98;}.c{fill:#fff;}</style></defs><g transform="translate(-360.612 -354.372)"><path class="a" d="M4.182,0H67.818A4.182,4.182,0,0,1,72,4.182V40.82A4.18,4.18,0,0,1,67.82,45H4.181A4.181,4.181,0,0,1,0,40.819V4.182A4.182,4.182,0,0,1,4.182,0Z" transform="translate(360.612 354.372)"/><g transform="translate(378.195 364.034)"><path class="b" d="M418.16,386.086c4.069.02,7.783-3.317,7.783-7.378a7.6,7.6,0,0,0-7.783-7.506h-3.5a7.34,7.34,0,0,0-7.506,7.506,7.457,7.457,0,0,0,7.506,7.378Z" transform="translate(-398.02 -371.203)"/><path class="c" d="M416.748,383.118v-8.061a4.315,4.315,0,0,1,0,8.061m-5.863-4.03a4.327,4.327,0,0,1,2.772-4.031v8.06a4.325,4.325,0,0,1-2.772-4.029m4.318-6.814a6.813,6.813,0,1,0,6.813,6.814,6.814,6.814,0,0,0-6.813-6.814" transform="translate(-398.547 -371.659)"/><path class="b" d="M392.785,402.591c0,.607.433.677.819.677a2.192,2.192,0,0,0,2.258-2.455,2.365,2.365,0,0,0-2.463-2.533c-.324,0-.472.023-.614.032Zm-.772-3.69c0-.708-.37-.66-.723-.668v-.2c.307.015.621.015.929.015.329,0,.779-.015,1.361-.015a2.868,2.868,0,0,1,3.148,2.755c0,.778-.457,2.738-3.243,2.738-.4,0-.772-.016-1.141-.016-.354,0-.7.008-1.054.016v-.2c.472-.048.7-.063.723-.6Z" transform="translate(-391.263 -382.629)"/><path class="b" d="M402.085,398.648a.386.386,0,1,1,0-.773.386.386,0,0,1,.385.379.394.394,0,0,1-.385.394m-.842,4.6h.149c.22,0,.378,0,.378-.261v-2.133c0-.346-.118-.393-.41-.551v-.125c.37-.111.812-.26.842-.283a.276.276,0,0,1,.142-.04c.038,0,.055.048.055.11v3.021c0,.261.173.261.393.261h.134v.2c-.268,0-.544-.016-.826-.016s-.567.008-.858.016Z" transform="translate(-395.503 -382.564)"/><path class="b" d="M405.092,402.377c0-.29-.087-.369-.455-.518v-.15a10.635,10.635,0,0,0,1.037-.378c.024,0,.047.016.047.079v.511a2.312,2.312,0,0,1,1.363-.59c.668,0,.9.488.9,1.1v2.03c0,.261.173.261.393.261h.142v.2c-.276,0-.551-.016-.834-.016s-.566.008-.851.016v-.2h.143c.22,0,.377,0,.377-.261v-2.037c0-.449-.274-.669-.723-.669a2.1,2.1,0,0,0-.914.379v2.328c0,.261.175.261.394.261h.142v.2c-.276,0-.552-.016-.835-.016s-.567.008-.851.016v-.2h.143c.22,0,.377,0,.377-.261Z" transform="translate(-396.921 -384.036)"/><path class="b" d="M413.422,402.5c.2,0,.22-.1.22-.2a.667.667,0,0,0-.685-.724c-.48,0-.81.354-.9.921Zm-1.393.252a2.01,2.01,0,0,0,0,.456,1.316,1.316,0,0,0,1.157,1.362,1.509,1.509,0,0,0,1.063-.527l.109.11a1.841,1.841,0,0,1-1.455.889,1.58,1.58,0,0,1-1.5-1.715c0-1.543,1.038-2,1.589-2a1.248,1.248,0,0,1,1.329,1.235,1.061,1.061,0,0,1-.006.142l-.071.048Z" transform="translate(-399.829 -384.036)"/><path class="b" d="M416.8,404.723h.212c.221,0,.378,0,.378-.261v-2.211c0-.243-.29-.291-.409-.355v-.118c.574-.244.889-.448.961-.448.047,0,.07.024.07.1v.708h.017c.2-.307.526-.811,1.007-.811a.429.429,0,0,1,.448.417.382.382,0,0,1-.37.4c-.244,0-.244-.189-.519-.189a.664.664,0,0,0-.575.653v1.848c0,.261.157.261.378.261h.44v.2c-.433-.007-.763-.016-1.1-.016s-.653.008-.936.016Z" transform="translate(-402.13 -384.036)"/><path class="b" d="M421.974,403.833a1.037,1.037,0,0,0,.992.96.555.555,0,0,0,.636-.559c0-.928-1.715-.63-1.715-1.9a1.082,1.082,0,0,1,1.22-1.007,2.064,2.064,0,0,1,.9.228l.055.8h-.181a.808.808,0,0,0-.858-.778.553.553,0,0,0-.614.52c0,.921,1.825.637,1.825,1.872,0,.52-.416,1.07-1.353,1.07a2.073,2.073,0,0,1-.96-.266l-.087-.9Z" transform="translate(-404.273 -384.036)"/><path class="b" d="M434.742,399.363h-.2a1.5,1.5,0,0,0-1.684-1.29,2.243,2.243,0,0,0-2.22,2.495,2.563,2.563,0,0,0,2.344,2.731,1.6,1.6,0,0,0,1.583-1.362l.181.047-.181,1.149a4.41,4.41,0,0,1-1.74.417,2.8,2.8,0,0,1-3.005-2.958,2.892,2.892,0,0,1,2.981-2.77,5.679,5.679,0,0,1,1.858.418Z" transform="translate(-407.678 -382.541)"/><path class="b" d="M438.886,402.93h.149c.221,0,.378,0,.378-.261v-4.382c0-.512-.118-.528-.417-.614v-.126a4.918,4.918,0,0,0,.81-.339.8.8,0,0,1,.173-.086c.048,0,.064.047.064.11v5.437c0,.261.173.261.394.261h.131v.2c-.266,0-.541-.016-.825-.016s-.567.008-.857.016Z" transform="translate(-411.537 -382.244)"/><path class="b" d="M445.187,404.582c0,.142.086.15.22.15.094,0,.212-.007.315-.007v.165a8.224,8.224,0,0,0-1.133.243l-.04-.023v-.637a2.12,2.12,0,0,1-1.393.66.848.848,0,0,1-.866-.935v-2.015c0-.2-.031-.4-.471-.44v-.15c.283-.008.912-.055,1.014-.055s.087.055.087.228v2.03c0,.236,0,.912.685.912a1.762,1.762,0,0,0,.952-.479v-2.118c0-.157-.378-.243-.661-.322v-.142c.708-.048,1.149-.11,1.227-.11s.064.055.064.142Z" transform="translate(-412.787 -384.124)"/><path class="b" d="M449.637,402.245a.847.847,0,0,0,.81.8c.842,0,1.2-.827,1.2-1.528a1.5,1.5,0,0,0-1.258-1.557,1.212,1.212,0,0,0-.748.371Zm0-2.141a1.989,1.989,0,0,1,1.173-.566,1.532,1.532,0,0,1,1.463,1.652,1.987,1.987,0,0,1-1.882,2.061,2.318,2.318,0,0,1-1.092-.274l-.237.181-.165-.087a9.2,9.2,0,0,0,.111-1.4v-3.383c0-.512-.119-.528-.418-.614v-.126a4.906,4.906,0,0,0,.811-.339.808.808,0,0,1,.174-.086c.047,0,.063.047.063.11Z" transform="translate(-415.67 -382.244)"/><path class="b" d="M391.274,413.444h.061c.154,0,.316-.022.316-.245v-2.242c0-.223-.162-.245-.316-.245h-.061v-.129c.167,0,.425.017.635.017s.471-.017.671-.017v.129h-.06c-.153,0-.316.021-.316.245V413.2c0,.223.164.245.316.245h.06v.129c-.2,0-.463-.018-.676-.018s-.463.018-.63.018Z" transform="translate(-391.256 -387.978)"/><path class="b" d="M392.549,413.54v-.091h-.041c-.153,0-.335-.026-.336-.263v-2.242c0-.237.183-.263.336-.263h.041v-.091c-.2,0-.446.017-.653.017s-.449-.016-.615-.017v.091h.04c.153,0,.335.026.335.263v2.242c0,.238-.182.263-.335.263h-.04v.091c.166,0,.408-.017.61-.017s.456.017.658.017m.018.036c-.206,0-.463-.017-.676-.017s-.461.017-.63.017h-.018v-.165h.078c.156,0,.3-.016.3-.226v-2.242c0-.21-.143-.223-.3-.226h-.078v-.166h.018c.169,0,.425.017.635.017s.47-.017.671-.017h.019v.166h-.079c-.155,0-.3.016-.3.226v2.242c0,.21.142.222.3.226h.079v.165Z" transform="translate(-391.243 -387.964)"/><path class="b" d="M396.613,412.729l.008-.009v-1.6a.353.353,0,0,0-.373-.4h-.094v-.129c.2,0,.4.017.6.017.176,0,.352-.017.527-.017v.129h-.064c-.18,0-.382.034-.382.544V413.2a2.814,2.814,0,0,0,.026.432H396.7l-2.205-2.457v1.763c0,.374.072.5.4.5h.073v.129c-.184,0-.368-.018-.552-.018s-.39.018-.582.018v-.129h.059c.3,0,.386-.2.386-.544v-1.8a.384.384,0,0,0-.389-.385h-.056v-.129c.162,0,.329.017.491.017.129,0,.253-.017.382-.017Z" transform="translate(-392.347 -387.978)"/><path class="b" d="M396.589,412.707h0l0,0Zm.01.009.013-.013Zm.086.889h.141a2.746,2.746,0,0,1-.023-.413v-1.949c0-.513.215-.562.4-.562h.045v-.091c-.169,0-.338.017-.509.017-.2,0-.386-.016-.58-.017v.091h.075a.374.374,0,0,1,.391.422l-.005,1.618-.009.008-.014.014-1.9-2.153c-.127,0-.251.017-.382.017-.157,0-.318-.016-.474-.017v.091h.038a.4.4,0,0,1,.408.4v1.8c0,.342-.1.561-.4.563h-.041v.092c.185,0,.377-.017.564-.017s.356.016.533.017v-.091h-.053c-.337,0-.421-.147-.421-.521v-1.812Zm.162.037-.177-.006-2.172-2.422v1.716c0,.374.061.478.383.482h.092v.165h-.019c-.185,0-.37-.017-.552-.017s-.389.017-.582.017H393.8v-.165h.078c.284,0,.364-.183.368-.524v-1.8a.368.368,0,0,0-.371-.367H393.8v-.165h.019c.163,0,.331.015.491.015.127,0,.252-.015.4-.01l1.882,2.118V411.1c0-.341-.23-.382-.355-.385h-.113v-.165h.019c.2,0,.4.015.6.015.174,0,.35-.015.527-.015h.019v.165H397.2c-.177.005-.359.02-.363.525v1.949a2.812,2.812,0,0,0,.025.428l0,.022Z" transform="translate(-392.333 -387.965)"/><path class="b" d="M400.565,410.7c-.322,0-.335.076-.4.389h-.128c.016-.12.038-.239.052-.364a2.724,2.724,0,0,0,.025-.363h.1c.034.129.142.123.257.123h2.21c.116,0,.222,0,.23-.133l.1.018c-.017.115-.035.231-.047.346s-.009.232-.009.347l-.129.048c-.009-.158-.031-.412-.317-.412h-.7v2.278c0,.33.15.368.355.368h.082v.129c-.167,0-.467-.018-.7-.018-.258,0-.557.018-.725.018v-.129h.082c.237,0,.355-.022.355-.36V410.7Z" transform="translate(-394.99 -387.879)"/><path class="b" d="M402.236,413.476c-.169,0-.468-.017-.7-.017-.257,0-.556.017-.725.017H400.8v-.165h.1c.237,0,.332-.008.336-.34V410.7h-.683v-.038h.72v2.306c0,.344-.139.378-.374.379h-.062v.09c.169,0,.457-.017.705-.017.223,0,.509.016.678.017v-.09h-.063c-.206,0-.373-.051-.373-.387v-2.3h.721c.286,0,.324.246.334.4l.092-.034c0-.111,0-.223.008-.336s.028-.219.045-.328l-.065-.011c-.021.124-.14.13-.248.129h-2.23c-.1,0-.212,0-.25-.124h-.071a2.654,2.654,0,0,1-.026.347c-.012.118-.033.23-.047.344h.09c.057-.3.094-.4.414-.392v.038c-.317.006-.311.059-.381.375l0,.015H400l0-.022c.017-.12.038-.239.052-.364a2.494,2.494,0,0,0,.026-.361v-.018h.135l0,.013c.029.108.109.109.219.111h2.23c.119,0,.206,0,.214-.115v-.02l.02,0,.12.019,0,.019c-.017.115-.033.23-.045.345s-.009.23-.009.345v.013l-.012.005-.151.055V411.1c-.013-.16-.029-.393-.3-.393h-.684v2.26c0,.323.131.344.336.348h.1v.165Z" transform="translate(-394.973 -387.863)"/><path class="b" d="M405.468,413.444h.06c.154,0,.317-.022.317-.245v-2.242c0-.223-.162-.245-.317-.245h-.06v-.129c.261,0,.707.017,1.064.017s.806-.017,1.1-.017c-.007.184,0,.468.009.656l-.128.034c-.021-.278-.072-.5-.522-.5h-.595v1.121h.509c.257,0,.313-.145.338-.378h.129c-.009.168-.013.335-.013.5s0,.325.013.488l-.129.025c-.025-.256-.038-.423-.333-.423h-.514v1c0,.278.248.278.521.278.514,0,.741-.034.87-.521l.12.029c-.056.227-.107.454-.145.682-.275,0-.768-.018-1.153-.018s-.894.018-1.138.018Z" transform="translate(-397.302 -387.978)"/><path class="b" d="M407.728,413.54c.037-.216.087-.433.139-.648l-.085-.021c-.128.479-.376.522-.882.518-.269,0-.54,0-.54-.3v-1.015h.532c.3,0,.329.177.35.42l.093-.02c-.008-.157-.012-.315-.012-.472s0-.321.012-.483h-.093c-.024.223-.093.379-.354.377h-.528V410.74h.613c.445,0,.519.227.538.5l.093-.025c-.007-.121-.013-.276-.013-.419,0-.073,0-.142,0-.2-.291,0-.725.017-1.078.017s-.784-.016-1.047-.017v.091h.042c.153,0,.335.026.335.263v2.242c0,.238-.183.263-.335.264h-.042v.09c.25,0,.745-.017,1.121-.017s.859.017,1.136.017m.016.037c-.276,0-.767-.017-1.152-.017s-.894.017-1.138.017h-.019v-.165h.079c.155,0,.3-.016.3-.226v-2.242c0-.209-.142-.223-.3-.226h-.079v-.165h.019c.261,0,.707.015,1.064.015s.806-.015,1.1-.015h.02v.018c0,.065-.005.141-.005.221,0,.149.005.31.013.432v.016l-.014,0-.15.039,0-.022c-.025-.277-.062-.479-.5-.483H406.4v1.084h.491c.246,0,.29-.129.319-.359l0-.017h.164v.02c-.007.167-.013.334-.013.5s.006.324.013.487v.016l-.015,0-.149.03,0-.021c-.029-.262-.03-.4-.315-.408h-.5v.979c0,.261.226.259.5.261.515,0,.723-.028.851-.51l.005-.017.018,0,.137.035,0,.018c-.056.226-.107.453-.145.68l0,.014Z" transform="translate(-397.288 -387.965)"/><path class="b" d="M410.983,412.03h.209c.429,0,.659-.162.659-.668a.584.584,0,0,0-.625-.625,2.153,2.153,0,0,0-.243.017Zm-.548-.993c0-.312-.172-.325-.3-.325h-.076v-.129c.137,0,.4.017.664.017s.462-.017.689-.017c.539,0,1.019.145,1.019.755a.807.807,0,0,1-.595.753l.731,1.1a.478.478,0,0,0,.416.257v.129c-.142,0-.279-.018-.42-.018s-.27.018-.4.018a11.874,11.874,0,0,1-.891-1.389h-.282v.917c0,.33.153.343.35.343h.077v.129c-.243,0-.491-.018-.736-.018-.206,0-.406.018-.62.018v-.129h.076c.16,0,.3-.073.3-.231Z" transform="translate(-399.256 -387.978)"/><path class="b" d="M411.178,412c.424,0,.638-.151.642-.649a.567.567,0,0,0-.607-.607,1.764,1.764,0,0,0-.226.016V412Zm-.209.037h-.019v-1.311l.016,0a1.934,1.934,0,0,1,.246-.017.6.6,0,0,1,.644.643c0,.511-.247.685-.678.685Zm0,.117h.293l0,.01a13.148,13.148,0,0,0,.877,1.378c.13,0,.267-.017.4-.017s.269.014.4.017v-.094a.492.492,0,0,1-.412-.263l-.744-1.114.021-.009a.788.788,0,0,0,.583-.735c0-.595-.462-.733-1-.736-.226,0-.432.017-.689.017s-.506-.016-.646-.017v.091h.059c.134,0,.323.022.323.344V413.2c0,.172-.161.25-.323.25h-.059v.09c.206,0,.4-.017.6-.017.241,0,.482.017.719.017v-.09h-.059c-.2,0-.369-.024-.369-.362v-.935Zm1.995,1.424c-.143,0-.28-.017-.42-.017s-.267.017-.417.01a11.953,11.953,0,0,1-.886-1.38h-.254v.9c0,.322.134.32.332.324h.1v.165h-.02c-.244,0-.494-.017-.736-.017-.2,0-.4.017-.619.017h-.02v-.165h.1c.155,0,.285-.067.286-.212v-2.176c0-.3-.152-.3-.286-.307h-.1v-.166h.02c.139,0,.4.017.664.017s.46-.017.689-.017c.54,0,1.036.15,1.037.773a.821.821,0,0,1-.585.762l.719,1.077a.456.456,0,0,0,.4.248l.016,0v.162Z" transform="translate(-399.241 -387.964)"/><path class="b" d="M418.151,412.729l.007-.009v-1.6a.353.353,0,0,0-.373-.4h-.094v-.129c.2,0,.4.017.6.017.176,0,.35-.017.528-.017v.129h-.065c-.179,0-.381.034-.381.544V413.2a2.889,2.889,0,0,0,.026.432h-.163l-2.2-2.457v1.763c0,.374.072.5.4.5h.073v.129c-.184,0-.369-.018-.552-.018s-.391.018-.582.018v-.129h.059c.3,0,.386-.2.386-.544v-1.8a.384.384,0,0,0-.389-.385h-.056v-.129c.161,0,.329.017.49.017.128,0,.254-.017.382-.017Z" transform="translate(-401.522 -387.978)"/><path class="b" d="M418.125,412.706h0l0,0Zm.011.009.013-.013Zm.084.889h.141a2.984,2.984,0,0,1-.022-.413v-1.949c0-.513.217-.561.4-.562h.045v-.091c-.168,0-.337.017-.507.017-.2,0-.388-.016-.581-.017v.091h.075a.375.375,0,0,1,.392.421l-.006,1.619-.007.008-.014.014-1.9-2.153c-.127,0-.251.017-.382.017-.158,0-.319-.016-.475-.017v.091h.04a.4.4,0,0,1,.406.4v1.8c0,.344-.1.563-.4.564h-.042v.091c.186,0,.377-.017.564-.017s.358.016.535.017v-.09h-.055c-.337,0-.421-.147-.423-.521v-1.812Zm.163.037-.177-.006-2.173-2.422v1.716c.006.374.062.478.385.482h.091v.165h-.019c-.185,0-.369-.017-.553-.017s-.389.017-.58.017h-.021v-.165h.079c.282,0,.364-.183.367-.525v-1.8a.366.366,0,0,0-.37-.366h-.076v-.166h.021c.162,0,.33.017.491.017.126,0,.25-.017.393-.011l1.883,2.119V411.1c0-.34-.23-.382-.354-.384h-.113v-.166h.018c.2,0,.4.017.6.017.174,0,.35-.017.526-.017h.019v.166h-.083c-.176,0-.358.02-.362.525v1.949a2.849,2.849,0,0,0,.025.429l0,.021Z" transform="translate(-401.506 -387.964)"/><path class="b" d="M422.676,410.984h-.009l-.4,1.212h.8Zm-.625,1.9a1.661,1.661,0,0,0-.1.334c0,.129.181.15.321.15h.047v.129c-.172-.01-.346-.018-.518-.018-.154,0-.308.007-.462.018v-.129h.026a.388.388,0,0,0,.371-.279l.684-1.965a3.383,3.383,0,0,0,.16-.532,2.2,2.2,0,0,0,.389-.183.112.112,0,0,1,.034-.009.029.029,0,0,1,.03.013c.013.033.026.072.039.106l.787,2.239c.052.15.1.308.158.437a.274.274,0,0,0,.284.171h.025v.129c-.192-.01-.385-.018-.59-.018s-.425.007-.642.018v-.129h.047c.1,0,.266-.017.266-.124a1.327,1.327,0,0,0-.087-.309l-.166-.5h-.972Z" transform="translate(-404.065 -387.899)"/><path class="b" d="M422.643,410.975l.01,0Zm-.363,1.187h.75l-.373-1.147Zm-.051.037.409-1.249h.024v.018h0v-.018h.012l.407,1.249Zm.875,1.259c.211-.007.42-.016.624-.016s.384.009.571.016v-.09h-.006a.29.29,0,0,1-.3-.182c-.056-.13-.108-.288-.159-.439l-.788-2.239c-.014-.033-.026-.072-.037-.1,0,0,0,0-.006,0H423a.091.091,0,0,0-.025.005,1.562,1.562,0,0,1-.381.172,3.671,3.671,0,0,1-.16.534l-.685,1.965a.405.405,0,0,1-.389.29h-.007v.09c.147-.007.3-.016.444-.016.166,0,.335.009.5.016v-.09h-.028c-.139,0-.335-.017-.34-.168a1.678,1.678,0,0,1,.1-.34l.019.005-.019-.006.14-.457h1l.172.509a1.356,1.356,0,0,1,.086.315c-.006.131-.187.14-.284.142H423.1Zm1.213.038c-.192-.007-.385-.017-.589-.017s-.423.01-.642.017l-.02,0v-.168h.065c.1,0,.246-.022.247-.1a1.422,1.422,0,0,0-.084-.3l-.164-.484h-.944l-.133.432a1.815,1.815,0,0,0-.094.329c0,.105.162.129.3.129h.066v.168l-.02,0c-.172-.007-.346-.017-.517-.017-.153,0-.308.01-.461.017l-.021,0v-.168h.045a.364.364,0,0,0,.353-.264l.686-1.965a5.158,5.158,0,0,0,.171-.543,2.3,2.3,0,0,0,.388-.184.107.107,0,0,1,.041-.01.05.05,0,0,1,.047.025l.039.108.789,2.24c.05.149.1.308.158.434a.249.249,0,0,0,.265.159h.044v.168Z" transform="translate(-404.051 -387.884)"/><path class="b" d="M426.487,410.7c-.32,0-.334.076-.4.389h-.129c.017-.12.04-.239.052-.364a2.626,2.626,0,0,0,.025-.363h.1c.034.129.142.123.257.123h2.21c.115,0,.222,0,.231-.133l.1.018c-.017.115-.034.231-.047.346s-.009.232-.009.347l-.129.048c-.009-.158-.029-.412-.316-.412h-.7v2.278c0,.33.149.368.354.368h.081v.129c-.167,0-.467-.018-.7-.018-.257,0-.557.018-.724.018v-.129h.082c.237,0,.356-.022.356-.36V410.7Z" transform="translate(-406.031 -387.879)"/><path class="b" d="M428.158,413.476c-.168,0-.468-.017-.7-.017-.256,0-.557.017-.724.017h-.019v-.165h.1c.237,0,.331-.008.337-.34V410.7h-.683v-.038h.722v2.306c0,.344-.139.378-.375.378h-.063v.091c.169,0,.457-.017.706-.017.223,0,.51.016.679.017v-.091h-.063c-.206,0-.373-.05-.374-.386v-2.3h.722c.288,0,.324.246.333.4l.093-.034c0-.111,0-.223.009-.336s.028-.219.043-.328l-.065-.011c-.018.124-.139.13-.246.129H426.36c-.1,0-.211,0-.25-.125h-.071a2.389,2.389,0,0,1-.026.348c-.011.118-.032.231-.048.344h.092c.056-.3.094-.4.413-.392v.038c-.317.005-.311.059-.379.375l0,.015h-.165l0-.021c.018-.121.039-.241.051-.365a2.431,2.431,0,0,0,.026-.361v-.018h.135l0,.013c.031.108.109.109.219.111h2.231c.118,0,.2,0,.212-.116v-.021l.021,0,.122.019,0,.019c-.018.115-.033.23-.047.345s-.009.23-.009.345v.013l-.013.005-.151.055V411.1c-.012-.16-.029-.393-.3-.393h-.684v2.26c0,.323.132.344.336.348h.1v.165Z" transform="translate(-406.015 -387.863)"/><path class="b" d="M431.428,413.444h.059c.156,0,.317-.022.317-.245v-2.242c0-.223-.161-.245-.317-.245h-.059v-.129c.166,0,.423.017.632.017s.472-.017.673-.017v.129h-.059c-.156,0-.319.021-.319.245V413.2c0,.223.163.245.319.245h.059v.129c-.206,0-.463-.018-.677-.018s-.462.018-.629.018Z" transform="translate(-408.36 -387.978)"/><path class="b" d="M432.7,413.54v-.091h-.039c-.154,0-.336-.026-.336-.263v-2.242c0-.237.182-.263.336-.263h.039v-.091c-.2,0-.444.017-.654.017s-.448-.016-.614-.017v.091h.041c.153,0,.336.026.336.263v2.242c0,.238-.182.263-.336.263h-.041v.091c.166,0,.407-.017.611-.017s.455.016.657.017m.02.037c-.207,0-.463-.017-.677-.017s-.462.017-.629.017h-.02v-.165h.078c.156,0,.3-.016.3-.226v-2.242c0-.209-.142-.223-.3-.226h-.078v-.165h.02c.167,0,.424.015.632.015s.47-.015.673-.015h.018v.165h-.076c-.158,0-.3.017-.3.226v2.242c0,.21.142.223.3.226h.076v.165Z" transform="translate(-408.346 -387.965)"/><path class="b" d="M435.57,413.4c.831,0,.975-.732.975-1.357s-.336-1.383-1.048-1.383c-.75,0-.972.668-.972,1.24,0,.767.351,1.5,1.045,1.5m-.065-2.929a1.5,1.5,0,0,1,1.64,1.478,1.569,1.569,0,0,1-1.617,1.639,1.513,1.513,0,0,1-1.6-1.537,1.558,1.558,0,0,1,1.58-1.58" transform="translate(-409.424 -387.93)"/><path class="b" d="M434.491,411.887c0-.576.227-1.259.991-1.259.727,0,1.066.773,1.068,1.4s-.148,1.375-.994,1.375v-.036c.814,0,.955-.714.957-1.339s-.334-1.364-1.03-1.365c-.734,0-.952.653-.953,1.223,0,.763.349,1.479,1.027,1.481v.036c-.711,0-1.063-.746-1.065-1.517m-.6.151a1.579,1.579,0,0,1,1.6-1.6v.038a1.54,1.54,0,0,0-1.563,1.561,1.5,1.5,0,0,0,1.584,1.518,1.553,1.553,0,0,0,1.6-1.622,1.483,1.483,0,0,0-1.622-1.457v-.038a1.524,1.524,0,0,1,1.658,1.5,1.592,1.592,0,0,1-1.637,1.659,1.534,1.534,0,0,1-1.62-1.555" transform="translate(-409.41 -387.916)"/><path class="b" d="M442.5,412.729l.01-.009v-1.6a.354.354,0,0,0-.374-.4h-.092v-.129c.2,0,.4.017.6.017.176,0,.351-.017.528-.017v.129H443.1c-.18,0-.382.034-.382.544V413.2a2.68,2.68,0,0,0,.026.432h-.163l-2.2-2.457v1.763c0,.374.072.5.4.5h.073v.129c-.184,0-.368-.018-.552-.018s-.39.018-.584.018v-.129h.061c.3,0,.386-.2.386-.544v-1.8a.384.384,0,0,0-.39-.385h-.057v-.129c.162,0,.33.017.493.017.129,0,.253-.017.38-.017Z" transform="translate(-411.892 -387.978)"/><path class="b" d="M442.475,412.707h0l0,0Zm.009.009.014-.013Zm.087.889h.14a3.084,3.084,0,0,1-.022-.413v-1.949c0-.514.216-.561.4-.562h.045v-.091c-.169,0-.338.017-.509.017-.2,0-.386-.016-.579-.017v.091h.074a.375.375,0,0,1,.391.422l0,1.618-.009.008-.014.014-1.905-2.153c-.126,0-.251.017-.381.017-.158,0-.319-.016-.475-.017v.091h.038a.4.4,0,0,1,.408.4v1.8c0,.342-.1.561-.4.563h-.042v.091c.187,0,.377-.017.565-.017s.356.016.534.017v-.09h-.055c-.336,0-.42-.147-.42-.521v-1.812Zm.163.037-.177-.006-2.173-2.422v1.716c.006.374.063.478.384.481h.092v.166h-.019c-.185,0-.369-.017-.552-.017s-.389.017-.583.017h-.018v-.166h.079c.282,0,.363-.182.367-.523v-1.8a.366.366,0,0,0-.371-.366h-.075v-.165h.018c.165,0,.331.015.493.015.127,0,.25-.015.4-.01l1.881,2.118V411.1c0-.341-.229-.382-.355-.385h-.113v-.165h.02c.2,0,.4.015.6.015.175,0,.35-.015.528-.015h.018v.165h-.082c-.177.005-.359.021-.363.525v1.949a2.771,2.771,0,0,0,.025.429l0,.021Z" transform="translate(-411.879 -387.965)"/><path class="b" d="M447.025,410.984h-.009l-.4,1.212h.8Zm-.626,1.9a1.783,1.783,0,0,0-.094.334c0,.129.18.15.321.15h.048v.129c-.172-.01-.348-.018-.519-.018-.154,0-.308.007-.462.018v-.129h.024a.388.388,0,0,0,.373-.279l.685-1.965a3.368,3.368,0,0,0,.157-.532,2.273,2.273,0,0,0,.392-.183.1.1,0,0,1,.034-.009.027.027,0,0,1,.029.013c.013.033.027.072.039.106l.787,2.239c.052.15.1.308.16.437a.271.271,0,0,0,.282.171h.026v.129c-.193-.01-.386-.018-.591-.018s-.425.007-.642.018v-.129h.047c.1,0,.266-.017.266-.124a1.359,1.359,0,0,0-.087-.309l-.166-.5h-.972Z" transform="translate(-414.437 -387.899)"/><path class="b" d="M446.994,410.976l.008,0Zm-.363,1.187h.749l-.373-1.146Zm-.052.037.411-1.249h.022v.018h0v-.018h.014l.4,1.249Zm.874,1.26c.213-.008.421-.017.625-.017s.385.009.572.016v-.09h-.007a.291.291,0,0,1-.3-.183c-.057-.13-.107-.288-.158-.438l-.788-2.24c-.012-.033-.026-.072-.036-.1,0-.005,0-.005-.007-.005h-.009a.088.088,0,0,0-.024.005,1.575,1.575,0,0,1-.381.172,3.668,3.668,0,0,1-.16.534l-.685,1.965a.407.407,0,0,1-.391.29H445.7v.09c.148-.007.294-.016.443-.016.166,0,.335.009.5.016v-.09h-.029c-.138,0-.334-.017-.34-.169a1.745,1.745,0,0,1,.1-.339l.017.005-.017-.006.141-.457h1l.171.509a1.281,1.281,0,0,1,.087.315c-.007.131-.187.14-.284.142h-.029Zm1.215.037c-.193-.007-.386-.017-.59-.017s-.423.01-.642.017l-.019,0v-.167h.065c.1,0,.247-.023.247-.1a1.448,1.448,0,0,0-.086-.3l-.162-.484h-.945l-.132.432a1.765,1.765,0,0,0-.094.328c0,.106.16.131.3.131h.066v.167l-.02,0c-.172-.007-.347-.017-.517-.017-.154,0-.307.01-.462.017l-.018,0v-.167h.042a.371.371,0,0,0,.356-.265l.685-1.965a5.432,5.432,0,0,0,.169-.543,2.267,2.267,0,0,0,.39-.184.1.1,0,0,1,.04-.01.047.047,0,0,1,.047.026c.013.032.025.072.039.106l.788,2.24c.051.149.1.308.158.435a.251.251,0,0,0,.264.16h.045v.167Z" transform="translate(-414.424 -387.885)"/><path class="b" d="M452.089,413.153c0,.172.119.222.257.24a2.986,2.986,0,0,0,.565-.01.611.611,0,0,0,.41-.23.975.975,0,0,0,.133-.309h.124c-.046.244-.107.484-.158.729-.375,0-.753-.018-1.13-.018s-.753.018-1.13.018v-.129h.059c.154,0,.322-.022.322-.287v-2.2c0-.223-.168-.245-.322-.245h-.059v-.129c.227,0,.449.017.676.017s.433-.017.651-.017v.129h-.107c-.164,0-.291,0-.291.231Z" transform="translate(-416.766 -387.978)"/><path class="b" d="M453.391,413.54c.049-.231.106-.459.151-.69h-.088a.971.971,0,0,1-.132.3.633.633,0,0,1-.424.238,3.236,3.236,0,0,1-.328.018c-.083,0-.164,0-.24-.01-.141-.016-.276-.075-.275-.258v-2.209c0-.239.151-.25.311-.25h.087v-.091c-.21,0-.418.017-.631.017s-.439-.016-.658-.017v.091h.041c.153,0,.34.026.34.263v2.2c0,.277-.185.305-.34.305h-.041v.091c.37,0,.739-.017,1.111-.017s.744.017,1.115.017m.015.037c-.378,0-.754-.017-1.13-.017s-.753.017-1.131.017h-.018v-.165h.078c.155,0,.3-.014.3-.268v-2.2c0-.208-.148-.223-.3-.226h-.078v-.165h.018c.228,0,.452.015.677.015s.432-.015.651-.015h.018v.165h-.125c-.166,0-.27,0-.274.213v2.209c0,.159.107.2.24.22.076.005.155.009.238.009a3.146,3.146,0,0,0,.324-.016.6.6,0,0,0,.4-.224.978.978,0,0,0,.129-.3l0-.014h.161l0,.022c-.048.245-.107.484-.159.728l0,.014Z" transform="translate(-416.752 -387.965)"/></g></g></svg>