<svg xmlns="http://www.w3.org/2000/svg" width="72" height="45" viewBox="0 0 72 45"><defs><style>.a{fill:#f9f9f9;}.b{fill:#00a551;}.c{fill:#0071bb;}.d{fill:#fff;}.e{fill:#ec1c24;}</style></defs><g transform="translate(-684.4 -467.236)"><path class="a" d="M4.182,0H67.82A4.18,4.18,0,0,1,72,4.18V40.818A4.182,4.182,0,0,1,67.818,45H4.181A4.181,4.181,0,0,1,0,40.819V4.182A4.182,4.182,0,0,1,4.182,0Z" transform="translate(684.4 467.236)"/><g transform="translate(707.756 476.883)"><path class="b" d="M763.174,498.422c.088,2.622.176,5.332.044,8a3.617,3.617,0,0,1-1.7,2.666,5.152,5.152,0,0,1-2.623.568l-3.475-.044-.022-22.249a3.764,3.764,0,0,1,2.667-3.147,48.206,48.206,0,0,1,5.07-.175l.087,1.137v12.631l-.044.044Z" transform="translate(-737.998 -484.041)"/><path class="c" d="M725.088,497.62V487.129a3.811,3.811,0,0,1,2.316-2.71c1.7-.525,3.672-.217,5.42-.263.087,1.707,0,3.848.044,5.334l.088,13.68c-.219,2.1.568,4.94-2.056,6.12-1.66.83-3.89.307-5.769.481l-.043-.306V497.62Z" transform="translate(-725.088 -484.069)"/><path class="d" d="M725.088,505.624a3.8,3.8,0,0,0,2.841,1.661c1.443.132,3.322.262,4.283-1.092.657-.7.263-1.66.394-2.578l-.044-1.661a16.1,16.1,0,0,0-2.535-.044c-.481,1.793.786,3.8-1.267,4.721a2.261,2.261,0,0,1-1.661-.262c-.786-.175-.35-1.443-1.4-1.093l-.612-.087Z" transform="translate(-725.088 -491.637)"/><path class="e" d="M748.02,485.6l.044,21.287a3.867,3.867,0,0,1-2.185,2.491c-1.661.567-3.716.306-5.551.306l-.088-22.423a3.43,3.43,0,0,1,1.7-2.535,4.407,4.407,0,0,1,2.273-.612h3.716Z" transform="translate(-731.542 -484.073)"/><path class="d" d="M747.863,501.976a4.4,4.4,0,0,1,.044.787c-1.311-.35-2.928-.743-4.109.219a2.178,2.178,0,0,0,.7,3.584,6.255,6.255,0,0,0,3.365-.22,1.258,1.258,0,0,1,0,.7h-5.027a2.6,2.6,0,0,1-1.966-1.529,2.69,2.69,0,0,1,.437-2.666,2.552,2.552,0,0,1,2.1-.918Z" transform="translate(-731.735 -491.661)"/><path class="d" d="M763.425,506.037a1.461,1.461,0,0,1-1.092,1.092h-6.12l-.218-.087c0-1.748-.045-3.409.044-5.114h3.89c1.223.131,2.579-.393,3.147.743a1.136,1.136,0,0,1-.175,1.224c-.174.305-.568.35-.655.568a1.81,1.81,0,0,1,1.18,1.005Zm-5.245-3.584a4.231,4.231,0,0,0-.044,1.66c.918-.042,2.1.306,2.71-.392a.866.866,0,0,0-.044-.92C760.1,502.19,759.055,502.584,758.18,502.453Zm2.361,2.4a11.529,11.529,0,0,0-2.448-.044,8.1,8.1,0,0,0,.087,1.793,5.861,5.861,0,0,0,2.622-.263.932.932,0,0,0,.263-.874A.915.915,0,0,0,760.541,504.856Z" transform="translate(-738.249 -491.656)"/></g></g></svg>