<svg xmlns="http://www.w3.org/2000/svg" width="72" height="45" viewBox="0 0 72 45"><defs><style>.a{fill:#f9f9f9;}.b{fill:#0066b2;}.c{fill:#f9a533;}</style></defs><g transform="translate(-198.309 -128.641)"><path class="a" d="M4.18,0H67.819A4.181,4.181,0,0,1,72,4.181V40.818A4.182,4.182,0,0,1,67.818,45H4.18A4.18,4.18,0,0,1,0,40.82V4.18A4.18,4.18,0,0,1,4.18,0Z" transform="translate(198.309 128.641)"/><g transform="translate(212.733 144.125)"><path class="b" d="M253.415,169.567H249.9l2.195-13.488h3.512Z" transform="translate(-234.758 -155.838)"/><path class="b" d="M235.668,156.079l-3.348,9.277-.4-2h0l-1.182-6.065a1.5,1.5,0,0,0-1.666-1.214h-5.535l-.065.228a13.132,13.132,0,0,1,3.674,1.542l3.05,11.718h3.659l5.587-13.488Z" transform="translate(-223.477 -155.838)"/><path class="b" d="M286.04,169.567h3.224l-2.811-13.488H283.63a1.615,1.615,0,0,0-1.622,1l-5.237,12.483h3.661l.732-2h4.465Zm-3.864-4.771,1.845-5.049,1.039,5.049Z" transform="translate(-246.227 -155.838)"/><path class="b" d="M269.8,159.143l.5-2.9a10.135,10.135,0,0,0-3.158-.588c-1.743,0-5.881.762-5.881,4.465,0,3.485,4.858,3.528,4.858,5.358s-4.357,1.5-5.8.349l-.522,3.028a9.833,9.833,0,0,0,3.964.762c2.4,0,6.012-1.241,6.012-4.618,0-3.507-4.9-3.834-4.9-5.359S268.3,158.314,269.8,159.143Z" transform="translate(-238.985 -155.658)"/><path class="c" d="M231.924,163.359l-1.182-6.065a1.5,1.5,0,0,0-1.666-1.214h-5.535l-.065.228a13.621,13.621,0,0,1,5.213,2.616A10.512,10.512,0,0,1,231.924,163.359Z" transform="translate(-223.477 -155.838)"/></g></g></svg>