<svg width="142" height="142" viewBox="0 0 142 142" fill="none" xmlns="http://www.w3.org/2000/svg">
<path d="M71 142C110.212 142 142 110.212 142 71C142 31.7878 110.212 0 71 0C31.7878 0 0 31.7878 0 71C0 110.212 31.7878 142 71 142Z" fill="#FBC02D"/>
<path d="M91 74H51C48.7909 74 47 75.7909 47 78V118C47 120.209 48.7909 122 51 122H91C93.2091 122 95 120.209 95 118V78C95 75.7909 93.2091 74 91 74Z" fill="white"/>
<path d="M71 44C69.7816 44.0003 68.5663 43.8778 67.3725 43.6344C66.2143 43.3971 65.0826 43.0458 63.9937 42.5855C62.9234 42.1323 61.8994 41.5765 60.9363 40.9259C59.9804 40.2797 59.0883 39.5438 58.2723 38.7281C57.4566 37.912 56.7206 37.02 56.0744 36.0641C55.4238 35.1008 54.868 34.0769 54.4149 33.0065C53.9546 31.9176 53.6033 30.7858 53.366 29.6278C53.1224 28.4339 52.9998 27.2185 53 26C52.9997 24.7816 53.1222 23.5663 53.3656 22.3724C53.6029 21.2143 53.9542 20.0826 54.4145 18.9937C54.8677 17.9233 55.4235 16.8993 56.0741 15.9361C56.7202 14.9802 57.4562 14.0882 58.2719 13.2721C59.0879 12.4567 59.9799 11.721 60.9357 11.075C61.8989 10.4244 62.9228 9.86862 63.9931 9.41544C65.082 8.95517 66.2138 8.60383 67.3719 8.36656C68.5658 8.12277 69.7814 7.99996 71 8C72.2184 7.99969 73.4337 8.12218 74.6275 8.36563C75.7857 8.60289 76.9174 8.95423 78.0063 9.4145C79.0767 9.86768 80.1007 10.4235 81.0639 11.0741C82.0198 11.7202 82.9119 12.4562 83.7279 13.2719C84.5434 14.088 85.2791 14.98 85.925 15.9359C86.5756 16.8992 87.1314 17.9231 87.5845 18.9935C88.0448 20.0824 88.3962 21.2141 88.6334 22.3722C88.8772 23.5661 89 24.7815 89 26C89.0003 27.2184 88.8778 28.4337 88.6344 29.6276C88.3971 30.7857 88.0458 31.9174 87.5855 33.0063C87.1323 34.0767 86.5765 35.1007 85.9259 36.0639C85.2798 37.0198 84.5438 37.9119 83.7281 38.7279C82.912 39.5436 82.02 40.2796 81.0641 40.9258C80.1009 41.5764 79.0769 42.1321 78.0065 42.5853C76.9176 43.0456 75.7858 43.3969 74.6277 43.6342C73.4338 43.8777 72.2185 44.0003 71 44ZM72.5 31.9692V33.5C72.4989 34.1017 72.6191 34.6975 72.8536 35.2516C73.0794 35.7864 73.4069 36.2722 73.8178 36.6823C74.2275 37.0933 74.7132 37.421 75.2478 37.6469C75.8021 37.8814 76.3981 38.0015 77 38C77.6017 38.0012 78.1975 37.8808 78.7516 37.6462C79.2863 37.4202 79.7721 37.0926 80.1819 36.6815C80.5929 36.2715 80.9204 35.7857 81.1462 35.2509C81.3806 34.697 81.501 34.1015 81.5 33.5C81.5006 32.9911 81.4148 32.4859 81.2461 32.0058C81.0833 31.5428 80.8454 31.1097 80.5421 30.7239C81.107 30.5688 81.6787 30.3965 82.2412 30.2116C82.6558 29.1037 82.9038 27.9404 82.9769 26.7598C79.1592 28.2479 75.0964 29.0078 70.9989 29C66.9021 29.0071 62.8404 28.247 59.0234 26.759C59.0967 27.9397 59.3446 29.103 59.7592 30.2109C63.3869 31.401 67.1812 32.0048 70.9991 31.9996C71.496 31.9996 72.0011 31.9893 72.5002 31.9691L72.5 31.9692Z" fill="white"/>
<path fill-rule="evenodd" clip-rule="evenodd" d="M50.5456 59.9164C50.779 59.6458 51.221 59.6458 51.4544 59.9164C52.5547 61.1923 54.183 62 56 62C57.817 62 59.4453 61.1923 60.5456 59.9164C60.779 59.6458 61.221 59.6458 61.4544 59.9164C62.5547 61.1923 64.183 62 66 62C67.817 62 69.4453 61.1923 70.5456 59.9164C70.779 59.6458 71.221 59.6458 71.4544 59.9164C72.5547 61.1923 74.183 62 76 62C77.817 62 79.4453 61.1923 80.5456 59.9164C80.779 59.6458 81.221 59.6458 81.4544 59.9164C82.5547 61.1923 84.183 62 86 62C87.817 62 89.4453 61.1923 90.5456 59.9164C90.779 59.6458 91.221 59.6458 91.4544 59.9164C92.5547 61.1923 94.183 62 96 62C99.3137 62 102 59.3137 102 56C102 52.6863 99.3137 50 96 50C94.183 50 92.5547 50.8077 91.4544 52.0836C91.221 52.3542 90.779 52.3542 90.5456 52.0836C89.4453 50.8077 87.817 50 86 50C84.183 50 82.5547 50.8077 81.4544 52.0836C81.221 52.3542 80.779 52.3542 80.5456 52.0836C79.4453 50.8077 77.817 50 76 50C74.183 50 72.5547 50.8077 71.4544 52.0836C71.221 52.3542 70.779 52.3542 70.5456 52.0836C69.4453 50.8077 67.817 50 66 50C64.183 50 62.5547 50.8077 61.4544 52.0836C61.221 52.3542 60.779 52.3542 60.5456 52.0836C59.4453 50.8077 57.817 50 56 50C54.183 50 52.5547 50.8077 51.4544 52.0836C51.221 52.3542 50.779 52.3542 50.5456 52.0836C49.4453 50.8077 47.817 50 46 50C42.6863 50 40 52.6863 40 56C40 59.3137 42.6863 62 46 62C47.817 62 49.4453 61.1923 50.5456 59.9164ZM43.9275 57.6475C43.9275 57.8725 44.2725 58.0825 44.4675 58.0825C44.6025 58.0825 44.7075 58.015 44.7075 57.76C44.7075 57.6389 44.7044 57.4552 44.6981 57.2353C44.6929 57.053 44.4988 56.9399 44.3515 57.0475C44.0873 57.2403 43.9275 57.4559 43.9275 57.6475ZM45.5274 54.9587C45.525 55.1119 45.525 55.2639 45.525 55.4125C45.525 55.5456 45.6504 55.6431 45.7806 55.6154C46.1976 55.5266 46.6074 55.48 46.95 55.48C48.09 55.48 48.99 56.0875 48.99 57.1075C48.99 57.985 48.5325 58.645 47.355 58.9375C47.0805 58.9972 46.8108 59.0284 46.5647 59.0462C46.455 59.0541 46.3544 58.9869 46.317 58.8835L46.1564 58.4401C46.0974 58.2771 46.2182 58.1057 46.3914 58.1006C46.5938 58.0946 46.7826 58.0812 46.95 58.0525C47.55 57.9475 48.03 57.64 48.03 57.1C48.03 56.5975 47.58 56.305 46.935 56.305C46.54 56.305 46.1282 56.3609 45.7286 56.4583C45.6172 56.4854 45.542 56.5878 45.5452 56.7024C45.5497 56.8653 45.5546 57.024 45.5592 57.172L45.5592 57.1726L45.5592 57.1726C45.5691 57.4964 45.5775 57.7694 45.5775 57.925C45.5775 58.8475 45.24 59.0875 44.76 59.0875C44.0325 59.0875 43.005 58.465 43.005 57.6775C43.005 57.0627 43.6775 56.4346 44.5144 56.0315C44.6074 55.9867 44.6668 55.892 44.6648 55.7888C44.6625 55.6734 44.6625 55.558 44.6625 55.4426V55.4425V55.0835C44.6625 54.9403 44.5424 54.8276 44.3993 54.8325C44.3528 54.834 44.308 54.835 44.265 54.835C44.003 54.835 43.7185 54.8305 43.4534 54.8144C43.3261 54.8067 43.2284 54.701 43.2263 54.5735L43.2198 54.1842C43.2173 54.0326 43.3492 53.9141 43.5003 53.9272C43.7968 53.9531 44.0351 53.9575 44.2425 53.9575C44.3064 53.9575 44.3719 53.9558 44.4392 53.9533C44.5695 53.9483 44.673 53.8419 44.6751 53.7114C44.6775 53.5531 44.6775 53.4228 44.6775 53.335V53.335C44.6775 53.2511 44.669 53.1099 44.6577 52.9757C44.6446 52.8218 44.7656 52.6825 44.9201 52.6825H45.3657C45.5147 52.6825 45.6312 52.8121 45.6173 52.9604C45.6053 53.0885 45.593 53.2273 45.585 53.3275C45.5816 53.4026 45.5782 53.4808 45.5748 53.5614C45.5682 53.717 45.7043 53.8405 45.858 53.8154C46.1211 53.7724 46.3784 53.7214 46.6141 53.6648C46.7734 53.6266 46.9314 53.7427 46.9353 53.9065L46.9451 54.309C46.9479 54.4275 46.8672 54.532 46.7511 54.5557C46.4385 54.6195 46.09 54.6728 45.7446 54.7181C45.6225 54.7341 45.5293 54.8357 45.5274 54.9587ZM47.5929 54.3328C47.4649 54.2659 47.4154 54.1061 47.4866 53.9804L47.6517 53.6892C47.7168 53.5744 47.8599 53.5298 47.9774 53.5899C48.444 53.8283 49.023 54.1556 49.4002 54.3995C49.5091 54.47 49.5395 54.6133 49.4738 54.7251L49.2928 55.0328C49.2134 55.1677 49.0293 55.1995 48.901 55.1096C48.5404 54.8571 47.9904 54.5408 47.5929 54.3328ZM57.5934 56.0284C57.4675 55.8721 57.5378 55.6252 57.734 55.5829L58.1622 55.4905C58.2557 55.4703 58.3529 55.505 58.41 55.5817C58.8389 56.1577 59.035 56.6543 59.035 57.2425C59.035 58.36 58.03 59.17 56.4025 59.17C55.2325 59.17 54.4075 58.66 54.4075 57.4225C54.4075 57.2934 54.4191 57.1217 54.4367 56.9215C54.4488 56.7839 54.3485 56.662 54.2114 56.6457C53.8524 56.6033 53.521 56.5466 53.2292 56.4759C53.1152 56.4482 53.0399 56.3416 53.0467 56.2246L53.0683 55.854C53.078 55.6887 53.2428 55.5782 53.4026 55.6212C53.7043 55.7024 54.0109 55.7558 54.3117 55.7921C54.4447 55.8081 54.5643 55.7128 54.581 55.5798C54.5932 55.4831 54.6051 55.3856 54.6169 55.2879L54.6169 55.2878L54.617 55.2878L54.617 55.2877C54.6261 55.2122 54.6353 55.1365 54.6447 55.0609C54.6621 54.9208 54.5612 54.7935 54.4212 54.776C54.0648 54.7314 53.7125 54.6697 53.3962 54.5932C53.2814 54.5654 53.2051 54.4581 53.2123 54.3402L53.2327 54.0049C53.2427 53.8409 53.4058 53.7303 53.5652 53.7699C53.8641 53.8441 54.2 53.8985 54.5381 53.9349C54.6706 53.9492 54.789 53.8537 54.8026 53.7211C54.8117 53.6312 54.8191 53.5465 54.8259 53.4684L54.835 53.365C54.844 53.2436 54.853 53.1195 54.8555 52.9863C54.8584 52.8366 54.9814 52.7126 55.1309 52.7212L55.5991 52.7481C55.7529 52.757 55.8617 52.9015 55.8314 53.0525C55.8042 53.1879 55.7832 53.3065 55.765 53.425C55.7534 53.4908 55.7418 53.5747 55.7281 53.6734L55.7252 53.6943C55.7039 53.8477 55.8239 53.9857 55.9787 53.9808C56.2602 53.972 56.5214 53.9563 56.7497 53.9337C56.9051 53.9184 57.0426 54.0414 57.0373 54.1975L57.0249 54.5643C57.0207 54.6893 56.9248 54.7922 56.8002 54.803C56.4909 54.8296 56.1812 54.8449 55.7882 54.8489C55.6632 54.8502 55.5573 54.9423 55.541 55.0663C55.5083 55.3133 55.4765 55.5672 55.4485 55.8104C55.4453 55.8382 55.467 55.8625 55.495 55.8625C55.8653 55.8625 56.2946 55.8379 56.7033 55.8007C56.8539 55.787 56.9841 55.9068 56.9802 56.058L56.9707 56.4347C56.9674 56.5616 56.8695 56.6662 56.7429 56.6764C56.3919 56.7046 56.0299 56.725 55.6525 56.725H55.5859C55.4545 56.725 55.3451 56.8267 55.3363 56.9578C55.3283 57.0769 55.3225 57.1811 55.3225 57.265C55.3225 57.8725 55.6975 58.21 56.4325 58.21C57.4675 58.21 58.0375 57.7375 58.0375 57.1225C58.0375 56.7451 57.8768 56.3804 57.5934 56.0284ZM68.3051 53.7302C68.3025 53.5724 68.156 53.4565 68.001 53.4865C67.2689 53.6283 66.4836 53.7182 65.784 53.7639C65.668 53.7715 65.5772 53.6665 65.6 53.5525C65.6138 53.4874 65.6266 53.4224 65.6394 53.357C65.6554 53.2753 65.6715 53.1931 65.6899 53.11C65.7253 52.9495 65.6113 52.7881 65.447 52.781L64.9912 52.7615C64.8461 52.7553 64.7277 52.8737 64.7236 53.0189C64.7197 53.158 64.708 53.3022 64.685 53.5C64.6828 53.526 64.6794 53.5527 64.6753 53.5802C64.6564 53.7057 64.5443 53.7987 64.4176 53.7926C64.1148 53.7779 63.782 53.7447 63.4775 53.7024C63.3242 53.6811 63.185 53.7987 63.185 53.9534V54.3537C63.185 54.4822 63.2823 54.5899 63.4103 54.6009C63.6415 54.6207 63.8916 54.637 64.1561 54.6467C64.3159 54.6527 64.4324 54.8025 64.3925 54.9573C64.2256 55.6049 64.0018 56.3187 63.744 56.8881C63.6817 57.0257 63.7464 57.1904 63.8886 57.2414L64.3026 57.39C64.4156 57.4306 64.5392 57.3836 64.6032 57.2819C64.6349 57.2315 64.6677 57.1845 64.7075 57.1375C65.15 56.5675 65.9075 56.26 66.7625 56.26C67.4825 56.26 67.8725 56.635 67.8725 57.0775C67.8725 58.0861 66.479 58.3311 64.9873 58.1584C64.8066 58.1375 64.657 58.3042 64.7049 58.4796L64.82 58.9004C64.8471 58.9997 64.9328 59.0725 65.0353 59.0818C67.3406 59.2908 68.87 58.6801 68.87 57.0475C68.87 56.1025 68.075 55.4575 66.875 55.4575C66.4154 55.4575 66.0102 55.5187 65.6113 55.6595C65.3968 55.7352 65.1513 55.5296 65.2086 55.3094C65.2496 55.1521 65.2891 54.989 65.3261 54.8265C65.3511 54.7165 65.4456 54.636 65.5582 54.629C66.4214 54.5753 67.3875 54.4619 68.0998 54.3575C68.2233 54.3394 68.3135 54.232 68.3114 54.1072L68.3051 53.7302ZM74.7343 53.0162C74.7398 52.8666 74.8684 52.7484 75.0174 52.7636L75.5581 52.8187C75.7077 52.834 75.8099 52.977 75.7772 53.1239C75.7511 53.2412 75.7258 53.3587 75.705 53.4625C75.6823 53.5988 75.6513 53.7517 75.6187 53.9111C75.586 54.0712 75.714 54.2172 75.8772 54.2083C75.9936 54.2019 76.0965 54.1975 76.1775 54.1975C76.965 54.1975 77.52 54.55 77.52 55.615C77.52 56.4925 77.415 57.6775 77.1 58.3225C76.8525 58.84 76.44 59.005 75.8775 59.005C75.65 59.005 75.3796 58.9763 75.1538 58.9343C75.0554 58.9159 74.9818 58.836 74.9652 58.7373L74.8934 58.3096C74.8629 58.128 75.0336 57.9736 75.2144 58.0087C75.4176 58.048 75.6181 58.075 75.735 58.075C75.9825 58.075 76.1775 58 76.29 57.7525C76.5 57.34 76.5975 56.455 76.5975 55.72C76.5975 55.1275 76.3425 55.045 75.87 55.045C75.786 55.045 75.6727 55.0523 75.5402 55.0619C75.4326 55.0696 75.3424 55.1452 75.315 55.2495C75.0367 56.3116 74.5579 57.8225 73.9598 58.8631C73.8994 58.9681 73.7706 59.0098 73.6582 58.9648L73.1796 58.7733C73.0271 58.7123 72.9736 58.5232 73.0633 58.3856C73.6148 57.5385 74.0214 56.419 74.2791 55.5331C74.3283 55.3639 74.1881 55.2015 74.0133 55.2241C73.9048 55.2382 73.8112 55.2513 73.74 55.2625C73.5992 55.2776 73.3809 55.3061 73.1822 55.3346C73.038 55.3553 72.9048 55.2509 72.8929 55.1056L72.8567 54.6641C72.844 54.5101 72.9728 54.3814 73.1273 54.3819C73.244 54.3822 73.3596 54.3784 73.4781 54.3744L73.4782 54.3744L73.4782 54.3744L73.4783 54.3744L73.4783 54.3744C73.525 54.3729 73.5722 54.3713 73.62 54.37C73.8125 54.3638 74.0872 54.3473 74.3888 54.3248C74.5016 54.3164 74.5945 54.2327 74.6133 54.1211C74.679 53.731 74.7218 53.3577 74.7343 53.0162ZM77.6997 54.1904C77.6086 54.0508 77.6589 53.8559 77.8128 53.7918L78.2201 53.622C78.3282 53.577 78.4532 53.6124 78.5155 53.7115C78.9089 54.3359 79.3898 55.4159 79.6323 56.0978C79.6743 56.2159 79.6178 56.345 79.5045 56.3985L79.044 56.6158C78.9003 56.6836 78.7304 56.6022 78.6864 56.4495C78.4822 55.7409 78.103 54.809 77.6997 54.1904ZM84.9819 52.7347C84.8435 52.7115 84.7112 52.804 84.6883 52.9425L84.6281 53.3069C84.6056 53.4427 84.6971 53.5711 84.8331 53.5924C85.6216 53.7154 86.68 53.8376 87.4031 53.906C87.5358 53.9185 87.6542 53.8238 87.6722 53.6918L87.7234 53.3177C87.7431 53.1734 87.6361 53.0428 87.4908 53.0318C86.7742 52.9777 85.727 52.8596 84.9819 52.7347ZM87.7968 55.2194C87.9146 55.1274 87.9358 54.9539 87.8371 54.8417L87.5877 54.5582C87.5197 54.4809 87.4108 54.4522 87.3104 54.4749C87.2259 54.4941 87.13 54.5117 87.055 54.52C86.44 54.6025 84.7525 54.6775 84.4 54.6775C84.2568 54.6775 84.1135 54.6754 83.9848 54.6712C83.8295 54.6661 83.6999 54.7969 83.7135 54.9517L83.7534 55.407C83.7663 55.5544 83.9037 55.658 84.0501 55.6361C84.1604 55.6196 84.2837 55.6041 84.415 55.5925C84.6996 55.5675 85.1871 55.5259 85.6361 55.4943C85.8602 55.4785 85.981 55.7409 85.8242 55.9018C85.337 56.4015 84.7121 57.0292 84.246 57.4973C83.9912 57.7532 83.7839 57.9615 83.6725 58.075C83.5842 58.1633 83.4975 58.2439 83.4164 58.3154C83.29 58.427 83.2957 58.6302 83.4341 58.7265L83.8459 59.0126C83.9548 59.0883 84.1037 59.0657 84.187 58.9624C84.6533 58.3836 85.1301 57.8699 85.3675 57.6325C85.54 57.4525 85.6975 57.3325 85.8475 57.3325C85.9975 57.3325 86.155 57.43 86.245 57.6925C86.2584 57.7405 86.2738 57.7988 86.2907 57.8627L86.2907 57.8628L86.2908 57.8629L86.2908 57.8631C86.3398 58.0487 86.4012 58.2808 86.4625 58.4425C86.6425 58.93 87.025 59.08 87.73 59.08C88.0479 59.08 88.63 59.0489 88.9941 59.004C89.1071 58.99 89.1899 58.8957 89.1969 58.782L89.2251 58.3242C89.2351 58.1604 89.0873 58.0311 88.9248 58.0536C88.5994 58.0988 88.2111 58.1275 87.79 58.1275C87.4975 58.1275 87.3325 58.015 87.265 57.7825C87.2285 57.681 87.1919 57.5509 87.1554 57.4208L87.1553 57.4206C87.1244 57.3105 87.0934 57.2003 87.0625 57.1075C86.959 56.834 86.8264 56.6771 86.6144 56.608L86.606 56.605C86.603 56.6038 86.6001 56.6026 86.597 56.6012C86.5013 56.557 86.4465 56.4235 86.5226 56.3505C86.8057 56.0789 87.2762 55.6518 87.535 55.4275C87.5733 55.3977 87.6135 55.3655 87.6557 55.3315C87.7002 55.2958 87.7471 55.2582 87.7968 55.2194ZM94.066 52.9568C94.0739 52.8181 94.1906 52.71 94.3294 52.7161L94.7811 52.736C94.9425 52.7432 95.0562 52.8994 95.0197 53.0568C95.009 53.1028 94.9982 53.1507 94.9875 53.1998C94.9307 53.46 95.3197 53.6312 95.5341 53.4732C95.8443 53.2448 96.2153 53.0875 96.635 53.0875C97.67 53.0875 98.4725 54.1 98.4725 55.735C98.4725 57.7762 97.2537 58.7829 95.3809 59.1682C95.2822 59.1885 95.1817 59.1451 95.1266 59.0607L94.8666 58.662C94.7674 58.5099 94.8587 58.306 95.037 58.2711C96.4805 57.9892 97.46 57.4001 97.46 55.7425C97.46 54.595 97.0775 53.9575 96.4625 53.9575C95.585 53.9575 94.82 55.2775 94.7825 56.2525C94.7771 56.3986 94.7756 56.5642 94.7921 56.7747C94.8033 56.9187 94.698 57.0479 94.5538 57.0573L94.1311 57.0848C93.9997 57.0934 93.8838 56.9986 93.8689 56.8678C93.8379 56.594 93.8075 56.2391 93.8075 55.8625C93.8075 55.1725 93.905 54.25 94.0175 53.485C94.0417 53.3107 94.0565 53.1238 94.066 52.9568Z" fill="white"/>
<path d="M67.1638 68.9338C67.0417 69.0413 66.8831 69.095 66.6877 69.095C66.4338 69.095 66.2446 69.0059 66.1201 68.8276C65.9956 68.6494 65.9333 68.3564 65.9333 67.9487V67.8389C65.9333 67.436 65.9956 67.1455 66.1201 66.9673C66.2471 66.7866 66.4338 66.6963 66.6804 66.6963C66.8806 66.6963 67.0417 66.761 67.1638 66.8904C67.2608 66.9912 67.3208 67.1167 67.3438 67.2669C67.3541 67.334 67.4084 67.3884 67.4763 67.3884H68.2204C68.2899 67.3884 68.3465 67.3316 68.3416 67.2622C68.3127 66.8519 68.1618 66.5193 67.8889 66.2642C67.5911 65.981 67.1943 65.8394 66.6987 65.8394C66.1323 65.8394 65.6868 66.0212 65.3621 66.385C65.0374 66.7488 64.875 67.2358 64.875 67.8462V67.9158C64.875 68.5505 65.0386 69.0486 65.3657 69.4099C65.6929 69.7688 66.1396 69.9482 66.7061 69.9482C67.0088 69.9482 67.2847 69.8872 67.5337 69.7651C67.7852 69.6406 67.9829 69.4673 68.127 69.2451C68.2482 69.0561 68.3193 68.8515 68.3402 68.6313C68.3468 68.5621 68.29 68.5054 68.2205 68.5054H67.4759C67.4082 68.5054 67.3543 68.5598 67.3409 68.6261C67.316 68.7493 67.257 68.8519 67.1638 68.9338Z" fill="white"/>
<path d="M63.1685 68.9448C63.0562 69.0498 63 69.1865 63 69.355C63 69.521 63.0562 69.6565 63.1685 69.7615C63.2808 69.864 63.4236 69.9153 63.5969 69.9153C63.7727 69.9153 63.9167 69.864 64.0291 69.7615C64.1414 69.6565 64.1975 69.521 64.1975 69.355C64.1975 69.1865 64.1401 69.0498 64.0254 68.9448C63.9131 68.8398 63.7703 68.7874 63.5969 68.7874C63.426 68.7874 63.2832 68.8398 63.1685 68.9448Z" fill="white"/>
<path fill-rule="evenodd" clip-rule="evenodd" d="M68.875 67.8572C68.875 67.4641 68.9507 67.1138 69.1021 66.8062C69.2534 66.4985 69.4707 66.2605 69.7539 66.092C70.0396 65.9236 70.3704 65.8394 70.7463 65.8394C71.281 65.8394 71.7168 66.0029 72.0537 66.3301C72.3931 66.6572 72.5823 67.1016 72.6213 67.6631L72.6287 67.9341C72.6287 68.542 72.459 69.0303 72.1196 69.3989C71.7803 69.7651 71.325 69.9482 70.7537 69.9482C70.1824 69.9482 69.7258 69.7651 69.384 69.3989C69.0447 69.0327 68.875 68.5347 68.875 67.9048V67.8572ZM69.9333 67.9341C69.9333 68.3101 70.0042 68.5981 70.1458 68.7983C70.2874 68.9961 70.49 69.095 70.7537 69.095C71.01 69.095 71.2102 68.9973 71.3542 68.802C71.4983 68.6042 71.5703 68.2893 71.5703 67.8572C71.5703 67.4885 71.4983 67.2029 71.3542 67.0002C71.2102 66.7976 71.0076 66.6963 70.7463 66.6963C70.4875 66.6963 70.2874 66.7976 70.1458 67.0002C70.0042 67.2004 69.9333 67.5117 69.9333 67.9341Z" fill="white"/>
<path d="M74.5601 66.1352C74.4716 66.2054 74.323 66.1556 74.3146 66.0429L74.3135 66.0283C74.3087 65.9631 74.2543 65.9126 74.1889 65.9126H73.4375C73.3685 65.9126 73.3125 65.9686 73.3125 66.0376V69.75C73.3125 69.819 73.3685 69.875 73.4375 69.875H74.2458C74.3149 69.875 74.3708 69.819 74.3708 69.75V67.105C74.3708 67.0843 74.3759 67.0638 74.3863 67.046C74.5216 66.8153 74.7337 66.7 75.0227 66.7C75.24 66.7 75.3938 66.7512 75.4841 66.8538C75.5745 66.9563 75.6196 67.1223 75.6196 67.3518V69.75C75.6196 69.819 75.6756 69.875 75.7446 69.875H76.5528C76.6219 69.875 76.6779 69.8189 76.6778 69.7498L76.6743 67.1784C76.6743 67.1623 76.6773 67.1463 76.6837 67.1315C76.8075 66.8438 77.0241 66.7 77.3335 66.7C77.5557 66.7 77.7107 66.7524 77.7986 66.8574C77.8865 66.96 77.9304 67.1235 77.9304 67.3481V69.75C77.9304 69.819 77.9864 69.875 78.0554 69.875H78.8674C78.9365 69.875 78.9924 69.819 78.9924 69.75V67.3445C78.9924 66.8416 78.8875 66.4656 78.6775 66.2166C78.4675 65.9651 78.1477 65.8394 77.718 65.8394C77.2811 65.8394 76.9293 65.9843 76.6627 66.2741C76.5976 66.345 76.4747 66.3349 76.4179 66.2571C76.2148 65.9786 75.9011 65.8394 75.4768 65.8394C75.1146 65.8394 74.809 65.938 74.5601 66.1352Z" fill="white"/>
<path d="M26.0752 114.849C26.3735 114.562 26.6992 114.362 27.0523 114.25C27.4072 114.136 27.7523 114.124 28.0876 114.213C28.4248 114.301 28.7283 114.482 28.998 114.757C29.3971 115.165 29.5884 115.622 29.5717 116.13C29.5569 116.639 29.3409 117.115 28.9239 117.556L28.7662 117.713C28.4661 118.002 28.1413 118.203 27.7919 118.315C27.4444 118.429 27.1011 118.442 26.7621 118.352C26.4249 118.265 26.1196 118.082 25.8462 117.803C25.4289 117.377 25.237 116.898 25.2707 116.367C25.3081 115.836 25.565 115.341 26.0415 114.882L26.0752 114.849ZM26.6804 115.584C26.3671 115.886 26.1843 116.187 26.1318 116.487C26.0812 116.785 26.168 117.048 26.3921 117.277C26.6163 117.506 26.8804 117.597 27.1844 117.55C27.4903 117.505 27.8167 117.315 28.1638 116.981C28.4714 116.685 28.6506 116.384 28.7013 116.079C28.7538 115.775 28.6698 115.511 28.4493 115.286C28.2324 115.064 27.9711 114.974 27.6653 115.016C27.3614 115.055 27.0331 115.245 26.6804 115.584Z" fill="white"/>
<path d="M32.8801 118.527L32.6255 118.889C33.0754 118.802 33.5028 118.918 33.9079 119.237C34.3518 119.587 34.5204 119.995 34.4137 120.461C34.9254 120.314 35.4002 120.413 35.838 120.758C36.2042 121.046 36.3956 121.361 36.4124 121.702C36.4312 122.045 36.2854 122.415 35.9752 122.81L34.2382 124.977L33.4925 124.39L35.2124 122.244C35.3802 122.035 35.4571 121.845 35.4432 121.675C35.4294 121.505 35.316 121.336 35.1033 121.169C34.9335 121.035 34.7577 120.971 34.576 120.977C34.398 120.983 34.2288 121.042 34.0686 121.154L32.259 123.418L31.5133 122.831L33.2527 120.661C33.5536 120.264 33.5097 119.913 33.121 119.607C32.8223 119.372 32.5137 119.326 32.1951 119.469L30.2797 121.859L29.5341 121.272L32.1774 117.974L32.8801 118.527Z" fill="white"/>
<path d="M37.9488 124.849C38.1641 124.495 38.4281 124.219 38.7408 124.021C39.0549 123.82 39.3854 123.72 39.7322 123.722C40.0804 123.72 40.4199 123.819 40.7507 124.017C41.2401 124.309 41.5414 124.703 41.6544 125.199C41.7697 125.696 41.6819 126.211 41.3911 126.744L41.2787 126.936C41.0621 127.292 40.7992 127.568 40.49 127.766C40.1831 127.965 39.8544 128.064 39.504 128.064C39.1558 128.065 38.8141 127.965 38.4788 127.765C37.967 127.458 37.6598 127.044 37.5572 126.522C37.4581 125.998 37.5806 125.454 37.9244 124.889L37.9488 124.849ZM38.7208 125.406C38.4947 125.777 38.3945 126.115 38.42 126.419C38.447 126.72 38.5979 126.953 38.8728 127.117C39.1477 127.282 39.4261 127.303 39.7081 127.18C39.9923 127.059 40.2596 126.792 40.51 126.381C40.7321 126.016 40.8287 125.679 40.8 125.371C40.7735 125.063 40.6251 124.829 40.3547 124.667C40.0887 124.508 39.8132 124.488 39.5281 124.605C39.2444 124.721 38.9753 124.988 38.7208 125.406Z" fill="white"/>
<path d="M45.2708 130.46C45.4867 130.558 45.6947 130.577 45.8948 130.516C46.0949 130.455 46.2422 130.334 46.3367 130.154L47.1516 130.523C47.032 130.758 46.8542 130.947 46.6184 131.092C46.3836 131.235 46.1186 131.312 45.8234 131.324C45.5282 131.336 45.2419 131.279 44.9643 131.153C44.4258 130.91 44.079 130.542 43.9237 130.052C43.7684 129.561 43.8319 129.01 44.1143 128.397L44.1551 128.308C44.4244 127.724 44.7962 127.328 45.2707 127.12C45.7462 126.909 46.2544 126.926 46.7953 127.171C47.2531 127.379 47.5639 127.681 47.7278 128.078C47.8951 128.474 47.8862 128.892 47.7009 129.331L46.8861 128.962C46.978 128.738 46.9854 128.523 46.9085 128.316C46.834 128.111 46.6876 127.959 46.4693 127.86C46.1894 127.733 45.9267 127.737 45.6811 127.872C45.4366 128.004 45.2184 128.275 45.0263 128.686L44.9626 128.824C44.7707 129.24 44.7021 129.585 44.7567 129.859C44.8148 130.131 44.9862 130.331 45.2708 130.46Z" fill="white"/>
<path d="M51.9716 129.787C52.3785 129.541 52.8076 129.49 53.2587 129.636C54.1163 129.912 54.391 130.541 54.0829 131.522L53.2224 134.147L52.319 133.856L53.1685 131.265C53.2594 130.988 53.2628 130.773 53.1786 130.62C53.0978 130.465 52.9409 130.35 52.7079 130.275C52.346 130.158 52.0231 130.232 51.7391 130.496L50.7983 133.366L49.8949 133.074L51.7643 127.373L52.6678 127.664L51.9716 129.787Z" fill="white"/>
<path d="M58.5293 135.43L57.6 135.237L58.4765 131.102L59.4058 131.295L58.5293 135.43ZM58.6468 130.016C58.6771 129.873 58.7468 129.764 58.856 129.689C58.9678 129.613 59.1078 129.593 59.276 129.628C59.4443 129.664 59.5643 129.738 59.6361 129.851C59.7079 129.965 59.7287 130.093 59.6985 130.235C59.6687 130.375 59.598 130.483 59.4863 130.558C59.375 130.631 59.2353 130.649 59.067 130.614C58.8988 130.579 58.7785 130.506 58.7061 130.396C58.6369 130.283 58.6171 130.156 58.6468 130.016Z" fill="white"/>
<path d="M64.6744 134.53L64.2109 134.92L64.0721 136.292L63.1275 136.198L63.7317 130.228L64.6763 130.322L64.3277 133.765L64.6605 133.426L65.9553 132.231L67.0903 132.344L65.3503 133.942L66.8319 136.566L65.7396 136.457L64.6744 134.53Z" fill="white"/>
<path d="M72.7451 136.649C72.7023 136.569 72.664 136.438 72.6301 136.257C72.3326 136.576 71.9651 136.739 71.5276 136.745C71.1032 136.751 70.7551 136.635 70.4834 136.396C70.2117 136.158 70.0733 135.86 70.0682 135.504C70.0617 135.053 70.2234 134.706 70.5532 134.462C70.8856 134.215 71.363 134.087 71.9853 134.078L72.5673 134.07L72.5633 133.792C72.5602 133.574 72.4965 133.4 72.3722 133.272C72.2479 133.141 72.0608 133.077 71.8108 133.08C71.5947 133.083 71.4184 133.141 71.282 133.252C71.1455 133.361 71.0785 133.498 71.0809 133.665L70.1317 133.678C70.1284 133.447 70.2021 133.229 70.3528 133.027C70.5035 132.821 70.7096 132.66 70.9709 132.541C71.2348 132.423 71.5296 132.362 71.8551 132.357C72.3498 132.35 72.7461 132.469 73.0439 132.715C73.3417 132.958 73.4978 133.305 73.5121 133.756L73.5396 135.662C73.545 136.042 73.6028 136.344 73.7128 136.569L73.7138 136.636L72.7451 136.649ZM71.6924 135.981C71.8799 135.978 72.055 135.93 72.2177 135.837C72.3831 135.743 72.5063 135.619 72.5874 135.464L72.5759 134.667L72.0643 134.675C71.7127 134.68 71.4493 134.744 71.274 134.869C71.0987 134.994 71.0127 135.169 71.0159 135.393C71.0185 135.575 71.0805 135.72 71.2019 135.828C71.3258 135.933 71.4893 135.984 71.6924 135.981Z" fill="white"/>
<path d="M79.2695 136.205C78.6729 136.281 78.1641 136.156 77.7433 135.829C77.3248 135.5 77.0748 135.022 76.9933 134.398L76.9781 134.281C76.9236 133.863 76.955 133.48 77.0723 133.131C77.192 132.78 77.3858 132.494 77.6537 132.273C77.9217 132.052 78.2352 131.919 78.5943 131.873C79.1651 131.8 79.6293 131.925 79.9867 132.25C80.3468 132.574 80.5702 133.069 80.6571 133.735L80.7066 134.115L77.9673 134.466C78.0408 134.808 78.1915 135.067 78.4192 135.243C78.6495 135.418 78.9184 135.486 79.2258 135.446C79.6571 135.391 79.9857 135.172 80.2115 134.788L80.7822 135.208C80.6469 135.48 80.4476 135.703 80.1843 135.879C79.9232 136.052 79.6182 136.16 79.2695 136.205ZM78.6889 132.629C78.4306 132.662 78.2332 132.779 78.0966 132.98C77.9626 133.181 77.8947 133.446 77.8929 133.774L79.6868 133.544L79.6777 133.475C79.6159 133.162 79.501 132.935 79.3329 132.794C79.1645 132.65 78.9498 132.595 78.6889 132.629Z" fill="white"/>
<path d="M86.1511 131.378C86.0246 131.386 85.8967 131.406 85.7675 131.437C85.3444 131.538 85.0987 131.768 85.0302 132.127L85.7109 134.936L84.7875 135.156L83.7923 131.048L84.6739 130.838L84.808 131.292C84.9444 130.882 85.2103 130.63 85.6055 130.536C85.7372 130.505 85.8504 130.496 85.9452 130.511L86.1511 131.378Z" fill="white"/>
<path d="M92.1606 133.03L91.2636 133.34L89.8603 129.353L90.7574 129.043L92.1606 133.03ZM89.4405 128.337C89.3921 128.199 89.395 128.07 89.4491 127.95C89.5057 127.828 89.6152 127.739 89.7777 127.683C89.9401 127.627 90.0816 127.629 90.2022 127.689C90.3228 127.749 90.4073 127.848 90.4557 127.986C90.5033 128.121 90.4987 128.249 90.4421 128.371C90.3847 128.49 90.2747 128.577 90.1123 128.634C89.9498 128.69 89.8088 128.689 89.689 128.631C89.5709 128.57 89.4881 128.472 89.4405 128.337Z" fill="white"/>
<path d="M97.0762 129.949C97.237 129.875 97.3827 129.864 97.5134 129.915C97.6429 129.964 97.7398 130.057 97.804 130.194C97.8671 130.328 97.8759 130.46 97.8305 130.59C97.784 130.718 97.6803 130.819 97.5195 130.893C97.3658 130.964 97.2236 130.977 97.0928 130.931C96.962 130.885 96.8645 130.794 96.8003 130.657C96.7361 130.52 96.7267 130.387 96.7721 130.257C96.8164 130.125 96.9178 130.022 97.0762 129.949Z" fill="white"/>
<path d="M103.236 127.051C103.439 126.929 103.572 126.77 103.635 126.571C103.697 126.373 103.68 126.185 103.583 126.006L104.351 125.547C104.479 125.777 104.536 126.029 104.523 126.304C104.509 126.576 104.424 126.837 104.267 127.085C104.111 127.334 103.901 127.536 103.64 127.692C103.133 127.996 102.631 128.073 102.135 127.924C101.638 127.774 101.215 127.412 100.864 126.836L100.813 126.752C100.479 126.203 100.359 125.675 100.454 125.169C100.547 124.662 100.849 124.255 101.358 123.95C101.789 123.692 102.217 123.608 102.64 123.698C103.064 123.784 103.407 124.027 103.668 124.426L102.901 124.885C102.766 124.683 102.591 124.556 102.375 124.503C102.162 124.448 101.953 124.482 101.747 124.605C101.484 124.763 101.338 124.98 101.312 125.257C101.284 125.532 101.387 125.863 101.62 126.252L101.699 126.382C101.937 126.773 102.186 127.024 102.444 127.133C102.704 127.239 102.968 127.211 103.236 127.051Z" fill="white"/>
<path d="M106.518 123.172C106.264 122.846 106.1 122.502 106.027 122.141C105.953 121.779 105.979 121.437 106.106 121.117C106.232 120.795 106.447 120.517 106.754 120.283C107.207 119.936 107.686 119.8 108.193 119.875C108.702 119.948 109.154 120.215 109.55 120.676L109.69 120.85C109.946 121.179 110.11 121.522 110.183 121.879C110.259 122.234 110.233 122.574 110.105 122.897C109.98 123.22 109.762 123.499 109.452 123.737C108.978 124.099 108.477 124.233 107.948 124.139C107.42 124.041 106.953 123.731 106.547 123.209L106.518 123.172ZM107.322 122.661C107.589 123.004 107.87 123.218 108.165 123.304C108.458 123.388 108.732 123.333 108.986 123.139C109.241 122.944 109.361 122.694 109.348 122.389C109.338 122.083 109.184 121.74 108.888 121.359C108.626 121.022 108.345 120.811 108.044 120.726C107.746 120.64 107.472 120.692 107.221 120.884C106.975 121.072 106.856 121.319 106.863 121.625C106.868 121.929 107.022 122.274 107.322 122.661Z" fill="white"/>
<path d="M110.971 116.888L111.304 117.18C111.269 116.727 111.434 116.319 111.8 115.956C112.201 115.558 112.629 115.438 113.084 115.595C112.996 115.075 113.149 114.618 113.545 114.225C113.875 113.897 114.213 113.744 114.557 113.766C114.903 113.786 115.256 113.971 115.617 114.321L117.59 116.276L116.916 116.944L114.962 115.009C114.772 114.82 114.591 114.723 114.419 114.717C114.247 114.712 114.064 114.805 113.872 114.995C113.719 115.148 113.635 115.314 113.62 115.493C113.605 115.669 113.645 115.842 113.739 116.013L115.801 118.05L115.127 118.719L113.151 116.761C112.789 116.42 112.432 116.424 112.081 116.773C111.811 117.04 111.729 117.339 111.837 117.669L114.012 119.825L113.338 120.493L110.336 117.518L110.971 116.888Z" fill="white"/>
</svg>
