<svg xmlns="http://www.w3.org/2000/svg" width="256" height="96" viewBox="0 0 256 96">
  <g id="_404_logo" data-name="404_logo" transform="translate(-58 -262)">
    <rect id="Base" width="256" height="96" transform="translate(58 262)" fill="red" opacity="0"/>
    <path id="_4" data-name="4" d="M25.343-32.554H36.2v15.363H25.343V3.578H6.33V-17.191H-32.946l-.855-12L6.133-92.422H25.343Zm-40.2,0H6.33v-33.89L5.08-64.268Z" transform="translate(91.801 354.422)" fill="#e0e0e0"/>
    <path id="SadFace" d="M-2701,96a47.7,47.7,0,0,1-18.684-3.772,47.839,47.839,0,0,1-15.257-10.287,47.84,47.84,0,0,1-10.287-15.257A47.7,47.7,0,0,1-2749,48a47.7,47.7,0,0,1,3.772-18.684,47.84,47.84,0,0,1,10.287-15.257,47.839,47.839,0,0,1,15.257-10.287A47.7,47.7,0,0,1-2701,0a47.7,47.7,0,0,1,18.684,3.772,47.839,47.839,0,0,1,15.257,10.287,47.84,47.84,0,0,1,10.287,15.257A47.7,47.7,0,0,1-2653,48a47.7,47.7,0,0,1-3.772,18.684,47.839,47.839,0,0,1-10.287,15.257,47.839,47.839,0,0,1-15.257,10.287A47.7,47.7,0,0,1-2701,96Zm0-40c1.346,0,2.692.03,4,.088V68a11.921,11.921,0,0,0,3.515,8.486A11.922,11.922,0,0,0-2685,80a11.92,11.92,0,0,0,8.485-3.515A11.923,11.923,0,0,0-2673,68a11.908,11.908,0,0,0-3.609-8.578c1.63.469,3.267.994,4.867,1.559a31.83,31.83,0,0,0,2.3-7.672A95.681,95.681,0,0,0-2701,48a95.659,95.659,0,0,0-31.561,5.307,31.816,31.816,0,0,0,2.3,7.671A87.659,87.659,0,0,1-2701,56Z" transform="translate(2887.001 262)" fill="#e0e0e0"/>
    <path id="_4-2" data-name="4" d="M25.343-32.554H36.2v15.363H25.343V3.578H6.33V-17.191H-32.946l-.855-12L6.133-92.422H25.343Zm-40.2,0H6.33v-33.89L5.08-64.268Z" transform="translate(275.801 354.422)" fill="#e0e0e0"/>
  </g>
</svg>
