<svg width="240" height="152" viewBox="0 0 240 152" fill="none" xmlns="http://www.w3.org/2000/svg">
<rect width="240" height="152" rx="8" fill="#DDDDDD"/>
<rect y="16" width="240" height="32" fill="#666666"/>
<rect x="8" y="56" width="224" height="32" fill="white"/>
<path d="M79.5379 72H78.448V64.7754L76.2625 65.5781V64.5938L79.368 63.4277H79.5379V72ZM88.7035 72H83.1137V71.2207L86.0668 67.9395C86.5043 67.4434 86.8051 67.041 86.9691 66.7324C87.1371 66.4199 87.2211 66.0977 87.2211 65.7656C87.2211 65.3203 87.0863 64.9551 86.8168 64.6699C86.5473 64.3848 86.1879 64.2422 85.7387 64.2422C85.1996 64.2422 84.7797 64.3965 84.4789 64.7051C84.182 65.0098 84.0336 65.4355 84.0336 65.9824H82.9496C82.9496 65.1973 83.2016 64.5625 83.7055 64.0781C84.2133 63.5938 84.891 63.3516 85.7387 63.3516C86.5316 63.3516 87.1586 63.5605 87.6195 63.9785C88.0805 64.3926 88.3109 64.9453 88.3109 65.6367C88.3109 66.4766 87.7758 67.4766 86.7055 68.6367L84.4203 71.1152H88.7035V72ZM91.8281 67.207H92.6426C93.1543 67.1992 93.5566 67.0645 93.8496 66.8027C94.1426 66.541 94.2891 66.1875 94.2891 65.7422C94.2891 64.7422 93.791 64.2422 92.7949 64.2422C92.3262 64.2422 91.9512 64.377 91.6699 64.6465C91.3926 64.9121 91.2539 65.2656 91.2539 65.707H90.1699C90.1699 65.0312 90.416 64.4707 90.9082 64.0254C91.4043 63.5762 92.0332 63.3516 92.7949 63.3516C93.5996 63.3516 94.2305 63.5645 94.6875 63.9902C95.1445 64.416 95.373 65.0078 95.373 65.7656C95.373 66.1367 95.252 66.4961 95.0098 66.8438C94.7715 67.1914 94.4453 67.4512 94.0312 67.623C94.5 67.7715 94.8613 68.0176 95.1152 68.3613C95.373 68.7051 95.502 69.125 95.502 69.6211C95.502 70.3867 95.252 70.9941 94.752 71.4434C94.252 71.8926 93.6016 72.1172 92.8008 72.1172C92 72.1172 91.3477 71.9004 90.8437 71.4668C90.3437 71.0332 90.0937 70.4609 90.0937 69.75H91.1836C91.1836 70.1992 91.3301 70.5586 91.623 70.8281C91.916 71.0977 92.3086 71.2324 92.8008 71.2324C93.3242 71.2324 93.7246 71.0957 94.002 70.8223C94.2793 70.5488 94.418 70.1562 94.418 69.6445C94.418 69.1484 94.2656 68.7676 93.9609 68.502C93.6562 68.2363 93.2168 68.0996 92.6426 68.0918H91.8281V67.207ZM101.966 69.1348H103.15V70.0195H101.966V72H100.877V70.0195H96.9918V69.3809L100.812 63.4688H101.966V69.1348ZM98.2223 69.1348H100.877V64.9512L100.748 65.1855L98.2223 69.1348ZM108.403 67.7227L108.837 63.4688H113.208V64.4707H109.757L109.499 66.7969C109.917 66.5508 110.391 66.4277 110.923 66.4277C111.7 66.4277 112.317 66.6855 112.774 67.2012C113.231 67.7129 113.46 68.4062 113.46 69.2812C113.46 70.1602 113.221 70.8535 112.745 71.3613C112.272 71.8652 111.61 72.1172 110.759 72.1172C110.005 72.1172 109.389 71.9082 108.913 71.4902C108.436 71.0723 108.165 70.4941 108.098 69.7559H109.124C109.19 70.2441 109.364 70.6133 109.645 70.8633C109.927 71.1094 110.298 71.2324 110.759 71.2324C111.262 71.2324 111.657 71.0605 111.942 70.7168C112.231 70.373 112.376 69.8984 112.376 69.293C112.376 68.7227 112.22 68.2656 111.907 67.9219C111.598 67.5742 111.186 67.4004 110.671 67.4004C110.198 67.4004 109.827 67.5039 109.557 67.7109L109.27 67.9453L108.403 67.7227ZM119.297 63.4629V64.3828H119.098C118.254 64.3984 117.582 64.6484 117.082 65.1328C116.582 65.6172 116.293 66.2988 116.215 67.1777C116.664 66.6621 117.278 66.4043 118.055 66.4043C118.797 66.4043 119.389 66.666 119.83 67.1895C120.276 67.7129 120.498 68.3887 120.498 69.2168C120.498 70.0957 120.258 70.7988 119.778 71.3262C119.301 71.8535 118.661 72.1172 117.856 72.1172C117.039 72.1172 116.377 71.8047 115.87 71.1797C115.362 70.5508 115.108 69.7422 115.108 68.7539V68.3379C115.108 66.7676 115.442 65.5684 116.11 64.7402C116.782 63.9082 117.78 63.4824 119.104 63.4629H119.297ZM117.873 67.3066C117.502 67.3066 117.161 67.418 116.848 67.6406C116.536 67.8633 116.319 68.1426 116.198 68.4785V68.877C116.198 69.5801 116.356 70.1465 116.672 70.5762C116.989 71.0059 117.383 71.2207 117.856 71.2207C118.344 71.2207 118.727 71.041 119.004 70.6816C119.286 70.3223 119.426 69.8516 119.426 69.2695C119.426 68.6836 119.284 68.2109 118.998 67.8516C118.717 67.4883 118.342 67.3066 117.873 67.3066ZM127.689 64.0781L124.156 72H123.02L126.541 64.3594H121.924V63.4688H127.689V64.0781ZM134.494 65.6953C134.494 66.1211 134.38 66.5 134.154 66.832C133.931 67.1641 133.629 67.4238 133.246 67.6113C133.691 67.8027 134.043 68.082 134.3 68.4492C134.562 68.8164 134.693 69.2324 134.693 69.6973C134.693 70.4355 134.443 71.0234 133.943 71.4609C133.447 71.8984 132.793 72.1172 131.98 72.1172C131.16 72.1172 130.502 71.8984 130.005 71.4609C129.513 71.0195 129.267 70.4316 129.267 69.6973C129.267 69.2363 129.392 68.8203 129.642 68.4492C129.896 68.0781 130.246 67.7969 130.691 67.6055C130.312 67.418 130.013 67.1582 129.795 66.8262C129.576 66.4941 129.466 66.1172 129.466 65.6953C129.466 64.9766 129.697 64.4062 130.158 63.9844C130.619 63.5625 131.226 63.3516 131.98 63.3516C132.73 63.3516 133.336 63.5625 133.796 63.9844C134.261 64.4062 134.494 64.9766 134.494 65.6953ZM133.609 69.6738C133.609 69.1973 133.457 68.8086 133.152 68.5078C132.851 68.207 132.457 68.0566 131.968 68.0566C131.48 68.0566 131.087 68.2051 130.791 68.502C130.498 68.7988 130.351 69.1895 130.351 69.6738C130.351 70.1582 130.494 70.5391 130.779 70.8164C131.068 71.0938 131.468 71.2324 131.98 71.2324C132.488 71.2324 132.886 71.0938 133.175 70.8164C133.464 70.5352 133.609 70.1543 133.609 69.6738ZM131.98 64.2422C131.554 64.2422 131.209 64.375 130.943 64.6406C130.681 64.9023 130.55 65.2598 130.55 65.7129C130.55 66.1465 130.679 66.498 130.937 66.7676C131.199 67.0332 131.546 67.166 131.98 67.166C132.414 67.166 132.759 67.0332 133.017 66.7676C133.279 66.498 133.41 66.1465 133.41 65.7129C133.41 65.2793 133.275 64.9258 133.005 64.6523C132.736 64.3789 132.394 64.2422 131.98 64.2422ZM143.989 68.25C143.762 68.5195 143.491 68.7363 143.175 68.9004C142.862 69.0645 142.518 69.1465 142.143 69.1465C141.651 69.1465 141.221 69.0254 140.854 68.7832C140.491 68.541 140.21 68.2012 140.011 67.7637C139.811 67.3223 139.712 66.8359 139.712 66.3047C139.712 65.7344 139.819 65.2207 140.034 64.7637C140.253 64.3066 140.561 63.957 140.96 63.7148C141.358 63.4727 141.823 63.3516 142.354 63.3516C143.198 63.3516 143.862 63.668 144.346 64.3008C144.835 64.9297 145.079 65.7891 145.079 66.8789V67.1953C145.079 68.8555 144.751 70.0684 144.095 70.834C143.438 71.5957 142.448 71.9863 141.124 72.0059H140.913V71.0918H141.141C142.036 71.0762 142.723 70.8438 143.204 70.3945C143.684 69.9414 143.946 69.2266 143.989 68.25ZM142.319 68.25C142.682 68.25 143.016 68.1387 143.321 67.916C143.63 67.6934 143.854 67.418 143.995 67.0898V66.6562C143.995 65.9453 143.841 65.3672 143.532 64.9219C143.223 64.4766 142.833 64.2539 142.36 64.2539C141.884 64.2539 141.501 64.4375 141.212 64.8047C140.923 65.168 140.778 65.6484 140.778 66.2461C140.778 66.8281 140.917 67.3086 141.194 67.6875C141.475 68.0625 141.85 68.25 142.319 68.25ZM152.323 68.3613C152.323 69.6309 152.106 70.5742 151.672 71.1914C151.239 71.8086 150.561 72.1172 149.639 72.1172C148.729 72.1172 148.055 71.8164 147.618 71.2148C147.18 70.6094 146.954 69.707 146.938 68.5078V67.0605C146.938 65.8066 147.155 64.875 147.588 64.2656C148.022 63.6562 148.702 63.3516 149.627 63.3516C150.545 63.3516 151.221 63.6465 151.655 64.2363C152.088 64.8223 152.311 65.7285 152.323 66.9551V68.3613ZM151.239 66.8789C151.239 65.9609 151.11 65.293 150.852 64.875C150.594 64.4531 150.186 64.2422 149.627 64.2422C149.073 64.2422 148.668 64.4512 148.414 64.8691C148.161 65.2871 148.03 65.9297 148.022 66.7969V68.5312C148.022 69.4531 148.155 70.1348 148.42 70.5762C148.69 71.0137 149.096 71.2324 149.639 71.2324C150.174 71.2324 150.571 71.0254 150.829 70.6113C151.09 70.1973 151.227 69.5449 151.239 68.6543V66.8789ZM157.674 72H156.584V64.7754L154.398 65.5781V64.5938L157.504 63.4277H157.674V72ZM166.839 72H161.25V71.2207L164.203 67.9395C164.64 67.4434 164.941 67.041 165.105 66.7324C165.273 66.4199 165.357 66.0977 165.357 65.7656C165.357 65.3203 165.222 64.9551 164.953 64.6699C164.683 64.3848 164.324 64.2422 163.875 64.2422C163.336 64.2422 162.916 64.3965 162.615 64.7051C162.318 65.0098 162.17 65.4355 162.17 65.9824H161.086C161.086 65.1973 161.337 64.5625 161.841 64.0781C162.349 63.5938 163.027 63.3516 163.875 63.3516C164.668 63.3516 165.295 63.5605 165.755 63.9785C166.216 64.3926 166.447 64.9453 166.447 65.6367C166.447 66.4766 165.912 67.4766 164.841 68.6367L162.556 71.1152H166.839V72ZM173.341 67.207H174.155C174.667 67.1992 175.069 67.0645 175.362 66.8027C175.655 66.541 175.802 66.1875 175.802 65.7422C175.802 64.7422 175.304 64.2422 174.307 64.2422C173.839 64.2422 173.464 64.377 173.182 64.6465C172.905 64.9121 172.766 65.2656 172.766 65.707H171.682C171.682 65.0312 171.929 64.4707 172.421 64.0254C172.917 63.5762 173.546 63.3516 174.307 63.3516C175.112 63.3516 175.743 63.5645 176.2 63.9902C176.657 64.416 176.886 65.0078 176.886 65.7656C176.886 66.1367 176.764 66.4961 176.522 66.8438C176.284 67.1914 175.958 67.4512 175.544 67.623C176.012 67.7715 176.374 68.0176 176.628 68.3613C176.886 68.7051 177.014 69.125 177.014 69.6211C177.014 70.3867 176.764 70.9941 176.264 71.4434C175.764 71.8926 175.114 72.1172 174.313 72.1172C173.512 72.1172 172.86 71.9004 172.356 71.4668C171.856 71.0332 171.606 70.4609 171.606 69.75H172.696C172.696 70.1992 172.843 70.5586 173.136 70.8281C173.429 71.0977 173.821 71.2324 174.313 71.2324C174.837 71.2324 175.237 71.0957 175.514 70.8223C175.792 70.5488 175.93 70.1562 175.93 69.6445C175.93 69.1484 175.778 68.7676 175.473 68.502C175.169 68.2363 174.729 68.0996 174.155 68.0918H173.341V67.207ZM183.479 69.1348H184.662V70.0195H183.479V72H182.389V70.0195H178.504V69.3809L182.325 63.4688H183.479V69.1348ZM179.735 69.1348H182.389V64.9512L182.26 65.1855L179.735 69.1348ZM186.539 67.7227L186.973 63.4688H191.344V64.4707H187.893L187.635 66.7969C188.053 66.5508 188.527 66.4277 189.059 66.4277C189.836 66.4277 190.453 66.6855 190.91 67.2012C191.367 67.7129 191.596 68.4062 191.596 69.2812C191.596 70.1602 191.357 70.8535 190.881 71.3613C190.408 71.8652 189.746 72.1172 188.895 72.1172C188.141 72.1172 187.525 71.9082 187.049 71.4902C186.572 71.0723 186.301 70.4941 186.234 69.7559H187.26C187.326 70.2441 187.5 70.6133 187.781 70.8633C188.062 71.1094 188.434 71.2324 188.895 71.2324C189.398 71.2324 189.793 71.0605 190.078 70.7168C190.367 70.373 190.512 69.8984 190.512 69.293C190.512 68.7227 190.355 68.2656 190.043 67.9219C189.734 67.5742 189.322 67.4004 188.807 67.4004C188.334 67.4004 187.963 67.5039 187.693 67.7109L187.406 67.9453L186.539 67.7227ZM197.433 63.4629V64.3828H197.234C196.39 64.3984 195.718 64.6484 195.218 65.1328C194.718 65.6172 194.429 66.2988 194.351 67.1777C194.8 66.6621 195.414 66.4043 196.191 66.4043C196.933 66.4043 197.525 66.666 197.966 67.1895C198.412 67.7129 198.634 68.3887 198.634 69.2168C198.634 70.0957 198.394 70.7988 197.914 71.3262C197.437 71.8535 196.796 72.1172 195.992 72.1172C195.175 72.1172 194.513 71.8047 194.005 71.1797C193.498 70.5508 193.244 69.7422 193.244 68.7539V68.3379C193.244 66.7676 193.578 65.5684 194.246 64.7402C194.918 63.9082 195.916 63.4824 197.24 63.4629H197.433ZM196.009 67.3066C195.638 67.3066 195.296 67.418 194.984 67.6406C194.671 67.8633 194.455 68.1426 194.334 68.4785V68.877C194.334 69.5801 194.492 70.1465 194.808 70.5762C195.125 71.0059 195.519 71.2207 195.992 71.2207C196.48 71.2207 196.863 71.041 197.14 70.6816C197.421 70.3223 197.562 69.8516 197.562 69.2695C197.562 68.6836 197.42 68.2109 197.134 67.8516C196.853 67.4883 196.478 67.3066 196.009 67.3066ZM209.202 64.0781L205.669 72H204.532L208.054 64.3594H203.436V63.4688H209.202V64.0781ZM216.006 65.6953C216.006 66.1211 215.893 66.5 215.666 66.832C215.444 67.1641 215.141 67.4238 214.758 67.6113C215.204 67.8027 215.555 68.082 215.813 68.4492C216.075 68.8164 216.205 69.2324 216.205 69.6973C216.205 70.4355 215.955 71.0234 215.455 71.4609C214.959 71.8984 214.305 72.1172 213.493 72.1172C212.672 72.1172 212.014 71.8984 211.518 71.4609C211.026 71.0195 210.78 70.4316 210.78 69.6973C210.78 69.2363 210.905 68.8203 211.155 68.4492C211.409 68.0781 211.758 67.7969 212.204 67.6055C211.825 67.418 211.526 67.1582 211.307 66.8262C211.088 66.4941 210.979 66.1172 210.979 65.6953C210.979 64.9766 211.209 64.4062 211.67 63.9844C212.131 63.5625 212.739 63.3516 213.493 63.3516C214.243 63.3516 214.848 63.5625 215.309 63.9844C215.774 64.4062 216.006 64.9766 216.006 65.6953ZM215.121 69.6738C215.121 69.1973 214.969 68.8086 214.664 68.5078C214.364 68.207 213.969 68.0566 213.481 68.0566C212.993 68.0566 212.6 68.2051 212.303 68.502C212.01 68.7988 211.864 69.1895 211.864 69.6738C211.864 70.1582 212.006 70.5391 212.291 70.8164C212.58 71.0938 212.981 71.2324 213.493 71.2324C214 71.2324 214.399 71.0938 214.688 70.8164C214.977 70.5352 215.121 70.1543 215.121 69.6738ZM213.493 64.2422C213.067 64.2422 212.721 64.375 212.455 64.6406C212.194 64.9023 212.063 65.2598 212.063 65.7129C212.063 66.1465 212.192 66.498 212.45 66.7676C212.711 67.0332 213.059 67.166 213.493 67.166C213.926 67.166 214.272 67.0332 214.53 66.7676C214.791 66.498 214.922 66.1465 214.922 65.7129C214.922 65.2793 214.787 64.9258 214.518 64.6523C214.248 64.3789 213.907 64.2422 213.493 64.2422ZM222.125 68.25C221.898 68.5195 221.627 68.7363 221.311 68.9004C220.998 69.0645 220.654 69.1465 220.279 69.1465C219.787 69.1465 219.357 69.0254 218.99 68.7832C218.627 68.541 218.346 68.2012 218.146 67.7637C217.947 67.3223 217.848 66.8359 217.848 66.3047C217.848 65.7344 217.955 65.2207 218.17 64.7637C218.389 64.3066 218.697 63.957 219.096 63.7148C219.494 63.4727 219.959 63.3516 220.49 63.3516C221.334 63.3516 221.998 63.668 222.482 64.3008C222.971 64.9297 223.215 65.7891 223.215 66.8789V67.1953C223.215 68.8555 222.887 70.0684 222.23 70.834C221.574 71.5957 220.584 71.9863 219.26 72.0059H219.049V71.0918H219.277C220.172 71.0762 220.859 70.8438 221.34 70.3945C221.82 69.9414 222.082 69.2266 222.125 68.25ZM220.455 68.25C220.818 68.25 221.152 68.1387 221.457 67.916C221.766 67.6934 221.99 67.418 222.131 67.0898V66.6562C222.131 65.9453 221.977 65.3672 221.668 64.9219C221.359 64.4766 220.969 64.2539 220.496 64.2539C220.02 64.2539 219.637 64.4375 219.348 64.8047C219.059 65.168 218.914 65.6484 218.914 66.2461C218.914 66.8281 219.053 67.3086 219.33 67.6875C219.611 68.0625 219.986 68.25 220.455 68.25Z" fill="#333333"/>
<circle cx="213" cy="67" r="15" stroke="#0288D1" stroke-width="2" stroke-linecap="round" stroke-dasharray="2 4"/>
</svg>
