<svg width="1920" height="752" viewBox="0 0 1920 752" fill="none" xmlns="http://www.w3.org/2000/svg">
<rect width="1920" height="752" fill="#FBC02D"/>
<mask id="mask0" mask-type="alpha" maskUnits="userSpaceOnUse" x="863" y="102" width="164" height="164">
<circle cx="945" cy="184" r="80" stroke="white" stroke-width="3" stroke-linecap="round" stroke-dasharray="4 8"/>
</mask>
<g mask="url(#mask0)">
<path fill-rule="evenodd" clip-rule="evenodd" d="M1025 96H865V152H1013V140H1025V96Z" fill="white"/>
</g>
<path d="M1018.49 142.909C1019.15 142.509 1020 142.989 1020 143.766V152.234C1020 153.011 1019.15 153.491 1018.49 153.091L1011.43 148.857C1010.78 148.469 1010.78 147.531 1011.43 147.143L1018.49 142.909Z" fill="white"/>
<path fill-rule="evenodd" clip-rule="evenodd" d="M830.77 157.74C828.43 160.08 828.43 163.89 830.77 166.23C833.11 168.6 836.89 168.6 839.26 166.23C841.6 163.89 841.6 160.08 839.26 157.74C836.92 155.4 833.11 155.4 830.77 157.74ZM852.79 195L868 210.21L863.71 214.5L853.21 204H838C833.02 204 829 199.98 829 195V177.75C829 174.03 832.03 171 835.75 171H835.84C836.86 171 837.85 171.27 838.72 171.69C839.5 172.05 840.22 172.56 840.79 173.19L844.99 177.84C848.17 181.35 854.02 184.02 859 183.96V190.44C853.3 190.44 846.7 187.41 842.5 183.96V195H852.79ZM847 207H829V213H847V207Z" fill="#616161"/>
<rect x="861.5" y="159.5" width="13" height="21" rx="1.5" stroke="white" stroke-width="3"/>
<path fill-rule="evenodd" clip-rule="evenodd" d="M856 116C856 129.255 845.255 140 832 140C818.745 140 808 129.255 808 116C808 102.745 818.745 92 832 92C845.255 92 856 102.745 856 116ZM829 145C829 146.657 827.657 148 826 148C824.343 148 823 146.657 823 145C823 143.343 824.343 142 826 142C827.657 142 829 143.343 829 145ZM828 154C829.105 154 830 153.105 830 152C830 150.895 829.105 150 828 150C826.895 150 826 150.895 826 152C826 153.105 826.895 154 828 154Z" fill="white"/>
<path d="M838.06 126.99H839.72C840.56 126.99 841.25 126.35 841.35 125.53L843 109.05H838V105H836.03V109.05H831.06L831.36 111.39C833.07 111.86 834.67 112.71 835.63 113.65C837.07 115.07 838.06 116.54 838.06 118.94V126.99ZM821 125.99V125H836.03V125.99C836.03 126.54 835.58 126.99 835.02 126.99H822.01C821.45 126.99 821 126.54 821 125.99ZM836.03 118.99C836.03 110.99 821 110.99 821 118.99H836.03ZM821.02 121H836.02V123H821.02V121Z" fill="#616161"/>
<path d="M1100 162H1052V168H1100V162ZM1103 192V186L1100 171H1052L1049 186V192H1052V210H1082V192H1094V210H1100V192H1103ZM1076 204H1058V192H1076V204Z" fill="#616161"/>
<rect x="1009.5" y="159.5" width="29" height="21" rx="1.5" stroke="white" stroke-width="3"/>
<circle cx="1068" cy="130" r="24" fill="white"/>
<path d="M1074.06 140.99H1075.72C1076.56 140.99 1077.25 140.35 1077.35 139.53L1079 123.05H1074V119H1072.03V123.05H1067.06L1067.36 125.39C1069.07 125.86 1070.67 126.71 1071.63 127.65C1073.07 129.07 1074.06 130.54 1074.06 132.94V140.99ZM1057 139.99V139H1072.03V139.99C1072.03 140.54 1071.58 140.99 1071.02 140.99H1058.01C1057.45 140.99 1057 140.54 1057 139.99ZM1072.03 132.99C1072.03 124.99 1057 124.99 1057 132.99H1072.03ZM1057.02 135H1072.02V137H1057.02V135Z" fill="#616161"/>
<path d="M1044 154L1056 150L1048 142L1044 154Z" fill="white"/>
<circle cx="1103" cy="143" r="3" fill="white"/>
<path d="M1100 112H1106L1105 136H1101L1100 112Z" fill="white"/>
<path d="M882.576 51.608C882 51.776 881.328 51.848 880.584 51.848H877.704V50.6C877.704 49.856 877.776 48.968 877.848 48.392H874.416C874.512 48.992 874.56 49.856 874.56 50.6V51.848H870.408C869.568 51.848 868.248 51.824 867.336 51.68V54.824C868.08 54.752 869.592 54.704 870.456 54.704H879.144C878.448 55.712 876.96 57.104 875.112 58.304C873.048 59.624 869.952 61.28 865.32 62.312L867.168 65.144C869.76 64.352 872.328 63.368 874.536 62.192V66.296C874.536 67.256 874.44 68.696 874.344 69.368H877.8C877.728 68.624 877.632 67.256 877.632 66.296C877.632 64.784 877.656 62.168 877.656 60.248C879.648 58.736 881.472 56.936 882.696 55.544C883.2 54.968 883.944 54.152 884.544 53.552L882.576 51.608ZM879.168 61.568C881.256 62.72 882.816 63.728 884.904 65.384L886.92 62.744C884.616 61.16 883.368 60.464 881.16 59.264L879.168 61.568ZM900.12 53.72L897.264 54.656C897.864 55.904 898.92 58.808 899.208 59.984L902.088 58.976C901.752 57.872 900.576 54.752 900.12 53.72ZM905.592 54.392C905.328 57.392 904.176 60.584 902.544 62.624C900.552 65.12 897.216 66.944 894.576 67.64L897.096 70.208C899.904 69.152 902.904 67.136 905.136 64.256C906.768 62.144 907.776 59.648 908.4 57.224C908.544 56.744 908.688 56.24 908.976 55.472L905.592 54.392ZM894.552 54.992L891.672 56.024C892.248 57.08 893.448 60.272 893.856 61.568L896.784 60.464C896.304 59.12 895.152 56.216 894.552 54.992ZM932.856 59.168C930.648 58.088 926.04 56.384 922.824 55.448V51.92C922.824 50.912 922.944 49.856 923.04 49.016H919.296C919.464 49.856 919.536 51.056 919.536 51.92V65.696C919.536 66.656 919.44 68.096 919.296 69.032H923.04C922.944 68.072 922.824 66.392 922.824 65.696V58.904C925.416 59.792 929.016 61.184 931.488 62.48L932.856 59.168ZM953.76 55.52L951.984 56.264C952.752 57.344 953.256 58.28 953.856 59.6L955.68 58.784C955.224 57.824 954.336 56.384 953.76 55.52ZM956.448 54.416L954.696 55.232C955.464 56.288 956.016 57.176 956.664 58.472L958.464 57.608C957.96 56.672 957.048 55.256 956.448 54.416ZM937.752 51.584L938.064 54.848C940.824 54.248 945.816 53.72 947.88 53.504C946.272 54.704 944.376 57.392 944.376 60.824C944.376 65.984 949.08 68.672 954.072 68.984L955.176 65.696C951.144 65.504 947.496 64.088 947.496 60.176C947.496 57.368 949.632 54.296 952.512 53.528C953.784 53.24 955.824 53.216 957.096 53.216L957.072 50.144C955.392 50.216 952.8 50.36 950.352 50.552C946.008 50.936 942.072 51.296 940.08 51.464C939.624 51.512 938.712 51.56 937.752 51.584ZM976.296 52.928L976.272 51.2C976.272 50.456 976.32 49.52 976.416 48.776H973.008C973.128 49.616 973.2 50.504 973.248 51.2C973.272 51.728 973.296 52.304 973.32 52.928H965.376C964.56 52.928 963.408 52.856 962.712 52.76V55.952C963.552 55.904 964.584 55.856 965.448 55.856H972C970.056 58.592 966.096 61.976 961.44 64.184L963.648 66.68C967.44 64.664 971.328 61.328 973.44 58.568C973.488 61.04 973.488 63.44 973.488 65.048C973.488 65.744 973.248 66.056 972.648 66.056C971.832 66.056 970.536 65.96 969.456 65.768L969.72 68.888C971.088 68.984 972.432 69.032 973.896 69.032C975.72 69.032 976.608 68.144 976.584 66.608C976.536 63.368 976.44 59.36 976.368 55.856H979.464C980.112 55.856 981.024 55.904 981.792 55.928V52.736C981.216 52.832 980.088 52.928 979.296 52.928H976.296ZM986.208 60.656C987.096 60.584 988.704 60.536 990.072 60.536H1002.96C1003.97 60.536 1005.19 60.632 1005.77 60.656V56.888C1005.14 56.936 1004.06 57.032 1002.96 57.032H990.072C988.824 57.032 987.072 56.96 986.208 56.888V60.656ZM1028.59 51.584C1028.14 50.696 1027.3 49.16 1026.7 48.296L1024.8 49.064C1025.33 49.832 1025.93 50.912 1026.38 51.8C1025.83 51.944 1025.14 52.016 1024.49 52.016H1019.57L1019.59 51.992C1019.88 51.464 1020.48 50.384 1021.06 49.544L1017.58 48.464C1017.36 49.28 1016.86 50.408 1016.5 50.984C1015.3 53.048 1013.06 56.36 1008.86 58.952L1011.46 60.944C1013.86 59.288 1016.09 56.984 1017.77 54.752H1024.66C1024.3 56.192 1023.34 58.16 1022.16 59.864C1020.55 58.904 1018.92 57.992 1017.65 57.344L1015.63 59.624C1016.86 60.32 1018.49 61.304 1020.1 62.36C1018.13 64.4 1015.42 66.44 1011.17 67.736L1013.95 70.16C1017.84 68.672 1020.65 66.512 1022.81 64.184C1023.67 64.808 1024.46 65.384 1025.04 65.888L1027.2 63.056C1026.6 62.624 1025.78 62.096 1024.9 61.52C1026.48 59.24 1027.61 56.816 1028.21 54.968C1028.42 54.368 1028.74 53.72 1029 53.24L1027.25 52.16L1028.59 51.584ZM1027.63 47.984C1028.3 48.896 1029.07 50.288 1029.55 51.296L1031.47 50.48C1031.04 49.616 1030.15 48.104 1029.53 47.216L1027.63 47.984ZM1034.21 60.656C1035.1 60.584 1036.7 60.536 1038.07 60.536H1050.96C1051.97 60.536 1053.19 60.632 1053.77 60.656V56.888C1053.14 56.936 1052.06 57.032 1050.96 57.032H1038.07C1036.82 57.032 1035.07 56.96 1034.21 56.888V60.656Z" fill="white"/>
<path d="M904.752 250.448H919.2V253.448H922.248V247.808H913.44V245.672H910.416V247.808H901.848V253.448H904.752V250.448ZM915.384 257.264C914.88 259.112 914.04 260.552 912.864 261.704C911.28 261.128 909.72 260.6 908.28 260.192C908.76 259.256 909.288 258.272 909.792 257.264H915.384ZM922.68 257.264V254.576H911.136C911.64 253.568 912.12 252.584 912.552 251.648L909.552 251.024C909.072 252.128 908.496 253.352 907.872 254.576H901.344V257.264H906.504C905.472 259.208 904.464 261.032 903.6 262.424L906.6 263.24L907.032 262.472C908.04 262.784 909.072 263.168 910.128 263.552C907.968 264.584 905.232 265.16 901.872 265.496C902.424 266.12 903.24 267.416 903.504 268.088C907.536 267.512 910.8 266.576 913.344 264.872C915.768 265.928 917.976 267.056 919.44 268.04L921.72 265.712C920.208 264.776 918.048 263.768 915.72 262.808C917.016 261.344 918 259.544 918.696 257.264H922.68ZM929.904 254.312C932.4 252.464 934.536 250.304 935.904 248.36C937.296 250.304 939.6 252.488 942.096 254.312H929.904ZM937.416 262.088H944.136V259.592H937.416V256.832H943.032V254.96C943.896 255.56 944.76 256.088 945.624 256.568C946.152 255.68 946.776 254.768 947.52 254C943.728 252.392 939.816 249.248 937.248 245.6H934.296C932.52 248.528 928.656 252.224 924.552 254.288C925.2 254.888 925.992 255.92 926.352 256.592C927.264 256.088 928.152 255.536 929.016 254.936V256.832H934.44V259.592H927.792V262.088H934.44V264.944H925.872V267.512H946.296V264.944H937.416V262.088ZM958.752 249.248L958.776 252.32C961.752 252.584 966.048 252.584 968.976 252.32V249.248C966.408 249.56 961.68 249.656 958.752 249.248ZM957.936 259.16C957.696 260.264 957.528 261.272 957.528 262.256C957.528 264.68 959.472 266.168 963.576 266.168C966.264 266.168 968.184 265.976 969.72 265.688L969.648 262.472C967.584 262.904 965.832 263.096 963.696 263.096C961.296 263.096 960.384 262.472 960.384 261.416C960.384 260.768 960.48 260.192 960.672 259.424L957.936 259.16ZM951.768 247.4C951.768 248.144 951.624 249.056 951.528 249.728C951.264 251.552 950.544 255.56 950.544 259.136C950.544 262.352 951 265.256 951.48 266.912L954.216 266.72C954.192 266.384 954.192 266 954.168 265.736C954.168 265.496 954.24 264.968 954.312 264.632C954.552 263.36 955.344 260.792 956.016 258.8L954.528 257.648C954.192 258.416 953.808 259.208 953.472 260.048C953.4 259.544 953.376 258.968 953.376 258.512C953.376 256.136 954.192 251.384 954.528 249.8C954.624 249.368 954.912 248.168 955.104 247.688L951.768 247.4ZM980.016 248.144C979.056 247.352 977.136 246.344 975.672 245.768L974.112 247.904C975.624 248.552 977.496 249.656 978.36 250.496L980.016 248.144ZM978.696 254.528C977.736 253.712 975.744 252.776 974.256 252.248L972.744 254.384C974.256 255.032 976.152 256.088 977.064 256.904L978.696 254.528ZM977.64 258.32C976.296 261.128 974.592 264.152 973.392 265.976L975.888 267.752C977.232 265.4 978.624 262.64 979.824 260.096L977.64 258.32ZM987.624 252.032H990.6V256.376H987.552C987.6 255.584 987.624 254.816 987.624 254.024V252.032ZM995.184 259.064V256.376H993.384V249.344H987.624V245.696H984.792V249.344H980.784V252.032H984.792V254C984.792 254.792 984.768 255.584 984.72 256.376H979.608V259.064H984.288C983.592 261.752 981.984 264.224 978.336 266.144C979.104 266.576 980.208 267.56 980.712 268.16C984.384 266.144 986.136 263.408 986.928 260.456C988.296 263.936 990.336 266.6 993.456 268.136C993.888 267.344 994.776 266.216 995.448 265.64C992.52 264.44 990.48 262.016 989.328 259.064H995.184ZM1001.71 258.32C1000.34 261.128 998.616 264.152 997.416 265.976L999.912 267.752C1001.26 265.4 1002.67 262.64 1003.87 260.096L1001.71 258.32ZM1002.7 254.528C1001.74 253.712 999.744 252.776 998.256 252.248L996.744 254.384C998.256 255.032 1000.15 256.088 1001.06 256.904L1002.7 254.528ZM1014.29 256.616V257.6H1008.41V256.544H1006.39C1008.12 256.088 1009.75 255.536 1011.24 254.84C1012.94 255.656 1014.82 256.184 1016.78 256.616H1014.29ZM1008.26 261.632C1008.36 261.056 1008.38 260.48 1008.41 259.976H1014.29V261.632H1008.26ZM1013.47 250.304C1012.9 250.952 1012.2 251.528 1011.38 252.032C1010.54 251.576 1009.75 251 1008.98 250.304H1013.47ZM1018.92 250.304V247.832H1012.8V245.696H1009.85V247.832H1003.82V248C1002.82 247.232 1001.04 246.32 999.672 245.792L998.112 247.904C999.624 248.552 1001.5 249.656 1002.36 250.496L1003.82 248.408V250.304H1005.7C1006.61 251.528 1007.62 252.488 1008.7 253.304C1006.94 253.928 1004.93 254.36 1002.84 254.648C1003.27 255.2 1003.94 256.4 1004.18 257.048C1004.69 256.952 1005.19 256.832 1005.67 256.712V259.328C1005.67 261.368 1005.36 264.704 1002.67 266.816C1003.37 267.128 1004.45 267.896 1004.95 268.328C1006.44 267.128 1007.28 265.568 1007.78 263.984H1014.29V268.04H1017.1V256.688L1017.96 256.856C1018.22 255.968 1018.87 254.936 1019.5 254.288C1017.53 254.024 1015.7 253.688 1014 253.16C1015.06 252.344 1015.97 251.408 1016.69 250.304H1018.92Z" fill="white"/>
<path d="M808 314C808 305.163 815.163 298 824 298H1096C1104.84 298 1112 305.163 1112 314V410C1112 418.837 1104.84 426 1096 426H824C815.163 426 808 418.837 808 410V314Z" fill="#FAF9F9"/>
<path fill-rule="evenodd" clip-rule="evenodd" d="M1063.09 370.413L1063.09 370.409C1060.72 368.025 1056.71 364 1049.18 364H1033.94C1017.44 363.94 1004 350.5 1004 334H992C992 352.96 1004.66 369.04 1022 374.26V386H1058V382.3L1061.7 386H1078.65L1063.34 370.66C1063.26 370.58 1063.18 370.497 1063.09 370.413ZM1090 397.38V397.7L1090.16 397.54L1090 397.38ZM1040 358C1046.63 358 1052 352.627 1052 346C1052 339.373 1046.63 334 1040 334C1033.37 334 1028 339.373 1028 346C1028 352.627 1033.37 358 1040 358Z" fill="#616161"/>
<path d="M936 382H1112V398H936V382Z" fill="#616161"/>
<path d="M974 350H970C970 344.48 965.52 340 960 340C954.48 340 950 344.48 950 350H946C943.8 350 942.02 351.8 942.02 354L942 378C942 380.2 943.8 382 946 382H974C976.2 382 978 380.2 978 378V354C978 351.8 976.2 350 974 350ZM960 344C963.32 344 966 346.68 966 350H954C954 346.68 956.68 344 960 344ZM960 364C954.48 364 950 359.52 950 354H954C954 357.32 956.68 360 960 360C963.32 360 966 357.32 966 354H970C970 359.52 965.52 364 960 364Z" fill="#FBC02D"/>
<path fill-rule="evenodd" clip-rule="evenodd" d="M901 343C901 349.6 895.6 355 889 355C882.4 355 877 349.6 877 343C877 336.4 882.4 331 889 331C895.6 331 901 336.4 901 343ZM856.752 426L866.8 375.4L856 379.6V400H844V371.8L875.2 358.6C876.1 358.6 876.85 358.45 877.6 358.3C878.35 358.15 879.1 358 880 358C884.2 358 887.8 360.4 890.2 364L896.2 373.6C901 382 910.6 388 922 388V400C908.8 400 896.8 394 889 385L885.4 403L898 415V426H886V424L873.4 412L870.25 426H856.752Z" fill="#616161"/>
<path d="M875.976 486.68L874.248 486.92C874.344 486.224 874.392 485.576 874.392 484.976V473.792H871.584V476.864H865.704V479.528H871.584V482.384H865.968V484.976H871.584V485C871.584 485.648 871.512 486.464 871.32 487.304C868.8 487.64 866.448 487.928 864.72 488.096L865.248 490.928C866.688 490.712 868.392 490.448 870.192 490.16C869.256 491.744 867.72 493.232 865.32 494.24C866.016 494.816 866.928 495.704 867.408 496.376C870.864 494.696 872.688 492.104 873.576 489.608L876.072 489.2L875.976 486.68ZM887.136 487.928H880.224V484.976H886.176V482.384H880.224V479.528H886.704V476.864H880.224V473.792H877.368V496.088H880.224V490.568H887.136V487.928ZM905.76 492.872H894.504V490.784H905.76V492.872ZM896.448 483.104H903.576V484.784H896.448V483.104ZM906.336 486.872V480.992H893.808V486.872H898.176C898.08 487.352 897.936 487.856 897.816 488.336H891.792V496.136H894.504V495.344H905.76V496.136H908.592V488.336H900.648C900.864 487.88 901.08 487.4 901.272 486.872H906.336ZM906.96 477.392C907.632 476.6 908.352 475.64 909.048 474.728L905.976 473.768C905.52 474.896 904.608 476.36 903.84 477.392H899.904L901.584 476.768C901.248 475.904 900.456 474.536 899.76 473.6L897.264 474.44C897.84 475.352 898.488 476.528 898.824 477.392H895.128L895.896 477.056C895.488 476.168 894.552 474.896 893.76 473.984L891.288 475.04C891.84 475.76 892.44 476.624 892.872 477.392H889.968V482.504H892.56V479.816H907.56V482.504H910.32V477.392H906.96ZM920.448 483.392H924.576V480.776H920.448V477.2C921.912 476.84 923.304 476.432 924.504 475.952L922.488 473.744C920.16 474.8 916.296 475.712 912.84 476.216C913.176 476.816 913.536 477.824 913.656 478.448C914.952 478.28 916.32 478.064 917.688 477.8V480.776H913.128V483.392H917.136C916.056 485.888 914.304 488.624 912.576 490.304C913.032 491.024 913.728 492.248 914.016 493.088C915.336 491.696 916.608 489.632 917.688 487.448V496.04H920.448V487.76C921.408 488.744 922.416 489.824 922.992 490.568L924.648 488.12C924 487.616 921.624 485.576 920.448 484.688V483.392ZM928.488 476.576H925.704V489.992H928.488V476.576ZM931.368 474.128V492.584C931.368 493.016 931.176 493.16 930.72 493.184C930.216 493.184 928.68 493.184 927.12 493.112C927.552 493.928 927.984 495.248 928.104 496.064C930.288 496.088 931.896 495.992 932.88 495.512C933.864 495.056 934.2 494.264 934.2 492.608V474.128H931.368ZM942.672 484.448C943.728 485.648 944.784 487.352 945.168 488.456L947.304 487.28C946.848 486.128 945.72 484.544 944.64 483.368L942.672 484.448ZM954.552 480.416H951.888V478.04H949.248V480.416H941.544V482.84H949.248V488.984C949.248 489.296 949.152 489.392 948.816 489.392C948.456 489.416 947.28 489.416 946.248 489.368C946.56 490.064 946.872 491.072 946.968 491.768C948.744 491.768 949.92 491.744 950.784 491.36C951.624 490.976 951.888 490.328 951.888 489.032V482.84H954.552V480.416ZM940.632 492.344V477.44H955.296V492.344H940.632ZM937.8 474.704V496.04H940.632V495.104H955.296V496.04H958.272V474.704H937.8ZM965.352 473.768C964.272 477.152 962.4 480.56 960.384 482.744C960.912 483.464 961.704 485.024 961.968 485.72C962.448 485.144 962.952 484.496 963.432 483.848V496.04H966.144V479.216C966.888 477.68 967.536 476.12 968.064 474.584L965.352 473.768ZM976.368 489.512V483.248C977.184 485.504 978.192 487.664 979.32 489.512H976.368ZM970.656 489.512C971.784 487.736 972.792 485.624 973.584 483.416V489.512H970.656ZM982.992 480.656V477.944H976.368V473.792H973.584V477.944H967.512V480.656H972.24C970.92 484.448 968.688 488.24 966.264 490.4C966.912 490.88 967.824 491.888 968.304 492.56C969.072 491.792 969.768 490.856 970.44 489.848V492.056H973.584V495.92H976.368V492.056H979.584V489.944C980.208 490.88 980.832 491.744 981.504 492.488C982.008 491.744 982.992 490.784 983.64 490.28C981.312 488.096 979.104 484.352 977.784 480.656H982.992ZM1007.52 476.48C1007.11 475.64 1006.22 474.128 1005.58 473.216L1003.68 474.008C1004.35 474.896 1005.12 476.312 1005.62 477.32L1007.52 476.48ZM991.392 474.92C991.416 476.408 991.224 478.136 990.888 479.96C989.688 480.056 988.56 480.128 987.816 480.152C986.952 480.176 986.16 480.224 985.296 480.152L985.56 483.368C986.304 483.248 987.528 483.08 988.2 483.008C988.656 482.936 989.4 482.84 990.24 482.744C989.4 485.984 987.768 490.736 985.464 493.856L988.56 495.104C990.744 491.6 992.472 486.008 993.408 482.408C994.08 482.36 994.656 482.312 995.04 482.312C996.528 482.312 997.344 482.576 997.344 484.472C997.344 486.824 997.032 489.656 996.384 490.976C996 491.768 995.4 492.008 994.608 492.008C993.984 492.008 992.592 491.768 991.68 491.504L992.208 494.648C993 494.84 994.152 494.984 995.04 494.984C996.864 494.984 998.16 494.456 998.952 492.8C999.96 490.736 1000.3 486.944 1000.3 484.136C1000.3 480.728 998.52 479.6 996 479.6C995.52 479.6 994.8 479.648 994.008 479.696C994.176 478.832 994.368 477.968 994.512 477.248C994.632 476.648 994.776 475.904 994.92 475.28L991.392 474.92ZM1004.66 477.584C1004.18 476.696 1003.34 475.184 1002.74 474.296L1000.85 475.088C1001.4 475.856 1002 477.008 1002.48 477.92L1000.27 478.856C1001.98 480.968 1003.66 485.168 1004.28 487.808L1007.3 486.392C1006.61 484.304 1004.83 480.296 1003.44 478.112L1004.66 477.584ZM1018.03 476.432H1027.97V477.704H1030.61V474.416H1015.54V477.704H1018.03V476.432ZM1019.09 486.224V485.288H1021.54V486.224H1019.09ZM1019.09 482.696H1021.54V483.632H1019.09V482.696ZM1026.86 482.696V483.632H1024.32V482.696H1026.86ZM1026.86 486.224H1024.32V485.288H1026.86V486.224ZM1021.54 492.488H1024.32V490.904H1030.85V488.84H1024.32V487.952H1029.41V480.92H1024.32V480.08H1029.82V478.112H1024.32V476.864H1021.54V478.112H1016.21V480.08H1021.54V480.92H1016.66V487.952H1021.54V488.84H1015.32V490.904H1021.54V492.488ZM1015.03 478.088C1014.26 476.936 1012.61 475.352 1011.26 474.272L1009.08 475.904C1010.42 477.056 1012.01 478.712 1012.68 479.888L1015.03 478.088ZM1014.38 482.984H1008.98V485.6H1011.67V490.832C1010.71 491.648 1009.63 492.44 1008.7 493.04L1010.04 495.872C1011.26 494.84 1012.25 493.928 1013.21 492.992C1014.65 494.84 1016.57 495.536 1019.42 495.656C1022.35 495.776 1027.44 495.728 1030.42 495.584C1030.56 494.792 1030.97 493.472 1031.3 492.8C1027.99 493.064 1022.33 493.136 1019.45 493.016C1017 492.92 1015.32 492.248 1014.38 490.64V482.984ZM1049.76 492.872H1038.5V490.784H1049.76V492.872ZM1040.45 483.104H1047.58V484.784H1040.45V483.104ZM1050.34 486.872V480.992H1037.81V486.872H1042.18C1042.08 487.352 1041.94 487.856 1041.82 488.336H1035.79V496.136H1038.5V495.344H1049.76V496.136H1052.59V488.336H1044.65C1044.86 487.88 1045.08 487.4 1045.27 486.872H1050.34ZM1050.96 477.392C1051.63 476.6 1052.35 475.64 1053.05 474.728L1049.98 473.768C1049.52 474.896 1048.61 476.36 1047.84 477.392H1043.9L1045.58 476.768C1045.25 475.904 1044.46 474.536 1043.76 473.6L1041.26 474.44C1041.84 475.352 1042.49 476.528 1042.82 477.392H1039.13L1039.9 477.056C1039.49 476.168 1038.55 474.896 1037.76 473.984L1035.29 475.04C1035.84 475.76 1036.44 476.624 1036.87 477.392H1033.97V482.504H1036.56V479.816H1051.56V482.504H1054.32V477.392H1050.96Z" fill="white"/>
<path d="M954.96 578.04V575.94C954.96 575.14 955.04 574.48 955.08 574.08H952.24C952.3 574.48 952.36 575.14 952.36 575.94V578.04H947.62V576.08C947.62 575.28 947.68 574.64 947.74 574.26H944.9C944.94 574.64 945.02 575.3 945.02 576.06V578.04H943.32C942.32 578.04 941.52 577.92 941.16 577.86V580.58C941.6 580.54 942.32 580.5 943.32 580.5H945.02V583.22C945.02 584.12 944.96 584.92 944.9 585.32H947.7C947.68 584.92 947.62 584.1 947.62 583.22V580.5H952.36V581.26C952.36 586.16 950.66 587.9 946.8 589.24L948.94 591.26C953.76 589.14 954.96 586.12 954.96 581.16V580.5H956.44C957.5 580.5 958.2 580.52 958.64 580.56V577.9C958.1 578 957.5 578.04 956.44 578.04H954.96ZM961.84 583.88C962.58 583.82 963.92 583.78 965.06 583.78H975.8C976.64 583.78 977.66 583.86 978.14 583.88V580.74C977.62 580.78 976.72 580.86 975.8 580.86H965.06C964.02 580.86 962.56 580.8 961.84 580.74V583.88ZM996.36 576.54C995.98 575.8 995.26 574.54 994.76 573.8L993.18 574.46C993.72 575.22 994.34 576.4 994.74 577.22L996.36 576.54ZM985.98 583.14C988.58 582.5 991.8 581.5 993.82 580.7C994.48 580.46 995.38 580.08 996.16 579.76L995.08 577.22C994.3 577.7 993.62 578.02 992.9 578.3C991.12 579.06 988.34 579.94 985.98 580.52V576.74C985.98 576.18 986.04 575.28 986.14 574.66H983.18C983.28 575.28 983.34 576.3 983.34 576.74V587.64C983.34 589.36 984.34 590.32 986.08 590.62C986.94 590.76 988.14 590.86 989.44 590.86C991.64 590.86 994.68 590.72 996.56 590.44V587.52C994.92 587.96 991.68 588.22 989.6 588.22C988.7 588.22 987.88 588.18 987.28 588.1C986.38 587.92 985.98 587.7 985.98 586.84V583.14ZM995.54 573.54C996.1 574.3 996.74 575.46 997.16 576.3L998.74 575.62C998.38 574.92 997.66 573.64 997.12 572.9L995.54 573.54ZM1015.04 575.22C1014.64 575.36 1013.84 575.48 1012.96 575.48H1005.92C1005.32 575.48 1004.1 575.42 1003.56 575.34V578.18C1003.98 578.16 1005.08 578.04 1005.92 578.04H1012.7C1012.26 579.46 1011.04 581.44 1009.72 582.94C1007.84 585.04 1004.74 587.46 1001.52 588.68L1003.58 590.84C1006.32 589.54 1008.98 587.46 1011.1 585.22C1012.98 587.04 1014.84 589.08 1016.14 590.88L1018.42 588.9C1017.24 587.46 1014.82 584.9 1012.84 583.18C1014.18 581.38 1015.3 579.24 1015.98 577.68C1016.16 577.28 1016.52 576.66 1016.68 576.44L1015.04 575.22ZM1027.04 581.16H1030.48V578.98H1027.04V576C1028.26 575.7 1029.42 575.36 1030.42 574.96L1028.74 573.12C1026.8 574 1023.58 574.76 1020.7 575.18C1020.98 575.68 1021.28 576.52 1021.38 577.04C1022.46 576.9 1023.6 576.72 1024.74 576.5V578.98H1020.94V581.16H1024.28C1023.38 583.24 1021.92 585.52 1020.48 586.92C1020.86 587.52 1021.44 588.54 1021.68 589.24C1022.78 588.08 1023.84 586.36 1024.74 584.54V591.7H1027.04V584.8C1027.84 585.62 1028.68 586.52 1029.16 587.14L1030.54 585.1C1030 584.68 1028.02 582.98 1027.04 582.24V581.16ZM1033.74 575.48H1031.42V586.66H1033.74V575.48ZM1036.14 573.44V588.82C1036.14 589.18 1035.98 589.3 1035.6 589.32C1035.18 589.32 1033.9 589.32 1032.6 589.26C1032.96 589.94 1033.32 591.04 1033.42 591.72C1035.24 591.74 1036.58 591.66 1037.4 591.26C1038.22 590.88 1038.5 590.22 1038.5 588.84V573.44H1036.14ZM1051.4 583.66V581.2H1055.62V583.66H1051.4ZM1045.18 583.66C1045.22 582.92 1045.24 582.2 1045.24 581.56V581.2H1049V583.66H1045.18ZM1049 576.66V578.98H1045.24V576.66H1049ZM1055.62 578.98H1051.4V576.66H1055.62V578.98ZM1057.98 574.4H1042.88V581.54C1042.88 584.34 1042.7 587.9 1040.52 590.3C1041.06 590.58 1042.02 591.4 1042.4 591.84C1043.84 590.28 1044.56 588.08 1044.92 585.9H1049V591.48H1051.4V585.9H1055.62V588.9C1055.62 589.26 1055.48 589.38 1055.1 589.38C1054.74 589.38 1053.42 589.4 1052.3 589.34C1052.6 589.96 1052.98 590.98 1053.06 591.62C1054.86 591.64 1056.08 591.6 1056.9 591.2C1057.7 590.84 1057.98 590.2 1057.98 588.92V574.4ZM1074.38 576.56C1073.74 575.82 1072.32 574.8 1071.2 574.14L1070.06 575.74C1071.16 576.48 1072.54 577.56 1073.16 578.34L1074.38 576.56ZM1069.14 580.78C1070.3 581.46 1071.76 582.54 1072.42 583.26L1073.62 581.36C1072.9 580.66 1071.42 579.68 1070.26 579.06L1069.14 580.78ZM1067.34 574.16C1067.12 575.56 1066.66 577.58 1066.24 578.84L1067.74 579.26C1068.24 578.1 1068.82 576.2 1069.34 574.6L1067.34 574.16ZM1063.46 578.84C1063.36 577.6 1062.96 575.7 1062.44 574.26L1060.78 574.7C1061.24 576.14 1061.64 578.08 1061.68 579.3L1063.46 578.84ZM1068.92 585.42C1068.5 584.86 1066.6 582.62 1066.02 582.04V581.9H1068.98V579.68H1066.02V573.14H1063.82V579.68H1060.8V581.9H1063.08C1062.46 583.72 1061.44 585.86 1060.44 587.08C1060.8 587.74 1061.32 588.82 1061.52 589.54C1062.38 588.34 1063.18 586.48 1063.82 584.62V591.68H1066.02V584.66C1066.6 585.58 1067.16 586.62 1067.46 587.26L1068.92 585.42ZM1079.5 585.88L1079.14 583.66L1077.1 584.04V573.04H1074.86V584.44L1068.92 585.5L1069.28 587.72L1074.86 586.72V591.72H1077.1V586.32L1079.5 585.88Z" fill="#616161"/>
<path d="M945.88 615.54H943.74V613.72H945.88V615.54ZM945.88 619.16H943.74V617.3H945.88V619.16ZM945.88 622.78H943.74V620.92H945.88V622.78ZM948.08 611.84H941.62V624.68H948.08V611.84ZM942.6 624.84C942.18 626.22 941.38 627.62 940.44 628.54C940.96 628.84 941.86 629.44 942.3 629.82C943.28 628.74 944.22 627.02 944.78 625.34L942.6 624.84ZM950.52 627.68C951.3 625.56 951.54 623.08 951.6 620.9C952.1 622.54 952.72 624.04 953.5 625.36C952.66 626.36 951.66 627.14 950.52 627.68ZM956.22 619.12C955.92 620.72 955.44 622.14 954.82 623.36C954.1 622.1 953.56 620.66 953.16 619.12H956.22ZM957.28 617.02L956.9 617.06H951.62V614.24H958.8V612.1H949.44V619.6C949.44 621.92 949.34 624.8 948.34 627.12C947.98 626.42 947.4 625.48 946.86 624.78L945.02 625.56C945.6 626.42 946.26 627.58 946.52 628.32L948.14 627.54C947.96 627.9 947.76 628.24 947.52 628.58C948.06 628.82 949.02 629.44 949.42 629.8C949.84 629.22 950.18 628.54 950.46 627.84C950.94 628.32 951.46 629.14 951.74 629.7C952.94 629.06 954 628.26 954.9 627.28C955.78 628.28 956.82 629.14 958.04 629.78C958.36 629.18 959.06 628.32 959.58 627.88C958.3 627.3 957.2 626.46 956.28 625.42C957.5 623.36 958.3 620.7 958.68 617.32L957.28 617.02ZM968.68 616.12H963.1V618.2H976.98V616.12H971.14V614.82H978.82V612.66H971.14V611.08H968.68V612.66H961.2V614.82H968.68V616.12ZM978.56 623.44V619.18H961.46V623.44H963.76V621.32H976.16V623.44H978.56ZM966.14 621.94C965.9 625.02 965.4 626.82 960.66 627.74C961.14 628.24 961.74 629.18 961.96 629.8C967.42 628.5 968.3 625.96 968.62 621.94H966.14ZM974.28 627.36C973.56 627.36 973.44 627.28 973.44 626.64V621.94H971.04V626.68C971.04 628.82 971.62 629.5 973.94 629.5H976.52C978.4 629.5 979.02 628.76 979.28 625.88C978.64 625.72 977.62 625.36 977.14 624.98C977.06 627.02 976.94 627.36 976.28 627.36H974.28ZM999.16 621.3H991.26V618.96H997.98V616.68H991.26V614.06C993.46 613.8 995.56 613.46 997.34 613L995.62 611.02C992.34 611.88 986.86 612.42 982.04 612.62C982.28 613.14 982.58 614.1 982.64 614.72C984.6 614.64 986.7 614.52 988.78 614.34V616.68H982.24V618.96H988.78V621.3H980.88V623.62H988.78V626.84C988.78 627.24 988.6 627.38 988.14 627.4C987.7 627.4 986.02 627.4 984.54 627.34C984.92 627.98 985.38 629.02 985.52 629.7C987.56 629.72 989 629.66 989.96 629.3C990.9 628.92 991.26 628.3 991.26 626.88V623.62H999.16V621.3ZM1010.72 623.36V621.44C1010.84 621.56 1010.92 621.66 1011 621.74C1011.32 621.3 1011.64 620.82 1011.92 620.3C1012.28 621.74 1012.72 623.06 1013.28 624.24C1012.4 625.48 1011.24 626.48 1009.76 627.26C1009.3 626.92 1008.72 626.56 1008.1 626.2C1008.6 625.42 1008.94 624.48 1009.16 623.36H1010.72ZM1004.98 623.36H1006.92C1006.74 624.08 1006.48 624.68 1006.16 625.18C1005.58 624.9 1005 624.66 1004.4 624.42L1004.98 623.36ZM1015.74 616.86C1015.52 618.62 1015.16 620.2 1014.66 621.56C1014.12 620.12 1013.72 618.54 1013.44 616.86H1015.74ZM1019.32 616.86V614.66H1014C1014.26 613.6 1014.48 612.5 1014.64 611.38L1012.24 611.06C1011.76 614.62 1010.8 618.02 1009.1 620.06C1009.54 620.36 1010.26 620.98 1010.72 621.44H1005.96L1006.44 620.48L1005.58 620.3H1006.86V617.88C1007.64 618.5 1008.48 619.2 1008.92 619.62L1010.18 617.98C1009.74 617.68 1008.32 616.84 1007.36 616.3H1010.64V614.42H1008.74C1009.22 613.8 1009.84 612.96 1010.46 612.1L1008.46 611.3C1008.14 612.06 1007.58 613.12 1007.12 613.84L1008.44 614.42H1006.86V611.06H1004.68V614.42H1003L1004.28 613.86C1004.12 613.16 1003.6 612.14 1003.08 611.38L1001.36 612.1C1001.78 612.82 1002.22 613.74 1002.4 614.42H1000.88V616.3H1004C1003.04 617.34 1001.7 618.3 1000.48 618.8C1000.92 619.22 1001.42 620 1001.68 620.52C1002.68 619.96 1003.76 619.12 1004.68 618.2V620.12L1004.24 620.02C1004.04 620.46 1003.8 620.94 1003.56 621.44H1000.66V623.36H1002.56C1002.06 624.32 1001.56 625.22 1001.12 625.92L1003.2 626.56L1003.42 626.18C1003.8 626.34 1004.18 626.52 1004.54 626.72C1003.6 627.24 1002.34 627.58 1000.74 627.78C1001.12 628.28 1001.54 629.08 1001.68 629.76C1003.82 629.32 1005.42 628.74 1006.6 627.86C1007.42 628.38 1008.14 628.9 1008.68 629.36L1009.58 628.44C1009.9 628.92 1010.2 629.46 1010.34 629.8C1012.08 628.92 1013.46 627.84 1014.56 626.52C1015.46 627.82 1016.56 628.88 1017.92 629.7C1018.28 629.04 1019.02 628.12 1019.56 627.64C1018.1 626.88 1016.94 625.74 1016.02 624.32C1017.1 622.3 1017.78 619.82 1018.2 616.86H1019.32ZM1034.38 614.56C1033.74 613.82 1032.32 612.8 1031.2 612.14L1030.06 613.74C1031.16 614.48 1032.54 615.56 1033.16 616.34L1034.38 614.56ZM1029.14 618.78C1030.3 619.46 1031.76 620.54 1032.42 621.26L1033.62 619.36C1032.9 618.66 1031.42 617.68 1030.26 617.06L1029.14 618.78ZM1027.34 612.16C1027.12 613.56 1026.66 615.58 1026.24 616.84L1027.74 617.26C1028.24 616.1 1028.82 614.2 1029.34 612.6L1027.34 612.16ZM1023.46 616.84C1023.36 615.6 1022.96 613.7 1022.44 612.26L1020.78 612.7C1021.24 614.14 1021.64 616.08 1021.68 617.3L1023.46 616.84ZM1028.92 623.42C1028.5 622.86 1026.6 620.62 1026.02 620.04V619.9H1028.98V617.68H1026.02V611.14H1023.82V617.68H1020.8V619.9H1023.08C1022.46 621.72 1021.44 623.86 1020.44 625.08C1020.8 625.74 1021.32 626.82 1021.52 627.54C1022.38 626.34 1023.18 624.48 1023.82 622.62V629.68H1026.02V622.66C1026.6 623.58 1027.16 624.62 1027.46 625.26L1028.92 623.42ZM1039.5 623.88L1039.14 621.66L1037.1 622.04V611.04H1034.86V622.44L1028.92 623.5L1029.28 625.72L1034.86 624.72V629.72H1037.1V624.32L1039.5 623.88Z" fill="#616161"/>
<path d="M818.65 699.82L819.53 698.82L820.41 699.82L821.04 699.36L820.37 698.22L821.57 697.69L821.33 696.95L820.05 697.24L819.93 695.92H819.14L819.01 697.24L817.73 696.95L817.49 697.69L818.68 698.22L818.02 699.36L818.65 699.82ZM830.029 697.15C829.799 697.22 829.469 697.27 829.159 697.27H827.149L827.179 697.22C827.299 697 827.549 696.55 827.789 696.2L826.329 695.72C826.239 696.06 826.029 696.52 825.879 696.77C825.379 697.63 824.509 698.92 822.759 699.99L823.879 700.82C824.859 700.15 825.729 699.27 826.399 698.4H829.209C829.049 699.15 828.469 700.35 827.789 701.13C826.919 702.12 825.809 702.99 823.759 703.6L824.939 704.66C826.819 703.91 828.029 703 828.979 701.84C829.879 700.72 830.449 699.39 830.719 698.5C830.799 698.25 830.939 697.97 831.049 697.78L830.029 697.15ZM834.949 704.42C835.189 704.27 835.409 704.2 835.549 704.15C837.899 703.38 839.979 702.19 841.349 700.55L840.639 699.42C839.359 700.98 837.129 702.26 835.499 702.72V697.53C835.499 697.14 835.539 696.78 835.599 696.4H834.029C834.089 696.68 834.139 697.15 834.139 697.53V702.95C834.139 703.18 834.129 703.35 834.009 703.6L834.949 704.42ZM849.349 696.32L848.519 696.67C848.879 697.18 849.109 697.61 849.399 698.24L850.269 697.87C850.039 697.41 849.639 696.74 849.349 696.32ZM850.729 695.84L849.879 696.19C850.249 696.69 850.499 697.08 850.819 697.71L851.669 697.33C851.429 696.89 851.039 696.24 850.729 695.84ZM845.009 696.13L844.289 697.23C844.949 697.6 845.989 698.27 846.549 698.66L847.289 697.56C846.769 697.2 845.669 696.49 845.009 696.13ZM843.159 703.23L843.909 704.54C844.789 704.38 846.229 703.88 847.249 703.31C848.879 702.36 850.299 701.1 851.219 699.71L850.449 698.35C849.659 699.78 848.259 701.15 846.559 702.1C845.479 702.7 844.279 703.04 843.159 703.23ZM843.469 698.41L842.749 699.51C843.419 699.87 844.459 700.54 845.029 700.94L845.759 699.82C845.249 699.46 844.149 698.77 843.469 698.41ZM857.109 698.05L855.919 698.44C856.169 698.96 856.609 700.17 856.729 700.66L857.929 700.24C857.789 699.78 857.299 698.48 857.109 698.05ZM859.389 698.33C859.279 699.58 858.799 700.91 858.119 701.76C857.289 702.8 855.899 703.56 854.799 703.85L855.849 704.92C857.019 704.48 858.269 703.64 859.199 702.44C859.879 701.56 860.299 700.52 860.559 699.51C860.619 699.31 860.679 699.1 860.799 698.78L859.389 698.33ZM854.789 698.58L853.589 699.01C853.829 699.45 854.329 700.78 854.499 701.32L855.719 700.86C855.519 700.3 855.039 699.09 854.789 698.58ZM870.749 700.32C869.829 699.87 867.909 699.16 866.569 698.77V697.3C866.569 696.88 866.619 696.44 866.659 696.09H865.099C865.169 696.44 865.199 696.94 865.199 697.3V703.04C865.199 703.44 865.159 704.04 865.099 704.43H866.659C866.619 704.03 866.569 703.33 866.569 703.04V700.21C867.649 700.58 869.149 701.16 870.179 701.7L870.749 700.32ZM879.919 697.7C879.669 697.74 879.409 697.77 879.159 697.77H877.279C877.299 697.48 877.309 697.18 877.319 696.87C877.329 696.63 877.349 696.21 877.379 695.98H875.909C875.949 696.22 875.979 696.68 875.979 696.9C875.979 697.2 875.969 697.49 875.959 697.77H874.529C874.149 697.77 873.629 697.74 873.209 697.7V699.01C873.639 698.97 874.189 698.97 874.529 698.97H875.849C875.629 700.49 875.129 701.61 874.199 702.53C873.799 702.94 873.309 703.28 872.889 703.51L874.049 704.45C875.839 703.18 876.789 701.61 877.159 698.97H879.409C879.409 700.05 879.279 702.05 878.989 702.68C878.879 702.92 878.739 703.03 878.419 703.03C878.029 703.03 877.509 702.98 877.019 702.89L877.169 704.23C877.659 704.27 878.259 704.31 878.829 704.31C879.519 704.31 879.899 704.05 880.119 703.54C880.549 702.52 880.669 699.73 880.709 698.65C880.709 698.54 880.749 698.29 880.779 698.12L879.919 697.7ZM882.979 700.94C883.349 700.91 884.019 700.89 884.589 700.89H889.959C890.379 700.89 890.889 700.93 891.129 700.94V699.37C890.869 699.39 890.419 699.43 889.959 699.43H884.589C884.069 699.43 883.339 699.4 882.979 699.37V700.94ZM901.129 697.49C900.899 697.04 900.479 696.41 900.189 696.01L899.359 696.4C899.729 696.9 899.969 697.27 900.289 697.9L901.129 697.49ZM899.789 698.07C899.559 697.62 899.159 696.98 898.879 696.56L898.039 696.92C898.409 697.43 898.629 697.83 898.919 698.46L899.789 698.07ZM896.259 697.44C896.259 697.02 896.309 696.58 896.349 696.23H894.789C894.859 696.59 894.889 697.08 894.889 697.44V703.19C894.889 703.58 894.849 704.19 894.789 704.58H896.359C896.309 704.17 896.259 703.47 896.259 703.19V700.36C897.339 700.72 898.839 701.3 899.879 701.85L900.439 700.46C899.519 700.01 897.589 699.3 896.259 698.9V697.44ZM905.219 698.53C905.979 697.94 906.619 697.29 907.049 696.68C907.509 697.3 908.199 697.95 908.969 698.53H905.219ZM904.729 699.62H909.399V698.83C909.949 699.21 910.529 699.54 911.079 699.8C911.289 699.45 911.549 699.02 911.849 698.71C910.269 698.15 908.679 697.01 907.619 695.54H906.379C905.629 696.72 904.049 698.14 902.339 698.89C902.589 699.15 902.899 699.6 903.039 699.89C903.619 699.61 904.199 699.27 904.729 698.89V699.62ZM902.959 701.55H905.279C905.069 702.14 904.789 702.8 904.519 703.36L903.009 703.41L903.169 704.57C904.869 704.49 907.339 704.39 909.689 704.26C909.849 704.48 909.989 704.69 910.089 704.88L911.199 704.21C910.729 703.46 909.799 702.42 908.909 701.64L907.859 702.19C908.189 702.49 908.529 702.85 908.839 703.21C907.819 703.25 906.789 703.29 905.829 703.32C906.129 702.76 906.459 702.14 906.749 701.55H911.229V700.45H902.959V701.55ZM916.809 701.18C916.599 700.98 915.829 700.29 915.349 699.9C915.829 699.24 916.229 698.52 916.529 697.76L915.859 697.33L915.649 697.38H915.199V695.54H914.019V697.38H912.599V698.45H915.019C914.359 699.61 913.309 700.66 912.219 701.25C912.399 701.48 912.679 702.06 912.779 702.38C913.199 702.12 913.619 701.79 914.019 701.42V704.87H915.199V701.1C915.539 701.47 915.879 701.87 916.089 702.15L916.809 701.18ZM919.689 703.42V699.76H921.579V698.61H919.689V695.62H918.469V698.61H916.569V699.76H918.469V703.42H916.159V704.58H921.819V703.42H919.689ZM926.539 697.02L926.549 698.3C927.789 698.41 929.579 698.41 930.799 698.3V697.02C929.729 697.15 927.759 697.19 926.539 697.02ZM926.199 701.15C926.099 701.61 926.029 702.03 926.029 702.44C926.029 703.45 926.839 704.07 928.549 704.07C929.669 704.07 930.469 703.99 931.109 703.87L931.079 702.53C930.219 702.71 929.489 702.79 928.599 702.79C927.599 702.79 927.219 702.53 927.219 702.09C927.219 701.82 927.259 701.58 927.339 701.26L926.199 701.15ZM923.629 696.25C923.629 696.56 923.569 696.94 923.529 697.22C923.419 697.98 923.119 699.65 923.119 701.14C923.119 702.48 923.309 703.69 923.509 704.38L924.649 704.3C924.639 704.16 924.639 704 924.629 703.89C924.629 703.79 924.659 703.57 924.689 703.43C924.789 702.9 925.119 701.83 925.399 701L924.779 700.52C924.639 700.84 924.479 701.17 924.339 701.52C924.309 701.31 924.299 701.07 924.299 700.88C924.299 699.89 924.639 697.91 924.779 697.25C924.819 697.07 924.939 696.57 925.019 696.37L923.629 696.25ZM936.499 702.41C936.499 703.06 936.269 703.35 935.629 703.35C934.939 703.35 934.439 703.17 934.439 702.68C934.439 702.26 934.899 702 935.669 702C935.949 702 936.229 702.03 936.489 702.07C936.499 702.2 936.499 702.32 936.499 702.41ZM940.779 702.87C940.099 702.23 939.029 701.55 937.769 701.17C937.719 700.44 937.679 699.66 937.659 699.06C938.459 699.04 939.639 699 940.469 698.92L940.419 697.74C939.599 697.83 938.439 697.87 937.659 697.89C937.659 697.64 937.659 697.39 937.659 697.17C937.679 696.78 937.709 696.3 937.749 696.01H936.259C936.319 696.26 936.349 696.68 936.359 697.17C936.369 697.59 936.379 698.18 936.379 698.78C936.379 699.3 936.419 700.15 936.449 700.92C936.259 700.9 936.059 700.89 935.859 700.89C934.039 700.89 933.159 701.71 933.159 702.74C933.159 704.09 934.319 704.55 935.729 704.55C937.389 704.55 937.839 703.71 937.839 702.84C937.839 702.74 937.839 702.63 937.829 702.5C938.709 702.9 939.459 703.49 940.019 704.05L940.779 702.87ZM944.133 695.94C944.123 696.22 944.103 696.62 944.053 696.98C943.903 698 943.773 699.23 943.773 700.15C943.773 700.81 943.843 701.42 943.893 701.8L945.123 701.72C945.063 701.26 945.063 700.94 945.073 700.67C945.123 699.37 946.143 697.61 947.313 697.61C948.133 697.61 948.643 698.46 948.643 699.99C948.643 702.39 947.103 703.11 944.903 703.45L945.653 704.6C948.273 704.12 949.993 702.78 949.993 699.98C949.993 697.8 948.923 696.45 947.543 696.45C946.423 696.45 945.563 697.29 945.093 698.05C945.153 697.5 945.353 696.49 945.493 696L944.133 695.94ZM953.803 697.04H955.683V698.41H953.803V697.04ZM954.823 700.29C954.843 700.02 954.863 699.74 954.883 699.47H956.833V695.99H952.723V699.47H953.723C953.643 701.13 953.443 702.93 952.133 704.01C952.413 704.21 952.753 704.58 952.923 704.88C953.983 703.98 954.453 702.7 954.683 701.33H955.793C955.723 702.91 955.633 703.55 955.483 703.72C955.393 703.83 955.303 703.85 955.153 703.85C954.973 703.85 954.573 703.85 954.173 703.8C954.343 704.09 954.463 704.52 954.473 704.83C954.953 704.85 955.413 704.84 955.683 704.8C956.003 704.76 956.233 704.67 956.433 704.43C956.713 704.09 956.813 703.13 956.913 700.72C956.913 700.58 956.923 700.29 956.923 700.29H954.823ZM958.743 696.74H957.583V702.37H958.743V696.74ZM959.933 695.73V703.43C959.933 703.61 959.853 703.67 959.663 703.67C959.453 703.67 958.813 703.67 958.163 703.65C958.343 703.98 958.523 704.53 958.573 704.88C959.483 704.88 960.153 704.84 960.563 704.65C960.973 704.46 961.113 704.13 961.113 703.43V695.73H959.933ZM966.633 697.94C967.213 697.51 967.713 697.03 968.063 696.57C968.423 697.03 968.973 697.52 969.553 697.94H966.633ZM966.283 698.9H967.553V699.45H965.133V700.43H967.553V702.14C967.553 702.25 967.513 702.29 967.383 702.29C967.283 702.29 966.893 702.29 966.553 702.27C966.683 702.55 966.823 702.97 966.863 703.27C967.483 703.27 967.933 703.26 968.273 703.1C968.613 702.94 968.693 702.67 968.693 702.16V700.43H971.233V699.45H968.693V698.9H969.983V698.24C970.293 698.44 970.603 698.61 970.893 698.75C971.073 698.41 971.333 697.96 971.583 697.65C970.473 697.27 969.373 696.47 968.603 695.54H967.433C966.883 696.35 965.753 697.28 964.623 697.74C964.843 698.01 965.113 698.48 965.243 698.78C965.593 698.61 965.943 698.41 966.283 698.19V698.9ZM969.063 701.05C969.513 701.61 970.043 702.39 970.263 702.88L971.263 702.39C971.013 701.88 970.453 701.15 970.003 700.61L969.063 701.05ZM965.973 700.66C965.733 701.28 965.293 701.89 964.773 702.3C965.023 702.44 965.453 702.71 965.653 702.89C966.173 702.42 966.693 701.66 967.003 700.91L965.973 700.66ZM964.853 697.29C964.523 696.82 963.803 696.18 963.223 695.76L962.333 696.47C962.913 696.92 963.613 697.6 963.903 698.07L964.853 697.29ZM964.593 699.41H962.333V700.5H963.433V702.61C963.003 702.95 962.513 703.29 962.113 703.53L962.693 704.77C963.223 704.35 963.653 703.96 964.083 703.57C964.733 704.35 965.563 704.63 966.803 704.68C968.003 704.73 970.013 704.71 971.223 704.65C971.273 704.31 971.453 703.73 971.593 703.45C970.263 703.55 967.993 703.58 966.823 703.53C965.773 703.49 965.013 703.22 964.593 702.55V699.41ZM975.203 696.56C974.803 696.23 974.003 695.81 973.393 695.57L972.743 696.46C973.373 696.73 974.153 697.19 974.513 697.54L975.203 696.56ZM974.653 699.22C974.253 698.88 973.423 698.49 972.803 698.27L972.173 699.16C972.803 699.43 973.593 699.87 973.973 700.21L974.653 699.22ZM974.213 700.8C973.653 701.97 972.943 703.23 972.443 703.99L973.483 704.73C974.043 703.75 974.623 702.6 975.123 701.54L974.213 700.8ZM978.373 698.18H979.613V699.99H978.343C978.363 699.66 978.373 699.34 978.373 699.01V698.18ZM981.523 701.11V699.99H980.773V697.06H978.373V695.54H977.193V697.06H975.523V698.18H977.193V699C977.193 699.33 977.183 699.66 977.163 699.99H975.033V701.11H976.983C976.693 702.23 976.023 703.26 974.503 704.06C974.823 704.24 975.283 704.65 975.493 704.9C977.023 704.06 977.753 702.92 978.083 701.69C978.653 703.14 979.503 704.25 980.803 704.89C980.983 704.56 981.353 704.09 981.633 703.85C980.413 703.35 979.563 702.34 979.083 701.11H981.523ZM984.243 700.8C983.673 701.97 982.953 703.23 982.453 703.99L983.493 704.73C984.053 703.75 984.643 702.6 985.143 701.54L984.243 700.8ZM984.653 699.22C984.253 698.88 983.423 698.49 982.803 698.27L982.173 699.16C982.803 699.43 983.593 699.87 983.973 700.21L984.653 699.22ZM989.483 700.09V700.5H987.033V700.06H986.193C986.913 699.87 987.593 699.64 988.213 699.35C988.923 699.69 989.703 699.91 990.523 700.09H989.483ZM986.973 702.18C987.013 701.94 987.023 701.7 987.033 701.49H989.483V702.18H986.973ZM989.143 697.46C988.903 697.73 988.613 697.97 988.273 698.18C987.923 697.99 987.593 697.75 987.273 697.46H989.143ZM991.413 697.46V696.43H988.863V695.54H987.633V696.43H985.123V696.5C984.703 696.18 983.963 695.8 983.393 695.58L982.743 696.46C983.373 696.73 984.153 697.19 984.513 697.54L985.123 696.67V697.46H985.903C986.283 697.97 986.703 698.37 987.153 698.71C986.423 698.97 985.583 699.15 984.713 699.27C984.893 699.5 985.173 700 985.273 700.27C985.483 700.23 985.693 700.18 985.893 700.13V701.22C985.893 702.07 985.763 703.46 984.643 704.34C984.933 704.47 985.383 704.79 985.593 704.97C986.213 704.47 986.563 703.82 986.773 703.16H989.483V704.85H990.653V700.12L991.013 700.19C991.123 699.82 991.393 699.39 991.653 699.12C990.833 699.01 990.073 698.87 989.363 698.65C989.803 698.31 990.183 697.92 990.483 697.46H991.413ZM1001.44 700.65H997.493V699.48H1000.85V698.34H997.493V697.03C998.593 696.9 999.643 696.73 1000.53 696.5L999.673 695.51C998.033 695.94 995.293 696.21 992.883 696.31C993.003 696.57 993.153 697.05 993.183 697.36C994.163 697.32 995.213 697.26 996.253 697.17V698.34H992.983V699.48H996.253V700.65H992.303V701.81H996.253V703.42C996.253 703.62 996.163 703.69 995.933 703.7C995.713 703.7 994.873 703.7 994.133 703.67C994.323 703.99 994.553 704.51 994.623 704.85C995.643 704.86 996.363 704.83 996.843 704.65C997.313 704.46 997.493 704.15 997.493 703.44V701.81H1001.44V700.65ZM1007.22 701.68V700.72C1007.28 700.78 1007.32 700.83 1007.36 700.87C1007.52 700.65 1007.68 700.41 1007.82 700.15C1008 700.87 1008.22 701.53 1008.5 702.12C1008.06 702.74 1007.48 703.24 1006.74 703.63C1006.51 703.46 1006.22 703.28 1005.91 703.1C1006.16 702.71 1006.33 702.24 1006.44 701.68H1007.22ZM1004.35 701.68H1005.32C1005.23 702.04 1005.1 702.34 1004.94 702.59C1004.65 702.45 1004.36 702.33 1004.06 702.21L1004.35 701.68ZM1009.73 698.43C1009.62 699.31 1009.44 700.1 1009.19 700.78C1008.92 700.06 1008.72 699.27 1008.58 698.43H1009.73ZM1011.52 698.43V697.33H1008.86C1008.99 696.8 1009.1 696.25 1009.18 695.69L1007.98 695.53C1007.74 697.31 1007.26 699.01 1006.41 700.03C1006.63 700.18 1006.99 700.49 1007.22 700.72H1004.84L1005.08 700.24L1004.65 700.15H1005.29V698.94C1005.68 699.25 1006.1 699.6 1006.32 699.81L1006.95 698.99C1006.73 698.84 1006.02 698.42 1005.54 698.15H1007.18V697.21H1006.23C1006.47 696.9 1006.78 696.48 1007.09 696.05L1006.09 695.65C1005.93 696.03 1005.65 696.56 1005.42 696.92L1006.08 697.21H1005.29V695.53H1004.2V697.21H1003.36L1004 696.93C1003.92 696.58 1003.66 696.07 1003.4 695.69L1002.54 696.05C1002.75 696.41 1002.97 696.87 1003.06 697.21H1002.3V698.15H1003.86C1003.38 698.67 1002.71 699.15 1002.1 699.4C1002.32 699.61 1002.57 700 1002.7 700.26C1003.2 699.98 1003.74 699.56 1004.2 699.1V700.06L1003.98 700.01C1003.88 700.23 1003.76 700.47 1003.64 700.72H1002.19V701.68H1003.14C1002.89 702.16 1002.64 702.61 1002.42 702.96L1003.46 703.28L1003.57 703.09C1003.76 703.17 1003.95 703.26 1004.13 703.36C1003.66 703.62 1003.03 703.79 1002.23 703.89C1002.42 704.14 1002.63 704.54 1002.7 704.88C1003.77 704.66 1004.57 704.37 1005.16 703.93C1005.57 704.19 1005.93 704.45 1006.2 704.68L1006.65 704.22C1006.81 704.46 1006.96 704.73 1007.03 704.9C1007.9 704.46 1008.59 703.92 1009.14 703.26C1009.59 703.91 1010.14 704.44 1010.82 704.85C1011 704.52 1011.37 704.06 1011.64 703.82C1010.91 703.44 1010.33 702.87 1009.87 702.16C1010.41 701.15 1010.75 699.91 1010.96 698.43H1011.52ZM1019.05 697.28C1018.73 696.91 1018.02 696.4 1017.46 696.07L1016.89 696.87C1017.44 697.24 1018.13 697.78 1018.44 698.17L1019.05 697.28ZM1016.43 699.39C1017.01 699.73 1017.74 700.27 1018.07 700.63L1018.67 699.68C1018.31 699.33 1017.57 698.84 1016.99 698.53L1016.43 699.39ZM1015.53 696.08C1015.42 696.78 1015.19 697.79 1014.98 698.42L1015.73 698.63C1015.98 698.05 1016.27 697.1 1016.53 696.3L1015.53 696.08ZM1013.59 698.42C1013.54 697.8 1013.34 696.85 1013.08 696.13L1012.25 696.35C1012.48 697.07 1012.68 698.04 1012.7 698.65L1013.59 698.42ZM1016.32 701.71C1016.11 701.43 1015.16 700.31 1014.87 700.02V699.95H1016.35V698.84H1014.87V695.57H1013.77V698.84H1012.26V699.95H1013.4C1013.09 700.86 1012.58 701.93 1012.08 702.54C1012.26 702.87 1012.52 703.41 1012.62 703.77C1013.05 703.17 1013.45 702.24 1013.77 701.31V704.84H1014.87V701.33C1015.16 701.79 1015.44 702.31 1015.59 702.63L1016.32 701.71ZM1021.61 701.94L1021.43 700.83L1020.41 701.02V695.52H1019.29V701.22L1016.32 701.75L1016.5 702.86L1019.29 702.36V704.86H1020.41V702.16L1021.61 701.94ZM1031.66 696.7C1031.49 696.35 1031.12 695.72 1030.85 695.34L1030.06 695.67C1030.34 696.04 1030.66 696.63 1030.87 697.05L1031.66 696.7ZM1024.94 696.05C1024.95 696.67 1024.87 697.39 1024.73 698.15C1024.23 698.19 1023.76 698.22 1023.45 698.23C1023.09 698.24 1022.76 698.26 1022.4 698.23L1022.51 699.57C1022.82 699.52 1023.33 699.45 1023.61 699.42C1023.8 699.39 1024.11 699.35 1024.46 699.31C1024.11 700.66 1023.43 702.64 1022.47 703.94L1023.76 704.46C1024.67 703 1025.39 700.67 1025.78 699.17C1026.06 699.15 1026.3 699.13 1026.46 699.13C1027.08 699.13 1027.42 699.24 1027.42 700.03C1027.42 701.01 1027.29 702.19 1027.02 702.74C1026.86 703.07 1026.61 703.17 1026.28 703.17C1026.02 703.17 1025.44 703.07 1025.06 702.96L1025.28 704.27C1025.61 704.35 1026.09 704.41 1026.46 704.41C1027.22 704.41 1027.76 704.19 1028.09 703.5C1028.51 702.64 1028.65 701.06 1028.65 699.89C1028.65 698.47 1027.91 698 1026.86 698C1026.66 698 1026.36 698.02 1026.03 698.04C1026.1 697.68 1026.18 697.32 1026.24 697.02C1026.29 696.77 1026.35 696.46 1026.41 696.2L1024.94 696.05ZM1030.47 697.16C1030.27 696.79 1029.92 696.16 1029.67 695.79L1028.88 696.12C1029.11 696.44 1029.36 696.92 1029.56 697.3L1028.64 697.69C1029.35 698.57 1030.05 700.32 1030.31 701.42L1031.57 700.83C1031.28 699.96 1030.54 698.29 1029.96 697.38L1030.47 697.16ZM1038.03 697.22C1037.46 696.78 1036.45 696.04 1035.64 695.52L1034.87 696.39C1035.65 696.93 1036.67 697.71 1037.25 698.19L1038.03 697.22ZM1033.16 698.23C1032.98 699.4 1032.6 700.67 1032.11 701.53L1033.26 701.96C1033.76 701.1 1034.08 699.7 1034.29 698.52L1033.16 698.23ZM1036.61 703.57C1036.1 703.57 1036.02 703.5 1036.02 702.99V702.38C1038.03 700.74 1039.6 698.68 1040.69 696.59L1039.49 696.12C1038.73 697.72 1037.53 699.38 1036.02 700.8V697.78H1034.75V701.87C1033.94 702.49 1033.06 703.03 1032.13 703.45C1032.37 703.68 1032.73 704.12 1032.91 704.39C1033.55 704.08 1034.18 703.72 1034.76 703.32C1034.83 704.42 1035.25 704.76 1036.48 704.76H1038.23C1039.46 704.76 1039.81 704.17 1039.97 702.37C1039.62 702.29 1039.09 702.08 1038.8 701.87C1038.72 703.28 1038.64 703.57 1038.13 703.57H1036.61ZM1039.02 699.41C1039.61 700.35 1040.23 701.63 1040.46 702.46L1041.6 701.88C1041.35 701.06 1040.72 699.84 1040.09 698.9L1039.02 699.41ZM1045.75 701.88H1048.19C1047.95 702.25 1047.64 702.56 1047.27 702.81C1046.66 702.65 1046.03 702.5 1045.41 702.37L1045.75 701.88ZM1044.06 698.42H1045.11V699.35H1044.06V698.42ZM1046.23 696.91H1047.36V697.48H1046.23V696.91ZM1049.68 698.42V699.35H1048.48V698.42H1049.68ZM1046.23 699.35V698.42H1047.36V699.35H1046.23ZM1051.43 701.88V700.92H1046.38C1046.52 700.7 1046.66 700.49 1046.78 700.28H1050.87V697.48H1048.48V696.91H1051.19V695.88H1042.48V696.91H1045.11V697.48H1042.94V700.28H1045.42C1045.29 700.49 1045.16 700.7 1045.02 700.92H1042.3V701.88H1044.38C1044.08 702.31 1043.79 702.7 1043.54 703.02L1044.69 703.38L1044.8 703.23C1045.13 703.3 1045.45 703.38 1045.77 703.46C1044.88 703.69 1043.8 703.81 1042.48 703.86C1042.66 704.12 1042.85 704.54 1042.93 704.88C1044.87 704.73 1046.35 704.47 1047.47 703.92C1048.6 704.25 1049.61 704.6 1050.37 704.91L1051.1 703.94C1050.42 703.7 1049.55 703.43 1048.58 703.16C1048.95 702.81 1049.26 702.39 1049.51 701.88H1051.43ZM1056.34 697.02L1056.35 698.3C1057.59 698.41 1059.38 698.41 1060.6 698.3V697.02C1059.53 697.15 1057.56 697.19 1056.34 697.02ZM1056 701.15C1055.9 701.61 1055.83 702.03 1055.83 702.44C1055.83 703.45 1056.64 704.07 1058.35 704.07C1059.47 704.07 1060.27 703.99 1060.91 703.87L1060.88 702.53C1060.02 702.71 1059.29 702.79 1058.4 702.79C1057.4 702.79 1057.02 702.53 1057.02 702.09C1057.02 701.82 1057.06 701.58 1057.14 701.26L1056 701.15ZM1053.43 696.25C1053.43 696.56 1053.37 696.94 1053.33 697.22C1053.22 697.98 1052.92 699.65 1052.92 701.14C1052.92 702.48 1053.11 703.69 1053.31 704.38L1054.45 704.3C1054.44 704.16 1054.44 704 1054.43 703.89C1054.43 703.79 1054.46 703.57 1054.49 703.43C1054.59 702.9 1054.92 701.83 1055.2 701L1054.58 700.52C1054.44 700.84 1054.28 701.17 1054.14 701.52C1054.11 701.31 1054.1 701.07 1054.1 700.88C1054.1 699.89 1054.44 697.91 1054.58 697.25C1054.62 697.07 1054.74 696.57 1054.82 696.37L1053.43 696.25ZM1071.3 698.54C1070.8 698.18 1069.57 697.51 1068.86 697.2L1068.22 698.18C1068.9 698.48 1070.03 699.13 1070.6 699.59L1071.3 698.54ZM1067.57 697.02C1067.18 697.14 1066.72 697.25 1066.24 697.33C1066.38 696.8 1066.5 696.3 1066.58 695.98L1065.21 695.84C1065.19 696.35 1065.08 696.95 1064.94 697.5C1064.64 697.52 1064.34 697.53 1064.05 697.53C1063.69 697.53 1063.16 697.51 1062.73 697.46L1062.82 698.62C1063.25 698.64 1063.65 698.65 1064.06 698.65C1064.23 698.65 1064.4 698.65 1064.57 698.64C1064.13 699.71 1063.35 701.17 1062.55 702.14L1063.76 702.75C1064.56 701.62 1065.41 699.9 1065.88 698.51C1066.54 698.42 1067.15 698.29 1067.6 698.17L1067.57 697.02ZM1067.81 702.53C1067.81 703.06 1067.59 703.45 1066.92 703.45C1066.38 703.45 1066.07 703.2 1066.07 702.83C1066.07 702.48 1066.44 702.24 1067.01 702.24C1067.29 702.24 1067.55 702.28 1067.81 702.34V702.53ZM1067.65 699.06C1067.68 699.66 1067.73 700.53 1067.76 701.27C1067.55 701.25 1067.32 701.23 1067.09 701.23C1065.71 701.23 1064.9 701.98 1064.9 702.95C1064.9 704.04 1065.87 704.59 1067.1 704.59C1068.51 704.59 1069.01 703.87 1069.01 702.95V702.86C1069.55 703.19 1070 703.59 1070.35 703.91L1071.01 702.85C1070.51 702.4 1069.81 701.9 1068.96 701.58C1068.93 701.09 1068.91 700.61 1068.9 700.33C1068.89 699.89 1068.87 699.48 1068.9 699.06H1067.65ZM1074.13 695.94C1074.12 696.22 1074.1 696.62 1074.05 696.98C1073.9 698 1073.77 699.23 1073.77 700.15C1073.77 700.81 1073.84 701.42 1073.89 701.8L1075.12 701.72C1075.06 701.26 1075.06 700.94 1075.07 700.67C1075.12 699.37 1076.14 697.61 1077.31 697.61C1078.13 697.61 1078.64 698.46 1078.64 699.99C1078.64 702.39 1077.1 703.11 1074.9 703.45L1075.65 704.6C1078.27 704.12 1079.99 702.78 1079.99 699.98C1079.99 697.8 1078.92 696.45 1077.54 696.45C1076.42 696.45 1075.56 697.29 1075.09 698.05C1075.15 697.5 1075.35 696.49 1075.49 696L1074.13 695.94ZM1086.63 702.69C1086.63 703.26 1086.29 703.42 1085.76 703.42C1085.08 703.42 1084.73 703.18 1084.73 702.81C1084.73 702.47 1085.11 702.2 1085.81 702.2C1086.09 702.2 1086.36 702.23 1086.62 702.27C1086.63 702.44 1086.63 702.58 1086.63 702.69ZM1090.59 702.94C1090.02 702.46 1089.07 701.8 1087.82 701.44C1087.79 701.06 1087.77 700.66 1087.75 700.29C1088.71 700.26 1089.48 700.19 1090.37 700.09V698.92C1089.56 699.02 1088.73 699.11 1087.73 699.15L1087.74 698.12C1088.69 698.07 1089.49 697.99 1090.14 697.93L1090.11 696.79C1089.25 696.92 1088.52 697 1087.75 697.03L1087.76 696.64C1087.77 696.39 1087.8 696.14 1087.83 695.94H1086.48C1086.52 696.13 1086.53 696.44 1086.53 696.62V697.07H1086.04C1085.43 697.07 1084.51 697 1083.89 696.88L1083.9 698.01C1084.47 698.1 1085.42 698.16 1086.05 698.16H1086.52V699.19H1086.05C1085.52 699.19 1084.23 699.12 1083.66 699.01L1083.65 700.18C1084.31 700.26 1085.45 700.31 1086.03 700.31H1086.54C1086.55 700.6 1086.56 700.91 1086.58 701.21C1086.38 701.19 1086.18 701.18 1085.97 701.18C1084.44 701.18 1083.52 701.88 1083.52 702.88C1083.52 703.93 1084.36 704.53 1085.94 704.53C1087.25 704.53 1087.89 703.88 1087.89 703.03C1087.89 702.93 1087.89 702.81 1087.88 702.68C1088.67 703.04 1089.35 703.55 1089.88 704.05L1090.59 702.94ZM1095.89 700.71C1095.89 700.19 1096.27 699.93 1096.65 699.93C1096.93 699.93 1097.16 700.04 1097.3 700.28C1097.43 701.14 1097.06 701.45 1096.65 701.45C1096.26 701.45 1095.89 701.17 1095.89 700.71ZM1101.17 697.12C1100.65 697.11 1099.3 697.12 1098.3 697.12C1098.3 697 1098.31 696.9 1098.31 696.82C1098.32 696.66 1098.35 696.13 1098.38 695.97H1096.94C1096.98 696.13 1097.01 696.51 1097.03 696.83C1097.04 696.9 1097.04 697.01 1097.04 697.13C1095.71 697.15 1093.91 697.2 1092.78 697.2L1092.81 698.4C1094.03 698.33 1095.56 698.27 1097.06 698.25L1097.07 698.91C1096.95 698.89 1096.82 698.88 1096.68 698.88C1095.6 698.88 1094.7 699.61 1094.7 700.73C1094.7 701.94 1095.64 702.55 1096.41 702.55C1096.57 702.55 1096.72 702.53 1096.86 702.5C1096.31 703.09 1095.44 703.42 1094.44 703.63L1095.49 704.69C1097.91 704.01 1098.67 702.37 1098.67 701.08C1098.67 700.56 1098.55 700.08 1098.3 699.71C1098.3 699.28 1098.3 698.74 1098.29 698.24C1099.63 698.24 1100.56 698.26 1101.16 698.29L1101.17 697.12Z" fill="#616161"/>
<path d="M827.16 662.34C826.78 661.6 826.24 660.74 825.74 660L824.08 660.68C824.6 661.4 825.08 662.24 825.48 663.04L827.16 662.34ZM815.48 670.7C815.48 669.66 816.26 669.14 817 669.14C817.54 669.14 818.02 669.36 818.3 669.82C818.56 671.56 817.84 672.2 817.02 672.2C816.22 672.2 815.48 671.62 815.48 670.7ZM824.46 662.92C824.1 662.2 823.56 661.28 823.06 660.58L821.42 661.26C821.9 661.96 822.32 662.74 822.72 663.52H820.3C820.3 663.28 820.32 663.08 820.32 662.92C820.34 662.6 820.4 661.54 820.46 661.22H817.58C817.66 661.56 817.72 662.3 817.78 662.94C817.78 663.1 817.8 663.3 817.8 663.54C815.12 663.58 811.54 663.68 809.26 663.68L809.32 666.08C811.76 665.94 814.84 665.82 817.84 665.78L817.86 667.1C817.6 667.06 817.34 667.04 817.06 667.04C814.9 667.04 813.1 668.5 813.1 670.76C813.1 673.16 815 674.38 816.52 674.38C816.84 674.38 817.14 674.34 817.42 674.28C816.34 675.46 814.58 676.12 812.58 676.54L814.7 678.66C819.52 677.3 821.04 674.04 821.04 671.44C821.04 670.4 820.8 669.44 820.3 668.7C820.3 667.84 820.3 666.76 820.28 665.76C822.96 665.76 824.82 665.82 826.02 665.88L826.04 663.52C825.46 663.5 824.32 663.52 823.08 663.52L824.46 662.92Z" fill="white"/>
<path d="M1015.74 668.5L1016.76 671.1C1018.46 670.38 1022.4 668.74 1024.7 668.74C1026.42 668.74 1027.54 669.78 1027.54 671.26C1027.54 673.96 1024.18 675.14 1019.68 675.26L1020.72 677.72C1027.02 677.34 1030.16 674.88 1030.16 671.3C1030.16 668.3 1028.06 666.44 1024.94 666.44C1022.54 666.44 1019.18 667.58 1017.84 667.98C1017.24 668.18 1016.32 668.4 1015.74 668.5ZM1047.62 663.06C1047.12 663.48 1046.54 663.82 1045.8 664.26C1044.86 664.78 1043.14 665.66 1041.52 666.6C1040.72 665.08 1039.8 663.18 1039.04 661.12L1036.54 662.14C1037.44 664.24 1038.4 666.34 1039.32 668.04C1037.42 669.44 1036.04 671.06 1036.04 673.26C1036.04 676.66 1039.02 677.76 1042.96 677.76C1045.54 677.76 1047.64 677.56 1049.32 677.28L1049.36 674.42C1047.6 674.82 1044.92 675.14 1042.88 675.14C1040.14 675.14 1038.76 674.38 1038.76 672.96C1038.76 671.58 1039.86 670.44 1041.52 669.36C1043.32 668.2 1045.8 667.04 1047.04 666.42C1047.76 666.06 1048.4 665.72 1049 665.36L1047.62 663.06ZM1059.24 676.54C1058.22 675.3 1056.3 673.32 1054.88 672.16L1052.8 673.96C1054.2 675.16 1055.88 676.88 1057.1 678.38L1059.24 676.54ZM1086.22 666.8H1084.7V664.24H1086.22V666.8ZM1086.22 671.46H1084.7V668.92H1086.22V671.46ZM1077.82 668.92H1079.26V671.46H1077.82V668.92ZM1082.72 668.92V671.46H1081.24V668.92H1082.72ZM1081.24 666.8V664.24H1082.72V666.8H1081.24ZM1077.82 664.24H1079.26V666.8H1077.82V664.24ZM1075.72 666.8H1073.04V668.92H1075.72V671.46H1073.34V673.58H1090.72V671.46H1088.4V668.92H1091V666.8H1088.4V664.24H1090.28V662.14H1078.28C1078.58 661.68 1078.84 661.22 1079.06 660.74L1076.74 660.06C1075.86 661.92 1074.28 663.74 1072.6 664.84C1073.14 665.22 1074.1 665.98 1074.54 666.4C1074.94 666.1 1075.32 665.74 1075.72 665.36V666.8ZM1075.1 678.76C1076.08 677.72 1076.94 676.08 1077.38 674.56L1075.08 674C1074.62 675.46 1073.72 677 1072.84 677.84L1075.1 678.76ZM1078.66 674.7C1078.88 675.92 1079.04 677.56 1079.04 678.52L1081.36 678.18C1081.34 677.24 1081.12 675.66 1080.88 674.44L1078.66 674.7ZM1082.62 674.74C1083.06 675.96 1083.52 677.58 1083.64 678.54L1086.02 678.08C1085.84 677.1 1085.34 675.54 1084.86 674.36L1082.62 674.74ZM1086.58 674.64C1087.46 675.92 1088.52 677.68 1088.94 678.74L1091.38 677.92C1090.88 676.82 1089.76 675.14 1088.86 673.92L1086.58 674.64ZM1106.38 663.56C1105.74 662.82 1104.32 661.8 1103.2 661.14L1102.06 662.74C1103.16 663.48 1104.54 664.56 1105.16 665.34L1106.38 663.56ZM1101.14 667.78C1102.3 668.46 1103.76 669.54 1104.42 670.26L1105.62 668.36C1104.9 667.66 1103.42 666.68 1102.26 666.06L1101.14 667.78ZM1099.34 661.16C1099.12 662.56 1098.66 664.58 1098.24 665.84L1099.74 666.26C1100.24 665.1 1100.82 663.2 1101.34 661.6L1099.34 661.16ZM1095.46 665.84C1095.36 664.6 1094.96 662.7 1094.44 661.26L1092.78 661.7C1093.24 663.14 1093.64 665.08 1093.68 666.3L1095.46 665.84ZM1100.92 672.42C1100.5 671.86 1098.6 669.62 1098.02 669.04V668.9H1100.98V666.68H1098.02V660.14H1095.82V666.68H1092.8V668.9H1095.08C1094.46 670.72 1093.44 672.86 1092.44 674.08C1092.8 674.74 1093.32 675.82 1093.52 676.54C1094.38 675.34 1095.18 673.48 1095.82 671.62V678.68H1098.02V671.66C1098.6 672.58 1099.16 673.62 1099.46 674.26L1100.92 672.42ZM1111.5 672.88L1111.14 670.66L1109.1 671.04V660.04H1106.86V671.44L1100.92 672.5L1101.28 674.72L1106.86 673.72V678.72H1109.1V673.32L1111.5 672.88Z" fill="white"/>
<path d="M949 546.92C948.78 546.7 948.24 546.16 947.64 545.6C948.18 545.04 948.8 544.32 949.5 543.64L947.98 542.38C947.64 543 947.06 543.92 946.54 544.6C946.34 544.42 946.16 544.26 946 544.12C947 542.64 947.86 541.02 948.46 539.38L947.12 538.5L946.74 538.6H945.88V535.08H943.54V538.6H940.96V540.74H945.52C944.3 543.12 942.36 545.46 940.4 546.82C940.78 547.24 941.4 548.4 941.62 548.98C942.26 548.48 942.9 547.9 943.54 547.22V553.74H945.88V546.56C946.54 547.32 947.2 548.16 947.58 548.74L949 546.92ZM948.28 536.6V538.84H951.16C951.06 543.94 950.76 549 946.66 551.88C947.28 552.34 948.02 553.12 948.42 553.76C952.88 550.38 953.42 544.62 953.58 538.84H956.48C956.34 547.02 956.12 550.24 955.56 550.9C955.34 551.2 955.14 551.28 954.82 551.28C954.34 551.28 953.4 551.28 952.36 551.2C952.78 551.9 953.06 552.96 953.1 553.66C954.18 553.68 955.28 553.7 956 553.56C956.76 553.42 957.26 553.16 957.8 552.36C958.56 551.28 958.74 547.8 958.92 537.8C958.94 537.48 958.94 536.6 958.94 536.6H948.28ZM964.6 545.56H967.08V546.92H964.6V545.56ZM967.08 539.5V540.66H964.6V539.5H967.08ZM964.6 542.48H967.08V543.74H964.6V542.48ZM970.48 546.92H969.26V539.5H970.62V537.42H969.26V535.3H967.08V537.42H964.6V535.3H962.46V537.42H960.9V539.5H962.46V546.92H960.66V549H970.48V546.92ZM963.14 549.14C962.58 550.34 961.54 551.6 960.5 552.38C961.04 552.7 961.96 553.38 962.4 553.8C963.48 552.82 964.66 551.26 965.36 549.8L963.14 549.14ZM973.5 545C973.52 544.38 973.52 543.8 973.52 543.28V542.54H976.4V545H973.5ZM976.4 538.1V540.44H973.52V538.1H976.4ZM978.7 535.94H971.3V543.28C971.3 545.88 971.2 549.26 970.04 551.76C969.54 550.94 968.6 549.84 967.88 549.04L966.08 550.02C966.86 550.94 967.82 552.26 968.22 553.04L969.88 552.1C969.82 552.22 969.74 552.32 969.68 552.44C970.2 552.64 971.18 553.36 971.56 553.78C972.64 551.98 973.14 549.48 973.36 547.12H976.4V551.06C976.4 551.38 976.3 551.48 976 551.48C975.72 551.48 974.76 551.5 973.9 551.44C974.2 552.04 974.5 553.08 974.58 553.7C976.06 553.72 977.08 553.66 977.78 553.28C978.48 552.9 978.7 552.28 978.7 551.1V535.94ZM985.8 548.52H994.4V549.34H985.8V548.52ZM991.08 541.7V543.02H987.44C987.88 542.62 988.2 542.18 988.42 541.7H991.08ZM984.66 539.52H986.68C986.68 539.8 986.64 540.06 986.56 540.3H984.38L984.66 539.52ZM988.86 537.34H991.08V538.14H988.86V537.34ZM995.42 537.34V538.14H993.34V537.34H995.42ZM991.08 540.3H988.8C988.82 540.04 988.84 539.78 988.86 539.52H991.08V540.3ZM996.54 541.7C996.5 542 996.44 542.18 996.36 542.28C996.24 542.42 996.12 542.42 995.94 542.42C995.72 542.44 995.3 542.42 994.84 542.36C994.92 542.54 995.02 542.78 995.08 543.02H993.34V541.7H996.54ZM994.4 545.16H985.8V544.38H994.4V545.16ZM994.4 547.24H985.8V546.44H994.4V547.24ZM996.82 550.7V543.8C996.94 543.8 997.04 543.78 997.12 543.78C997.54 543.76 997.98 543.6 998.28 543.3C998.62 542.94 998.74 542.22 998.84 540.92C998.86 540.7 998.88 540.3 998.88 540.3H993.34V539.52H997.58V535.94H993.34V535.08H991.08V535.94H988.86V535.08H986.7V535.94H982.16V537.34H986.7V538.14H982.9C982.56 539.32 982.08 540.76 981.64 541.74L983.8 541.88L983.88 541.7H985.62C984.8 542.36 983.36 542.86 980.88 543.18C981.24 543.62 981.8 544.52 982 545.02C982.54 544.94 983.02 544.86 983.48 544.76V550.7H986.2C984.8 551.28 982.76 551.78 980.9 552.1C981.4 552.5 982.24 553.34 982.62 553.8C984.66 553.3 987.2 552.4 988.86 551.42L987.28 550.7H992.62L991.1 551.64C993.18 552.32 995.26 553.16 996.44 553.76L999.08 552.62C997.82 552.08 995.72 551.32 993.8 550.7H996.82ZM1011.4 545.66V543.2H1015.62V545.66H1011.4ZM1005.18 545.66C1005.22 544.92 1005.24 544.2 1005.24 543.56V543.2H1009V545.66H1005.18ZM1009 538.66V540.98H1005.24V538.66H1009ZM1015.62 540.98H1011.4V538.66H1015.62V540.98ZM1017.98 536.4H1002.88V543.54C1002.88 546.34 1002.7 549.9 1000.52 552.3C1001.06 552.58 1002.02 553.4 1002.4 553.84C1003.84 552.28 1004.56 550.08 1004.92 547.9H1009V553.48H1011.4V547.9H1015.62V550.9C1015.62 551.26 1015.48 551.38 1015.1 551.38C1014.74 551.38 1013.42 551.4 1012.3 551.34C1012.6 551.96 1012.98 552.98 1013.06 553.62C1014.86 553.64 1016.08 553.6 1016.9 553.2C1017.7 552.84 1017.98 552.2 1017.98 550.92V536.4Z" fill="#616161"/>
<path d="M924 592.781C924 610.007 920.443 623.184 913.329 632.31C906.215 641.437 895.801 646 882.085 646C868.541 646 858.183 641.522 851.012 632.567C843.841 623.611 840.171 610.777 840 594.064V571.134C840 553.736 843.585 540.531 850.756 531.519C857.984 522.506 868.37 518 881.915 518C895.459 518 905.817 522.478 912.988 531.433C920.159 540.332 923.829 553.137 924 569.85V592.781ZM899.329 567.626C899.329 557.301 897.907 549.8 895.061 545.123C892.272 540.389 887.89 538.021 881.915 538.021C876.11 538.021 871.813 540.275 869.024 544.781C866.293 549.23 864.841 556.217 864.671 565.743V596.032C864.671 606.185 866.037 613.743 868.768 618.706C871.557 623.611 875.996 626.064 882.085 626.064C888.118 626.064 892.472 623.697 895.146 618.963C897.821 614.228 899.215 606.984 899.329 597.23V567.626Z" fill="white"/>
<path d="M836 669H988" stroke="white" stroke-width="3" stroke-linecap="round" stroke-dasharray="4 8"/>
<path d="M997.514 663.909C996.848 663.509 996 663.989 996 664.766V673.234C996 674.011 996.848 674.491 997.514 674.091L1004.57 669.857C1005.22 669.469 1005.22 668.531 1004.57 668.143L997.514 663.909Z" fill="white"/>
</svg>
