<svg width="1920" height="876" viewBox="0 0 1920 876" fill="none" xmlns="http://www.w3.org/2000/svg">
<rect width="1920" height="876" fill="#FBC02D"/>
<mask id="mask0" mask-type="alpha" maskUnits="userSpaceOnUse" x="863" y="131" width="164" height="164">
<circle cx="945" cy="213" r="80" stroke="white" stroke-width="3" stroke-linecap="round" stroke-dasharray="4 8"/>
</mask>
<g mask="url(#mask0)">
<path fill-rule="evenodd" clip-rule="evenodd" d="M1025 125H865V181H1013V169H1025V125Z" fill="white"/>
</g>
<path d="M1018.49 171.909C1019.15 171.509 1020 171.989 1020 172.766V181.234C1020 182.011 1019.15 182.491 1018.49 182.091L1011.43 177.857C1010.78 177.469 1010.78 176.531 1011.43 176.143L1018.49 171.909Z" fill="white"/>
<path fill-rule="evenodd" clip-rule="evenodd" d="M830.77 186.74C828.43 189.08 828.43 192.89 830.77 195.23C833.11 197.6 836.89 197.6 839.26 195.23C841.6 192.89 841.6 189.08 839.26 186.74C836.92 184.4 833.11 184.4 830.77 186.74ZM852.79 224L868 239.21L863.71 243.5L853.21 233H838C833.02 233 829 228.98 829 224V206.75C829 203.03 832.03 200 835.75 200H835.84C836.86 200 837.85 200.27 838.72 200.69C839.5 201.05 840.22 201.56 840.79 202.19L844.99 206.84C848.17 210.35 854.02 213.02 859 212.96V219.44C853.3 219.44 846.7 216.41 842.5 212.96V224H852.79ZM847 236H829V242H847V236Z" fill="#616161"/>
<rect x="861.5" y="188.5" width="13" height="21" rx="1.5" stroke="white" stroke-width="3"/>
<path fill-rule="evenodd" clip-rule="evenodd" d="M856 145C856 158.255 845.255 169 832 169C818.745 169 808 158.255 808 145C808 131.745 818.745 121 832 121C845.255 121 856 131.745 856 145ZM829 174C829 175.657 827.657 177 826 177C824.343 177 823 175.657 823 174C823 172.343 824.343 171 826 171C827.657 171 829 172.343 829 174ZM828 183C829.105 183 830 182.105 830 181C830 179.895 829.105 179 828 179C826.895 179 826 179.895 826 181C826 182.105 826.895 183 828 183Z" fill="white"/>
<path d="M838.06 155.99H839.72C840.56 155.99 841.25 155.35 841.35 154.53L843 138.05H838V134H836.03V138.05H831.06L831.36 140.39C833.07 140.86 834.67 141.71 835.63 142.65C837.07 144.07 838.06 145.54 838.06 147.94V155.99V155.99ZM821 154.99V154H836.03V154.99C836.03 155.54 835.58 155.99 835.02 155.99H822.01C821.45 155.99 821 155.54 821 154.99V154.99ZM836.03 147.99C836.03 139.99 821 139.99 821 147.99H836.03ZM821.02 150H836.02V152H821.02V150Z" fill="#616161"/>
<path d="M1100 191H1052V197H1100V191ZM1103 221V215L1100 200H1052L1049 215V221H1052V239H1082V221H1094V239H1100V221H1103ZM1076 233H1058V221H1076V233Z" fill="#616161"/>
<rect x="1009.5" y="188.5" width="29" height="21" rx="1.5" stroke="white" stroke-width="3"/>
<circle cx="1068" cy="159" r="24" fill="white"/>
<path d="M1074.06 169.99H1075.72C1076.56 169.99 1077.25 169.35 1077.35 168.53L1079 152.05H1074V148H1072.03V152.05H1067.06L1067.36 154.39C1069.07 154.86 1070.67 155.71 1071.63 156.65C1073.07 158.07 1074.06 159.54 1074.06 161.94V169.99V169.99ZM1057 168.99V168H1072.03V168.99C1072.03 169.54 1071.58 169.99 1071.02 169.99H1058.01C1057.45 169.99 1057 169.54 1057 168.99V168.99ZM1072.03 161.99C1072.03 153.99 1057 153.99 1057 161.99H1072.03ZM1057.02 164H1072.02V166H1057.02V164Z" fill="#616161"/>
<path d="M1044 183L1056 179L1048 171L1044 183Z" fill="white"/>
<circle cx="1103" cy="172" r="3" fill="white"/>
<path d="M1100 141H1106L1105 165H1101L1100 141Z" fill="white"/>
<path d="M869.672 60.876C869 61.072 868.216 61.156 867.348 61.156H863.988V59.7C863.988 58.832 864.072 57.796 864.156 57.124H860.152C860.264 57.824 860.32 58.832 860.32 59.7V61.156H855.476C854.496 61.156 852.956 61.128 851.892 60.96V64.628C852.76 64.544 854.524 64.488 855.532 64.488H865.668C864.856 65.664 863.12 67.288 860.964 68.688C858.556 70.228 854.944 72.16 849.54 73.364L851.696 76.668C854.72 75.744 857.716 74.596 860.292 73.224V78.012C860.292 79.132 860.18 80.812 860.068 81.596H864.1C864.016 80.728 863.904 79.132 863.904 78.012C863.904 76.248 863.932 73.196 863.932 70.956C866.256 69.192 868.384 67.092 869.812 65.468C870.4 64.796 871.268 63.844 871.968 63.144L869.672 60.876ZM865.696 72.496C868.132 73.84 869.952 75.016 872.388 76.948L874.74 73.868C872.052 72.02 870.596 71.208 868.02 69.808L865.696 72.496ZM890.14 63.34L886.808 64.432C887.508 65.888 888.74 69.276 889.076 70.648L892.436 69.472C892.044 68.184 890.672 64.544 890.14 63.34ZM896.524 64.124C896.216 67.624 894.872 71.348 892.968 73.728C890.644 76.64 886.752 78.768 883.672 79.58L886.612 82.576C889.888 81.344 893.388 78.992 895.992 75.632C897.896 73.168 899.072 70.256 899.8 67.428C899.968 66.868 900.136 66.28 900.472 65.384L896.524 64.124ZM883.644 64.824L880.284 66.028C880.956 67.26 882.356 70.984 882.832 72.496L886.248 71.208C885.688 69.64 884.344 66.252 883.644 64.824ZM928.332 69.696C925.756 68.436 920.38 66.448 916.628 65.356V61.24C916.628 60.064 916.768 58.832 916.88 57.852H912.512C912.708 58.832 912.792 60.232 912.792 61.24V77.312C912.792 78.432 912.68 80.112 912.512 81.204H916.88C916.768 80.084 916.628 78.124 916.628 77.312V69.388C919.652 70.424 923.852 72.048 926.736 73.56L928.332 69.696ZM952.72 65.44L950.648 66.308C951.544 67.568 952.132 68.66 952.832 70.2L954.96 69.248C954.428 68.128 953.392 66.448 952.72 65.44ZM955.856 64.152L953.812 65.104C954.708 66.336 955.352 67.372 956.108 68.884L958.208 67.876C957.62 66.784 956.556 65.132 955.856 64.152ZM934.044 60.848L934.408 64.656C937.628 63.956 943.452 63.34 945.86 63.088C943.984 64.488 941.772 67.624 941.772 71.628C941.772 77.648 947.26 80.784 953.084 81.148L954.372 77.312C949.668 77.088 945.412 75.436 945.412 70.872C945.412 67.596 947.904 64.012 951.264 63.116C952.748 62.78 955.128 62.752 956.612 62.752L956.584 59.168C954.624 59.252 951.6 59.42 948.744 59.644C943.676 60.092 939.084 60.512 936.76 60.708C936.228 60.764 935.164 60.82 934.044 60.848ZM979.012 62.416L978.984 60.4C978.984 59.532 979.04 58.44 979.152 57.572H975.176C975.316 58.552 975.4 59.588 975.456 60.4C975.484 61.016 975.512 61.688 975.54 62.416H966.272C965.32 62.416 963.976 62.332 963.164 62.22V65.944C964.144 65.888 965.348 65.832 966.356 65.832H974C971.732 69.024 967.112 72.972 961.68 75.548L964.256 78.46C968.68 76.108 973.216 72.216 975.68 68.996C975.736 71.88 975.736 74.68 975.736 76.556C975.736 77.368 975.456 77.732 974.756 77.732C973.804 77.732 972.292 77.62 971.032 77.396L971.34 81.036C972.936 81.148 974.504 81.204 976.212 81.204C978.34 81.204 979.376 80.168 979.348 78.376C979.292 74.596 979.18 69.92 979.096 65.832H982.708C983.464 65.832 984.528 65.888 985.424 65.916V62.192C984.752 62.304 983.436 62.416 982.512 62.416H979.012ZM990.576 71.432C991.612 71.348 993.488 71.292 995.084 71.292H1010.12C1011.3 71.292 1012.72 71.404 1013.4 71.432V67.036C1012.67 67.092 1011.41 67.204 1010.12 67.204H995.084C993.628 67.204 991.584 67.12 990.576 67.036V71.432ZM1040.02 60.848C1039.49 59.812 1038.51 58.02 1037.81 57.012L1035.6 57.908C1036.22 58.804 1036.92 60.064 1037.45 61.1C1036.8 61.268 1035.99 61.352 1035.24 61.352H1029.5L1029.52 61.324C1029.86 60.708 1030.56 59.448 1031.23 58.468L1027.17 57.208C1026.92 58.16 1026.33 59.476 1025.91 60.148C1024.51 62.556 1021.91 66.42 1017.01 69.444L1020.03 71.768C1022.83 69.836 1025.44 67.148 1027.4 64.544H1035.43C1035.01 66.224 1033.89 68.52 1032.52 70.508C1030.64 69.388 1028.74 68.324 1027.26 67.568L1024.9 70.228C1026.33 71.04 1028.24 72.188 1030.11 73.42C1027.82 75.8 1024.65 78.18 1019.7 79.692L1022.94 82.52C1027.48 80.784 1030.76 78.264 1033.28 75.548C1034.28 76.276 1035.21 76.948 1035.88 77.536L1038.4 74.232C1037.7 73.728 1036.75 73.112 1035.71 72.44C1037.56 69.78 1038.88 66.952 1039.58 64.796C1039.83 64.096 1040.19 63.34 1040.5 62.78L1038.46 61.52L1040.02 60.848ZM1038.9 56.648C1039.69 57.712 1040.58 59.336 1041.14 60.512L1043.38 59.56C1042.88 58.552 1041.84 56.788 1041.12 55.752L1038.9 56.648ZM1046.58 71.432C1047.61 71.348 1049.49 71.292 1051.08 71.292H1066.12C1067.3 71.292 1068.72 71.404 1069.4 71.432V67.036C1068.67 67.092 1067.41 67.204 1066.12 67.204H1051.08C1049.63 67.204 1047.58 67.12 1046.58 67.036V71.432Z" fill="white"/>
<path d="M895.544 288.856H912.4V292.356H915.956V285.776H905.68V283.284H902.152V285.776H892.156V292.356H895.544V288.856ZM907.948 296.808C907.36 298.964 906.38 300.644 905.008 301.988C903.16 301.316 901.34 300.7 899.66 300.224C900.22 299.132 900.836 297.984 901.424 296.808H907.948ZM916.46 296.808V293.672H902.992C903.58 292.496 904.14 291.348 904.644 290.256L901.144 289.528C900.584 290.816 899.912 292.244 899.184 293.672H891.568V296.808H897.588C896.384 299.076 895.208 301.204 894.2 302.828L897.7 303.78L898.204 302.884C899.38 303.248 900.584 303.696 901.816 304.144C899.296 305.348 896.104 306.02 892.184 306.412C892.828 307.14 893.78 308.652 894.088 309.436C898.792 308.764 902.6 307.672 905.568 305.684C908.396 306.916 910.972 308.232 912.68 309.38L915.34 306.664C913.576 305.572 911.056 304.396 908.34 303.276C909.852 301.568 911 299.468 911.812 296.808H916.46ZM924.888 293.364C927.8 291.208 930.292 288.688 931.888 286.42C933.512 288.688 936.2 291.236 939.112 293.364H924.888ZM933.652 302.436H941.492V299.524H933.652V296.304H940.204V294.12C941.212 294.82 942.22 295.436 943.228 295.996C943.844 294.96 944.572 293.896 945.44 293C941.016 291.124 936.452 287.456 933.456 283.2H930.012C927.94 286.616 923.432 290.928 918.644 293.336C919.4 294.036 920.324 295.24 920.744 296.024C921.808 295.436 922.844 294.792 923.852 294.092V296.304H930.18V299.524H922.424V302.436H930.18V305.768H920.184V308.764H944.012V305.768H933.652V302.436ZM958.544 287.456L958.572 291.04C962.044 291.348 967.056 291.348 970.472 291.04V287.456C967.476 287.82 961.96 287.932 958.544 287.456ZM957.592 299.02C957.312 300.308 957.116 301.484 957.116 302.632C957.116 305.46 959.384 307.196 964.172 307.196C967.308 307.196 969.548 306.972 971.34 306.636L971.256 302.884C968.848 303.388 966.804 303.612 964.312 303.612C961.512 303.612 960.448 302.884 960.448 301.652C960.448 300.896 960.56 300.224 960.784 299.328L957.592 299.02ZM950.396 285.3C950.396 286.168 950.228 287.232 950.116 288.016C949.808 290.144 948.968 294.82 948.968 298.992C948.968 302.744 949.5 306.132 950.06 308.064L953.252 307.84C953.224 307.448 953.224 307 953.196 306.692C953.196 306.412 953.28 305.796 953.364 305.404C953.644 303.92 954.568 300.924 955.352 298.6L953.616 297.256C953.224 298.152 952.776 299.076 952.384 300.056C952.3 299.468 952.272 298.796 952.272 298.264C952.272 295.492 953.224 289.948 953.616 288.1C953.728 287.596 954.064 286.196 954.288 285.636L950.396 285.3ZM983.352 286.168C982.232 285.244 979.992 284.068 978.284 283.396L976.464 285.888C978.228 286.644 980.412 287.932 981.42 288.912L983.352 286.168ZM981.812 293.616C980.692 292.664 978.368 291.572 976.632 290.956L974.868 293.448C976.632 294.204 978.844 295.436 979.908 296.388L981.812 293.616ZM980.58 298.04C979.012 301.316 977.024 304.844 975.624 306.972L978.536 309.044C980.104 306.3 981.728 303.08 983.128 300.112L980.58 298.04ZM992.228 290.704H995.7V295.772H992.144C992.2 294.848 992.228 293.952 992.228 293.028V290.704ZM1001.05 298.908V295.772H998.948V287.568H992.228V283.312H988.924V287.568H984.248V290.704H988.924V293C988.924 293.924 988.896 294.848 988.84 295.772H982.876V298.908H988.336C987.524 302.044 985.648 304.928 981.392 307.168C982.288 307.672 983.576 308.82 984.164 309.52C988.448 307.168 990.492 303.976 991.416 300.532C993.012 304.592 995.392 307.7 999.032 309.492C999.536 308.568 1000.57 307.252 1001.36 306.58C997.94 305.18 995.56 302.352 994.216 298.908H1001.05ZM1008.66 298.04C1007.07 301.316 1005.05 304.844 1003.65 306.972L1006.56 309.044C1008.13 306.3 1009.78 303.08 1011.18 300.112L1008.66 298.04ZM1009.81 293.616C1008.69 292.664 1006.37 291.572 1004.63 290.956L1002.87 293.448C1004.63 294.204 1006.84 295.436 1007.91 296.388L1009.81 293.616ZM1023.34 296.052V297.2H1016.48V295.968H1014.12C1016.14 295.436 1018.04 294.792 1019.78 293.98C1021.77 294.932 1023.95 295.548 1026.25 296.052H1023.34ZM1016.31 301.904C1016.42 301.232 1016.45 300.56 1016.48 299.972H1023.34V301.904H1016.31ZM1022.38 288.688C1021.71 289.444 1020.9 290.116 1019.95 290.704C1018.97 290.172 1018.04 289.5 1017.15 288.688H1022.38ZM1028.74 288.688V285.804H1021.6V283.312H1018.16V285.804H1011.13V286C1009.95 285.104 1007.88 284.04 1006.28 283.424L1004.46 285.888C1006.23 286.644 1008.41 287.932 1009.42 288.912L1011.13 286.476V288.688H1013.31C1014.38 290.116 1015.55 291.236 1016.81 292.188C1014.77 292.916 1012.42 293.42 1009.98 293.756C1010.48 294.4 1011.27 295.8 1011.55 296.556C1012.14 296.444 1012.72 296.304 1013.28 296.164V299.216C1013.28 301.596 1012.92 305.488 1009.78 307.952C1010.6 308.316 1011.86 309.212 1012.44 309.716C1014.18 308.316 1015.16 306.496 1015.75 304.648H1023.34V309.38H1026.61V296.136L1027.62 296.332C1027.93 295.296 1028.68 294.092 1029.41 293.336C1027.12 293.028 1024.99 292.636 1023 292.02C1024.23 291.068 1025.3 289.976 1026.14 288.688H1028.74Z" fill="white"/>
<path d="M861.972 589.46L859.956 589.74C860.068 588.928 860.124 588.172 860.124 587.472V574.424H856.848V578.008H849.988V581.116H856.848V584.448H850.296V587.472H856.848V587.5C856.848 588.256 856.764 589.208 856.54 590.188C853.6 590.58 850.856 590.916 848.84 591.112L849.456 594.416C851.136 594.164 853.124 593.856 855.224 593.52C854.132 595.368 852.34 597.104 849.54 598.28C850.352 598.952 851.416 599.988 851.976 600.772C856.008 598.812 858.136 595.788 859.172 592.876L862.084 592.4L861.972 589.46ZM874.992 590.916H866.928V587.472H873.872V584.448H866.928V581.116H874.488V578.008H866.928V574.424H863.596V600.436H866.928V593.996H874.992V590.916ZM896.72 596.684H883.588V594.248H896.72V596.684ZM885.856 585.288H894.172V587.248H885.856V585.288ZM897.392 589.684V582.824H882.776V589.684H887.872C887.76 590.244 887.592 590.832 887.452 591.392H880.424V600.492H883.588V599.568H896.72V600.492H900.024V591.392H890.756C891.008 590.86 891.26 590.3 891.484 589.684H897.392ZM898.12 578.624C898.904 577.7 899.744 576.58 900.556 575.516L896.972 574.396C896.44 575.712 895.376 577.42 894.48 578.624H889.888L891.848 577.896C891.456 576.888 890.532 575.292 889.72 574.2L886.808 575.18C887.48 576.244 888.236 577.616 888.628 578.624H884.316L885.212 578.232C884.736 577.196 883.644 575.712 882.72 574.648L879.836 575.88C880.48 576.72 881.18 577.728 881.684 578.624H878.296V584.588H881.32V581.452H898.82V584.588H902.04V578.624H898.12ZM913.856 585.624H918.672V582.572H913.856V578.4C915.564 577.98 917.188 577.504 918.588 576.944L916.236 574.368C913.52 575.6 909.012 576.664 904.98 577.252C905.372 577.952 905.792 579.128 905.932 579.856C907.444 579.66 909.04 579.408 910.636 579.1V582.572H905.316V585.624H909.992C908.732 588.536 906.688 591.728 904.672 593.688C905.204 594.528 906.016 595.956 906.352 596.936C907.892 595.312 909.376 592.904 910.636 590.356V600.38H913.856V590.72C914.976 591.868 916.152 593.128 916.824 593.996L918.756 591.14C918 590.552 915.228 588.172 913.856 587.136V585.624ZM923.236 577.672H919.988V593.324H923.236V577.672ZM926.596 574.816V596.348C926.596 596.852 926.372 597.02 925.84 597.048C925.252 597.048 923.46 597.048 921.64 596.964C922.144 597.916 922.648 599.456 922.788 600.408C925.336 600.436 927.212 600.324 928.36 599.764C929.508 599.232 929.9 598.308 929.9 596.376V574.816H926.596ZM939.784 586.856C941.016 588.256 942.248 590.244 942.696 591.532L945.188 590.16C944.656 588.816 943.34 586.968 942.08 585.596L939.784 586.856ZM953.644 582.152H950.536V579.38H947.456V582.152H938.468V584.98H947.456V592.148C947.456 592.512 947.344 592.624 946.952 592.624C946.532 592.652 945.16 592.652 943.956 592.596C944.32 593.408 944.684 594.584 944.796 595.396C946.868 595.396 948.24 595.368 949.248 594.92C950.228 594.472 950.536 593.716 950.536 592.204V584.98H953.644V582.152ZM937.404 596.068V578.68H954.512V596.068H937.404ZM934.1 575.488V600.38H937.404V599.288H954.512V600.38H957.984V575.488H934.1ZM966.244 574.396C964.984 578.344 962.8 582.32 960.448 584.868C961.064 585.708 961.988 587.528 962.296 588.34C962.856 587.668 963.444 586.912 964.004 586.156V600.38H967.168V580.752C968.036 578.96 968.792 577.14 969.408 575.348L966.244 574.396ZM979.096 592.764V585.456C980.048 588.088 981.224 590.608 982.54 592.764H979.096ZM972.432 592.764C973.748 590.692 974.924 588.228 975.848 585.652V592.764H972.432ZM986.824 582.432V579.268H979.096V574.424H975.848V579.268H968.764V582.432H974.28C972.74 586.856 970.136 591.28 967.308 593.8C968.064 594.36 969.128 595.536 969.688 596.32C970.584 595.424 971.396 594.332 972.18 593.156V595.732H975.848V600.24H979.096V595.732H982.848V593.268C983.576 594.36 984.304 595.368 985.088 596.236C985.676 595.368 986.824 594.248 987.58 593.66C984.864 591.112 982.288 586.744 980.748 582.432H986.824ZM1015.44 577.56C1014.96 576.58 1013.93 574.816 1013.17 573.752L1010.96 574.676C1011.74 575.712 1012.64 577.364 1013.23 578.54L1015.44 577.56ZM996.624 575.74C996.652 577.476 996.428 579.492 996.036 581.62C994.636 581.732 993.32 581.816 992.452 581.844C991.444 581.872 990.52 581.928 989.512 581.844L989.82 585.596C990.688 585.456 992.116 585.26 992.9 585.176C993.432 585.092 994.3 584.98 995.28 584.868C994.3 588.648 992.396 594.192 989.708 597.832L993.32 599.288C995.868 595.2 997.884 588.676 998.976 584.476C999.76 584.42 1000.43 584.364 1000.88 584.364C1002.62 584.364 1003.57 584.672 1003.57 586.884C1003.57 589.628 1003.2 592.932 1002.45 594.472C1002 595.396 1001.3 595.676 1000.38 595.676C999.648 595.676 998.024 595.396 996.96 595.088L997.576 598.756C998.5 598.98 999.844 599.148 1000.88 599.148C1003.01 599.148 1004.52 598.532 1005.44 596.6C1006.62 594.192 1007.01 589.768 1007.01 586.492C1007.01 582.516 1004.94 581.2 1002 581.2C1001.44 581.2 1000.6 581.256 999.676 581.312C999.872 580.304 1000.1 579.296 1000.26 578.456C1000.4 577.756 1000.57 576.888 1000.74 576.16L996.624 575.74ZM1012.11 578.848C1011.55 577.812 1010.57 576.048 1009.87 575.012L1007.66 575.936C1008.3 576.832 1009 578.176 1009.56 579.24L1006.98 580.332C1008.97 582.796 1010.93 587.696 1011.66 590.776L1015.19 589.124C1014.38 586.688 1012.3 582.012 1010.68 579.464L1012.11 578.848ZM1027.7 577.504H1039.3V578.988H1042.38V575.152H1024.79V578.988H1027.7V577.504ZM1028.94 588.928V587.836H1031.79V588.928H1028.94ZM1028.94 584.812H1031.79V585.904H1028.94V584.812ZM1038.01 584.812V585.904H1035.04V584.812H1038.01ZM1038.01 588.928H1035.04V587.836H1038.01V588.928ZM1031.79 596.236H1035.04V594.388H1042.66V591.98H1035.04V590.944H1040.98V582.74H1035.04V581.76H1041.45V579.464H1035.04V578.008H1031.79V579.464H1025.58V581.76H1031.79V582.74H1026.11V590.944H1031.79V591.98H1024.54V594.388H1031.79V596.236ZM1024.2 579.436C1023.31 578.092 1021.38 576.244 1019.81 574.984L1017.26 576.888C1018.83 578.232 1020.68 580.164 1021.46 581.536L1024.2 579.436ZM1023.45 585.148H1017.15V588.2H1020.28V594.304C1019.16 595.256 1017.9 596.18 1016.81 596.88L1018.38 600.184C1019.81 598.98 1020.96 597.916 1022.08 596.824C1023.76 598.98 1026 599.792 1029.33 599.932C1032.74 600.072 1038.68 600.016 1042.15 599.848C1042.32 598.924 1042.8 597.384 1043.19 596.6C1039.32 596.908 1032.72 596.992 1029.36 596.852C1026.5 596.74 1024.54 595.956 1023.45 594.08V585.148ZM1064.72 596.684H1051.59V594.248H1064.72V596.684ZM1053.86 585.288H1062.17V587.248H1053.86V585.288ZM1065.39 589.684V582.824H1050.78V589.684H1055.87C1055.76 590.244 1055.59 590.832 1055.45 591.392H1048.42V600.492H1051.59V599.568H1064.72V600.492H1068.02V591.392H1058.76C1059.01 590.86 1059.26 590.3 1059.48 589.684H1065.39ZM1066.12 578.624C1066.9 577.7 1067.74 576.58 1068.56 575.516L1064.97 574.396C1064.44 575.712 1063.38 577.42 1062.48 578.624H1057.89L1059.85 577.896C1059.46 576.888 1058.53 575.292 1057.72 574.2L1054.81 575.18C1055.48 576.244 1056.24 577.616 1056.63 578.624H1052.32L1053.21 578.232C1052.74 577.196 1051.64 575.712 1050.72 574.648L1047.84 575.88C1048.48 576.72 1049.18 577.728 1049.68 578.624H1046.3V584.588H1049.32V581.452H1066.82V584.588H1070.04V578.624H1066.12Z" fill="white"/>
<path fill-rule="evenodd" clip-rule="evenodd" d="M1059.09 444.413L1059.09 444.409C1056.72 442.025 1052.71 438 1045.18 438H1029.94C1013.44 437.94 1000 424.5 1000 408H988C988 426.96 1000.66 443.04 1018 448.26V460H1054V456.3L1057.7 460H1074.65L1059.34 444.66C1059.26 444.58 1059.18 444.497 1059.09 444.413ZM1086 471.38V471.7L1086.16 471.54L1086 471.38ZM1036 432C1042.63 432 1048 426.627 1048 420C1048 413.373 1042.63 408 1036 408C1029.37 408 1024 413.373 1024 420C1024 426.627 1029.37 432 1036 432Z" fill="#616161"/>
<path d="M936 456H1112V472H936V456Z" fill="#616161"/>
<path d="M974 424H970C970 418.48 965.52 414 960 414C954.48 414 950 418.48 950 424H946C943.8 424 942.02 425.8 942.02 428L942 452C942 454.2 943.8 456 946 456H974C976.2 456 978 454.2 978 452V428C978 425.8 976.2 424 974 424ZM960 418C963.32 418 966 420.68 966 424H954C954 420.68 956.68 418 960 418ZM960 438C954.48 438 950 433.52 950 428H954C954 431.32 956.68 434 960 434C963.32 434 966 431.32 966 428H970C970 433.52 965.52 438 960 438Z" fill="white"/>
<path d="M893 429C899.6 429 905 423.6 905 417C905 410.4 899.6 405 893 405C886.4 405 881 410.4 881 417C881 423.6 886.4 429 893 429ZM870.8 449.4L854 534H866.6L877.4 486L890 498V534H902V489L889.4 477L893 459C900.8 468 912.8 474 926 474V462C914.6 462 905 456 900.2 447.6L894.2 438C891.8 434.4 888.2 432 884 432C882.2 432 881 432.6 879.2 432.6L848 445.8V474H860V453.6L870.8 449.4Z" fill="#616161"/>
<mask id="path-37-inside-1" fill="white">
<path fill-rule="evenodd" clip-rule="evenodd" d="M952 348V366C952 367.105 951.105 368 950 368H940.828C939.047 368 938.154 370.154 939.414 371.414L958.586 390.586C959.367 391.367 960.633 391.367 961.414 390.586L980.586 371.414C981.846 370.154 980.953 368 979.172 368H970C968.896 368 968 367.105 968 366V348H1080C1097.67 348 1112 362.327 1112 380V502C1112 519.673 1097.67 534 1080 534H840C822.327 534 808 519.673 808 502V380C808 362.327 822.327 348 840 348H952Z"/>
</mask>
<path d="M952 348H955V345H952V348ZM939.414 371.414L941.536 369.293L941.536 369.293L939.414 371.414ZM961.414 390.586L963.536 392.707L963.536 392.707L961.414 390.586ZM980.586 371.414L978.464 369.293L978.464 369.293L980.586 371.414ZM968 348V345H965V348H968ZM949 348V366H955V348H949ZM949 366C949 365.448 949.448 365 950 365V371C952.762 371 955 368.761 955 366H949ZM950 365H940.828V371H950V365ZM940.828 365C936.374 365 934.143 370.386 937.293 373.536L941.536 369.293C942.166 369.923 941.719 371 940.828 371V365ZM937.293 373.536L956.464 392.707L960.707 388.464L941.536 369.293L937.293 373.536ZM956.464 392.707C958.417 394.66 961.583 394.66 963.536 392.707L959.293 388.464C959.683 388.074 960.317 388.074 960.707 388.464L956.464 392.707ZM963.536 392.707L982.707 373.536L978.464 369.293L959.293 388.464L963.536 392.707ZM982.707 373.536C985.857 370.386 983.626 365 979.172 365V371C978.281 371 977.835 369.923 978.464 369.293L982.707 373.536ZM979.172 365H970V371H979.172V365ZM970 365C970.552 365 971 365.448 971 366H965C965 368.761 967.239 371 970 371V365ZM971 366V348H965V366H971ZM968 351H1080V345H968V351ZM1080 351C1096.02 351 1109 363.984 1109 380H1115C1115 360.67 1099.33 345 1080 345V351ZM1109 380V502H1115V380H1109ZM1109 502C1109 518.016 1096.02 531 1080 531V537C1099.33 537 1115 521.33 1115 502H1109ZM1080 531H840V537H1080V531ZM840 531C823.984 531 811 518.016 811 502H805C805 521.33 820.67 537 840 537V531ZM811 502V380H805V502H811ZM811 380C811 363.984 823.984 351 840 351V345C820.67 345 805 360.67 805 380H811ZM840 351H952V345H840V351Z" fill="white" mask="url(#path-37-inside-1)"/>
<path d="M954.96 699.04V696.94C954.96 696.14 955.04 695.48 955.08 695.08H952.24C952.3 695.48 952.36 696.14 952.36 696.94V699.04H947.62V697.08C947.62 696.28 947.68 695.64 947.74 695.26H944.9C944.94 695.64 945.02 696.3 945.02 697.06V699.04H943.32C942.32 699.04 941.52 698.92 941.16 698.86V701.58C941.6 701.54 942.32 701.5 943.32 701.5H945.02V704.22C945.02 705.12 944.96 705.92 944.9 706.32H947.7C947.68 705.92 947.62 705.1 947.62 704.22V701.5H952.36V702.26C952.36 707.16 950.66 708.9 946.8 710.24L948.94 712.26C953.76 710.14 954.96 707.12 954.96 702.16V701.5H956.44C957.5 701.5 958.2 701.52 958.64 701.56V698.9C958.1 699 957.5 699.04 956.44 699.04H954.96ZM961.84 704.88C962.58 704.82 963.92 704.78 965.06 704.78H975.8C976.64 704.78 977.66 704.86 978.14 704.88V701.74C977.62 701.78 976.72 701.86 975.8 701.86H965.06C964.02 701.86 962.56 701.8 961.84 701.74V704.88ZM996.36 697.54C995.98 696.8 995.26 695.54 994.76 694.8L993.18 695.46C993.72 696.22 994.34 697.4 994.74 698.22L996.36 697.54ZM985.98 704.14C988.58 703.5 991.8 702.5 993.82 701.7C994.48 701.46 995.38 701.08 996.16 700.76L995.08 698.22C994.3 698.7 993.62 699.02 992.9 699.3C991.12 700.06 988.34 700.94 985.98 701.52V697.74C985.98 697.18 986.04 696.28 986.14 695.66H983.18C983.28 696.28 983.34 697.3 983.34 697.74V708.64C983.34 710.36 984.34 711.32 986.08 711.62C986.94 711.76 988.14 711.86 989.44 711.86C991.64 711.86 994.68 711.72 996.56 711.44V708.52C994.92 708.96 991.68 709.22 989.6 709.22C988.7 709.22 987.88 709.18 987.28 709.1C986.38 708.92 985.98 708.7 985.98 707.84V704.14ZM995.54 694.54C996.1 695.3 996.74 696.46 997.16 697.3L998.74 696.62C998.38 695.92 997.66 694.64 997.12 693.9L995.54 694.54ZM1015.04 696.22C1014.64 696.36 1013.84 696.48 1012.96 696.48H1005.92C1005.32 696.48 1004.1 696.42 1003.56 696.34V699.18C1003.98 699.16 1005.08 699.04 1005.92 699.04H1012.7C1012.26 700.46 1011.04 702.44 1009.72 703.94C1007.84 706.04 1004.74 708.46 1001.52 709.68L1003.58 711.84C1006.32 710.54 1008.98 708.46 1011.1 706.22C1012.98 708.04 1014.84 710.08 1016.14 711.88L1018.42 709.9C1017.24 708.46 1014.82 705.9 1012.84 704.18C1014.18 702.38 1015.3 700.24 1015.98 698.68C1016.16 698.28 1016.52 697.66 1016.68 697.44L1015.04 696.22ZM1027.04 702.16H1030.48V699.98H1027.04V697C1028.26 696.7 1029.42 696.36 1030.42 695.96L1028.74 694.12C1026.8 695 1023.58 695.76 1020.7 696.18C1020.98 696.68 1021.28 697.52 1021.38 698.04C1022.46 697.9 1023.6 697.72 1024.74 697.5V699.98H1020.94V702.16H1024.28C1023.38 704.24 1021.92 706.52 1020.48 707.92C1020.86 708.52 1021.44 709.54 1021.68 710.24C1022.78 709.08 1023.84 707.36 1024.74 705.54V712.7H1027.04V705.8C1027.84 706.62 1028.68 707.52 1029.16 708.14L1030.54 706.1C1030 705.68 1028.02 703.98 1027.04 703.24V702.16ZM1033.74 696.48H1031.42V707.66H1033.74V696.48ZM1036.14 694.44V709.82C1036.14 710.18 1035.98 710.3 1035.6 710.32C1035.18 710.32 1033.9 710.32 1032.6 710.26C1032.96 710.94 1033.32 712.04 1033.42 712.72C1035.24 712.74 1036.58 712.66 1037.4 712.26C1038.22 711.88 1038.5 711.22 1038.5 709.84V694.44H1036.14ZM1051.4 704.66V702.2H1055.62V704.66H1051.4ZM1045.18 704.66C1045.22 703.92 1045.24 703.2 1045.24 702.56V702.2H1049V704.66H1045.18ZM1049 697.66V699.98H1045.24V697.66H1049ZM1055.62 699.98H1051.4V697.66H1055.62V699.98ZM1057.98 695.4H1042.88V702.54C1042.88 705.34 1042.7 708.9 1040.52 711.3C1041.06 711.58 1042.02 712.4 1042.4 712.84C1043.84 711.28 1044.56 709.08 1044.92 706.9H1049V712.48H1051.4V706.9H1055.62V709.9C1055.62 710.26 1055.48 710.38 1055.1 710.38C1054.74 710.38 1053.42 710.4 1052.3 710.34C1052.6 710.96 1052.98 711.98 1053.06 712.62C1054.86 712.64 1056.08 712.6 1056.9 712.2C1057.7 711.84 1057.98 711.2 1057.98 709.92V695.4ZM1074.38 697.56C1073.74 696.82 1072.32 695.8 1071.2 695.14L1070.06 696.74C1071.16 697.48 1072.54 698.56 1073.16 699.34L1074.38 697.56ZM1069.14 701.78C1070.3 702.46 1071.76 703.54 1072.42 704.26L1073.62 702.36C1072.9 701.66 1071.42 700.68 1070.26 700.06L1069.14 701.78ZM1067.34 695.16C1067.12 696.56 1066.66 698.58 1066.24 699.84L1067.74 700.26C1068.24 699.1 1068.82 697.2 1069.34 695.6L1067.34 695.16ZM1063.46 699.84C1063.36 698.6 1062.96 696.7 1062.44 695.26L1060.78 695.7C1061.24 697.14 1061.64 699.08 1061.68 700.3L1063.46 699.84ZM1068.92 706.42C1068.5 705.86 1066.6 703.62 1066.02 703.04V702.9H1068.98V700.68H1066.02V694.14H1063.82V700.68H1060.8V702.9H1063.08C1062.46 704.72 1061.44 706.86 1060.44 708.08C1060.8 708.74 1061.32 709.82 1061.52 710.54C1062.38 709.34 1063.18 707.48 1063.82 705.62V712.68H1066.02V705.66C1066.6 706.58 1067.16 707.62 1067.46 708.26L1068.92 706.42ZM1079.5 706.88L1079.14 704.66L1077.1 705.04V694.04H1074.86V705.44L1068.92 706.5L1069.28 708.72L1074.86 707.72V712.72H1077.1V707.32L1079.5 706.88Z" fill="#616161"/>
<path d="M945.88 736.54H943.74V734.72H945.88V736.54ZM945.88 740.16H943.74V738.3H945.88V740.16ZM945.88 743.78H943.74V741.92H945.88V743.78ZM948.08 732.84H941.62V745.68H948.08V732.84ZM942.6 745.84C942.18 747.22 941.38 748.62 940.44 749.54C940.96 749.84 941.86 750.44 942.3 750.82C943.28 749.74 944.22 748.02 944.78 746.34L942.6 745.84ZM950.52 748.68C951.3 746.56 951.54 744.08 951.6 741.9C952.1 743.54 952.72 745.04 953.5 746.36C952.66 747.36 951.66 748.14 950.52 748.68ZM956.22 740.12C955.92 741.72 955.44 743.14 954.82 744.36C954.1 743.1 953.56 741.66 953.16 740.12H956.22ZM957.28 738.02L956.9 738.06H951.62V735.24H958.8V733.1H949.44V740.6C949.44 742.92 949.34 745.8 948.34 748.12C947.98 747.42 947.4 746.48 946.86 745.78L945.02 746.56C945.6 747.42 946.26 748.58 946.52 749.32L948.14 748.54C947.96 748.9 947.76 749.24 947.52 749.58C948.06 749.82 949.02 750.44 949.42 750.8C949.84 750.22 950.18 749.54 950.46 748.84C950.94 749.32 951.46 750.14 951.74 750.7C952.94 750.06 954 749.26 954.9 748.28C955.78 749.28 956.82 750.14 958.04 750.78C958.36 750.18 959.06 749.32 959.58 748.88C958.3 748.3 957.2 747.46 956.28 746.42C957.5 744.36 958.3 741.7 958.68 738.32L957.28 738.02ZM968.68 737.12H963.1V739.2H976.98V737.12H971.14V735.82H978.82V733.66H971.14V732.08H968.68V733.66H961.2V735.82H968.68V737.12ZM978.56 744.44V740.18H961.46V744.44H963.76V742.32H976.16V744.44H978.56ZM966.14 742.94C965.9 746.02 965.4 747.82 960.66 748.74C961.14 749.24 961.74 750.18 961.96 750.8C967.42 749.5 968.3 746.96 968.62 742.94H966.14ZM974.28 748.36C973.56 748.36 973.44 748.28 973.44 747.64V742.94H971.04V747.68C971.04 749.82 971.62 750.5 973.94 750.5H976.52C978.4 750.5 979.02 749.76 979.28 746.88C978.64 746.72 977.62 746.36 977.14 745.98C977.06 748.02 976.94 748.36 976.28 748.36H974.28ZM999.16 742.3H991.26V739.96H997.98V737.68H991.26V735.06C993.46 734.8 995.56 734.46 997.34 734L995.62 732.02C992.34 732.88 986.86 733.42 982.04 733.62C982.28 734.14 982.58 735.1 982.64 735.72C984.6 735.64 986.7 735.52 988.78 735.34V737.68H982.24V739.96H988.78V742.3H980.88V744.62H988.78V747.84C988.78 748.24 988.6 748.38 988.14 748.4C987.7 748.4 986.02 748.4 984.54 748.34C984.92 748.98 985.38 750.02 985.52 750.7C987.56 750.72 989 750.66 989.96 750.3C990.9 749.92 991.26 749.3 991.26 747.88V744.62H999.16V742.3ZM1010.72 744.36V742.44C1010.84 742.56 1010.92 742.66 1011 742.74C1011.32 742.3 1011.64 741.82 1011.92 741.3C1012.28 742.74 1012.72 744.06 1013.28 745.24C1012.4 746.48 1011.24 747.48 1009.76 748.26C1009.3 747.92 1008.72 747.56 1008.1 747.2C1008.6 746.42 1008.94 745.48 1009.16 744.36H1010.72ZM1004.98 744.36H1006.92C1006.74 745.08 1006.48 745.68 1006.16 746.18C1005.58 745.9 1005 745.66 1004.4 745.42L1004.98 744.36ZM1015.74 737.86C1015.52 739.62 1015.16 741.2 1014.66 742.56C1014.12 741.12 1013.72 739.54 1013.44 737.86H1015.74ZM1019.32 737.86V735.66H1014C1014.26 734.6 1014.48 733.5 1014.64 732.38L1012.24 732.06C1011.76 735.62 1010.8 739.02 1009.1 741.06C1009.54 741.36 1010.26 741.98 1010.72 742.44H1005.96L1006.44 741.48L1005.58 741.3H1006.86V738.88C1007.64 739.5 1008.48 740.2 1008.92 740.62L1010.18 738.98C1009.74 738.68 1008.32 737.84 1007.36 737.3H1010.64V735.42H1008.74C1009.22 734.8 1009.84 733.96 1010.46 733.1L1008.46 732.3C1008.14 733.06 1007.58 734.12 1007.12 734.84L1008.44 735.42H1006.86V732.06H1004.68V735.42H1003L1004.28 734.86C1004.12 734.16 1003.6 733.14 1003.08 732.38L1001.36 733.1C1001.78 733.82 1002.22 734.74 1002.4 735.42H1000.88V737.3H1004C1003.04 738.34 1001.7 739.3 1000.48 739.8C1000.92 740.22 1001.42 741 1001.68 741.52C1002.68 740.96 1003.76 740.12 1004.68 739.2V741.12L1004.24 741.02C1004.04 741.46 1003.8 741.94 1003.56 742.44H1000.66V744.36H1002.56C1002.06 745.32 1001.56 746.22 1001.12 746.92L1003.2 747.56L1003.42 747.18C1003.8 747.34 1004.18 747.52 1004.54 747.72C1003.6 748.24 1002.34 748.58 1000.74 748.78C1001.12 749.28 1001.54 750.08 1001.68 750.76C1003.82 750.32 1005.42 749.74 1006.6 748.86C1007.42 749.38 1008.14 749.9 1008.68 750.36L1009.58 749.44C1009.9 749.92 1010.2 750.46 1010.34 750.8C1012.08 749.92 1013.46 748.84 1014.56 747.52C1015.46 748.82 1016.56 749.88 1017.92 750.7C1018.28 750.04 1019.02 749.12 1019.56 748.64C1018.1 747.88 1016.94 746.74 1016.02 745.32C1017.1 743.3 1017.78 740.82 1018.2 737.86H1019.32ZM1034.38 735.56C1033.74 734.82 1032.32 733.8 1031.2 733.14L1030.06 734.74C1031.16 735.48 1032.54 736.56 1033.16 737.34L1034.38 735.56ZM1029.14 739.78C1030.3 740.46 1031.76 741.54 1032.42 742.26L1033.62 740.36C1032.9 739.66 1031.42 738.68 1030.26 738.06L1029.14 739.78ZM1027.34 733.16C1027.12 734.56 1026.66 736.58 1026.24 737.84L1027.74 738.26C1028.24 737.1 1028.82 735.2 1029.34 733.6L1027.34 733.16ZM1023.46 737.84C1023.36 736.6 1022.96 734.7 1022.44 733.26L1020.78 733.7C1021.24 735.14 1021.64 737.08 1021.68 738.3L1023.46 737.84ZM1028.92 744.42C1028.5 743.86 1026.6 741.62 1026.02 741.04V740.9H1028.98V738.68H1026.02V732.14H1023.82V738.68H1020.8V740.9H1023.08C1022.46 742.72 1021.44 744.86 1020.44 746.08C1020.8 746.74 1021.32 747.82 1021.52 748.54C1022.38 747.34 1023.18 745.48 1023.82 743.62V750.68H1026.02V743.66C1026.6 744.58 1027.16 745.62 1027.46 746.26L1028.92 744.42ZM1039.5 744.88L1039.14 742.66L1037.1 743.04V732.04H1034.86V743.44L1028.92 744.5L1029.28 746.72L1034.86 745.72V750.72H1037.1V745.32L1039.5 744.88Z" fill="#616161"/>
<path d="M818.65 820.82L819.53 819.82L820.41 820.82L821.04 820.36L820.37 819.22L821.57 818.69L821.33 817.95L820.05 818.24L819.93 816.92H819.14L819.01 818.24L817.73 817.95L817.49 818.69L818.68 819.22L818.02 820.36L818.65 820.82ZM830.029 818.15C829.799 818.22 829.469 818.27 829.159 818.27H827.149L827.179 818.22C827.299 818 827.549 817.55 827.789 817.2L826.329 816.72C826.239 817.06 826.029 817.52 825.879 817.77C825.379 818.63 824.509 819.92 822.759 820.99L823.879 821.82C824.859 821.15 825.729 820.27 826.399 819.4H829.209C829.049 820.15 828.469 821.35 827.789 822.13C826.919 823.12 825.809 823.99 823.759 824.6L824.939 825.66C826.819 824.91 828.029 824 828.979 822.84C829.879 821.72 830.449 820.39 830.719 819.5C830.799 819.25 830.939 818.97 831.049 818.78L830.029 818.15ZM834.949 825.42C835.189 825.27 835.409 825.2 835.549 825.15C837.899 824.38 839.979 823.19 841.349 821.55L840.639 820.42C839.359 821.98 837.129 823.26 835.499 823.72V818.53C835.499 818.14 835.539 817.78 835.599 817.4H834.029C834.089 817.68 834.139 818.15 834.139 818.53V823.95C834.139 824.18 834.129 824.35 834.009 824.6L834.949 825.42ZM849.349 817.32L848.519 817.67C848.879 818.18 849.109 818.61 849.399 819.24L850.269 818.87C850.039 818.41 849.639 817.74 849.349 817.32ZM850.729 816.84L849.879 817.19C850.249 817.69 850.499 818.08 850.819 818.71L851.669 818.33C851.429 817.89 851.039 817.24 850.729 816.84ZM845.009 817.13L844.289 818.23C844.949 818.6 845.989 819.27 846.549 819.66L847.289 818.56C846.769 818.2 845.669 817.49 845.009 817.13ZM843.159 824.23L843.909 825.54C844.789 825.38 846.229 824.88 847.249 824.31C848.879 823.36 850.299 822.1 851.219 820.71L850.449 819.35C849.659 820.78 848.259 822.15 846.559 823.1C845.479 823.7 844.279 824.04 843.159 824.23ZM843.469 819.41L842.749 820.51C843.419 820.87 844.459 821.54 845.029 821.94L845.759 820.82C845.249 820.46 844.149 819.77 843.469 819.41ZM857.109 819.05L855.919 819.44C856.169 819.96 856.609 821.17 856.729 821.66L857.929 821.24C857.789 820.78 857.299 819.48 857.109 819.05ZM859.389 819.33C859.279 820.58 858.799 821.91 858.119 822.76C857.289 823.8 855.899 824.56 854.799 824.85L855.849 825.92C857.019 825.48 858.269 824.64 859.199 823.44C859.879 822.56 860.299 821.52 860.559 820.51C860.619 820.31 860.679 820.1 860.799 819.78L859.389 819.33ZM854.789 819.58L853.589 820.01C853.829 820.45 854.329 821.78 854.499 822.32L855.719 821.86C855.519 821.3 855.039 820.09 854.789 819.58ZM870.749 821.32C869.829 820.87 867.909 820.16 866.569 819.77V818.3C866.569 817.88 866.619 817.44 866.659 817.09H865.099C865.169 817.44 865.199 817.94 865.199 818.3V824.04C865.199 824.44 865.159 825.04 865.099 825.43H866.659C866.619 825.03 866.569 824.33 866.569 824.04V821.21C867.649 821.58 869.149 822.16 870.179 822.7L870.749 821.32ZM879.919 818.7C879.669 818.74 879.409 818.77 879.159 818.77H877.279C877.299 818.48 877.309 818.18 877.319 817.87C877.329 817.63 877.349 817.21 877.379 816.98H875.909C875.949 817.22 875.979 817.68 875.979 817.9C875.979 818.2 875.969 818.49 875.959 818.77H874.529C874.149 818.77 873.629 818.74 873.209 818.7V820.01C873.639 819.97 874.189 819.97 874.529 819.97H875.849C875.629 821.49 875.129 822.61 874.199 823.53C873.799 823.94 873.309 824.28 872.889 824.51L874.049 825.45C875.839 824.18 876.789 822.61 877.159 819.97H879.409C879.409 821.05 879.279 823.05 878.989 823.68C878.879 823.92 878.739 824.03 878.419 824.03C878.029 824.03 877.509 823.98 877.019 823.89L877.169 825.23C877.659 825.27 878.259 825.31 878.829 825.31C879.519 825.31 879.899 825.05 880.119 824.54C880.549 823.52 880.669 820.73 880.709 819.65C880.709 819.54 880.749 819.29 880.779 819.12L879.919 818.7ZM882.979 821.94C883.349 821.91 884.019 821.89 884.589 821.89H889.959C890.379 821.89 890.889 821.93 891.129 821.94V820.37C890.869 820.39 890.419 820.43 889.959 820.43H884.589C884.069 820.43 883.339 820.4 882.979 820.37V821.94ZM901.129 818.49C900.899 818.04 900.479 817.41 900.189 817.01L899.359 817.4C899.729 817.9 899.969 818.27 900.289 818.9L901.129 818.49ZM899.789 819.07C899.559 818.62 899.159 817.98 898.879 817.56L898.039 817.92C898.409 818.43 898.629 818.83 898.919 819.46L899.789 819.07ZM896.259 818.44C896.259 818.02 896.309 817.58 896.349 817.23H894.789C894.859 817.59 894.889 818.08 894.889 818.44V824.19C894.889 824.58 894.849 825.19 894.789 825.58H896.359C896.309 825.17 896.259 824.47 896.259 824.19V821.36C897.339 821.72 898.839 822.3 899.879 822.85L900.439 821.46C899.519 821.01 897.589 820.3 896.259 819.9V818.44ZM905.219 819.53C905.979 818.94 906.619 818.29 907.049 817.68C907.509 818.3 908.199 818.95 908.969 819.53H905.219ZM904.729 820.62H909.399V819.83C909.949 820.21 910.529 820.54 911.079 820.8C911.289 820.45 911.549 820.02 911.849 819.71C910.269 819.15 908.679 818.01 907.619 816.54H906.379C905.629 817.72 904.049 819.14 902.339 819.89C902.589 820.15 902.899 820.6 903.039 820.89C903.619 820.61 904.199 820.27 904.729 819.89V820.62ZM902.959 822.55H905.279C905.069 823.14 904.789 823.8 904.519 824.36L903.009 824.41L903.169 825.57C904.869 825.49 907.339 825.39 909.689 825.26C909.849 825.48 909.989 825.69 910.089 825.88L911.199 825.21C910.729 824.46 909.799 823.42 908.909 822.64L907.859 823.19C908.189 823.49 908.529 823.85 908.839 824.21C907.819 824.25 906.789 824.29 905.829 824.32C906.129 823.76 906.459 823.14 906.749 822.55H911.229V821.45H902.959V822.55ZM916.809 822.18C916.599 821.98 915.829 821.29 915.349 820.9C915.829 820.24 916.229 819.52 916.529 818.76L915.859 818.33L915.649 818.38H915.199V816.54H914.019V818.38H912.599V819.45H915.019C914.359 820.61 913.309 821.66 912.219 822.25C912.399 822.48 912.679 823.06 912.779 823.38C913.199 823.12 913.619 822.79 914.019 822.42V825.87H915.199V822.1C915.539 822.47 915.879 822.87 916.089 823.15L916.809 822.18ZM919.689 824.42V820.76H921.579V819.61H919.689V816.62H918.469V819.61H916.569V820.76H918.469V824.42H916.159V825.58H921.819V824.42H919.689ZM926.539 818.02L926.549 819.3C927.789 819.41 929.579 819.41 930.799 819.3V818.02C929.729 818.15 927.759 818.19 926.539 818.02ZM926.199 822.15C926.099 822.61 926.029 823.03 926.029 823.44C926.029 824.45 926.839 825.07 928.549 825.07C929.669 825.07 930.469 824.99 931.109 824.87L931.079 823.53C930.219 823.71 929.489 823.79 928.599 823.79C927.599 823.79 927.219 823.53 927.219 823.09C927.219 822.82 927.259 822.58 927.339 822.26L926.199 822.15ZM923.629 817.25C923.629 817.56 923.569 817.94 923.529 818.22C923.419 818.98 923.119 820.65 923.119 822.14C923.119 823.48 923.309 824.69 923.509 825.38L924.649 825.3C924.639 825.16 924.639 825 924.629 824.89C924.629 824.79 924.659 824.57 924.689 824.43C924.789 823.9 925.119 822.83 925.399 822L924.779 821.52C924.639 821.84 924.479 822.17 924.339 822.52C924.309 822.31 924.299 822.07 924.299 821.88C924.299 820.89 924.639 818.91 924.779 818.25C924.819 818.07 924.939 817.57 925.019 817.37L923.629 817.25ZM936.499 823.41C936.499 824.06 936.269 824.35 935.629 824.35C934.939 824.35 934.439 824.17 934.439 823.68C934.439 823.26 934.899 823 935.669 823C935.949 823 936.229 823.03 936.489 823.07C936.499 823.2 936.499 823.32 936.499 823.41ZM940.779 823.87C940.099 823.23 939.029 822.55 937.769 822.17C937.719 821.44 937.679 820.66 937.659 820.06C938.459 820.04 939.639 820 940.469 819.92L940.419 818.74C939.599 818.83 938.439 818.87 937.659 818.89C937.659 818.64 937.659 818.39 937.659 818.17C937.679 817.78 937.709 817.3 937.749 817.01H936.259C936.319 817.26 936.349 817.68 936.359 818.17C936.369 818.59 936.379 819.18 936.379 819.78C936.379 820.3 936.419 821.15 936.449 821.92C936.259 821.9 936.059 821.89 935.859 821.89C934.039 821.89 933.159 822.71 933.159 823.74C933.159 825.09 934.319 825.55 935.729 825.55C937.389 825.55 937.839 824.71 937.839 823.84C937.839 823.74 937.839 823.63 937.829 823.5C938.709 823.9 939.459 824.49 940.019 825.05L940.779 823.87ZM944.133 816.94C944.123 817.22 944.103 817.62 944.053 817.98C943.903 819 943.773 820.23 943.773 821.15C943.773 821.81 943.843 822.42 943.893 822.8L945.123 822.72C945.063 822.26 945.063 821.94 945.073 821.67C945.123 820.37 946.143 818.61 947.313 818.61C948.133 818.61 948.643 819.46 948.643 820.99C948.643 823.39 947.103 824.11 944.903 824.45L945.653 825.6C948.273 825.12 949.993 823.78 949.993 820.98C949.993 818.8 948.923 817.45 947.543 817.45C946.423 817.45 945.563 818.29 945.093 819.05C945.153 818.5 945.353 817.49 945.493 817L944.133 816.94ZM953.803 818.04H955.683V819.41H953.803V818.04ZM954.823 821.29C954.843 821.02 954.863 820.74 954.883 820.47H956.833V816.99H952.723V820.47H953.723C953.643 822.13 953.443 823.93 952.133 825.01C952.413 825.21 952.753 825.58 952.923 825.88C953.983 824.98 954.453 823.7 954.683 822.33H955.793C955.723 823.91 955.633 824.55 955.483 824.72C955.393 824.83 955.303 824.85 955.153 824.85C954.973 824.85 954.573 824.85 954.173 824.8C954.343 825.09 954.463 825.52 954.473 825.83C954.953 825.85 955.413 825.84 955.683 825.8C956.003 825.76 956.233 825.67 956.433 825.43C956.713 825.09 956.813 824.13 956.913 821.72C956.913 821.58 956.923 821.29 956.923 821.29H954.823ZM958.743 817.74H957.583V823.37H958.743V817.74ZM959.933 816.73V824.43C959.933 824.61 959.853 824.67 959.663 824.67C959.453 824.67 958.813 824.67 958.163 824.65C958.343 824.98 958.523 825.53 958.573 825.88C959.483 825.88 960.153 825.84 960.563 825.65C960.973 825.46 961.113 825.13 961.113 824.43V816.73H959.933ZM966.633 818.94C967.213 818.51 967.713 818.03 968.063 817.57C968.423 818.03 968.973 818.52 969.553 818.94H966.633ZM966.283 819.9H967.553V820.45H965.133V821.43H967.553V823.14C967.553 823.25 967.513 823.29 967.383 823.29C967.283 823.29 966.893 823.29 966.553 823.27C966.683 823.55 966.823 823.97 966.863 824.27C967.483 824.27 967.933 824.26 968.273 824.1C968.613 823.94 968.693 823.67 968.693 823.16V821.43H971.233V820.45H968.693V819.9H969.983V819.24C970.293 819.44 970.603 819.61 970.893 819.75C971.073 819.41 971.333 818.96 971.583 818.65C970.473 818.27 969.373 817.47 968.603 816.54H967.433C966.883 817.35 965.753 818.28 964.623 818.74C964.843 819.01 965.113 819.48 965.243 819.78C965.593 819.61 965.943 819.41 966.283 819.19V819.9ZM969.063 822.05C969.513 822.61 970.043 823.39 970.263 823.88L971.263 823.39C971.013 822.88 970.453 822.15 970.003 821.61L969.063 822.05ZM965.973 821.66C965.733 822.28 965.293 822.89 964.773 823.3C965.023 823.44 965.453 823.71 965.653 823.89C966.173 823.42 966.693 822.66 967.003 821.91L965.973 821.66ZM964.853 818.29C964.523 817.82 963.803 817.18 963.223 816.76L962.333 817.47C962.913 817.92 963.613 818.6 963.903 819.07L964.853 818.29ZM964.593 820.41H962.333V821.5H963.433V823.61C963.003 823.95 962.513 824.29 962.113 824.53L962.693 825.77C963.223 825.35 963.653 824.96 964.083 824.57C964.733 825.35 965.563 825.63 966.803 825.68C968.003 825.73 970.013 825.71 971.223 825.65C971.273 825.31 971.453 824.73 971.593 824.45C970.263 824.55 967.993 824.58 966.823 824.53C965.773 824.49 965.013 824.22 964.593 823.55V820.41ZM975.203 817.56C974.803 817.23 974.003 816.81 973.393 816.57L972.743 817.46C973.373 817.73 974.153 818.19 974.513 818.54L975.203 817.56ZM974.653 820.22C974.253 819.88 973.423 819.49 972.803 819.27L972.173 820.16C972.803 820.43 973.593 820.87 973.973 821.21L974.653 820.22ZM974.213 821.8C973.653 822.97 972.943 824.23 972.443 824.99L973.483 825.73C974.043 824.75 974.623 823.6 975.123 822.54L974.213 821.8ZM978.373 819.18H979.613V820.99H978.343C978.363 820.66 978.373 820.34 978.373 820.01V819.18ZM981.523 822.11V820.99H980.773V818.06H978.373V816.54H977.193V818.06H975.523V819.18H977.193V820C977.193 820.33 977.183 820.66 977.163 820.99H975.033V822.11H976.983C976.693 823.23 976.023 824.26 974.503 825.06C974.823 825.24 975.283 825.65 975.493 825.9C977.023 825.06 977.753 823.92 978.083 822.69C978.653 824.14 979.503 825.25 980.803 825.89C980.983 825.56 981.353 825.09 981.633 824.85C980.413 824.35 979.563 823.34 979.083 822.11H981.523ZM984.243 821.8C983.673 822.97 982.953 824.23 982.453 824.99L983.493 825.73C984.053 824.75 984.643 823.6 985.143 822.54L984.243 821.8ZM984.653 820.22C984.253 819.88 983.423 819.49 982.803 819.27L982.173 820.16C982.803 820.43 983.593 820.87 983.973 821.21L984.653 820.22ZM989.483 821.09V821.5H987.033V821.06H986.193C986.913 820.87 987.593 820.64 988.213 820.35C988.923 820.69 989.703 820.91 990.523 821.09H989.483ZM986.973 823.18C987.013 822.94 987.023 822.7 987.033 822.49H989.483V823.18H986.973ZM989.143 818.46C988.903 818.73 988.613 818.97 988.273 819.18C987.923 818.99 987.593 818.75 987.273 818.46H989.143ZM991.413 818.46V817.43H988.863V816.54H987.633V817.43H985.123V817.5C984.703 817.18 983.963 816.8 983.393 816.58L982.743 817.46C983.373 817.73 984.153 818.19 984.513 818.54L985.123 817.67V818.46H985.903C986.283 818.97 986.703 819.37 987.153 819.71C986.423 819.97 985.583 820.15 984.713 820.27C984.893 820.5 985.173 821 985.273 821.27C985.483 821.23 985.693 821.18 985.893 821.13V822.22C985.893 823.07 985.763 824.46 984.643 825.34C984.933 825.47 985.383 825.79 985.593 825.97C986.213 825.47 986.563 824.82 986.773 824.16H989.483V825.85H990.653V821.12L991.013 821.19C991.123 820.82 991.393 820.39 991.653 820.12C990.833 820.01 990.073 819.87 989.363 819.65C989.803 819.31 990.183 818.92 990.483 818.46H991.413ZM1001.44 821.65H997.493V820.48H1000.85V819.34H997.493V818.03C998.593 817.9 999.643 817.73 1000.53 817.5L999.673 816.51C998.033 816.94 995.293 817.21 992.883 817.31C993.003 817.57 993.153 818.05 993.183 818.36C994.163 818.32 995.213 818.26 996.253 818.17V819.34H992.983V820.48H996.253V821.65H992.303V822.81H996.253V824.42C996.253 824.62 996.163 824.69 995.933 824.7C995.713 824.7 994.873 824.7 994.133 824.67C994.323 824.99 994.553 825.51 994.623 825.85C995.643 825.86 996.363 825.83 996.843 825.65C997.313 825.46 997.493 825.15 997.493 824.44V822.81H1001.44V821.65ZM1007.22 822.68V821.72C1007.28 821.78 1007.32 821.83 1007.36 821.87C1007.52 821.65 1007.68 821.41 1007.82 821.15C1008 821.87 1008.22 822.53 1008.5 823.12C1008.06 823.74 1007.48 824.24 1006.74 824.63C1006.51 824.46 1006.22 824.28 1005.91 824.1C1006.16 823.71 1006.33 823.24 1006.44 822.68H1007.22ZM1004.35 822.68H1005.32C1005.23 823.04 1005.1 823.34 1004.94 823.59C1004.65 823.45 1004.36 823.33 1004.06 823.21L1004.35 822.68ZM1009.73 819.43C1009.62 820.31 1009.44 821.1 1009.19 821.78C1008.92 821.06 1008.72 820.27 1008.58 819.43H1009.73ZM1011.52 819.43V818.33H1008.86C1008.99 817.8 1009.1 817.25 1009.18 816.69L1007.98 816.53C1007.74 818.31 1007.26 820.01 1006.41 821.03C1006.63 821.18 1006.99 821.49 1007.22 821.72H1004.84L1005.08 821.24L1004.65 821.15H1005.29V819.94C1005.68 820.25 1006.1 820.6 1006.32 820.81L1006.95 819.99C1006.73 819.84 1006.02 819.42 1005.54 819.15H1007.18V818.21H1006.23C1006.47 817.9 1006.78 817.48 1007.09 817.05L1006.09 816.65C1005.93 817.03 1005.65 817.56 1005.42 817.92L1006.08 818.21H1005.29V816.53H1004.2V818.21H1003.36L1004 817.93C1003.92 817.58 1003.66 817.07 1003.4 816.69L1002.54 817.05C1002.75 817.41 1002.97 817.87 1003.06 818.21H1002.3V819.15H1003.86C1003.38 819.67 1002.71 820.15 1002.1 820.4C1002.32 820.61 1002.57 821 1002.7 821.26C1003.2 820.98 1003.74 820.56 1004.2 820.1V821.06L1003.98 821.01C1003.88 821.23 1003.76 821.47 1003.64 821.72H1002.19V822.68H1003.14C1002.89 823.16 1002.64 823.61 1002.42 823.96L1003.46 824.28L1003.57 824.09C1003.76 824.17 1003.95 824.26 1004.13 824.36C1003.66 824.62 1003.03 824.79 1002.23 824.89C1002.42 825.14 1002.63 825.54 1002.7 825.88C1003.77 825.66 1004.57 825.37 1005.16 824.93C1005.57 825.19 1005.93 825.45 1006.2 825.68L1006.65 825.22C1006.81 825.46 1006.96 825.73 1007.03 825.9C1007.9 825.46 1008.59 824.92 1009.14 824.26C1009.59 824.91 1010.14 825.44 1010.82 825.85C1011 825.52 1011.37 825.06 1011.64 824.82C1010.91 824.44 1010.33 823.87 1009.87 823.16C1010.41 822.15 1010.75 820.91 1010.96 819.43H1011.52ZM1019.05 818.28C1018.73 817.91 1018.02 817.4 1017.46 817.07L1016.89 817.87C1017.44 818.24 1018.13 818.78 1018.44 819.17L1019.05 818.28ZM1016.43 820.39C1017.01 820.73 1017.74 821.27 1018.07 821.63L1018.67 820.68C1018.31 820.33 1017.57 819.84 1016.99 819.53L1016.43 820.39ZM1015.53 817.08C1015.42 817.78 1015.19 818.79 1014.98 819.42L1015.73 819.63C1015.98 819.05 1016.27 818.1 1016.53 817.3L1015.53 817.08ZM1013.59 819.42C1013.54 818.8 1013.34 817.85 1013.08 817.13L1012.25 817.35C1012.48 818.07 1012.68 819.04 1012.7 819.65L1013.59 819.42ZM1016.32 822.71C1016.11 822.43 1015.16 821.31 1014.87 821.02V820.95H1016.35V819.84H1014.87V816.57H1013.77V819.84H1012.26V820.95H1013.4C1013.09 821.86 1012.58 822.93 1012.08 823.54C1012.26 823.87 1012.52 824.41 1012.62 824.77C1013.05 824.17 1013.45 823.24 1013.77 822.31V825.84H1014.87V822.33C1015.16 822.79 1015.44 823.31 1015.59 823.63L1016.32 822.71ZM1021.61 822.94L1021.43 821.83L1020.41 822.02V816.52H1019.29V822.22L1016.32 822.75L1016.5 823.86L1019.29 823.36V825.86H1020.41V823.16L1021.61 822.94ZM1031.66 817.7C1031.49 817.35 1031.12 816.72 1030.85 816.34L1030.06 816.67C1030.34 817.04 1030.66 817.63 1030.87 818.05L1031.66 817.7ZM1024.94 817.05C1024.95 817.67 1024.87 818.39 1024.73 819.15C1024.23 819.19 1023.76 819.22 1023.45 819.23C1023.09 819.24 1022.76 819.26 1022.4 819.23L1022.51 820.57C1022.82 820.52 1023.33 820.45 1023.61 820.42C1023.8 820.39 1024.11 820.35 1024.46 820.31C1024.11 821.66 1023.43 823.64 1022.47 824.94L1023.76 825.46C1024.67 824 1025.39 821.67 1025.78 820.17C1026.06 820.15 1026.3 820.13 1026.46 820.13C1027.08 820.13 1027.42 820.24 1027.42 821.03C1027.42 822.01 1027.29 823.19 1027.02 823.74C1026.86 824.07 1026.61 824.17 1026.28 824.17C1026.02 824.17 1025.44 824.07 1025.06 823.96L1025.28 825.27C1025.61 825.35 1026.09 825.41 1026.46 825.41C1027.22 825.41 1027.76 825.19 1028.09 824.5C1028.51 823.64 1028.65 822.06 1028.65 820.89C1028.65 819.47 1027.91 819 1026.86 819C1026.66 819 1026.36 819.02 1026.03 819.04C1026.1 818.68 1026.18 818.32 1026.24 818.02C1026.29 817.77 1026.35 817.46 1026.41 817.2L1024.94 817.05ZM1030.47 818.16C1030.27 817.79 1029.92 817.16 1029.67 816.79L1028.88 817.12C1029.11 817.44 1029.36 817.92 1029.56 818.3L1028.64 818.69C1029.35 819.57 1030.05 821.32 1030.31 822.42L1031.57 821.83C1031.28 820.96 1030.54 819.29 1029.96 818.38L1030.47 818.16ZM1038.03 818.22C1037.46 817.78 1036.45 817.04 1035.64 816.52L1034.87 817.39C1035.65 817.93 1036.67 818.71 1037.25 819.19L1038.03 818.22ZM1033.16 819.23C1032.98 820.4 1032.6 821.67 1032.11 822.53L1033.26 822.96C1033.76 822.1 1034.08 820.7 1034.29 819.52L1033.16 819.23ZM1036.61 824.57C1036.1 824.57 1036.02 824.5 1036.02 823.99V823.38C1038.03 821.74 1039.6 819.68 1040.69 817.59L1039.49 817.12C1038.73 818.72 1037.53 820.38 1036.02 821.8V818.78H1034.75V822.87C1033.94 823.49 1033.06 824.03 1032.13 824.45C1032.37 824.68 1032.73 825.12 1032.91 825.39C1033.55 825.08 1034.18 824.72 1034.76 824.32C1034.83 825.42 1035.25 825.76 1036.48 825.76H1038.23C1039.46 825.76 1039.81 825.17 1039.97 823.37C1039.62 823.29 1039.09 823.08 1038.8 822.87C1038.72 824.28 1038.64 824.57 1038.13 824.57H1036.61ZM1039.02 820.41C1039.61 821.35 1040.23 822.63 1040.46 823.46L1041.6 822.88C1041.35 822.06 1040.72 820.84 1040.09 819.9L1039.02 820.41ZM1045.75 822.88H1048.19C1047.95 823.25 1047.64 823.56 1047.27 823.81C1046.66 823.65 1046.03 823.5 1045.41 823.37L1045.75 822.88ZM1044.06 819.42H1045.11V820.35H1044.06V819.42ZM1046.23 817.91H1047.36V818.48H1046.23V817.91ZM1049.68 819.42V820.35H1048.48V819.42H1049.68ZM1046.23 820.35V819.42H1047.36V820.35H1046.23ZM1051.43 822.88V821.92H1046.38C1046.52 821.7 1046.66 821.49 1046.78 821.28H1050.87V818.48H1048.48V817.91H1051.19V816.88H1042.48V817.91H1045.11V818.48H1042.94V821.28H1045.42C1045.29 821.49 1045.16 821.7 1045.02 821.92H1042.3V822.88H1044.38C1044.08 823.31 1043.79 823.7 1043.54 824.02L1044.69 824.38L1044.8 824.23C1045.13 824.3 1045.45 824.38 1045.77 824.46C1044.88 824.69 1043.8 824.81 1042.48 824.86C1042.66 825.12 1042.85 825.54 1042.93 825.88C1044.87 825.73 1046.35 825.47 1047.47 824.92C1048.6 825.25 1049.61 825.6 1050.37 825.91L1051.1 824.94C1050.42 824.7 1049.55 824.43 1048.58 824.16C1048.95 823.81 1049.26 823.39 1049.51 822.88H1051.43ZM1056.34 818.02L1056.35 819.3C1057.59 819.41 1059.38 819.41 1060.6 819.3V818.02C1059.53 818.15 1057.56 818.19 1056.34 818.02ZM1056 822.15C1055.9 822.61 1055.83 823.03 1055.83 823.44C1055.83 824.45 1056.64 825.07 1058.35 825.07C1059.47 825.07 1060.27 824.99 1060.91 824.87L1060.88 823.53C1060.02 823.71 1059.29 823.79 1058.4 823.79C1057.4 823.79 1057.02 823.53 1057.02 823.09C1057.02 822.82 1057.06 822.58 1057.14 822.26L1056 822.15ZM1053.43 817.25C1053.43 817.56 1053.37 817.94 1053.33 818.22C1053.22 818.98 1052.92 820.65 1052.92 822.14C1052.92 823.48 1053.11 824.69 1053.31 825.38L1054.45 825.3C1054.44 825.16 1054.44 825 1054.43 824.89C1054.43 824.79 1054.46 824.57 1054.49 824.43C1054.59 823.9 1054.92 822.83 1055.2 822L1054.58 821.52C1054.44 821.84 1054.28 822.17 1054.14 822.52C1054.11 822.31 1054.1 822.07 1054.1 821.88C1054.1 820.89 1054.44 818.91 1054.58 818.25C1054.62 818.07 1054.74 817.57 1054.82 817.37L1053.43 817.25ZM1071.3 819.54C1070.8 819.18 1069.57 818.51 1068.86 818.2L1068.22 819.18C1068.9 819.48 1070.03 820.13 1070.6 820.59L1071.3 819.54ZM1067.57 818.02C1067.18 818.14 1066.72 818.25 1066.24 818.33C1066.38 817.8 1066.5 817.3 1066.58 816.98L1065.21 816.84C1065.19 817.35 1065.08 817.95 1064.94 818.5C1064.64 818.52 1064.34 818.53 1064.05 818.53C1063.69 818.53 1063.16 818.51 1062.73 818.46L1062.82 819.62C1063.25 819.64 1063.65 819.65 1064.06 819.65C1064.23 819.65 1064.4 819.65 1064.57 819.64C1064.13 820.71 1063.35 822.17 1062.55 823.14L1063.76 823.75C1064.56 822.62 1065.41 820.9 1065.88 819.51C1066.54 819.42 1067.15 819.29 1067.6 819.17L1067.57 818.02ZM1067.81 823.53C1067.81 824.06 1067.59 824.45 1066.92 824.45C1066.38 824.45 1066.07 824.2 1066.07 823.83C1066.07 823.48 1066.44 823.24 1067.01 823.24C1067.29 823.24 1067.55 823.28 1067.81 823.34V823.53ZM1067.65 820.06C1067.68 820.66 1067.73 821.53 1067.76 822.27C1067.55 822.25 1067.32 822.23 1067.09 822.23C1065.71 822.23 1064.9 822.98 1064.9 823.95C1064.9 825.04 1065.87 825.59 1067.1 825.59C1068.51 825.59 1069.01 824.87 1069.01 823.95V823.86C1069.55 824.19 1070 824.59 1070.35 824.91L1071.01 823.85C1070.51 823.4 1069.81 822.9 1068.96 822.58C1068.93 822.09 1068.91 821.61 1068.9 821.33C1068.89 820.89 1068.87 820.48 1068.9 820.06H1067.65ZM1074.13 816.94C1074.12 817.22 1074.1 817.62 1074.05 817.98C1073.9 819 1073.77 820.23 1073.77 821.15C1073.77 821.81 1073.84 822.42 1073.89 822.8L1075.12 822.72C1075.06 822.26 1075.06 821.94 1075.07 821.67C1075.12 820.37 1076.14 818.61 1077.31 818.61C1078.13 818.61 1078.64 819.46 1078.64 820.99C1078.64 823.39 1077.1 824.11 1074.9 824.45L1075.65 825.6C1078.27 825.12 1079.99 823.78 1079.99 820.98C1079.99 818.8 1078.92 817.45 1077.54 817.45C1076.42 817.45 1075.56 818.29 1075.09 819.05C1075.15 818.5 1075.35 817.49 1075.49 817L1074.13 816.94ZM1086.63 823.69C1086.63 824.26 1086.29 824.42 1085.76 824.42C1085.08 824.42 1084.73 824.18 1084.73 823.81C1084.73 823.47 1085.11 823.2 1085.81 823.2C1086.09 823.2 1086.36 823.23 1086.62 823.27C1086.63 823.44 1086.63 823.58 1086.63 823.69ZM1090.59 823.94C1090.02 823.46 1089.07 822.8 1087.82 822.44C1087.79 822.06 1087.77 821.66 1087.75 821.29C1088.71 821.26 1089.48 821.19 1090.37 821.09V819.92C1089.56 820.02 1088.73 820.11 1087.73 820.15L1087.74 819.12C1088.69 819.07 1089.49 818.99 1090.14 818.93L1090.11 817.79C1089.25 817.92 1088.52 818 1087.75 818.03L1087.76 817.64C1087.77 817.39 1087.8 817.14 1087.83 816.94H1086.48C1086.52 817.13 1086.53 817.44 1086.53 817.62V818.07H1086.04C1085.43 818.07 1084.51 818 1083.89 817.88L1083.9 819.01C1084.47 819.1 1085.42 819.16 1086.05 819.16H1086.52V820.19H1086.05C1085.52 820.19 1084.23 820.12 1083.66 820.01L1083.65 821.18C1084.31 821.26 1085.45 821.31 1086.03 821.31H1086.54C1086.55 821.6 1086.56 821.91 1086.58 822.21C1086.38 822.19 1086.18 822.18 1085.97 822.18C1084.44 822.18 1083.52 822.88 1083.52 823.88C1083.52 824.93 1084.36 825.53 1085.94 825.53C1087.25 825.53 1087.89 824.88 1087.89 824.03C1087.89 823.93 1087.89 823.81 1087.88 823.68C1088.67 824.04 1089.35 824.55 1089.88 825.05L1090.59 823.94ZM1095.89 821.71C1095.89 821.19 1096.27 820.93 1096.65 820.93C1096.93 820.93 1097.16 821.04 1097.3 821.28C1097.43 822.14 1097.06 822.45 1096.65 822.45C1096.26 822.45 1095.89 822.17 1095.89 821.71ZM1101.17 818.12C1100.65 818.11 1099.3 818.12 1098.3 818.12C1098.3 818 1098.31 817.9 1098.31 817.82C1098.32 817.66 1098.35 817.13 1098.38 816.97H1096.94C1096.98 817.13 1097.01 817.51 1097.03 817.83C1097.04 817.9 1097.04 818.01 1097.04 818.13C1095.71 818.15 1093.91 818.2 1092.78 818.2L1092.81 819.4C1094.03 819.33 1095.56 819.27 1097.06 819.25L1097.07 819.91C1096.95 819.89 1096.82 819.88 1096.68 819.88C1095.6 819.88 1094.7 820.61 1094.7 821.73C1094.7 822.94 1095.64 823.55 1096.41 823.55C1096.57 823.55 1096.72 823.53 1096.86 823.5C1096.31 824.09 1095.44 824.42 1094.44 824.63L1095.49 825.69C1097.91 825.01 1098.67 823.37 1098.67 822.08C1098.67 821.56 1098.55 821.08 1098.3 820.71C1098.3 820.28 1098.3 819.74 1098.29 819.24C1099.63 819.24 1100.56 819.26 1101.16 819.29L1101.17 818.12Z" fill="#616161"/>
<path d="M827.16 783.34C826.78 782.6 826.24 781.74 825.74 781L824.08 781.68C824.6 782.4 825.08 783.24 825.48 784.04L827.16 783.34ZM815.48 791.7C815.48 790.66 816.26 790.14 817 790.14C817.54 790.14 818.02 790.36 818.3 790.82C818.56 792.56 817.84 793.2 817.02 793.2C816.22 793.2 815.48 792.62 815.48 791.7ZM824.46 783.92C824.1 783.2 823.56 782.28 823.06 781.58L821.42 782.26C821.9 782.96 822.32 783.74 822.72 784.52H820.3C820.3 784.28 820.32 784.08 820.32 783.92C820.34 783.6 820.4 782.54 820.46 782.22H817.58C817.66 782.56 817.72 783.3 817.78 783.94C817.78 784.1 817.8 784.3 817.8 784.54C815.12 784.58 811.54 784.68 809.26 784.68L809.32 787.08C811.76 786.94 814.84 786.82 817.84 786.78L817.86 788.1C817.6 788.06 817.34 788.04 817.06 788.04C814.9 788.04 813.1 789.5 813.1 791.76C813.1 794.16 815 795.38 816.52 795.38C816.84 795.38 817.14 795.34 817.42 795.28C816.34 796.46 814.58 797.12 812.58 797.54L814.7 799.66C819.52 798.3 821.04 795.04 821.04 792.44C821.04 791.4 820.8 790.44 820.3 789.7C820.3 788.84 820.3 787.76 820.28 786.76C822.96 786.76 824.82 786.82 826.02 786.88L826.04 784.52C825.46 784.5 824.32 784.52 823.08 784.52L824.46 783.92Z" fill="white"/>
<path d="M1015.74 789.5L1016.76 792.1C1018.46 791.38 1022.4 789.74 1024.7 789.74C1026.42 789.74 1027.54 790.78 1027.54 792.26C1027.54 794.96 1024.18 796.14 1019.68 796.26L1020.72 798.72C1027.02 798.34 1030.16 795.88 1030.16 792.3C1030.16 789.3 1028.06 787.44 1024.94 787.44C1022.54 787.44 1019.18 788.58 1017.84 788.98C1017.24 789.18 1016.32 789.4 1015.74 789.5ZM1047.62 784.06C1047.12 784.48 1046.54 784.82 1045.8 785.26C1044.86 785.78 1043.14 786.66 1041.52 787.6C1040.72 786.08 1039.8 784.18 1039.04 782.12L1036.54 783.14C1037.44 785.24 1038.4 787.34 1039.32 789.04C1037.42 790.44 1036.04 792.06 1036.04 794.26C1036.04 797.66 1039.02 798.76 1042.96 798.76C1045.54 798.76 1047.64 798.56 1049.32 798.28L1049.36 795.42C1047.6 795.82 1044.92 796.14 1042.88 796.14C1040.14 796.14 1038.76 795.38 1038.76 793.96C1038.76 792.58 1039.86 791.44 1041.52 790.36C1043.32 789.2 1045.8 788.04 1047.04 787.42C1047.76 787.06 1048.4 786.72 1049 786.36L1047.62 784.06ZM1059.24 797.54C1058.22 796.3 1056.3 794.32 1054.88 793.16L1052.8 794.96C1054.2 796.16 1055.88 797.88 1057.1 799.38L1059.24 797.54ZM1086.22 787.8H1084.7V785.24H1086.22V787.8ZM1086.22 792.46H1084.7V789.92H1086.22V792.46ZM1077.82 789.92H1079.26V792.46H1077.82V789.92ZM1082.72 789.92V792.46H1081.24V789.92H1082.72ZM1081.24 787.8V785.24H1082.72V787.8H1081.24ZM1077.82 785.24H1079.26V787.8H1077.82V785.24ZM1075.72 787.8H1073.04V789.92H1075.72V792.46H1073.34V794.58H1090.72V792.46H1088.4V789.92H1091V787.8H1088.4V785.24H1090.28V783.14H1078.28C1078.58 782.68 1078.84 782.22 1079.06 781.74L1076.74 781.06C1075.86 782.92 1074.28 784.74 1072.6 785.84C1073.14 786.22 1074.1 786.98 1074.54 787.4C1074.94 787.1 1075.32 786.74 1075.72 786.36V787.8ZM1075.1 799.76C1076.08 798.72 1076.94 797.08 1077.38 795.56L1075.08 795C1074.62 796.46 1073.72 798 1072.84 798.84L1075.1 799.76ZM1078.66 795.7C1078.88 796.92 1079.04 798.56 1079.04 799.52L1081.36 799.18C1081.34 798.24 1081.12 796.66 1080.88 795.44L1078.66 795.7ZM1082.62 795.74C1083.06 796.96 1083.52 798.58 1083.64 799.54L1086.02 799.08C1085.84 798.1 1085.34 796.54 1084.86 795.36L1082.62 795.74ZM1086.58 795.64C1087.46 796.92 1088.52 798.68 1088.94 799.74L1091.38 798.92C1090.88 797.82 1089.76 796.14 1088.86 794.92L1086.58 795.64ZM1106.38 784.56C1105.74 783.82 1104.32 782.8 1103.2 782.14L1102.06 783.74C1103.16 784.48 1104.54 785.56 1105.16 786.34L1106.38 784.56ZM1101.14 788.78C1102.3 789.46 1103.76 790.54 1104.42 791.26L1105.62 789.36C1104.9 788.66 1103.42 787.68 1102.26 787.06L1101.14 788.78ZM1099.34 782.16C1099.12 783.56 1098.66 785.58 1098.24 786.84L1099.74 787.26C1100.24 786.1 1100.82 784.2 1101.34 782.6L1099.34 782.16ZM1095.46 786.84C1095.36 785.6 1094.96 783.7 1094.44 782.26L1092.78 782.7C1093.24 784.14 1093.64 786.08 1093.68 787.3L1095.46 786.84ZM1100.92 793.42C1100.5 792.86 1098.6 790.62 1098.02 790.04V789.9H1100.98V787.68H1098.02V781.14H1095.82V787.68H1092.8V789.9H1095.08C1094.46 791.72 1093.44 793.86 1092.44 795.08C1092.8 795.74 1093.32 796.82 1093.52 797.54C1094.38 796.34 1095.18 794.48 1095.82 792.62V799.68H1098.02V792.66C1098.6 793.58 1099.16 794.62 1099.46 795.26L1100.92 793.42ZM1111.5 793.88L1111.14 791.66L1109.1 792.04V781.04H1106.86V792.44L1100.92 793.5L1101.28 795.72L1106.86 794.72V799.72H1109.1V794.32L1111.5 793.88Z" fill="white"/>
<path d="M949 667.92C948.78 667.7 948.24 667.16 947.64 666.6C948.18 666.04 948.8 665.32 949.5 664.64L947.98 663.38C947.64 664 947.06 664.92 946.54 665.6C946.34 665.42 946.16 665.26 946 665.12C947 663.64 947.86 662.02 948.46 660.38L947.12 659.5L946.74 659.6H945.88V656.08H943.54V659.6H940.96V661.74H945.52C944.3 664.12 942.36 666.46 940.4 667.82C940.78 668.24 941.4 669.4 941.62 669.98C942.26 669.48 942.9 668.9 943.54 668.22V674.74H945.88V667.56C946.54 668.32 947.2 669.16 947.58 669.74L949 667.92ZM948.28 657.6V659.84H951.16C951.06 664.94 950.76 670 946.66 672.88C947.28 673.34 948.02 674.12 948.42 674.76C952.88 671.38 953.42 665.62 953.58 659.84H956.48C956.34 668.02 956.12 671.24 955.56 671.9C955.34 672.2 955.14 672.28 954.82 672.28C954.34 672.28 953.4 672.28 952.36 672.2C952.78 672.9 953.06 673.96 953.1 674.66C954.18 674.68 955.28 674.7 956 674.56C956.76 674.42 957.26 674.16 957.8 673.36C958.56 672.28 958.74 668.8 958.92 658.8C958.94 658.48 958.94 657.6 958.94 657.6H948.28ZM964.6 666.56H967.08V667.92H964.6V666.56ZM967.08 660.5V661.66H964.6V660.5H967.08ZM964.6 663.48H967.08V664.74H964.6V663.48ZM970.48 667.92H969.26V660.5H970.62V658.42H969.26V656.3H967.08V658.42H964.6V656.3H962.46V658.42H960.9V660.5H962.46V667.92H960.66V670H970.48V667.92ZM963.14 670.14C962.58 671.34 961.54 672.6 960.5 673.38C961.04 673.7 961.96 674.38 962.4 674.8C963.48 673.82 964.66 672.26 965.36 670.8L963.14 670.14ZM973.5 666C973.52 665.38 973.52 664.8 973.52 664.28V663.54H976.4V666H973.5ZM976.4 659.1V661.44H973.52V659.1H976.4ZM978.7 656.94H971.3V664.28C971.3 666.88 971.2 670.26 970.04 672.76C969.54 671.94 968.6 670.84 967.88 670.04L966.08 671.02C966.86 671.94 967.82 673.26 968.22 674.04L969.88 673.1C969.82 673.22 969.74 673.32 969.68 673.44C970.2 673.64 971.18 674.36 971.56 674.78C972.64 672.98 973.14 670.48 973.36 668.12H976.4V672.06C976.4 672.38 976.3 672.48 976 672.48C975.72 672.48 974.76 672.5 973.9 672.44C974.2 673.04 974.5 674.08 974.58 674.7C976.06 674.72 977.08 674.66 977.78 674.28C978.48 673.9 978.7 673.28 978.7 672.1V656.94ZM985.8 669.52H994.4V670.34H985.8V669.52ZM991.08 662.7V664.02H987.44C987.88 663.62 988.2 663.18 988.42 662.7H991.08ZM984.66 660.52H986.68C986.68 660.8 986.64 661.06 986.56 661.3H984.38L984.66 660.52ZM988.86 658.34H991.08V659.14H988.86V658.34ZM995.42 658.34V659.14H993.34V658.34H995.42ZM991.08 661.3H988.8C988.82 661.04 988.84 660.78 988.86 660.52H991.08V661.3ZM996.54 662.7C996.5 663 996.44 663.18 996.36 663.28C996.24 663.42 996.12 663.42 995.94 663.42C995.72 663.44 995.3 663.42 994.84 663.36C994.92 663.54 995.02 663.78 995.08 664.02H993.34V662.7H996.54ZM994.4 666.16H985.8V665.38H994.4V666.16ZM994.4 668.24H985.8V667.44H994.4V668.24ZM996.82 671.7V664.8C996.94 664.8 997.04 664.78 997.12 664.78C997.54 664.76 997.98 664.6 998.28 664.3C998.62 663.94 998.74 663.22 998.84 661.92C998.86 661.7 998.88 661.3 998.88 661.3H993.34V660.52H997.58V656.94H993.34V656.08H991.08V656.94H988.86V656.08H986.7V656.94H982.16V658.34H986.7V659.14H982.9C982.56 660.32 982.08 661.76 981.64 662.74L983.8 662.88L983.88 662.7H985.62C984.8 663.36 983.36 663.86 980.88 664.18C981.24 664.62 981.8 665.52 982 666.02C982.54 665.94 983.02 665.86 983.48 665.76V671.7H986.2C984.8 672.28 982.76 672.78 980.9 673.1C981.4 673.5 982.24 674.34 982.62 674.8C984.66 674.3 987.2 673.4 988.86 672.42L987.28 671.7H992.62L991.1 672.64C993.18 673.32 995.26 674.16 996.44 674.76L999.08 673.62C997.82 673.08 995.72 672.32 993.8 671.7H996.82ZM1011.4 666.66V664.2H1015.62V666.66H1011.4ZM1005.18 666.66C1005.22 665.92 1005.24 665.2 1005.24 664.56V664.2H1009V666.66H1005.18ZM1009 659.66V661.98H1005.24V659.66H1009ZM1015.62 661.98H1011.4V659.66H1015.62V661.98ZM1017.98 657.4H1002.88V664.54C1002.88 667.34 1002.7 670.9 1000.52 673.3C1001.06 673.58 1002.02 674.4 1002.4 674.84C1003.84 673.28 1004.56 671.08 1004.92 668.9H1009V674.48H1011.4V668.9H1015.62V671.9C1015.62 672.26 1015.48 672.38 1015.1 672.38C1014.74 672.38 1013.42 672.4 1012.3 672.34C1012.6 672.96 1012.98 673.98 1013.06 674.62C1014.86 674.64 1016.08 674.6 1016.9 674.2C1017.7 673.84 1017.98 673.2 1017.98 671.92V657.4Z" fill="#616161"/>
<path d="M924 713.781C924 731.007 920.443 744.184 913.329 753.31C906.215 762.437 895.801 767 882.085 767C868.541 767 858.183 762.522 851.012 753.567C843.841 744.611 840.171 731.777 840 715.064V692.134C840 674.736 843.585 661.531 850.756 652.519C857.984 643.506 868.37 639 881.915 639C895.459 639 905.817 643.478 912.988 652.433C920.159 661.332 923.829 674.137 924 690.85V713.781ZM899.329 688.626C899.329 678.301 897.907 670.8 895.061 666.123C892.272 661.389 887.89 659.021 881.915 659.021C876.11 659.021 871.813 661.275 869.024 665.781C866.293 670.23 864.841 677.217 864.671 686.743V717.032C864.671 727.185 866.037 734.743 868.768 739.706C871.557 744.611 875.996 747.064 882.085 747.064C888.118 747.064 892.472 744.697 895.146 739.963C897.821 735.228 899.215 727.984 899.329 718.23V688.626Z" fill="white"/>
<path d="M836 790H988" stroke="white" stroke-width="3" stroke-linecap="round" stroke-dasharray="4 8"/>
<path d="M997.514 784.909C996.848 784.509 996 784.989 996 785.766V794.234C996 795.011 996.848 795.491 997.514 795.091L1004.57 790.857C1005.22 790.469 1005.22 789.531 1004.57 789.143L997.514 784.909Z" fill="white"/>
</svg>
