<svg width="1920" height="416" viewBox="0 0 1920 416" fill="none" xmlns="http://www.w3.org/2000/svg">
<rect width="1920" height="416" fill="#FBC02D"/>
<mask id="mask0" mask-type="alpha" maskUnits="userSpaceOnUse" x="671" y="88" width="164" height="164">
<circle cx="753" cy="170" r="80" stroke="white" stroke-width="3" stroke-linecap="round" stroke-dasharray="4 8"/>
</mask>
<g mask="url(#mask0)">
<path fill-rule="evenodd" clip-rule="evenodd" d="M833 82H673V138H821V126H833V82Z" fill="white"/>
</g>
<path d="M826.486 128.909C827.152 128.509 828 128.989 828 129.766V138.234C828 139.011 827.152 139.491 826.486 139.091L819.429 134.857C818.782 134.469 818.782 133.531 819.429 133.143L826.486 128.909Z" fill="white"/>
<path fill-rule="evenodd" clip-rule="evenodd" d="M638.77 143.74C636.43 146.08 636.43 149.89 638.77 152.23C641.11 154.6 644.89 154.6 647.26 152.23C649.6 149.89 649.6 146.08 647.26 143.74C644.92 141.4 641.11 141.4 638.77 143.74ZM660.79 181L676 196.21L671.71 200.5L661.21 190H646C641.02 190 637 185.98 637 181V163.75C637 160.03 640.03 157 643.75 157H643.84C644.86 157 645.85 157.27 646.72 157.69C647.5 158.05 648.22 158.56 648.79 159.19L652.99 163.84C656.17 167.35 662.02 170.02 667 169.96V176.44C661.3 176.44 654.7 173.41 650.5 169.96V181H660.79ZM655 193H637V199H655V193Z" fill="#616161"/>
<rect x="669.5" y="145.5" width="13" height="21" rx="1.5" stroke="white" stroke-width="3"/>
<path fill-rule="evenodd" clip-rule="evenodd" d="M664 102C664 115.255 653.255 126 640 126C626.745 126 616 115.255 616 102C616 88.7452 626.745 78 640 78C653.255 78 664 88.7452 664 102ZM637 131C637 132.657 635.657 134 634 134C632.343 134 631 132.657 631 131C631 129.343 632.343 128 634 128C635.657 128 637 129.343 637 131ZM636 140C637.105 140 638 139.105 638 138C638 136.895 637.105 136 636 136C634.895 136 634 136.895 634 138C634 139.105 634.895 140 636 140Z" fill="white"/>
<path d="M646.06 112.99H647.72C648.56 112.99 649.25 112.35 649.35 111.53L651 95.05H646V91H644.03V95.05H639.06L639.36 97.39C641.07 97.86 642.67 98.71 643.63 99.65C645.07 101.07 646.06 102.54 646.06 104.94V112.99V112.99ZM629 111.99V111H644.03V111.99C644.03 112.54 643.58 112.99 643.02 112.99H630.01C629.45 112.99 629 112.54 629 111.99V111.99ZM644.03 104.99C644.03 96.99 629 96.99 629 104.99H644.03ZM629.02 107H644.02V109H629.02V107Z" fill="#616161"/>
<path d="M908 148H860V154H908V148ZM911 178V172L908 157H860L857 172V178H860V196H890V178H902V196H908V178H911ZM884 190H866V178H884V190Z" fill="#616161"/>
<rect x="817.5" y="145.5" width="29" height="21" rx="1.5" stroke="white" stroke-width="3"/>
<circle cx="876" cy="116" r="24" fill="white"/>
<path d="M882.06 126.99H883.72C884.56 126.99 885.25 126.35 885.35 125.53L887 109.05H882V105H880.03V109.05H875.06L875.36 111.39C877.07 111.86 878.67 112.71 879.63 113.65C881.07 115.07 882.06 116.54 882.06 118.94V126.99V126.99ZM865 125.99V125H880.03V125.99C880.03 126.54 879.58 126.99 879.02 126.99H866.01C865.45 126.99 865 126.54 865 125.99V125.99ZM880.03 118.99C880.03 110.99 865 110.99 865 118.99H880.03ZM865.02 121H880.02V123H865.02V121Z" fill="#616161"/>
<path d="M852 140L864 136L856 128L852 140Z" fill="white"/>
<circle cx="911" cy="129" r="3" fill="white"/>
<path d="M908 98H914L913 122H909L908 98Z" fill="white"/>
<path d="M616 232C616 223.163 623.163 216 632 216H904C912.837 216 920 223.163 920 232V312C920 320.837 912.837 328 904 328H632C623.163 328 616 320.837 616 312V232Z" fill="#FAF9F9"/>
<path fill-rule="evenodd" clip-rule="evenodd" d="M871.093 272.413L871.089 272.409C868.716 270.025 864.709 266 857.18 266H841.94C825.44 265.94 812 252.5 812 236H800C800 254.96 812.66 271.04 830 276.26V288H866V284.3L869.7 288H886.646L871.34 272.66C871.26 272.58 871.178 272.497 871.093 272.413ZM898 299.38V299.7L898.16 299.54L898 299.38ZM848 260C854.627 260 860 254.627 860 248C860 241.373 854.627 236 848 236C841.373 236 836 241.373 836 248C836 254.627 841.373 260 848 260Z" fill="#616161"/>
<path d="M744 284H920V300H744V284Z" fill="#616161"/>
<path d="M782 252H778C778 246.48 773.52 242 768 242C762.48 242 758 246.48 758 252H754C751.8 252 750.02 253.8 750.02 256L750 280C750 282.2 751.8 284 754 284H782C784.2 284 786 282.2 786 280V256C786 253.8 784.2 252 782 252ZM768 246C771.32 246 774 248.68 774 252H762C762 248.68 764.68 246 768 246ZM768 266C762.48 266 758 261.52 758 256H762C762 259.32 764.68 262 768 262C771.32 262 774 259.32 774 256H778C778 261.52 773.52 266 768 266Z" fill="#FBC02D"/>
<path fill-rule="evenodd" clip-rule="evenodd" d="M709 245C709 251.6 703.6 257 697 257C690.4 257 685 251.6 685 245C685 238.4 690.4 233 697 233C703.6 233 709 238.4 709 245ZM664.752 328L674.8 277.4L664 281.6V302H652V273.8L683.2 260.6C684.1 260.6 684.85 260.45 685.6 260.3C686.35 260.15 687.1 260 688 260C692.2 260 695.8 262.4 698.2 266L704.2 275.6C709 284 718.6 290 730 290V302C716.8 302 704.8 296 697 287L693.4 305L706 317V328H694V326L681.4 314L678.25 328H664.752Z" fill="#616161"/>
<path d="M681.116 350.438C680.78 350.536 680.388 350.578 679.954 350.578H678.274V349.85C678.274 349.416 678.316 348.898 678.358 348.562H676.356C676.412 348.912 676.44 349.416 676.44 349.85V350.578H674.018C673.528 350.578 672.758 350.564 672.226 350.48V352.314C672.66 352.272 673.542 352.244 674.046 352.244H679.114C678.708 352.832 677.84 353.644 676.762 354.344C675.558 355.114 673.752 356.08 671.05 356.682L672.128 358.334C673.64 357.872 675.138 357.298 676.426 356.612V359.006C676.426 359.566 676.37 360.406 676.314 360.798H678.33C678.288 360.364 678.232 359.566 678.232 359.006C678.232 358.124 678.246 356.598 678.246 355.478C679.408 354.596 680.472 353.546 681.186 352.734C681.48 352.398 681.914 351.922 682.264 351.572L681.116 350.438ZM679.128 356.248C680.346 356.92 681.256 357.508 682.474 358.474L683.65 356.934C682.306 356.01 681.578 355.604 680.29 354.904L679.128 356.248ZM691.35 351.67L689.684 352.216C690.034 352.944 690.65 354.638 690.818 355.324L692.498 354.736C692.302 354.092 691.616 352.272 691.35 351.67ZM694.542 352.062C694.388 353.812 693.716 355.674 692.764 356.864C691.602 358.32 689.656 359.384 688.116 359.79L689.586 361.288C691.224 360.672 692.974 359.496 694.276 357.816C695.228 356.584 695.816 355.128 696.18 353.714C696.264 353.434 696.348 353.14 696.516 352.692L694.542 352.062ZM688.102 352.412L686.422 353.014C686.758 353.63 687.458 355.492 687.696 356.248L689.404 355.604C689.124 354.82 688.452 353.126 688.102 352.412ZM710.446 354.848C709.158 354.218 706.47 353.224 704.594 352.678V350.62C704.594 350.032 704.664 349.416 704.72 348.926H702.536C702.634 349.416 702.676 350.116 702.676 350.62V358.656C702.676 359.216 702.62 360.056 702.536 360.602H704.72C704.664 360.042 704.594 359.062 704.594 358.656V354.694C706.106 355.212 708.206 356.024 709.648 356.78L710.446 354.848ZM722.64 352.72L721.604 353.154C722.052 353.784 722.346 354.33 722.696 355.1L723.76 354.624C723.494 354.064 722.976 353.224 722.64 352.72ZM724.208 352.076L723.186 352.552C723.634 353.168 723.956 353.686 724.334 354.442L725.384 353.938C725.09 353.392 724.558 352.566 724.208 352.076ZM713.302 350.424L713.484 352.328C715.094 351.978 718.006 351.67 719.21 351.544C718.272 352.244 717.166 353.812 717.166 355.814C717.166 358.824 719.91 360.392 722.822 360.574L723.466 358.656C721.114 358.544 718.986 357.718 718.986 355.436C718.986 353.798 720.232 352.006 721.912 351.558C722.654 351.39 723.844 351.376 724.586 351.376L724.572 349.584C723.592 349.626 722.08 349.71 720.652 349.822C718.118 350.046 715.822 350.256 714.66 350.354C714.394 350.382 713.862 350.41 713.302 350.424ZM730.102 357.48C729.584 357.48 729.024 356.794 729.024 355.394C729.024 353.868 730.242 351.852 732.538 351.376C732.37 352.524 732.118 353.714 731.796 354.736C731.236 356.612 730.676 357.48 730.102 357.48ZM733.91 360.574C737.41 360.042 739.202 357.97 739.202 355.058C739.202 352.034 737.032 349.64 733.602 349.64C730.004 349.64 727.218 352.384 727.218 355.576C727.218 357.914 728.52 359.608 730.046 359.608C731.558 359.608 732.762 357.9 733.588 355.1C733.98 353.798 734.218 352.51 734.414 351.334C736.276 351.656 737.312 353.084 737.312 355.002C737.312 357.018 735.94 358.292 734.162 358.712C733.798 358.796 733.406 358.866 732.874 358.936L733.91 360.574ZM750.598 357.984H748.078V357.326H750.598V357.984ZM748.078 355.45H750.598V356.052H748.078V355.45ZM744.186 352.664V351.992H746.384V352.664H744.186ZM750.346 351.992V352.664H748.078V351.992H750.346ZM753.748 356.052H752.292V354.33H748.078V353.714H752.054V350.942H748.078V350.368H753.426V349.052H748.078V348.142H746.384V349.052H741.162V350.368H746.384V350.942H742.59V353.714H746.384V354.33H742.24V355.45H746.384V356.052H740.84V357.326H746.384V357.984H742.128V359.188H746.384V359.622C746.384 359.874 746.3 359.958 746.034 359.972C745.81 359.972 744.984 359.972 744.312 359.944C744.522 360.294 744.774 360.868 744.858 361.26C746.048 361.26 746.804 361.232 747.336 361.022C747.882 360.784 748.078 360.448 748.078 359.622V359.188H750.598V359.762H752.292V357.326H753.748V356.052ZM757.29 357.088V356.178H759.628V357.088H757.29ZM759.628 354.078V354.946H757.29V354.078H759.628ZM761.238 352.678H755.708V361.134H757.29V358.306H759.628V359.552C759.628 359.72 759.572 359.776 759.404 359.776C759.222 359.79 758.662 359.79 758.144 359.762C758.354 360.14 758.592 360.756 758.676 361.176C759.53 361.176 760.174 361.148 760.622 360.91C761.098 360.672 761.238 360.28 761.238 359.566V352.678ZM765.228 359.356C765.228 359.552 765.158 359.608 764.934 359.608C764.696 359.622 763.968 359.622 763.254 359.594C763.506 360.028 763.772 360.714 763.856 361.162C764.864 361.176 765.62 361.134 766.152 360.882C766.712 360.616 766.866 360.21 766.866 359.384V352.426H765.228V359.356ZM763.968 352.818H762.442V358.53H763.968V352.818ZM764.766 350.214C765.116 349.724 765.494 349.178 765.83 348.632L764.024 348.1C763.744 348.744 763.296 349.57 762.876 350.214H758.984L759.754 349.948C759.516 349.416 758.956 348.66 758.452 348.128L756.87 348.674C757.262 349.136 757.668 349.738 757.92 350.214H754.938V351.712H767.608V350.214H764.766ZM773.208 349.626C772.62 349.136 771.43 348.534 770.534 348.198L769.624 349.444C770.534 349.822 771.696 350.494 772.228 350.984L773.208 349.626ZM772.284 353.294C771.682 352.832 770.464 352.272 769.554 351.964L768.7 353.224C769.624 353.588 770.8 354.204 771.36 354.694L772.284 353.294ZM771.934 355.52C771.108 357.144 770.044 358.88 769.288 359.93L770.702 361.05C771.542 359.692 772.424 358.096 773.166 356.64L771.934 355.52ZM778.206 359.188V356.626H781.034V355.058H778.206V352.762H781.538V351.166H778.318L779.13 350.2C778.416 349.514 776.946 348.632 775.812 348.114L774.706 349.402C775.63 349.864 776.708 350.55 777.436 351.166H773.292V352.762H776.47V355.058H773.796V356.626H776.47V359.188H772.802V360.756H781.832V359.188H778.206ZM791.702 351.978C791.1 353.546 790.302 354.876 789.294 355.968C788.216 354.834 787.39 353.49 786.802 351.978H791.702ZM795.678 351.978V350.354H790.12V348.142H788.426V350.354H782.938V351.978H784.94C785.696 354.022 786.662 355.772 787.922 357.214C786.508 358.292 784.758 359.09 782.686 359.636C783.022 360.042 783.54 360.826 783.736 361.26C785.864 360.588 787.67 359.678 789.196 358.46C790.666 359.706 792.486 360.644 794.74 361.218C794.992 360.742 795.524 359.958 795.93 359.552C793.802 359.076 792.038 358.25 790.596 357.144C791.884 355.744 792.906 354.036 793.662 351.978H795.678ZM801.488 354.68C801.488 355.66 802.3 356.472 803.28 356.472C804.26 356.472 805.072 355.66 805.072 354.68C805.072 353.7 804.26 352.888 803.28 352.888C802.3 352.888 801.488 353.7 801.488 354.68ZM814.956 349.584C814.396 349.122 813.276 348.534 812.422 348.198L811.512 349.444C812.394 349.822 813.486 350.466 813.99 350.956L814.956 349.584ZM814.186 353.308C813.626 352.832 812.464 352.286 811.596 351.978L810.714 353.224C811.596 353.602 812.702 354.218 813.234 354.694L814.186 353.308ZM813.57 355.52C812.786 357.158 811.792 358.922 811.092 359.986L812.548 361.022C813.332 359.65 814.144 358.04 814.844 356.556L813.57 355.52ZM819.394 351.852H821.13V354.386H819.352C819.38 353.924 819.394 353.476 819.394 353.014V351.852ZM823.804 355.954V354.386H822.754V350.284H819.394V348.156H817.742V350.284H815.404V351.852H817.742V353C817.742 353.462 817.728 353.924 817.7 354.386H814.718V355.954H817.448C817.042 357.522 816.104 358.964 813.976 360.084C814.424 360.336 815.068 360.91 815.362 361.26C817.504 360.084 818.526 358.488 818.988 356.766C819.786 358.796 820.976 360.35 822.796 361.246C823.048 360.784 823.566 360.126 823.958 359.79C822.25 359.09 821.06 357.676 820.388 355.954H823.804ZM827.612 355.52C826.814 357.158 825.806 358.922 825.106 359.986L826.562 361.022C827.346 359.65 828.172 358.04 828.872 356.556L827.612 355.52ZM828.186 353.308C827.626 352.832 826.464 352.286 825.596 351.978L824.714 353.224C825.596 353.602 826.702 354.218 827.234 354.694L828.186 353.308ZM834.948 354.526V355.1H831.518V354.484H830.342C831.35 354.218 832.302 353.896 833.17 353.49C834.164 353.966 835.256 354.274 836.404 354.526H834.948ZM831.434 357.452C831.49 357.116 831.504 356.78 831.518 356.486H834.948V357.452H831.434ZM834.472 350.844C834.136 351.222 833.73 351.558 833.254 351.852C832.764 351.586 832.302 351.25 831.854 350.844H834.472ZM837.65 350.844V349.402H834.08V348.156H832.358V349.402H828.844V349.5C828.256 349.052 827.22 348.52 826.422 348.212L825.512 349.444C826.394 349.822 827.486 350.466 827.99 350.956L828.844 349.738V350.844H829.936C830.468 351.558 831.056 352.118 831.686 352.594C830.664 352.958 829.488 353.21 828.27 353.378C828.522 353.7 828.914 354.4 829.054 354.778C829.348 354.722 829.642 354.652 829.922 354.582V356.108C829.922 357.298 829.74 359.244 828.172 360.476C828.578 360.658 829.208 361.106 829.502 361.358C830.37 360.658 830.86 359.748 831.154 358.824H834.948V361.19H836.586V354.568L837.09 354.666C837.244 354.148 837.622 353.546 837.986 353.168C836.838 353.014 835.774 352.818 834.78 352.51C835.396 352.034 835.928 351.488 836.348 350.844H837.65ZM848.64 352.72L847.604 353.154C848.052 353.784 848.346 354.33 848.696 355.1L849.76 354.624C849.494 354.064 848.976 353.224 848.64 352.72ZM850.208 352.076L849.186 352.552C849.634 353.168 849.956 353.686 850.334 354.442L851.384 353.938C851.09 353.392 850.558 352.566 850.208 352.076ZM839.302 350.424L839.484 352.328C841.094 351.978 844.006 351.67 845.21 351.544C844.272 352.244 843.166 353.812 843.166 355.814C843.166 358.824 845.91 360.392 848.822 360.574L849.466 358.656C847.114 358.544 844.986 357.718 844.986 355.436C844.986 353.798 846.232 352.006 847.912 351.558C848.654 351.39 849.844 351.376 850.586 351.376L850.572 349.584C849.592 349.626 848.08 349.71 846.652 349.822C844.118 350.046 841.822 350.256 840.66 350.354C840.394 350.382 839.862 350.41 839.302 350.424ZM856.788 359.678C856.074 358.81 854.73 357.424 853.736 356.612L852.28 357.872C853.26 358.712 854.436 359.916 855.29 360.966L856.788 359.678ZM659.906 379.754C659.542 379.754 658.898 379.362 658.898 378.942C658.898 378.452 659.458 377.878 660.312 377.444C660.34 378.172 660.354 378.802 660.354 379.152C660.354 379.628 660.158 379.754 659.906 379.754ZM661.88 374.77C661.88 374.364 661.88 373.944 661.894 373.524C662.804 373.412 663.756 373.272 664.54 373.09L664.498 371.354C663.77 371.564 662.86 371.746 661.95 371.872C661.964 371.522 661.978 371.186 661.992 370.878C662.02 370.528 662.076 369.926 662.104 369.674H660.2C660.242 369.926 660.298 370.598 660.298 370.892C660.298 371.13 660.298 371.536 660.284 372.026C660.004 372.04 659.738 372.054 659.486 372.054C658.982 372.054 658.38 372.04 657.568 371.942L657.596 373.622C658.198 373.678 658.898 373.692 659.528 373.692C659.752 373.692 660.004 373.678 660.27 373.664V374.826C660.27 375.148 660.27 375.47 660.284 375.792C658.59 376.534 657.176 377.78 657.176 378.998C657.176 380.468 659.094 381.63 660.452 381.63C661.348 381.63 661.978 381.182 661.978 379.46C661.978 378.984 661.936 377.92 661.908 376.814C662.762 376.576 663.658 376.436 664.512 376.436C665.716 376.436 666.556 376.982 666.556 377.92C666.556 378.928 665.66 379.502 664.54 379.698C664.05 379.782 663.462 379.796 662.832 379.796L663.476 381.574C664.022 381.546 664.652 381.49 665.296 381.35C667.494 380.804 668.348 379.572 668.348 377.934C668.348 376.03 666.668 374.896 664.54 374.896C663.77 374.896 662.818 375.022 661.88 375.26V374.77ZM665.296 372.53C666.164 372.95 667.97 373.972 668.628 374.546L669.468 373.118C668.74 372.6 667.13 371.69 666.066 371.172L665.296 372.53ZM680.682 380.244H675.712V378.34H680.682V380.244ZM678.848 372.558H677.154V376.87H674.088V382.218H675.712V381.7H680.682V382.204H682.39V376.87H678.848V375.344H683.216V373.874H678.848V372.558ZM678.302 370.766V369.156H676.566V370.766H671.582V374.294C671.582 376.31 671.484 379.25 670.336 381.252C670.728 381.434 671.47 381.91 671.778 382.19C673.038 380.006 673.248 376.548 673.248 374.294V372.348H683.398V370.766H678.302ZM693.142 375.274C694.038 376.128 694.57 377.024 694.57 377.962C694.57 379.11 693.506 379.992 691.574 379.992C690.202 379.992 689.502 379.362 689.502 378.228C689.502 377.976 689.53 377.626 689.558 377.22C689.74 377.22 689.936 377.22 690.118 377.22C690.972 377.22 691.784 377.164 692.568 377.094L692.61 375.442C691.7 375.54 690.678 375.61 689.824 375.61H689.726C689.796 374.994 689.88 374.336 689.964 373.72C691.084 373.72 691.84 373.678 692.666 373.594L692.722 371.942C692.064 372.04 691.168 372.096 690.174 372.11C690.244 371.662 690.286 371.298 690.328 371.06C690.384 370.696 690.454 370.332 690.566 369.828L688.62 369.716C688.648 370.178 688.62 370.57 688.592 370.948C688.564 371.256 688.536 371.634 688.48 372.054C687.472 371.97 686.436 371.802 685.638 371.536L685.54 373.146C686.352 373.37 687.332 373.538 688.298 373.636C688.214 374.266 688.144 374.91 688.06 375.526C687.164 375.442 686.226 375.288 685.33 374.98L685.232 376.66C685.974 376.87 686.884 377.024 687.892 377.122C687.836 377.696 687.794 378.186 687.794 378.522C687.794 380.832 689.334 381.784 691.518 381.784C694.556 381.784 696.432 380.272 696.432 378.186C696.432 377.01 696.012 376.03 695.088 374.854L693.142 375.274ZM701.906 379.754C701.542 379.754 700.898 379.362 700.898 378.942C700.898 378.452 701.458 377.878 702.312 377.444C702.34 378.172 702.354 378.802 702.354 379.152C702.354 379.628 702.158 379.754 701.906 379.754ZM703.88 374.77C703.88 374.364 703.88 373.944 703.894 373.524C704.804 373.412 705.756 373.272 706.54 373.09L706.498 371.354C705.77 371.564 704.86 371.746 703.95 371.872C703.964 371.522 703.978 371.186 703.992 370.878C704.02 370.528 704.076 369.926 704.104 369.674H702.2C702.242 369.926 702.298 370.598 702.298 370.892C702.298 371.13 702.298 371.536 702.284 372.026C702.004 372.04 701.738 372.054 701.486 372.054C700.982 372.054 700.38 372.04 699.568 371.942L699.596 373.622C700.198 373.678 700.898 373.692 701.528 373.692C701.752 373.692 702.004 373.678 702.27 373.664V374.826C702.27 375.148 702.27 375.47 702.284 375.792C700.59 376.534 699.176 377.78 699.176 378.998C699.176 380.468 701.094 381.63 702.452 381.63C703.348 381.63 703.978 381.182 703.978 379.46C703.978 378.984 703.936 377.92 703.908 376.814C704.762 376.576 705.658 376.436 706.512 376.436C707.716 376.436 708.556 376.982 708.556 377.92C708.556 378.928 707.66 379.502 706.54 379.698C706.05 379.782 705.462 379.796 704.832 379.796L705.476 381.574C706.022 381.546 706.652 381.49 707.296 381.35C709.494 380.804 710.348 379.572 710.348 377.934C710.348 376.03 708.668 374.896 706.54 374.896C705.77 374.896 704.818 375.022 703.88 375.26V374.77ZM707.296 372.53C708.164 372.95 709.97 373.972 710.628 374.546L711.468 373.118C710.74 372.6 709.13 371.69 708.066 371.172L707.296 372.53ZM716.76 377.85C717.516 377.584 718.244 377.262 718.93 376.912C719.672 377.276 720.47 377.598 721.324 377.85H716.76ZM716.69 380.412V379.222H721.352V380.412H716.69ZM717.362 373.944H720.47C720.05 374.378 719.518 374.784 718.93 375.148C718.3 374.812 717.754 374.42 717.292 374L717.362 373.944ZM721.884 372.628L721.604 372.698H718.552C718.706 372.502 718.86 372.306 719 372.11L717.446 371.802H723.298V373.356H725.006V370.29H719.812V369.156H718.104V370.29H712.994V373.356H714.632V371.802H717.208C716.508 372.838 715.22 373.874 713.274 374.616C713.638 374.868 714.156 375.456 714.38 375.848C715.01 375.554 715.57 375.246 716.088 374.91C716.48 375.288 716.9 375.638 717.348 375.96C715.864 376.618 714.142 377.08 712.434 377.346C712.714 377.696 713.064 378.382 713.204 378.816C713.834 378.69 714.45 378.55 715.066 378.382V382.218H716.69V381.784H721.352V382.19H723.074V378.298C723.536 378.382 724.012 378.466 724.502 378.536C724.726 378.06 725.202 377.318 725.552 376.926C723.746 376.744 722.052 376.394 720.596 375.876C721.576 375.148 722.402 374.308 723.004 373.3L721.884 372.628ZM731.488 376.618C731.25 376.24 730.242 374.7 729.864 374.182V373.566H731.264V372.026H729.864V369.142H728.352V372.026H726.672V373.566H728.226C727.876 375.218 727.134 377.164 726.35 378.256C726.588 378.634 726.924 379.264 727.078 379.726C727.554 379.026 727.988 378.046 728.352 376.968V382.204H729.864V376.17C730.172 376.772 730.466 377.402 730.634 377.808L731.488 376.618ZM734.022 378.354C732.832 378.97 731.6 379.6 730.774 379.978L731.488 381.378C732.384 380.888 733.476 380.272 734.456 379.698L734.022 378.354ZM731.572 376.828C732.076 377.374 732.65 378.13 732.902 378.62L734.092 377.78C733.812 377.304 733.224 376.59 732.706 376.086L731.572 376.828ZM738.138 376.044C737.816 376.506 737.27 377.094 736.78 377.556C736.556 377.164 736.36 376.758 736.206 376.324V375.778H739.468V374.42H736.206V373.804H738.922V372.558H736.206V371.998H739.216V370.696H737.858C738.082 370.346 738.334 369.926 738.586 369.506L736.934 369.128C736.794 369.576 736.514 370.22 736.304 370.696H734.568C734.428 370.276 734.092 369.632 733.77 369.156L732.454 369.604C732.65 369.94 732.86 370.332 733 370.696H731.572V371.998H734.596V372.558H731.95V373.804H734.596V374.42H731.306V375.778H734.596V380.552C734.596 380.72 734.54 380.79 734.372 380.79C734.204 380.79 733.658 380.79 733.182 380.762C733.392 381.168 733.574 381.812 733.63 382.246C734.498 382.246 735.156 382.204 735.618 381.966C736.066 381.714 736.206 381.322 736.206 380.566V379.11C736.836 380.16 737.662 381.014 738.684 381.574C738.922 381.154 739.384 380.538 739.734 380.23C738.88 379.88 738.138 379.334 737.55 378.648C738.096 378.2 738.81 377.528 739.398 376.926L738.138 376.044ZM749.142 375.274C750.038 376.128 750.57 377.024 750.57 377.962C750.57 379.11 749.506 379.992 747.574 379.992C746.202 379.992 745.502 379.362 745.502 378.228C745.502 377.976 745.53 377.626 745.558 377.22C745.74 377.22 745.936 377.22 746.118 377.22C746.972 377.22 747.784 377.164 748.568 377.094L748.61 375.442C747.7 375.54 746.678 375.61 745.824 375.61H745.726C745.796 374.994 745.88 374.336 745.964 373.72C747.084 373.72 747.84 373.678 748.666 373.594L748.722 371.942C748.064 372.04 747.168 372.096 746.174 372.11C746.244 371.662 746.286 371.298 746.328 371.06C746.384 370.696 746.454 370.332 746.566 369.828L744.62 369.716C744.648 370.178 744.62 370.57 744.592 370.948C744.564 371.256 744.536 371.634 744.48 372.054C743.472 371.97 742.436 371.802 741.638 371.536L741.54 373.146C742.352 373.37 743.332 373.538 744.298 373.636C744.214 374.266 744.144 374.91 744.06 375.526C743.164 375.442 742.226 375.288 741.33 374.98L741.232 376.66C741.974 376.87 742.884 377.024 743.892 377.122C743.836 377.696 743.794 378.186 743.794 378.522C743.794 380.832 745.334 381.784 747.518 381.784C750.556 381.784 752.432 380.272 752.432 378.186C752.432 377.01 752.012 376.03 751.088 374.854L749.142 375.274ZM767.412 376.31H761.882V374.672H766.586V373.076H761.882V371.242C763.422 371.06 764.892 370.822 766.138 370.5L764.934 369.114C762.638 369.716 758.802 370.094 755.428 370.234C755.596 370.598 755.806 371.27 755.848 371.704C757.22 371.648 758.69 371.564 760.146 371.438V373.076H755.568V374.672H760.146V376.31H754.616V377.934H760.146V380.188C760.146 380.468 760.02 380.566 759.698 380.58C759.39 380.58 758.214 380.58 757.178 380.538C757.444 380.986 757.766 381.714 757.864 382.19C759.292 382.204 760.3 382.162 760.972 381.91C761.63 381.644 761.882 381.21 761.882 380.216V377.934H767.412V376.31ZM772.942 370.878V371.62H770.786V370.878H772.942ZM770.786 373.538V372.74H772.942V373.538H770.786ZM774.496 374.728V369.674H769.134V382.218H770.786V374.728H774.496ZM777.044 373.566V372.74H779.27V373.566H777.044ZM779.27 370.878V371.62H777.044V370.878H779.27ZM773.81 379.698V378.83H776.12V379.698H773.81ZM776.12 376.8V377.64H773.81V376.8H776.12ZM780.95 369.674H775.462V374.756H779.27V380.23C779.27 380.454 779.186 380.538 778.934 380.538C778.752 380.552 778.234 380.552 777.688 380.538V375.568H772.298V381.63H773.81V380.916H777.282C777.45 381.35 777.604 381.868 777.646 382.218C778.85 382.218 779.662 382.176 780.208 381.896C780.768 381.63 780.95 381.14 780.95 380.244V369.674ZM795.216 373.356C794.516 372.852 792.794 371.914 791.8 371.48L790.904 372.852C791.856 373.272 793.438 374.182 794.236 374.826L795.216 373.356ZM789.994 371.228C789.448 371.396 788.804 371.55 788.132 371.662C788.328 370.92 788.496 370.22 788.608 369.772L786.69 369.576C786.662 370.29 786.508 371.13 786.312 371.9C785.892 371.928 785.472 371.942 785.066 371.942C784.562 371.942 783.82 371.914 783.218 371.844L783.344 373.468C783.946 373.496 784.506 373.51 785.08 373.51C785.318 373.51 785.556 373.51 785.794 373.496C785.178 374.994 784.086 377.038 782.966 378.396L784.66 379.25C785.78 377.668 786.97 375.26 787.628 373.314C788.552 373.188 789.406 373.006 790.036 372.838L789.994 371.228ZM790.33 378.942C790.33 379.684 790.022 380.23 789.084 380.23C788.328 380.23 787.894 379.88 787.894 379.362C787.894 378.872 788.412 378.536 789.21 378.536C789.602 378.536 789.966 378.592 790.33 378.676V378.942ZM790.106 374.084C790.148 374.924 790.218 376.142 790.26 377.178C789.966 377.15 789.644 377.122 789.322 377.122C787.39 377.122 786.256 378.172 786.256 379.53C786.256 381.056 787.614 381.826 789.336 381.826C791.31 381.826 792.01 380.818 792.01 379.53V379.404C792.766 379.866 793.396 380.426 793.886 380.874L794.81 379.39C794.11 378.76 793.13 378.06 791.94 377.612C791.898 376.926 791.87 376.254 791.856 375.862C791.842 375.246 791.814 374.672 791.856 374.084H790.106ZM804.624 369.506C804.4 369.828 803.952 370.29 803.56 370.668C802.622 371.592 800.718 373.132 799.64 374.014C798.254 375.162 798.142 375.932 799.514 377.094C800.788 378.172 802.902 379.978 803.658 380.776C804.05 381.196 804.484 381.63 804.876 382.064L806.486 380.58C805.114 379.25 802.44 377.136 801.404 376.254C800.648 375.61 800.634 375.456 801.376 374.826C802.3 374.028 804.134 372.614 805.03 371.886C805.352 371.634 805.814 371.27 806.248 370.948L804.624 369.506ZM812.87 376.38C812.394 377.612 811.568 379.124 810.7 380.272L812.66 381.098C813.388 380.048 814.214 378.452 814.718 377.094C815.208 375.792 815.712 373.874 815.908 372.88C815.964 372.572 816.132 371.886 816.244 371.494L814.2 371.06C814.032 372.852 813.5 374.826 812.87 376.38ZM819.786 376.086C820.346 377.598 820.85 379.376 821.242 381.028L823.314 380.356C822.922 378.97 822.18 376.744 821.69 375.47C821.158 374.126 820.192 371.97 819.618 370.878L817.756 371.48C818.344 372.558 819.254 374.616 819.786 376.086ZM831.07 372.67L829.404 373.216C829.754 373.944 830.37 375.638 830.538 376.324L832.218 375.736C832.022 375.092 831.336 373.272 831.07 372.67ZM834.262 373.062C834.108 374.812 833.436 376.674 832.484 377.864C831.322 379.32 829.376 380.384 827.836 380.79L829.306 382.288C830.944 381.672 832.694 380.496 833.996 378.816C834.948 377.584 835.536 376.128 835.9 374.714C835.984 374.434 836.068 374.14 836.236 373.692L834.262 373.062ZM827.822 373.412L826.142 374.014C826.478 374.63 827.178 376.492 827.416 377.248L829.124 376.604C828.844 375.82 828.172 374.126 827.822 373.412ZM849.634 371.872C849.2 371.872 848.836 371.508 848.836 371.06C848.836 370.612 849.2 370.248 849.634 370.248C850.082 370.248 850.446 370.612 850.446 371.06C850.446 371.508 850.082 371.872 849.634 371.872ZM842.186 371.718C842.186 371.326 842.228 370.696 842.298 370.262H840.226C840.296 370.696 840.338 371.41 840.338 371.718V379.348C840.338 380.552 841.038 381.224 842.256 381.434C842.858 381.532 843.698 381.602 844.608 381.602C846.148 381.602 848.276 381.504 849.592 381.308V379.264C848.444 379.572 846.176 379.754 844.72 379.754C844.09 379.754 843.516 379.726 843.096 379.67C842.466 379.544 842.186 379.39 842.186 378.788V376.198C844.006 375.75 846.26 375.05 847.674 374.49C848.136 374.322 848.766 374.056 849.312 373.832L848.738 372.474C848.99 372.642 849.298 372.74 849.634 372.74C850.558 372.74 851.314 371.984 851.314 371.06C851.314 370.136 850.558 369.38 849.634 369.38C848.71 369.38 847.968 370.136 847.968 371.06C847.968 371.48 848.122 371.872 848.374 372.166C847.898 372.446 847.478 372.642 847.03 372.81C845.784 373.342 843.838 373.958 842.186 374.364V371.718ZM853.288 376.716C853.806 376.674 854.744 376.646 855.542 376.646H863.06C863.648 376.646 864.362 376.702 864.698 376.716V374.518C864.334 374.546 863.704 374.602 863.06 374.602H855.542C854.814 374.602 853.792 374.56 853.288 374.518V376.716ZM872.286 377.402H873.728L874.218 372.614L874.288 370.528H871.726L871.782 372.614L872.286 377.402ZM873 381.126C873.826 381.126 874.456 380.566 874.456 379.754C874.456 378.956 873.826 378.368 873 378.368C872.174 378.368 871.544 378.956 871.544 379.754C871.544 380.566 872.174 381.126 873 381.126Z" fill="#616161"/>
<path d="M1067.98 90.68L1066.25 90.92C1066.34 90.224 1066.39 89.576 1066.39 88.976V77.792H1063.58V80.864H1057.7V83.528H1063.58V86.384H1057.97V88.976H1063.58V89C1063.58 89.648 1063.51 90.464 1063.32 91.304C1060.8 91.64 1058.45 91.928 1056.72 92.096L1057.25 94.928C1058.69 94.712 1060.39 94.448 1062.19 94.16C1061.26 95.744 1059.72 97.232 1057.32 98.24C1058.02 98.816 1058.93 99.704 1059.41 100.376C1062.86 98.696 1064.69 96.104 1065.58 93.608L1068.07 93.2L1067.98 90.68ZM1079.14 91.928H1072.22V88.976H1078.18V86.384H1072.22V83.528H1078.7V80.864H1072.22V77.792H1069.37V100.088H1072.22V94.568H1079.14V91.928ZM1097.76 96.872H1086.5V94.784H1097.76V96.872ZM1088.45 87.104H1095.58V88.784H1088.45V87.104ZM1098.34 90.872V84.992H1085.81V90.872H1090.18C1090.08 91.352 1089.94 91.856 1089.82 92.336H1083.79V100.136H1086.5V99.344H1097.76V100.136H1100.59V92.336H1092.65C1092.86 91.88 1093.08 91.4 1093.27 90.872H1098.34ZM1098.96 81.392C1099.63 80.6 1100.35 79.64 1101.05 78.728L1097.98 77.768C1097.52 78.896 1096.61 80.36 1095.84 81.392H1091.9L1093.58 80.768C1093.25 79.904 1092.46 78.536 1091.76 77.6L1089.26 78.44C1089.84 79.352 1090.49 80.528 1090.82 81.392H1087.13L1087.9 81.056C1087.49 80.168 1086.55 78.896 1085.76 77.984L1083.29 79.04C1083.84 79.76 1084.44 80.624 1084.87 81.392H1081.97V86.504H1084.56V83.816H1099.56V86.504H1102.32V81.392H1098.96ZM1112.45 87.392H1116.58V84.776H1112.45V81.2C1113.91 80.84 1115.3 80.432 1116.5 79.952L1114.49 77.744C1112.16 78.8 1108.3 79.712 1104.84 80.216C1105.18 80.816 1105.54 81.824 1105.66 82.448C1106.95 82.28 1108.32 82.064 1109.69 81.8V84.776H1105.13V87.392H1109.14C1108.06 89.888 1106.3 92.624 1104.58 94.304C1105.03 95.024 1105.73 96.248 1106.02 97.088C1107.34 95.696 1108.61 93.632 1109.69 91.448V100.04H1112.45V91.76C1113.41 92.744 1114.42 93.824 1114.99 94.568L1116.65 92.12C1116 91.616 1113.62 89.576 1112.45 88.688V87.392ZM1120.49 80.576H1117.7V93.992H1120.49V80.576ZM1123.37 78.128V96.584C1123.37 97.016 1123.18 97.16 1122.72 97.184C1122.22 97.184 1120.68 97.184 1119.12 97.112C1119.55 97.928 1119.98 99.248 1120.1 100.064C1122.29 100.088 1123.9 99.992 1124.88 99.512C1125.86 99.056 1126.2 98.264 1126.2 96.608V78.128H1123.37ZM1134.67 88.448C1135.73 89.648 1136.78 91.352 1137.17 92.456L1139.3 91.28C1138.85 90.128 1137.72 88.544 1136.64 87.368L1134.67 88.448ZM1146.55 84.416H1143.89V82.04H1141.25V84.416H1133.54V86.84H1141.25V92.984C1141.25 93.296 1141.15 93.392 1140.82 93.392C1140.46 93.416 1139.28 93.416 1138.25 93.368C1138.56 94.064 1138.87 95.072 1138.97 95.768C1140.74 95.768 1141.92 95.744 1142.78 95.36C1143.62 94.976 1143.89 94.328 1143.89 93.032V86.84H1146.55V84.416ZM1132.63 96.344V81.44H1147.3V96.344H1132.63ZM1129.8 78.704V100.04H1132.63V99.104H1147.3V100.04H1150.27V78.704H1129.8ZM1157.35 77.768C1156.27 81.152 1154.4 84.56 1152.38 86.744C1152.91 87.464 1153.7 89.024 1153.97 89.72C1154.45 89.144 1154.95 88.496 1155.43 87.848V100.04H1158.14V83.216C1158.89 81.68 1159.54 80.12 1160.06 78.584L1157.35 77.768ZM1168.37 93.512V87.248C1169.18 89.504 1170.19 91.664 1171.32 93.512H1168.37ZM1162.66 93.512C1163.78 91.736 1164.79 89.624 1165.58 87.416V93.512H1162.66ZM1174.99 84.656V81.944H1168.37V77.792H1165.58V81.944H1159.51V84.656H1164.24C1162.92 88.448 1160.69 92.24 1158.26 94.4C1158.91 94.88 1159.82 95.888 1160.3 96.56C1161.07 95.792 1161.77 94.856 1162.44 93.848V96.056H1165.58V99.92H1168.37V96.056H1171.58V93.944C1172.21 94.88 1172.83 95.744 1173.5 96.488C1174.01 95.744 1174.99 94.784 1175.64 94.28C1173.31 92.096 1171.1 88.352 1169.78 84.656H1174.99ZM1199.52 80.48C1199.11 79.64 1198.22 78.128 1197.58 77.216L1195.68 78.008C1196.35 78.896 1197.12 80.312 1197.62 81.32L1199.52 80.48ZM1183.39 78.92C1183.42 80.408 1183.22 82.136 1182.89 83.96C1181.69 84.056 1180.56 84.128 1179.82 84.152C1178.95 84.176 1178.16 84.224 1177.3 84.152L1177.56 87.368C1178.3 87.248 1179.53 87.08 1180.2 87.008C1180.66 86.936 1181.4 86.84 1182.24 86.744C1181.4 89.984 1179.77 94.736 1177.46 97.856L1180.56 99.104C1182.74 95.6 1184.47 90.008 1185.41 86.408C1186.08 86.36 1186.66 86.312 1187.04 86.312C1188.53 86.312 1189.34 86.576 1189.34 88.472C1189.34 90.824 1189.03 93.656 1188.38 94.976C1188 95.768 1187.4 96.008 1186.61 96.008C1185.98 96.008 1184.59 95.768 1183.68 95.504L1184.21 98.648C1185 98.84 1186.15 98.984 1187.04 98.984C1188.86 98.984 1190.16 98.456 1190.95 96.8C1191.96 94.736 1192.3 90.944 1192.3 88.136C1192.3 84.728 1190.52 83.6 1188 83.6C1187.52 83.6 1186.8 83.648 1186.01 83.696C1186.18 82.832 1186.37 81.968 1186.51 81.248C1186.63 80.648 1186.78 79.904 1186.92 79.28L1183.39 78.92ZM1196.66 81.584C1196.18 80.696 1195.34 79.184 1194.74 78.296L1192.85 79.088C1193.4 79.856 1194 81.008 1194.48 81.92L1192.27 82.856C1193.98 84.968 1195.66 89.168 1196.28 91.808L1199.3 90.392C1198.61 88.304 1196.83 84.296 1195.44 82.112L1196.66 81.584ZM1210.03 80.432H1219.97V81.704H1222.61V78.416H1207.54V81.704H1210.03V80.432ZM1211.09 90.224V89.288H1213.54V90.224H1211.09ZM1211.09 86.696H1213.54V87.632H1211.09V86.696ZM1218.86 86.696V87.632H1216.32V86.696H1218.86ZM1218.86 90.224H1216.32V89.288H1218.86V90.224ZM1213.54 96.488H1216.32V94.904H1222.85V92.84H1216.32V91.952H1221.41V84.92H1216.32V84.08H1221.82V82.112H1216.32V80.864H1213.54V82.112H1208.21V84.08H1213.54V84.92H1208.66V91.952H1213.54V92.84H1207.32V94.904H1213.54V96.488ZM1207.03 82.088C1206.26 80.936 1204.61 79.352 1203.26 78.272L1201.08 79.904C1202.42 81.056 1204.01 82.712 1204.68 83.888L1207.03 82.088ZM1206.38 86.984H1200.98V89.6H1203.67V94.832C1202.71 95.648 1201.63 96.44 1200.7 97.04L1202.04 99.872C1203.26 98.84 1204.25 97.928 1205.21 96.992C1206.65 98.84 1208.57 99.536 1211.42 99.656C1214.35 99.776 1219.44 99.728 1222.42 99.584C1222.56 98.792 1222.97 97.472 1223.3 96.8C1219.99 97.064 1214.33 97.136 1211.45 97.016C1209 96.92 1207.32 96.248 1206.38 94.64V86.984ZM1241.76 96.872H1230.5V94.784H1241.76V96.872ZM1232.45 87.104H1239.58V88.784H1232.45V87.104ZM1242.34 90.872V84.992H1229.81V90.872H1234.18C1234.08 91.352 1233.94 91.856 1233.82 92.336H1227.79V100.136H1230.5V99.344H1241.76V100.136H1244.59V92.336H1236.65C1236.86 91.88 1237.08 91.4 1237.27 90.872H1242.34ZM1242.96 81.392C1243.63 80.6 1244.35 79.64 1245.05 78.728L1241.98 77.768C1241.52 78.896 1240.61 80.36 1239.84 81.392H1235.9L1237.58 80.768C1237.25 79.904 1236.46 78.536 1235.76 77.6L1233.26 78.44C1233.84 79.352 1234.49 80.528 1234.82 81.392H1231.13L1231.9 81.056C1231.49 80.168 1230.55 78.896 1229.76 77.984L1227.29 79.04C1227.84 79.76 1228.44 80.624 1228.87 81.392H1225.97V86.504H1228.56V83.816H1243.56V86.504H1246.32V81.392H1242.96Z" fill="white"/>
<path d="M1146.96 182.04V179.94C1146.96 179.14 1147.04 178.48 1147.08 178.08H1144.24C1144.3 178.48 1144.36 179.14 1144.36 179.94V182.04H1139.62V180.08C1139.62 179.28 1139.68 178.64 1139.74 178.26H1136.9C1136.94 178.64 1137.02 179.3 1137.02 180.06V182.04H1135.32C1134.32 182.04 1133.52 181.92 1133.16 181.86V184.58C1133.6 184.54 1134.32 184.5 1135.32 184.5H1137.02V187.22C1137.02 188.12 1136.96 188.92 1136.9 189.32H1139.7C1139.68 188.92 1139.62 188.1 1139.62 187.22V184.5H1144.36V185.26C1144.36 190.16 1142.66 191.9 1138.8 193.24L1140.94 195.26C1145.76 193.14 1146.96 190.12 1146.96 185.16V184.5H1148.44C1149.5 184.5 1150.2 184.52 1150.64 184.56V181.9C1150.1 182 1149.5 182.04 1148.44 182.04H1146.96ZM1153.84 187.88C1154.58 187.82 1155.92 187.78 1157.06 187.78H1167.8C1168.64 187.78 1169.66 187.86 1170.14 187.88V184.74C1169.62 184.78 1168.72 184.86 1167.8 184.86H1157.06C1156.02 184.86 1154.56 184.8 1153.84 184.74V187.88ZM1188.36 180.54C1187.98 179.8 1187.26 178.54 1186.76 177.8L1185.18 178.46C1185.72 179.22 1186.34 180.4 1186.74 181.22L1188.36 180.54ZM1177.98 187.14C1180.58 186.5 1183.8 185.5 1185.82 184.7C1186.48 184.46 1187.38 184.08 1188.16 183.76L1187.08 181.22C1186.3 181.7 1185.62 182.02 1184.9 182.3C1183.12 183.06 1180.34 183.94 1177.98 184.52V180.74C1177.98 180.18 1178.04 179.28 1178.14 178.66H1175.18C1175.28 179.28 1175.34 180.3 1175.34 180.74V191.64C1175.34 193.36 1176.34 194.32 1178.08 194.62C1178.94 194.76 1180.14 194.86 1181.44 194.86C1183.64 194.86 1186.68 194.72 1188.56 194.44V191.52C1186.92 191.96 1183.68 192.22 1181.6 192.22C1180.7 192.22 1179.88 192.18 1179.28 192.1C1178.38 191.92 1177.98 191.7 1177.98 190.84V187.14ZM1187.54 177.54C1188.1 178.3 1188.74 179.46 1189.16 180.3L1190.74 179.62C1190.38 178.92 1189.66 177.64 1189.12 176.9L1187.54 177.54ZM1207.04 179.22C1206.64 179.36 1205.84 179.48 1204.96 179.48H1197.92C1197.32 179.48 1196.1 179.42 1195.56 179.34V182.18C1195.98 182.16 1197.08 182.04 1197.92 182.04H1204.7C1204.26 183.46 1203.04 185.44 1201.72 186.94C1199.84 189.04 1196.74 191.46 1193.52 192.68L1195.58 194.84C1198.32 193.54 1200.98 191.46 1203.1 189.22C1204.98 191.04 1206.84 193.08 1208.14 194.88L1210.42 192.9C1209.24 191.46 1206.82 188.9 1204.84 187.18C1206.18 185.38 1207.3 183.24 1207.98 181.68C1208.16 181.28 1208.52 180.66 1208.68 180.44L1207.04 179.22ZM1219.04 185.16H1222.48V182.98H1219.04V180C1220.26 179.7 1221.42 179.36 1222.42 178.96L1220.74 177.12C1218.8 178 1215.58 178.76 1212.7 179.18C1212.98 179.68 1213.28 180.52 1213.38 181.04C1214.46 180.9 1215.6 180.72 1216.74 180.5V182.98H1212.94V185.16H1216.28C1215.38 187.24 1213.92 189.52 1212.48 190.92C1212.86 191.52 1213.44 192.54 1213.68 193.24C1214.78 192.08 1215.84 190.36 1216.74 188.54V195.7H1219.04V188.8C1219.84 189.62 1220.68 190.52 1221.16 191.14L1222.54 189.1C1222 188.68 1220.02 186.98 1219.04 186.24V185.16ZM1225.74 179.48H1223.42V190.66H1225.74V179.48ZM1228.14 177.44V192.82C1228.14 193.18 1227.98 193.3 1227.6 193.32C1227.18 193.32 1225.9 193.32 1224.6 193.26C1224.96 193.94 1225.32 195.04 1225.42 195.72C1227.24 195.74 1228.58 195.66 1229.4 195.26C1230.22 194.88 1230.5 194.22 1230.5 192.84V177.44H1228.14ZM1243.4 187.66V185.2H1247.62V187.66H1243.4ZM1237.18 187.66C1237.22 186.92 1237.24 186.2 1237.24 185.56V185.2H1241V187.66H1237.18ZM1241 180.66V182.98H1237.24V180.66H1241ZM1247.62 182.98H1243.4V180.66H1247.62V182.98ZM1249.98 178.4H1234.88V185.54C1234.88 188.34 1234.7 191.9 1232.52 194.3C1233.06 194.58 1234.02 195.4 1234.4 195.84C1235.84 194.28 1236.56 192.08 1236.92 189.9H1241V195.48H1243.4V189.9H1247.62V192.9C1247.62 193.26 1247.48 193.38 1247.1 193.38C1246.74 193.38 1245.42 193.4 1244.3 193.34C1244.6 193.96 1244.98 194.98 1245.06 195.62C1246.86 195.64 1248.08 195.6 1248.9 195.2C1249.7 194.84 1249.98 194.2 1249.98 192.92V178.4ZM1266.38 180.56C1265.74 179.82 1264.32 178.8 1263.2 178.14L1262.06 179.74C1263.16 180.48 1264.54 181.56 1265.16 182.34L1266.38 180.56ZM1261.14 184.78C1262.3 185.46 1263.76 186.54 1264.42 187.26L1265.62 185.36C1264.9 184.66 1263.42 183.68 1262.26 183.06L1261.14 184.78ZM1259.34 178.16C1259.12 179.56 1258.66 181.58 1258.24 182.84L1259.74 183.26C1260.24 182.1 1260.82 180.2 1261.34 178.6L1259.34 178.16ZM1255.46 182.84C1255.36 181.6 1254.96 179.7 1254.44 178.26L1252.78 178.7C1253.24 180.14 1253.64 182.08 1253.68 183.3L1255.46 182.84ZM1260.92 189.42C1260.5 188.86 1258.6 186.62 1258.02 186.04V185.9H1260.98V183.68H1258.02V177.14H1255.82V183.68H1252.8V185.9H1255.08C1254.46 187.72 1253.44 189.86 1252.44 191.08C1252.8 191.74 1253.32 192.82 1253.52 193.54C1254.38 192.34 1255.18 190.48 1255.82 188.62V195.68H1258.02V188.66C1258.6 189.58 1259.16 190.62 1259.46 191.26L1260.92 189.42ZM1271.5 189.88L1271.14 187.66L1269.1 188.04V177.04H1266.86V188.44L1260.92 189.5L1261.28 191.72L1266.86 190.72V195.72H1269.1V190.32L1271.5 189.88Z" fill="#616161"/>
<path d="M1137.88 219.54H1135.74V217.72H1137.88V219.54ZM1137.88 223.16H1135.74V221.3H1137.88V223.16ZM1137.88 226.78H1135.74V224.92H1137.88V226.78ZM1140.08 215.84H1133.62V228.68H1140.08V215.84ZM1134.6 228.84C1134.18 230.22 1133.38 231.62 1132.44 232.54C1132.96 232.84 1133.86 233.44 1134.3 233.82C1135.28 232.74 1136.22 231.02 1136.78 229.34L1134.6 228.84ZM1142.52 231.68C1143.3 229.56 1143.54 227.08 1143.6 224.9C1144.1 226.54 1144.72 228.04 1145.5 229.36C1144.66 230.36 1143.66 231.14 1142.52 231.68ZM1148.22 223.12C1147.92 224.72 1147.44 226.14 1146.82 227.36C1146.1 226.1 1145.56 224.66 1145.16 223.12H1148.22ZM1149.28 221.02L1148.9 221.06H1143.62V218.24H1150.8V216.1H1141.44V223.6C1141.44 225.92 1141.34 228.8 1140.34 231.12C1139.98 230.42 1139.4 229.48 1138.86 228.78L1137.02 229.56C1137.6 230.42 1138.26 231.58 1138.52 232.32L1140.14 231.54C1139.96 231.9 1139.76 232.24 1139.52 232.58C1140.06 232.82 1141.02 233.44 1141.42 233.8C1141.84 233.22 1142.18 232.54 1142.46 231.84C1142.94 232.32 1143.46 233.14 1143.74 233.7C1144.94 233.06 1146 232.26 1146.9 231.28C1147.78 232.28 1148.82 233.14 1150.04 233.78C1150.36 233.18 1151.06 232.32 1151.58 231.88C1150.3 231.3 1149.2 230.46 1148.28 229.42C1149.5 227.36 1150.3 224.7 1150.68 221.32L1149.28 221.02ZM1160.68 220.12H1155.1V222.2H1168.98V220.12H1163.14V218.82H1170.82V216.66H1163.14V215.08H1160.68V216.66H1153.2V218.82H1160.68V220.12ZM1170.56 227.44V223.18H1153.46V227.44H1155.76V225.32H1168.16V227.44H1170.56ZM1158.14 225.94C1157.9 229.02 1157.4 230.82 1152.66 231.74C1153.14 232.24 1153.74 233.18 1153.96 233.8C1159.42 232.5 1160.3 229.96 1160.62 225.94H1158.14ZM1166.28 231.36C1165.56 231.36 1165.44 231.28 1165.44 230.64V225.94H1163.04V230.68C1163.04 232.82 1163.62 233.5 1165.94 233.5H1168.52C1170.4 233.5 1171.02 232.76 1171.28 229.88C1170.64 229.72 1169.62 229.36 1169.14 228.98C1169.06 231.02 1168.94 231.36 1168.28 231.36H1166.28ZM1191.16 225.3H1183.26V222.96H1189.98V220.68H1183.26V218.06C1185.46 217.8 1187.56 217.46 1189.34 217L1187.62 215.02C1184.34 215.88 1178.86 216.42 1174.04 216.62C1174.28 217.14 1174.58 218.1 1174.64 218.72C1176.6 218.64 1178.7 218.52 1180.78 218.34V220.68H1174.24V222.96H1180.78V225.3H1172.88V227.62H1180.78V230.84C1180.78 231.24 1180.6 231.38 1180.14 231.4C1179.7 231.4 1178.02 231.4 1176.54 231.34C1176.92 231.98 1177.38 233.02 1177.52 233.7C1179.56 233.72 1181 233.66 1181.96 233.3C1182.9 232.92 1183.26 232.3 1183.26 230.88V227.62H1191.16V225.3ZM1202.72 227.36V225.44C1202.84 225.56 1202.92 225.66 1203 225.74C1203.32 225.3 1203.64 224.82 1203.92 224.3C1204.28 225.74 1204.72 227.06 1205.28 228.24C1204.4 229.48 1203.24 230.48 1201.76 231.26C1201.3 230.92 1200.72 230.56 1200.1 230.2C1200.6 229.42 1200.94 228.48 1201.16 227.36H1202.72ZM1196.98 227.36H1198.92C1198.74 228.08 1198.48 228.68 1198.16 229.18C1197.58 228.9 1197 228.66 1196.4 228.42L1196.98 227.36ZM1207.74 220.86C1207.52 222.62 1207.16 224.2 1206.66 225.56C1206.12 224.12 1205.72 222.54 1205.44 220.86H1207.74ZM1211.32 220.86V218.66H1206C1206.26 217.6 1206.48 216.5 1206.64 215.38L1204.24 215.06C1203.76 218.62 1202.8 222.02 1201.1 224.06C1201.54 224.36 1202.26 224.98 1202.72 225.44H1197.96L1198.44 224.48L1197.58 224.3H1198.86V221.88C1199.64 222.5 1200.48 223.2 1200.92 223.62L1202.18 221.98C1201.74 221.68 1200.32 220.84 1199.36 220.3H1202.64V218.42H1200.74C1201.22 217.8 1201.84 216.96 1202.46 216.1L1200.46 215.3C1200.14 216.06 1199.58 217.12 1199.12 217.84L1200.44 218.42H1198.86V215.06H1196.68V218.42H1195L1196.28 217.86C1196.12 217.16 1195.6 216.14 1195.08 215.38L1193.36 216.1C1193.78 216.82 1194.22 217.74 1194.4 218.42H1192.88V220.3H1196C1195.04 221.34 1193.7 222.3 1192.48 222.8C1192.92 223.22 1193.42 224 1193.68 224.52C1194.68 223.96 1195.76 223.12 1196.68 222.2V224.12L1196.24 224.02C1196.04 224.46 1195.8 224.94 1195.56 225.44H1192.66V227.36H1194.56C1194.06 228.32 1193.56 229.22 1193.12 229.92L1195.2 230.56L1195.42 230.18C1195.8 230.34 1196.18 230.52 1196.54 230.72C1195.6 231.24 1194.34 231.58 1192.74 231.78C1193.12 232.28 1193.54 233.08 1193.68 233.76C1195.82 233.32 1197.42 232.74 1198.6 231.86C1199.42 232.38 1200.14 232.9 1200.68 233.36L1201.58 232.44C1201.9 232.92 1202.2 233.46 1202.34 233.8C1204.08 232.92 1205.46 231.84 1206.56 230.52C1207.46 231.82 1208.56 232.88 1209.92 233.7C1210.28 233.04 1211.02 232.12 1211.56 231.64C1210.1 230.88 1208.94 229.74 1208.02 228.32C1209.1 226.3 1209.78 223.82 1210.2 220.86H1211.32ZM1226.38 218.56C1225.74 217.82 1224.32 216.8 1223.2 216.14L1222.06 217.74C1223.16 218.48 1224.54 219.56 1225.16 220.34L1226.38 218.56ZM1221.14 222.78C1222.3 223.46 1223.76 224.54 1224.42 225.26L1225.62 223.36C1224.9 222.66 1223.42 221.68 1222.26 221.06L1221.14 222.78ZM1219.34 216.16C1219.12 217.56 1218.66 219.58 1218.24 220.84L1219.74 221.26C1220.24 220.1 1220.82 218.2 1221.34 216.6L1219.34 216.16ZM1215.46 220.84C1215.36 219.6 1214.96 217.7 1214.44 216.26L1212.78 216.7C1213.24 218.14 1213.64 220.08 1213.68 221.3L1215.46 220.84ZM1220.92 227.42C1220.5 226.86 1218.6 224.62 1218.02 224.04V223.9H1220.98V221.68H1218.02V215.14H1215.82V221.68H1212.8V223.9H1215.08C1214.46 225.72 1213.44 227.86 1212.44 229.08C1212.8 229.74 1213.32 230.82 1213.52 231.54C1214.38 230.34 1215.18 228.48 1215.82 226.62V233.68H1218.02V226.66C1218.6 227.58 1219.16 228.62 1219.46 229.26L1220.92 227.42ZM1231.5 227.88L1231.14 225.66L1229.1 226.04V215.04H1226.86V226.44L1220.92 227.5L1221.28 229.72L1226.86 228.72V233.72H1229.1V228.32L1231.5 227.88Z" fill="#616161"/>
<path d="M1010.65 303.82L1011.53 302.82L1012.41 303.82L1013.04 303.36L1012.37 302.22L1013.57 301.69L1013.33 300.95L1012.05 301.24L1011.93 299.92H1011.14L1011.01 301.24L1009.73 300.95L1009.49 301.69L1010.68 302.22L1010.02 303.36L1010.65 303.82ZM1022.03 301.15C1021.8 301.22 1021.47 301.27 1021.16 301.27H1019.15L1019.18 301.22C1019.3 301 1019.55 300.55 1019.79 300.2L1018.33 299.72C1018.24 300.06 1018.03 300.52 1017.88 300.77C1017.38 301.63 1016.51 302.92 1014.76 303.99L1015.88 304.82C1016.86 304.15 1017.73 303.27 1018.4 302.4H1021.21C1021.05 303.15 1020.47 304.35 1019.79 305.13C1018.92 306.12 1017.81 306.99 1015.76 307.6L1016.94 308.66C1018.82 307.91 1020.03 307 1020.98 305.84C1021.88 304.72 1022.45 303.39 1022.72 302.5C1022.8 302.25 1022.94 301.97 1023.05 301.78L1022.03 301.15ZM1026.95 308.42C1027.19 308.27 1027.41 308.2 1027.55 308.15C1029.9 307.38 1031.98 306.19 1033.35 304.55L1032.64 303.42C1031.36 304.98 1029.13 306.26 1027.5 306.72V301.53C1027.5 301.14 1027.54 300.78 1027.6 300.4H1026.03C1026.09 300.68 1026.14 301.15 1026.14 301.53V306.95C1026.14 307.18 1026.13 307.35 1026.01 307.6L1026.95 308.42ZM1041.35 300.32L1040.52 300.67C1040.88 301.18 1041.11 301.61 1041.4 302.24L1042.27 301.87C1042.04 301.41 1041.64 300.74 1041.35 300.32ZM1042.73 299.84L1041.88 300.19C1042.25 300.69 1042.5 301.08 1042.82 301.71L1043.67 301.33C1043.43 300.89 1043.04 300.24 1042.73 299.84ZM1037.01 300.13L1036.29 301.23C1036.95 301.6 1037.99 302.27 1038.55 302.66L1039.29 301.56C1038.77 301.2 1037.67 300.49 1037.01 300.13ZM1035.16 307.23L1035.91 308.54C1036.79 308.38 1038.23 307.88 1039.25 307.31C1040.88 306.36 1042.3 305.1 1043.22 303.71L1042.45 302.35C1041.66 303.78 1040.26 305.15 1038.56 306.1C1037.48 306.7 1036.28 307.04 1035.16 307.23ZM1035.47 302.41L1034.75 303.51C1035.42 303.87 1036.46 304.54 1037.03 304.94L1037.76 303.82C1037.25 303.46 1036.15 302.77 1035.47 302.41ZM1049.11 302.05L1047.92 302.44C1048.17 302.96 1048.61 304.17 1048.73 304.66L1049.93 304.24C1049.79 303.78 1049.3 302.48 1049.11 302.05ZM1051.39 302.33C1051.28 303.58 1050.8 304.91 1050.12 305.76C1049.29 306.8 1047.9 307.56 1046.8 307.85L1047.85 308.92C1049.02 308.48 1050.27 307.64 1051.2 306.44C1051.88 305.56 1052.3 304.52 1052.56 303.51C1052.62 303.31 1052.68 303.1 1052.8 302.78L1051.39 302.33ZM1046.79 302.58L1045.59 303.01C1045.83 303.45 1046.33 304.78 1046.5 305.32L1047.72 304.86C1047.52 304.3 1047.04 303.09 1046.79 302.58ZM1062.75 304.32C1061.83 303.87 1059.91 303.16 1058.57 302.77V301.3C1058.57 300.88 1058.62 300.44 1058.66 300.09H1057.1C1057.17 300.44 1057.2 300.94 1057.2 301.3V307.04C1057.2 307.44 1057.16 308.04 1057.1 308.43H1058.66C1058.62 308.03 1058.57 307.33 1058.57 307.04V304.21C1059.65 304.58 1061.15 305.16 1062.18 305.7L1062.75 304.32ZM1071.92 301.7C1071.67 301.74 1071.41 301.77 1071.16 301.77H1069.28C1069.3 301.48 1069.31 301.18 1069.32 300.87C1069.33 300.63 1069.35 300.21 1069.38 299.98H1067.91C1067.95 300.22 1067.98 300.68 1067.98 300.9C1067.98 301.2 1067.97 301.49 1067.96 301.77H1066.53C1066.15 301.77 1065.63 301.74 1065.21 301.7V303.01C1065.64 302.97 1066.19 302.97 1066.53 302.97H1067.85C1067.63 304.49 1067.13 305.61 1066.2 306.53C1065.8 306.94 1065.31 307.28 1064.89 307.51L1066.05 308.45C1067.84 307.18 1068.79 305.61 1069.16 302.97H1071.41C1071.41 304.05 1071.28 306.05 1070.99 306.68C1070.88 306.92 1070.74 307.03 1070.42 307.03C1070.03 307.03 1069.51 306.98 1069.02 306.89L1069.17 308.23C1069.66 308.27 1070.26 308.31 1070.83 308.31C1071.52 308.31 1071.9 308.05 1072.12 307.54C1072.55 306.52 1072.67 303.73 1072.71 302.65C1072.71 302.54 1072.75 302.29 1072.78 302.12L1071.92 301.7ZM1074.98 304.94C1075.35 304.91 1076.02 304.89 1076.59 304.89H1081.96C1082.38 304.89 1082.89 304.93 1083.13 304.94V303.37C1082.87 303.39 1082.42 303.43 1081.96 303.43H1076.59C1076.07 303.43 1075.34 303.4 1074.98 303.37V304.94ZM1093.13 301.49C1092.9 301.04 1092.48 300.41 1092.19 300.01L1091.36 300.4C1091.73 300.9 1091.97 301.27 1092.29 301.9L1093.13 301.49ZM1091.79 302.07C1091.56 301.62 1091.16 300.98 1090.88 300.56L1090.04 300.92C1090.41 301.43 1090.63 301.83 1090.92 302.46L1091.79 302.07ZM1088.26 301.44C1088.26 301.02 1088.31 300.58 1088.35 300.23H1086.79C1086.86 300.59 1086.89 301.08 1086.89 301.44V307.19C1086.89 307.58 1086.85 308.19 1086.79 308.58H1088.36C1088.31 308.17 1088.26 307.47 1088.26 307.19V304.36C1089.34 304.72 1090.84 305.3 1091.88 305.85L1092.44 304.46C1091.52 304.01 1089.59 303.3 1088.26 302.9V301.44ZM1097.22 302.53C1097.98 301.94 1098.62 301.29 1099.05 300.68C1099.51 301.3 1100.2 301.95 1100.97 302.53H1097.22ZM1096.73 303.62H1101.4V302.83C1101.95 303.21 1102.53 303.54 1103.08 303.8C1103.29 303.45 1103.55 303.02 1103.85 302.71C1102.27 302.15 1100.68 301.01 1099.62 299.54H1098.38C1097.63 300.72 1096.05 302.14 1094.34 302.89C1094.59 303.15 1094.9 303.6 1095.04 303.89C1095.62 303.61 1096.2 303.27 1096.73 302.89V303.62ZM1094.96 305.55H1097.28C1097.07 306.14 1096.79 306.8 1096.52 307.36L1095.01 307.41L1095.17 308.57C1096.87 308.49 1099.34 308.39 1101.69 308.26C1101.85 308.48 1101.99 308.69 1102.09 308.88L1103.2 308.21C1102.73 307.46 1101.8 306.42 1100.91 305.64L1099.86 306.19C1100.19 306.49 1100.53 306.85 1100.84 307.21C1099.82 307.25 1098.79 307.29 1097.83 307.32C1098.13 306.76 1098.46 306.14 1098.75 305.55H1103.23V304.45H1094.96V305.55ZM1108.81 305.18C1108.6 304.98 1107.83 304.29 1107.35 303.9C1107.83 303.24 1108.23 302.52 1108.53 301.76L1107.86 301.33L1107.65 301.38H1107.2V299.54H1106.02V301.38H1104.6V302.45H1107.02C1106.36 303.61 1105.31 304.66 1104.22 305.25C1104.4 305.48 1104.68 306.06 1104.78 306.38C1105.2 306.12 1105.62 305.79 1106.02 305.42V308.87H1107.2V305.1C1107.54 305.47 1107.88 305.87 1108.09 306.15L1108.81 305.18ZM1111.69 307.42V303.76H1113.58V302.61H1111.69V299.62H1110.47V302.61H1108.57V303.76H1110.47V307.42H1108.16V308.58H1113.82V307.42H1111.69ZM1118.54 301.02L1118.55 302.3C1119.79 302.41 1121.58 302.41 1122.8 302.3V301.02C1121.73 301.15 1119.76 301.19 1118.54 301.02ZM1118.2 305.15C1118.1 305.61 1118.03 306.03 1118.03 306.44C1118.03 307.45 1118.84 308.07 1120.55 308.07C1121.67 308.07 1122.47 307.99 1123.11 307.87L1123.08 306.53C1122.22 306.71 1121.49 306.79 1120.6 306.79C1119.6 306.79 1119.22 306.53 1119.22 306.09C1119.22 305.82 1119.26 305.58 1119.34 305.26L1118.2 305.15ZM1115.63 300.25C1115.63 300.56 1115.57 300.94 1115.53 301.22C1115.42 301.98 1115.12 303.65 1115.12 305.14C1115.12 306.48 1115.31 307.69 1115.51 308.38L1116.65 308.3C1116.64 308.16 1116.64 308 1116.63 307.89C1116.63 307.79 1116.66 307.57 1116.69 307.43C1116.79 306.9 1117.12 305.83 1117.4 305L1116.78 304.52C1116.64 304.84 1116.48 305.17 1116.34 305.52C1116.31 305.31 1116.3 305.07 1116.3 304.88C1116.3 303.89 1116.64 301.91 1116.78 301.25C1116.82 301.07 1116.94 300.57 1117.02 300.37L1115.63 300.25ZM1128.5 306.41C1128.5 307.06 1128.27 307.35 1127.63 307.35C1126.94 307.35 1126.44 307.17 1126.44 306.68C1126.44 306.26 1126.9 306 1127.67 306C1127.95 306 1128.23 306.03 1128.49 306.07C1128.5 306.2 1128.5 306.32 1128.5 306.41ZM1132.78 306.87C1132.1 306.23 1131.03 305.55 1129.77 305.17C1129.72 304.44 1129.68 303.66 1129.66 303.06C1130.46 303.04 1131.64 303 1132.47 302.92L1132.42 301.74C1131.6 301.83 1130.44 301.87 1129.66 301.89C1129.66 301.64 1129.66 301.39 1129.66 301.17C1129.68 300.78 1129.71 300.3 1129.75 300.01H1128.26C1128.32 300.26 1128.35 300.68 1128.36 301.17C1128.37 301.59 1128.38 302.18 1128.38 302.78C1128.38 303.3 1128.42 304.15 1128.45 304.92C1128.26 304.9 1128.06 304.89 1127.86 304.89C1126.04 304.89 1125.16 305.71 1125.16 306.74C1125.16 308.09 1126.32 308.55 1127.73 308.55C1129.39 308.55 1129.84 307.71 1129.84 306.84C1129.84 306.74 1129.84 306.63 1129.83 306.5C1130.71 306.9 1131.46 307.49 1132.02 308.05L1132.78 306.87ZM1136.13 299.94C1136.12 300.22 1136.1 300.62 1136.05 300.98C1135.9 302 1135.77 303.23 1135.77 304.15C1135.77 304.81 1135.84 305.42 1135.89 305.8L1137.12 305.72C1137.06 305.26 1137.06 304.94 1137.07 304.67C1137.12 303.37 1138.14 301.61 1139.31 301.61C1140.13 301.61 1140.64 302.46 1140.64 303.99C1140.64 306.39 1139.1 307.11 1136.9 307.45L1137.65 308.6C1140.27 308.12 1141.99 306.78 1141.99 303.98C1141.99 301.8 1140.92 300.45 1139.54 300.45C1138.42 300.45 1137.56 301.29 1137.09 302.05C1137.15 301.5 1137.35 300.49 1137.49 300L1136.13 299.94ZM1145.8 301.04H1147.68V302.41H1145.8V301.04ZM1146.82 304.29C1146.84 304.02 1146.86 303.74 1146.88 303.47H1148.83V299.99H1144.72V303.47H1145.72C1145.64 305.13 1145.44 306.93 1144.13 308.01C1144.41 308.21 1144.75 308.58 1144.92 308.88C1145.98 307.98 1146.45 306.7 1146.68 305.33H1147.79C1147.72 306.91 1147.63 307.55 1147.48 307.72C1147.39 307.83 1147.3 307.85 1147.15 307.85C1146.97 307.85 1146.57 307.85 1146.17 307.8C1146.34 308.09 1146.46 308.52 1146.47 308.83C1146.95 308.85 1147.41 308.84 1147.68 308.8C1148 308.76 1148.23 308.67 1148.43 308.43C1148.71 308.09 1148.81 307.13 1148.91 304.72C1148.91 304.58 1148.92 304.29 1148.92 304.29H1146.82ZM1150.74 300.74H1149.58V306.37H1150.74V300.74ZM1151.93 299.73V307.43C1151.93 307.61 1151.85 307.67 1151.66 307.67C1151.45 307.67 1150.81 307.67 1150.16 307.65C1150.34 307.98 1150.52 308.53 1150.57 308.88C1151.48 308.88 1152.15 308.84 1152.56 308.65C1152.97 308.46 1153.11 308.13 1153.11 307.43V299.73H1151.93ZM1158.63 301.94C1159.21 301.51 1159.71 301.03 1160.06 300.57C1160.42 301.03 1160.97 301.52 1161.55 301.94H1158.63ZM1158.28 302.9H1159.55V303.45H1157.13V304.43H1159.55V306.14C1159.55 306.25 1159.51 306.29 1159.38 306.29C1159.28 306.29 1158.89 306.29 1158.55 306.27C1158.68 306.55 1158.82 306.97 1158.86 307.27C1159.48 307.27 1159.93 307.26 1160.27 307.1C1160.61 306.94 1160.69 306.67 1160.69 306.16V304.43H1163.23V303.45H1160.69V302.9H1161.98V302.24C1162.29 302.44 1162.6 302.61 1162.89 302.75C1163.07 302.41 1163.33 301.96 1163.58 301.65C1162.47 301.27 1161.37 300.47 1160.6 299.54H1159.43C1158.88 300.35 1157.75 301.28 1156.62 301.74C1156.84 302.01 1157.11 302.48 1157.24 302.78C1157.59 302.61 1157.94 302.41 1158.28 302.19V302.9ZM1161.06 305.05C1161.51 305.61 1162.04 306.39 1162.26 306.88L1163.26 306.39C1163.01 305.88 1162.45 305.15 1162 304.61L1161.06 305.05ZM1157.97 304.66C1157.73 305.28 1157.29 305.89 1156.77 306.3C1157.02 306.44 1157.45 306.71 1157.65 306.89C1158.17 306.42 1158.69 305.66 1159 304.91L1157.97 304.66ZM1156.85 301.29C1156.52 300.82 1155.8 300.18 1155.22 299.76L1154.33 300.47C1154.91 300.92 1155.61 301.6 1155.9 302.07L1156.85 301.29ZM1156.59 303.41H1154.33V304.5H1155.43V306.61C1155 306.95 1154.51 307.29 1154.11 307.53L1154.69 308.77C1155.22 308.35 1155.65 307.96 1156.08 307.57C1156.73 308.35 1157.56 308.63 1158.8 308.68C1160 308.73 1162.01 308.71 1163.22 308.65C1163.27 308.31 1163.45 307.73 1163.59 307.45C1162.26 307.55 1159.99 307.58 1158.82 307.53C1157.77 307.49 1157.01 307.22 1156.59 306.55V303.41ZM1167.2 300.56C1166.8 300.23 1166 299.81 1165.39 299.57L1164.74 300.46C1165.37 300.73 1166.15 301.19 1166.51 301.54L1167.2 300.56ZM1166.65 303.22C1166.25 302.88 1165.42 302.49 1164.8 302.27L1164.17 303.16C1164.8 303.43 1165.59 303.87 1165.97 304.21L1166.65 303.22ZM1166.21 304.8C1165.65 305.97 1164.94 307.23 1164.44 307.99L1165.48 308.73C1166.04 307.75 1166.62 306.6 1167.12 305.54L1166.21 304.8ZM1170.37 302.18H1171.61V303.99H1170.34C1170.36 303.66 1170.37 303.34 1170.37 303.01V302.18ZM1173.52 305.11V303.99H1172.77V301.06H1170.37V299.54H1169.19V301.06H1167.52V302.18H1169.19V303C1169.19 303.33 1169.18 303.66 1169.16 303.99H1167.03V305.11H1168.98C1168.69 306.23 1168.02 307.26 1166.5 308.06C1166.82 308.24 1167.28 308.65 1167.49 308.9C1169.02 308.06 1169.75 306.92 1170.08 305.69C1170.65 307.14 1171.5 308.25 1172.8 308.89C1172.98 308.56 1173.35 308.09 1173.63 307.85C1172.41 307.35 1171.56 306.34 1171.08 305.11H1173.52ZM1176.24 304.8C1175.67 305.97 1174.95 307.23 1174.45 307.99L1175.49 308.73C1176.05 307.75 1176.64 306.6 1177.14 305.54L1176.24 304.8ZM1176.65 303.22C1176.25 302.88 1175.42 302.49 1174.8 302.27L1174.17 303.16C1174.8 303.43 1175.59 303.87 1175.97 304.21L1176.65 303.22ZM1181.48 304.09V304.5H1179.03V304.06H1178.19C1178.91 303.87 1179.59 303.64 1180.21 303.35C1180.92 303.69 1181.7 303.91 1182.52 304.09H1181.48ZM1178.97 306.18C1179.01 305.94 1179.02 305.7 1179.03 305.49H1181.48V306.18H1178.97ZM1181.14 301.46C1180.9 301.73 1180.61 301.97 1180.27 302.18C1179.92 301.99 1179.59 301.75 1179.27 301.46H1181.14ZM1183.41 301.46V300.43H1180.86V299.54H1179.63V300.43H1177.12V300.5C1176.7 300.18 1175.96 299.8 1175.39 299.58L1174.74 300.46C1175.37 300.73 1176.15 301.19 1176.51 301.54L1177.12 300.67V301.46H1177.9C1178.28 301.97 1178.7 302.37 1179.15 302.71C1178.42 302.97 1177.58 303.15 1176.71 303.27C1176.89 303.5 1177.17 304 1177.27 304.27C1177.48 304.23 1177.69 304.18 1177.89 304.13V305.22C1177.89 306.07 1177.76 307.46 1176.64 308.34C1176.93 308.47 1177.38 308.79 1177.59 308.97C1178.21 308.47 1178.56 307.82 1178.77 307.16H1181.48V308.85H1182.65V304.12L1183.01 304.19C1183.12 303.82 1183.39 303.39 1183.65 303.12C1182.83 303.01 1182.07 302.87 1181.36 302.65C1181.8 302.31 1182.18 301.92 1182.48 301.46H1183.41ZM1193.44 304.65H1189.49V303.48H1192.85V302.34H1189.49V301.03C1190.59 300.9 1191.64 300.73 1192.53 300.5L1191.67 299.51C1190.03 299.94 1187.29 300.21 1184.88 300.31C1185 300.57 1185.15 301.05 1185.18 301.36C1186.16 301.32 1187.21 301.26 1188.25 301.17V302.34H1184.98V303.48H1188.25V304.65H1184.3V305.81H1188.25V307.42C1188.25 307.62 1188.16 307.69 1187.93 307.7C1187.71 307.7 1186.87 307.7 1186.13 307.67C1186.32 307.99 1186.55 308.51 1186.62 308.85C1187.64 308.86 1188.36 308.83 1188.84 308.65C1189.31 308.46 1189.49 308.15 1189.49 307.44V305.81H1193.44V304.65ZM1199.22 305.68V304.72C1199.28 304.78 1199.32 304.83 1199.36 304.87C1199.52 304.65 1199.68 304.41 1199.82 304.15C1200 304.87 1200.22 305.53 1200.5 306.12C1200.06 306.74 1199.48 307.24 1198.74 307.63C1198.51 307.46 1198.22 307.28 1197.91 307.1C1198.16 306.71 1198.33 306.24 1198.44 305.68H1199.22ZM1196.35 305.68H1197.32C1197.23 306.04 1197.1 306.34 1196.94 306.59C1196.65 306.45 1196.36 306.33 1196.06 306.21L1196.35 305.68ZM1201.73 302.43C1201.62 303.31 1201.44 304.1 1201.19 304.78C1200.92 304.06 1200.72 303.27 1200.58 302.43H1201.73ZM1203.52 302.43V301.33H1200.86C1200.99 300.8 1201.1 300.25 1201.18 299.69L1199.98 299.53C1199.74 301.31 1199.26 303.01 1198.41 304.03C1198.63 304.18 1198.99 304.49 1199.22 304.72H1196.84L1197.08 304.24L1196.65 304.15H1197.29V302.94C1197.68 303.25 1198.1 303.6 1198.32 303.81L1198.95 302.99C1198.73 302.84 1198.02 302.42 1197.54 302.15H1199.18V301.21H1198.23C1198.47 300.9 1198.78 300.48 1199.09 300.05L1198.09 299.65C1197.93 300.03 1197.65 300.56 1197.42 300.92L1198.08 301.21H1197.29V299.53H1196.2V301.21H1195.36L1196 300.93C1195.92 300.58 1195.66 300.07 1195.4 299.69L1194.54 300.05C1194.75 300.41 1194.97 300.87 1195.06 301.21H1194.3V302.15H1195.86C1195.38 302.67 1194.71 303.15 1194.1 303.4C1194.32 303.61 1194.57 304 1194.7 304.26C1195.2 303.98 1195.74 303.56 1196.2 303.1V304.06L1195.98 304.01C1195.88 304.23 1195.76 304.47 1195.64 304.72H1194.19V305.68H1195.14C1194.89 306.16 1194.64 306.61 1194.42 306.96L1195.46 307.28L1195.57 307.09C1195.76 307.17 1195.95 307.26 1196.13 307.36C1195.66 307.62 1195.03 307.79 1194.23 307.89C1194.42 308.14 1194.63 308.54 1194.7 308.88C1195.77 308.66 1196.57 308.37 1197.16 307.93C1197.57 308.19 1197.93 308.45 1198.2 308.68L1198.65 308.22C1198.81 308.46 1198.96 308.73 1199.03 308.9C1199.9 308.46 1200.59 307.92 1201.14 307.26C1201.59 307.91 1202.14 308.44 1202.82 308.85C1203 308.52 1203.37 308.06 1203.64 307.82C1202.91 307.44 1202.33 306.87 1201.87 306.16C1202.41 305.15 1202.75 303.91 1202.96 302.43H1203.52ZM1211.05 301.28C1210.73 300.91 1210.02 300.4 1209.46 300.07L1208.89 300.87C1209.44 301.24 1210.13 301.78 1210.44 302.17L1211.05 301.28ZM1208.43 303.39C1209.01 303.73 1209.74 304.27 1210.07 304.63L1210.67 303.68C1210.31 303.33 1209.57 302.84 1208.99 302.53L1208.43 303.39ZM1207.53 300.08C1207.42 300.78 1207.19 301.79 1206.98 302.42L1207.73 302.63C1207.98 302.05 1208.27 301.1 1208.53 300.3L1207.53 300.08ZM1205.59 302.42C1205.54 301.8 1205.34 300.85 1205.08 300.13L1204.25 300.35C1204.48 301.07 1204.68 302.04 1204.7 302.65L1205.59 302.42ZM1208.32 305.71C1208.11 305.43 1207.16 304.31 1206.87 304.02V303.95H1208.35V302.84H1206.87V299.57H1205.77V302.84H1204.26V303.95H1205.4C1205.09 304.86 1204.58 305.93 1204.08 306.54C1204.26 306.87 1204.52 307.41 1204.62 307.77C1205.05 307.17 1205.45 306.24 1205.77 305.31V308.84H1206.87V305.33C1207.16 305.79 1207.44 306.31 1207.59 306.63L1208.32 305.71ZM1213.61 305.94L1213.43 304.83L1212.41 305.02V299.52H1211.29V305.22L1208.32 305.75L1208.5 306.86L1211.29 306.36V308.86H1212.41V306.16L1213.61 305.94ZM1223.66 300.7C1223.49 300.35 1223.12 299.72 1222.85 299.34L1222.06 299.67C1222.34 300.04 1222.66 300.63 1222.87 301.05L1223.66 300.7ZM1216.94 300.05C1216.95 300.67 1216.87 301.39 1216.73 302.15C1216.23 302.19 1215.76 302.22 1215.45 302.23C1215.09 302.24 1214.76 302.26 1214.4 302.23L1214.51 303.57C1214.82 303.52 1215.33 303.45 1215.61 303.42C1215.8 303.39 1216.11 303.35 1216.46 303.31C1216.11 304.66 1215.43 306.64 1214.47 307.94L1215.76 308.46C1216.67 307 1217.39 304.67 1217.78 303.17C1218.06 303.15 1218.3 303.13 1218.46 303.13C1219.08 303.13 1219.42 303.24 1219.42 304.03C1219.42 305.01 1219.29 306.19 1219.02 306.74C1218.86 307.07 1218.61 307.17 1218.28 307.17C1218.02 307.17 1217.44 307.07 1217.06 306.96L1217.28 308.27C1217.61 308.35 1218.09 308.41 1218.46 308.41C1219.22 308.41 1219.76 308.19 1220.09 307.5C1220.51 306.64 1220.65 305.06 1220.65 303.89C1220.65 302.47 1219.91 302 1218.86 302C1218.66 302 1218.36 302.02 1218.03 302.04C1218.1 301.68 1218.18 301.32 1218.24 301.02C1218.29 300.77 1218.35 300.46 1218.41 300.2L1216.94 300.05ZM1222.47 301.16C1222.27 300.79 1221.92 300.16 1221.67 299.79L1220.88 300.12C1221.11 300.44 1221.36 300.92 1221.56 301.3L1220.64 301.69C1221.35 302.57 1222.05 304.32 1222.31 305.42L1223.57 304.83C1223.28 303.96 1222.54 302.29 1221.96 301.38L1222.47 301.16ZM1230.03 301.22C1229.46 300.78 1228.45 300.04 1227.64 299.52L1226.87 300.39C1227.65 300.93 1228.67 301.71 1229.25 302.19L1230.03 301.22ZM1225.16 302.23C1224.98 303.4 1224.6 304.67 1224.11 305.53L1225.26 305.96C1225.76 305.1 1226.08 303.7 1226.29 302.52L1225.16 302.23ZM1228.61 307.57C1228.1 307.57 1228.02 307.5 1228.02 306.99V306.38C1230.03 304.74 1231.6 302.68 1232.69 300.59L1231.49 300.12C1230.73 301.72 1229.53 303.38 1228.02 304.8V301.78H1226.75V305.87C1225.94 306.49 1225.06 307.03 1224.13 307.45C1224.37 307.68 1224.73 308.12 1224.91 308.39C1225.55 308.08 1226.18 307.72 1226.76 307.32C1226.83 308.42 1227.25 308.76 1228.48 308.76H1230.23C1231.46 308.76 1231.81 308.17 1231.97 306.37C1231.62 306.29 1231.09 306.08 1230.8 305.87C1230.72 307.28 1230.64 307.57 1230.13 307.57H1228.61ZM1231.02 303.41C1231.61 304.35 1232.23 305.63 1232.46 306.46L1233.6 305.88C1233.35 305.06 1232.72 303.84 1232.09 302.9L1231.02 303.41ZM1237.75 305.88H1240.19C1239.95 306.25 1239.64 306.56 1239.27 306.81C1238.66 306.65 1238.03 306.5 1237.41 306.37L1237.75 305.88ZM1236.06 302.42H1237.11V303.35H1236.06V302.42ZM1238.23 300.91H1239.36V301.48H1238.23V300.91ZM1241.68 302.42V303.35H1240.48V302.42H1241.68ZM1238.23 303.35V302.42H1239.36V303.35H1238.23ZM1243.43 305.88V304.92H1238.38C1238.52 304.7 1238.66 304.49 1238.78 304.28H1242.87V301.48H1240.48V300.91H1243.19V299.88H1234.48V300.91H1237.11V301.48H1234.94V304.28H1237.42C1237.29 304.49 1237.16 304.7 1237.02 304.92H1234.3V305.88H1236.38C1236.08 306.31 1235.79 306.7 1235.54 307.02L1236.69 307.38L1236.8 307.23C1237.13 307.3 1237.45 307.38 1237.77 307.46C1236.88 307.69 1235.8 307.81 1234.48 307.86C1234.66 308.12 1234.85 308.54 1234.93 308.88C1236.87 308.73 1238.35 308.47 1239.47 307.92C1240.6 308.25 1241.61 308.6 1242.37 308.91L1243.1 307.94C1242.42 307.7 1241.55 307.43 1240.58 307.16C1240.95 306.81 1241.26 306.39 1241.51 305.88H1243.43ZM1248.34 301.02L1248.35 302.3C1249.59 302.41 1251.38 302.41 1252.6 302.3V301.02C1251.53 301.15 1249.56 301.19 1248.34 301.02ZM1248 305.15C1247.9 305.61 1247.83 306.03 1247.83 306.44C1247.83 307.45 1248.64 308.07 1250.35 308.07C1251.47 308.07 1252.27 307.99 1252.91 307.87L1252.88 306.53C1252.02 306.71 1251.29 306.79 1250.4 306.79C1249.4 306.79 1249.02 306.53 1249.02 306.09C1249.02 305.82 1249.06 305.58 1249.14 305.26L1248 305.15ZM1245.43 300.25C1245.43 300.56 1245.37 300.94 1245.33 301.22C1245.22 301.98 1244.92 303.65 1244.92 305.14C1244.92 306.48 1245.11 307.69 1245.31 308.38L1246.45 308.3C1246.44 308.16 1246.44 308 1246.43 307.89C1246.43 307.79 1246.46 307.57 1246.49 307.43C1246.59 306.9 1246.92 305.83 1247.2 305L1246.58 304.52C1246.44 304.84 1246.28 305.17 1246.14 305.52C1246.11 305.31 1246.1 305.07 1246.1 304.88C1246.1 303.89 1246.44 301.91 1246.58 301.25C1246.62 301.07 1246.74 300.57 1246.82 300.37L1245.43 300.25ZM1263.3 302.54C1262.8 302.18 1261.57 301.51 1260.86 301.2L1260.22 302.18C1260.9 302.48 1262.03 303.13 1262.6 303.59L1263.3 302.54ZM1259.57 301.02C1259.18 301.14 1258.72 301.25 1258.24 301.33C1258.38 300.8 1258.5 300.3 1258.58 299.98L1257.21 299.84C1257.19 300.35 1257.08 300.95 1256.94 301.5C1256.64 301.52 1256.34 301.53 1256.05 301.53C1255.69 301.53 1255.16 301.51 1254.73 301.46L1254.82 302.62C1255.25 302.64 1255.65 302.65 1256.06 302.65C1256.23 302.65 1256.4 302.65 1256.57 302.64C1256.13 303.71 1255.35 305.17 1254.55 306.14L1255.76 306.75C1256.56 305.62 1257.41 303.9 1257.88 302.51C1258.54 302.42 1259.15 302.29 1259.6 302.17L1259.57 301.02ZM1259.81 306.53C1259.81 307.06 1259.59 307.45 1258.92 307.45C1258.38 307.45 1258.07 307.2 1258.07 306.83C1258.07 306.48 1258.44 306.24 1259.01 306.24C1259.29 306.24 1259.55 306.28 1259.81 306.34V306.53ZM1259.65 303.06C1259.68 303.66 1259.73 304.53 1259.76 305.27C1259.55 305.25 1259.32 305.23 1259.09 305.23C1257.71 305.23 1256.9 305.98 1256.9 306.95C1256.9 308.04 1257.87 308.59 1259.1 308.59C1260.51 308.59 1261.01 307.87 1261.01 306.95V306.86C1261.55 307.19 1262 307.59 1262.35 307.91L1263.01 306.85C1262.51 306.4 1261.81 305.9 1260.96 305.58C1260.93 305.09 1260.91 304.61 1260.9 304.33C1260.89 303.89 1260.87 303.48 1260.9 303.06H1259.65ZM1266.13 299.94C1266.12 300.22 1266.1 300.62 1266.05 300.98C1265.9 302 1265.77 303.23 1265.77 304.15C1265.77 304.81 1265.84 305.42 1265.89 305.8L1267.12 305.72C1267.06 305.26 1267.06 304.94 1267.07 304.67C1267.12 303.37 1268.14 301.61 1269.31 301.61C1270.13 301.61 1270.64 302.46 1270.64 303.99C1270.64 306.39 1269.1 307.11 1266.9 307.45L1267.65 308.6C1270.27 308.12 1271.99 306.78 1271.99 303.98C1271.99 301.8 1270.92 300.45 1269.54 300.45C1268.42 300.45 1267.56 301.29 1267.09 302.05C1267.15 301.5 1267.35 300.49 1267.49 300L1266.13 299.94ZM1278.63 306.69C1278.63 307.26 1278.29 307.42 1277.76 307.42C1277.08 307.42 1276.73 307.18 1276.73 306.81C1276.73 306.47 1277.11 306.2 1277.81 306.2C1278.09 306.2 1278.36 306.23 1278.62 306.27C1278.63 306.44 1278.63 306.58 1278.63 306.69ZM1282.59 306.94C1282.02 306.46 1281.07 305.8 1279.82 305.44C1279.79 305.06 1279.77 304.66 1279.75 304.29C1280.71 304.26 1281.48 304.19 1282.37 304.09V302.92C1281.56 303.02 1280.73 303.11 1279.73 303.15L1279.74 302.12C1280.69 302.07 1281.49 301.99 1282.14 301.93L1282.11 300.79C1281.25 300.92 1280.52 301 1279.75 301.03L1279.76 300.64C1279.77 300.39 1279.8 300.14 1279.83 299.94H1278.48C1278.52 300.13 1278.53 300.44 1278.53 300.62V301.07H1278.04C1277.43 301.07 1276.51 301 1275.89 300.88L1275.9 302.01C1276.47 302.1 1277.42 302.16 1278.05 302.16H1278.52V303.19H1278.05C1277.52 303.19 1276.23 303.12 1275.66 303.01L1275.65 304.18C1276.31 304.26 1277.45 304.31 1278.03 304.31H1278.54C1278.55 304.6 1278.56 304.91 1278.58 305.21C1278.38 305.19 1278.18 305.18 1277.97 305.18C1276.44 305.18 1275.52 305.88 1275.52 306.88C1275.52 307.93 1276.36 308.53 1277.94 308.53C1279.25 308.53 1279.89 307.88 1279.89 307.03C1279.89 306.93 1279.89 306.81 1279.88 306.68C1280.67 307.04 1281.35 307.55 1281.88 308.05L1282.59 306.94ZM1287.89 304.71C1287.89 304.19 1288.27 303.93 1288.65 303.93C1288.93 303.93 1289.16 304.04 1289.3 304.28C1289.43 305.14 1289.06 305.45 1288.65 305.45C1288.26 305.45 1287.89 305.17 1287.89 304.71ZM1293.17 301.12C1292.65 301.11 1291.3 301.12 1290.3 301.12C1290.3 301 1290.31 300.9 1290.31 300.82C1290.32 300.66 1290.35 300.13 1290.38 299.97H1288.94C1288.98 300.13 1289.01 300.51 1289.03 300.83C1289.04 300.9 1289.04 301.01 1289.04 301.13C1287.71 301.15 1285.91 301.2 1284.78 301.2L1284.81 302.4C1286.03 302.33 1287.56 302.27 1289.06 302.25L1289.07 302.91C1288.95 302.89 1288.82 302.88 1288.68 302.88C1287.6 302.88 1286.7 303.61 1286.7 304.73C1286.7 305.94 1287.64 306.55 1288.41 306.55C1288.57 306.55 1288.72 306.53 1288.86 306.5C1288.31 307.09 1287.44 307.42 1286.44 307.63L1287.49 308.69C1289.91 308.01 1290.67 306.37 1290.67 305.08C1290.67 304.56 1290.55 304.08 1290.3 303.71C1290.3 303.28 1290.3 302.74 1290.29 302.24C1291.63 302.24 1292.56 302.26 1293.16 302.29L1293.17 301.12Z" fill="#616161"/>
<path d="M1019.16 266.34C1018.78 265.6 1018.24 264.74 1017.74 264L1016.08 264.68C1016.6 265.4 1017.08 266.24 1017.48 267.04L1019.16 266.34ZM1007.48 274.7C1007.48 273.66 1008.26 273.14 1009 273.14C1009.54 273.14 1010.02 273.36 1010.3 273.82C1010.56 275.56 1009.84 276.2 1009.02 276.2C1008.22 276.2 1007.48 275.62 1007.48 274.7ZM1016.46 266.92C1016.1 266.2 1015.56 265.28 1015.06 264.58L1013.42 265.26C1013.9 265.96 1014.32 266.74 1014.72 267.52H1012.3C1012.3 267.28 1012.32 267.08 1012.32 266.92C1012.34 266.6 1012.4 265.54 1012.46 265.22H1009.58C1009.66 265.56 1009.72 266.3 1009.78 266.94C1009.78 267.1 1009.8 267.3 1009.8 267.54C1007.12 267.58 1003.54 267.68 1001.26 267.68L1001.32 270.08C1003.76 269.94 1006.84 269.82 1009.84 269.78L1009.86 271.1C1009.6 271.06 1009.34 271.04 1009.06 271.04C1006.9 271.04 1005.1 272.5 1005.1 274.76C1005.1 277.16 1007 278.38 1008.52 278.38C1008.84 278.38 1009.14 278.34 1009.42 278.28C1008.34 279.46 1006.58 280.12 1004.58 280.54L1006.7 282.66C1011.52 281.3 1013.04 278.04 1013.04 275.44C1013.04 274.4 1012.8 273.44 1012.3 272.7C1012.3 271.84 1012.3 270.76 1012.28 269.76C1014.96 269.76 1016.82 269.82 1018.02 269.88L1018.04 267.52C1017.46 267.5 1016.32 267.52 1015.08 267.52L1016.46 266.92Z" fill="white"/>
<path d="M1207.74 272.5L1208.76 275.1C1210.46 274.38 1214.4 272.74 1216.7 272.74C1218.42 272.74 1219.54 273.78 1219.54 275.26C1219.54 277.96 1216.18 279.14 1211.68 279.26L1212.72 281.72C1219.02 281.34 1222.16 278.88 1222.16 275.3C1222.16 272.3 1220.06 270.44 1216.94 270.44C1214.54 270.44 1211.18 271.58 1209.84 271.98C1209.24 272.18 1208.32 272.4 1207.74 272.5ZM1239.62 267.06C1239.12 267.48 1238.54 267.82 1237.8 268.26C1236.86 268.78 1235.14 269.66 1233.52 270.6C1232.72 269.08 1231.8 267.18 1231.04 265.12L1228.54 266.14C1229.44 268.24 1230.4 270.34 1231.32 272.04C1229.42 273.44 1228.04 275.06 1228.04 277.26C1228.04 280.66 1231.02 281.76 1234.96 281.76C1237.54 281.76 1239.64 281.56 1241.32 281.28L1241.36 278.42C1239.6 278.82 1236.92 279.14 1234.88 279.14C1232.14 279.14 1230.76 278.38 1230.76 276.96C1230.76 275.58 1231.86 274.44 1233.52 273.36C1235.32 272.2 1237.8 271.04 1239.04 270.42C1239.76 270.06 1240.4 269.72 1241 269.36L1239.62 267.06ZM1251.24 280.54C1250.22 279.3 1248.3 277.32 1246.88 276.16L1244.8 277.96C1246.2 279.16 1247.88 280.88 1249.1 282.38L1251.24 280.54ZM1278.22 270.8H1276.7V268.24H1278.22V270.8ZM1278.22 275.46H1276.7V272.92H1278.22V275.46ZM1269.82 272.92H1271.26V275.46H1269.82V272.92ZM1274.72 272.92V275.46H1273.24V272.92H1274.72ZM1273.24 270.8V268.24H1274.72V270.8H1273.24ZM1269.82 268.24H1271.26V270.8H1269.82V268.24ZM1267.72 270.8H1265.04V272.92H1267.72V275.46H1265.34V277.58H1282.72V275.46H1280.4V272.92H1283V270.8H1280.4V268.24H1282.28V266.14H1270.28C1270.58 265.68 1270.84 265.22 1271.06 264.74L1268.74 264.06C1267.86 265.92 1266.28 267.74 1264.6 268.84C1265.14 269.22 1266.1 269.98 1266.54 270.4C1266.94 270.1 1267.32 269.74 1267.72 269.36V270.8ZM1267.1 282.76C1268.08 281.72 1268.94 280.08 1269.38 278.56L1267.08 278C1266.62 279.46 1265.72 281 1264.84 281.84L1267.1 282.76ZM1270.66 278.7C1270.88 279.92 1271.04 281.56 1271.04 282.52L1273.36 282.18C1273.34 281.24 1273.12 279.66 1272.88 278.44L1270.66 278.7ZM1274.62 278.74C1275.06 279.96 1275.52 281.58 1275.64 282.54L1278.02 282.08C1277.84 281.1 1277.34 279.54 1276.86 278.36L1274.62 278.74ZM1278.58 278.64C1279.46 279.92 1280.52 281.68 1280.94 282.74L1283.38 281.92C1282.88 280.82 1281.76 279.14 1280.86 277.92L1278.58 278.64ZM1298.38 267.56C1297.74 266.82 1296.32 265.8 1295.2 265.14L1294.06 266.74C1295.16 267.48 1296.54 268.56 1297.16 269.34L1298.38 267.56ZM1293.14 271.78C1294.3 272.46 1295.76 273.54 1296.42 274.26L1297.62 272.36C1296.9 271.66 1295.42 270.68 1294.26 270.06L1293.14 271.78ZM1291.34 265.16C1291.12 266.56 1290.66 268.58 1290.24 269.84L1291.74 270.26C1292.24 269.1 1292.82 267.2 1293.34 265.6L1291.34 265.16ZM1287.46 269.84C1287.36 268.6 1286.96 266.7 1286.44 265.26L1284.78 265.7C1285.24 267.14 1285.64 269.08 1285.68 270.3L1287.46 269.84ZM1292.92 276.42C1292.5 275.86 1290.6 273.62 1290.02 273.04V272.9H1292.98V270.68H1290.02V264.14H1287.82V270.68H1284.8V272.9H1287.08C1286.46 274.72 1285.44 276.86 1284.44 278.08C1284.8 278.74 1285.32 279.82 1285.52 280.54C1286.38 279.34 1287.18 277.48 1287.82 275.62V282.68H1290.02V275.66C1290.6 276.58 1291.16 277.62 1291.46 278.26L1292.92 276.42ZM1303.5 276.88L1303.14 274.66L1301.1 275.04V264.04H1298.86V275.44L1292.92 276.5L1293.28 278.72L1298.86 277.72V282.72H1301.1V277.32L1303.5 276.88Z" fill="white"/>
<path d="M1141 150.92C1140.78 150.7 1140.24 150.16 1139.64 149.6C1140.18 149.04 1140.8 148.32 1141.5 147.64L1139.98 146.38C1139.64 147 1139.06 147.92 1138.54 148.6C1138.34 148.42 1138.16 148.26 1138 148.12C1139 146.64 1139.86 145.02 1140.46 143.38L1139.12 142.5L1138.74 142.6H1137.88V139.08H1135.54V142.6H1132.96V144.74H1137.52C1136.3 147.12 1134.36 149.46 1132.4 150.82C1132.78 151.24 1133.4 152.4 1133.62 152.98C1134.26 152.48 1134.9 151.9 1135.54 151.22V157.74H1137.88V150.56C1138.54 151.32 1139.2 152.16 1139.58 152.74L1141 150.92ZM1140.28 140.6V142.84H1143.16C1143.06 147.94 1142.76 153 1138.66 155.88C1139.28 156.34 1140.02 157.12 1140.42 157.76C1144.88 154.38 1145.42 148.62 1145.58 142.84H1148.48C1148.34 151.02 1148.12 154.24 1147.56 154.9C1147.34 155.2 1147.14 155.28 1146.82 155.28C1146.34 155.28 1145.4 155.28 1144.36 155.2C1144.78 155.9 1145.06 156.96 1145.1 157.66C1146.18 157.68 1147.28 157.7 1148 157.56C1148.76 157.42 1149.26 157.16 1149.8 156.36C1150.56 155.28 1150.74 151.8 1150.92 141.8C1150.94 141.48 1150.94 140.6 1150.94 140.6H1140.28ZM1156.6 149.56H1159.08V150.92H1156.6V149.56ZM1159.08 143.5V144.66H1156.6V143.5H1159.08ZM1156.6 146.48H1159.08V147.74H1156.6V146.48ZM1162.48 150.92H1161.26V143.5H1162.62V141.42H1161.26V139.3H1159.08V141.42H1156.6V139.3H1154.46V141.42H1152.9V143.5H1154.46V150.92H1152.66V153H1162.48V150.92ZM1155.14 153.14C1154.58 154.34 1153.54 155.6 1152.5 156.38C1153.04 156.7 1153.96 157.38 1154.4 157.8C1155.48 156.82 1156.66 155.26 1157.36 153.8L1155.14 153.14ZM1165.5 149C1165.52 148.38 1165.52 147.8 1165.52 147.28V146.54H1168.4V149H1165.5ZM1168.4 142.1V144.44H1165.52V142.1H1168.4ZM1170.7 139.94H1163.3V147.28C1163.3 149.88 1163.2 153.26 1162.04 155.76C1161.54 154.94 1160.6 153.84 1159.88 153.04L1158.08 154.02C1158.86 154.94 1159.82 156.26 1160.22 157.04L1161.88 156.1C1161.82 156.22 1161.74 156.32 1161.68 156.44C1162.2 156.64 1163.18 157.36 1163.56 157.78C1164.64 155.98 1165.14 153.48 1165.36 151.12H1168.4V155.06C1168.4 155.38 1168.3 155.48 1168 155.48C1167.72 155.48 1166.76 155.5 1165.9 155.44C1166.2 156.04 1166.5 157.08 1166.58 157.7C1168.06 157.72 1169.08 157.66 1169.78 157.28C1170.48 156.9 1170.7 156.28 1170.7 155.1V139.94ZM1177.8 152.52H1186.4V153.34H1177.8V152.52ZM1183.08 145.7V147.02H1179.44C1179.88 146.62 1180.2 146.18 1180.42 145.7H1183.08ZM1176.66 143.52H1178.68C1178.68 143.8 1178.64 144.06 1178.56 144.3H1176.38L1176.66 143.52ZM1180.86 141.34H1183.08V142.14H1180.86V141.34ZM1187.42 141.34V142.14H1185.34V141.34H1187.42ZM1183.08 144.3H1180.8C1180.82 144.04 1180.84 143.78 1180.86 143.52H1183.08V144.3ZM1188.54 145.7C1188.5 146 1188.44 146.18 1188.36 146.28C1188.24 146.42 1188.12 146.42 1187.94 146.42C1187.72 146.44 1187.3 146.42 1186.84 146.36C1186.92 146.54 1187.02 146.78 1187.08 147.02H1185.34V145.7H1188.54ZM1186.4 149.16H1177.8V148.38H1186.4V149.16ZM1186.4 151.24H1177.8V150.44H1186.4V151.24ZM1188.82 154.7V147.8C1188.94 147.8 1189.04 147.78 1189.12 147.78C1189.54 147.76 1189.98 147.6 1190.28 147.3C1190.62 146.94 1190.74 146.22 1190.84 144.92C1190.86 144.7 1190.88 144.3 1190.88 144.3H1185.34V143.52H1189.58V139.94H1185.34V139.08H1183.08V139.94H1180.86V139.08H1178.7V139.94H1174.16V141.34H1178.7V142.14H1174.9C1174.56 143.32 1174.08 144.76 1173.64 145.74L1175.8 145.88L1175.88 145.7H1177.62C1176.8 146.36 1175.36 146.86 1172.88 147.18C1173.24 147.62 1173.8 148.52 1174 149.02C1174.54 148.94 1175.02 148.86 1175.48 148.76V154.7H1178.2C1176.8 155.28 1174.76 155.78 1172.9 156.1C1173.4 156.5 1174.24 157.34 1174.62 157.8C1176.66 157.3 1179.2 156.4 1180.86 155.42L1179.28 154.7H1184.62L1183.1 155.64C1185.18 156.32 1187.26 157.16 1188.44 157.76L1191.08 156.62C1189.82 156.08 1187.72 155.32 1185.8 154.7H1188.82ZM1203.4 149.66V147.2H1207.62V149.66H1203.4ZM1197.18 149.66C1197.22 148.92 1197.24 148.2 1197.24 147.56V147.2H1201V149.66H1197.18ZM1201 142.66V144.98H1197.24V142.66H1201ZM1207.62 144.98H1203.4V142.66H1207.62V144.98ZM1209.98 140.4H1194.88V147.54C1194.88 150.34 1194.7 153.9 1192.52 156.3C1193.06 156.58 1194.02 157.4 1194.4 157.84C1195.84 156.28 1196.56 154.08 1196.92 151.9H1201V157.48H1203.4V151.9H1207.62V154.9C1207.62 155.26 1207.48 155.38 1207.1 155.38C1206.74 155.38 1205.42 155.4 1204.3 155.34C1204.6 155.96 1204.98 156.98 1205.06 157.62C1206.86 157.64 1208.08 157.6 1208.9 157.2C1209.7 156.84 1209.98 156.2 1209.98 154.92V140.4Z" fill="#616161"/>
<path d="M1116 196.781C1116 214.007 1112.44 227.184 1105.33 236.31C1098.22 245.437 1087.8 250 1074.09 250C1060.54 250 1050.18 245.522 1043.01 236.567C1035.84 227.611 1032.17 214.777 1032 198.064V175.134C1032 157.736 1035.59 144.531 1042.76 135.519C1049.98 126.506 1060.37 122 1073.91 122C1087.46 122 1097.82 126.478 1104.99 135.433C1112.16 144.332 1115.83 157.137 1116 173.85V196.781ZM1091.33 171.626C1091.33 161.301 1089.91 153.8 1087.06 149.123C1084.27 144.389 1079.89 142.021 1073.91 142.021C1068.11 142.021 1063.81 144.275 1061.02 148.781C1058.29 153.23 1056.84 160.217 1056.67 169.743V200.032C1056.67 210.185 1058.04 217.743 1060.77 222.706C1063.56 227.611 1068 230.064 1074.09 230.064C1080.12 230.064 1084.47 227.697 1087.15 222.963C1089.82 218.228 1091.22 210.984 1091.33 201.23V171.626Z" fill="white"/>
<path d="M1028 273H1180" stroke="white" stroke-width="3" stroke-linecap="round" stroke-dasharray="4 8"/>
<path d="M1189.51 267.909C1188.85 267.509 1188 267.989 1188 268.766V277.234C1188 278.011 1188.85 278.491 1189.51 278.091L1196.57 273.857C1197.22 273.469 1197.22 272.531 1196.57 272.143L1189.51 267.909Z" fill="white"/>
<circle cx="1152" cy="208" r="187" stroke="white" stroke-width="2"/>
<path d="M618.693 43.608C618.117 43.776 617.445 43.848 616.701 43.848H613.821V42.6C613.821 41.856 613.893 40.968 613.965 40.392H610.533C610.629 40.992 610.677 41.856 610.677 42.6V43.848H606.525C605.685 43.848 604.365 43.824 603.453 43.68V46.824C604.197 46.752 605.709 46.704 606.573 46.704H615.261C614.565 47.712 613.077 49.104 611.229 50.304C609.165 51.624 606.069 53.28 601.437 54.312L603.285 57.144C605.877 56.352 608.445 55.368 610.653 54.192V58.296C610.653 59.256 610.557 60.696 610.461 61.368H613.917C613.845 60.624 613.749 59.256 613.749 58.296C613.749 56.784 613.773 54.168 613.773 52.248C615.765 50.736 617.589 48.936 618.813 47.544C619.317 46.968 620.061 46.152 620.661 45.552L618.693 43.608ZM615.285 53.568C617.373 54.72 618.933 55.728 621.021 57.384L623.037 54.744C620.733 53.16 619.485 52.464 617.277 51.264L615.285 53.568ZM636.237 45.72L633.381 46.656C633.981 47.904 635.037 50.808 635.325 51.984L638.205 50.976C637.869 49.872 636.693 46.752 636.237 45.72ZM641.709 46.392C641.445 49.392 640.293 52.584 638.661 54.624C636.669 57.12 633.333 58.944 630.693 59.64L633.213 62.208C636.021 61.152 639.021 59.136 641.253 56.256C642.885 54.144 643.893 51.648 644.517 49.224C644.661 48.744 644.805 48.24 645.093 47.472L641.709 46.392ZM630.669 46.992L627.789 48.024C628.365 49.08 629.565 52.272 629.973 53.568L632.901 52.464C632.421 51.12 631.269 48.216 630.669 46.992ZM668.973 51.168C666.765 50.088 662.157 48.384 658.941 47.448V43.92C658.941 42.912 659.061 41.856 659.157 41.016H655.413C655.581 41.856 655.653 43.056 655.653 43.92V57.696C655.653 58.656 655.557 60.096 655.413 61.032H659.157C659.061 60.072 658.941 58.392 658.941 57.696V50.904C661.533 51.792 665.133 53.184 667.605 54.48L668.973 51.168ZM689.877 47.52L688.101 48.264C688.869 49.344 689.373 50.28 689.973 51.6L691.797 50.784C691.341 49.824 690.453 48.384 689.877 47.52ZM692.565 46.416L690.813 47.232C691.581 48.288 692.133 49.176 692.781 50.472L694.581 49.608C694.077 48.672 693.165 47.256 692.565 46.416ZM673.869 43.584L674.181 46.848C676.941 46.248 681.933 45.72 683.997 45.504C682.389 46.704 680.493 49.392 680.493 52.824C680.493 57.984 685.197 60.672 690.189 60.984L691.293 57.696C687.261 57.504 683.613 56.088 683.613 52.176C683.613 49.368 685.749 46.296 688.629 45.528C689.901 45.24 691.941 45.216 693.213 45.216L693.189 42.144C691.509 42.216 688.917 42.36 686.469 42.552C682.125 42.936 678.189 43.296 676.197 43.464C675.741 43.512 674.829 43.56 673.869 43.584ZM712.413 44.928L712.389 43.2C712.389 42.456 712.437 41.52 712.533 40.776H709.125C709.245 41.616 709.317 42.504 709.365 43.2C709.389 43.728 709.413 44.304 709.437 44.928H701.493C700.677 44.928 699.525 44.856 698.829 44.76V47.952C699.669 47.904 700.701 47.856 701.565 47.856H708.117C706.173 50.592 702.213 53.976 697.557 56.184L699.765 58.68C703.557 56.664 707.445 53.328 709.557 50.568C709.605 53.04 709.605 55.44 709.605 57.048C709.605 57.744 709.365 58.056 708.765 58.056C707.949 58.056 706.653 57.96 705.573 57.768L705.837 60.888C707.205 60.984 708.549 61.032 710.013 61.032C711.837 61.032 712.725 60.144 712.701 58.608C712.653 55.368 712.557 51.36 712.485 47.856H715.581C716.229 47.856 717.141 47.904 717.909 47.928V44.736C717.333 44.832 716.205 44.928 715.413 44.928H712.413ZM722.325 52.656C723.213 52.584 724.821 52.536 726.189 52.536H739.077C740.085 52.536 741.309 52.632 741.885 52.656V48.888C741.261 48.936 740.181 49.032 739.077 49.032H726.189C724.941 49.032 723.189 48.96 722.325 48.888V52.656ZM764.709 43.584C764.253 42.696 763.413 41.16 762.813 40.296L760.917 41.064C761.445 41.832 762.045 42.912 762.501 43.8C761.949 43.944 761.253 44.016 760.605 44.016H755.685L755.709 43.992C755.997 43.464 756.597 42.384 757.173 41.544L753.693 40.464C753.477 41.28 752.973 42.408 752.613 42.984C751.413 45.048 749.181 48.36 744.981 50.952L747.573 52.944C749.973 51.288 752.205 48.984 753.885 46.752H760.773C760.413 48.192 759.453 50.16 758.277 51.864C756.669 50.904 755.037 49.992 753.765 49.344L751.749 51.624C752.973 52.32 754.605 53.304 756.213 54.36C754.245 56.4 751.533 58.44 747.285 59.736L750.069 62.16C753.957 60.672 756.765 58.512 758.925 56.184C759.789 56.808 760.581 57.384 761.157 57.888L763.317 55.056C762.717 54.624 761.901 54.096 761.013 53.52C762.597 51.24 763.725 48.816 764.325 46.968C764.541 46.368 764.853 45.72 765.117 45.24L763.365 44.16L764.709 43.584ZM763.749 39.984C764.421 40.896 765.189 42.288 765.669 43.296L767.589 42.48C767.157 41.616 766.269 40.104 765.645 39.216L763.749 39.984ZM770.325 52.656C771.213 52.584 772.821 52.536 774.189 52.536H787.077C788.085 52.536 789.309 52.632 789.885 52.656V48.888C789.261 48.936 788.181 49.032 787.077 49.032H774.189C772.941 49.032 771.189 48.96 770.325 48.888V52.656ZM800.571 59.448C799.347 57.96 797.043 55.584 795.339 54.192L792.843 56.352C794.523 57.792 796.539 59.856 798.003 61.656L800.571 59.448ZM820.635 44.448H835.083V47.448H838.131V41.808H829.323V39.672H826.299V41.808H817.731V47.448H820.635V44.448ZM831.267 51.264C830.763 53.112 829.923 54.552 828.747 55.704C827.163 55.128 825.603 54.6 824.163 54.192C824.643 53.256 825.171 52.272 825.675 51.264H831.267ZM838.563 51.264V48.576H827.019C827.523 47.568 828.003 46.584 828.435 45.648L825.435 45.024C824.955 46.128 824.379 47.352 823.755 48.576H817.227V51.264H822.387C821.355 53.208 820.347 55.032 819.483 56.424L822.483 57.24L822.915 56.472C823.923 56.784 824.955 57.168 826.011 57.552C823.851 58.584 821.115 59.16 817.755 59.496C818.307 60.12 819.123 61.416 819.387 62.088C823.419 61.512 826.683 60.576 829.227 58.872C831.651 59.928 833.859 61.056 835.323 62.04L837.603 59.712C836.091 58.776 833.931 57.768 831.603 56.808C832.899 55.344 833.883 53.544 834.579 51.264H838.563ZM845.787 48.312C848.283 46.464 850.419 44.304 851.787 42.36C853.179 44.304 855.483 46.488 857.979 48.312H845.787ZM853.299 56.088H860.019V53.592H853.299V50.832H858.915V48.96C859.779 49.56 860.643 50.088 861.507 50.568C862.035 49.68 862.659 48.768 863.403 48C859.611 46.392 855.699 43.248 853.131 39.6H850.179C848.403 42.528 844.539 46.224 840.435 48.288C841.083 48.888 841.875 49.92 842.235 50.592C843.147 50.088 844.035 49.536 844.899 48.936V50.832H850.323V53.592H843.675V56.088H850.323V58.944H841.755V61.512H862.179V58.944H853.299V56.088ZM874.635 43.248L874.659 46.32C877.635 46.584 881.931 46.584 884.859 46.32V43.248C882.291 43.56 877.563 43.656 874.635 43.248ZM873.819 53.16C873.579 54.264 873.411 55.272 873.411 56.256C873.411 58.68 875.355 60.168 879.459 60.168C882.147 60.168 884.067 59.976 885.603 59.688L885.531 56.472C883.467 56.904 881.715 57.096 879.579 57.096C877.179 57.096 876.267 56.472 876.267 55.416C876.267 54.768 876.363 54.192 876.555 53.424L873.819 53.16ZM867.651 41.4C867.651 42.144 867.507 43.056 867.411 43.728C867.147 45.552 866.427 49.56 866.427 53.136C866.427 56.352 866.883 59.256 867.363 60.912L870.099 60.72C870.075 60.384 870.075 60 870.051 59.736C870.051 59.496 870.123 58.968 870.195 58.632C870.435 57.36 871.227 54.792 871.899 52.8L870.411 51.648C870.075 52.416 869.691 53.208 869.355 54.048C869.283 53.544 869.259 52.968 869.259 52.512C869.259 50.136 870.075 45.384 870.411 43.8C870.507 43.368 870.795 42.168 870.987 41.688L867.651 41.4ZM895.899 42.144C894.939 41.352 893.019 40.344 891.555 39.768L889.995 41.904C891.507 42.552 893.379 43.656 894.243 44.496L895.899 42.144ZM894.579 48.528C893.619 47.712 891.627 46.776 890.139 46.248L888.627 48.384C890.139 49.032 892.035 50.088 892.947 50.904L894.579 48.528ZM893.523 52.32C892.179 55.128 890.475 58.152 889.275 59.976L891.771 61.752C893.115 59.4 894.507 56.64 895.707 54.096L893.523 52.32ZM903.507 46.032H906.483V50.376H903.435C903.483 49.584 903.507 48.816 903.507 48.024V46.032ZM911.067 53.064V50.376H909.267V43.344H903.507V39.696H900.675V43.344H896.667V46.032H900.675V48C900.675 48.792 900.651 49.584 900.603 50.376H895.491V53.064H900.171C899.475 55.752 897.867 58.224 894.219 60.144C894.987 60.576 896.091 61.56 896.595 62.16C900.267 60.144 902.019 57.408 902.811 54.456C904.179 57.936 906.219 60.6 909.339 62.136C909.771 61.344 910.659 60.216 911.331 59.64C908.403 58.44 906.363 56.016 905.211 53.064H911.067ZM917.595 52.32C916.227 55.128 914.499 58.152 913.299 59.976L915.795 61.752C917.139 59.4 918.555 56.64 919.755 54.096L917.595 52.32ZM918.579 48.528C917.619 47.712 915.627 46.776 914.139 46.248L912.627 48.384C914.139 49.032 916.035 50.088 916.947 50.904L918.579 48.528ZM930.171 50.616V51.6H924.291V50.544H922.275C924.003 50.088 925.635 49.536 927.123 48.84C928.827 49.656 930.699 50.184 932.667 50.616H930.171ZM924.147 55.632C924.243 55.056 924.267 54.48 924.291 53.976H930.171V55.632H924.147ZM929.355 44.304C928.779 44.952 928.083 45.528 927.267 46.032C926.427 45.576 925.635 45 924.867 44.304H929.355ZM934.803 44.304V41.832H928.683V39.696H925.731V41.832H919.707V42C918.699 41.232 916.923 40.32 915.555 39.792L913.995 41.904C915.507 42.552 917.379 43.656 918.243 44.496L919.707 42.408V44.304H921.579C922.491 45.528 923.499 46.488 924.579 47.304C922.827 47.928 920.811 48.36 918.723 48.648C919.155 49.2 919.827 50.4 920.067 51.048C920.571 50.952 921.075 50.832 921.555 50.712V53.328C921.555 55.368 921.243 58.704 918.555 60.816C919.251 61.128 920.331 61.896 920.835 62.328C922.323 61.128 923.163 59.568 923.667 57.984H930.171V62.04H932.979V50.688L933.843 50.856C934.107 49.968 934.755 48.936 935.379 48.288C933.411 48.024 931.587 47.688 929.883 47.16C930.939 46.344 931.851 45.408 932.571 44.304H934.803Z" fill="white"/>
</svg>
