<svg width="1920" height="416" viewBox="0 0 1920 416" fill="none" xmlns="http://www.w3.org/2000/svg">
<rect width="1920" height="416" fill="#FBC02D"/>
<mask id="mask0" mask-type="alpha" maskUnits="userSpaceOnUse" x="671" y="42" width="164" height="164">
<circle cx="753" cy="124" r="80" stroke="white" stroke-width="3" stroke-linecap="round" stroke-dasharray="4 8"/>
</mask>
<g mask="url(#mask0)">
<path fill-rule="evenodd" clip-rule="evenodd" d="M833 36H673V92H821V80H833V36Z" fill="white"/>
</g>
<path d="M826.486 82.9087C827.152 82.5088 828 82.9889 828 83.7662V92.2338C828 93.0111 827.152 93.4912 826.486 93.0913L819.429 88.8575C818.782 88.4691 818.782 87.5309 819.429 87.1425L826.486 82.9087Z" fill="white"/>
<path fill-rule="evenodd" clip-rule="evenodd" d="M638.77 97.7399C636.43 100.08 636.43 103.89 638.77 106.23C641.11 108.6 644.89 108.6 647.26 106.23C649.6 103.89 649.6 100.08 647.26 97.7399C644.92 95.3999 641.11 95.3999 638.77 97.7399ZM660.79 135L676 150.21L671.71 154.5L661.21 144H646C641.02 144 637 139.98 637 135V117.75C637 114.03 640.03 111 643.75 111H643.84C644.86 111 645.85 111.27 646.72 111.69C647.5 112.05 648.22 112.56 648.79 113.19L652.99 117.84C656.17 121.35 662.02 124.02 667 123.96V130.44C661.3 130.44 654.7 127.41 650.5 123.96V135H660.79ZM655 147H637V153H655V147Z" fill="#616161"/>
<rect x="669.5" y="99.5" width="13" height="21" rx="1.5" stroke="white" stroke-width="3"/>
<path fill-rule="evenodd" clip-rule="evenodd" d="M664 56C664 69.2548 653.255 80 640 80C626.745 80 616 69.2548 616 56C616 42.7452 626.745 32 640 32C653.255 32 664 42.7452 664 56ZM637 85C637 86.6569 635.657 88 634 88C632.343 88 631 86.6569 631 85C631 83.3431 632.343 82 634 82C635.657 82 637 83.3431 637 85ZM636 94C637.105 94 638 93.1046 638 92C638 90.8954 637.105 90 636 90C634.895 90 634 90.8954 634 92C634 93.1046 634.895 94 636 94Z" fill="white"/>
<path d="M646.06 66.99H647.72C648.56 66.99 649.25 66.35 649.35 65.53L651 49.05H646V45H644.03V49.05H639.06L639.36 51.39C641.07 51.86 642.67 52.71 643.63 53.65C645.07 55.07 646.06 56.54 646.06 58.94V66.99ZM629 65.99V65H644.03V65.99C644.03 66.54 643.58 66.99 643.02 66.99H630.01C629.45 66.99 629 66.54 629 65.99ZM644.03 58.99C644.03 50.99 629 50.99 629 58.99H644.03ZM629.02 61H644.02V63H629.02V61Z" fill="#616161"/>
<path d="M908 102H860V108H908V102ZM911 132V126L908 111H860L857 126V132H860V150H890V132H902V150H908V132H911ZM884 144H866V132H884V144Z" fill="#616161"/>
<rect x="817.5" y="99.5" width="29" height="21" rx="1.5" stroke="white" stroke-width="3"/>
<circle cx="876" cy="70" r="24" fill="white"/>
<path d="M882.06 80.99H883.72C884.56 80.99 885.25 80.35 885.35 79.53L887 63.05H882V59H880.03V63.05H875.06L875.36 65.39C877.07 65.86 878.67 66.71 879.63 67.65C881.07 69.07 882.06 70.54 882.06 72.94V80.99ZM865 79.99V79H880.03V79.99C880.03 80.54 879.58 80.99 879.02 80.99H866.01C865.45 80.99 865 80.54 865 79.99ZM880.03 72.99C880.03 64.99 865 64.99 865 72.99H880.03ZM865.02 75H880.02V77H865.02V75Z" fill="#616161"/>
<path d="M852 94L864 90L856 82L852 94Z" fill="white"/>
<circle cx="911" cy="83" r="3" fill="white"/>
<path d="M908 52H914L913 76H909L908 52Z" fill="white"/>
<path d="M616 230C616 221.163 623.163 214 632 214H904C912.837 214 920 221.163 920 230V326C920 334.837 912.837 342 904 342H632C623.163 342 616 334.837 616 326V230Z" fill="#FAF9F9"/>
<path fill-rule="evenodd" clip-rule="evenodd" d="M871.093 286.413L871.089 286.409C868.716 284.025 864.709 280 857.18 280H841.94C825.44 279.94 812 266.5 812 250H800C800 268.96 812.66 285.04 830 290.26V302H866V298.3L869.7 302H886.646L871.34 286.66C871.26 286.58 871.178 286.497 871.093 286.413ZM898 313.38V313.7L898.16 313.54L898 313.38ZM848 274C854.627 274 860 268.627 860 262C860 255.373 854.627 250 848 250C841.373 250 836 255.373 836 262C836 268.627 841.373 274 848 274Z" fill="#616161"/>
<path d="M744 298H920V314H744V298Z" fill="#616161"/>
<path d="M782 266H778C778 260.48 773.52 256 768 256C762.48 256 758 260.48 758 266H754C751.8 266 750.02 267.8 750.02 270L750 294C750 296.2 751.8 298 754 298H782C784.2 298 786 296.2 786 294V270C786 267.8 784.2 266 782 266ZM768 260C771.32 260 774 262.68 774 266H762C762 262.68 764.68 260 768 260ZM768 280C762.48 280 758 275.52 758 270H762C762 273.32 764.68 276 768 276C771.32 276 774 273.32 774 270H778C778 275.52 773.52 280 768 280Z" fill="#FBC02D"/>
<path fill-rule="evenodd" clip-rule="evenodd" d="M709 259C709 265.6 703.6 271 697 271C690.4 271 685 265.6 685 259C685 252.4 690.4 247 697 247C703.6 247 709 252.4 709 259ZM664.752 342L674.8 291.4L664 295.6V316H652V287.8L683.2 274.6C684.1 274.6 684.85 274.45 685.6 274.3C686.35 274.15 687.1 274 688 274C692.2 274 695.8 276.4 698.2 280L704.2 289.6C709 298 718.6 304 730 304V316C716.8 316 704.8 310 697 301L693.4 319L706 331V342H694V340L681.4 328L678.25 342H664.752Z" fill="#616161"/>
<path d="M1056.36 108H1059.92V101.688H1062.29C1066.11 101.688 1069.16 99.864 1069.16 95.808C1069.16 91.608 1066.13 90.24 1062.2 90.24H1056.36V108ZM1059.92 98.88V93.048H1061.93C1064.38 93.048 1065.68 93.744 1065.68 95.808C1065.68 97.848 1064.5 98.88 1062.05 98.88H1059.92ZM1077.09 108.336C1080.45 108.336 1083.55 105.744 1083.55 101.304C1083.55 96.816 1080.45 94.224 1077.09 94.224C1073.73 94.224 1070.63 96.816 1070.63 101.304C1070.63 105.744 1073.73 108.336 1077.09 108.336ZM1077.09 105.456C1075.27 105.456 1074.23 103.824 1074.23 101.304C1074.23 98.76 1075.27 97.104 1077.09 97.104C1078.91 97.104 1079.95 98.76 1079.95 101.304C1079.95 103.824 1078.91 105.456 1077.09 105.456ZM1088.54 108H1092.57L1093.94 102.144C1094.23 100.896 1094.42 99.648 1094.69 98.232H1094.81C1095.07 99.648 1095.29 100.872 1095.57 102.144L1096.99 108H1101.14L1104.45 94.56H1101.19L1099.73 101.208C1099.46 102.504 1099.29 103.8 1099.05 105.12H1098.93C1098.65 103.8 1098.41 102.504 1098.09 101.208L1096.41 94.56H1093.27L1091.66 101.208C1091.33 102.48 1091.09 103.8 1090.82 105.12H1090.73C1090.49 103.8 1090.32 102.504 1090.05 101.208L1088.59 94.56H1085.06L1088.54 108ZM1112.67 108.336C1114.35 108.336 1116.06 107.76 1117.38 106.848L1116.18 104.688C1115.22 105.288 1114.26 105.624 1113.15 105.624C1111.16 105.624 1109.72 104.472 1109.43 102.264H1117.71C1117.81 101.952 1117.88 101.304 1117.88 100.656C1117.88 96.936 1115.96 94.224 1112.27 94.224C1109.05 94.224 1106 96.936 1106 101.304C1106 105.72 1108.93 108.336 1112.67 108.336ZM1109.39 99.936C1109.65 97.968 1110.9 96.96 1112.31 96.96C1114.04 96.96 1114.86 98.112 1114.86 99.936H1109.39ZM1120.79 108H1124.29V99.984C1125.06 98.04 1126.33 97.344 1127.39 97.344C1127.94 97.344 1128.32 97.416 1128.78 97.56L1129.4 94.512C1128.99 94.344 1128.56 94.224 1127.82 94.224C1126.43 94.224 1124.99 95.184 1124 96.936H1123.91L1123.67 94.56H1120.79V108ZM1136.79 108.336C1138.47 108.336 1140.17 107.76 1141.49 106.848L1140.29 104.688C1139.33 105.288 1138.37 105.624 1137.27 105.624C1135.28 105.624 1133.84 104.472 1133.55 102.264H1141.83C1141.93 101.952 1142 101.304 1142 100.656C1142 96.936 1140.08 94.224 1136.38 94.224C1133.17 94.224 1130.12 96.936 1130.12 101.304C1130.12 105.72 1133.05 108.336 1136.79 108.336ZM1133.5 99.936C1133.77 97.968 1135.01 96.96 1136.43 96.96C1138.16 96.96 1138.97 98.112 1138.97 99.936H1133.5ZM1149.63 108.336C1151.02 108.336 1152.37 107.568 1153.35 106.608H1153.42L1153.71 108H1156.57V88.848H1153.04V93.576L1153.18 95.688C1152.22 94.8 1151.29 94.224 1149.78 94.224C1146.87 94.224 1144.14 96.912 1144.14 101.304C1144.14 105.696 1146.3 108.336 1149.63 108.336ZM1150.54 105.432C1148.77 105.432 1147.76 104.04 1147.76 101.256C1147.76 98.568 1149.03 97.128 1150.54 97.128C1151.38 97.128 1152.22 97.392 1153.04 98.136V104.04C1152.27 105.048 1151.48 105.432 1150.54 105.432ZM1172.53 108.336C1175.48 108.336 1178.24 105.672 1178.24 101.04C1178.24 96.936 1176.25 94.224 1172.94 94.224C1171.62 94.224 1170.27 94.872 1169.22 95.832L1169.29 93.672V88.848H1165.79V108H1168.55L1168.86 106.584H1168.93C1170.03 107.712 1171.33 108.336 1172.53 108.336ZM1171.74 105.432C1171.02 105.432 1170.13 105.168 1169.29 104.424V98.52C1170.23 97.584 1171.04 97.128 1171.95 97.128C1173.8 97.128 1174.62 98.544 1174.62 101.112C1174.62 104.04 1173.37 105.432 1171.74 105.432ZM1182.22 113.4C1185.22 113.4 1186.66 111.576 1187.84 108.408L1192.61 94.56H1189.23L1187.38 100.8C1187.07 102.048 1186.73 103.344 1186.42 104.592H1186.3C1185.92 103.296 1185.58 102 1185.17 100.8L1183.04 94.56H1179.48L1184.72 107.76L1184.48 108.552C1184.09 109.728 1183.32 110.592 1181.96 110.592C1181.64 110.592 1181.26 110.496 1181.02 110.424L1180.37 113.136C1180.9 113.304 1181.43 113.4 1182.22 113.4ZM1200.55 108H1203.91V100.872C1203.91 98.832 1203.65 96.6 1203.48 94.68H1203.6L1205.4 98.496L1210.54 108H1214.14V90.24H1210.78V97.32C1210.78 99.336 1211.04 101.688 1211.23 103.536H1211.11L1209.34 99.696L1204.18 90.24H1200.55V108ZM1218.53 108H1222.08V101.688H1224.46C1228.27 101.688 1231.32 99.864 1231.32 95.808C1231.32 91.608 1228.3 90.24 1224.36 90.24H1218.53V108ZM1222.08 98.88V93.048H1224.1C1226.54 93.048 1227.84 93.744 1227.84 95.808C1227.84 97.848 1226.66 98.88 1224.22 98.88H1222.08ZM1241.59 108.336C1246.3 108.336 1249.54 104.808 1249.54 99.048C1249.54 93.288 1246.3 89.904 1241.59 89.904C1236.89 89.904 1233.65 93.264 1233.65 99.048C1233.65 104.808 1236.89 108.336 1241.59 108.336ZM1241.59 105.264C1238.95 105.264 1237.27 102.84 1237.27 99.048C1237.27 95.232 1238.95 92.952 1241.59 92.952C1244.23 92.952 1245.91 95.232 1245.91 99.048C1245.91 102.84 1244.23 105.264 1241.59 105.264Z" fill="white"/>
<path d="M1118.24 204.28C1121.66 204.28 1123.68 202.22 1123.68 199.8C1123.68 197.66 1122.5 196.52 1120.7 195.78L1118.76 194.96C1117.5 194.46 1116.44 194.08 1116.44 193.02C1116.44 192.04 1117.28 191.46 1118.58 191.46C1119.8 191.46 1120.78 191.9 1121.72 192.68L1123.22 190.82C1122.02 189.6 1120.3 188.92 1118.58 188.92C1115.58 188.92 1113.46 190.78 1113.46 193.2C1113.46 195.36 1114.96 196.56 1116.46 197.18L1118.44 198.02C1119.76 198.58 1120.66 198.92 1120.66 200.02C1120.66 201.06 1119.84 201.72 1118.3 201.72C1117 201.72 1115.6 201.06 1114.54 200.08L1112.84 202.12C1114.28 203.5 1116.26 204.28 1118.24 204.28ZM1130.92 204.28C1132.32 204.28 1133.74 203.8 1134.84 203.04L1133.84 201.24C1133.04 201.74 1132.24 202.02 1131.32 202.02C1129.66 202.02 1128.46 201.06 1128.22 199.22H1135.12C1135.2 198.96 1135.26 198.42 1135.26 197.88C1135.26 194.78 1133.66 192.52 1130.58 192.52C1127.9 192.52 1125.36 194.78 1125.36 198.42C1125.36 202.1 1127.8 204.28 1130.92 204.28ZM1128.18 197.28C1128.4 195.64 1129.44 194.8 1130.62 194.8C1132.06 194.8 1132.74 195.76 1132.74 197.28H1128.18ZM1137.68 204H1140.6V197.32C1141.24 195.7 1142.3 195.12 1143.18 195.12C1143.64 195.12 1143.96 195.18 1144.34 195.3L1144.86 192.76C1144.52 192.62 1144.16 192.52 1143.54 192.52C1142.38 192.52 1141.18 193.32 1140.36 194.78H1140.28L1140.08 192.8H1137.68V204ZM1149.19 204H1152.59L1156.33 192.8H1153.51L1151.87 198.38C1151.57 199.48 1151.25 200.64 1150.97 201.78H1150.87C1150.57 200.64 1150.25 199.48 1149.97 198.38L1148.33 192.8H1145.37L1149.19 204ZM1158.19 204H1161.11V192.8H1158.19V204ZM1159.67 191C1160.67 191 1161.41 190.32 1161.41 189.4C1161.41 188.44 1160.67 187.8 1159.67 187.8C1158.65 187.8 1157.91 188.44 1157.91 189.4C1157.91 190.32 1158.65 191 1159.67 191ZM1169.02 204.28C1170.26 204.28 1171.62 203.86 1172.68 202.92L1171.52 200.98C1170.9 201.5 1170.14 201.88 1169.34 201.88C1167.72 201.88 1166.56 200.52 1166.56 198.42C1166.56 196.3 1167.72 194.92 1169.42 194.92C1170.06 194.92 1170.58 195.18 1171.14 195.66L1172.54 193.76C1171.72 193.06 1170.66 192.52 1169.28 192.52C1166.24 192.52 1163.56 194.68 1163.56 198.42C1163.56 202.12 1165.92 204.28 1169.02 204.28ZM1179.07 204.28C1180.47 204.28 1181.89 203.8 1182.99 203.04L1181.99 201.24C1181.19 201.74 1180.39 202.02 1179.47 202.02C1177.81 202.02 1176.61 201.06 1176.37 199.22H1183.27C1183.35 198.96 1183.41 198.42 1183.41 197.88C1183.41 194.78 1181.81 192.52 1178.73 192.52C1176.05 192.52 1173.51 194.78 1173.51 198.42C1173.51 202.1 1175.95 204.28 1179.07 204.28ZM1176.33 197.28C1176.55 195.64 1177.59 194.8 1178.77 194.8C1180.21 194.8 1180.89 195.76 1180.89 197.28H1176.33ZM1190.6 204H1193.56V198H1198.82V195.52H1193.56V191.66H1199.72V189.2H1190.6V204ZM1206.55 204.28C1207.95 204.28 1209.37 203.8 1210.47 203.04L1209.47 201.24C1208.67 201.74 1207.87 202.02 1206.95 202.02C1205.29 202.02 1204.09 201.06 1203.85 199.22H1210.75C1210.83 198.96 1210.89 198.42 1210.89 197.88C1210.89 194.78 1209.29 192.52 1206.21 192.52C1203.53 192.52 1200.99 194.78 1200.99 198.42C1200.99 202.1 1203.43 204.28 1206.55 204.28ZM1203.81 197.28C1204.03 195.64 1205.07 194.8 1206.25 194.8C1207.69 194.8 1208.37 195.76 1208.37 197.28H1203.81ZM1218.17 204.28C1219.57 204.28 1220.99 203.8 1222.09 203.04L1221.09 201.24C1220.29 201.74 1219.49 202.02 1218.57 202.02C1216.91 202.02 1215.71 201.06 1215.47 199.22H1222.37C1222.45 198.96 1222.51 198.42 1222.51 197.88C1222.51 194.78 1220.91 192.52 1217.83 192.52C1215.15 192.52 1212.61 194.78 1212.61 198.42C1212.61 202.1 1215.05 204.28 1218.17 204.28ZM1215.43 197.28C1215.65 195.64 1216.69 194.8 1217.87 194.8C1219.31 194.8 1219.99 195.76 1219.99 197.28H1215.43Z" fill="#616161"/>
<path d="M1118.24 242.28C1121.66 242.28 1123.68 240.22 1123.68 237.8C1123.68 235.66 1122.5 234.52 1120.7 233.78L1118.76 232.96C1117.5 232.46 1116.44 232.08 1116.44 231.02C1116.44 230.04 1117.28 229.46 1118.58 229.46C1119.8 229.46 1120.78 229.9 1121.72 230.68L1123.22 228.82C1122.02 227.6 1120.3 226.92 1118.58 226.92C1115.58 226.92 1113.46 228.78 1113.46 231.2C1113.46 233.36 1114.96 234.56 1116.46 235.18L1118.44 236.02C1119.76 236.58 1120.66 236.92 1120.66 238.02C1120.66 239.06 1119.84 239.72 1118.3 239.72C1117 239.72 1115.6 239.06 1114.54 238.08L1112.84 240.12C1114.28 241.5 1116.26 242.28 1118.24 242.28ZM1128.82 242.28C1130.1 242.28 1131.22 241.64 1132.2 240.8H1132.26L1132.48 242H1134.88V235.46C1134.88 232.22 1133.42 230.52 1130.58 230.52C1128.82 230.52 1127.22 231.18 1125.9 232L1126.96 233.94C1128 233.34 1129 232.88 1130.04 232.88C1131.42 232.88 1131.9 233.72 1131.94 234.82C1127.44 235.3 1125.5 236.56 1125.5 238.96C1125.5 240.86 1126.82 242.28 1128.82 242.28ZM1129.78 239.98C1128.92 239.98 1128.3 239.6 1128.3 238.72C1128.3 237.72 1129.22 236.98 1131.94 236.62V238.88C1131.24 239.58 1130.62 239.98 1129.78 239.98ZM1140.64 242.28C1141.32 242.28 1141.82 242.16 1142.16 242.02L1141.8 239.84C1141.6 239.88 1141.52 239.88 1141.4 239.88C1141.12 239.88 1140.8 239.66 1140.8 239V226.04H1137.88V238.86C1137.88 240.94 1138.6 242.28 1140.64 242.28ZM1149.05 242.28C1150.45 242.28 1151.87 241.8 1152.97 241.04L1151.97 239.24C1151.17 239.74 1150.37 240.02 1149.45 240.02C1147.79 240.02 1146.59 239.06 1146.35 237.22H1153.25C1153.33 236.96 1153.39 236.42 1153.39 235.88C1153.39 232.78 1151.79 230.52 1148.71 230.52C1146.03 230.52 1143.49 232.78 1143.49 236.42C1143.49 240.1 1145.93 242.28 1149.05 242.28ZM1146.31 235.28C1146.53 233.64 1147.57 232.8 1148.75 232.8C1150.19 232.8 1150.87 233.76 1150.87 235.28H1146.31ZM1159.01 242.28C1161.93 242.28 1163.47 240.7 1163.47 238.74C1163.47 236.66 1161.83 235.92 1160.35 235.36C1159.17 234.92 1158.07 234.62 1158.07 233.8C1158.07 233.16 1158.55 232.72 1159.55 232.72C1160.39 232.72 1161.17 233.12 1161.97 233.68L1163.29 231.9C1162.35 231.2 1161.11 230.52 1159.47 230.52C1156.95 230.52 1155.31 231.94 1155.31 233.96C1155.31 235.82 1156.95 236.68 1158.37 237.22C1159.55 237.68 1160.71 238.06 1160.71 238.9C1160.71 239.6 1160.21 240.08 1159.09 240.08C1158.05 240.08 1157.09 239.64 1156.09 238.86L1154.75 240.7C1155.85 241.62 1157.51 242.28 1159.01 242.28ZM1176.52 242.28C1178.44 242.28 1180.02 241.52 1181.24 240.1L1179.68 238.26C1178.88 239.12 1177.88 239.72 1176.62 239.72C1174.28 239.72 1172.76 237.78 1172.76 234.56C1172.76 231.38 1174.44 229.46 1176.68 229.46C1177.8 229.46 1178.66 229.98 1179.4 230.7L1180.96 228.82C1180 227.82 1178.5 226.92 1176.62 226.92C1172.88 226.92 1169.74 229.78 1169.74 234.66C1169.74 239.6 1172.78 242.28 1176.52 242.28ZM1188.06 242.28C1190.86 242.28 1193.44 240.12 1193.44 236.42C1193.44 232.68 1190.86 230.52 1188.06 230.52C1185.26 230.52 1182.68 232.68 1182.68 236.42C1182.68 240.12 1185.26 242.28 1188.06 242.28ZM1188.06 239.88C1186.54 239.88 1185.68 238.52 1185.68 236.42C1185.68 234.3 1186.54 232.92 1188.06 232.92C1189.58 232.92 1190.44 234.3 1190.44 236.42C1190.44 238.52 1189.58 239.88 1188.06 239.88ZM1195.9 242H1198.82V234.3C1199.62 233.46 1200.34 233.04 1200.98 233.04C1202.04 233.04 1202.54 233.66 1202.54 235.38V242H1205.48V234.3C1206.28 233.46 1207 233.04 1207.64 233.04C1208.7 233.04 1209.2 233.66 1209.2 235.38V242H1212.14V235.02C1212.14 232.2 1211.04 230.52 1208.66 230.52C1207.2 230.52 1206.12 231.4 1205.1 232.48C1204.56 231.24 1203.62 230.52 1202.02 230.52C1200.56 230.52 1199.52 231.32 1198.58 232.3H1198.5L1198.3 230.8H1195.9V242ZM1215.18 242H1218.1V234.3C1218.9 233.46 1219.62 233.04 1220.26 233.04C1221.32 233.04 1221.82 233.66 1221.82 235.38V242H1224.76V234.3C1225.56 233.46 1226.28 233.04 1226.92 233.04C1227.98 233.04 1228.48 233.66 1228.48 235.38V242H1231.42V235.02C1231.42 232.2 1230.32 230.52 1227.94 230.52C1226.48 230.52 1225.4 231.4 1224.38 232.48C1223.84 231.24 1222.9 230.52 1221.3 230.52C1219.84 230.52 1218.8 231.32 1217.86 232.3H1217.78L1217.58 230.8H1215.18V242ZM1234.46 242H1237.38V230.8H1234.46V242ZM1235.94 229C1236.94 229 1237.68 228.32 1237.68 227.4C1237.68 226.44 1236.94 225.8 1235.94 225.8C1234.92 225.8 1234.18 226.44 1234.18 227.4C1234.18 228.32 1234.92 229 1235.94 229ZM1243.73 242.28C1246.65 242.28 1248.19 240.7 1248.19 238.74C1248.19 236.66 1246.55 235.92 1245.07 235.36C1243.89 234.92 1242.79 234.62 1242.79 233.8C1242.79 233.16 1243.27 232.72 1244.27 232.72C1245.11 232.72 1245.89 233.12 1246.69 233.68L1248.01 231.9C1247.07 231.2 1245.83 230.52 1244.19 230.52C1241.67 230.52 1240.03 231.94 1240.03 233.96C1240.03 235.82 1241.67 236.68 1243.09 237.22C1244.27 237.68 1245.43 238.06 1245.43 238.9C1245.43 239.6 1244.93 240.08 1243.81 240.08C1242.77 240.08 1241.81 239.64 1240.81 238.86L1239.47 240.7C1240.57 241.62 1242.23 242.28 1243.73 242.28ZM1253.64 242.28C1256.56 242.28 1258.1 240.7 1258.1 238.74C1258.1 236.66 1256.46 235.92 1254.98 235.36C1253.8 234.92 1252.7 234.62 1252.7 233.8C1252.7 233.16 1253.18 232.72 1254.18 232.72C1255.02 232.72 1255.8 233.12 1256.6 233.68L1257.92 231.9C1256.98 231.2 1255.74 230.52 1254.1 230.52C1251.58 230.52 1249.94 231.94 1249.94 233.96C1249.94 235.82 1251.58 236.68 1253 237.22C1254.18 237.68 1255.34 238.06 1255.34 238.9C1255.34 239.6 1254.84 240.08 1253.72 240.08C1252.68 240.08 1251.72 239.64 1250.72 238.86L1249.38 240.7C1250.48 241.62 1252.14 242.28 1253.64 242.28ZM1260.34 242H1263.26V230.8H1260.34V242ZM1261.82 229C1262.82 229 1263.56 228.32 1263.56 227.4C1263.56 226.44 1262.82 225.8 1261.82 225.8C1260.8 225.8 1260.06 226.44 1260.06 227.4C1260.06 228.32 1260.8 229 1261.82 229ZM1271.09 242.28C1273.89 242.28 1276.47 240.12 1276.47 236.42C1276.47 232.68 1273.89 230.52 1271.09 230.52C1268.29 230.52 1265.71 232.68 1265.71 236.42C1265.71 240.12 1268.29 242.28 1271.09 242.28ZM1271.09 239.88C1269.57 239.88 1268.71 238.52 1268.71 236.42C1268.71 234.3 1269.57 232.92 1271.09 232.92C1272.61 232.92 1273.47 234.3 1273.47 236.42C1273.47 238.52 1272.61 239.88 1271.09 239.88ZM1278.93 242H1281.85V234.3C1282.69 233.48 1283.27 233.04 1284.19 233.04C1285.29 233.04 1285.77 233.66 1285.77 235.38V242H1288.71V235.02C1288.71 232.2 1287.67 230.52 1285.25 230.52C1283.73 230.52 1282.59 231.32 1281.61 232.28H1281.53L1281.33 230.8H1278.93V242Z" fill="#616161"/>
<path d="M1025.05 313.82L1025.93 312.82L1026.81 313.82L1027.44 313.36L1026.77 312.22L1027.97 311.69L1027.73 310.95L1026.45 311.24L1026.33 309.92H1025.54L1025.41 311.24L1024.13 310.95L1023.89 311.69L1025.08 312.22L1024.42 313.36L1025.05 313.82ZM1029.37 318H1030.85V315.37H1031.84C1033.43 315.37 1034.7 314.61 1034.7 312.92C1034.7 311.17 1033.44 310.6 1031.8 310.6H1029.37V318ZM1030.85 314.2V311.77H1031.69C1032.71 311.77 1033.25 312.06 1033.25 312.92C1033.25 313.77 1032.76 314.2 1031.74 314.2H1030.85ZM1036.89 318.14C1037.53 318.14 1038.09 317.82 1038.58 317.4H1038.61L1038.72 318H1039.92V314.73C1039.92 313.11 1039.19 312.26 1037.77 312.26C1036.89 312.26 1036.09 312.59 1035.43 313L1035.96 313.97C1036.48 313.67 1036.98 313.44 1037.5 313.44C1038.19 313.44 1038.43 313.86 1038.45 314.41C1036.2 314.65 1035.23 315.28 1035.23 316.48C1035.23 317.43 1035.89 318.14 1036.89 318.14ZM1037.37 316.99C1036.94 316.99 1036.63 316.8 1036.63 316.36C1036.63 315.86 1037.09 315.49 1038.45 315.31V316.44C1038.1 316.79 1037.79 316.99 1037.37 316.99ZM1041.91 320.25C1043.16 320.25 1043.76 319.49 1044.25 318.17L1046.24 312.4H1044.83L1044.06 315C1043.93 315.52 1043.79 316.06 1043.66 316.58H1043.61C1043.45 316.04 1043.31 315.5 1043.14 315L1042.25 312.4H1040.77L1042.95 317.9L1042.85 318.23C1042.69 318.72 1042.37 319.08 1041.8 319.08C1041.67 319.08 1041.51 319.04 1041.41 319.01L1041.14 320.14C1041.36 320.21 1041.58 320.25 1041.91 320.25ZM1047.16 318H1048.62V314.15C1049.02 313.73 1049.38 313.52 1049.7 313.52C1050.23 313.52 1050.48 313.83 1050.48 314.69V318H1051.95V314.15C1052.35 313.73 1052.71 313.52 1053.03 313.52C1053.56 313.52 1053.81 313.83 1053.81 314.69V318H1055.28V314.51C1055.28 313.1 1054.73 312.26 1053.54 312.26C1052.81 312.26 1052.27 312.7 1051.76 313.24C1051.49 312.62 1051.02 312.26 1050.22 312.26C1049.49 312.26 1048.97 312.66 1048.5 313.15H1048.46L1048.36 312.4H1047.16V318ZM1059.23 318.14C1059.93 318.14 1060.64 317.9 1061.19 317.52L1060.69 316.62C1060.29 316.87 1059.89 317.01 1059.43 317.01C1058.6 317.01 1058 316.53 1057.88 315.61H1061.33C1061.37 315.48 1061.4 315.21 1061.4 314.94C1061.4 313.39 1060.6 312.26 1059.06 312.26C1057.72 312.26 1056.45 313.39 1056.45 315.21C1056.45 317.05 1057.67 318.14 1059.23 318.14ZM1057.86 314.64C1057.97 313.82 1058.49 313.4 1059.08 313.4C1059.8 313.4 1060.14 313.88 1060.14 314.64H1057.86ZM1062.61 318H1064.07V314.15C1064.49 313.74 1064.78 313.52 1065.24 313.52C1065.79 313.52 1066.03 313.83 1066.03 314.69V318H1067.5V314.51C1067.5 313.1 1066.98 312.26 1065.77 312.26C1065.01 312.26 1064.44 312.66 1063.95 313.14H1063.91L1063.81 312.4H1062.61V318ZM1071.07 318.14C1071.56 318.14 1071.95 318.03 1072.25 317.93L1072.01 316.86C1071.86 316.92 1071.64 316.98 1071.46 316.98C1070.96 316.98 1070.7 316.68 1070.7 316.04V313.56H1072.08V312.4H1070.7V310.9H1069.47L1069.3 312.4L1068.44 312.47V313.56H1069.23V316.04C1069.23 317.3 1069.74 318.14 1071.07 318.14ZM1078.74 310.08C1078.49 309.98 1078.11 309.88 1077.68 309.88C1076.27 309.88 1075.73 310.78 1075.73 311.95V312.41L1074.98 312.47V313.56H1075.73V318H1077.2V313.56H1078.25V312.4H1077.2V311.92C1077.2 311.3 1077.44 311.04 1077.88 311.04C1078.06 311.04 1078.28 311.09 1078.47 311.16L1078.74 310.08ZM1081.51 318.14C1082.21 318.14 1082.92 317.9 1083.47 317.52L1082.97 316.62C1082.57 316.87 1082.17 317.01 1081.71 317.01C1080.88 317.01 1080.28 316.53 1080.16 315.61H1083.61C1083.65 315.48 1083.68 315.21 1083.68 314.94C1083.68 313.39 1082.88 312.26 1081.34 312.26C1080 312.26 1078.73 313.39 1078.73 315.21C1078.73 317.05 1079.95 318.14 1081.51 318.14ZM1080.14 314.64C1080.25 313.82 1080.77 313.4 1081.36 313.4C1082.08 313.4 1082.42 313.88 1082.42 314.64H1080.14ZM1087.32 318.14C1088.02 318.14 1088.73 317.9 1089.28 317.52L1088.78 316.62C1088.38 316.87 1087.98 317.01 1087.52 317.01C1086.69 317.01 1086.09 316.53 1085.97 315.61H1089.42C1089.46 315.48 1089.49 315.21 1089.49 314.94C1089.49 313.39 1088.69 312.26 1087.15 312.26C1085.81 312.26 1084.54 313.39 1084.54 315.21C1084.54 317.05 1085.76 318.14 1087.32 318.14ZM1085.95 314.64C1086.06 313.82 1086.58 313.4 1087.17 313.4C1087.89 313.4 1088.23 313.88 1088.23 314.64H1085.95ZM1092.97 318H1094.43V312.4H1092.97V318ZM1093.71 311.5C1094.21 311.5 1094.58 311.16 1094.58 310.7C1094.58 310.22 1094.21 309.9 1093.71 309.9C1093.2 309.9 1092.83 310.22 1092.83 310.7C1092.83 311.16 1093.2 311.5 1093.71 311.5ZM1097.61 318.14C1099.07 318.14 1099.84 317.35 1099.84 316.37C1099.84 315.33 1099.02 314.96 1098.28 314.68C1097.69 314.46 1097.14 314.31 1097.14 313.9C1097.14 313.58 1097.38 313.36 1097.88 313.36C1098.3 313.36 1098.69 313.56 1099.09 313.84L1099.75 312.95C1099.28 312.6 1098.66 312.26 1097.84 312.26C1096.58 312.26 1095.76 312.97 1095.76 313.98C1095.76 314.91 1096.58 315.34 1097.29 315.61C1097.88 315.84 1098.46 316.03 1098.46 316.45C1098.46 316.8 1098.21 317.04 1097.65 317.04C1097.13 317.04 1096.65 316.82 1096.15 316.43L1095.48 317.35C1096.03 317.81 1096.86 318.14 1097.61 318.14ZM1103.22 318H1104.68V314.66C1105 313.85 1105.53 313.56 1105.97 313.56C1106.2 313.56 1106.36 313.59 1106.55 313.65L1106.81 312.38C1106.64 312.31 1106.46 312.26 1106.15 312.26C1105.57 312.26 1104.97 312.66 1104.56 313.39H1104.52L1104.42 312.4H1103.22V318ZM1109.89 318.14C1110.59 318.14 1111.3 317.9 1111.85 317.52L1111.35 316.62C1110.95 316.87 1110.55 317.01 1110.09 317.01C1109.26 317.01 1108.66 316.53 1108.54 315.61H1111.99C1112.03 315.48 1112.06 315.21 1112.06 314.94C1112.06 313.39 1111.26 312.26 1109.72 312.26C1108.38 312.26 1107.11 313.39 1107.11 315.21C1107.11 317.05 1108.33 318.14 1109.89 318.14ZM1108.52 314.64C1108.63 313.82 1109.15 313.4 1109.74 313.4C1110.46 313.4 1110.8 313.88 1110.8 314.64H1108.52ZM1116.66 320.15H1118.13V312.4H1116.98L1116.86 312.95H1116.82C1116.37 312.48 1115.92 312.26 1115.3 312.26C1114.09 312.26 1112.95 313.38 1112.95 315.21C1112.95 317.04 1113.85 318.14 1115.24 318.14C1115.79 318.14 1116.34 317.86 1116.72 317.47L1116.66 318.37V320.15ZM1115.62 316.93C1114.88 316.93 1114.46 316.35 1114.46 315.19C1114.46 314.07 1114.99 313.47 1115.62 313.47C1115.97 313.47 1116.32 313.58 1116.66 313.89V316.35C1116.34 316.77 1116.01 316.93 1115.62 316.93ZM1121.37 318.14C1122.14 318.14 1122.68 317.77 1123.16 317.2H1123.2L1123.31 318H1124.51V312.4H1123.04V316.18C1122.66 316.68 1122.36 316.88 1121.9 316.88C1121.36 316.88 1121.12 316.58 1121.12 315.71V312.4H1119.65V315.9C1119.65 317.3 1120.17 318.14 1121.37 318.14ZM1126.08 318H1127.54V312.4H1126.08V318ZM1126.82 311.5C1127.32 311.5 1127.69 311.16 1127.69 310.7C1127.69 310.22 1127.32 309.9 1126.82 309.9C1126.31 309.9 1125.94 310.22 1125.94 310.7C1125.94 311.16 1126.31 311.5 1126.82 311.5ZM1129.11 318H1130.57V314.66C1130.89 313.85 1131.42 313.56 1131.86 313.56C1132.09 313.56 1132.25 313.59 1132.44 313.65L1132.7 312.38C1132.53 312.31 1132.35 312.26 1132.04 312.26C1131.46 312.26 1130.86 312.66 1130.45 313.39H1130.41L1130.31 312.4H1129.11V318ZM1135.78 318.14C1136.48 318.14 1137.19 317.9 1137.74 317.52L1137.24 316.62C1136.84 316.87 1136.44 317.01 1135.98 317.01C1135.15 317.01 1134.55 316.53 1134.43 315.61H1137.88C1137.92 315.48 1137.95 315.21 1137.95 314.94C1137.95 313.39 1137.15 312.26 1135.61 312.26C1134.27 312.26 1133 313.39 1133 315.21C1133 317.05 1134.22 318.14 1135.78 318.14ZM1134.41 314.64C1134.52 313.82 1135.04 313.4 1135.63 313.4C1136.35 313.4 1136.69 313.88 1136.69 314.64H1134.41ZM1141.13 318.14C1141.71 318.14 1142.27 317.82 1142.68 317.42H1142.71L1142.83 318H1144.02V310.02H1142.55V311.99L1142.61 312.87C1142.21 312.5 1141.82 312.26 1141.19 312.26C1139.98 312.26 1138.84 313.38 1138.84 315.21C1138.84 317.04 1139.74 318.14 1141.13 318.14ZM1141.51 316.93C1140.77 316.93 1140.35 316.35 1140.35 315.19C1140.35 314.07 1140.88 313.47 1141.51 313.47C1141.86 313.47 1142.21 313.58 1142.55 313.89V316.35C1142.23 316.77 1141.9 316.93 1141.51 316.93ZM1150.67 318.14C1151.9 318.14 1153.05 317.03 1153.05 315.1C1153.05 313.39 1152.22 312.26 1150.84 312.26C1150.29 312.26 1149.73 312.53 1149.29 312.93L1149.32 312.03V310.02H1147.86V318H1149.01L1149.14 317.41H1149.17C1149.63 317.88 1150.17 318.14 1150.67 318.14ZM1150.34 316.93C1150.04 316.93 1149.67 316.82 1149.32 316.51V314.05C1149.71 313.66 1150.05 313.47 1150.43 313.47C1151.2 313.47 1151.54 314.06 1151.54 315.13C1151.54 316.35 1151.02 316.93 1150.34 316.93ZM1154.71 320.25C1155.96 320.25 1156.56 319.49 1157.05 318.17L1159.04 312.4H1157.63L1156.86 315C1156.73 315.52 1156.59 316.06 1156.46 316.58H1156.41C1156.25 316.04 1156.11 315.5 1155.94 315L1155.05 312.4H1153.57L1155.75 317.9L1155.65 318.23C1155.49 318.72 1155.17 319.08 1154.6 319.08C1154.47 319.08 1154.31 319.04 1154.21 319.01L1153.94 320.14C1154.16 320.21 1154.38 320.25 1154.71 320.25ZM1164.28 318.14C1164.77 318.14 1165.16 318.03 1165.46 317.93L1165.22 316.86C1165.07 316.92 1164.85 316.98 1164.67 316.98C1164.17 316.98 1163.91 316.68 1163.91 316.04V313.56H1165.29V312.4H1163.91V310.9H1162.68L1162.51 312.4L1161.65 312.47V313.56H1162.44V316.04C1162.44 317.3 1162.95 318.14 1164.28 318.14ZM1166.43 318H1167.89V314.15C1168.31 313.74 1168.6 313.52 1169.06 313.52C1169.61 313.52 1169.85 313.83 1169.85 314.69V318H1171.32V314.51C1171.32 313.1 1170.8 312.26 1169.59 312.26C1168.83 312.26 1168.28 312.66 1167.83 313.08L1167.89 312.03V310.02H1166.43V318ZM1175.25 318.14C1175.95 318.14 1176.66 317.9 1177.21 317.52L1176.71 316.62C1176.31 316.87 1175.91 317.01 1175.45 317.01C1174.62 317.01 1174.02 316.53 1173.9 315.61H1177.35C1177.39 315.48 1177.42 315.21 1177.42 314.94C1177.42 313.39 1176.62 312.26 1175.08 312.26C1173.74 312.26 1172.47 313.39 1172.47 315.21C1172.47 317.05 1173.69 318.14 1175.25 318.14ZM1173.88 314.64C1173.99 313.82 1174.51 313.4 1175.1 313.4C1175.82 313.4 1176.16 313.88 1176.16 314.64H1173.88ZM1183.28 318.14C1183.9 318.14 1184.58 317.93 1185.11 317.46L1184.53 316.49C1184.22 316.75 1183.84 316.94 1183.44 316.94C1182.63 316.94 1182.05 316.26 1182.05 315.21C1182.05 314.15 1182.63 313.46 1183.48 313.46C1183.8 313.46 1184.06 313.59 1184.34 313.83L1185.04 312.88C1184.63 312.53 1184.1 312.26 1183.41 312.26C1181.89 312.26 1180.55 313.34 1180.55 315.21C1180.55 317.06 1181.73 318.14 1183.28 318.14ZM1186.17 318H1187.63V314.66C1187.95 313.85 1188.48 313.56 1188.92 313.56C1189.15 313.56 1189.31 313.59 1189.5 313.65L1189.76 312.38C1189.59 312.31 1189.41 312.26 1189.1 312.26C1188.52 312.26 1187.92 312.66 1187.51 313.39H1187.47L1187.37 312.4H1186.17V318ZM1192.84 318.14C1193.54 318.14 1194.25 317.9 1194.8 317.52L1194.3 316.62C1193.9 316.87 1193.5 317.01 1193.04 317.01C1192.21 317.01 1191.61 316.53 1191.49 315.61H1194.94C1194.98 315.48 1195.01 315.21 1195.01 314.94C1195.01 313.39 1194.21 312.26 1192.67 312.26C1191.33 312.26 1190.06 313.39 1190.06 315.21C1190.06 317.05 1191.28 318.14 1192.84 318.14ZM1191.47 314.64C1191.58 313.82 1192.1 313.4 1192.69 313.4C1193.41 313.4 1193.75 313.88 1193.75 314.64H1191.47ZM1198.19 318.14C1198.77 318.14 1199.33 317.82 1199.74 317.42H1199.77L1199.89 318H1201.08V310.02H1199.61V311.99L1199.67 312.87C1199.27 312.5 1198.88 312.26 1198.25 312.26C1197.04 312.26 1195.9 313.38 1195.9 315.21C1195.9 317.04 1196.8 318.14 1198.19 318.14ZM1198.57 316.93C1197.83 316.93 1197.41 316.35 1197.41 315.19C1197.41 314.07 1197.94 313.47 1198.57 313.47C1198.92 313.47 1199.27 313.58 1199.61 313.89V316.35C1199.29 316.77 1198.96 316.93 1198.57 316.93ZM1202.66 318H1204.12V312.4H1202.66V318ZM1203.4 311.5C1203.9 311.5 1204.27 311.16 1204.27 310.7C1204.27 310.22 1203.9 309.9 1203.4 309.9C1202.89 309.9 1202.52 310.22 1202.52 310.7C1202.52 311.16 1202.89 311.5 1203.4 311.5ZM1207.75 318.14C1208.24 318.14 1208.63 318.03 1208.93 317.93L1208.69 316.86C1208.54 316.92 1208.32 316.98 1208.14 316.98C1207.64 316.98 1207.38 316.68 1207.38 316.04V313.56H1208.76V312.4H1207.38V310.9H1206.15L1205.98 312.4L1205.12 312.47V313.56H1205.91V316.04C1205.91 317.3 1206.42 318.14 1207.75 318.14ZM1214.54 318.14C1215.16 318.14 1215.84 317.93 1216.37 317.46L1215.79 316.49C1215.48 316.75 1215.1 316.94 1214.7 316.94C1213.89 316.94 1213.31 316.26 1213.31 315.21C1213.31 314.15 1213.89 313.46 1214.74 313.46C1215.06 313.46 1215.32 313.59 1215.6 313.83L1216.3 312.88C1215.89 312.53 1215.36 312.26 1214.67 312.26C1213.15 312.26 1211.81 313.34 1211.81 315.21C1211.81 317.06 1212.99 318.14 1214.54 318.14ZM1218.7 318.14C1219.34 318.14 1219.9 317.82 1220.39 317.4H1220.42L1220.53 318H1221.73V314.73C1221.73 313.11 1221 312.26 1219.58 312.26C1218.7 312.26 1217.9 312.59 1217.24 313L1217.77 313.97C1218.29 313.67 1218.79 313.44 1219.31 313.44C1220 313.44 1220.24 313.86 1220.26 314.41C1218.01 314.65 1217.04 315.28 1217.04 316.48C1217.04 317.43 1217.7 318.14 1218.7 318.14ZM1219.18 316.99C1218.75 316.99 1218.44 316.8 1218.44 316.36C1218.44 315.86 1218.9 315.49 1220.26 315.31V316.44C1219.91 316.79 1219.6 316.99 1219.18 316.99ZM1223.22 318H1224.68V314.66C1225 313.85 1225.53 313.56 1225.97 313.56C1226.2 313.56 1226.36 313.59 1226.55 313.65L1226.81 312.38C1226.64 312.31 1226.46 312.26 1226.15 312.26C1225.57 312.26 1224.97 312.66 1224.56 313.39H1224.52L1224.42 312.4H1223.22V318ZM1229.43 318.14C1230.01 318.14 1230.57 317.82 1230.98 317.42H1231.01L1231.13 318H1232.32V310.02H1230.85V311.99L1230.91 312.87C1230.51 312.5 1230.12 312.26 1229.49 312.26C1228.28 312.26 1227.14 313.38 1227.14 315.21C1227.14 317.04 1228.04 318.14 1229.43 318.14ZM1229.81 316.93C1229.07 316.93 1228.65 316.35 1228.65 315.19C1228.65 314.07 1229.18 313.47 1229.81 313.47C1230.16 313.47 1230.51 313.58 1230.85 313.89V316.35C1230.53 316.77 1230.2 316.93 1229.81 316.93ZM1238.54 318.14C1239.16 318.14 1239.84 317.93 1240.37 317.46L1239.79 316.49C1239.48 316.75 1239.1 316.94 1238.7 316.94C1237.89 316.94 1237.31 316.26 1237.31 315.21C1237.31 314.15 1237.89 313.46 1238.74 313.46C1239.06 313.46 1239.32 313.59 1239.6 313.83L1240.3 312.88C1239.89 312.53 1239.36 312.26 1238.67 312.26C1237.15 312.26 1235.81 313.34 1235.81 315.21C1235.81 317.06 1236.99 318.14 1238.54 318.14ZM1243.47 318.14C1244.87 318.14 1246.16 317.06 1246.16 315.21C1246.16 313.34 1244.87 312.26 1243.47 312.26C1242.07 312.26 1240.78 313.34 1240.78 315.21C1240.78 317.06 1242.07 318.14 1243.47 318.14ZM1243.47 316.94C1242.71 316.94 1242.28 316.26 1242.28 315.21C1242.28 314.15 1242.71 313.46 1243.47 313.46C1244.23 313.46 1244.66 314.15 1244.66 315.21C1244.66 316.26 1244.23 316.94 1243.47 316.94ZM1247.39 318H1248.85V314.15C1249.25 313.73 1249.61 313.52 1249.93 313.52C1250.46 313.52 1250.71 313.83 1250.71 314.69V318H1252.18V314.15C1252.58 313.73 1252.94 313.52 1253.26 313.52C1253.79 313.52 1254.04 313.83 1254.04 314.69V318H1255.51V314.51C1255.51 313.1 1254.96 312.26 1253.77 312.26C1253.04 312.26 1252.5 312.7 1251.99 313.24C1251.72 312.62 1251.25 312.26 1250.45 312.26C1249.72 312.26 1249.2 312.66 1248.73 313.15H1248.69L1248.59 312.4H1247.39V318ZM1257.03 320.15H1258.49V318.45L1258.45 317.53C1258.88 317.92 1259.35 318.14 1259.84 318.14C1261.07 318.14 1262.22 317.03 1262.22 315.11C1262.22 313.39 1261.4 312.26 1260.02 312.26C1259.42 312.26 1258.84 312.58 1258.37 312.98H1258.33L1258.23 312.4H1257.03V320.15ZM1259.51 316.93C1259.21 316.93 1258.85 316.82 1258.49 316.51V314.05C1258.88 313.66 1259.22 313.47 1259.6 313.47C1260.37 313.47 1260.71 314.06 1260.71 315.13C1260.71 316.35 1260.19 316.93 1259.51 316.93ZM1264.71 318.14C1265.35 318.14 1265.91 317.82 1266.4 317.4H1266.43L1266.54 318H1267.74V314.73C1267.74 313.11 1267.01 312.26 1265.59 312.26C1264.71 312.26 1263.91 312.59 1263.25 313L1263.78 313.97C1264.3 313.67 1264.8 313.44 1265.32 313.44C1266.01 313.44 1266.25 313.86 1266.27 314.41C1264.02 314.65 1263.05 315.28 1263.05 316.48C1263.05 317.43 1263.71 318.14 1264.71 318.14ZM1265.19 316.99C1264.76 316.99 1264.45 316.8 1264.45 316.36C1264.45 315.86 1264.91 315.49 1266.27 315.31V316.44C1265.92 316.79 1265.61 316.99 1265.19 316.99ZM1269.24 318H1270.7V314.15C1271.12 313.74 1271.41 313.52 1271.87 313.52C1272.42 313.52 1272.66 313.83 1272.66 314.69V318H1274.13V314.51C1274.13 313.1 1273.61 312.26 1272.4 312.26C1271.64 312.26 1271.07 312.66 1270.58 313.14H1270.54L1270.44 312.4H1269.24V318ZM1276.14 320.25C1277.39 320.25 1277.99 319.49 1278.48 318.17L1280.47 312.4H1279.06L1278.29 315C1278.16 315.52 1278.02 316.06 1277.89 316.58H1277.84C1277.68 316.04 1277.54 315.5 1277.37 315L1276.48 312.4H1275L1277.18 317.9L1277.08 318.23C1276.92 318.72 1276.6 319.08 1276.03 319.08C1275.9 319.08 1275.74 319.04 1275.64 319.01L1275.37 320.14C1275.59 320.21 1275.81 320.25 1276.14 320.25Z" fill="#616161"/>
<path d="M1001.82 291H1004.78V285H1010.04V282.52H1004.78V278.66H1010.94V276.2H1001.82V291ZM1012.81 291H1015.73V284.32C1016.37 282.7 1017.43 282.12 1018.31 282.12C1018.77 282.12 1019.09 282.18 1019.47 282.3L1019.99 279.76C1019.65 279.62 1019.29 279.52 1018.67 279.52C1017.51 279.52 1016.31 280.32 1015.49 281.78H1015.41L1015.21 279.8H1012.81V291ZM1026.15 291.28C1027.55 291.28 1028.97 290.8 1030.07 290.04L1029.07 288.24C1028.27 288.74 1027.47 289.02 1026.55 289.02C1024.89 289.02 1023.69 288.06 1023.45 286.22H1030.35C1030.43 285.96 1030.49 285.42 1030.49 284.88C1030.49 281.78 1028.89 279.52 1025.81 279.52C1023.13 279.52 1020.59 281.78 1020.59 285.42C1020.59 289.1 1023.03 291.28 1026.15 291.28ZM1023.41 284.28C1023.63 282.64 1024.67 281.8 1025.85 281.8C1027.29 281.8 1027.97 282.76 1027.97 284.28H1023.41ZM1037.77 291.28C1039.17 291.28 1040.59 290.8 1041.69 290.04L1040.69 288.24C1039.89 288.74 1039.09 289.02 1038.17 289.02C1036.51 289.02 1035.31 288.06 1035.07 286.22H1041.97C1042.05 285.96 1042.11 285.42 1042.11 284.88C1042.11 281.78 1040.51 279.52 1037.43 279.52C1034.75 279.52 1032.21 281.78 1032.21 285.42C1032.21 289.1 1034.65 291.28 1037.77 291.28ZM1035.03 284.28C1035.25 282.64 1036.29 281.8 1037.47 281.8C1038.91 281.8 1039.59 282.76 1039.59 284.28H1035.03Z" fill="white"/>
<path d="M1222.85 291H1225.81V285H1231.07V282.52H1225.81V278.66H1231.97V276.2H1222.85V291ZM1238.62 291.28C1241.42 291.28 1244 289.12 1244 285.42C1244 281.68 1241.42 279.52 1238.62 279.52C1235.82 279.52 1233.24 281.68 1233.24 285.42C1233.24 289.12 1235.82 291.28 1238.62 291.28ZM1238.62 288.88C1237.1 288.88 1236.24 287.52 1236.24 285.42C1236.24 283.3 1237.1 281.92 1238.62 281.92C1240.14 281.92 1241 283.3 1241 285.42C1241 287.52 1240.14 288.88 1238.62 288.88ZM1246.46 291H1249.38V284.32C1250.02 282.7 1251.08 282.12 1251.96 282.12C1252.42 282.12 1252.74 282.18 1253.12 282.3L1253.64 279.76C1253.3 279.62 1252.94 279.52 1252.32 279.52C1251.16 279.52 1249.96 280.32 1249.14 281.78H1249.06L1248.86 279.8H1246.46V291ZM1259.8 291.28C1261.2 291.28 1262.62 290.8 1263.72 290.04L1262.72 288.24C1261.92 288.74 1261.12 289.02 1260.2 289.02C1258.54 289.02 1257.34 288.06 1257.1 286.22H1264C1264.08 285.96 1264.14 285.42 1264.14 284.88C1264.14 281.78 1262.54 279.52 1259.46 279.52C1256.78 279.52 1254.24 281.78 1254.24 285.42C1254.24 289.1 1256.68 291.28 1259.8 291.28ZM1257.06 284.28C1257.28 282.64 1258.32 281.8 1259.5 281.8C1260.94 281.8 1261.62 282.76 1261.62 284.28H1257.06ZM1269 291H1272.4L1276.14 279.8H1273.32L1271.68 285.38C1271.38 286.48 1271.06 287.64 1270.78 288.78H1270.68C1270.38 287.64 1270.06 286.48 1269.78 285.38L1268.14 279.8H1265.18L1269 291ZM1282.71 291.28C1284.11 291.28 1285.53 290.8 1286.63 290.04L1285.63 288.24C1284.83 288.74 1284.03 289.02 1283.11 289.02C1281.45 289.02 1280.25 288.06 1280.01 286.22H1286.91C1286.99 285.96 1287.05 285.42 1287.05 284.88C1287.05 281.78 1285.45 279.52 1282.37 279.52C1279.69 279.52 1277.15 281.78 1277.15 285.42C1277.15 289.1 1279.59 291.28 1282.71 291.28ZM1279.97 284.28C1280.19 282.64 1281.23 281.8 1282.41 281.8C1283.85 281.8 1284.53 282.76 1284.53 284.28H1279.97ZM1289.47 291H1292.39V284.32C1293.03 282.7 1294.09 282.12 1294.97 282.12C1295.43 282.12 1295.75 282.18 1296.13 282.3L1296.65 279.76C1296.31 279.62 1295.95 279.52 1295.33 279.52C1294.17 279.52 1292.97 280.32 1292.15 281.78H1292.07L1291.87 279.8H1289.47V291ZM1299.34 285.96H1301.26L1301.68 278.58L1301.78 275.8H1298.82L1298.92 278.58L1299.34 285.96ZM1300.3 291.28C1301.34 291.28 1302.14 290.44 1302.14 289.36C1302.14 288.28 1301.34 287.44 1300.3 287.44C1299.26 287.44 1298.48 288.28 1298.48 289.36C1298.48 290.44 1299.26 291.28 1300.3 291.28Z" fill="white"/>
<path d="M1113.82 166H1116.78V151.2H1113.82V166ZM1120.18 166H1123.1V158.3C1123.94 157.48 1124.52 157.04 1125.44 157.04C1126.54 157.04 1127.02 157.66 1127.02 159.38V166H1129.96V159.02C1129.96 156.2 1128.92 154.52 1126.5 154.52C1124.98 154.52 1123.84 155.32 1122.86 156.28H1122.78L1122.58 154.8H1120.18V166ZM1132.99 166H1135.91V154.8H1132.99V166ZM1134.47 153C1135.47 153 1136.21 152.32 1136.21 151.4C1136.21 150.44 1135.47 149.8 1134.47 149.8C1133.45 149.8 1132.71 150.44 1132.71 151.4C1132.71 152.32 1133.45 153 1134.47 153ZM1143.17 166.28C1144.15 166.28 1144.93 166.06 1145.53 165.86L1145.05 163.72C1144.75 163.84 1144.31 163.96 1143.95 163.96C1142.95 163.96 1142.43 163.36 1142.43 162.08V157.12H1145.19V154.8H1142.43V151.8H1139.97L1139.63 154.8L1137.91 154.94V157.12H1139.49V162.08C1139.49 164.6 1140.51 166.28 1143.17 166.28ZM1147.47 166H1150.39V154.8H1147.47V166ZM1148.95 153C1149.95 153 1150.69 152.32 1150.69 151.4C1150.69 150.44 1149.95 149.8 1148.95 149.8C1147.93 149.8 1147.19 150.44 1147.19 151.4C1147.19 152.32 1147.93 153 1148.95 153ZM1156.3 166.28C1157.58 166.28 1158.7 165.64 1159.68 164.8H1159.74L1159.96 166H1162.36V159.46C1162.36 156.22 1160.9 154.52 1158.06 154.52C1156.3 154.52 1154.7 155.18 1153.38 156L1154.44 157.94C1155.48 157.34 1156.48 156.88 1157.52 156.88C1158.9 156.88 1159.38 157.72 1159.42 158.82C1154.92 159.3 1152.98 160.56 1152.98 162.96C1152.98 164.86 1154.3 166.28 1156.3 166.28ZM1157.26 163.98C1156.4 163.98 1155.78 163.6 1155.78 162.72C1155.78 161.72 1156.7 160.98 1159.42 160.62V162.88C1158.72 163.58 1158.1 163.98 1157.26 163.98ZM1168.12 166.28C1168.8 166.28 1169.3 166.16 1169.64 166.02L1169.28 163.84C1169.08 163.88 1169 163.88 1168.88 163.88C1168.6 163.88 1168.28 163.66 1168.28 163V150.04H1165.36V162.86C1165.36 164.94 1166.08 166.28 1168.12 166.28ZM1182.48 166.28C1184.4 166.28 1185.98 165.52 1187.2 164.1L1185.64 162.26C1184.84 163.12 1183.84 163.72 1182.58 163.72C1180.24 163.72 1178.72 161.78 1178.72 158.56C1178.72 155.38 1180.4 153.46 1182.64 153.46C1183.76 153.46 1184.62 153.98 1185.36 154.7L1186.92 152.82C1185.96 151.82 1184.46 150.92 1182.58 150.92C1178.84 150.92 1175.7 153.78 1175.7 158.66C1175.7 163.6 1178.74 166.28 1182.48 166.28ZM1194.02 166.28C1196.82 166.28 1199.4 164.12 1199.4 160.42C1199.4 156.68 1196.82 154.52 1194.02 154.52C1191.22 154.52 1188.64 156.68 1188.64 160.42C1188.64 164.12 1191.22 166.28 1194.02 166.28ZM1194.02 163.88C1192.5 163.88 1191.64 162.52 1191.64 160.42C1191.64 158.3 1192.5 156.92 1194.02 156.92C1195.54 156.92 1196.4 158.3 1196.4 160.42C1196.4 162.52 1195.54 163.88 1194.02 163.88ZM1204.96 166.28C1207.88 166.28 1209.42 164.7 1209.42 162.74C1209.42 160.66 1207.78 159.92 1206.3 159.36C1205.12 158.92 1204.02 158.62 1204.02 157.8C1204.02 157.16 1204.5 156.72 1205.5 156.72C1206.34 156.72 1207.12 157.12 1207.92 157.68L1209.24 155.9C1208.3 155.2 1207.06 154.52 1205.42 154.52C1202.9 154.52 1201.26 155.94 1201.26 157.96C1201.26 159.82 1202.9 160.68 1204.32 161.22C1205.5 161.68 1206.66 162.06 1206.66 162.9C1206.66 163.6 1206.16 164.08 1205.04 164.08C1204 164.08 1203.04 163.64 1202.04 162.86L1200.7 164.7C1201.8 165.62 1203.46 166.28 1204.96 166.28ZM1215.3 166.28C1216.28 166.28 1217.06 166.06 1217.66 165.86L1217.18 163.72C1216.88 163.84 1216.44 163.96 1216.08 163.96C1215.08 163.96 1214.56 163.36 1214.56 162.08V157.12H1217.32V154.8H1214.56V151.8H1212.1L1211.76 154.8L1210.04 154.94V157.12H1211.62V162.08C1211.62 164.6 1212.64 166.28 1215.3 166.28Z" fill="#616161"/>
<path d="M1096 206.781C1096 224.007 1092.44 237.184 1085.33 246.31C1078.22 255.437 1067.8 260 1054.09 260C1040.54 260 1030.18 255.522 1023.01 246.567C1015.84 237.611 1012.17 224.777 1012 208.064V185.134C1012 167.736 1015.59 154.531 1022.76 145.519C1029.98 136.506 1040.37 132 1053.91 132C1067.46 132 1077.82 136.478 1084.99 145.433C1092.16 154.332 1095.83 167.137 1096 183.85V206.781ZM1071.33 181.626C1071.33 171.301 1069.91 163.8 1067.06 159.123C1064.27 154.389 1059.89 152.021 1053.91 152.021C1048.11 152.021 1043.81 154.275 1041.02 158.781C1038.29 163.23 1036.84 170.217 1036.67 179.743V210.032C1036.67 220.185 1038.04 227.743 1040.77 232.706C1043.56 237.611 1048 240.064 1054.09 240.064C1060.12 240.064 1064.47 237.697 1067.15 232.963C1069.82 228.228 1071.22 220.984 1071.33 211.23V181.626Z" fill="white"/>
<path d="M1051 283H1195" stroke="white" stroke-width="3" stroke-linecap="round" stroke-dasharray="4 8"/>
<path d="M1204.51 277.909C1203.85 277.509 1203 277.989 1203 278.766V287.234C1203 288.011 1203.85 288.491 1204.51 288.091L1211.57 283.857C1212.22 283.469 1212.22 282.531 1211.57 282.143L1204.51 277.909Z" fill="white"/>
<path d="M701.267 182.336C705.971 182.336 709.211 178.808 709.211 173.048C709.211 167.288 705.971 163.904 701.267 163.904C696.563 163.904 693.323 167.264 693.323 173.048C693.323 178.808 696.563 182.336 701.267 182.336ZM701.267 179.264C698.627 179.264 696.947 176.84 696.947 173.048C696.947 169.232 698.627 166.952 701.267 166.952C703.907 166.952 705.587 169.232 705.587 173.048C705.587 176.84 703.907 179.264 701.267 179.264ZM712.392 182H715.896V173.984C716.664 172.04 717.936 171.344 718.992 171.344C719.544 171.344 719.928 171.416 720.384 171.56L721.008 168.512C720.6 168.344 720.168 168.224 719.424 168.224C718.032 168.224 716.592 169.184 715.608 170.936H715.512L715.272 168.56H712.392V182ZM727.292 182.336C728.684 182.336 730.028 181.568 731.012 180.608H731.084L731.372 182H734.228V162.848H730.7V167.576L730.844 169.688C729.884 168.8 728.948 168.224 727.436 168.224C724.532 168.224 721.796 170.912 721.796 175.304C721.796 179.696 723.956 182.336 727.292 182.336ZM728.204 179.432C726.428 179.432 725.42 178.04 725.42 175.256C725.42 172.568 726.692 171.128 728.204 171.128C729.044 171.128 729.884 171.392 730.7 172.136V178.04C729.932 179.048 729.14 179.432 728.204 179.432ZM743.841 182.336C745.521 182.336 747.225 181.76 748.545 180.848L747.345 178.688C746.385 179.288 745.425 179.624 744.321 179.624C742.329 179.624 740.889 178.472 740.601 176.264H748.881C748.977 175.952 749.049 175.304 749.049 174.656C749.049 170.936 747.129 168.224 743.433 168.224C740.217 168.224 737.169 170.936 737.169 175.304C737.169 179.72 740.097 182.336 743.841 182.336ZM740.553 173.936C740.817 171.968 742.065 170.96 743.481 170.96C745.209 170.96 746.025 172.112 746.025 173.936H740.553ZM751.955 182H755.459V173.984C756.227 172.04 757.499 171.344 758.555 171.344C759.107 171.344 759.491 171.416 759.947 171.56L760.571 168.512C760.163 168.344 759.731 168.224 758.987 168.224C757.595 168.224 756.155 169.184 755.171 170.936H755.075L754.835 168.56H751.955V182ZM775.189 182.336C779.893 182.336 783.133 178.808 783.133 173.048C783.133 167.288 779.893 163.904 775.189 163.904C770.485 163.904 767.245 167.264 767.245 173.048C767.245 178.808 770.485 182.336 775.189 182.336ZM775.189 179.264C772.549 179.264 770.869 176.84 770.869 173.048C770.869 169.232 772.549 166.952 775.189 166.952C777.829 166.952 779.509 169.232 779.509 173.048C779.509 176.84 777.829 179.264 775.189 179.264ZM786.314 182H789.818V172.76C790.826 171.776 791.522 171.248 792.626 171.248C793.946 171.248 794.522 171.992 794.522 174.056V182H798.05V173.624C798.05 170.24 796.802 168.224 793.898 168.224C792.074 168.224 790.706 169.184 789.53 170.336H789.434L789.194 168.56H786.314V182ZM805.001 182.336C805.817 182.336 806.417 182.192 806.825 182.024L806.393 179.408C806.153 179.456 806.057 179.456 805.913 179.456C805.577 179.456 805.193 179.192 805.193 178.4V162.848H801.689V178.232C801.689 180.728 802.553 182.336 805.001 182.336ZM809.259 182H812.763V168.56H809.259V182ZM811.035 166.4C812.235 166.4 813.123 165.584 813.123 164.48C813.123 163.328 812.235 162.56 811.035 162.56C809.811 162.56 808.923 163.328 808.923 164.48C808.923 165.584 809.811 166.4 811.035 166.4ZM816.548 182H820.052V172.76C821.06 171.776 821.756 171.248 822.86 171.248C824.18 171.248 824.756 171.992 824.756 174.056V182H828.284V173.624C828.284 170.24 827.036 168.224 824.132 168.224C822.308 168.224 820.94 169.184 819.764 170.336H819.668L819.428 168.56H816.548V182ZM837.755 182.336C839.435 182.336 841.139 181.76 842.459 180.848L841.259 178.688C840.299 179.288 839.339 179.624 838.235 179.624C836.243 179.624 834.803 178.472 834.515 176.264H842.795C842.891 175.952 842.963 175.304 842.963 174.656C842.963 170.936 841.043 168.224 837.347 168.224C834.131 168.224 831.083 170.936 831.083 175.304C831.083 179.72 834.011 182.336 837.755 182.336ZM834.467 173.936C834.731 171.968 835.979 170.96 837.395 170.96C839.123 170.96 839.939 172.112 839.939 173.936H834.467Z" fill="white"/>
<path d="M681.602 386H692.762V383.024H685.154V378.272H691.394V375.296H685.154V371.192H692.498V368.24H681.602V386ZM699.392 386.336C700.928 386.336 702.272 385.568 703.448 384.56H703.52L703.784 386H706.664V378.152C706.664 374.264 704.912 372.224 701.504 372.224C699.392 372.224 697.472 373.016 695.888 374L697.16 376.328C698.408 375.608 699.608 375.056 700.856 375.056C702.512 375.056 703.088 376.064 703.136 377.384C697.736 377.96 695.408 379.472 695.408 382.352C695.408 384.632 696.992 386.336 699.392 386.336ZM700.544 383.576C699.512 383.576 698.768 383.12 698.768 382.064C698.768 380.864 699.872 379.976 703.136 379.544V382.256C702.296 383.096 701.552 383.576 700.544 383.576ZM714.099 386.336C717.603 386.336 719.451 384.44 719.451 382.088C719.451 379.592 717.483 378.704 715.707 378.032C714.291 377.504 712.971 377.144 712.971 376.16C712.971 375.392 713.547 374.864 714.747 374.864C715.755 374.864 716.691 375.344 717.651 376.016L719.235 373.88C718.107 373.04 716.619 372.224 714.651 372.224C711.627 372.224 709.659 373.928 709.659 376.352C709.659 378.584 711.627 379.616 713.331 380.264C714.747 380.816 716.139 381.272 716.139 382.28C716.139 383.12 715.539 383.696 714.195 383.696C712.947 383.696 711.795 383.168 710.595 382.232L708.987 384.44C710.307 385.544 712.299 386.336 714.099 386.336ZM723.318 391.4C726.318 391.4 727.758 389.576 728.934 386.408L733.71 372.56H730.326L728.478 378.8C728.166 380.048 727.83 381.344 727.518 382.592H727.398C727.014 381.296 726.678 380 726.27 378.8L724.134 372.56H720.582L725.814 385.76L725.574 386.552C725.19 387.728 724.422 388.592 723.054 388.592C722.742 388.592 722.358 388.496 722.118 388.424L721.47 391.136C721.998 391.304 722.526 391.4 723.318 391.4ZM741.649 386H745.201V379.688H747.577C751.393 379.688 754.441 377.864 754.441 373.808C754.441 369.608 751.417 368.24 747.481 368.24H741.649V386ZM745.201 376.88V371.048H747.217C749.665 371.048 750.961 371.744 750.961 373.808C750.961 375.848 749.785 376.88 747.337 376.88H745.201ZM759.696 386.336C761.232 386.336 762.576 385.568 763.752 384.56H763.824L764.088 386H766.968V378.152C766.968 374.264 765.216 372.224 761.808 372.224C759.696 372.224 757.776 373.016 756.192 374L757.464 376.328C758.712 375.608 759.912 375.056 761.16 375.056C762.816 375.056 763.392 376.064 763.44 377.384C758.04 377.96 755.712 379.472 755.712 382.352C755.712 384.632 757.296 386.336 759.696 386.336ZM760.848 383.576C759.816 383.576 759.072 383.12 759.072 382.064C759.072 380.864 760.176 379.976 763.44 379.544V382.256C762.6 383.096 761.856 383.576 760.848 383.576ZM771.74 391.4C774.74 391.4 776.18 389.576 777.356 386.408L782.132 372.56H778.748L776.9 378.8C776.588 380.048 776.252 381.344 775.94 382.592H775.82C775.436 381.296 775.1 380 774.692 378.8L772.556 372.56H769.004L774.236 385.76L773.996 386.552C773.612 387.728 772.844 388.592 771.476 388.592C771.164 388.592 770.78 388.496 770.54 388.424L769.892 391.136C770.42 391.304 770.948 391.4 771.74 391.4ZM784.345 386H787.849V376.76C788.809 375.752 789.673 375.248 790.441 375.248C791.713 375.248 792.313 375.992 792.313 378.056V386H795.841V376.76C796.801 375.752 797.665 375.248 798.433 375.248C799.705 375.248 800.305 375.992 800.305 378.056V386H803.833V377.624C803.833 374.24 802.513 372.224 799.657 372.224C797.905 372.224 796.609 373.28 795.385 374.576C794.737 373.088 793.609 372.224 791.689 372.224C789.937 372.224 788.689 373.184 787.561 374.36H787.465L787.225 372.56H784.345V386ZM813.31 386.336C814.99 386.336 816.694 385.76 818.014 384.848L816.814 382.688C815.854 383.288 814.894 383.624 813.79 383.624C811.798 383.624 810.358 382.472 810.07 380.264H818.35C818.446 379.952 818.518 379.304 818.518 378.656C818.518 374.936 816.598 372.224 812.902 372.224C809.686 372.224 806.638 374.936 806.638 379.304C806.638 383.72 809.566 386.336 813.31 386.336ZM810.022 377.936C810.286 375.968 811.534 374.96 812.95 374.96C814.678 374.96 815.494 376.112 815.494 377.936H810.022ZM821.423 386H824.927V376.76C825.935 375.776 826.631 375.248 827.735 375.248C829.055 375.248 829.631 375.992 829.631 378.056V386H833.159V377.624C833.159 374.24 831.911 372.224 829.007 372.224C827.183 372.224 825.815 373.184 824.639 374.336H824.543L824.303 372.56H821.423V386ZM841.718 386.336C842.894 386.336 843.83 386.072 844.55 385.832L843.974 383.264C843.614 383.408 843.086 383.552 842.654 383.552C841.454 383.552 840.83 382.832 840.83 381.296V375.344H844.142V372.56H840.83V368.96H837.878L837.47 372.56L835.406 372.728V375.344H837.302V381.296C837.302 384.32 838.526 386.336 841.718 386.336ZM850.435 386.336C853.939 386.336 855.787 384.44 855.787 382.088C855.787 379.592 853.819 378.704 852.043 378.032C850.627 377.504 849.307 377.144 849.307 376.16C849.307 375.392 849.883 374.864 851.083 374.864C852.091 374.864 853.027 375.344 853.987 376.016L855.571 373.88C854.443 373.04 852.955 372.224 850.987 372.224C847.963 372.224 845.995 373.928 845.995 376.352C845.995 378.584 847.963 379.616 849.667 380.264C851.083 380.816 852.475 381.272 852.475 382.28C852.475 383.12 851.875 383.696 850.531 383.696C849.283 383.696 848.131 383.168 846.931 382.232L845.323 384.44C846.643 385.544 848.635 386.336 850.435 386.336Z" fill="white"/>
</svg>
