<svg width="1920" height="876" viewBox="0 0 1920 876" fill="none" xmlns="http://www.w3.org/2000/svg">
<rect width="1920" height="876" fill="#FBC02D"/>
<mask id="mask0" mask-type="alpha" maskUnits="userSpaceOnUse" x="863" y="131" width="164" height="164">
<circle cx="945" cy="213" r="80" stroke="white" stroke-width="3" stroke-linecap="round" stroke-dasharray="4 8"/>
</mask>
<g mask="url(#mask0)">
<path fill-rule="evenodd" clip-rule="evenodd" d="M1025 125H865V181H1013V169H1025V125Z" fill="white"/>
</g>
<path d="M1018.49 171.909C1019.15 171.509 1020 171.989 1020 172.766V181.234C1020 182.011 1019.15 182.491 1018.49 182.091L1011.43 177.857C1010.78 177.469 1010.78 176.531 1011.43 176.143L1018.49 171.909Z" fill="white"/>
<path fill-rule="evenodd" clip-rule="evenodd" d="M830.77 186.74C828.43 189.08 828.43 192.89 830.77 195.23C833.11 197.6 836.89 197.6 839.26 195.23C841.6 192.89 841.6 189.08 839.26 186.74C836.92 184.4 833.11 184.4 830.77 186.74ZM852.79 224L868 239.21L863.71 243.5L853.21 233H838C833.02 233 829 228.98 829 224V206.75C829 203.03 832.03 200 835.75 200H835.84C836.86 200 837.85 200.27 838.72 200.69C839.5 201.05 840.22 201.56 840.79 202.19L844.99 206.84C848.17 210.35 854.02 213.02 859 212.96V219.44C853.3 219.44 846.7 216.41 842.5 212.96V224H852.79ZM847 236H829V242H847V236Z" fill="#616161"/>
<rect x="861.5" y="188.5" width="13" height="21" rx="1.5" stroke="white" stroke-width="3"/>
<path fill-rule="evenodd" clip-rule="evenodd" d="M856 145C856 158.255 845.255 169 832 169C818.745 169 808 158.255 808 145C808 131.745 818.745 121 832 121C845.255 121 856 131.745 856 145ZM829 174C829 175.657 827.657 177 826 177C824.343 177 823 175.657 823 174C823 172.343 824.343 171 826 171C827.657 171 829 172.343 829 174ZM828 183C829.105 183 830 182.105 830 181C830 179.895 829.105 179 828 179C826.895 179 826 179.895 826 181C826 182.105 826.895 183 828 183Z" fill="white"/>
<path d="M838.06 155.99H839.72C840.56 155.99 841.25 155.35 841.35 154.53L843 138.05H838V134H836.03V138.05H831.06L831.36 140.39C833.07 140.86 834.67 141.71 835.63 142.65C837.07 144.07 838.06 145.54 838.06 147.94V155.99V155.99ZM821 154.99V154H836.03V154.99C836.03 155.54 835.58 155.99 835.02 155.99H822.01C821.45 155.99 821 155.54 821 154.99V154.99ZM836.03 147.99C836.03 139.99 821 139.99 821 147.99H836.03ZM821.02 150H836.02V152H821.02V150Z" fill="#616161"/>
<path d="M1100 191H1052V197H1100V191ZM1103 221V215L1100 200H1052L1049 215V221H1052V239H1082V221H1094V239H1100V221H1103ZM1076 233H1058V221H1076V233Z" fill="#616161"/>
<rect x="1009.5" y="188.5" width="29" height="21" rx="1.5" stroke="white" stroke-width="3"/>
<circle cx="1068" cy="159" r="24" fill="white"/>
<path d="M1074.06 169.99H1075.72C1076.56 169.99 1077.25 169.35 1077.35 168.53L1079 152.05H1074V148H1072.03V152.05H1067.06L1067.36 154.39C1069.07 154.86 1070.67 155.71 1071.63 156.65C1073.07 158.07 1074.06 159.54 1074.06 161.94V169.99V169.99ZM1057 168.99V168H1072.03V168.99C1072.03 169.54 1071.58 169.99 1071.02 169.99H1058.01C1057.45 169.99 1057 169.54 1057 168.99V168.99ZM1072.03 161.99C1072.03 153.99 1057 153.99 1057 161.99H1072.03ZM1057.02 164H1072.02V166H1057.02V164Z" fill="#616161"/>
<path d="M1044 183L1056 179L1048 171L1044 183Z" fill="white"/>
<circle cx="1103" cy="172" r="3" fill="white"/>
<path d="M1100 141H1106L1105 165H1101L1100 141Z" fill="white"/>
<path d="M882.145 80.392C887.633 80.392 891.413 76.276 891.413 69.556C891.413 62.836 887.633 58.888 882.145 58.888C876.657 58.888 872.877 62.808 872.877 69.556C872.877 76.276 876.657 80.392 882.145 80.392ZM882.145 76.808C879.065 76.808 877.105 73.98 877.105 69.556C877.105 65.104 879.065 62.444 882.145 62.444C885.225 62.444 887.185 65.104 887.185 69.556C887.185 73.98 885.225 76.808 882.145 76.808ZM895.124 80H899.212V70.648C900.108 68.38 901.592 67.568 902.824 67.568C903.468 67.568 903.916 67.652 904.448 67.82L905.176 64.264C904.7 64.068 904.196 63.928 903.328 63.928C901.704 63.928 900.024 65.048 898.876 67.092H898.764L898.484 64.32H895.124V80ZM912.507 80.392C914.131 80.392 915.699 79.496 916.847 78.376H916.931L917.267 80H920.599V57.656H916.483V63.172L916.651 65.636C915.531 64.6 914.439 63.928 912.675 63.928C909.287 63.928 906.095 67.064 906.095 72.188C906.095 77.312 908.615 80.392 912.507 80.392ZM913.571 77.004C911.499 77.004 910.323 75.38 910.323 72.132C910.323 68.996 911.807 67.316 913.571 67.316C914.551 67.316 915.531 67.624 916.483 68.492V75.38C915.587 76.556 914.663 77.004 913.571 77.004ZM931.815 80.392C933.775 80.392 935.763 79.72 937.303 78.656L935.903 76.136C934.783 76.836 933.663 77.228 932.375 77.228C930.051 77.228 928.371 75.884 928.035 73.308H937.695C937.807 72.944 937.891 72.188 937.891 71.432C937.891 67.092 935.651 63.928 931.339 63.928C927.587 63.928 924.031 67.092 924.031 72.188C924.031 77.34 927.447 80.392 931.815 80.392ZM927.979 70.592C928.287 68.296 929.743 67.12 931.395 67.12C933.411 67.12 934.363 68.464 934.363 70.592H927.979ZM941.28 80H945.368V70.648C946.264 68.38 947.748 67.568 948.98 67.568C949.624 67.568 950.072 67.652 950.604 67.82L951.332 64.264C950.856 64.068 950.352 63.928 949.484 63.928C947.86 63.928 946.18 65.048 945.032 67.092H944.92L944.64 64.32H941.28V80ZM968.387 80.392C973.875 80.392 977.655 76.276 977.655 69.556C977.655 62.836 973.875 58.888 968.387 58.888C962.899 58.888 959.119 62.808 959.119 69.556C959.119 76.276 962.899 80.392 968.387 80.392ZM968.387 76.808C965.307 76.808 963.347 73.98 963.347 69.556C963.347 65.104 965.307 62.444 968.387 62.444C971.467 62.444 973.427 65.104 973.427 69.556C973.427 73.98 971.467 76.808 968.387 76.808ZM981.366 80H985.454V69.22C986.63 68.072 987.442 67.456 988.73 67.456C990.27 67.456 990.942 68.324 990.942 70.732V80H995.058V70.228C995.058 66.28 993.602 63.928 990.214 63.928C988.086 63.928 986.49 65.048 985.118 66.392H985.006L984.726 64.32H981.366V80ZM1003.17 80.392C1004.12 80.392 1004.82 80.224 1005.3 80.028L1004.79 76.976C1004.51 77.032 1004.4 77.032 1004.23 77.032C1003.84 77.032 1003.39 76.724 1003.39 75.8V57.656H999.304V75.604C999.304 78.516 1000.31 80.392 1003.17 80.392ZM1008.14 80H1012.22V64.32H1008.14V80ZM1010.21 61.8C1011.61 61.8 1012.64 60.848 1012.64 59.56C1012.64 58.216 1011.61 57.32 1010.21 57.32C1008.78 57.32 1007.74 58.216 1007.74 59.56C1007.74 60.848 1008.78 61.8 1010.21 61.8ZM1016.64 80H1020.73V69.22C1021.9 68.072 1022.72 67.456 1024 67.456C1025.54 67.456 1026.22 68.324 1026.22 70.732V80H1030.33V70.228C1030.33 66.28 1028.88 63.928 1025.49 63.928C1023.36 63.928 1021.76 65.048 1020.39 66.392H1020.28L1020 64.32H1016.64V80ZM1041.38 80.392C1043.34 80.392 1045.33 79.72 1046.87 78.656L1045.47 76.136C1044.35 76.836 1043.23 77.228 1041.94 77.228C1039.62 77.228 1037.94 75.884 1037.6 73.308H1047.26C1047.37 72.944 1047.46 72.188 1047.46 71.432C1047.46 67.092 1045.22 63.928 1040.91 63.928C1037.15 63.928 1033.6 67.092 1033.6 72.188C1033.6 77.34 1037.01 80.392 1041.38 80.392ZM1037.55 70.592C1037.85 68.296 1039.31 67.12 1040.96 67.12C1042.98 67.12 1043.93 68.464 1043.93 70.592H1037.55Z" fill="white"/>
<path d="M859.702 307H872.722V303.528H863.846V297.984H871.126V294.512H863.846V289.724H872.414V286.28H859.702V307ZM880.457 307.392C882.249 307.392 883.817 306.496 885.189 305.32H885.273L885.581 307H888.941V297.844C888.941 293.308 886.897 290.928 882.921 290.928C880.457 290.928 878.217 291.852 876.369 293L877.853 295.716C879.309 294.876 880.709 294.232 882.165 294.232C884.097 294.232 884.769 295.408 884.825 296.948C878.525 297.62 875.809 299.384 875.809 302.744C875.809 305.404 877.657 307.392 880.457 307.392ZM881.801 304.172C880.597 304.172 879.729 303.64 879.729 302.408C879.729 301.008 881.017 299.972 884.825 299.468V302.632C883.845 303.612 882.977 304.172 881.801 304.172ZM897.616 307.392C901.704 307.392 903.86 305.18 903.86 302.436C903.86 299.524 901.564 298.488 899.492 297.704C897.84 297.088 896.3 296.668 896.3 295.52C896.3 294.624 896.972 294.008 898.372 294.008C899.548 294.008 900.64 294.568 901.76 295.352L903.608 292.86C902.292 291.88 900.556 290.928 898.26 290.928C894.732 290.928 892.436 292.916 892.436 295.744C892.436 298.348 894.732 299.552 896.72 300.308C898.372 300.952 899.996 301.484 899.996 302.66C899.996 303.64 899.296 304.312 897.728 304.312C896.272 304.312 894.928 303.696 893.528 302.604L891.652 305.18C893.192 306.468 895.516 307.392 897.616 307.392ZM908.371 313.3C911.871 313.3 913.551 311.172 914.923 307.476L920.495 291.32H916.547L914.391 298.6C914.027 300.056 913.635 301.568 913.271 303.024H913.131C912.683 301.512 912.291 300 911.815 298.6L909.323 291.32H905.179L911.283 306.72L911.003 307.644C910.555 309.016 909.659 310.024 908.063 310.024C907.699 310.024 907.251 309.912 906.971 309.828L906.215 312.992C906.831 313.188 907.447 313.3 908.371 313.3ZM929.757 307H933.901V299.636H936.673C941.125 299.636 944.681 297.508 944.681 292.776C944.681 287.876 941.153 286.28 936.561 286.28H929.757V307ZM933.901 296.36V289.556H936.253C939.109 289.556 940.621 290.368 940.621 292.776C940.621 295.156 939.249 296.36 936.393 296.36H933.901ZM950.812 307.392C952.604 307.392 954.172 306.496 955.544 305.32H955.628L955.936 307H959.296V297.844C959.296 293.308 957.252 290.928 953.276 290.928C950.812 290.928 948.572 291.852 946.724 293L948.208 295.716C949.664 294.876 951.064 294.232 952.52 294.232C954.452 294.232 955.124 295.408 955.18 296.948C948.88 297.62 946.164 299.384 946.164 302.744C946.164 305.404 948.012 307.392 950.812 307.392ZM952.156 304.172C950.952 304.172 950.084 303.64 950.084 302.408C950.084 301.008 951.372 299.972 955.18 299.468V302.632C954.2 303.612 953.332 304.172 952.156 304.172ZM964.863 313.3C968.363 313.3 970.043 311.172 971.415 307.476L976.987 291.32H973.039L970.883 298.6C970.519 300.056 970.127 301.568 969.763 303.024H969.623C969.175 301.512 968.783 300 968.307 298.6L965.815 291.32H961.671L967.775 306.72L967.495 307.644C967.047 309.016 966.151 310.024 964.555 310.024C964.191 310.024 963.743 309.912 963.463 309.828L962.707 312.992C963.323 313.188 963.939 313.3 964.863 313.3ZM979.569 307H983.657V296.22C984.777 295.044 985.785 294.456 986.681 294.456C988.165 294.456 988.865 295.324 988.865 297.732V307H992.981V296.22C994.101 295.044 995.109 294.456 996.005 294.456C997.489 294.456 998.189 295.324 998.189 297.732V307H1002.31V297.228C1002.31 293.28 1000.77 290.928 997.433 290.928C995.389 290.928 993.877 292.16 992.449 293.672C991.693 291.936 990.377 290.928 988.137 290.928C986.093 290.928 984.637 292.048 983.321 293.42H983.209L982.929 291.32H979.569V307ZM1013.36 307.392C1015.32 307.392 1017.31 306.72 1018.85 305.656L1017.45 303.136C1016.33 303.836 1015.21 304.228 1013.92 304.228C1011.6 304.228 1009.92 302.884 1009.58 300.308H1019.24C1019.35 299.944 1019.44 299.188 1019.44 298.432C1019.44 294.092 1017.2 290.928 1012.89 290.928C1009.13 290.928 1005.58 294.092 1005.58 299.188C1005.58 304.34 1008.99 307.392 1013.36 307.392ZM1009.53 297.592C1009.83 295.296 1011.29 294.12 1012.94 294.12C1014.96 294.12 1015.91 295.464 1015.91 297.592H1009.53ZM1022.83 307H1026.92V296.22C1028.09 295.072 1028.9 294.456 1030.19 294.456C1031.73 294.456 1032.4 295.324 1032.4 297.732V307H1036.52V297.228C1036.52 293.28 1035.06 290.928 1031.68 290.928C1029.55 290.928 1027.95 292.048 1026.58 293.392H1026.47L1026.19 291.32H1022.83V307ZM1046.5 307.392C1047.88 307.392 1048.97 307.084 1049.81 306.804L1049.14 303.808C1048.72 303.976 1048.1 304.144 1047.6 304.144C1046.2 304.144 1045.47 303.304 1045.47 301.512V294.568H1049.33V291.32H1045.47V287.12H1042.02L1041.55 291.32L1039.14 291.516V294.568H1041.35V301.512C1041.35 305.04 1042.78 307.392 1046.5 307.392ZM1056.67 307.392C1060.76 307.392 1062.92 305.18 1062.92 302.436C1062.92 299.524 1060.62 298.488 1058.55 297.704C1056.9 297.088 1055.36 296.668 1055.36 295.52C1055.36 294.624 1056.03 294.008 1057.43 294.008C1058.61 294.008 1059.7 294.568 1060.82 295.352L1062.67 292.86C1061.35 291.88 1059.61 290.928 1057.32 290.928C1053.79 290.928 1051.49 292.916 1051.49 295.744C1051.49 298.348 1053.79 299.552 1055.78 300.308C1057.43 300.952 1059.05 301.484 1059.05 302.66C1059.05 303.64 1058.35 304.312 1056.79 304.312C1055.33 304.312 1053.99 303.696 1052.59 302.604L1050.71 305.18C1052.25 306.468 1054.57 307.392 1056.67 307.392Z" fill="white"/>
<path d="M847.841 598H851.985V590.636H854.757C859.209 590.636 862.765 588.508 862.765 583.776C862.765 578.876 859.237 577.28 854.645 577.28H847.841V598ZM851.985 587.36V580.556H854.337C857.193 580.556 858.705 581.368 858.705 583.776C858.705 586.156 857.333 587.36 854.477 587.36H851.985ZM872.022 598.392C875.942 598.392 879.554 595.368 879.554 590.188C879.554 584.952 875.942 581.928 872.022 581.928C868.102 581.928 864.49 584.952 864.49 590.188C864.49 595.368 868.102 598.392 872.022 598.392ZM872.022 595.032C869.894 595.032 868.69 593.128 868.69 590.188C868.69 587.22 869.894 585.288 872.022 585.288C874.15 585.288 875.354 587.22 875.354 590.188C875.354 593.128 874.15 595.032 872.022 595.032ZM885.382 598H890.086L891.682 591.168C892.018 589.712 892.242 588.256 892.55 586.604H892.69C892.998 588.256 893.25 589.684 893.586 591.168L895.238 598H900.082L903.946 582.32H900.138L898.43 590.076C898.122 591.588 897.926 593.1 897.646 594.64H897.506C897.17 593.1 896.89 591.588 896.526 590.076L894.566 582.32H890.898L889.022 590.076C888.63 591.56 888.35 593.1 888.042 594.64H887.93C887.65 593.1 887.454 591.588 887.146 590.076L885.438 582.32H881.322L885.382 598ZM913.536 598.392C915.496 598.392 917.484 597.72 919.024 596.656L917.624 594.136C916.504 594.836 915.384 595.228 914.096 595.228C911.772 595.228 910.092 593.884 909.756 591.308H919.416C919.528 590.944 919.612 590.188 919.612 589.432C919.612 585.092 917.372 581.928 913.06 581.928C909.308 581.928 905.752 585.092 905.752 590.188C905.752 595.34 909.168 598.392 913.536 598.392ZM909.7 588.592C910.008 586.296 911.464 585.12 913.116 585.12C915.132 585.12 916.084 586.464 916.084 588.592H909.7ZM923.001 598H927.089V588.648C927.985 586.38 929.469 585.568 930.701 585.568C931.345 585.568 931.793 585.652 932.325 585.82L933.053 582.264C932.577 582.068 932.073 581.928 931.205 581.928C929.581 581.928 927.901 583.048 926.753 585.092H926.641L926.361 582.32H923.001V598ZM941.672 598.392C943.632 598.392 945.62 597.72 947.16 596.656L945.76 594.136C944.64 594.836 943.52 595.228 942.232 595.228C939.908 595.228 938.228 593.884 937.892 591.308H947.552C947.664 590.944 947.748 590.188 947.748 589.432C947.748 585.092 945.508 581.928 941.196 581.928C937.444 581.928 933.888 585.092 933.888 590.188C933.888 595.34 937.304 598.392 941.672 598.392ZM937.836 588.592C938.144 586.296 939.6 585.12 941.252 585.12C943.268 585.12 944.22 586.464 944.22 588.592H937.836ZM956.654 598.392C958.278 598.392 959.846 597.496 960.994 596.376H961.078L961.414 598H964.746V575.656H960.63V581.172L960.798 583.636C959.678 582.6 958.586 581.928 956.822 581.928C953.434 581.928 950.242 585.064 950.242 590.188C950.242 595.312 952.762 598.392 956.654 598.392ZM957.718 595.004C955.646 595.004 954.47 593.38 954.47 590.132C954.47 586.996 955.954 585.316 957.718 585.316C958.698 585.316 959.678 585.624 960.63 586.492V593.38C959.734 594.556 958.81 595.004 957.718 595.004ZM983.369 598.392C986.813 598.392 990.033 595.284 990.033 589.88C990.033 585.092 987.709 581.928 983.845 581.928C982.305 581.928 980.737 582.684 979.505 583.804L979.589 581.284V575.656H975.501V598H978.721L979.085 596.348H979.169C980.457 597.664 981.969 598.392 983.369 598.392ZM982.445 595.004C981.605 595.004 980.569 594.696 979.589 593.828V586.94C980.681 585.848 981.633 585.316 982.697 585.316C984.853 585.316 985.805 586.968 985.805 589.964C985.805 593.38 984.349 595.004 982.445 595.004ZM994.674 604.3C998.174 604.3 999.854 602.172 1001.23 598.476L1006.8 582.32H1002.85L1000.69 589.6C1000.33 591.056 999.938 592.568 999.574 594.024H999.434C998.986 592.512 998.594 591 998.118 589.6L995.626 582.32H991.482L997.586 597.72L997.306 598.644C996.858 600.016 995.962 601.024 994.366 601.024C994.002 601.024 993.554 600.912 993.274 600.828L992.518 603.992C993.134 604.188 993.75 604.3 994.674 604.3ZM1016.06 598H1019.98V589.684C1019.98 587.304 1019.67 584.7 1019.48 582.46H1019.62L1021.72 586.912L1027.71 598H1031.91V577.28H1027.99V585.54C1027.99 587.892 1028.3 590.636 1028.52 592.792H1028.38L1026.31 588.312L1020.29 577.28H1016.06V598ZM1037.03 598H1041.18V590.636H1043.95C1048.4 590.636 1051.96 588.508 1051.96 583.776C1051.96 578.876 1048.43 577.28 1043.84 577.28H1037.03V598ZM1041.18 587.36V580.556H1043.53C1046.38 580.556 1047.9 581.368 1047.9 583.776C1047.9 586.156 1046.52 587.36 1043.67 587.36H1041.18ZM1063.94 598.392C1069.43 598.392 1073.21 594.276 1073.21 587.556C1073.21 580.836 1069.43 576.888 1063.94 576.888C1058.45 576.888 1054.67 580.808 1054.67 587.556C1054.67 594.276 1058.45 598.392 1063.94 598.392ZM1063.94 594.808C1060.86 594.808 1058.9 591.98 1058.9 587.556C1058.9 583.104 1060.86 580.444 1063.94 580.444C1067.02 580.444 1068.98 583.104 1068.98 587.556C1068.98 591.98 1067.02 594.808 1063.94 594.808Z" fill="white"/>
<path fill-rule="evenodd" clip-rule="evenodd" d="M1059.09 444.413L1059.09 444.409C1056.72 442.025 1052.71 438 1045.18 438H1029.94C1013.44 437.94 1000 424.5 1000 408H988C988 426.96 1000.66 443.04 1018 448.26V460H1054V456.3L1057.7 460H1074.65L1059.34 444.66C1059.26 444.58 1059.18 444.497 1059.09 444.413ZM1086 471.38V471.7L1086.16 471.54L1086 471.38ZM1036 432C1042.63 432 1048 426.627 1048 420C1048 413.373 1042.63 408 1036 408C1029.37 408 1024 413.373 1024 420C1024 426.627 1029.37 432 1036 432Z" fill="#616161"/>
<path d="M936 456H1112V472H936V456Z" fill="#616161"/>
<path d="M974 424H970C970 418.48 965.52 414 960 414C954.48 414 950 418.48 950 424H946C943.8 424 942.02 425.8 942.02 428L942 452C942 454.2 943.8 456 946 456H974C976.2 456 978 454.2 978 452V428C978 425.8 976.2 424 974 424ZM960 418C963.32 418 966 420.68 966 424H954C954 420.68 956.68 418 960 418ZM960 438C954.48 438 950 433.52 950 428H954C954 431.32 956.68 434 960 434C963.32 434 966 431.32 966 428H970C970 433.52 965.52 438 960 438Z" fill="white"/>
<path d="M893 429C899.6 429 905 423.6 905 417C905 410.4 899.6 405 893 405C886.4 405 881 410.4 881 417C881 423.6 886.4 429 893 429ZM870.8 449.4L854 534H866.6L877.4 486L890 498V534H902V489L889.4 477L893 459C900.8 468 912.8 474 926 474V462C914.6 462 905 456 900.2 447.6L894.2 438C891.8 434.4 888.2 432 884 432C882.2 432 881 432.6 879.2 432.6L848 445.8V474H860V453.6L870.8 449.4Z" fill="#616161"/>
<mask id="path-37-inside-1" fill="white">
<path fill-rule="evenodd" clip-rule="evenodd" d="M952 348V366C952 367.105 951.105 368 950 368H940.828C939.047 368 938.154 370.154 939.414 371.414L958.586 390.586C959.367 391.367 960.633 391.367 961.414 390.586L980.586 371.414C981.846 370.154 980.953 368 979.172 368H970C968.896 368 968 367.105 968 366V348H1080C1097.67 348 1112 362.327 1112 380V502C1112 519.673 1097.67 534 1080 534H840C822.327 534 808 519.673 808 502V380C808 362.327 822.327 348 840 348H952Z"/>
</mask>
<path d="M952 348H955V345H952V348ZM939.414 371.414L941.536 369.293L941.536 369.293L939.414 371.414ZM961.414 390.586L963.536 392.707L963.536 392.707L961.414 390.586ZM980.586 371.414L978.464 369.293L978.464 369.293L980.586 371.414ZM968 348V345H965V348H968ZM949 348V366H955V348H949ZM949 366C949 365.448 949.448 365 950 365V371C952.762 371 955 368.761 955 366H949ZM950 365H940.828V371H950V365ZM940.828 365C936.374 365 934.143 370.386 937.293 373.536L941.536 369.293C942.166 369.923 941.719 371 940.828 371V365ZM937.293 373.536L956.464 392.707L960.707 388.464L941.536 369.293L937.293 373.536ZM956.464 392.707C958.417 394.66 961.583 394.66 963.536 392.707L959.293 388.464C959.683 388.074 960.317 388.074 960.707 388.464L956.464 392.707ZM963.536 392.707L982.707 373.536L978.464 369.293L959.293 388.464L963.536 392.707ZM982.707 373.536C985.857 370.386 983.626 365 979.172 365V371C978.281 371 977.835 369.923 978.464 369.293L982.707 373.536ZM979.172 365H970V371H979.172V365ZM970 365C970.552 365 971 365.448 971 366H965C965 368.761 967.239 371 970 371V365ZM971 366V348H965V366H971ZM968 351H1080V345H968V351ZM1080 351C1096.02 351 1109 363.984 1109 380H1115C1115 360.67 1099.33 345 1080 345V351ZM1109 380V502H1115V380H1109ZM1109 502C1109 518.016 1096.02 531 1080 531V537C1099.33 537 1115 521.33 1115 502H1109ZM1080 531H840V537H1080V531ZM840 531C823.984 531 811 518.016 811 502H805C805 521.33 820.67 537 840 537V531ZM811 502V380H805V502H811ZM811 380C811 363.984 823.984 351 840 351V345C820.67 345 805 360.67 805 380H811ZM840 351H952V345H840V351Z" fill="white" mask="url(#path-37-inside-1)"/>
<path d="M926.24 711.28C929.66 711.28 931.68 709.22 931.68 706.8C931.68 704.66 930.5 703.52 928.7 702.78L926.76 701.96C925.5 701.46 924.44 701.08 924.44 700.02C924.44 699.04 925.28 698.46 926.58 698.46C927.8 698.46 928.78 698.9 929.72 699.68L931.22 697.82C930.02 696.6 928.3 695.92 926.58 695.92C923.58 695.92 921.46 697.78 921.46 700.2C921.46 702.36 922.96 703.56 924.46 704.18L926.44 705.02C927.76 705.58 928.66 705.92 928.66 707.02C928.66 708.06 927.84 708.72 926.3 708.72C925 708.72 923.6 708.06 922.54 707.08L920.84 709.12C922.28 710.5 924.26 711.28 926.24 711.28ZM938.92 711.28C940.32 711.28 941.74 710.8 942.84 710.04L941.84 708.24C941.04 708.74 940.24 709.02 939.32 709.02C937.66 709.02 936.46 708.06 936.22 706.22H943.12C943.2 705.96 943.26 705.42 943.26 704.88C943.26 701.78 941.66 699.52 938.58 699.52C935.9 699.52 933.36 701.78 933.36 705.42C933.36 709.1 935.8 711.28 938.92 711.28ZM936.18 704.28C936.4 702.64 937.44 701.8 938.62 701.8C940.06 701.8 940.74 702.76 940.74 704.28H936.18ZM945.682 711H948.602V704.32C949.242 702.7 950.302 702.12 951.182 702.12C951.642 702.12 951.962 702.18 952.342 702.3L952.862 699.76C952.522 699.62 952.162 699.52 951.542 699.52C950.382 699.52 949.182 700.32 948.362 701.78H948.282L948.082 699.8H945.682V711ZM957.186 711H960.586L964.326 699.8H961.506L959.866 705.38C959.566 706.48 959.246 707.64 958.966 708.78H958.866C958.566 707.64 958.246 706.48 957.966 705.38L956.326 699.8H953.366L957.186 711ZM966.189 711H969.109V699.8H966.189V711ZM967.669 698C968.669 698 969.409 697.32 969.409 696.4C969.409 695.44 968.669 694.8 967.669 694.8C966.649 694.8 965.909 695.44 965.909 696.4C965.909 697.32 966.649 698 967.669 698ZM977.024 711.28C978.264 711.28 979.624 710.86 980.684 709.92L979.524 707.98C978.904 708.5 978.144 708.88 977.344 708.88C975.724 708.88 974.564 707.52 974.564 705.42C974.564 703.3 975.724 701.92 977.424 701.92C978.064 701.92 978.584 702.18 979.144 702.66L980.544 700.76C979.724 700.06 978.664 699.52 977.284 699.52C974.244 699.52 971.564 701.68 971.564 705.42C971.564 709.12 973.924 711.28 977.024 711.28ZM987.065 711.28C988.465 711.28 989.885 710.8 990.985 710.04L989.985 708.24C989.185 708.74 988.385 709.02 987.465 709.02C985.805 709.02 984.605 708.06 984.365 706.22H991.265C991.345 705.96 991.405 705.42 991.405 704.88C991.405 701.78 989.805 699.52 986.725 699.52C984.045 699.52 981.505 701.78 981.505 705.42C981.505 709.1 983.945 711.28 987.065 711.28ZM984.325 704.28C984.545 702.64 985.585 701.8 986.765 701.8C988.205 701.8 988.885 702.76 988.885 704.28H984.325ZM998.597 711H1001.56V705H1006.82V702.52H1001.56V698.66H1007.72V696.2H998.597V711ZM1014.55 711.28C1015.95 711.28 1017.37 710.8 1018.47 710.04L1017.47 708.24C1016.67 708.74 1015.87 709.02 1014.95 709.02C1013.29 709.02 1012.09 708.06 1011.85 706.22H1018.75C1018.83 705.96 1018.89 705.42 1018.89 704.88C1018.89 701.78 1017.29 699.52 1014.21 699.52C1011.53 699.52 1008.99 701.78 1008.99 705.42C1008.99 709.1 1011.43 711.28 1014.55 711.28ZM1011.81 704.28C1012.03 702.64 1013.07 701.8 1014.25 701.8C1015.69 701.8 1016.37 702.76 1016.37 704.28H1011.81ZM1026.17 711.28C1027.57 711.28 1028.99 710.8 1030.09 710.04L1029.09 708.24C1028.29 708.74 1027.49 709.02 1026.57 709.02C1024.91 709.02 1023.71 708.06 1023.47 706.22H1030.37C1030.45 705.96 1030.51 705.42 1030.51 704.88C1030.51 701.78 1028.91 699.52 1025.83 699.52C1023.15 699.52 1020.61 701.78 1020.61 705.42C1020.61 709.1 1023.05 711.28 1026.17 711.28ZM1023.43 704.28C1023.65 702.64 1024.69 701.8 1025.87 701.8C1027.31 701.8 1027.99 702.76 1027.99 704.28H1023.43Z" fill="#616161"/>
<path d="M926.24 749.28C929.66 749.28 931.68 747.22 931.68 744.8C931.68 742.66 930.5 741.52 928.7 740.78L926.76 739.96C925.5 739.46 924.44 739.08 924.44 738.02C924.44 737.04 925.28 736.46 926.58 736.46C927.8 736.46 928.78 736.9 929.72 737.68L931.22 735.82C930.02 734.6 928.3 733.92 926.58 733.92C923.58 733.92 921.46 735.78 921.46 738.2C921.46 740.36 922.96 741.56 924.46 742.18L926.44 743.02C927.76 743.58 928.66 743.92 928.66 745.02C928.66 746.06 927.84 746.72 926.3 746.72C925 746.72 923.6 746.06 922.54 745.08L920.84 747.12C922.28 748.5 924.26 749.28 926.24 749.28ZM936.82 749.28C938.1 749.28 939.22 748.64 940.2 747.8H940.26L940.48 749H942.88V742.46C942.88 739.22 941.42 737.52 938.58 737.52C936.82 737.52 935.22 738.18 933.9 739L934.96 740.94C936 740.34 937 739.88 938.04 739.88C939.42 739.88 939.9 740.72 939.94 741.82C935.44 742.3 933.5 743.56 933.5 745.96C933.5 747.86 934.82 749.28 936.82 749.28ZM937.78 746.98C936.92 746.98 936.3 746.6 936.3 745.72C936.3 744.72 937.22 743.98 939.94 743.62V745.88C939.24 746.58 938.62 746.98 937.78 746.98ZM948.637 749.28C949.317 749.28 949.817 749.16 950.157 749.02L949.797 746.84C949.597 746.88 949.517 746.88 949.397 746.88C949.117 746.88 948.797 746.66 948.797 746V733.04H945.877V745.86C945.877 747.94 946.597 749.28 948.637 749.28ZM957.045 749.28C958.445 749.28 959.865 748.8 960.965 748.04L959.965 746.24C959.165 746.74 958.365 747.02 957.445 747.02C955.785 747.02 954.585 746.06 954.345 744.22H961.245C961.325 743.96 961.385 743.42 961.385 742.88C961.385 739.78 959.785 737.52 956.705 737.52C954.025 737.52 951.485 739.78 951.485 743.42C951.485 747.1 953.925 749.28 957.045 749.28ZM954.305 742.28C954.525 740.64 955.565 739.8 956.745 739.8C958.185 739.8 958.865 740.76 958.865 742.28H954.305ZM967.007 749.28C969.927 749.28 971.467 747.7 971.467 745.74C971.467 743.66 969.827 742.92 968.347 742.36C967.167 741.92 966.067 741.62 966.067 740.8C966.067 740.16 966.547 739.72 967.547 739.72C968.387 739.72 969.167 740.12 969.967 740.68L971.287 738.9C970.347 738.2 969.107 737.52 967.467 737.52C964.947 737.52 963.307 738.94 963.307 740.96C963.307 742.82 964.947 743.68 966.367 744.22C967.547 744.68 968.707 745.06 968.707 745.9C968.707 746.6 968.207 747.08 967.087 747.08C966.047 747.08 965.087 746.64 964.087 745.86L962.747 747.7C963.847 748.62 965.507 749.28 967.007 749.28ZM984.52 749.28C986.44 749.28 988.02 748.52 989.24 747.1L987.68 745.26C986.88 746.12 985.88 746.72 984.62 746.72C982.28 746.72 980.76 744.78 980.76 741.56C980.76 738.38 982.44 736.46 984.68 736.46C985.8 736.46 986.66 736.98 987.4 737.7L988.96 735.82C988 734.82 986.5 733.92 984.62 733.92C980.88 733.92 977.74 736.78 977.74 741.66C977.74 746.6 980.78 749.28 984.52 749.28ZM996.065 749.28C998.865 749.28 1001.44 747.12 1001.44 743.42C1001.44 739.68 998.865 737.52 996.065 737.52C993.265 737.52 990.685 739.68 990.685 743.42C990.685 747.12 993.265 749.28 996.065 749.28ZM996.065 746.88C994.545 746.88 993.685 745.52 993.685 743.42C993.685 741.3 994.545 739.92 996.065 739.92C997.585 739.92 998.445 741.3 998.445 743.42C998.445 745.52 997.585 746.88 996.065 746.88ZM1003.9 749H1006.82V741.3C1007.62 740.46 1008.34 740.04 1008.98 740.04C1010.04 740.04 1010.54 740.66 1010.54 742.38V749H1013.48V741.3C1014.28 740.46 1015 740.04 1015.64 740.04C1016.7 740.04 1017.2 740.66 1017.2 742.38V749H1020.14V742.02C1020.14 739.2 1019.04 737.52 1016.66 737.52C1015.2 737.52 1014.12 738.4 1013.1 739.48C1012.56 738.24 1011.62 737.52 1010.02 737.52C1008.56 737.52 1007.52 738.32 1006.58 739.3H1006.5L1006.3 737.8H1003.9V749ZM1023.18 749H1026.1V741.3C1026.9 740.46 1027.62 740.04 1028.26 740.04C1029.32 740.04 1029.82 740.66 1029.82 742.38V749H1032.76V741.3C1033.56 740.46 1034.28 740.04 1034.92 740.04C1035.98 740.04 1036.48 740.66 1036.48 742.38V749H1039.42V742.02C1039.42 739.2 1038.32 737.52 1035.94 737.52C1034.48 737.52 1033.4 738.4 1032.38 739.48C1031.84 738.24 1030.9 737.52 1029.3 737.52C1027.84 737.52 1026.8 738.32 1025.86 739.3H1025.78L1025.58 737.8H1023.18V749ZM1042.46 749H1045.38V737.8H1042.46V749ZM1043.94 736C1044.94 736 1045.68 735.32 1045.68 734.4C1045.68 733.44 1044.94 732.8 1043.94 732.8C1042.92 732.8 1042.18 733.44 1042.18 734.4C1042.18 735.32 1042.92 736 1043.94 736ZM1051.73 749.28C1054.65 749.28 1056.19 747.7 1056.19 745.74C1056.19 743.66 1054.55 742.92 1053.07 742.36C1051.89 741.92 1050.79 741.62 1050.79 740.8C1050.79 740.16 1051.27 739.72 1052.27 739.72C1053.11 739.72 1053.89 740.12 1054.69 740.68L1056.01 738.9C1055.07 738.2 1053.83 737.52 1052.19 737.52C1049.67 737.52 1048.03 738.94 1048.03 740.96C1048.03 742.82 1049.67 743.68 1051.09 744.22C1052.27 744.68 1053.43 745.06 1053.43 745.9C1053.43 746.6 1052.93 747.08 1051.81 747.08C1050.77 747.08 1049.81 746.64 1048.81 745.86L1047.47 747.7C1048.57 748.62 1050.23 749.28 1051.73 749.28ZM1061.64 749.28C1064.56 749.28 1066.1 747.7 1066.1 745.74C1066.1 743.66 1064.46 742.92 1062.98 742.36C1061.8 741.92 1060.7 741.62 1060.7 740.8C1060.7 740.16 1061.18 739.72 1062.18 739.72C1063.02 739.72 1063.8 740.12 1064.6 740.68L1065.92 738.9C1064.98 738.2 1063.74 737.52 1062.1 737.52C1059.58 737.52 1057.94 738.94 1057.94 740.96C1057.94 742.82 1059.58 743.68 1061 744.22C1062.18 744.68 1063.34 745.06 1063.34 745.9C1063.34 746.6 1062.84 747.08 1061.72 747.08C1060.68 747.08 1059.72 746.64 1058.72 745.86L1057.38 747.7C1058.48 748.62 1060.14 749.28 1061.64 749.28ZM1068.34 749H1071.26V737.8H1068.34V749ZM1069.82 736C1070.82 736 1071.56 735.32 1071.56 734.4C1071.56 733.44 1070.82 732.8 1069.82 732.8C1068.8 732.8 1068.06 733.44 1068.06 734.4C1068.06 735.32 1068.8 736 1069.82 736ZM1079.09 749.28C1081.89 749.28 1084.47 747.12 1084.47 743.42C1084.47 739.68 1081.89 737.52 1079.09 737.52C1076.29 737.52 1073.71 739.68 1073.71 743.42C1073.71 747.12 1076.29 749.28 1079.09 749.28ZM1079.09 746.88C1077.57 746.88 1076.71 745.52 1076.71 743.42C1076.71 741.3 1077.57 739.92 1079.09 739.92C1080.61 739.92 1081.47 741.3 1081.47 743.42C1081.47 745.52 1080.61 746.88 1079.09 746.88ZM1086.93 749H1089.85V741.3C1090.69 740.48 1091.27 740.04 1092.19 740.04C1093.29 740.04 1093.77 740.66 1093.77 742.38V749H1096.71V742.02C1096.71 739.2 1095.67 737.52 1093.25 737.52C1091.73 737.52 1090.59 738.32 1089.61 739.28H1089.53L1089.33 737.8H1086.93V749Z" fill="#616161"/>
<path d="M833.051 820.82L833.931 819.82L834.811 820.82L835.441 820.36L834.771 819.22L835.971 818.69L835.731 817.95L834.451 818.24L834.331 816.92H833.541L833.411 818.24L832.131 817.95L831.891 818.69L833.081 819.22L832.421 820.36L833.051 820.82ZM837.37 825H838.85V822.37H839.84C841.43 822.37 842.7 821.61 842.7 819.92C842.7 818.17 841.44 817.6 839.8 817.6H837.37V825ZM838.85 821.2V818.77H839.69C840.71 818.77 841.25 819.06 841.25 819.92C841.25 820.77 840.76 821.2 839.74 821.2H838.85ZM844.89 825.14C845.53 825.14 846.09 824.82 846.58 824.4H846.61L846.72 825H847.92V821.73C847.92 820.11 847.19 819.26 845.77 819.26C844.89 819.26 844.09 819.59 843.43 820L843.96 820.97C844.48 820.67 844.98 820.44 845.5 820.44C846.19 820.44 846.43 820.86 846.45 821.41C844.2 821.65 843.23 822.28 843.23 823.48C843.23 824.43 843.89 825.14 844.89 825.14ZM845.37 823.99C844.94 823.99 844.63 823.8 844.63 823.36C844.63 822.86 845.09 822.49 846.45 822.31V823.44C846.1 823.79 845.79 823.99 845.37 823.99ZM849.908 827.25C851.158 827.25 851.758 826.49 852.248 825.17L854.238 819.4H852.828L852.058 822C851.928 822.52 851.788 823.06 851.658 823.58H851.608C851.448 823.04 851.308 822.5 851.138 822L850.248 819.4H848.768L850.948 824.9L850.848 825.23C850.688 825.72 850.368 826.08 849.798 826.08C849.668 826.08 849.508 826.04 849.408 826.01L849.138 827.14C849.358 827.21 849.578 827.25 849.908 827.25ZM855.16 825H856.62V821.15C857.02 820.73 857.38 820.52 857.7 820.52C858.23 820.52 858.48 820.83 858.48 821.69V825H859.95V821.15C860.35 820.73 860.71 820.52 861.03 820.52C861.56 820.52 861.81 820.83 861.81 821.69V825H863.28V821.51C863.28 820.1 862.73 819.26 861.54 819.26C860.81 819.26 860.27 819.7 859.76 820.24C859.49 819.62 859.02 819.26 858.22 819.26C857.49 819.26 856.97 819.66 856.5 820.15H856.46L856.36 819.4H855.16V825ZM867.229 825.14C867.929 825.14 868.639 824.9 869.189 824.52L868.689 823.62C868.289 823.87 867.889 824.01 867.429 824.01C866.599 824.01 865.999 823.53 865.879 822.61H869.329C869.369 822.48 869.399 822.21 869.399 821.94C869.399 820.39 868.599 819.26 867.059 819.26C865.719 819.26 864.449 820.39 864.449 822.21C864.449 824.05 865.669 825.14 867.229 825.14ZM865.859 821.64C865.969 820.82 866.489 820.4 867.079 820.4C867.799 820.4 868.139 820.88 868.139 821.64H865.859ZM870.609 825H872.069V821.15C872.489 820.74 872.779 820.52 873.239 820.52C873.789 820.52 874.029 820.83 874.029 821.69V825H875.499V821.51C875.499 820.1 874.979 819.26 873.769 819.26C873.009 819.26 872.439 819.66 871.949 820.14H871.909L871.809 819.4H870.609V825ZM879.066 825.14C879.556 825.14 879.946 825.03 880.246 824.93L880.006 823.86C879.856 823.92 879.636 823.98 879.456 823.98C878.956 823.98 878.696 823.68 878.696 823.04V820.56H880.076V819.4H878.696V817.9H877.466L877.296 819.4L876.436 819.47V820.56H877.226V823.04C877.226 824.3 877.736 825.14 879.066 825.14ZM886.74 817.08C886.49 816.98 886.11 816.88 885.68 816.88C884.27 816.88 883.73 817.78 883.73 818.95V819.41L882.98 819.47V820.56H883.73V825H885.2V820.56H886.25V819.4H885.2V818.92C885.2 818.3 885.44 818.04 885.88 818.04C886.06 818.04 886.28 818.09 886.47 818.16L886.74 817.08ZM889.514 825.14C890.214 825.14 890.924 824.9 891.474 824.52L890.974 823.62C890.574 823.87 890.174 824.01 889.714 824.01C888.884 824.01 888.284 823.53 888.164 822.61H891.614C891.654 822.48 891.684 822.21 891.684 821.94C891.684 820.39 890.884 819.26 889.344 819.26C888.004 819.26 886.734 820.39 886.734 822.21C886.734 824.05 887.954 825.14 889.514 825.14ZM888.144 821.64C888.254 820.82 888.774 820.4 889.364 820.4C890.084 820.4 890.424 820.88 890.424 821.64H888.144ZM895.324 825.14C896.024 825.14 896.734 824.9 897.284 824.52L896.784 823.62C896.384 823.87 895.984 824.01 895.524 824.01C894.694 824.01 894.094 823.53 893.974 822.61H897.424C897.464 822.48 897.494 822.21 897.494 821.94C897.494 820.39 896.694 819.26 895.154 819.26C893.814 819.26 892.544 820.39 892.544 822.21C892.544 824.05 893.764 825.14 895.324 825.14ZM893.954 821.64C894.064 820.82 894.584 820.4 895.174 820.4C895.894 820.4 896.234 820.88 896.234 821.64H893.954ZM900.971 825H902.431V819.4H900.971V825ZM901.711 818.5C902.211 818.5 902.581 818.16 902.581 817.7C902.581 817.22 902.211 816.9 901.711 816.9C901.201 816.9 900.831 817.22 900.831 817.7C900.831 818.16 901.201 818.5 901.711 818.5ZM905.608 825.14C907.068 825.14 907.838 824.35 907.838 823.37C907.838 822.33 907.018 821.96 906.278 821.68C905.688 821.46 905.138 821.31 905.138 820.9C905.138 820.58 905.378 820.36 905.878 820.36C906.298 820.36 906.688 820.56 907.088 820.84L907.748 819.95C907.278 819.6 906.658 819.26 905.838 819.26C904.578 819.26 903.758 819.97 903.758 820.98C903.758 821.91 904.578 822.34 905.288 822.61C905.878 822.84 906.458 823.03 906.458 823.45C906.458 823.8 906.208 824.04 905.648 824.04C905.128 824.04 904.648 823.82 904.148 823.43L903.478 824.35C904.028 824.81 904.858 825.14 905.608 825.14ZM911.225 825H912.685V821.66C913.005 820.85 913.535 820.56 913.975 820.56C914.205 820.56 914.365 820.59 914.555 820.65L914.815 819.38C914.645 819.31 914.465 819.26 914.155 819.26C913.575 819.26 912.975 819.66 912.565 820.39H912.525L912.425 819.4H911.225V825ZM917.893 825.14C918.593 825.14 919.303 824.9 919.853 824.52L919.353 823.62C918.953 823.87 918.553 824.01 918.093 824.01C917.263 824.01 916.663 823.53 916.543 822.61H919.993C920.033 822.48 920.063 822.21 920.063 821.94C920.063 820.39 919.263 819.26 917.723 819.26C916.383 819.26 915.113 820.39 915.113 822.21C915.113 824.05 916.333 825.14 917.893 825.14ZM916.523 821.64C916.633 820.82 917.153 820.4 917.743 820.4C918.463 820.4 918.803 820.88 918.803 821.64H916.523ZM924.663 827.15H926.133V819.4H924.983L924.863 819.95H924.823C924.373 819.48 923.923 819.26 923.303 819.26C922.093 819.26 920.953 820.38 920.953 822.21C920.953 824.04 921.853 825.14 923.243 825.14C923.793 825.14 924.343 824.86 924.723 824.47L924.663 825.37V827.15ZM923.623 823.93C922.883 823.93 922.463 823.35 922.463 822.19C922.463 821.07 922.993 820.47 923.623 820.47C923.973 820.47 924.323 820.58 924.663 820.89V823.35C924.343 823.77 924.013 823.93 923.623 823.93ZM929.369 825.14C930.139 825.14 930.679 824.77 931.159 824.2H931.199L931.309 825H932.509V819.4H931.039V823.18C930.659 823.68 930.359 823.88 929.899 823.88C929.359 823.88 929.119 823.58 929.119 822.71V819.4H927.649V822.9C927.649 824.3 928.169 825.14 929.369 825.14ZM934.076 825H935.536V819.4H934.076V825ZM934.816 818.5C935.316 818.5 935.686 818.16 935.686 817.7C935.686 817.22 935.316 816.9 934.816 816.9C934.306 816.9 933.936 817.22 933.936 817.7C933.936 818.16 934.306 818.5 934.816 818.5ZM937.113 825H938.573V821.66C938.893 820.85 939.423 820.56 939.863 820.56C940.093 820.56 940.253 820.59 940.443 820.65L940.703 819.38C940.533 819.31 940.353 819.26 940.043 819.26C939.463 819.26 938.863 819.66 938.453 820.39H938.413L938.313 819.4H937.113V825ZM943.782 825.14C944.482 825.14 945.192 824.9 945.742 824.52L945.242 823.62C944.842 823.87 944.442 824.01 943.982 824.01C943.152 824.01 942.552 823.53 942.432 822.61H945.882C945.922 822.48 945.952 822.21 945.952 821.94C945.952 820.39 945.152 819.26 943.612 819.26C942.272 819.26 941.002 820.39 941.002 822.21C941.002 824.05 942.222 825.14 943.782 825.14ZM942.412 821.64C942.522 820.82 943.042 820.4 943.632 820.4C944.352 820.4 944.692 820.88 944.692 821.64H942.412ZM949.132 825.14C949.712 825.14 950.272 824.82 950.682 824.42H950.712L950.832 825H952.022V817.02H950.552V818.99L950.612 819.87C950.212 819.5 949.822 819.26 949.192 819.26C947.982 819.26 946.842 820.38 946.842 822.21C946.842 824.04 947.742 825.14 949.132 825.14ZM949.512 823.93C948.772 823.93 948.352 823.35 948.352 822.19C948.352 821.07 948.882 820.47 949.512 820.47C949.862 820.47 950.212 820.58 950.552 820.89V823.35C950.232 823.77 949.902 823.93 949.512 823.93ZM958.673 825.14C959.903 825.14 961.053 824.03 961.053 822.1C961.053 820.39 960.223 819.26 958.843 819.26C958.293 819.26 957.733 819.53 957.293 819.93L957.323 819.03V817.02H955.863V825H957.013L957.143 824.41H957.173C957.633 824.88 958.173 825.14 958.673 825.14ZM958.343 823.93C958.043 823.93 957.673 823.82 957.323 823.51V821.05C957.713 820.66 958.053 820.47 958.433 820.47C959.203 820.47 959.543 821.06 959.543 822.13C959.543 823.35 959.023 823.93 958.343 823.93ZM962.711 827.25C963.961 827.25 964.561 826.49 965.051 825.17L967.041 819.4H965.631L964.861 822C964.731 822.52 964.591 823.06 964.461 823.58H964.411C964.251 823.04 964.111 822.5 963.941 822L963.051 819.4H961.571L963.751 824.9L963.651 825.23C963.491 825.72 963.171 826.08 962.601 826.08C962.471 826.08 962.311 826.04 962.211 826.01L961.941 827.14C962.161 827.21 962.381 827.25 962.711 827.25ZM972.278 825.14C972.768 825.14 973.158 825.03 973.458 824.93L973.218 823.86C973.068 823.92 972.848 823.98 972.668 823.98C972.168 823.98 971.908 823.68 971.908 823.04V820.56H973.288V819.4H971.908V817.9H970.678L970.508 819.4L969.648 819.47V820.56H970.438V823.04C970.438 824.3 970.948 825.14 972.278 825.14ZM974.428 825H975.888V821.15C976.308 820.74 976.598 820.52 977.058 820.52C977.608 820.52 977.848 820.83 977.848 821.69V825H979.318V821.51C979.318 820.1 978.798 819.26 977.588 819.26C976.828 819.26 976.278 819.66 975.828 820.08L975.888 819.03V817.02H974.428V825ZM983.254 825.14C983.954 825.14 984.664 824.9 985.214 824.52L984.714 823.62C984.314 823.87 983.914 824.01 983.454 824.01C982.624 824.01 982.024 823.53 981.904 822.61H985.354C985.394 822.48 985.424 822.21 985.424 821.94C985.424 820.39 984.624 819.26 983.084 819.26C981.744 819.26 980.474 820.39 980.474 822.21C980.474 824.05 981.694 825.14 983.254 825.14ZM981.884 821.64C981.994 820.82 982.514 820.4 983.104 820.4C983.824 820.4 984.164 820.88 984.164 821.64H981.884ZM991.28 825.14C991.9 825.14 992.58 824.93 993.11 824.46L992.53 823.49C992.22 823.75 991.84 823.94 991.44 823.94C990.63 823.94 990.05 823.26 990.05 822.21C990.05 821.15 990.63 820.46 991.48 820.46C991.8 820.46 992.06 820.59 992.34 820.83L993.04 819.88C992.63 819.53 992.1 819.26 991.41 819.26C989.89 819.26 988.55 820.34 988.55 822.21C988.55 824.06 989.73 825.14 991.28 825.14ZM994.174 825H995.634V821.66C995.954 820.85 996.484 820.56 996.924 820.56C997.154 820.56 997.314 820.59 997.504 820.65L997.764 819.38C997.594 819.31 997.414 819.26 997.104 819.26C996.524 819.26 995.924 819.66 995.514 820.39H995.474L995.374 819.4H994.174V825ZM1000.84 825.14C1001.54 825.14 1002.25 824.9 1002.8 824.52L1002.3 823.62C1001.9 823.87 1001.5 824.01 1001.04 824.01C1000.21 824.01 999.612 823.53 999.492 822.61H1002.94C1002.98 822.48 1003.01 822.21 1003.01 821.94C1003.01 820.39 1002.21 819.26 1000.67 819.26C999.332 819.26 998.062 820.39 998.062 822.21C998.062 824.05 999.282 825.14 1000.84 825.14ZM999.472 821.64C999.582 820.82 1000.1 820.4 1000.69 820.4C1001.41 820.4 1001.75 820.88 1001.75 821.64H999.472ZM1006.19 825.14C1006.77 825.14 1007.33 824.82 1007.74 824.42H1007.77L1007.89 825H1009.08V817.02H1007.61V818.99L1007.67 819.87C1007.27 819.5 1006.88 819.26 1006.25 819.26C1005.04 819.26 1003.9 820.38 1003.9 822.21C1003.9 824.04 1004.8 825.14 1006.19 825.14ZM1006.57 823.93C1005.83 823.93 1005.41 823.35 1005.41 822.19C1005.41 821.07 1005.94 820.47 1006.57 820.47C1006.92 820.47 1007.27 820.58 1007.61 820.89V823.35C1007.29 823.77 1006.96 823.93 1006.57 823.93ZM1010.66 825H1012.12V819.4H1010.66V825ZM1011.4 818.5C1011.9 818.5 1012.27 818.16 1012.27 817.7C1012.27 817.22 1011.9 816.9 1011.4 816.9C1010.89 816.9 1010.52 817.22 1010.52 817.7C1010.52 818.16 1010.89 818.5 1011.4 818.5ZM1015.75 825.14C1016.24 825.14 1016.63 825.03 1016.93 824.93L1016.69 823.86C1016.54 823.92 1016.32 823.98 1016.14 823.98C1015.64 823.98 1015.38 823.68 1015.38 823.04V820.56H1016.76V819.4H1015.38V817.9H1014.15L1013.98 819.4L1013.12 819.47V820.56H1013.91V823.04C1013.91 824.3 1014.42 825.14 1015.75 825.14ZM1022.54 825.14C1023.16 825.14 1023.84 824.93 1024.37 824.46L1023.79 823.49C1023.48 823.75 1023.1 823.94 1022.7 823.94C1021.89 823.94 1021.31 823.26 1021.31 822.21C1021.31 821.15 1021.89 820.46 1022.74 820.46C1023.06 820.46 1023.32 820.59 1023.6 820.83L1024.3 819.88C1023.89 819.53 1023.36 819.26 1022.67 819.26C1021.15 819.26 1019.81 820.34 1019.81 822.21C1019.81 824.06 1020.99 825.14 1022.54 825.14ZM1026.7 825.14C1027.34 825.14 1027.9 824.82 1028.39 824.4H1028.42L1028.53 825H1029.73V821.73C1029.73 820.11 1029 819.26 1027.58 819.26C1026.7 819.26 1025.9 819.59 1025.24 820L1025.77 820.97C1026.29 820.67 1026.79 820.44 1027.31 820.44C1028 820.44 1028.24 820.86 1028.26 821.41C1026.01 821.65 1025.04 822.28 1025.04 823.48C1025.04 824.43 1025.7 825.14 1026.7 825.14ZM1027.18 823.99C1026.75 823.99 1026.44 823.8 1026.44 823.36C1026.44 822.86 1026.9 822.49 1028.26 822.31V823.44C1027.91 823.79 1027.6 823.99 1027.18 823.99ZM1031.22 825H1032.68V821.66C1033 820.85 1033.53 820.56 1033.97 820.56C1034.2 820.56 1034.36 820.59 1034.55 820.65L1034.81 819.38C1034.64 819.31 1034.46 819.26 1034.15 819.26C1033.57 819.26 1032.97 819.66 1032.56 820.39H1032.52L1032.42 819.4H1031.22V825ZM1037.43 825.14C1038.01 825.14 1038.57 824.82 1038.98 824.42H1039.01L1039.13 825H1040.32V817.02H1038.85V818.99L1038.91 819.87C1038.51 819.5 1038.12 819.26 1037.49 819.26C1036.28 819.26 1035.14 820.38 1035.14 822.21C1035.14 824.04 1036.04 825.14 1037.43 825.14ZM1037.81 823.93C1037.07 823.93 1036.65 823.35 1036.65 822.19C1036.65 821.07 1037.18 820.47 1037.81 820.47C1038.16 820.47 1038.51 820.58 1038.85 820.89V823.35C1038.53 823.77 1038.2 823.93 1037.81 823.93ZM1046.54 825.14C1047.16 825.14 1047.84 824.93 1048.37 824.46L1047.79 823.49C1047.48 823.75 1047.1 823.94 1046.7 823.94C1045.89 823.94 1045.31 823.26 1045.31 822.21C1045.31 821.15 1045.89 820.46 1046.74 820.46C1047.06 820.46 1047.32 820.59 1047.6 820.83L1048.3 819.88C1047.89 819.53 1047.36 819.26 1046.67 819.26C1045.15 819.26 1043.81 820.34 1043.81 822.21C1043.81 824.06 1044.99 825.14 1046.54 825.14ZM1051.47 825.14C1052.87 825.14 1054.16 824.06 1054.16 822.21C1054.16 820.34 1052.87 819.26 1051.47 819.26C1050.07 819.26 1048.78 820.34 1048.78 822.21C1048.78 824.06 1050.07 825.14 1051.47 825.14ZM1051.47 823.94C1050.71 823.94 1050.28 823.26 1050.28 822.21C1050.28 821.15 1050.71 820.46 1051.47 820.46C1052.23 820.46 1052.66 821.15 1052.66 822.21C1052.66 823.26 1052.23 823.94 1051.47 823.94ZM1055.39 825H1056.85V821.15C1057.25 820.73 1057.61 820.52 1057.93 820.52C1058.46 820.52 1058.71 820.83 1058.71 821.69V825H1060.18V821.15C1060.58 820.73 1060.94 820.52 1061.26 820.52C1061.79 820.52 1062.04 820.83 1062.04 821.69V825H1063.51V821.51C1063.51 820.1 1062.96 819.26 1061.77 819.26C1061.04 819.26 1060.5 819.7 1059.99 820.24C1059.72 819.62 1059.25 819.26 1058.45 819.26C1057.72 819.26 1057.2 819.66 1056.73 820.15H1056.69L1056.59 819.4H1055.39V825ZM1065.03 827.15H1066.49V825.45L1066.45 824.53C1066.88 824.92 1067.35 825.14 1067.84 825.14C1069.07 825.14 1070.22 824.03 1070.22 822.11C1070.22 820.39 1069.4 819.26 1068.02 819.26C1067.42 819.26 1066.84 819.58 1066.37 819.98H1066.33L1066.23 819.4H1065.03V827.15ZM1067.51 823.93C1067.21 823.93 1066.85 823.82 1066.49 823.51V821.05C1066.88 820.66 1067.22 820.47 1067.6 820.47C1068.37 820.47 1068.71 821.06 1068.71 822.13C1068.71 823.35 1068.19 823.93 1067.51 823.93ZM1072.71 825.14C1073.35 825.14 1073.91 824.82 1074.4 824.4H1074.43L1074.54 825H1075.74V821.73C1075.74 820.11 1075.01 819.26 1073.59 819.26C1072.71 819.26 1071.91 819.59 1071.25 820L1071.78 820.97C1072.3 820.67 1072.8 820.44 1073.32 820.44C1074.01 820.44 1074.25 820.86 1074.27 821.41C1072.02 821.65 1071.05 822.28 1071.05 823.48C1071.05 824.43 1071.71 825.14 1072.71 825.14ZM1073.19 823.99C1072.76 823.99 1072.45 823.8 1072.45 823.36C1072.45 822.86 1072.91 822.49 1074.27 822.31V823.44C1073.92 823.79 1073.61 823.99 1073.19 823.99ZM1077.24 825H1078.7V821.15C1079.12 820.74 1079.41 820.52 1079.87 820.52C1080.42 820.52 1080.66 820.83 1080.66 821.69V825H1082.13V821.51C1082.13 820.1 1081.61 819.26 1080.4 819.26C1079.64 819.26 1079.07 819.66 1078.58 820.14H1078.54L1078.44 819.4H1077.24V825ZM1084.14 827.25C1085.39 827.25 1085.99 826.49 1086.48 825.17L1088.47 819.4H1087.06L1086.29 822C1086.16 822.52 1086.02 823.06 1085.89 823.58H1085.84C1085.68 823.04 1085.54 822.5 1085.37 822L1084.48 819.4H1083L1085.18 824.9L1085.08 825.23C1084.92 825.72 1084.6 826.08 1084.03 826.08C1083.9 826.08 1083.74 826.04 1083.64 826.01L1083.37 827.14C1083.59 827.21 1083.81 827.25 1084.14 827.25Z" fill="#616161"/>
<path d="M809.82 798H812.78V792H818.04V789.52H812.78V785.66H818.94V783.2H809.82V798ZM820.81 798H823.73V791.32C824.37 789.7 825.43 789.12 826.31 789.12C826.77 789.12 827.09 789.18 827.47 789.3L827.99 786.76C827.65 786.62 827.29 786.52 826.67 786.52C825.51 786.52 824.31 787.32 823.49 788.78H823.41L823.21 786.8H820.81V798ZM834.147 798.28C835.547 798.28 836.967 797.8 838.067 797.04L837.067 795.24C836.267 795.74 835.467 796.02 834.547 796.02C832.887 796.02 831.687 795.06 831.447 793.22H838.347C838.427 792.96 838.487 792.42 838.487 791.88C838.487 788.78 836.887 786.52 833.807 786.52C831.127 786.52 828.587 788.78 828.587 792.42C828.587 796.1 831.027 798.28 834.147 798.28ZM831.407 791.28C831.627 789.64 832.667 788.8 833.847 788.8C835.287 788.8 835.967 789.76 835.967 791.28H831.407ZM845.768 798.28C847.168 798.28 848.588 797.8 849.688 797.04L848.688 795.24C847.888 795.74 847.088 796.02 846.168 796.02C844.508 796.02 843.308 795.06 843.068 793.22H849.968C850.048 792.96 850.108 792.42 850.108 791.88C850.108 788.78 848.508 786.52 845.428 786.52C842.748 786.52 840.208 788.78 840.208 792.42C840.208 796.1 842.648 798.28 845.768 798.28ZM843.028 791.28C843.248 789.64 844.288 788.8 845.468 788.8C846.908 788.8 847.588 789.76 847.588 791.28H843.028Z" fill="white"/>
<path d="M1030.85 798H1033.81V792H1039.07V789.52H1033.81V785.66H1039.97V783.2H1030.85V798ZM1046.62 798.28C1049.42 798.28 1052 796.12 1052 792.42C1052 788.68 1049.42 786.52 1046.62 786.52C1043.82 786.52 1041.24 788.68 1041.24 792.42C1041.24 796.12 1043.82 798.28 1046.62 798.28ZM1046.62 795.88C1045.1 795.88 1044.24 794.52 1044.24 792.42C1044.24 790.3 1045.1 788.92 1046.62 788.92C1048.14 788.92 1049 790.3 1049 792.42C1049 794.52 1048.14 795.88 1046.62 795.88ZM1054.46 798H1057.38V791.32C1058.02 789.7 1059.08 789.12 1059.96 789.12C1060.42 789.12 1060.74 789.18 1061.12 789.3L1061.64 786.76C1061.3 786.62 1060.94 786.52 1060.32 786.52C1059.16 786.52 1057.96 787.32 1057.14 788.78H1057.06L1056.86 786.8H1054.46V798ZM1067.8 798.28C1069.2 798.28 1070.62 797.8 1071.72 797.04L1070.72 795.24C1069.92 795.74 1069.12 796.02 1068.2 796.02C1066.54 796.02 1065.34 795.06 1065.1 793.22H1072C1072.08 792.96 1072.14 792.42 1072.14 791.88C1072.14 788.78 1070.54 786.52 1067.46 786.52C1064.78 786.52 1062.24 788.78 1062.24 792.42C1062.24 796.1 1064.68 798.28 1067.8 798.28ZM1065.06 791.28C1065.28 789.64 1066.32 788.8 1067.5 788.8C1068.94 788.8 1069.62 789.76 1069.62 791.28H1065.06ZM1077 798H1080.4L1084.14 786.8H1081.32L1079.68 792.38C1079.38 793.48 1079.06 794.64 1078.78 795.78H1078.68C1078.38 794.64 1078.06 793.48 1077.78 792.38L1076.14 786.8H1073.18L1077 798ZM1090.71 798.28C1092.11 798.28 1093.53 797.8 1094.63 797.04L1093.63 795.24C1092.83 795.74 1092.03 796.02 1091.11 796.02C1089.45 796.02 1088.25 795.06 1088.01 793.22H1094.91C1094.99 792.96 1095.05 792.42 1095.05 791.88C1095.05 788.78 1093.45 786.52 1090.37 786.52C1087.69 786.52 1085.15 788.78 1085.15 792.42C1085.15 796.1 1087.59 798.28 1090.71 798.28ZM1087.97 791.28C1088.19 789.64 1089.23 788.8 1090.41 788.8C1091.85 788.8 1092.53 789.76 1092.53 791.28H1087.97ZM1097.47 798H1100.39V791.32C1101.03 789.7 1102.09 789.12 1102.97 789.12C1103.43 789.12 1103.75 789.18 1104.13 789.3L1104.65 786.76C1104.31 786.62 1103.95 786.52 1103.33 786.52C1102.17 786.52 1100.97 787.32 1100.15 788.78H1100.07L1099.87 786.8H1097.47V798ZM1107.34 792.96H1109.26L1109.68 785.58L1109.78 782.8H1106.82L1106.92 785.58L1107.34 792.96ZM1108.3 798.28C1109.34 798.28 1110.14 797.44 1110.14 796.36C1110.14 795.28 1109.34 794.44 1108.3 794.44C1107.26 794.44 1106.48 795.28 1106.48 796.36C1106.48 797.44 1107.26 798.28 1108.3 798.28Z" fill="white"/>
<path d="M921.82 673H924.78V658.2H921.82V673ZM928.182 673H931.102V665.3C931.942 664.48 932.522 664.04 933.442 664.04C934.542 664.04 935.022 664.66 935.022 666.38V673H937.962V666.02C937.962 663.2 936.922 661.52 934.502 661.52C932.982 661.52 931.842 662.32 930.862 663.28H930.782L930.582 661.8H928.182V673ZM940.994 673H943.914V661.8H940.994V673ZM942.474 660C943.474 660 944.214 659.32 944.214 658.4C944.214 657.44 943.474 656.8 942.474 656.8C941.454 656.8 940.714 657.44 940.714 658.4C940.714 659.32 941.454 660 942.474 660ZM951.168 673.28C952.148 673.28 952.928 673.06 953.528 672.86L953.048 670.72C952.748 670.84 952.308 670.96 951.948 670.96C950.948 670.96 950.428 670.36 950.428 669.08V664.12H953.188V661.8H950.428V658.8H947.968L947.628 661.8L945.908 661.94V664.12H947.488V669.08C947.488 671.6 948.508 673.28 951.168 673.28ZM955.467 673H958.387V661.8H955.467V673ZM956.947 660C957.947 660 958.687 659.32 958.687 658.4C958.687 657.44 957.947 656.8 956.947 656.8C955.927 656.8 955.187 657.44 955.187 658.4C955.187 659.32 955.927 660 956.947 660ZM964.301 673.28C965.581 673.28 966.701 672.64 967.681 671.8H967.741L967.961 673H970.361V666.46C970.361 663.22 968.901 661.52 966.061 661.52C964.301 661.52 962.701 662.18 961.381 663L962.441 664.94C963.481 664.34 964.481 663.88 965.521 663.88C966.901 663.88 967.381 664.72 967.421 665.82C962.921 666.3 960.981 667.56 960.981 669.96C960.981 671.86 962.301 673.28 964.301 673.28ZM965.261 670.98C964.401 670.98 963.781 670.6 963.781 669.72C963.781 668.72 964.701 667.98 967.421 667.62V669.88C966.721 670.58 966.101 670.98 965.261 670.98ZM976.117 673.28C976.797 673.28 977.297 673.16 977.637 673.02L977.277 670.84C977.077 670.88 976.997 670.88 976.877 670.88C976.597 670.88 976.277 670.66 976.277 670V657.04H973.357V669.86C973.357 671.94 974.077 673.28 976.117 673.28ZM990.477 673.28C992.397 673.28 993.977 672.52 995.197 671.1L993.637 669.26C992.837 670.12 991.837 670.72 990.577 670.72C988.237 670.72 986.717 668.78 986.717 665.56C986.717 662.38 988.397 660.46 990.637 660.46C991.757 660.46 992.617 660.98 993.357 661.7L994.917 659.82C993.957 658.82 992.457 657.92 990.577 657.92C986.837 657.92 983.697 660.78 983.697 665.66C983.697 670.6 986.737 673.28 990.477 673.28ZM1002.02 673.28C1004.82 673.28 1007.4 671.12 1007.4 667.42C1007.4 663.68 1004.82 661.52 1002.02 661.52C999.222 661.52 996.642 663.68 996.642 667.42C996.642 671.12 999.222 673.28 1002.02 673.28ZM1002.02 670.88C1000.5 670.88 999.642 669.52 999.642 667.42C999.642 665.3 1000.5 663.92 1002.02 663.92C1003.54 663.92 1004.4 665.3 1004.4 667.42C1004.4 669.52 1003.54 670.88 1002.02 670.88ZM1012.96 673.28C1015.88 673.28 1017.42 671.7 1017.42 669.74C1017.42 667.66 1015.78 666.92 1014.3 666.36C1013.12 665.92 1012.02 665.62 1012.02 664.8C1012.02 664.16 1012.5 663.72 1013.5 663.72C1014.34 663.72 1015.12 664.12 1015.92 664.68L1017.24 662.9C1016.3 662.2 1015.06 661.52 1013.42 661.52C1010.9 661.52 1009.26 662.94 1009.26 664.96C1009.26 666.82 1010.9 667.68 1012.32 668.22C1013.5 668.68 1014.66 669.06 1014.66 669.9C1014.66 670.6 1014.16 671.08 1013.04 671.08C1012 671.08 1011.04 670.64 1010.04 669.86L1008.7 671.7C1009.8 672.62 1011.46 673.28 1012.96 673.28ZM1023.3 673.28C1024.28 673.28 1025.06 673.06 1025.66 672.86L1025.18 670.72C1024.88 670.84 1024.44 670.96 1024.08 670.96C1023.08 670.96 1022.56 670.36 1022.56 669.08V664.12H1025.32V661.8H1022.56V658.8H1020.1L1019.76 661.8L1018.04 661.94V664.12H1019.62V669.08C1019.62 671.6 1020.64 673.28 1023.3 673.28Z" fill="#616161"/>
<path d="M904 713.781C904 731.007 900.443 744.184 893.329 753.31C886.215 762.437 875.801 767 862.085 767C848.541 767 838.183 762.522 831.012 753.567C823.841 744.611 820.171 731.777 820 715.064V692.134C820 674.736 823.585 661.531 830.756 652.519C837.984 643.506 848.37 639 861.915 639C875.459 639 885.817 643.478 892.988 652.433C900.159 661.332 903.829 674.137 904 690.85V713.781ZM879.329 688.626C879.329 678.301 877.907 670.8 875.061 666.123C872.272 661.389 867.89 659.021 861.915 659.021C856.11 659.021 851.813 661.275 849.024 665.781C846.293 670.23 844.841 677.217 844.671 686.743V717.032C844.671 727.185 846.037 734.743 848.768 739.706C851.557 744.611 855.996 747.064 862.085 747.064C868.118 747.064 872.472 744.697 875.146 739.963C877.821 735.228 879.215 727.984 879.329 718.23V688.626Z" fill="white"/>
<path d="M859 790H1003" stroke="white" stroke-width="3" stroke-linecap="round" stroke-dasharray="4 8"/>
<path d="M1012.51 784.909C1011.85 784.509 1011 784.989 1011 785.766V794.234C1011 795.011 1011.85 795.491 1012.51 795.091L1019.57 790.857C1020.22 790.469 1020.22 789.531 1019.57 789.143L1012.51 784.909Z" fill="white"/>
</svg>
