<svg width="1920" height="416" viewBox="0 0 1920 416" fill="none" xmlns="http://www.w3.org/2000/svg">
<rect width="1920" height="416" fill="#FBC02D"/>
<mask id="mask0" mask-type="alpha" maskUnits="userSpaceOnUse" x="671" y="42" width="164" height="164">
<circle cx="753" cy="124" r="80" stroke="white" stroke-width="3" stroke-linecap="round" stroke-dasharray="4 8"/>
</mask>
<g mask="url(#mask0)">
<path fill-rule="evenodd" clip-rule="evenodd" d="M833 36H673V92H821V80H833V36Z" fill="white"/>
</g>
<path d="M826.486 82.9087C827.152 82.5088 828 82.9889 828 83.7662V92.2338C828 93.0111 827.152 93.4912 826.486 93.0913L819.429 88.8575C818.782 88.4691 818.782 87.5309 819.429 87.1425L826.486 82.9087Z" fill="white"/>
<path fill-rule="evenodd" clip-rule="evenodd" d="M638.77 97.7399C636.43 100.08 636.43 103.89 638.77 106.23C641.11 108.6 644.89 108.6 647.26 106.23C649.6 103.89 649.6 100.08 647.26 97.7399C644.92 95.3999 641.11 95.3999 638.77 97.7399ZM660.79 135L676 150.21L671.71 154.5L661.21 144H646C641.02 144 637 139.98 637 135V117.75C637 114.03 640.03 111 643.75 111H643.84C644.86 111 645.85 111.27 646.72 111.69C647.5 112.05 648.22 112.56 648.79 113.19L652.99 117.84C656.17 121.35 662.02 124.02 667 123.96V130.44C661.3 130.44 654.7 127.41 650.5 123.96V135H660.79ZM655 147H637V153H655V147Z" fill="#616161"/>
<rect x="669.5" y="99.5" width="13" height="21" rx="1.5" stroke="white" stroke-width="3"/>
<path fill-rule="evenodd" clip-rule="evenodd" d="M664 56C664 69.2548 653.255 80 640 80C626.745 80 616 69.2548 616 56C616 42.7452 626.745 32 640 32C653.255 32 664 42.7452 664 56ZM637 85C637 86.6569 635.657 88 634 88C632.343 88 631 86.6569 631 85C631 83.3431 632.343 82 634 82C635.657 82 637 83.3431 637 85ZM636 94C637.105 94 638 93.1046 638 92C638 90.8954 637.105 90 636 90C634.895 90 634 90.8954 634 92C634 93.1046 634.895 94 636 94Z" fill="white"/>
<path d="M646.06 66.99H647.72C648.56 66.99 649.25 66.35 649.35 65.53L651 49.05H646V45H644.03V49.05H639.06L639.36 51.39C641.07 51.86 642.67 52.71 643.63 53.65C645.07 55.07 646.06 56.54 646.06 58.94V66.99ZM629 65.99V65H644.03V65.99C644.03 66.54 643.58 66.99 643.02 66.99H630.01C629.45 66.99 629 66.54 629 65.99ZM644.03 58.99C644.03 50.99 629 50.99 629 58.99H644.03ZM629.02 61H644.02V63H629.02V61Z" fill="#616161"/>
<path d="M908 102H860V108H908V102ZM911 132V126L908 111H860L857 126V132H860V150H890V132H902V150H908V132H911ZM884 144H866V132H884V144Z" fill="#616161"/>
<rect x="817.5" y="99.5" width="29" height="21" rx="1.5" stroke="white" stroke-width="3"/>
<circle cx="876" cy="70" r="24" fill="white"/>
<path d="M882.06 80.99H883.72C884.56 80.99 885.25 80.35 885.35 79.53L887 63.05H882V59H880.03V63.05H875.06L875.36 65.39C877.07 65.86 878.67 66.71 879.63 67.65C881.07 69.07 882.06 70.54 882.06 72.94V80.99ZM865 79.99V79H880.03V79.99C880.03 80.54 879.58 80.99 879.02 80.99H866.01C865.45 80.99 865 80.54 865 79.99ZM880.03 72.99C880.03 64.99 865 64.99 865 72.99H880.03ZM865.02 75H880.02V77H865.02V75Z" fill="#616161"/>
<path d="M852 94L864 90L856 82L852 94Z" fill="white"/>
<circle cx="911" cy="83" r="3" fill="white"/>
<path d="M908 52H914L913 76H909L908 52Z" fill="white"/>
<path d="M616 230C616 221.163 623.163 214 632 214H904C912.837 214 920 221.163 920 230V326C920 334.837 912.837 342 904 342H632C623.163 342 616 334.837 616 326V230Z" fill="#FAF9F9"/>
<path fill-rule="evenodd" clip-rule="evenodd" d="M871.093 286.413L871.089 286.409C868.716 284.025 864.709 280 857.18 280H841.94C825.44 279.94 812 266.5 812 250H800C800 268.96 812.66 285.04 830 290.26V302H866V298.3L869.7 302H886.646L871.34 286.66C871.26 286.58 871.178 286.497 871.093 286.413ZM898 313.38V313.7L898.16 313.54L898 313.38ZM848 274C854.627 274 860 268.627 860 262C860 255.373 854.627 250 848 250C841.373 250 836 255.373 836 262C836 268.627 841.373 274 848 274Z" fill="#616161"/>
<path d="M744 298H920V314H744V298Z" fill="#616161"/>
<path d="M782 266H778C778 260.48 773.52 256 768 256C762.48 256 758 260.48 758 266H754C751.8 266 750.02 267.8 750.02 270L750 294C750 296.2 751.8 298 754 298H782C784.2 298 786 296.2 786 294V270C786 267.8 784.2 266 782 266ZM768 260C771.32 260 774 262.68 774 266H762C762 262.68 764.68 260 768 260ZM768 280C762.48 280 758 275.52 758 270H762C762 273.32 764.68 276 768 276C771.32 276 774 273.32 774 270H778C778 275.52 773.52 280 768 280Z" fill="#FBC02D"/>
<path fill-rule="evenodd" clip-rule="evenodd" d="M709 259C709 265.6 703.6 271 697 271C690.4 271 685 265.6 685 259C685 252.4 690.4 247 697 247C703.6 247 709 252.4 709 259ZM664.752 342L674.8 291.4L664 295.6V316H652V287.8L683.2 274.6C684.1 274.6 684.85 274.45 685.6 274.3C686.35 274.15 687.1 274 688 274C692.2 274 695.8 276.4 698.2 280L704.2 289.6C709 298 718.6 304 730 304V316C716.8 316 704.8 310 697 301L693.4 319L706 331V342H694V340L681.4 328L678.25 342H664.752Z" fill="#616161"/>
<path d="M1067.98 100.68L1066.25 100.92C1066.34 100.224 1066.39 99.576 1066.39 98.976V87.792H1063.58V90.864H1057.7V93.528H1063.58V96.384H1057.97V98.976H1063.58V99C1063.58 99.648 1063.51 100.464 1063.32 101.304C1060.8 101.64 1058.45 101.928 1056.72 102.096L1057.25 104.928C1058.69 104.712 1060.39 104.448 1062.19 104.16C1061.26 105.744 1059.72 107.232 1057.32 108.24C1058.02 108.816 1058.93 109.704 1059.41 110.376C1062.86 108.696 1064.69 106.104 1065.58 103.608L1068.07 103.2L1067.98 100.68ZM1079.14 101.928H1072.22V98.976H1078.18V96.384H1072.22V93.528H1078.7V90.864H1072.22V87.792H1069.37V110.088H1072.22V104.568H1079.14V101.928ZM1097.76 106.872H1086.5V104.784H1097.76V106.872ZM1088.45 97.104H1095.58V98.784H1088.45V97.104ZM1098.34 100.872V94.992H1085.81V100.872H1090.18C1090.08 101.352 1089.94 101.856 1089.82 102.336H1083.79V110.136H1086.5V109.344H1097.76V110.136H1100.59V102.336H1092.65C1092.86 101.88 1093.08 101.4 1093.27 100.872H1098.34ZM1098.96 91.392C1099.63 90.6 1100.35 89.64 1101.05 88.728L1097.98 87.768C1097.52 88.896 1096.61 90.36 1095.84 91.392H1091.9L1093.58 90.768C1093.25 89.904 1092.46 88.536 1091.76 87.6L1089.26 88.44C1089.84 89.352 1090.49 90.528 1090.82 91.392H1087.13L1087.9 91.056C1087.49 90.168 1086.55 88.896 1085.76 87.984L1083.29 89.04C1083.84 89.76 1084.44 90.624 1084.87 91.392H1081.97V96.504H1084.56V93.816H1099.56V96.504H1102.32V91.392H1098.96ZM1112.45 97.392H1116.58V94.776H1112.45V91.2C1113.91 90.84 1115.3 90.432 1116.5 89.952L1114.49 87.744C1112.16 88.8 1108.3 89.712 1104.84 90.216C1105.18 90.816 1105.54 91.824 1105.66 92.448C1106.95 92.28 1108.32 92.064 1109.69 91.8V94.776H1105.13V97.392H1109.14C1108.06 99.888 1106.3 102.624 1104.58 104.304C1105.03 105.024 1105.73 106.248 1106.02 107.088C1107.34 105.696 1108.61 103.632 1109.69 101.448V110.04H1112.45V101.76C1113.41 102.744 1114.42 103.824 1114.99 104.568L1116.65 102.12C1116 101.616 1113.62 99.576 1112.45 98.688V97.392ZM1120.49 90.576H1117.7V103.992H1120.49V90.576ZM1123.37 88.128V106.584C1123.37 107.016 1123.18 107.16 1122.72 107.184C1122.22 107.184 1120.68 107.184 1119.12 107.112C1119.55 107.928 1119.98 109.248 1120.1 110.064C1122.29 110.088 1123.9 109.992 1124.88 109.512C1125.86 109.056 1126.2 108.264 1126.2 106.608V88.128H1123.37ZM1134.67 98.448C1135.73 99.648 1136.78 101.352 1137.17 102.456L1139.3 101.28C1138.85 100.128 1137.72 98.544 1136.64 97.368L1134.67 98.448ZM1146.55 94.416H1143.89V92.04H1141.25V94.416H1133.54V96.84H1141.25V102.984C1141.25 103.296 1141.15 103.392 1140.82 103.392C1140.46 103.416 1139.28 103.416 1138.25 103.368C1138.56 104.064 1138.87 105.072 1138.97 105.768C1140.74 105.768 1141.92 105.744 1142.78 105.36C1143.62 104.976 1143.89 104.328 1143.89 103.032V96.84H1146.55V94.416ZM1132.63 106.344V91.44H1147.3V106.344H1132.63ZM1129.8 88.704V110.04H1132.63V109.104H1147.3V110.04H1150.27V88.704H1129.8ZM1157.35 87.768C1156.27 91.152 1154.4 94.56 1152.38 96.744C1152.91 97.464 1153.7 99.024 1153.97 99.72C1154.45 99.144 1154.95 98.496 1155.43 97.848V110.04H1158.14V93.216C1158.89 91.68 1159.54 90.12 1160.06 88.584L1157.35 87.768ZM1168.37 103.512V97.248C1169.18 99.504 1170.19 101.664 1171.32 103.512H1168.37ZM1162.66 103.512C1163.78 101.736 1164.79 99.624 1165.58 97.416V103.512H1162.66ZM1174.99 94.656V91.944H1168.37V87.792H1165.58V91.944H1159.51V94.656H1164.24C1162.92 98.448 1160.69 102.24 1158.26 104.4C1158.91 104.88 1159.82 105.888 1160.3 106.56C1161.07 105.792 1161.77 104.856 1162.44 103.848V106.056H1165.58V109.92H1168.37V106.056H1171.58V103.944C1172.21 104.88 1172.83 105.744 1173.5 106.488C1174.01 105.744 1174.99 104.784 1175.64 104.28C1173.31 102.096 1171.1 98.352 1169.78 94.656H1174.99ZM1199.52 90.48C1199.11 89.64 1198.22 88.128 1197.58 87.216L1195.68 88.008C1196.35 88.896 1197.12 90.312 1197.62 91.32L1199.52 90.48ZM1183.39 88.92C1183.42 90.408 1183.22 92.136 1182.89 93.96C1181.69 94.056 1180.56 94.128 1179.82 94.152C1178.95 94.176 1178.16 94.224 1177.3 94.152L1177.56 97.368C1178.3 97.248 1179.53 97.08 1180.2 97.008C1180.66 96.936 1181.4 96.84 1182.24 96.744C1181.4 99.984 1179.77 104.736 1177.46 107.856L1180.56 109.104C1182.74 105.6 1184.47 100.008 1185.41 96.408C1186.08 96.36 1186.66 96.312 1187.04 96.312C1188.53 96.312 1189.34 96.576 1189.34 98.472C1189.34 100.824 1189.03 103.656 1188.38 104.976C1188 105.768 1187.4 106.008 1186.61 106.008C1185.98 106.008 1184.59 105.768 1183.68 105.504L1184.21 108.648C1185 108.84 1186.15 108.984 1187.04 108.984C1188.86 108.984 1190.16 108.456 1190.95 106.8C1191.96 104.736 1192.3 100.944 1192.3 98.136C1192.3 94.728 1190.52 93.6 1188 93.6C1187.52 93.6 1186.8 93.648 1186.01 93.696C1186.18 92.832 1186.37 91.968 1186.51 91.248C1186.63 90.648 1186.78 89.904 1186.92 89.28L1183.39 88.92ZM1196.66 91.584C1196.18 90.696 1195.34 89.184 1194.74 88.296L1192.85 89.088C1193.4 89.856 1194 91.008 1194.48 91.92L1192.27 92.856C1193.98 94.968 1195.66 99.168 1196.28 101.808L1199.3 100.392C1198.61 98.304 1196.83 94.296 1195.44 92.112L1196.66 91.584ZM1210.03 90.432H1219.97V91.704H1222.61V88.416H1207.54V91.704H1210.03V90.432ZM1211.09 100.224V99.288H1213.54V100.224H1211.09ZM1211.09 96.696H1213.54V97.632H1211.09V96.696ZM1218.86 96.696V97.632H1216.32V96.696H1218.86ZM1218.86 100.224H1216.32V99.288H1218.86V100.224ZM1213.54 106.488H1216.32V104.904H1222.85V102.84H1216.32V101.952H1221.41V94.92H1216.32V94.08H1221.82V92.112H1216.32V90.864H1213.54V92.112H1208.21V94.08H1213.54V94.92H1208.66V101.952H1213.54V102.84H1207.32V104.904H1213.54V106.488ZM1207.03 92.088C1206.26 90.936 1204.61 89.352 1203.26 88.272L1201.08 89.904C1202.42 91.056 1204.01 92.712 1204.68 93.888L1207.03 92.088ZM1206.38 96.984H1200.98V99.6H1203.67V104.832C1202.71 105.648 1201.63 106.44 1200.7 107.04L1202.04 109.872C1203.26 108.84 1204.25 107.928 1205.21 106.992C1206.65 108.84 1208.57 109.536 1211.42 109.656C1214.35 109.776 1219.44 109.728 1222.42 109.584C1222.56 108.792 1222.97 107.472 1223.3 106.8C1219.99 107.064 1214.33 107.136 1211.45 107.016C1209 106.92 1207.32 106.248 1206.38 104.64V96.984ZM1241.76 106.872H1230.5V104.784H1241.76V106.872ZM1232.45 97.104H1239.58V98.784H1232.45V97.104ZM1242.34 100.872V94.992H1229.81V100.872H1234.18C1234.08 101.352 1233.94 101.856 1233.82 102.336H1227.79V110.136H1230.5V109.344H1241.76V110.136H1244.59V102.336H1236.65C1236.86 101.88 1237.08 101.4 1237.27 100.872H1242.34ZM1242.96 91.392C1243.63 90.6 1244.35 89.64 1245.05 88.728L1241.98 87.768C1241.52 88.896 1240.61 90.36 1239.84 91.392H1235.9L1237.58 90.768C1237.25 89.904 1236.46 88.536 1235.76 87.6L1233.26 88.44C1233.84 89.352 1234.49 90.528 1234.82 91.392H1231.13L1231.9 91.056C1231.49 90.168 1230.55 88.896 1229.76 87.984L1227.29 89.04C1227.84 89.76 1228.44 90.624 1228.87 91.392H1225.97V96.504H1228.56V93.816H1243.56V96.504H1246.32V91.392H1242.96Z" fill="white"/>
<path d="M1146.96 192.04V189.94C1146.96 189.14 1147.04 188.48 1147.08 188.08H1144.24C1144.3 188.48 1144.36 189.14 1144.36 189.94V192.04H1139.62V190.08C1139.62 189.28 1139.68 188.64 1139.74 188.26H1136.9C1136.94 188.64 1137.02 189.3 1137.02 190.06V192.04H1135.32C1134.32 192.04 1133.52 191.92 1133.16 191.86V194.58C1133.6 194.54 1134.32 194.5 1135.32 194.5H1137.02V197.22C1137.02 198.12 1136.96 198.92 1136.9 199.32H1139.7C1139.68 198.92 1139.62 198.1 1139.62 197.22V194.5H1144.36V195.26C1144.36 200.16 1142.66 201.9 1138.8 203.24L1140.94 205.26C1145.76 203.14 1146.96 200.12 1146.96 195.16V194.5H1148.44C1149.5 194.5 1150.2 194.52 1150.64 194.56V191.9C1150.1 192 1149.5 192.04 1148.44 192.04H1146.96ZM1153.84 197.88C1154.58 197.82 1155.92 197.78 1157.06 197.78H1167.8C1168.64 197.78 1169.66 197.86 1170.14 197.88V194.74C1169.62 194.78 1168.72 194.86 1167.8 194.86H1157.06C1156.02 194.86 1154.56 194.8 1153.84 194.74V197.88ZM1188.36 190.54C1187.98 189.8 1187.26 188.54 1186.76 187.8L1185.18 188.46C1185.72 189.22 1186.34 190.4 1186.74 191.22L1188.36 190.54ZM1177.98 197.14C1180.58 196.5 1183.8 195.5 1185.82 194.7C1186.48 194.46 1187.38 194.08 1188.16 193.76L1187.08 191.22C1186.3 191.7 1185.62 192.02 1184.9 192.3C1183.12 193.06 1180.34 193.94 1177.98 194.52V190.74C1177.98 190.18 1178.04 189.28 1178.14 188.66H1175.18C1175.28 189.28 1175.34 190.3 1175.34 190.74V201.64C1175.34 203.36 1176.34 204.32 1178.08 204.62C1178.94 204.76 1180.14 204.86 1181.44 204.86C1183.64 204.86 1186.68 204.72 1188.56 204.44V201.52C1186.92 201.96 1183.68 202.22 1181.6 202.22C1180.7 202.22 1179.88 202.18 1179.28 202.1C1178.38 201.92 1177.98 201.7 1177.98 200.84V197.14ZM1187.54 187.54C1188.1 188.3 1188.74 189.46 1189.16 190.3L1190.74 189.62C1190.38 188.92 1189.66 187.64 1189.12 186.9L1187.54 187.54ZM1207.04 189.22C1206.64 189.36 1205.84 189.48 1204.96 189.48H1197.92C1197.32 189.48 1196.1 189.42 1195.56 189.34V192.18C1195.98 192.16 1197.08 192.04 1197.92 192.04H1204.7C1204.26 193.46 1203.04 195.44 1201.72 196.94C1199.84 199.04 1196.74 201.46 1193.52 202.68L1195.58 204.84C1198.32 203.54 1200.98 201.46 1203.1 199.22C1204.98 201.04 1206.84 203.08 1208.14 204.88L1210.42 202.9C1209.24 201.46 1206.82 198.9 1204.84 197.18C1206.18 195.38 1207.3 193.24 1207.98 191.68C1208.16 191.28 1208.52 190.66 1208.68 190.44L1207.04 189.22ZM1219.04 195.16H1222.48V192.98H1219.04V190C1220.26 189.7 1221.42 189.36 1222.42 188.96L1220.74 187.12C1218.8 188 1215.58 188.76 1212.7 189.18C1212.98 189.68 1213.28 190.52 1213.38 191.04C1214.46 190.9 1215.6 190.72 1216.74 190.5V192.98H1212.94V195.16H1216.28C1215.38 197.24 1213.92 199.52 1212.48 200.92C1212.86 201.52 1213.44 202.54 1213.68 203.24C1214.78 202.08 1215.84 200.36 1216.74 198.54V205.7H1219.04V198.8C1219.84 199.62 1220.68 200.52 1221.16 201.14L1222.54 199.1C1222 198.68 1220.02 196.98 1219.04 196.24V195.16ZM1225.74 189.48H1223.42V200.66H1225.74V189.48ZM1228.14 187.44V202.82C1228.14 203.18 1227.98 203.3 1227.6 203.32C1227.18 203.32 1225.9 203.32 1224.6 203.26C1224.96 203.94 1225.32 205.04 1225.42 205.72C1227.24 205.74 1228.58 205.66 1229.4 205.26C1230.22 204.88 1230.5 204.22 1230.5 202.84V187.44H1228.14ZM1243.4 197.66V195.2H1247.62V197.66H1243.4ZM1237.18 197.66C1237.22 196.92 1237.24 196.2 1237.24 195.56V195.2H1241V197.66H1237.18ZM1241 190.66V192.98H1237.24V190.66H1241ZM1247.62 192.98H1243.4V190.66H1247.62V192.98ZM1249.98 188.4H1234.88V195.54C1234.88 198.34 1234.7 201.9 1232.52 204.3C1233.06 204.58 1234.02 205.4 1234.4 205.84C1235.84 204.28 1236.56 202.08 1236.92 199.9H1241V205.48H1243.4V199.9H1247.62V202.9C1247.62 203.26 1247.48 203.38 1247.1 203.38C1246.74 203.38 1245.42 203.4 1244.3 203.34C1244.6 203.96 1244.98 204.98 1245.06 205.62C1246.86 205.64 1248.08 205.6 1248.9 205.2C1249.7 204.84 1249.98 204.2 1249.98 202.92V188.4ZM1266.38 190.56C1265.74 189.82 1264.32 188.8 1263.2 188.14L1262.06 189.74C1263.16 190.48 1264.54 191.56 1265.16 192.34L1266.38 190.56ZM1261.14 194.78C1262.3 195.46 1263.76 196.54 1264.42 197.26L1265.62 195.36C1264.9 194.66 1263.42 193.68 1262.26 193.06L1261.14 194.78ZM1259.34 188.16C1259.12 189.56 1258.66 191.58 1258.24 192.84L1259.74 193.26C1260.24 192.1 1260.82 190.2 1261.34 188.6L1259.34 188.16ZM1255.46 192.84C1255.36 191.6 1254.96 189.7 1254.44 188.26L1252.78 188.7C1253.24 190.14 1253.64 192.08 1253.68 193.3L1255.46 192.84ZM1260.92 199.42C1260.5 198.86 1258.6 196.62 1258.02 196.04V195.9H1260.98V193.68H1258.02V187.14H1255.82V193.68H1252.8V195.9H1255.08C1254.46 197.72 1253.44 199.86 1252.44 201.08C1252.8 201.74 1253.32 202.82 1253.52 203.54C1254.38 202.34 1255.18 200.48 1255.82 198.62V205.68H1258.02V198.66C1258.6 199.58 1259.16 200.62 1259.46 201.26L1260.92 199.42ZM1271.5 199.88L1271.14 197.66L1269.1 198.04V187.04H1266.86V198.44L1260.92 199.5L1261.28 201.72L1266.86 200.72V205.72H1269.1V200.32L1271.5 199.88Z" fill="#616161"/>
<path d="M1137.88 229.54H1135.74V227.72H1137.88V229.54ZM1137.88 233.16H1135.74V231.3H1137.88V233.16ZM1137.88 236.78H1135.74V234.92H1137.88V236.78ZM1140.08 225.84H1133.62V238.68H1140.08V225.84ZM1134.6 238.84C1134.18 240.22 1133.38 241.62 1132.44 242.54C1132.96 242.84 1133.86 243.44 1134.3 243.82C1135.28 242.74 1136.22 241.02 1136.78 239.34L1134.6 238.84ZM1142.52 241.68C1143.3 239.56 1143.54 237.08 1143.6 234.9C1144.1 236.54 1144.72 238.04 1145.5 239.36C1144.66 240.36 1143.66 241.14 1142.52 241.68ZM1148.22 233.12C1147.92 234.72 1147.44 236.14 1146.82 237.36C1146.1 236.1 1145.56 234.66 1145.16 233.12H1148.22ZM1149.28 231.02L1148.9 231.06H1143.62V228.24H1150.8V226.1H1141.44V233.6C1141.44 235.92 1141.34 238.8 1140.34 241.12C1139.98 240.42 1139.4 239.48 1138.86 238.78L1137.02 239.56C1137.6 240.42 1138.26 241.58 1138.52 242.32L1140.14 241.54C1139.96 241.9 1139.76 242.24 1139.52 242.58C1140.06 242.82 1141.02 243.44 1141.42 243.8C1141.84 243.22 1142.18 242.54 1142.46 241.84C1142.94 242.32 1143.46 243.14 1143.74 243.7C1144.94 243.06 1146 242.26 1146.9 241.28C1147.78 242.28 1148.82 243.14 1150.04 243.78C1150.36 243.18 1151.06 242.32 1151.58 241.88C1150.3 241.3 1149.2 240.46 1148.28 239.42C1149.5 237.36 1150.3 234.7 1150.68 231.32L1149.28 231.02ZM1160.68 230.12H1155.1V232.2H1168.98V230.12H1163.14V228.82H1170.82V226.66H1163.14V225.08H1160.68V226.66H1153.2V228.82H1160.68V230.12ZM1170.56 237.44V233.18H1153.46V237.44H1155.76V235.32H1168.16V237.44H1170.56ZM1158.14 235.94C1157.9 239.02 1157.4 240.82 1152.66 241.74C1153.14 242.24 1153.74 243.18 1153.96 243.8C1159.42 242.5 1160.3 239.96 1160.62 235.94H1158.14ZM1166.28 241.36C1165.56 241.36 1165.44 241.28 1165.44 240.64V235.94H1163.04V240.68C1163.04 242.82 1163.62 243.5 1165.94 243.5H1168.52C1170.4 243.5 1171.02 242.76 1171.28 239.88C1170.64 239.72 1169.62 239.36 1169.14 238.98C1169.06 241.02 1168.94 241.36 1168.28 241.36H1166.28ZM1191.16 235.3H1183.26V232.96H1189.98V230.68H1183.26V228.06C1185.46 227.8 1187.56 227.46 1189.34 227L1187.62 225.02C1184.34 225.88 1178.86 226.42 1174.04 226.62C1174.28 227.14 1174.58 228.1 1174.64 228.72C1176.6 228.64 1178.7 228.52 1180.78 228.34V230.68H1174.24V232.96H1180.78V235.3H1172.88V237.62H1180.78V240.84C1180.78 241.24 1180.6 241.38 1180.14 241.4C1179.7 241.4 1178.02 241.4 1176.54 241.34C1176.92 241.98 1177.38 243.02 1177.52 243.7C1179.56 243.72 1181 243.66 1181.96 243.3C1182.9 242.92 1183.26 242.3 1183.26 240.88V237.62H1191.16V235.3ZM1202.72 237.36V235.44C1202.84 235.56 1202.92 235.66 1203 235.74C1203.32 235.3 1203.64 234.82 1203.92 234.3C1204.28 235.74 1204.72 237.06 1205.28 238.24C1204.4 239.48 1203.24 240.48 1201.76 241.26C1201.3 240.92 1200.72 240.56 1200.1 240.2C1200.6 239.42 1200.94 238.48 1201.16 237.36H1202.72ZM1196.98 237.36H1198.92C1198.74 238.08 1198.48 238.68 1198.16 239.18C1197.58 238.9 1197 238.66 1196.4 238.42L1196.98 237.36ZM1207.74 230.86C1207.52 232.62 1207.16 234.2 1206.66 235.56C1206.12 234.12 1205.72 232.54 1205.44 230.86H1207.74ZM1211.32 230.86V228.66H1206C1206.26 227.6 1206.48 226.5 1206.64 225.38L1204.24 225.06C1203.76 228.62 1202.8 232.02 1201.1 234.06C1201.54 234.36 1202.26 234.98 1202.72 235.44H1197.96L1198.44 234.48L1197.58 234.3H1198.86V231.88C1199.64 232.5 1200.48 233.2 1200.92 233.62L1202.18 231.98C1201.74 231.68 1200.32 230.84 1199.36 230.3H1202.64V228.42H1200.74C1201.22 227.8 1201.84 226.96 1202.46 226.1L1200.46 225.3C1200.14 226.06 1199.58 227.12 1199.12 227.84L1200.44 228.42H1198.86V225.06H1196.68V228.42H1195L1196.28 227.86C1196.12 227.16 1195.6 226.14 1195.08 225.38L1193.36 226.1C1193.78 226.82 1194.22 227.74 1194.4 228.42H1192.88V230.3H1196C1195.04 231.34 1193.7 232.3 1192.48 232.8C1192.92 233.22 1193.42 234 1193.68 234.52C1194.68 233.96 1195.76 233.12 1196.68 232.2V234.12L1196.24 234.02C1196.04 234.46 1195.8 234.94 1195.56 235.44H1192.66V237.36H1194.56C1194.06 238.32 1193.56 239.22 1193.12 239.92L1195.2 240.56L1195.42 240.18C1195.8 240.34 1196.18 240.52 1196.54 240.72C1195.6 241.24 1194.34 241.58 1192.74 241.78C1193.12 242.28 1193.54 243.08 1193.68 243.76C1195.82 243.32 1197.42 242.74 1198.6 241.86C1199.42 242.38 1200.14 242.9 1200.68 243.36L1201.58 242.44C1201.9 242.92 1202.2 243.46 1202.34 243.8C1204.08 242.92 1205.46 241.84 1206.56 240.52C1207.46 241.82 1208.56 242.88 1209.92 243.7C1210.28 243.04 1211.02 242.12 1211.56 241.64C1210.1 240.88 1208.94 239.74 1208.02 238.32C1209.1 236.3 1209.78 233.82 1210.2 230.86H1211.32ZM1226.38 228.56C1225.74 227.82 1224.32 226.8 1223.2 226.14L1222.06 227.74C1223.16 228.48 1224.54 229.56 1225.16 230.34L1226.38 228.56ZM1221.14 232.78C1222.3 233.46 1223.76 234.54 1224.42 235.26L1225.62 233.36C1224.9 232.66 1223.42 231.68 1222.26 231.06L1221.14 232.78ZM1219.34 226.16C1219.12 227.56 1218.66 229.58 1218.24 230.84L1219.74 231.26C1220.24 230.1 1220.82 228.2 1221.34 226.6L1219.34 226.16ZM1215.46 230.84C1215.36 229.6 1214.96 227.7 1214.44 226.26L1212.78 226.7C1213.24 228.14 1213.64 230.08 1213.68 231.3L1215.46 230.84ZM1220.92 237.42C1220.5 236.86 1218.6 234.62 1218.02 234.04V233.9H1220.98V231.68H1218.02V225.14H1215.82V231.68H1212.8V233.9H1215.08C1214.46 235.72 1213.44 237.86 1212.44 239.08C1212.8 239.74 1213.32 240.82 1213.52 241.54C1214.38 240.34 1215.18 238.48 1215.82 236.62V243.68H1218.02V236.66C1218.6 237.58 1219.16 238.62 1219.46 239.26L1220.92 237.42ZM1231.5 237.88L1231.14 235.66L1229.1 236.04V225.04H1226.86V236.44L1220.92 237.5L1221.28 239.72L1226.86 238.72V243.72H1229.1V238.32L1231.5 237.88Z" fill="#616161"/>
<path d="M1010.65 313.82L1011.53 312.82L1012.41 313.82L1013.04 313.36L1012.37 312.22L1013.57 311.69L1013.33 310.95L1012.05 311.24L1011.93 309.92H1011.14L1011.01 311.24L1009.73 310.95L1009.49 311.69L1010.68 312.22L1010.02 313.36L1010.65 313.82ZM1022.03 311.15C1021.8 311.22 1021.47 311.27 1021.16 311.27H1019.15L1019.18 311.22C1019.3 311 1019.55 310.55 1019.79 310.2L1018.33 309.72C1018.24 310.06 1018.03 310.52 1017.88 310.77C1017.38 311.63 1016.51 312.92 1014.76 313.99L1015.88 314.82C1016.86 314.15 1017.73 313.27 1018.4 312.4H1021.21C1021.05 313.15 1020.47 314.35 1019.79 315.13C1018.92 316.12 1017.81 316.99 1015.76 317.6L1016.94 318.66C1018.82 317.91 1020.03 317 1020.98 315.84C1021.88 314.72 1022.45 313.39 1022.72 312.5C1022.8 312.25 1022.94 311.97 1023.05 311.78L1022.03 311.15ZM1026.95 318.42C1027.19 318.27 1027.41 318.2 1027.55 318.15C1029.9 317.38 1031.98 316.19 1033.35 314.55L1032.64 313.42C1031.36 314.98 1029.13 316.26 1027.5 316.72V311.53C1027.5 311.14 1027.54 310.78 1027.6 310.4H1026.03C1026.09 310.68 1026.14 311.15 1026.14 311.53V316.95C1026.14 317.18 1026.13 317.35 1026.01 317.6L1026.95 318.42ZM1041.35 310.32L1040.52 310.67C1040.88 311.18 1041.11 311.61 1041.4 312.24L1042.27 311.87C1042.04 311.41 1041.64 310.74 1041.35 310.32ZM1042.73 309.84L1041.88 310.19C1042.25 310.69 1042.5 311.08 1042.82 311.71L1043.67 311.33C1043.43 310.89 1043.04 310.24 1042.73 309.84ZM1037.01 310.13L1036.29 311.23C1036.95 311.6 1037.99 312.27 1038.55 312.66L1039.29 311.56C1038.77 311.2 1037.67 310.49 1037.01 310.13ZM1035.16 317.23L1035.91 318.54C1036.79 318.38 1038.23 317.88 1039.25 317.31C1040.88 316.36 1042.3 315.1 1043.22 313.71L1042.45 312.35C1041.66 313.78 1040.26 315.15 1038.56 316.1C1037.48 316.7 1036.28 317.04 1035.16 317.23ZM1035.47 312.41L1034.75 313.51C1035.42 313.87 1036.46 314.54 1037.03 314.94L1037.76 313.82C1037.25 313.46 1036.15 312.77 1035.47 312.41ZM1049.11 312.05L1047.92 312.44C1048.17 312.96 1048.61 314.17 1048.73 314.66L1049.93 314.24C1049.79 313.78 1049.3 312.48 1049.11 312.05ZM1051.39 312.33C1051.28 313.58 1050.8 314.91 1050.12 315.76C1049.29 316.8 1047.9 317.56 1046.8 317.85L1047.85 318.92C1049.02 318.48 1050.27 317.64 1051.2 316.44C1051.88 315.56 1052.3 314.52 1052.56 313.51C1052.62 313.31 1052.68 313.1 1052.8 312.78L1051.39 312.33ZM1046.79 312.58L1045.59 313.01C1045.83 313.45 1046.33 314.78 1046.5 315.32L1047.72 314.86C1047.52 314.3 1047.04 313.09 1046.79 312.58ZM1062.75 314.32C1061.83 313.87 1059.91 313.16 1058.57 312.77V311.3C1058.57 310.88 1058.62 310.44 1058.66 310.09H1057.1C1057.17 310.44 1057.2 310.94 1057.2 311.3V317.04C1057.2 317.44 1057.16 318.04 1057.1 318.43H1058.66C1058.62 318.03 1058.57 317.33 1058.57 317.04V314.21C1059.65 314.58 1061.15 315.16 1062.18 315.7L1062.75 314.32ZM1071.92 311.7C1071.67 311.74 1071.41 311.77 1071.16 311.77H1069.28C1069.3 311.48 1069.31 311.18 1069.32 310.87C1069.33 310.63 1069.35 310.21 1069.38 309.98H1067.91C1067.95 310.22 1067.98 310.68 1067.98 310.9C1067.98 311.2 1067.97 311.49 1067.96 311.77H1066.53C1066.15 311.77 1065.63 311.74 1065.21 311.7V313.01C1065.64 312.97 1066.19 312.97 1066.53 312.97H1067.85C1067.63 314.49 1067.13 315.61 1066.2 316.53C1065.8 316.94 1065.31 317.28 1064.89 317.51L1066.05 318.45C1067.84 317.18 1068.79 315.61 1069.16 312.97H1071.41C1071.41 314.05 1071.28 316.05 1070.99 316.68C1070.88 316.92 1070.74 317.03 1070.42 317.03C1070.03 317.03 1069.51 316.98 1069.02 316.89L1069.17 318.23C1069.66 318.27 1070.26 318.31 1070.83 318.31C1071.52 318.31 1071.9 318.05 1072.12 317.54C1072.55 316.52 1072.67 313.73 1072.71 312.65C1072.71 312.54 1072.75 312.29 1072.78 312.12L1071.92 311.7ZM1074.98 314.94C1075.35 314.91 1076.02 314.89 1076.59 314.89H1081.96C1082.38 314.89 1082.89 314.93 1083.13 314.94V313.37C1082.87 313.39 1082.42 313.43 1081.96 313.43H1076.59C1076.07 313.43 1075.34 313.4 1074.98 313.37V314.94ZM1093.13 311.49C1092.9 311.04 1092.48 310.41 1092.19 310.01L1091.36 310.4C1091.73 310.9 1091.97 311.27 1092.29 311.9L1093.13 311.49ZM1091.79 312.07C1091.56 311.62 1091.16 310.98 1090.88 310.56L1090.04 310.92C1090.41 311.43 1090.63 311.83 1090.92 312.46L1091.79 312.07ZM1088.26 311.44C1088.26 311.02 1088.31 310.58 1088.35 310.23H1086.79C1086.86 310.59 1086.89 311.08 1086.89 311.44V317.19C1086.89 317.58 1086.85 318.19 1086.79 318.58H1088.36C1088.31 318.17 1088.26 317.47 1088.26 317.19V314.36C1089.34 314.72 1090.84 315.3 1091.88 315.85L1092.44 314.46C1091.52 314.01 1089.59 313.3 1088.26 312.9V311.44ZM1097.22 312.53C1097.98 311.94 1098.62 311.29 1099.05 310.68C1099.51 311.3 1100.2 311.95 1100.97 312.53H1097.22ZM1096.73 313.62H1101.4V312.83C1101.95 313.21 1102.53 313.54 1103.08 313.8C1103.29 313.45 1103.55 313.02 1103.85 312.71C1102.27 312.15 1100.68 311.01 1099.62 309.54H1098.38C1097.63 310.72 1096.05 312.14 1094.34 312.89C1094.59 313.15 1094.9 313.6 1095.04 313.89C1095.62 313.61 1096.2 313.27 1096.73 312.89V313.62ZM1094.96 315.55H1097.28C1097.07 316.14 1096.79 316.8 1096.52 317.36L1095.01 317.41L1095.17 318.57C1096.87 318.49 1099.34 318.39 1101.69 318.26C1101.85 318.48 1101.99 318.69 1102.09 318.88L1103.2 318.21C1102.73 317.46 1101.8 316.42 1100.91 315.64L1099.86 316.19C1100.19 316.49 1100.53 316.85 1100.84 317.21C1099.82 317.25 1098.79 317.29 1097.83 317.32C1098.13 316.76 1098.46 316.14 1098.75 315.55H1103.23V314.45H1094.96V315.55ZM1108.81 315.18C1108.6 314.98 1107.83 314.29 1107.35 313.9C1107.83 313.24 1108.23 312.52 1108.53 311.76L1107.86 311.33L1107.65 311.38H1107.2V309.54H1106.02V311.38H1104.6V312.45H1107.02C1106.36 313.61 1105.31 314.66 1104.22 315.25C1104.4 315.48 1104.68 316.06 1104.78 316.38C1105.2 316.12 1105.62 315.79 1106.02 315.42V318.87H1107.2V315.1C1107.54 315.47 1107.88 315.87 1108.09 316.15L1108.81 315.18ZM1111.69 317.42V313.76H1113.58V312.61H1111.69V309.62H1110.47V312.61H1108.57V313.76H1110.47V317.42H1108.16V318.58H1113.82V317.42H1111.69ZM1118.54 311.02L1118.55 312.3C1119.79 312.41 1121.58 312.41 1122.8 312.3V311.02C1121.73 311.15 1119.76 311.19 1118.54 311.02ZM1118.2 315.15C1118.1 315.61 1118.03 316.03 1118.03 316.44C1118.03 317.45 1118.84 318.07 1120.55 318.07C1121.67 318.07 1122.47 317.99 1123.11 317.87L1123.08 316.53C1122.22 316.71 1121.49 316.79 1120.6 316.79C1119.6 316.79 1119.22 316.53 1119.22 316.09C1119.22 315.82 1119.26 315.58 1119.34 315.26L1118.2 315.15ZM1115.63 310.25C1115.63 310.56 1115.57 310.94 1115.53 311.22C1115.42 311.98 1115.12 313.65 1115.12 315.14C1115.12 316.48 1115.31 317.69 1115.51 318.38L1116.65 318.3C1116.64 318.16 1116.64 318 1116.63 317.89C1116.63 317.79 1116.66 317.57 1116.69 317.43C1116.79 316.9 1117.12 315.83 1117.4 315L1116.78 314.52C1116.64 314.84 1116.48 315.17 1116.34 315.52C1116.31 315.31 1116.3 315.07 1116.3 314.88C1116.3 313.89 1116.64 311.91 1116.78 311.25C1116.82 311.07 1116.94 310.57 1117.02 310.37L1115.63 310.25ZM1128.5 316.41C1128.5 317.06 1128.27 317.35 1127.63 317.35C1126.94 317.35 1126.44 317.17 1126.44 316.68C1126.44 316.26 1126.9 316 1127.67 316C1127.95 316 1128.23 316.03 1128.49 316.07C1128.5 316.2 1128.5 316.32 1128.5 316.41ZM1132.78 316.87C1132.1 316.23 1131.03 315.55 1129.77 315.17C1129.72 314.44 1129.68 313.66 1129.66 313.06C1130.46 313.04 1131.64 313 1132.47 312.92L1132.42 311.74C1131.6 311.83 1130.44 311.87 1129.66 311.89C1129.66 311.64 1129.66 311.39 1129.66 311.17C1129.68 310.78 1129.71 310.3 1129.75 310.01H1128.26C1128.32 310.26 1128.35 310.68 1128.36 311.17C1128.37 311.59 1128.38 312.18 1128.38 312.78C1128.38 313.3 1128.42 314.15 1128.45 314.92C1128.26 314.9 1128.06 314.89 1127.86 314.89C1126.04 314.89 1125.16 315.71 1125.16 316.74C1125.16 318.09 1126.32 318.55 1127.73 318.55C1129.39 318.55 1129.84 317.71 1129.84 316.84C1129.84 316.74 1129.84 316.63 1129.83 316.5C1130.71 316.9 1131.46 317.49 1132.02 318.05L1132.78 316.87ZM1136.13 309.94C1136.12 310.22 1136.1 310.62 1136.05 310.98C1135.9 312 1135.77 313.23 1135.77 314.15C1135.77 314.81 1135.84 315.42 1135.89 315.8L1137.12 315.72C1137.06 315.26 1137.06 314.94 1137.07 314.67C1137.12 313.37 1138.14 311.61 1139.31 311.61C1140.13 311.61 1140.64 312.46 1140.64 313.99C1140.64 316.39 1139.1 317.11 1136.9 317.45L1137.65 318.6C1140.27 318.12 1141.99 316.78 1141.99 313.98C1141.99 311.8 1140.92 310.45 1139.54 310.45C1138.42 310.45 1137.56 311.29 1137.09 312.05C1137.15 311.5 1137.35 310.49 1137.49 310L1136.13 309.94ZM1145.8 311.04H1147.68V312.41H1145.8V311.04ZM1146.82 314.29C1146.84 314.02 1146.86 313.74 1146.88 313.47H1148.83V309.99H1144.72V313.47H1145.72C1145.64 315.13 1145.44 316.93 1144.13 318.01C1144.41 318.21 1144.75 318.58 1144.92 318.88C1145.98 317.98 1146.45 316.7 1146.68 315.33H1147.79C1147.72 316.91 1147.63 317.55 1147.48 317.72C1147.39 317.83 1147.3 317.85 1147.15 317.85C1146.97 317.85 1146.57 317.85 1146.17 317.8C1146.34 318.09 1146.46 318.52 1146.47 318.83C1146.95 318.85 1147.41 318.84 1147.68 318.8C1148 318.76 1148.23 318.67 1148.43 318.43C1148.71 318.09 1148.81 317.13 1148.91 314.72C1148.91 314.58 1148.92 314.29 1148.92 314.29H1146.82ZM1150.74 310.74H1149.58V316.37H1150.74V310.74ZM1151.93 309.73V317.43C1151.93 317.61 1151.85 317.67 1151.66 317.67C1151.45 317.67 1150.81 317.67 1150.16 317.65C1150.34 317.98 1150.52 318.53 1150.57 318.88C1151.48 318.88 1152.15 318.84 1152.56 318.65C1152.97 318.46 1153.11 318.13 1153.11 317.43V309.73H1151.93ZM1158.63 311.94C1159.21 311.51 1159.71 311.03 1160.06 310.57C1160.42 311.03 1160.97 311.52 1161.55 311.94H1158.63ZM1158.28 312.9H1159.55V313.45H1157.13V314.43H1159.55V316.14C1159.55 316.25 1159.51 316.29 1159.38 316.29C1159.28 316.29 1158.89 316.29 1158.55 316.27C1158.68 316.55 1158.82 316.97 1158.86 317.27C1159.48 317.27 1159.93 317.26 1160.27 317.1C1160.61 316.94 1160.69 316.67 1160.69 316.16V314.43H1163.23V313.45H1160.69V312.9H1161.98V312.24C1162.29 312.44 1162.6 312.61 1162.89 312.75C1163.07 312.41 1163.33 311.96 1163.58 311.65C1162.47 311.27 1161.37 310.47 1160.6 309.54H1159.43C1158.88 310.35 1157.75 311.28 1156.62 311.74C1156.84 312.01 1157.11 312.48 1157.24 312.78C1157.59 312.61 1157.94 312.41 1158.28 312.19V312.9ZM1161.06 315.05C1161.51 315.61 1162.04 316.39 1162.26 316.88L1163.26 316.39C1163.01 315.88 1162.45 315.15 1162 314.61L1161.06 315.05ZM1157.97 314.66C1157.73 315.28 1157.29 315.89 1156.77 316.3C1157.02 316.44 1157.45 316.71 1157.65 316.89C1158.17 316.42 1158.69 315.66 1159 314.91L1157.97 314.66ZM1156.85 311.29C1156.52 310.82 1155.8 310.18 1155.22 309.76L1154.33 310.47C1154.91 310.92 1155.61 311.6 1155.9 312.07L1156.85 311.29ZM1156.59 313.41H1154.33V314.5H1155.43V316.61C1155 316.95 1154.51 317.29 1154.11 317.53L1154.69 318.77C1155.22 318.35 1155.65 317.96 1156.08 317.57C1156.73 318.35 1157.56 318.63 1158.8 318.68C1160 318.73 1162.01 318.71 1163.22 318.65C1163.27 318.31 1163.45 317.73 1163.59 317.45C1162.26 317.55 1159.99 317.58 1158.82 317.53C1157.77 317.49 1157.01 317.22 1156.59 316.55V313.41ZM1167.2 310.56C1166.8 310.23 1166 309.81 1165.39 309.57L1164.74 310.46C1165.37 310.73 1166.15 311.19 1166.51 311.54L1167.2 310.56ZM1166.65 313.22C1166.25 312.88 1165.42 312.49 1164.8 312.27L1164.17 313.16C1164.8 313.43 1165.59 313.87 1165.97 314.21L1166.65 313.22ZM1166.21 314.8C1165.65 315.97 1164.94 317.23 1164.44 317.99L1165.48 318.73C1166.04 317.75 1166.62 316.6 1167.12 315.54L1166.21 314.8ZM1170.37 312.18H1171.61V313.99H1170.34C1170.36 313.66 1170.37 313.34 1170.37 313.01V312.18ZM1173.52 315.11V313.99H1172.77V311.06H1170.37V309.54H1169.19V311.06H1167.52V312.18H1169.19V313C1169.19 313.33 1169.18 313.66 1169.16 313.99H1167.03V315.11H1168.98C1168.69 316.23 1168.02 317.26 1166.5 318.06C1166.82 318.24 1167.28 318.65 1167.49 318.9C1169.02 318.06 1169.75 316.92 1170.08 315.69C1170.65 317.14 1171.5 318.25 1172.8 318.89C1172.98 318.56 1173.35 318.09 1173.63 317.85C1172.41 317.35 1171.56 316.34 1171.08 315.11H1173.52ZM1176.24 314.8C1175.67 315.97 1174.95 317.23 1174.45 317.99L1175.49 318.73C1176.05 317.75 1176.64 316.6 1177.14 315.54L1176.24 314.8ZM1176.65 313.22C1176.25 312.88 1175.42 312.49 1174.8 312.27L1174.17 313.16C1174.8 313.43 1175.59 313.87 1175.97 314.21L1176.65 313.22ZM1181.48 314.09V314.5H1179.03V314.06H1178.19C1178.91 313.87 1179.59 313.64 1180.21 313.35C1180.92 313.69 1181.7 313.91 1182.52 314.09H1181.48ZM1178.97 316.18C1179.01 315.94 1179.02 315.7 1179.03 315.49H1181.48V316.18H1178.97ZM1181.14 311.46C1180.9 311.73 1180.61 311.97 1180.27 312.18C1179.92 311.99 1179.59 311.75 1179.27 311.46H1181.14ZM1183.41 311.46V310.43H1180.86V309.54H1179.63V310.43H1177.12V310.5C1176.7 310.18 1175.96 309.8 1175.39 309.58L1174.74 310.46C1175.37 310.73 1176.15 311.19 1176.51 311.54L1177.12 310.67V311.46H1177.9C1178.28 311.97 1178.7 312.37 1179.15 312.71C1178.42 312.97 1177.58 313.15 1176.71 313.27C1176.89 313.5 1177.17 314 1177.27 314.27C1177.48 314.23 1177.69 314.18 1177.89 314.13V315.22C1177.89 316.07 1177.76 317.46 1176.64 318.34C1176.93 318.47 1177.38 318.79 1177.59 318.97C1178.21 318.47 1178.56 317.82 1178.77 317.16H1181.48V318.85H1182.65V314.12L1183.01 314.19C1183.12 313.82 1183.39 313.39 1183.65 313.12C1182.83 313.01 1182.07 312.87 1181.36 312.65C1181.8 312.31 1182.18 311.92 1182.48 311.46H1183.41ZM1193.44 314.65H1189.49V313.48H1192.85V312.34H1189.49V311.03C1190.59 310.9 1191.64 310.73 1192.53 310.5L1191.67 309.51C1190.03 309.94 1187.29 310.21 1184.88 310.31C1185 310.57 1185.15 311.05 1185.18 311.36C1186.16 311.32 1187.21 311.26 1188.25 311.17V312.34H1184.98V313.48H1188.25V314.65H1184.3V315.81H1188.25V317.42C1188.25 317.62 1188.16 317.69 1187.93 317.7C1187.71 317.7 1186.87 317.7 1186.13 317.67C1186.32 317.99 1186.55 318.51 1186.62 318.85C1187.64 318.86 1188.36 318.83 1188.84 318.65C1189.31 318.46 1189.49 318.15 1189.49 317.44V315.81H1193.44V314.65ZM1199.22 315.68V314.72C1199.28 314.78 1199.32 314.83 1199.36 314.87C1199.52 314.65 1199.68 314.41 1199.82 314.15C1200 314.87 1200.22 315.53 1200.5 316.12C1200.06 316.74 1199.48 317.24 1198.74 317.63C1198.51 317.46 1198.22 317.28 1197.91 317.1C1198.16 316.71 1198.33 316.24 1198.44 315.68H1199.22ZM1196.35 315.68H1197.32C1197.23 316.04 1197.1 316.34 1196.94 316.59C1196.65 316.45 1196.36 316.33 1196.06 316.21L1196.35 315.68ZM1201.73 312.43C1201.62 313.31 1201.44 314.1 1201.19 314.78C1200.92 314.06 1200.72 313.27 1200.58 312.43H1201.73ZM1203.52 312.43V311.33H1200.86C1200.99 310.8 1201.1 310.25 1201.18 309.69L1199.98 309.53C1199.74 311.31 1199.26 313.01 1198.41 314.03C1198.63 314.18 1198.99 314.49 1199.22 314.72H1196.84L1197.08 314.24L1196.65 314.15H1197.29V312.94C1197.68 313.25 1198.1 313.6 1198.32 313.81L1198.95 312.99C1198.73 312.84 1198.02 312.42 1197.54 312.15H1199.18V311.21H1198.23C1198.47 310.9 1198.78 310.48 1199.09 310.05L1198.09 309.65C1197.93 310.03 1197.65 310.56 1197.42 310.92L1198.08 311.21H1197.29V309.53H1196.2V311.21H1195.36L1196 310.93C1195.92 310.58 1195.66 310.07 1195.4 309.69L1194.54 310.05C1194.75 310.41 1194.97 310.87 1195.06 311.21H1194.3V312.15H1195.86C1195.38 312.67 1194.71 313.15 1194.1 313.4C1194.32 313.61 1194.57 314 1194.7 314.26C1195.2 313.98 1195.74 313.56 1196.2 313.1V314.06L1195.98 314.01C1195.88 314.23 1195.76 314.47 1195.64 314.72H1194.19V315.68H1195.14C1194.89 316.16 1194.64 316.61 1194.42 316.96L1195.46 317.28L1195.57 317.09C1195.76 317.17 1195.95 317.26 1196.13 317.36C1195.66 317.62 1195.03 317.79 1194.23 317.89C1194.42 318.14 1194.63 318.54 1194.7 318.88C1195.77 318.66 1196.57 318.37 1197.16 317.93C1197.57 318.19 1197.93 318.45 1198.2 318.68L1198.65 318.22C1198.81 318.46 1198.96 318.73 1199.03 318.9C1199.9 318.46 1200.59 317.92 1201.14 317.26C1201.59 317.91 1202.14 318.44 1202.82 318.85C1203 318.52 1203.37 318.06 1203.64 317.82C1202.91 317.44 1202.33 316.87 1201.87 316.16C1202.41 315.15 1202.75 313.91 1202.96 312.43H1203.52ZM1211.05 311.28C1210.73 310.91 1210.02 310.4 1209.46 310.07L1208.89 310.87C1209.44 311.24 1210.13 311.78 1210.44 312.17L1211.05 311.28ZM1208.43 313.39C1209.01 313.73 1209.74 314.27 1210.07 314.63L1210.67 313.68C1210.31 313.33 1209.57 312.84 1208.99 312.53L1208.43 313.39ZM1207.53 310.08C1207.42 310.78 1207.19 311.79 1206.98 312.42L1207.73 312.63C1207.98 312.05 1208.27 311.1 1208.53 310.3L1207.53 310.08ZM1205.59 312.42C1205.54 311.8 1205.34 310.85 1205.08 310.13L1204.25 310.35C1204.48 311.07 1204.68 312.04 1204.7 312.65L1205.59 312.42ZM1208.32 315.71C1208.11 315.43 1207.16 314.31 1206.87 314.02V313.95H1208.35V312.84H1206.87V309.57H1205.77V312.84H1204.26V313.95H1205.4C1205.09 314.86 1204.58 315.93 1204.08 316.54C1204.26 316.87 1204.52 317.41 1204.62 317.77C1205.05 317.17 1205.45 316.24 1205.77 315.31V318.84H1206.87V315.33C1207.16 315.79 1207.44 316.31 1207.59 316.63L1208.32 315.71ZM1213.61 315.94L1213.43 314.83L1212.41 315.02V309.52H1211.29V315.22L1208.32 315.75L1208.5 316.86L1211.29 316.36V318.86H1212.41V316.16L1213.61 315.94ZM1223.66 310.7C1223.49 310.35 1223.12 309.72 1222.85 309.34L1222.06 309.67C1222.34 310.04 1222.66 310.63 1222.87 311.05L1223.66 310.7ZM1216.94 310.05C1216.95 310.67 1216.87 311.39 1216.73 312.15C1216.23 312.19 1215.76 312.22 1215.45 312.23C1215.09 312.24 1214.76 312.26 1214.4 312.23L1214.51 313.57C1214.82 313.52 1215.33 313.45 1215.61 313.42C1215.8 313.39 1216.11 313.35 1216.46 313.31C1216.11 314.66 1215.43 316.64 1214.47 317.94L1215.76 318.46C1216.67 317 1217.39 314.67 1217.78 313.17C1218.06 313.15 1218.3 313.13 1218.46 313.13C1219.08 313.13 1219.42 313.24 1219.42 314.03C1219.42 315.01 1219.29 316.19 1219.02 316.74C1218.86 317.07 1218.61 317.17 1218.28 317.17C1218.02 317.17 1217.44 317.07 1217.06 316.96L1217.28 318.27C1217.61 318.35 1218.09 318.41 1218.46 318.41C1219.22 318.41 1219.76 318.19 1220.09 317.5C1220.51 316.64 1220.65 315.06 1220.65 313.89C1220.65 312.47 1219.91 312 1218.86 312C1218.66 312 1218.36 312.02 1218.03 312.04C1218.1 311.68 1218.18 311.32 1218.24 311.02C1218.29 310.77 1218.35 310.46 1218.41 310.2L1216.94 310.05ZM1222.47 311.16C1222.27 310.79 1221.92 310.16 1221.67 309.79L1220.88 310.12C1221.11 310.44 1221.36 310.92 1221.56 311.3L1220.64 311.69C1221.35 312.57 1222.05 314.32 1222.31 315.42L1223.57 314.83C1223.28 313.96 1222.54 312.29 1221.96 311.38L1222.47 311.16ZM1230.03 311.22C1229.46 310.78 1228.45 310.04 1227.64 309.52L1226.87 310.39C1227.65 310.93 1228.67 311.71 1229.25 312.19L1230.03 311.22ZM1225.16 312.23C1224.98 313.4 1224.6 314.67 1224.11 315.53L1225.26 315.96C1225.76 315.1 1226.08 313.7 1226.29 312.52L1225.16 312.23ZM1228.61 317.57C1228.1 317.57 1228.02 317.5 1228.02 316.99V316.38C1230.03 314.74 1231.6 312.68 1232.69 310.59L1231.49 310.12C1230.73 311.72 1229.53 313.38 1228.02 314.8V311.78H1226.75V315.87C1225.94 316.49 1225.06 317.03 1224.13 317.45C1224.37 317.68 1224.73 318.12 1224.91 318.39C1225.55 318.08 1226.18 317.72 1226.76 317.32C1226.83 318.42 1227.25 318.76 1228.48 318.76H1230.23C1231.46 318.76 1231.81 318.17 1231.97 316.37C1231.62 316.29 1231.09 316.08 1230.8 315.87C1230.72 317.28 1230.64 317.57 1230.13 317.57H1228.61ZM1231.02 313.41C1231.61 314.35 1232.23 315.63 1232.46 316.46L1233.6 315.88C1233.35 315.06 1232.72 313.84 1232.09 312.9L1231.02 313.41ZM1237.75 315.88H1240.19C1239.95 316.25 1239.64 316.56 1239.27 316.81C1238.66 316.65 1238.03 316.5 1237.41 316.37L1237.75 315.88ZM1236.06 312.42H1237.11V313.35H1236.06V312.42ZM1238.23 310.91H1239.36V311.48H1238.23V310.91ZM1241.68 312.42V313.35H1240.48V312.42H1241.68ZM1238.23 313.35V312.42H1239.36V313.35H1238.23ZM1243.43 315.88V314.92H1238.38C1238.52 314.7 1238.66 314.49 1238.78 314.28H1242.87V311.48H1240.48V310.91H1243.19V309.88H1234.48V310.91H1237.11V311.48H1234.94V314.28H1237.42C1237.29 314.49 1237.16 314.7 1237.02 314.92H1234.3V315.88H1236.38C1236.08 316.31 1235.79 316.7 1235.54 317.02L1236.69 317.38L1236.8 317.23C1237.13 317.3 1237.45 317.38 1237.77 317.46C1236.88 317.69 1235.8 317.81 1234.48 317.86C1234.66 318.12 1234.85 318.54 1234.93 318.88C1236.87 318.73 1238.35 318.47 1239.47 317.92C1240.6 318.25 1241.61 318.6 1242.37 318.91L1243.1 317.94C1242.42 317.7 1241.55 317.43 1240.58 317.16C1240.95 316.81 1241.26 316.39 1241.51 315.88H1243.43ZM1248.34 311.02L1248.35 312.3C1249.59 312.41 1251.38 312.41 1252.6 312.3V311.02C1251.53 311.15 1249.56 311.19 1248.34 311.02ZM1248 315.15C1247.9 315.61 1247.83 316.03 1247.83 316.44C1247.83 317.45 1248.64 318.07 1250.35 318.07C1251.47 318.07 1252.27 317.99 1252.91 317.87L1252.88 316.53C1252.02 316.71 1251.29 316.79 1250.4 316.79C1249.4 316.79 1249.02 316.53 1249.02 316.09C1249.02 315.82 1249.06 315.58 1249.14 315.26L1248 315.15ZM1245.43 310.25C1245.43 310.56 1245.37 310.94 1245.33 311.22C1245.22 311.98 1244.92 313.65 1244.92 315.14C1244.92 316.48 1245.11 317.69 1245.31 318.38L1246.45 318.3C1246.44 318.16 1246.44 318 1246.43 317.89C1246.43 317.79 1246.46 317.57 1246.49 317.43C1246.59 316.9 1246.92 315.83 1247.2 315L1246.58 314.52C1246.44 314.84 1246.28 315.17 1246.14 315.52C1246.11 315.31 1246.1 315.07 1246.1 314.88C1246.1 313.89 1246.44 311.91 1246.58 311.25C1246.62 311.07 1246.74 310.57 1246.82 310.37L1245.43 310.25ZM1263.3 312.54C1262.8 312.18 1261.57 311.51 1260.86 311.2L1260.22 312.18C1260.9 312.48 1262.03 313.13 1262.6 313.59L1263.3 312.54ZM1259.57 311.02C1259.18 311.14 1258.72 311.25 1258.24 311.33C1258.38 310.8 1258.5 310.3 1258.58 309.98L1257.21 309.84C1257.19 310.35 1257.08 310.95 1256.94 311.5C1256.64 311.52 1256.34 311.53 1256.05 311.53C1255.69 311.53 1255.16 311.51 1254.73 311.46L1254.82 312.62C1255.25 312.64 1255.65 312.65 1256.06 312.65C1256.23 312.65 1256.4 312.65 1256.57 312.64C1256.13 313.71 1255.35 315.17 1254.55 316.14L1255.76 316.75C1256.56 315.62 1257.41 313.9 1257.88 312.51C1258.54 312.42 1259.15 312.29 1259.6 312.17L1259.57 311.02ZM1259.81 316.53C1259.81 317.06 1259.59 317.45 1258.92 317.45C1258.38 317.45 1258.07 317.2 1258.07 316.83C1258.07 316.48 1258.44 316.24 1259.01 316.24C1259.29 316.24 1259.55 316.28 1259.81 316.34V316.53ZM1259.65 313.06C1259.68 313.66 1259.73 314.53 1259.76 315.27C1259.55 315.25 1259.32 315.23 1259.09 315.23C1257.71 315.23 1256.9 315.98 1256.9 316.95C1256.9 318.04 1257.87 318.59 1259.1 318.59C1260.51 318.59 1261.01 317.87 1261.01 316.95V316.86C1261.55 317.19 1262 317.59 1262.35 317.91L1263.01 316.85C1262.51 316.4 1261.81 315.9 1260.96 315.58C1260.93 315.09 1260.91 314.61 1260.9 314.33C1260.89 313.89 1260.87 313.48 1260.9 313.06H1259.65ZM1266.13 309.94C1266.12 310.22 1266.1 310.62 1266.05 310.98C1265.9 312 1265.77 313.23 1265.77 314.15C1265.77 314.81 1265.84 315.42 1265.89 315.8L1267.12 315.72C1267.06 315.26 1267.06 314.94 1267.07 314.67C1267.12 313.37 1268.14 311.61 1269.31 311.61C1270.13 311.61 1270.64 312.46 1270.64 313.99C1270.64 316.39 1269.1 317.11 1266.9 317.45L1267.65 318.6C1270.27 318.12 1271.99 316.78 1271.99 313.98C1271.99 311.8 1270.92 310.45 1269.54 310.45C1268.42 310.45 1267.56 311.29 1267.09 312.05C1267.15 311.5 1267.35 310.49 1267.49 310L1266.13 309.94ZM1278.63 316.69C1278.63 317.26 1278.29 317.42 1277.76 317.42C1277.08 317.42 1276.73 317.18 1276.73 316.81C1276.73 316.47 1277.11 316.2 1277.81 316.2C1278.09 316.2 1278.36 316.23 1278.62 316.27C1278.63 316.44 1278.63 316.58 1278.63 316.69ZM1282.59 316.94C1282.02 316.46 1281.07 315.8 1279.82 315.44C1279.79 315.06 1279.77 314.66 1279.75 314.29C1280.71 314.26 1281.48 314.19 1282.37 314.09V312.92C1281.56 313.02 1280.73 313.11 1279.73 313.15L1279.74 312.12C1280.69 312.07 1281.49 311.99 1282.14 311.93L1282.11 310.79C1281.25 310.92 1280.52 311 1279.75 311.03L1279.76 310.64C1279.77 310.39 1279.8 310.14 1279.83 309.94H1278.48C1278.52 310.13 1278.53 310.44 1278.53 310.62V311.07H1278.04C1277.43 311.07 1276.51 311 1275.89 310.88L1275.9 312.01C1276.47 312.1 1277.42 312.16 1278.05 312.16H1278.52V313.19H1278.05C1277.52 313.19 1276.23 313.12 1275.66 313.01L1275.65 314.18C1276.31 314.26 1277.45 314.31 1278.03 314.31H1278.54C1278.55 314.6 1278.56 314.91 1278.58 315.21C1278.38 315.19 1278.18 315.18 1277.97 315.18C1276.44 315.18 1275.52 315.88 1275.52 316.88C1275.52 317.93 1276.36 318.53 1277.94 318.53C1279.25 318.53 1279.89 317.88 1279.89 317.03C1279.89 316.93 1279.89 316.81 1279.88 316.68C1280.67 317.04 1281.35 317.55 1281.88 318.05L1282.59 316.94ZM1287.89 314.71C1287.89 314.19 1288.27 313.93 1288.65 313.93C1288.93 313.93 1289.16 314.04 1289.3 314.28C1289.43 315.14 1289.06 315.45 1288.65 315.45C1288.26 315.45 1287.89 315.17 1287.89 314.71ZM1293.17 311.12C1292.65 311.11 1291.3 311.12 1290.3 311.12C1290.3 311 1290.31 310.9 1290.31 310.82C1290.32 310.66 1290.35 310.13 1290.38 309.97H1288.94C1288.98 310.13 1289.01 310.51 1289.03 310.83C1289.04 310.9 1289.04 311.01 1289.04 311.13C1287.71 311.15 1285.91 311.2 1284.78 311.2L1284.81 312.4C1286.03 312.33 1287.56 312.27 1289.06 312.25L1289.07 312.91C1288.95 312.89 1288.82 312.88 1288.68 312.88C1287.6 312.88 1286.7 313.61 1286.7 314.73C1286.7 315.94 1287.64 316.55 1288.41 316.55C1288.57 316.55 1288.72 316.53 1288.86 316.5C1288.31 317.09 1287.44 317.42 1286.44 317.63L1287.49 318.69C1289.91 318.01 1290.67 316.37 1290.67 315.08C1290.67 314.56 1290.55 314.08 1290.3 313.71C1290.3 313.28 1290.3 312.74 1290.29 312.24C1291.63 312.24 1292.56 312.26 1293.16 312.29L1293.17 311.12Z" fill="#616161"/>
<path d="M1019.16 276.34C1018.78 275.6 1018.24 274.74 1017.74 274L1016.08 274.68C1016.6 275.4 1017.08 276.24 1017.48 277.04L1019.16 276.34ZM1007.48 284.7C1007.48 283.66 1008.26 283.14 1009 283.14C1009.54 283.14 1010.02 283.36 1010.3 283.82C1010.56 285.56 1009.84 286.2 1009.02 286.2C1008.22 286.2 1007.48 285.62 1007.48 284.7ZM1016.46 276.92C1016.1 276.2 1015.56 275.28 1015.06 274.58L1013.42 275.26C1013.9 275.96 1014.32 276.74 1014.72 277.52H1012.3C1012.3 277.28 1012.32 277.08 1012.32 276.92C1012.34 276.6 1012.4 275.54 1012.46 275.22H1009.58C1009.66 275.56 1009.72 276.3 1009.78 276.94C1009.78 277.1 1009.8 277.3 1009.8 277.54C1007.12 277.58 1003.54 277.68 1001.26 277.68L1001.32 280.08C1003.76 279.94 1006.84 279.82 1009.84 279.78L1009.86 281.1C1009.6 281.06 1009.34 281.04 1009.06 281.04C1006.9 281.04 1005.1 282.5 1005.1 284.76C1005.1 287.16 1007 288.38 1008.52 288.38C1008.84 288.38 1009.14 288.34 1009.42 288.28C1008.34 289.46 1006.58 290.12 1004.58 290.54L1006.7 292.66C1011.52 291.3 1013.04 288.04 1013.04 285.44C1013.04 284.4 1012.8 283.44 1012.3 282.7C1012.3 281.84 1012.3 280.76 1012.28 279.76C1014.96 279.76 1016.82 279.82 1018.02 279.88L1018.04 277.52C1017.46 277.5 1016.32 277.52 1015.08 277.52L1016.46 276.92Z" fill="white"/>
<path d="M1207.74 282.5L1208.76 285.1C1210.46 284.38 1214.4 282.74 1216.7 282.74C1218.42 282.74 1219.54 283.78 1219.54 285.26C1219.54 287.96 1216.18 289.14 1211.68 289.26L1212.72 291.72C1219.02 291.34 1222.16 288.88 1222.16 285.3C1222.16 282.3 1220.06 280.44 1216.94 280.44C1214.54 280.44 1211.18 281.58 1209.84 281.98C1209.24 282.18 1208.32 282.4 1207.74 282.5ZM1239.62 277.06C1239.12 277.48 1238.54 277.82 1237.8 278.26C1236.86 278.78 1235.14 279.66 1233.52 280.6C1232.72 279.08 1231.8 277.18 1231.04 275.12L1228.54 276.14C1229.44 278.24 1230.4 280.34 1231.32 282.04C1229.42 283.44 1228.04 285.06 1228.04 287.26C1228.04 290.66 1231.02 291.76 1234.96 291.76C1237.54 291.76 1239.64 291.56 1241.32 291.28L1241.36 288.42C1239.6 288.82 1236.92 289.14 1234.88 289.14C1232.14 289.14 1230.76 288.38 1230.76 286.96C1230.76 285.58 1231.86 284.44 1233.52 283.36C1235.32 282.2 1237.8 281.04 1239.04 280.42C1239.76 280.06 1240.4 279.72 1241 279.36L1239.62 277.06ZM1251.24 290.54C1250.22 289.3 1248.3 287.32 1246.88 286.16L1244.8 287.96C1246.2 289.16 1247.88 290.88 1249.1 292.38L1251.24 290.54ZM1278.22 280.8H1276.7V278.24H1278.22V280.8ZM1278.22 285.46H1276.7V282.92H1278.22V285.46ZM1269.82 282.92H1271.26V285.46H1269.82V282.92ZM1274.72 282.92V285.46H1273.24V282.92H1274.72ZM1273.24 280.8V278.24H1274.72V280.8H1273.24ZM1269.82 278.24H1271.26V280.8H1269.82V278.24ZM1267.72 280.8H1265.04V282.92H1267.72V285.46H1265.34V287.58H1282.72V285.46H1280.4V282.92H1283V280.8H1280.4V278.24H1282.28V276.14H1270.28C1270.58 275.68 1270.84 275.22 1271.06 274.74L1268.74 274.06C1267.86 275.92 1266.28 277.74 1264.6 278.84C1265.14 279.22 1266.1 279.98 1266.54 280.4C1266.94 280.1 1267.32 279.74 1267.72 279.36V280.8ZM1267.1 292.76C1268.08 291.72 1268.94 290.08 1269.38 288.56L1267.08 288C1266.62 289.46 1265.72 291 1264.84 291.84L1267.1 292.76ZM1270.66 288.7C1270.88 289.92 1271.04 291.56 1271.04 292.52L1273.36 292.18C1273.34 291.24 1273.12 289.66 1272.88 288.44L1270.66 288.7ZM1274.62 288.74C1275.06 289.96 1275.52 291.58 1275.64 292.54L1278.02 292.08C1277.84 291.1 1277.34 289.54 1276.86 288.36L1274.62 288.74ZM1278.58 288.64C1279.46 289.92 1280.52 291.68 1280.94 292.74L1283.38 291.92C1282.88 290.82 1281.76 289.14 1280.86 287.92L1278.58 288.64ZM1298.38 277.56C1297.74 276.82 1296.32 275.8 1295.2 275.14L1294.06 276.74C1295.16 277.48 1296.54 278.56 1297.16 279.34L1298.38 277.56ZM1293.14 281.78C1294.3 282.46 1295.76 283.54 1296.42 284.26L1297.62 282.36C1296.9 281.66 1295.42 280.68 1294.26 280.06L1293.14 281.78ZM1291.34 275.16C1291.12 276.56 1290.66 278.58 1290.24 279.84L1291.74 280.26C1292.24 279.1 1292.82 277.2 1293.34 275.6L1291.34 275.16ZM1287.46 279.84C1287.36 278.6 1286.96 276.7 1286.44 275.26L1284.78 275.7C1285.24 277.14 1285.64 279.08 1285.68 280.3L1287.46 279.84ZM1292.92 286.42C1292.5 285.86 1290.6 283.62 1290.02 283.04V282.9H1292.98V280.68H1290.02V274.14H1287.82V280.68H1284.8V282.9H1287.08C1286.46 284.72 1285.44 286.86 1284.44 288.08C1284.8 288.74 1285.32 289.82 1285.52 290.54C1286.38 289.34 1287.18 287.48 1287.82 285.62V292.68H1290.02V285.66C1290.6 286.58 1291.16 287.62 1291.46 288.26L1292.92 286.42ZM1303.5 286.88L1303.14 284.66L1301.1 285.04V274.04H1298.86V285.44L1292.92 286.5L1293.28 288.72L1298.86 287.72V292.72H1301.1V287.32L1303.5 286.88Z" fill="white"/>
<path d="M1141 160.92C1140.78 160.7 1140.24 160.16 1139.64 159.6C1140.18 159.04 1140.8 158.32 1141.5 157.64L1139.98 156.38C1139.64 157 1139.06 157.92 1138.54 158.6C1138.34 158.42 1138.16 158.26 1138 158.12C1139 156.64 1139.86 155.02 1140.46 153.38L1139.12 152.5L1138.74 152.6H1137.88V149.08H1135.54V152.6H1132.96V154.74H1137.52C1136.3 157.12 1134.36 159.46 1132.4 160.82C1132.78 161.24 1133.4 162.4 1133.62 162.98C1134.26 162.48 1134.9 161.9 1135.54 161.22V167.74H1137.88V160.56C1138.54 161.32 1139.2 162.16 1139.58 162.74L1141 160.92ZM1140.28 150.6V152.84H1143.16C1143.06 157.94 1142.76 163 1138.66 165.88C1139.28 166.34 1140.02 167.12 1140.42 167.76C1144.88 164.38 1145.42 158.62 1145.58 152.84H1148.48C1148.34 161.02 1148.12 164.24 1147.56 164.9C1147.34 165.2 1147.14 165.28 1146.82 165.28C1146.34 165.28 1145.4 165.28 1144.36 165.2C1144.78 165.9 1145.06 166.96 1145.1 167.66C1146.18 167.68 1147.28 167.7 1148 167.56C1148.76 167.42 1149.26 167.16 1149.8 166.36C1150.56 165.28 1150.74 161.8 1150.92 151.8C1150.94 151.48 1150.94 150.6 1150.94 150.6H1140.28ZM1156.6 159.56H1159.08V160.92H1156.6V159.56ZM1159.08 153.5V154.66H1156.6V153.5H1159.08ZM1156.6 156.48H1159.08V157.74H1156.6V156.48ZM1162.48 160.92H1161.26V153.5H1162.62V151.42H1161.26V149.3H1159.08V151.42H1156.6V149.3H1154.46V151.42H1152.9V153.5H1154.46V160.92H1152.66V163H1162.48V160.92ZM1155.14 163.14C1154.58 164.34 1153.54 165.6 1152.5 166.38C1153.04 166.7 1153.96 167.38 1154.4 167.8C1155.48 166.82 1156.66 165.26 1157.36 163.8L1155.14 163.14ZM1165.5 159C1165.52 158.38 1165.52 157.8 1165.52 157.28V156.54H1168.4V159H1165.5ZM1168.4 152.1V154.44H1165.52V152.1H1168.4ZM1170.7 149.94H1163.3V157.28C1163.3 159.88 1163.2 163.26 1162.04 165.76C1161.54 164.94 1160.6 163.84 1159.88 163.04L1158.08 164.02C1158.86 164.94 1159.82 166.26 1160.22 167.04L1161.88 166.1C1161.82 166.22 1161.74 166.32 1161.68 166.44C1162.2 166.64 1163.18 167.36 1163.56 167.78C1164.64 165.98 1165.14 163.48 1165.36 161.12H1168.4V165.06C1168.4 165.38 1168.3 165.48 1168 165.48C1167.72 165.48 1166.76 165.5 1165.9 165.44C1166.2 166.04 1166.5 167.08 1166.58 167.7C1168.06 167.72 1169.08 167.66 1169.78 167.28C1170.48 166.9 1170.7 166.28 1170.7 165.1V149.94ZM1177.8 162.52H1186.4V163.34H1177.8V162.52ZM1183.08 155.7V157.02H1179.44C1179.88 156.62 1180.2 156.18 1180.42 155.7H1183.08ZM1176.66 153.52H1178.68C1178.68 153.8 1178.64 154.06 1178.56 154.3H1176.38L1176.66 153.52ZM1180.86 151.34H1183.08V152.14H1180.86V151.34ZM1187.42 151.34V152.14H1185.34V151.34H1187.42ZM1183.08 154.3H1180.8C1180.82 154.04 1180.84 153.78 1180.86 153.52H1183.08V154.3ZM1188.54 155.7C1188.5 156 1188.44 156.18 1188.36 156.28C1188.24 156.42 1188.12 156.42 1187.94 156.42C1187.72 156.44 1187.3 156.42 1186.84 156.36C1186.92 156.54 1187.02 156.78 1187.08 157.02H1185.34V155.7H1188.54ZM1186.4 159.16H1177.8V158.38H1186.4V159.16ZM1186.4 161.24H1177.8V160.44H1186.4V161.24ZM1188.82 164.7V157.8C1188.94 157.8 1189.04 157.78 1189.12 157.78C1189.54 157.76 1189.98 157.6 1190.28 157.3C1190.62 156.94 1190.74 156.22 1190.84 154.92C1190.86 154.7 1190.88 154.3 1190.88 154.3H1185.34V153.52H1189.58V149.94H1185.34V149.08H1183.08V149.94H1180.86V149.08H1178.7V149.94H1174.16V151.34H1178.7V152.14H1174.9C1174.56 153.32 1174.08 154.76 1173.64 155.74L1175.8 155.88L1175.88 155.7H1177.62C1176.8 156.36 1175.36 156.86 1172.88 157.18C1173.24 157.62 1173.8 158.52 1174 159.02C1174.54 158.94 1175.02 158.86 1175.48 158.76V164.7H1178.2C1176.8 165.28 1174.76 165.78 1172.9 166.1C1173.4 166.5 1174.24 167.34 1174.62 167.8C1176.66 167.3 1179.2 166.4 1180.86 165.42L1179.28 164.7H1184.62L1183.1 165.64C1185.18 166.32 1187.26 167.16 1188.44 167.76L1191.08 166.62C1189.82 166.08 1187.72 165.32 1185.8 164.7H1188.82ZM1203.4 159.66V157.2H1207.62V159.66H1203.4ZM1197.18 159.66C1197.22 158.92 1197.24 158.2 1197.24 157.56V157.2H1201V159.66H1197.18ZM1201 152.66V154.98H1197.24V152.66H1201ZM1207.62 154.98H1203.4V152.66H1207.62V154.98ZM1209.98 150.4H1194.88V157.54C1194.88 160.34 1194.7 163.9 1192.52 166.3C1193.06 166.58 1194.02 167.4 1194.4 167.84C1195.84 166.28 1196.56 164.08 1196.92 161.9H1201V167.48H1203.4V161.9H1207.62V164.9C1207.62 165.26 1207.48 165.38 1207.1 165.38C1206.74 165.38 1205.42 165.4 1204.3 165.34C1204.6 165.96 1204.98 166.98 1205.06 167.62C1206.86 167.64 1208.08 167.6 1208.9 167.2C1209.7 166.84 1209.98 166.2 1209.98 164.92V150.4Z" fill="#616161"/>
<path d="M1116 206.781C1116 224.007 1112.44 237.184 1105.33 246.31C1098.22 255.437 1087.8 260 1074.09 260C1060.54 260 1050.18 255.522 1043.01 246.567C1035.84 237.611 1032.17 224.777 1032 208.064V185.134C1032 167.736 1035.59 154.531 1042.76 145.519C1049.98 136.506 1060.37 132 1073.91 132C1087.46 132 1097.82 136.478 1104.99 145.433C1112.16 154.332 1115.83 167.137 1116 183.85V206.781ZM1091.33 181.626C1091.33 171.301 1089.91 163.8 1087.06 159.123C1084.27 154.389 1079.89 152.021 1073.91 152.021C1068.11 152.021 1063.81 154.275 1061.02 158.781C1058.29 163.23 1056.84 170.217 1056.67 179.743V210.032C1056.67 220.185 1058.04 227.743 1060.77 232.706C1063.56 237.611 1068 240.064 1074.09 240.064C1080.12 240.064 1084.47 237.697 1087.15 232.963C1089.82 228.228 1091.22 220.984 1091.33 211.23V181.626Z" fill="white"/>
<path d="M1028 283H1180" stroke="white" stroke-width="3" stroke-linecap="round" stroke-dasharray="4 8"/>
<path d="M1189.51 277.909C1188.85 277.509 1188 277.989 1188 278.766V287.234C1188 288.011 1188.85 288.491 1189.51 288.091L1196.57 283.857C1197.22 283.469 1197.22 282.531 1196.57 282.143L1189.51 277.909Z" fill="white"/>
<path d="M690.576 165.608C690 165.776 689.328 165.848 688.584 165.848H685.704V164.6C685.704 163.856 685.776 162.968 685.848 162.392H682.416C682.512 162.992 682.56 163.856 682.56 164.6V165.848H678.408C677.568 165.848 676.248 165.824 675.336 165.68V168.824C676.08 168.752 677.592 168.704 678.456 168.704H687.144C686.448 169.712 684.96 171.104 683.112 172.304C681.048 173.624 677.952 175.28 673.32 176.312L675.168 179.144C677.76 178.352 680.328 177.368 682.536 176.192V180.296C682.536 181.256 682.44 182.696 682.344 183.368H685.8C685.728 182.624 685.632 181.256 685.632 180.296C685.632 178.784 685.656 176.168 685.656 174.248C687.648 172.736 689.472 170.936 690.696 169.544C691.2 168.968 691.944 168.152 692.544 167.552L690.576 165.608ZM687.168 175.568C689.256 176.72 690.816 177.728 692.904 179.384L694.92 176.744C692.616 175.16 691.368 174.464 689.16 173.264L687.168 175.568ZM708.12 167.72L705.264 168.656C705.864 169.904 706.92 172.808 707.208 173.984L710.088 172.976C709.752 171.872 708.576 168.752 708.12 167.72ZM713.592 168.392C713.328 171.392 712.176 174.584 710.544 176.624C708.552 179.12 705.216 180.944 702.576 181.64L705.096 184.208C707.904 183.152 710.904 181.136 713.136 178.256C714.768 176.144 715.776 173.648 716.4 171.224C716.544 170.744 716.688 170.24 716.976 169.472L713.592 168.392ZM702.552 168.992L699.672 170.024C700.248 171.08 701.448 174.272 701.856 175.568L704.784 174.464C704.304 173.12 703.152 170.216 702.552 168.992ZM740.856 173.168C738.648 172.088 734.04 170.384 730.824 169.448V165.92C730.824 164.912 730.944 163.856 731.04 163.016H727.296C727.464 163.856 727.536 165.056 727.536 165.92V179.696C727.536 180.656 727.44 182.096 727.296 183.032H731.04C730.944 182.072 730.824 180.392 730.824 179.696V172.904C733.416 173.792 737.016 175.184 739.488 176.48L740.856 173.168ZM761.76 169.52L759.984 170.264C760.752 171.344 761.256 172.28 761.856 173.6L763.68 172.784C763.224 171.824 762.336 170.384 761.76 169.52ZM764.448 168.416L762.696 169.232C763.464 170.288 764.016 171.176 764.664 172.472L766.464 171.608C765.96 170.672 765.048 169.256 764.448 168.416ZM745.752 165.584L746.064 168.848C748.824 168.248 753.816 167.72 755.88 167.504C754.272 168.704 752.376 171.392 752.376 174.824C752.376 179.984 757.08 182.672 762.072 182.984L763.176 179.696C759.144 179.504 755.496 178.088 755.496 174.176C755.496 171.368 757.632 168.296 760.512 167.528C761.784 167.24 763.824 167.216 765.096 167.216L765.072 164.144C763.392 164.216 760.8 164.36 758.352 164.552C754.008 164.936 750.072 165.296 748.08 165.464C747.624 165.512 746.712 165.56 745.752 165.584ZM784.296 166.928L784.272 165.2C784.272 164.456 784.32 163.52 784.416 162.776H781.008C781.128 163.616 781.2 164.504 781.248 165.2C781.272 165.728 781.296 166.304 781.32 166.928H773.376C772.56 166.928 771.408 166.856 770.712 166.76V169.952C771.552 169.904 772.584 169.856 773.448 169.856H780C778.056 172.592 774.096 175.976 769.44 178.184L771.648 180.68C775.44 178.664 779.328 175.328 781.44 172.568C781.488 175.04 781.488 177.44 781.488 179.048C781.488 179.744 781.248 180.056 780.648 180.056C779.832 180.056 778.536 179.96 777.456 179.768L777.72 182.888C779.088 182.984 780.432 183.032 781.896 183.032C783.72 183.032 784.608 182.144 784.584 180.608C784.536 177.368 784.44 173.36 784.368 169.856H787.464C788.112 169.856 789.024 169.904 789.792 169.928V166.736C789.216 166.832 788.088 166.928 787.296 166.928H784.296ZM794.208 174.656C795.096 174.584 796.704 174.536 798.072 174.536H810.96C811.968 174.536 813.192 174.632 813.768 174.656V170.888C813.144 170.936 812.064 171.032 810.96 171.032H798.072C796.824 171.032 795.072 170.96 794.208 170.888V174.656ZM836.592 165.584C836.136 164.696 835.296 163.16 834.696 162.296L832.8 163.064C833.328 163.832 833.928 164.912 834.384 165.8C833.832 165.944 833.136 166.016 832.488 166.016H827.568L827.592 165.992C827.88 165.464 828.48 164.384 829.056 163.544L825.576 162.464C825.36 163.28 824.856 164.408 824.496 164.984C823.296 167.048 821.064 170.36 816.864 172.952L819.456 174.944C821.856 173.288 824.088 170.984 825.768 168.752H832.656C832.296 170.192 831.336 172.16 830.16 173.864C828.552 172.904 826.92 171.992 825.648 171.344L823.632 173.624C824.856 174.32 826.488 175.304 828.096 176.36C826.128 178.4 823.416 180.44 819.168 181.736L821.952 184.16C825.84 182.672 828.648 180.512 830.808 178.184C831.672 178.808 832.464 179.384 833.04 179.888L835.2 177.056C834.6 176.624 833.784 176.096 832.896 175.52C834.48 173.24 835.608 170.816 836.208 168.968C836.424 168.368 836.736 167.72 837 167.24L835.248 166.16L836.592 165.584ZM835.632 161.984C836.304 162.896 837.072 164.288 837.552 165.296L839.472 164.48C839.04 163.616 838.152 162.104 837.528 161.216L835.632 161.984ZM842.208 174.656C843.096 174.584 844.704 174.536 846.072 174.536H858.96C859.968 174.536 861.192 174.632 861.768 174.656V170.888C861.144 170.936 860.064 171.032 858.96 171.032H846.072C844.824 171.032 843.072 170.96 842.208 170.888V174.656Z" fill="white"/>
<path d="M712.752 370.448H727.2V373.448H730.248V367.808H721.44V365.672H718.416V367.808H709.848V373.448H712.752V370.448ZM723.384 377.264C722.88 379.112 722.04 380.552 720.864 381.704C719.28 381.128 717.72 380.6 716.28 380.192C716.76 379.256 717.288 378.272 717.792 377.264H723.384ZM730.68 377.264V374.576H719.136C719.64 373.568 720.12 372.584 720.552 371.648L717.552 371.024C717.072 372.128 716.496 373.352 715.872 374.576H709.344V377.264H714.504C713.472 379.208 712.464 381.032 711.6 382.424L714.6 383.24L715.032 382.472C716.04 382.784 717.072 383.168 718.128 383.552C715.968 384.584 713.232 385.16 709.872 385.496C710.424 386.12 711.24 387.416 711.504 388.088C715.536 387.512 718.8 386.576 721.344 384.872C723.768 385.928 725.976 387.056 727.44 388.04L729.72 385.712C728.208 384.776 726.048 383.768 723.72 382.808C725.016 381.344 726 379.544 726.696 377.264H730.68ZM737.904 374.312C740.4 372.464 742.536 370.304 743.904 368.36C745.296 370.304 747.6 372.488 750.096 374.312H737.904ZM745.416 382.088H752.136V379.592H745.416V376.832H751.032V374.96C751.896 375.56 752.76 376.088 753.624 376.568C754.152 375.68 754.776 374.768 755.52 374C751.728 372.392 747.816 369.248 745.248 365.6H742.296C740.52 368.528 736.656 372.224 732.552 374.288C733.2 374.888 733.992 375.92 734.352 376.592C735.264 376.088 736.152 375.536 737.016 374.936V376.832H742.44V379.592H735.792V382.088H742.44V384.944H733.872V387.512H754.296V384.944H745.416V382.088ZM766.752 369.248L766.776 372.32C769.752 372.584 774.048 372.584 776.976 372.32V369.248C774.408 369.56 769.68 369.656 766.752 369.248ZM765.936 379.16C765.696 380.264 765.528 381.272 765.528 382.256C765.528 384.68 767.472 386.168 771.576 386.168C774.264 386.168 776.184 385.976 777.72 385.688L777.648 382.472C775.584 382.904 773.832 383.096 771.696 383.096C769.296 383.096 768.384 382.472 768.384 381.416C768.384 380.768 768.48 380.192 768.672 379.424L765.936 379.16ZM759.768 367.4C759.768 368.144 759.624 369.056 759.528 369.728C759.264 371.552 758.544 375.56 758.544 379.136C758.544 382.352 759 385.256 759.48 386.912L762.216 386.72C762.192 386.384 762.192 386 762.168 385.736C762.168 385.496 762.24 384.968 762.312 384.632C762.552 383.36 763.344 380.792 764.016 378.8L762.528 377.648C762.192 378.416 761.808 379.208 761.472 380.048C761.4 379.544 761.376 378.968 761.376 378.512C761.376 376.136 762.192 371.384 762.528 369.8C762.624 369.368 762.912 368.168 763.104 367.688L759.768 367.4ZM788.016 368.144C787.056 367.352 785.136 366.344 783.672 365.768L782.112 367.904C783.624 368.552 785.496 369.656 786.36 370.496L788.016 368.144ZM786.696 374.528C785.736 373.712 783.744 372.776 782.256 372.248L780.744 374.384C782.256 375.032 784.152 376.088 785.064 376.904L786.696 374.528ZM785.64 378.32C784.296 381.128 782.592 384.152 781.392 385.976L783.888 387.752C785.232 385.4 786.624 382.64 787.824 380.096L785.64 378.32ZM795.624 372.032H798.6V376.376H795.552C795.6 375.584 795.624 374.816 795.624 374.024V372.032ZM803.184 379.064V376.376H801.384V369.344H795.624V365.696H792.792V369.344H788.784V372.032H792.792V374C792.792 374.792 792.768 375.584 792.72 376.376H787.608V379.064H792.288C791.592 381.752 789.984 384.224 786.336 386.144C787.104 386.576 788.208 387.56 788.712 388.16C792.384 386.144 794.136 383.408 794.928 380.456C796.296 383.936 798.336 386.6 801.456 388.136C801.888 387.344 802.776 386.216 803.448 385.64C800.52 384.44 798.48 382.016 797.328 379.064H803.184ZM809.712 378.32C808.344 381.128 806.616 384.152 805.416 385.976L807.912 387.752C809.256 385.4 810.672 382.64 811.872 380.096L809.712 378.32ZM810.696 374.528C809.736 373.712 807.744 372.776 806.256 372.248L804.744 374.384C806.256 375.032 808.152 376.088 809.064 376.904L810.696 374.528ZM822.288 376.616V377.6H816.408V376.544H814.392C816.12 376.088 817.752 375.536 819.24 374.84C820.944 375.656 822.816 376.184 824.784 376.616H822.288ZM816.264 381.632C816.36 381.056 816.384 380.48 816.408 379.976H822.288V381.632H816.264ZM821.472 370.304C820.896 370.952 820.2 371.528 819.384 372.032C818.544 371.576 817.752 371 816.984 370.304H821.472ZM826.92 370.304V367.832H820.8V365.696H817.848V367.832H811.824V368C810.816 367.232 809.04 366.32 807.672 365.792L806.112 367.904C807.624 368.552 809.496 369.656 810.36 370.496L811.824 368.408V370.304H813.696C814.608 371.528 815.616 372.488 816.696 373.304C814.944 373.928 812.928 374.36 810.84 374.648C811.272 375.2 811.944 376.4 812.184 377.048C812.688 376.952 813.192 376.832 813.672 376.712V379.328C813.672 381.368 813.36 384.704 810.672 386.816C811.368 387.128 812.448 387.896 812.952 388.328C814.44 387.128 815.28 385.568 815.784 383.984H822.288V388.04H825.096V376.688L825.96 376.856C826.224 375.968 826.872 374.936 827.496 374.288C825.528 374.024 823.704 373.688 822 373.16C823.056 372.344 823.968 371.408 824.688 370.304H826.92Z" fill="white"/>
</svg>
