<svg width="356" height="164" viewBox="0 0 356 164" fill="none" xmlns="http://www.w3.org/2000/svg">
<path d="M258 32H218V64H258V32Z" fill="#42A5F5"/>
<path d="M122 64V32H137.997C152.462 32 159.289 28.7234 173.003 17.7521C189.29 4.72356 199.131 0 218 0C244.51 0 266 21.4903 266 48C266 74.5097 244.51 96 218 96C199.13 96 189.273 91.2725 172.956 78.2298C159.251 67.2757 152.424 64 137.997 64H122ZM182.997 30.247C166.71 43.2761 156.868 48 137.997 48C156.828 48 166.668 52.7211 182.969 65.7509C196.69 76.718 203.534 80 218 80C235.673 80 250 65.6731 250 48C250 30.3269 235.673 16 218 16C203.537 16 196.711 19.2763 182.997 30.247Z" fill="#2979FF"/>
<path d="M138 0C156.869 0 166.71 4.72356 182.997 17.7521C196.711 28.7234 203.538 32 218.003 32H234V64H218.003C203.576 64 196.749 67.2757 183.044 78.2298C166.727 91.2725 156.87 96 138 96C111.49 96 90 74.5097 90 48C90 21.4903 111.49 0 138 0ZM138 16C120.327 16 106 30.3269 106 48C106 65.6731 120.327 80 138 80C152.466 80 159.31 76.718 173.031 65.7509C189.332 52.7211 199.172 48 218.003 48C199.132 48 189.29 43.2761 173.003 30.247C159.289 19.2763 152.463 16 138 16Z" fill="#42A5F5"/>
<path d="M138 32V64L92.7316 64.0008C90.9626 58.9961 90 53.6105 90 48C90 42.3898 90.9625 37.0045 92.7313 32L138 32Z" fill="#2979FF"/>
<path d="M11.242 155.352C13.002 155.352 14.564 155.084 15.928 154.549C17.292 154.014 18.447 153.28 19.393 152.349C20.339 151.418 21.0577 150.325 21.549 149.071C22.0403 147.817 22.286 146.471 22.286 145.034C22.286 143.714 22.077 142.592 21.659 141.668C21.241 140.744 20.6873 139.963 19.998 139.325C19.3087 138.687 18.524 138.159 17.644 137.741C16.764 137.323 15.8657 136.956 14.949 136.641C14.0323 136.326 13.134 136.029 12.254 135.75C11.374 135.471 10.5893 135.156 9.89999 134.804C9.21066 134.452 8.65699 134.027 8.23899 133.528C7.82099 133.029 7.61199 132.406 7.61199 131.658C7.61199 131.071 7.71466 130.532 7.91999 130.041C8.12533 129.55 8.43699 129.128 8.85499 128.776C9.27299 128.424 9.78633 128.149 10.395 127.951C11.0037 127.753 11.7187 127.654 12.54 127.654C13.4493 127.654 14.2377 127.768 14.905 127.995C15.5723 128.222 16.1553 128.475 16.654 128.754C17.1527 129.033 17.5853 129.286 17.952 129.513C18.3187 129.74 18.6487 129.854 18.942 129.854C19.2353 129.854 19.4883 129.788 19.701 129.656C19.9137 129.524 20.1007 129.297 20.262 128.974L21.714 126.18C20.5993 125.124 19.25 124.303 17.666 123.716C16.082 123.129 14.3513 122.836 12.474 122.836C10.8167 122.836 9.34266 123.093 8.05199 123.606C6.76133 124.119 5.67233 124.801 4.78499 125.652C3.89766 126.503 3.22299 127.478 2.76099 128.578C2.29899 129.678 2.06799 130.807 2.06799 131.966C2.06799 133.418 2.27699 134.639 2.69499 135.629C3.11299 136.619 3.66666 137.444 4.35599 138.104C5.04533 138.764 5.82999 139.299 6.70999 139.71C7.58999 140.121 8.48466 140.473 9.39399 140.766C10.3033 141.059 11.198 141.331 12.078 141.58C12.958 141.829 13.7427 142.134 14.432 142.493C15.1213 142.852 15.675 143.296 16.093 143.824C16.511 144.352 16.72 145.034 16.72 145.87C16.72 147.366 16.258 148.514 15.334 149.313C14.41 150.112 13.1047 150.512 11.418 150.512C10.318 150.512 9.37566 150.362 8.59099 150.061C7.80633 149.76 7.12433 149.427 6.54499 149.06C5.96566 148.693 5.46333 148.36 5.03799 148.059C4.61266 147.758 4.21666 147.608 3.84999 147.608C3.57133 147.608 3.31833 147.678 3.09099 147.817C2.86366 147.956 2.66933 148.129 2.50799 148.334L0.791992 151.172C1.40799 151.803 2.10833 152.375 2.89299 152.888C3.67766 153.401 4.52099 153.841 5.42299 154.208C6.32499 154.575 7.26733 154.857 8.24999 155.055C9.23266 155.253 10.23 155.352 11.242 155.352ZM29.59 129.26C30.074 129.26 30.5287 129.168 30.954 128.985C31.3793 128.802 31.7497 128.556 32.065 128.248C32.3803 127.94 32.6333 127.581 32.824 127.17C33.0147 126.759 33.11 126.319 33.11 125.85C33.11 125.366 33.0147 124.911 32.824 124.486C32.6333 124.061 32.3803 123.694 32.065 123.386C31.7497 123.078 31.3793 122.832 30.954 122.649C30.5287 122.466 30.074 122.374 29.59 122.374C29.1207 122.374 28.677 122.466 28.259 122.649C27.841 122.832 27.478 123.078 27.17 123.386C26.862 123.694 26.6163 124.061 26.433 124.486C26.2497 124.911 26.158 125.366 26.158 125.85C26.158 126.319 26.2497 126.759 26.433 127.17C26.6163 127.581 26.862 127.94 27.17 128.248C27.478 128.556 27.841 128.802 28.259 128.985C28.677 129.168 29.1207 129.26 29.59 129.26ZM32.296 155V132.428H26.862V155H32.296ZM43.868 155V138.676C44.6013 137.943 45.3787 137.363 46.2 136.938C47.0213 136.513 47.9013 136.3 48.84 136.3C50.116 136.3 51.073 136.678 51.711 137.433C52.349 138.188 52.668 139.255 52.668 140.634V155H58.102V140.634C58.102 139.373 57.937 138.218 57.607 137.169C57.277 136.12 56.793 135.218 56.155 134.463C55.517 133.708 54.7213 133.121 53.768 132.703C52.8147 132.285 51.722 132.076 50.49 132.076C49.7273 132.076 49.0233 132.149 48.378 132.296C47.7327 132.443 47.1277 132.655 46.563 132.934C45.9983 133.213 45.463 133.543 44.957 133.924C44.451 134.305 43.9707 134.731 43.516 135.2L43.142 133.418C42.922 132.758 42.46 132.428 41.756 132.428H38.434V155H43.868ZM71.324 162.942C73.0547 162.942 74.5947 162.718 75.944 162.271C77.2933 161.824 78.4337 161.233 79.365 160.5C80.2963 159.767 81.0077 158.931 81.499 157.992C81.9903 157.053 82.236 156.085 82.236 155.088C82.236 154.017 82.027 153.141 81.609 152.459C81.191 151.777 80.641 151.238 79.959 150.842C79.277 150.446 78.5033 150.156 77.638 149.973C76.7727 149.79 75.8853 149.661 74.976 149.588C74.0667 149.515 73.1793 149.467 72.314 149.445C71.4487 149.423 70.675 149.368 69.993 149.28C69.311 149.192 68.761 149.042 68.343 148.829C67.925 148.616 67.716 148.283 67.716 147.828C67.716 147.3 68.068 146.823 68.772 146.398C69.5787 146.559 70.4073 146.64 71.258 146.64C72.5193 146.64 73.689 146.468 74.767 146.123C75.845 145.778 76.7763 145.291 77.561 144.66C78.3457 144.029 78.9617 143.263 79.409 142.361C79.8563 141.459 80.08 140.451 80.08 139.336C80.08 138.867 80.0397 138.419 79.959 137.994C79.8783 137.569 79.7647 137.165 79.618 136.784L81.642 136.41C82.0673 136.337 82.368 136.205 82.544 136.014C82.72 135.823 82.808 135.559 82.808 135.222V133.198H76.318C75.614 132.817 74.8367 132.527 73.986 132.329C73.1353 132.131 72.226 132.032 71.258 132.032C69.9673 132.032 68.7757 132.201 67.683 132.538C66.5903 132.875 65.6443 133.363 64.845 134.001C64.0457 134.639 63.4223 135.409 62.975 136.311C62.5277 137.213 62.304 138.221 62.304 139.336C62.304 140.715 62.6303 141.917 63.283 142.944C63.9357 143.971 64.834 144.792 65.978 145.408C65.4793 145.657 65.0467 145.94 64.68 146.255C64.3133 146.57 64.009 146.904 63.767 147.256C63.525 147.608 63.3453 147.964 63.228 148.323C63.1107 148.682 63.052 149.031 63.052 149.368C63.052 150.189 63.2207 150.857 63.558 151.37C63.8953 151.883 64.3427 152.294 64.9 152.602C63.756 153.027 62.8613 153.599 62.216 154.318C61.5707 155.037 61.248 155.924 61.248 156.98C61.248 157.757 61.4533 158.505 61.864 159.224C62.2747 159.943 62.8943 160.577 63.723 161.127C64.5517 161.677 65.5967 162.117 66.858 162.447C68.1193 162.777 69.608 162.942 71.324 162.942ZM71.258 143.164C70.598 143.164 70.015 143.072 69.509 142.889C69.003 142.706 68.585 142.449 68.255 142.119C67.925 141.789 67.6757 141.397 67.507 140.942C67.3383 140.487 67.254 139.996 67.254 139.468C67.254 138.353 67.5877 137.47 68.255 136.817C68.9223 136.164 69.9233 135.838 71.258 135.838C72.5927 135.838 73.5937 136.164 74.261 136.817C74.9283 137.47 75.262 138.353 75.262 139.468C75.262 140.011 75.1777 140.509 75.009 140.964C74.8403 141.419 74.591 141.807 74.261 142.13C73.931 142.453 73.5167 142.706 73.018 142.889C72.5193 143.072 71.9327 143.164 71.258 143.164ZM71.412 159.07C70.4147 159.07 69.5713 159 68.882 158.861C68.1927 158.722 67.6317 158.527 67.199 158.278C66.7663 158.029 66.451 157.732 66.253 157.387C66.055 157.042 65.956 156.672 65.956 156.276C65.956 155.675 66.143 155.143 66.517 154.681C66.891 154.219 67.386 153.819 68.002 153.482C68.6767 153.57 69.377 153.632 70.103 153.669C70.829 153.706 71.533 153.742 72.215 153.779C72.897 153.816 73.5423 153.871 74.151 153.944C74.7597 154.017 75.2913 154.131 75.746 154.285C76.2007 154.439 76.56 154.655 76.824 154.934C77.088 155.213 77.22 155.572 77.22 156.012C77.22 156.452 77.11 156.859 76.89 157.233C76.67 157.607 76.3217 157.93 75.845 158.201C75.3683 158.472 74.7633 158.685 74.03 158.839C73.2967 158.993 72.424 159.07 71.412 159.07ZM93.368 155.352C94.116 155.352 94.8163 155.275 95.469 155.121C96.1217 154.967 96.7303 154.754 97.295 154.483C97.8597 154.212 98.3913 153.882 98.89 153.493C99.3887 153.104 99.8727 152.675 100.342 152.206L100.716 154.01C100.936 154.67 101.398 155 102.102 155H105.424V132.428H99.99V148.752C99.2567 149.485 98.4793 150.061 97.658 150.479C96.8367 150.897 95.9567 151.106 95.018 151.106C93.742 151.106 92.785 150.728 92.147 149.973C91.509 149.218 91.19 148.151 91.19 146.772V132.428H85.756V146.772C85.756 148.033 85.921 149.188 86.251 150.237C86.581 151.286 87.0687 152.191 87.714 152.954C88.3593 153.717 89.155 154.307 90.101 154.725C91.047 155.143 92.136 155.352 93.368 155.352ZM117.018 155V122.308H111.584V155H117.018ZM128.59 155.352C129.397 155.352 130.13 155.286 130.79 155.154C131.45 155.022 132.073 154.824 132.66 154.56C133.247 154.296 133.815 153.97 134.365 153.581C134.915 153.192 135.476 152.741 136.048 152.228L136.532 153.834C136.679 154.303 136.899 154.615 137.192 154.769C137.485 154.923 137.889 155 138.402 155H140.844V140.744C140.844 139.468 140.657 138.295 140.283 137.224C139.909 136.153 139.363 135.233 138.644 134.463C137.925 133.693 137.049 133.092 136.015 132.659C134.981 132.226 133.804 132.01 132.484 132.01C128.817 132.01 125.686 133.198 123.09 135.574L124.08 137.312C124.241 137.591 124.454 137.825 124.718 138.016C124.982 138.207 125.297 138.302 125.664 138.302C126.104 138.302 126.507 138.199 126.874 137.994C127.241 137.789 127.64 137.558 128.073 137.301C128.506 137.044 129.015 136.813 129.602 136.608C130.189 136.403 130.922 136.3 131.802 136.3C133.019 136.3 133.947 136.663 134.585 137.389C135.223 138.115 135.542 139.233 135.542 140.744V142.064C132.975 142.123 130.827 142.372 129.096 142.812C127.365 143.252 125.979 143.806 124.938 144.473C123.897 145.14 123.152 145.888 122.705 146.717C122.258 147.546 122.034 148.385 122.034 149.236C122.034 150.248 122.195 151.135 122.518 151.898C122.841 152.661 123.292 153.299 123.871 153.812C124.45 154.325 125.143 154.71 125.95 154.967C126.757 155.224 127.637 155.352 128.59 155.352ZM130.284 151.612C129.375 151.612 128.638 151.407 128.073 150.996C127.508 150.585 127.226 149.903 127.226 148.95C127.226 148.466 127.362 148.019 127.633 147.608C127.904 147.197 128.363 146.838 129.008 146.53C129.653 146.222 130.508 145.969 131.571 145.771C132.634 145.573 133.958 145.437 135.542 145.364V149.17C135.146 149.581 134.754 149.936 134.365 150.237C133.976 150.538 133.573 150.791 133.155 150.996C132.737 151.201 132.293 151.355 131.824 151.458C131.355 151.561 130.841 151.612 130.284 151.612ZM151.624 155V140.942C152.181 139.739 152.863 138.826 153.67 138.203C154.477 137.58 155.445 137.268 156.574 137.268C157.205 137.268 157.711 137.319 158.092 137.422C158.473 137.525 158.774 137.576 158.994 137.576C159.243 137.576 159.441 137.521 159.588 137.411C159.735 137.301 159.83 137.114 159.874 136.85L160.578 132.78C159.845 132.267 158.921 132.01 157.806 132.01C156.457 132.01 155.239 132.413 154.154 133.22C153.069 134.027 152.123 135.127 151.316 136.52L150.986 133.792C150.913 133.293 150.766 132.941 150.546 132.736C150.326 132.531 149.937 132.428 149.38 132.428H146.19V155H151.624ZM167.244 129.26C167.728 129.26 168.183 129.168 168.608 128.985C169.033 128.802 169.404 128.556 169.719 128.248C170.034 127.94 170.287 127.581 170.478 127.17C170.669 126.759 170.764 126.319 170.764 125.85C170.764 125.366 170.669 124.911 170.478 124.486C170.287 124.061 170.034 123.694 169.719 123.386C169.404 123.078 169.033 122.832 168.608 122.649C168.183 122.466 167.728 122.374 167.244 122.374C166.775 122.374 166.331 122.466 165.913 122.649C165.495 122.832 165.132 123.078 164.824 123.386C164.516 123.694 164.27 124.061 164.087 124.486C163.904 124.911 163.812 125.366 163.812 125.85C163.812 126.319 163.904 126.759 164.087 127.17C164.27 127.581 164.516 127.94 164.824 128.248C165.132 128.556 165.495 128.802 165.913 128.985C166.331 129.168 166.775 129.26 167.244 129.26ZM169.95 155V132.428H164.516V155H169.95ZM183.502 155.352C184.602 155.352 185.665 155.183 186.692 154.846C187.719 154.509 188.628 154.01 189.42 153.35L187.792 150.71C187.675 150.549 187.565 150.428 187.462 150.347C187.359 150.266 187.227 150.226 187.066 150.226C186.934 150.226 186.802 150.266 186.67 150.347C186.538 150.428 186.388 150.512 186.219 150.6C186.05 150.688 185.852 150.772 185.625 150.853C185.398 150.934 185.115 150.974 184.778 150.974C184.191 150.974 183.722 150.776 183.37 150.38C183.018 149.984 182.842 149.434 182.842 148.73V136.498H188.782V132.626H182.842V125.52H180.026C179.703 125.52 179.436 125.601 179.223 125.762C179.01 125.923 178.875 126.151 178.816 126.444L177.672 132.604L174.042 133.198V135.354C174.042 135.735 174.148 136.021 174.361 136.212C174.574 136.403 174.827 136.498 175.12 136.498H177.408V149.104C177.408 151.055 177.936 152.584 178.992 153.691C180.048 154.798 181.551 155.352 183.502 155.352ZM199.32 162.37C199.848 162.37 200.24 162.271 200.497 162.073C200.754 161.875 200.963 161.585 201.124 161.204L213.422 132.428H209.066C208.729 132.428 208.424 132.523 208.153 132.714C207.882 132.905 207.687 133.147 207.57 133.44L203.038 145.122C202.877 145.533 202.726 145.936 202.587 146.332C202.448 146.728 202.319 147.139 202.202 147.564C202.114 147.153 202.011 146.743 201.894 146.332C201.777 145.921 201.637 145.525 201.476 145.144L196.658 133.44C196.541 133.176 196.365 132.941 196.13 132.736C195.895 132.531 195.558 132.428 195.118 132.428H190.366L199.496 153.328L195.272 162.37H199.32ZM224.84 155.352C226.512 155.352 228.004 155.095 229.317 154.582C230.63 154.069 231.737 153.365 232.639 152.47C233.541 151.575 234.227 150.523 234.696 149.313C235.165 148.103 235.4 146.809 235.4 145.43C235.4 144.125 235.184 143.025 234.751 142.13C234.318 141.235 233.746 140.48 233.035 139.864C232.324 139.248 231.517 138.738 230.615 138.335C229.713 137.932 228.789 137.569 227.843 137.246C226.897 136.923 225.973 136.612 225.071 136.311C224.169 136.01 223.362 135.655 222.651 135.244C221.94 134.833 221.368 134.338 220.935 133.759C220.502 133.18 220.286 132.45 220.286 131.57C220.286 130.881 220.411 130.239 220.66 129.645C220.909 129.051 221.28 128.534 221.771 128.094C222.262 127.654 222.875 127.306 223.608 127.049C224.341 126.792 225.185 126.664 226.138 126.664C227.15 126.664 228.012 126.789 228.723 127.038C229.434 127.287 230.043 127.562 230.549 127.863C231.055 128.164 231.473 128.439 231.803 128.688C232.133 128.937 232.423 129.062 232.672 129.062C232.907 129.062 233.097 129.007 233.244 128.897C233.391 128.787 233.53 128.622 233.662 128.402L234.696 126.378C233.611 125.322 232.342 124.515 230.89 123.958C229.438 123.401 227.832 123.122 226.072 123.122C224.503 123.122 223.113 123.364 221.903 123.848C220.693 124.332 219.677 124.977 218.856 125.784C218.035 126.591 217.408 127.515 216.975 128.556C216.542 129.597 216.326 130.675 216.326 131.79C216.326 133.183 216.542 134.353 216.975 135.299C217.408 136.245 217.976 137.033 218.68 137.664C219.384 138.295 220.187 138.808 221.089 139.204C221.991 139.6 222.915 139.948 223.861 140.249C224.807 140.55 225.731 140.843 226.633 141.129C227.535 141.415 228.338 141.763 229.042 142.174C229.746 142.585 230.314 143.094 230.747 143.703C231.18 144.312 231.396 145.093 231.396 146.046C231.396 146.911 231.249 147.696 230.956 148.4C230.663 149.104 230.241 149.709 229.691 150.215C229.141 150.721 228.47 151.113 227.678 151.392C226.886 151.671 225.984 151.81 224.972 151.81C223.755 151.81 222.724 151.645 221.881 151.315C221.038 150.985 220.319 150.622 219.725 150.226C219.131 149.83 218.636 149.467 218.24 149.137C217.844 148.807 217.492 148.642 217.184 148.642C216.979 148.642 216.792 148.697 216.623 148.807C216.454 148.917 216.311 149.053 216.194 149.214L214.962 151.238C216.15 152.499 217.584 153.5 219.263 154.241C220.942 154.982 222.801 155.352 224.84 155.352ZM249.238 155.308C250.866 155.308 252.336 155.04 253.649 154.505C254.962 153.97 256.076 153.203 256.993 152.206C257.91 151.209 258.614 150.006 259.105 148.598C259.596 147.19 259.842 145.606 259.842 143.846C259.842 142.101 259.596 140.52 259.105 139.105C258.614 137.69 257.91 136.483 256.993 135.486C256.076 134.489 254.962 133.719 253.649 133.176C252.336 132.633 250.866 132.362 249.238 132.362C247.61 132.362 246.14 132.633 244.827 133.176C243.514 133.719 242.396 134.489 241.472 135.486C240.548 136.483 239.837 137.69 239.338 139.105C238.839 140.52 238.59 142.101 238.59 143.846C238.59 145.606 238.839 147.19 239.338 148.598C239.837 150.006 240.548 151.209 241.472 152.206C242.396 153.203 243.514 153.97 244.827 154.505C246.14 155.04 247.61 155.308 249.238 155.308ZM249.238 152.25C248.123 152.25 247.155 152.059 246.334 151.678C245.513 151.297 244.827 150.75 244.277 150.039C243.727 149.328 243.316 148.451 243.045 147.41C242.774 146.369 242.638 145.188 242.638 143.868C242.638 142.548 242.774 141.364 243.045 140.315C243.316 139.266 243.727 138.383 244.277 137.664C244.827 136.945 245.513 136.395 246.334 136.014C247.155 135.633 248.123 135.442 249.238 135.442C251.438 135.442 253.081 136.183 254.166 137.664C255.251 139.145 255.794 141.213 255.794 143.868C255.794 146.508 255.251 148.565 254.166 150.039C253.081 151.513 251.438 152.25 249.238 152.25ZM272.932 155.308C274.545 155.308 276.078 155.033 277.53 154.483C278.982 153.933 280.192 153.064 281.16 151.876L280.06 150.446C279.899 150.197 279.649 150.072 279.312 150.072C279.048 150.072 278.784 150.186 278.52 150.413C278.256 150.64 277.919 150.893 277.508 151.172C277.097 151.451 276.584 151.704 275.968 151.931C275.352 152.158 274.567 152.272 273.614 152.272C272.617 152.272 271.718 152.085 270.919 151.711C270.12 151.337 269.441 150.794 268.884 150.083C268.327 149.372 267.894 148.492 267.586 147.443C267.278 146.394 267.124 145.195 267.124 143.846C267.124 142.555 267.267 141.389 267.553 140.348C267.839 139.307 268.264 138.419 268.829 137.686C269.394 136.953 270.094 136.392 270.93 136.003C271.766 135.614 272.727 135.42 273.812 135.42C274.633 135.42 275.326 135.512 275.891 135.695C276.456 135.878 276.936 136.08 277.332 136.3C277.728 136.52 278.054 136.722 278.311 136.905C278.568 137.088 278.806 137.18 279.026 137.18C279.246 137.18 279.415 137.136 279.532 137.048C279.649 136.96 279.767 136.835 279.884 136.674L280.918 135.266C279.994 134.342 278.931 133.627 277.728 133.121C276.525 132.615 275.147 132.362 273.592 132.362C271.905 132.362 270.409 132.648 269.104 133.22C267.799 133.792 266.702 134.588 265.815 135.607C264.928 136.626 264.253 137.84 263.791 139.248C263.329 140.656 263.098 142.189 263.098 143.846C263.098 145.665 263.351 147.285 263.857 148.708C264.363 150.131 265.056 151.33 265.936 152.305C266.816 153.28 267.854 154.025 269.049 154.538C270.244 155.051 271.539 155.308 272.932 155.308ZM287.65 128.49C288.031 128.49 288.391 128.417 288.728 128.27C289.065 128.123 289.362 127.922 289.619 127.665C289.876 127.408 290.081 127.115 290.235 126.785C290.389 126.455 290.466 126.099 290.466 125.718C290.466 125.337 290.389 124.974 290.235 124.629C290.081 124.284 289.876 123.984 289.619 123.727C289.362 123.47 289.065 123.269 288.728 123.122C288.391 122.975 288.031 122.902 287.65 122.902C287.269 122.902 286.913 122.975 286.583 123.122C286.253 123.269 285.96 123.47 285.703 123.727C285.446 123.984 285.245 124.284 285.098 124.629C284.951 124.974 284.878 125.337 284.878 125.718C284.878 126.099 284.951 126.455 285.098 126.785C285.245 127.115 285.446 127.408 285.703 127.665C285.96 127.922 286.253 128.123 286.583 128.27C286.913 128.417 287.269 128.49 287.65 128.49ZM289.586 155V132.714H285.67V155H289.586ZM305.536 155.308C306.343 155.308 307.157 155.238 307.978 155.099C308.799 154.96 309.595 154.751 310.365 154.472C311.135 154.193 311.857 153.838 312.532 153.405C313.207 152.972 313.786 152.463 314.27 151.876L313.17 150.446C312.994 150.197 312.745 150.072 312.422 150.072C312.173 150.072 311.876 150.186 311.531 150.413C311.186 150.64 310.757 150.886 310.244 151.15C309.731 151.414 309.118 151.66 308.407 151.887C307.696 152.114 306.849 152.228 305.866 152.228C304.81 152.228 303.857 152.056 303.006 151.711C302.155 151.366 301.422 150.846 300.806 150.149C300.19 149.452 299.706 148.583 299.354 147.542C299.002 146.501 298.811 145.276 298.782 143.868H313.61C313.977 143.868 314.226 143.765 314.358 143.56C314.49 143.355 314.556 142.944 314.556 142.328C314.556 140.744 314.325 139.332 313.863 138.093C313.401 136.854 312.759 135.812 311.938 134.969C311.117 134.126 310.141 133.48 309.012 133.033C307.883 132.586 306.651 132.362 305.316 132.362C303.703 132.362 302.251 132.644 300.96 133.209C299.669 133.774 298.577 134.551 297.682 135.541C296.787 136.531 296.102 137.701 295.625 139.05C295.148 140.399 294.91 141.851 294.91 143.406C294.91 145.327 295.174 147.029 295.702 148.51C296.23 149.991 296.967 151.234 297.913 152.239C298.859 153.244 299.981 154.006 301.279 154.527C302.577 155.048 303.996 155.308 305.536 155.308ZM311.036 141.426H298.914C299.178 139.49 299.853 137.976 300.938 136.883C302.023 135.79 303.512 135.244 305.404 135.244C306.299 135.244 307.094 135.394 307.791 135.695C308.488 135.996 309.078 136.421 309.562 136.971C310.046 137.521 310.413 138.174 310.662 138.929C310.911 139.684 311.036 140.517 311.036 141.426ZM326.304 155.352C327.316 155.352 328.299 155.172 329.252 154.813C330.205 154.454 331.019 153.959 331.694 153.328L330.55 151.458C330.389 151.209 330.205 151.084 330 151.084C329.883 151.084 329.747 151.139 329.593 151.249C329.439 151.359 329.252 151.48 329.032 151.612C328.812 151.744 328.552 151.865 328.251 151.975C327.95 152.085 327.595 152.14 327.184 152.14C326.465 152.14 325.879 151.913 325.424 151.458C324.969 151.003 324.742 150.307 324.742 149.368V135.992H331.122V133.154H324.742V125.476H322.762C322.513 125.476 322.307 125.546 322.146 125.685C321.985 125.824 321.889 126.004 321.86 126.224L320.958 133.11L317.306 133.572V135.134C317.306 135.427 317.387 135.644 317.548 135.783C317.709 135.922 317.907 135.992 318.142 135.992H320.826V149.632C320.826 151.48 321.299 152.895 322.245 153.878C323.191 154.861 324.544 155.352 326.304 155.352ZM341.088 162.546C341.499 162.546 341.803 162.458 342.001 162.282C342.199 162.106 342.364 161.871 342.496 161.578L354.926 132.714H351.802C351.553 132.714 351.322 132.791 351.109 132.945C350.896 133.099 350.746 133.293 350.658 133.528L344.872 147.542C344.74 147.879 344.623 148.209 344.52 148.532C344.417 148.855 344.315 149.185 344.212 149.522C344.139 149.185 344.054 148.855 343.959 148.532C343.864 148.209 343.75 147.887 343.618 147.564L337.656 133.528C337.568 133.323 337.429 133.136 337.238 132.967C337.047 132.798 336.783 132.714 336.446 132.714H333.058L342.254 153.702L338.184 162.546H341.088Z" fill="#2979FF"/>
</svg>
