<svg width="390" height="164" viewBox="0 0 390 164" fill="none" xmlns="http://www.w3.org/2000/svg">
<path d="M217.241 122.644C217.241 122.644 217.997 140.832 217.823 142.864C217.668 144.904 216.588 147.393 213.667 147.486C210.134 147.611 208.791 144.642 208.791 142.864C208.791 141.37 207.849 104.166 208.004 92.4226C208.013 90.3112 209.96 88.9955 211.631 88.9955C214.534 88.9955 215.565 91.2536 215.747 92.9515C216.116 96.5608 216.232 101.837 216.37 107.109H239.519C238.754 100.108 237.288 90.1912 235.856 87.0576C231.136 76.5764 219.063 76.123 211.547 76.123C199.141 76.123 191.025 80.2702 187.038 90.3957C186.095 92.7826 184.651 100.477 183.926 115.403C182.944 135.521 180.606 148.202 190.994 156.412C202.382 163.692 222.553 163.448 232.403 158.052C245.96 150.571 241.906 137.138 241.177 122.772L217.241 122.644Z" fill="#005AAA"/>
<path d="M43.7157 79.0162L1 159.66L32.2878 158.994L68.1761 78.9629L43.7157 79.0162Z" fill="#005AAA"/>
<path d="M138.744 77.6341C123.551 81.6523 121.791 95.6583 118.057 109.789C115.039 121.328 109.66 138.667 112.163 146.984C115.95 159.518 129.391 161.674 138.006 161.674C168.813 161.674 171.418 146.948 173.885 119.083C175.752 98.1874 177.717 89.7332 171.334 82.4657C166.778 77.2874 154.234 73.5581 138.744 77.6341ZM153.087 94.3426C152.598 98.3341 145.94 140.161 145.589 141.819C145.162 144.006 144.193 147.535 139.899 147.362C137.566 147.259 135.29 145.366 135.765 142.37C136.17 139.854 144.193 96.3472 144.469 94.9071C144.766 93.4403 145.011 88.6086 149.647 88.902C153.861 89.1953 153.292 92.6268 153.087 94.3426Z" fill="#005AAA"/>
<path d="M122.604 78.9814H72.7589L66.4516 93.6719H80.9687L56.0815 158.528L84.7202 158.274L104.945 93.7475H118.715L122.604 78.9814Z" fill="#005AAA"/>
<path d="M274.825 79.1547L281.541 106.944H272.411L266.264 79.0791H245.613L257.143 157.701L283.199 157.785L275.794 122.617L285.355 122.448L294.049 158.114L320.696 158.274L295.64 79.1547H274.825Z" fill="#005AAA"/>
<path d="M386.833 132.258C379.294 117.412 359.096 79.0615 359.096 79.0615H337.641L364.328 137.863C367.262 143.322 365.159 145.562 362.51 145.949C359.839 146.327 357.056 145.251 355.674 142.219L328.653 79.0615H307.34C307.34 79.0615 323.186 126.124 329.529 141.659C335.538 156.421 346.584 161.426 366.515 160.919C388.766 160.359 394.358 147.109 386.833 132.258Z" fill="#005AAA"/>
<path d="M83.0267 45.9378L101.74 4.10218L83.329 4.00439C82.5289 5.8357 58.9664 49.7871 52.619 61.6328L53.8147 63.0507C61.9889 57.379 71.8388 51.5828 83.0267 45.9378Z" fill="#005AAA"/>
<path d="M111.31 15.1127L102.838 37.3418C113.394 33.5502 116.221 32.5101 124.547 30.0876C124.547 30.0876 129.036 15.0771 129.36 15.0771C129.676 15.0771 139.584 15.0905 139.584 15.0905L142.504 4.14709L105.162 4.09375L100.406 15.0416L111.31 15.1127Z" fill="#005AAA"/>
<path d="M163.484 2C148.505 2 143.02 8.93852 139.339 26.1048L157.475 22.6911C157.475 22.6911 159.253 14.3169 159.67 13.1967C160.222 11.5966 161.937 11.441 163.026 11.441C164.115 11.441 165.498 12.1833 165.498 13.5212C165.498 15.277 164.738 21.5843 164.738 21.5843L182.251 20.0864C183.815 7.97397 178.308 2 163.484 2Z" fill="#005AAA"/>
<path d="M206.404 13.7661C206.404 13.2949 206.982 11.4814 209.107 11.4814C211.245 11.4814 211.827 12.5837 212.107 13.566C212.392 14.5617 212.685 19.5534 212.685 19.5534L229.487 20.7846C228.909 6.68086 222.797 2.09814 208.884 2.09814C200.595 2.09814 190.945 4.14726 189.398 19.5978L206.213 19.5534C206.213 18.8866 206.404 14.2461 206.404 13.7661Z" fill="#005AAA"/>
<path d="M254.694 24.5359L250.133 4.26709H234.709L237.318 21.8379C243.648 22.4379 246.013 22.8691 254.694 24.5359Z" fill="#005AAA"/>
<path d="M280.661 30.9232L272.3 4.22705H256.601L262.05 26.0116C268.38 27.2384 272.642 28.4563 280.661 30.9232Z" fill="#005AAA"/>
<path d="M313.794 43.4798L296.841 4.34229H280.879L291.667 34.43C300.988 37.7236 302.922 38.4482 313.794 43.4798Z" fill="#005AAA"/>
<path d="M348.962 63.3355L350.086 62.1264L319.63 4.36914H303.566L323.635 48.0672C333.36 53.4188 336.2 55.179 348.962 63.3355Z" fill="#005AAA"/>
</svg>
