<svg width="352" height="232" viewBox="0 0 352 232" fill="none" xmlns="http://www.w3.org/2000/svg">
<path fill-rule="evenodd" clip-rule="evenodd" d="M176 144C215.765 144 248 111.765 248 72C248 32.2355 215.765 0 176 0C136.235 0 104 32.2355 104 72C104 111.765 136.235 144 176 144ZM220.962 88.8414C218.719 89.5779 216.452 90.2609 214.162 90.8886C216.566 93.9485 218 97.8068 218 102C218 111.941 209.941 120 200 120C190.058 120 182 111.941 182 102V95.8771C180.01 95.9587 178.009 95.9999 176 95.9999C160.298 95.9999 145.184 93.487 131.037 88.8414C129.412 84.5035 128.396 79.8677 128.094 75.0382C142.945 80.8246 159.101 83.9999 176 83.9999C192.898 83.9999 209.054 80.8246 223.905 75.0382C223.603 79.8677 222.587 84.5035 220.962 88.8414Z" fill="#FBC02D"/>
<path d="M26.6667 221.333C33.3665 221.333 39.4892 218.863 44.1734 214.783C45.9548 213.231 49.323 213.983 50.2816 216.142C54.4288 225.484 63.7868 232 74.6667 232C85.5465 232 94.9046 225.484 99.0517 216.142C100.01 213.983 103.379 213.231 105.16 214.783C109.844 218.863 115.967 221.333 122.667 221.333C129.366 221.333 135.489 218.863 140.173 214.783C141.955 213.231 145.323 213.983 146.282 216.142C150.429 225.484 159.787 232 170.667 232C181.547 232 190.905 225.484 195.052 216.142C196.01 213.983 199.379 213.231 201.16 214.783C205.844 218.863 211.967 221.333 218.667 221.333C225.366 221.333 231.489 218.863 236.173 214.783C237.955 213.231 241.323 213.983 242.282 216.142C246.429 225.484 255.787 232 266.667 232C275.95 232 284.125 227.256 288.901 220.061C290.174 218.143 293.411 217.959 294.835 219.769C300.694 227.217 309.788 232 320 232C337.673 232 352 217.673 352 200C352 182.327 337.673 168 320 168C307.506 168 296.684 175.161 291.414 185.602C290.377 187.658 287.166 188.123 285.539 186.493C280.712 181.658 274.038 178.667 266.667 178.667C259.967 178.667 253.844 181.137 249.16 185.217C247.379 186.769 244.01 186.017 243.052 183.858C238.905 174.516 229.547 168 218.667 168C207.787 168 198.429 174.516 194.282 183.858C193.323 186.017 189.955 186.769 188.173 185.217C183.489 181.137 177.366 178.667 170.667 178.667C163.967 178.667 157.844 181.137 153.16 185.217C151.379 186.769 148.01 186.017 147.052 183.858C142.905 174.516 133.547 168 122.667 168C111.787 168 102.429 174.516 98.2816 183.858C97.323 186.017 93.9548 186.769 92.1733 185.217C87.4892 181.137 81.3665 178.667 74.6667 178.667C67.9669 178.667 61.8442 181.137 57.16 185.217C55.3785 186.769 52.0103 186.017 51.0517 183.858C46.9046 174.516 37.5465 168 26.6667 168C11.9391 168 0 179.939 0 194.667C0 209.394 11.9391 221.333 26.6667 221.333Z" fill="#FBC02D"/>
<path fill-rule="evenodd" clip-rule="evenodd" d="M23.6905 189.204C23.6797 189.941 23.6797 190.672 23.6797 191.387C23.6797 192.049 24.304 192.535 24.9523 192.397C27.0277 191.954 29.0678 191.723 30.7731 191.723C36.4477 191.723 40.9277 194.747 40.9277 199.824C40.9277 204.192 38.6504 207.477 32.7891 208.933C31.4472 209.225 30.1281 209.38 28.9209 209.469C28.3361 209.513 27.7993 209.154 27.5996 208.603L26.8658 206.577C26.551 205.707 27.1952 204.794 28.1193 204.764C29.0788 204.732 29.9747 204.665 30.7731 204.528C33.7597 204.005 36.1491 202.475 36.1491 199.787C36.1491 197.285 33.9091 195.829 30.6984 195.829C28.7542 195.829 26.7284 196.101 24.7604 196.576C24.1663 196.719 23.7651 197.266 23.7822 197.877C23.8043 198.664 23.8279 199.431 23.8499 200.148C23.8994 201.76 23.9411 203.119 23.9411 203.893C23.9411 208.485 22.2611 209.68 19.8717 209.68C16.2504 209.68 11.1357 206.581 11.1357 202.661C11.1357 199.614 14.454 196.502 18.5942 194.495C19.0896 194.254 19.4064 193.749 19.3965 193.199C19.3864 192.645 19.3864 192.09 19.3864 191.536V189.843C19.3864 189.079 18.7461 188.479 17.9826 188.502C17.7845 188.508 17.5926 188.512 17.4077 188.512C16.1298 188.512 14.7439 188.49 13.4471 188.414C12.7683 188.375 12.2472 187.811 12.2358 187.131L12.2066 185.375C12.1931 184.566 12.8966 183.934 13.7024 184.002C15.1315 184.123 16.2872 184.144 17.2957 184.144C17.5876 184.144 17.8865 184.137 18.1925 184.126C18.8879 184.101 19.44 183.533 19.4501 182.837C19.4611 182.086 19.4611 181.467 19.4611 181.045C19.4611 180.65 19.423 179.997 19.371 179.362C19.3037 178.54 19.9498 177.797 20.7737 177.797H22.7874C23.5821 177.797 24.2038 178.488 24.1301 179.28C24.0733 179.889 24.0163 180.535 23.9784 181.008C23.9629 181.349 23.9474 181.702 23.9319 182.066C23.8966 182.896 24.6227 183.555 25.4422 183.419C26.674 183.216 27.878 182.977 28.9891 182.714C29.8394 182.512 30.6817 183.132 30.7029 184.005L30.7468 185.821C30.7621 186.453 30.3318 187.011 29.712 187.136C28.1972 187.443 26.5168 187.7 24.8482 187.92C24.1973 188.006 23.7001 188.548 23.6905 189.204ZM15.7277 202.512C15.7277 203.632 17.4451 204.677 18.4157 204.677C19.0877 204.677 19.6104 204.341 19.6104 203.072C19.6104 202.495 19.5961 201.632 19.5676 200.599C19.5407 199.626 18.5044 199.023 17.7269 199.608C16.4784 200.547 15.7277 201.586 15.7277 202.512Z" fill="white"/>
<path d="M34.058 186.057C33.3758 185.698 33.111 184.846 33.491 184.175L34.2248 182.881C34.572 182.269 35.3357 182.031 35.9622 182.352C38.2433 183.521 41.0425 185.104 42.9007 186.3C43.4823 186.674 43.6453 187.439 43.2946 188.035L42.4892 189.404C42.0658 190.124 41.0819 190.293 40.396 189.817C38.6261 188.589 35.9968 187.075 34.058 186.057Z" fill="white"/>
<path d="M82.0803 205.251C81.4188 204.409 81.7935 203.092 82.8396 202.866L84.7529 202.453C85.2514 202.346 85.7703 202.531 86.0741 202.94C88.1856 205.789 89.1517 208.25 89.1517 211.163C89.1517 216.725 84.149 220.757 76.0477 220.757C70.2237 220.757 66.117 218.219 66.117 212.059C66.117 211.435 66.1713 210.612 66.2546 209.654C66.3184 208.92 65.7835 208.269 65.0521 208.182C63.3276 207.975 61.7323 207.702 60.3209 207.363C59.7126 207.217 59.3109 206.649 59.3473 206.024L59.444 204.368C59.4954 203.487 60.3748 202.897 61.2282 203.122C62.6651 203.502 64.1229 203.757 65.5554 203.933C66.2646 204.019 66.9025 203.511 66.9914 202.802C67.0483 202.348 67.1038 201.891 67.1595 201.433C67.2015 201.087 67.2437 200.74 67.2865 200.394C67.3789 199.647 66.8408 198.968 66.0939 198.873C64.3775 198.656 62.6826 198.358 61.1531 197.992C60.5404 197.845 60.1337 197.273 60.172 196.644L60.2622 195.162C60.3154 194.288 61.1855 193.697 62.0368 193.905C63.4712 194.254 65.0707 194.513 66.6832 194.689C67.3897 194.766 68.0211 194.257 68.092 193.55C68.1337 193.133 68.1679 192.74 68.1996 192.376C68.2151 192.197 68.2301 192.026 68.245 191.861C68.2875 191.288 68.33 190.702 68.3449 190.076C68.364 189.278 69.0207 188.616 69.8179 188.662L71.944 188.785C72.7644 188.832 73.3443 189.602 73.1844 190.409C73.059 191.04 72.9605 191.6 72.8743 192.16C72.8165 192.488 72.7587 192.905 72.6906 193.396C72.5772 194.214 73.2181 194.95 74.0437 194.923C75.3614 194.88 76.5876 194.807 77.6694 194.703C78.4985 194.623 79.2323 195.279 79.2041 196.112L79.1484 197.754C79.1258 198.42 78.6144 198.969 77.9499 199.026C76.4565 199.153 74.9544 199.226 73.068 199.247C72.4013 199.255 71.8361 199.746 71.7489 200.407C71.5898 201.612 71.4352 202.849 71.2987 204.034C71.2827 204.172 71.391 204.293 71.5303 204.293C73.3432 204.293 75.44 204.175 77.444 203.995C78.2472 203.923 78.9414 204.562 78.9209 205.368L78.8779 207.062C78.8606 207.74 78.3384 208.297 77.6631 208.351C75.9407 208.488 74.1645 208.587 72.3143 208.587H72.0655C71.3648 208.587 70.781 209.129 70.7348 209.828C70.6979 210.387 70.6717 210.877 70.6717 211.275C70.6717 214.299 72.5383 215.979 76.197 215.979C81.349 215.979 84.1863 213.627 84.1863 210.565C84.1863 208.734 83.4257 206.962 82.0803 205.251Z" fill="white"/>
<path d="M133.52 183.121C133.506 182.279 132.725 181.661 131.898 181.82C128.284 182.514 124.417 182.955 120.969 183.18C120.391 183.218 119.939 182.696 120.053 182.128C120.122 181.804 120.185 181.48 120.249 181.155L120.249 181.154C120.322 180.784 120.394 180.413 120.476 180.039C120.661 179.182 120.052 178.321 119.176 178.283L117.118 178.195C116.344 178.162 115.713 178.793 115.688 179.568C115.666 180.231 115.607 180.927 115.498 181.867C115.49 181.972 115.477 182.078 115.461 182.188C115.366 182.858 114.764 183.353 114.088 183.319C112.637 183.246 111.052 183.089 109.592 182.889C108.774 182.777 108.032 183.404 108.032 184.229V186.036C108.032 186.721 108.55 187.296 109.233 187.354C110.329 187.446 111.509 187.523 112.755 187.571C113.607 187.604 114.228 188.403 114.015 189.228C113.196 192.388 112.107 195.852 110.856 198.639C110.526 199.374 110.871 200.253 111.63 200.525L113.525 201.206C114.128 201.422 114.785 201.169 115.131 200.63C115.276 200.403 115.429 200.188 115.61 199.973C117.813 197.136 121.584 195.605 125.84 195.605C129.424 195.605 131.365 197.472 131.365 199.675C131.365 204.664 124.514 205.9 117.14 205.071C116.176 204.962 115.378 205.852 115.634 206.787L116.154 208.69C116.299 209.22 116.755 209.608 117.302 209.657C128.744 210.681 136.33 207.638 136.33 199.525C136.33 194.821 132.373 191.611 126.4 191.611C124.194 191.611 122.24 191.894 120.324 192.542C119.174 192.931 117.86 191.829 118.162 190.654C118.34 189.961 118.512 189.248 118.674 188.536C118.808 187.949 119.312 187.52 119.912 187.483C124.161 187.215 128.9 186.66 132.419 186.146C133.078 186.05 133.559 185.478 133.548 184.812L133.52 183.121Z" fill="white"/>
<path d="M163.74 190.225C163.772 189.427 164.458 188.797 165.252 188.878L167.744 189.132C168.542 189.213 169.087 189.976 168.913 190.759C168.791 191.311 168.673 191.859 168.576 192.347C168.468 192.993 168.323 193.715 168.169 194.467C167.995 195.321 168.677 196.099 169.547 196.053C170.08 196.024 170.551 196.005 170.928 196.005C174.848 196.005 177.61 197.76 177.61 203.061C177.61 207.429 177.088 213.328 175.52 216.539C174.288 219.115 172.234 219.936 169.434 219.936C168.321 219.936 167.002 219.798 165.89 219.595C165.365 219.498 164.972 219.072 164.883 218.546L164.559 216.614C164.396 215.645 165.307 214.821 166.272 215.003C167.236 215.185 168.17 215.307 168.725 215.307C169.957 215.307 170.928 214.933 171.488 213.701C172.533 211.648 173.018 207.243 173.018 203.584C173.018 200.635 171.749 200.224 169.397 200.224C168.992 200.224 168.451 200.258 167.819 200.304C167.246 200.345 166.764 200.748 166.618 201.304C165.236 206.566 162.874 214.008 159.925 219.165C159.605 219.726 158.918 219.948 158.318 219.708L156.112 218.826C155.299 218.501 155.014 217.491 155.489 216.755C158.176 212.591 160.166 207.135 161.441 202.779C161.705 201.877 160.957 201.011 160.025 201.132C159.54 201.196 159.12 201.255 158.794 201.307C158.116 201.379 157.076 201.515 156.113 201.652C155.343 201.762 154.633 201.205 154.57 200.43L154.406 198.433C154.338 197.611 155.025 196.924 155.849 196.923C156.395 196.923 156.936 196.905 157.491 196.886C157.723 196.878 157.958 196.871 158.197 196.864C159.14 196.834 160.481 196.754 161.956 196.644C162.557 196.599 163.053 196.153 163.153 195.558C163.467 193.678 163.674 191.878 163.74 190.225Z" fill="white"/>
<path d="M178.569 196.069C178.087 195.322 178.356 194.282 179.177 193.94L181.029 193.168C181.606 192.928 182.273 193.117 182.604 193.647C184.541 196.741 186.891 202.015 188.098 205.391C188.324 206.02 188.023 206.709 187.418 206.995L185.296 207.996C184.529 208.358 183.622 207.923 183.385 207.109C182.373 203.633 180.532 199.117 178.569 196.069Z" fill="white"/>
<path d="M213.065 178.072C212.327 177.949 211.622 178.443 211.5 179.181L211.229 180.818C211.11 181.542 211.598 182.228 212.324 182.34C216.209 182.943 221.375 183.541 224.945 183.88C225.653 183.947 226.283 183.442 226.38 182.738L226.61 181.055C226.715 180.285 226.144 179.588 225.369 179.529C221.833 179.258 216.735 178.683 213.065 178.072Z" fill="white"/>
<path d="M226.909 190.487C227.537 189.995 227.649 189.069 227.123 188.47L225.988 187.18C225.625 186.767 225.044 186.614 224.508 186.733C224.102 186.823 223.652 186.904 223.296 186.944C220.234 187.355 211.834 187.728 210.08 187.728C209.406 187.728 208.732 187.719 208.119 187.7C207.291 187.674 206.599 188.373 206.672 189.198L206.852 191.261C206.921 192.048 207.654 192.6 208.435 192.485C208.959 192.409 209.539 192.337 210.154 192.283C211.525 192.162 213.841 191.965 216.014 191.809C217.209 191.724 217.851 193.123 217.014 193.981C214.612 196.442 211.584 199.483 209.313 201.764C208.045 203.038 207.013 204.075 206.458 204.64C206.052 205.047 205.651 205.421 205.274 205.757C204.602 206.354 204.633 207.439 205.371 207.952L207.253 209.259C207.833 209.663 208.628 209.542 209.072 208.992C211.376 206.137 213.723 203.61 214.896 202.437C215.754 201.541 216.538 200.944 217.285 200.944C218.032 200.944 218.816 201.429 219.264 202.736C219.33 202.972 219.406 203.259 219.488 203.572L219.49 203.578L219.491 203.581L219.492 203.584C219.736 204.508 220.041 205.664 220.346 206.469C221.242 208.896 223.146 209.643 226.656 209.643C228.218 209.643 231.063 209.492 232.88 209.273C233.482 209.2 233.924 208.697 233.962 208.091L234.091 205.996C234.144 205.122 233.356 204.432 232.488 204.549C230.893 204.765 229.001 204.901 226.954 204.901C225.498 204.901 224.677 204.341 224.341 203.184C224.159 202.678 223.977 202.03 223.795 201.383C223.641 200.834 223.487 200.286 223.333 199.824C222.818 198.463 222.158 197.682 221.103 197.338C221.072 197.328 221.046 197.317 221.016 197.304C220.539 197.084 220.267 196.419 220.646 196.056C222.055 194.704 224.397 192.578 225.685 191.461C225.876 191.313 226.075 191.153 226.286 190.984C226.484 190.825 226.691 190.658 226.909 190.487Z" fill="white"/>
<path d="M256.412 189.919C256.455 189.18 257.077 188.603 257.817 188.635L259.864 188.726C260.725 188.764 261.332 189.597 261.139 190.437C261.122 190.509 261.106 190.582 261.089 190.656C260.777 192.041 262.874 192.976 264.045 192.173C265.522 191.16 267.258 190.48 269.205 190.48C274.357 190.48 278.352 195.52 278.352 203.659C278.352 213.799 272.31 218.81 263.02 220.737C262.494 220.846 261.958 220.614 261.664 220.164L260.477 218.344C259.948 217.533 260.435 216.445 261.385 216.257C268.497 214.843 273.312 211.896 273.312 203.696C273.312 197.984 271.408 194.811 268.346 194.811C263.978 194.811 260.17 201.381 259.984 206.235C259.957 206.94 259.95 207.737 260.024 208.74C260.081 209.508 259.519 210.197 258.751 210.247L256.824 210.372C256.123 210.418 255.505 209.913 255.427 209.215C255.275 207.864 255.13 206.13 255.13 204.293C255.13 200.859 255.616 196.267 256.176 192.459C256.292 191.622 256.365 190.727 256.412 189.919Z" fill="white"/>
<path d="M290.666 208C292.139 208 293.333 206.806 293.333 205.333C293.333 203.861 292.139 202.667 290.666 202.667C289.194 202.667 288 203.861 288 205.333C288 206.806 289.194 208 290.666 208Z" fill="white"/>
<path d="M303.241 205.837C303.866 205.837 304.373 205.665 304.764 205.322C304.827 205.266 304.886 205.207 304.94 205.145L304.987 205.09C305.448 204.557 305.973 203.951 306.671 203.951H307.204C307.945 203.951 308.567 204.569 308.34 205.275C308.224 205.637 308.059 205.985 307.846 206.318C307.385 207.029 306.752 207.583 305.948 207.982C305.151 208.372 304.268 208.568 303.299 208.568C301.487 208.568 300.057 207.994 299.01 206.845C297.963 205.689 297.44 204.095 297.44 202.064V201.841C297.44 199.888 297.959 198.329 298.998 197.165C300.037 196.001 301.463 195.419 303.276 195.419C304.862 195.419 306.131 195.872 307.084 196.779C307.741 197.392 308.177 198.147 308.392 199.041C308.566 199.762 307.944 200.376 307.202 200.376H306.675C305.951 200.376 305.416 199.751 305.037 199.134C304.959 199.008 304.868 198.891 304.764 198.783C304.373 198.369 303.858 198.161 303.217 198.161C302.428 198.161 301.83 198.451 301.424 199.029C301.026 199.599 300.827 200.529 300.827 201.818V202.169C300.827 203.474 301.026 204.411 301.424 204.982C301.823 205.552 302.428 205.837 303.241 205.837Z" fill="white"/>
<path fill-rule="evenodd" clip-rule="evenodd" d="M309.715 201.876C309.715 200.619 309.958 199.497 310.442 198.513C310.926 197.529 311.622 196.767 312.528 196.228C313.442 195.689 314.501 195.419 315.704 195.419C317.415 195.419 318.809 195.943 319.887 196.99C320.973 198.036 321.579 199.458 321.704 201.255L321.727 202.122C321.727 204.068 321.184 205.63 320.098 206.81C319.012 207.982 317.555 208.568 315.727 208.568C313.899 208.568 312.438 207.982 311.344 206.81C310.258 205.638 309.715 204.044 309.715 202.029V201.876ZM313.102 202.122C313.102 203.326 313.329 204.247 313.782 204.888C314.235 205.521 314.883 205.837 315.727 205.837C316.547 205.837 317.188 205.525 317.649 204.9C318.11 204.267 318.34 203.259 318.34 201.876C318.34 200.697 318.11 199.783 317.649 199.134C317.188 198.486 316.54 198.161 315.704 198.161C314.876 198.161 314.235 198.486 313.782 199.134C313.329 199.775 313.102 200.771 313.102 202.122Z" fill="white"/>
<path d="M326.777 196.037C326.761 195.821 326.581 195.654 326.365 195.654H324.906C324.17 195.654 323.573 196.251 323.573 196.987V207C323.573 207.736 324.17 208.333 324.906 208.333H325.626C326.363 208.333 326.96 207.736 326.96 207V199.705C326.96 199.484 327.009 199.262 327.137 199.083C327.571 198.476 328.207 198.173 329.046 198.173C329.741 198.173 330.233 198.337 330.522 198.665C330.811 198.994 330.956 199.525 330.956 200.259V207C330.956 207.736 331.553 208.333 332.289 208.333H333.007C333.745 208.333 334.342 207.735 334.341 206.998L334.331 199.886C334.331 199.714 334.361 199.543 334.437 199.389C334.843 198.579 335.511 198.173 336.44 198.173C337.151 198.173 337.647 198.341 337.929 198.677C338.21 199.005 338.35 199.529 338.35 200.247V207C338.35 207.736 338.947 208.333 339.684 208.333H340.416C341.152 208.333 341.749 207.736 341.749 207V200.236C341.749 198.626 341.413 197.423 340.741 196.626C340.069 195.822 339.046 195.419 337.671 195.419C336.891 195.419 336.196 195.564 335.585 195.852C334.657 196.291 333.205 196.167 332.266 195.752C331.765 195.53 331.176 195.419 330.499 195.419C329.353 195.419 328.384 195.728 327.592 196.345C327.297 196.575 326.805 196.409 326.777 196.037Z" fill="white"/>
</svg>
