<svg width="248" height="240" viewBox="0 0 248 240" fill="none" xmlns="http://www.w3.org/2000/svg">
<path d="M124 144C119.126 144.001 114.265 143.511 109.49 142.538C104.857 141.588 100.33 140.183 95.9748 138.342C91.6935 136.529 87.5978 134.306 83.7452 131.704C79.9215 129.119 76.3533 126.175 73.0892 122.912C69.8262 119.648 66.8824 116.08 64.2977 112.256C61.6954 108.403 59.4722 104.307 57.6594 100.026C55.8184 95.6705 54.4131 91.1434 53.4639 86.511C52.4896 81.7355 51.9992 76.8739 52 72C51.9988 67.1264 52.4887 62.2651 53.4625 57.4897C54.4116 52.8574 55.817 48.3303 57.658 43.9748C59.4707 39.6933 61.6939 35.5974 64.2963 31.7445C66.881 27.9208 69.8248 24.3526 73.0877 21.0885C76.3518 17.8267 79.9197 14.8839 83.743 12.3C87.5956 9.69762 91.6912 7.47449 95.9724 5.66175C100.328 3.82066 104.855 2.41531 109.487 1.46625C114.263 0.491074 119.126 -0.000159225 124 2.36469e-06C128.874 -0.00124213 133.735 0.488734 138.51 1.4625C143.143 2.41155 147.67 3.81691 152.025 5.658C156.307 7.47074 160.403 9.69386 164.256 12.2963C168.079 14.8809 171.647 17.8248 174.912 21.0878C178.174 24.352 181.116 27.9202 183.7 31.7438C186.303 35.5966 188.526 39.6925 190.338 43.974C192.179 48.3295 193.585 52.8566 194.534 57.489C195.509 62.2645 196 67.126 196 72C196.001 76.8736 195.511 81.7349 194.538 86.5103C193.589 91.1427 192.183 95.6698 190.342 100.025C188.529 104.307 186.306 108.403 183.704 112.255C181.119 116.079 178.175 119.647 174.912 122.911C171.648 126.174 168.08 129.118 164.256 131.703C160.403 134.305 156.307 136.529 152.026 138.341C147.67 140.182 143.143 141.588 138.511 142.537C133.735 143.511 128.874 144.001 124 144ZM130 95.877V102C129.995 104.407 130.477 106.79 131.414 109.007C132.318 111.146 133.627 113.089 135.271 114.729C136.91 116.373 138.853 117.684 140.991 118.588C143.209 119.526 145.592 120.006 148 120C150.407 120.005 152.79 119.523 155.007 118.585C157.145 117.681 159.088 116.37 160.727 114.726C162.371 113.086 163.681 111.143 164.585 109.003C165.523 106.788 166.004 104.406 166 102C166.003 99.9646 165.659 97.9436 164.984 96.0233C164.333 94.1713 163.382 92.4389 162.168 90.8955C164.428 90.2753 166.715 89.586 168.965 88.8465C170.623 84.4149 171.615 79.7617 171.908 75.039C156.637 80.9916 140.386 84.0311 123.995 84C107.609 84.0285 91.3614 80.9881 76.0938 75.036C76.3867 79.7587 77.3786 84.4118 79.0368 88.8435C93.5475 93.6039 108.725 96.0192 123.996 95.9985C125.984 95.9985 128.004 95.9573 130.001 95.8763L130 95.877Z" fill="#FBC02D"/>
<path d="M45.8175 207.666C44.8841 206.583 43.1159 206.583 42.1825 207.666C37.7814 212.769 31.268 216 24 216C10.7452 216 0 205.255 0 192C0 178.745 10.7452 168 24 168C31.268 168 37.7814 171.231 42.1825 176.334C43.1159 177.417 44.8841 177.417 45.8175 176.334C50.2186 171.231 56.732 168 64 168C71.268 168 77.7814 171.231 82.1825 176.334C83.1159 177.417 84.8841 177.417 85.8175 176.334C90.2186 171.231 96.732 168 104 168C111.268 168 117.781 171.231 122.183 176.334C123.116 177.417 124.884 177.417 125.817 176.334C130.219 171.231 136.732 168 144 168C151.268 168 157.781 171.231 162.183 176.334C163.116 177.417 164.884 177.417 165.817 176.334C170.219 171.231 176.732 168 184 168C191.268 168 197.781 171.231 202.183 176.334C203.116 177.417 204.884 177.417 205.817 176.334C210.219 171.231 216.732 168 224 168C237.255 168 248 178.745 248 192C248 205.255 237.255 216 224 216C216.732 216 210.219 212.769 205.817 207.666C204.884 206.583 203.116 206.583 202.183 207.666C197.781 212.769 191.268 216 184 216C176.732 216 170.219 212.769 165.817 207.666C164.884 206.583 163.116 206.583 162.183 207.666C157.781 212.769 151.268 216 144 216C136.732 216 130.219 212.769 125.817 207.666C124.884 206.583 123.116 206.583 122.183 207.666C117.781 212.769 111.268 216 104 216C96.732 216 90.2186 212.769 85.8175 207.666C84.8841 206.583 83.1159 206.583 82.1825 207.666C77.7814 212.769 71.268 216 64 216C56.732 216 50.2186 212.769 45.8175 207.666Z" fill="#FBC02D"/>
<path d="M17.87 200.33C17.09 200.33 15.71 199.49 15.71 198.59C15.71 197.824 16.3493 196.961 17.4061 196.19C17.9954 195.76 18.7717 196.212 18.7925 196.941C18.8175 197.821 18.83 198.556 18.83 199.04C18.83 200.06 18.41 200.33 17.87 200.33ZM22.1 189.65C22.1 189.056 22.1 188.448 22.1096 187.835C22.1173 187.343 22.4902 186.936 22.9784 186.872C24.36 186.691 25.754 186.478 27.0043 186.223C27.469 186.128 27.7918 185.71 27.7803 185.236L27.7414 183.626C27.7255 182.971 27.0937 182.506 26.4564 182.659C25.5136 182.886 24.4845 183.09 23.4321 183.262C22.8173 183.362 22.2727 182.868 22.2991 182.246C22.3127 181.923 22.3264 181.61 22.34 181.31C22.3721 180.909 22.4213 180.354 22.4693 179.842C22.5249 179.248 22.0588 178.73 21.4628 178.73H19.6805C19.0625 178.73 18.5785 179.287 18.6306 179.903C18.676 180.44 18.71 181.005 18.71 181.34C18.71 181.691 18.71 182.212 18.7002 182.846C18.6922 183.368 18.2781 183.793 17.7566 183.813C17.4877 183.823 17.2255 183.83 16.97 183.83C16.1405 183.83 15.1871 183.812 14.0011 183.709C13.3969 183.656 12.869 184.13 12.8791 184.737L12.9051 186.294C12.9136 186.804 13.3044 187.227 13.8135 187.258C14.8738 187.322 16.0121 187.34 17.06 187.34C17.2318 187.34 17.4113 187.336 17.5972 187.33C18.1698 187.31 18.65 187.761 18.65 188.334V189.77C18.65 190.232 18.65 190.693 18.659 191.155C18.667 191.568 18.4295 191.947 18.0574 192.126C14.7101 193.738 12.02 196.251 12.02 198.71C12.02 201.86 16.13 204.35 19.04 204.35C20.96 204.35 22.31 203.39 22.31 199.7C22.31 198.792 22.2388 196.888 22.1808 194.809C22.168 194.351 22.469 193.942 22.9143 193.833C24.5127 193.444 26.1599 193.22 27.74 193.22C30.32 193.22 32.12 194.39 32.12 196.4C32.12 198.56 30.2 199.79 27.8 200.21C27.1303 200.325 26.3752 200.379 25.5657 200.402C24.8726 200.423 24.3894 201.109 24.6256 201.761L25.2679 203.534C25.4177 203.947 25.8201 204.216 26.2588 204.185C27.2432 204.113 28.3221 203.989 29.42 203.75C34.13 202.58 35.96 199.94 35.96 196.43C35.96 192.35 32.36 189.92 27.8 189.92C26.4297 189.92 24.7903 190.106 23.1226 190.461C22.6017 190.572 22.1 190.183 22.1 189.65ZM29.9465 183.921C29.6614 184.424 29.8596 185.063 30.3717 185.331C31.9618 186.163 34.1616 187.428 35.6041 188.439C36.1171 188.798 36.8536 188.671 37.1711 188.131L37.8952 186.9C38.1582 186.453 38.0364 185.88 37.6008 185.598C36.092 184.623 33.7761 183.313 31.9096 182.359C31.4395 182.119 30.8672 182.298 30.6068 182.757L29.9465 183.921Z" fill="white"/>
<path d="M70.936 190.332C70.1514 190.501 69.8701 191.488 70.3735 192.114C71.507 193.522 72.15 194.98 72.15 196.49C72.15 198.95 69.87 200.84 65.73 200.84C62.79 200.84 61.29 199.49 61.29 197.06C61.29 196.724 61.3132 196.308 61.3452 195.831C61.3803 195.307 61.8179 194.9 62.3434 194.9C62.4334 194.9 62.5224 194.9 62.61 194.9C64.1195 194.9 65.5678 194.818 66.9717 194.706C67.4781 194.665 67.8698 194.247 67.8827 193.739L67.921 192.232C67.9364 191.627 67.4157 191.148 66.8133 191.203C65.1785 191.352 63.4613 191.45 61.98 191.45C61.8681 191.45 61.7811 191.353 61.7939 191.241C61.9059 190.269 62.0331 189.253 62.1638 188.265C62.2294 187.769 62.6529 187.401 63.153 187.396C64.7247 187.38 65.9636 187.318 67.2007 187.212C67.6991 187.169 68.0827 186.757 68.0996 186.257L68.1493 184.79C68.1705 184.165 67.6203 183.673 66.9987 183.735C66.0857 183.825 65.041 183.888 63.9149 183.923C63.2957 183.943 62.8157 183.391 62.9008 182.777C62.9606 182.346 63.0103 181.982 63.06 181.7C63.133 181.226 63.217 180.752 63.3256 180.21C63.4468 179.606 63.0116 179.028 62.3962 178.992L60.5237 178.885C59.9258 178.85 59.4334 179.346 59.4221 179.945C59.412 180.478 59.376 180.974 59.34 181.46C59.3019 181.879 59.2638 182.359 59.2102 182.885C59.1562 183.415 58.6826 183.797 58.1526 183.74C56.8 183.594 55.4565 183.376 54.2609 183.08C53.6231 182.921 52.9708 183.364 52.9309 184.02L52.8493 185.361C52.8206 185.832 53.1254 186.262 53.5847 186.373C54.8501 186.679 56.2592 186.926 57.6846 187.104C58.2449 187.174 58.6484 187.683 58.5789 188.244C58.4927 188.938 58.4105 189.633 58.3242 190.319C58.2572 190.851 57.7788 191.232 57.2467 191.168C56.0436 191.023 54.8173 190.81 53.6106 190.485C52.9712 190.313 52.3118 190.755 52.2733 191.416L52.1868 192.898C52.1595 193.367 52.4609 193.793 52.9168 193.904C54.0839 194.187 55.4096 194.413 56.8454 194.583C57.394 194.648 57.7953 195.136 57.7468 195.686C57.6763 196.487 57.63 197.173 57.63 197.69C57.63 202.64 60.93 204.68 65.61 204.68C72.12 204.68 76.14 201.44 76.14 196.97C76.14 194.617 75.3556 192.631 73.6402 190.327C73.4118 190.02 73.0228 189.881 72.649 189.962L70.936 190.332Z" fill="white"/>
<path d="M113.22 182.921C113.21 182.29 112.624 181.826 112.004 181.946C109.075 182.513 105.934 182.873 103.136 183.056C102.672 183.086 102.309 182.666 102.4 182.21C102.524 181.624 102.628 181.038 102.76 180.44C102.901 179.798 102.445 179.152 101.788 179.124L99.965 179.046C99.3844 179.021 98.9107 179.495 98.8944 180.076C98.8789 180.632 98.832 181.209 98.74 182C98.7313 182.104 98.7176 182.211 98.7011 182.321C98.6255 182.823 98.1772 183.195 97.6703 183.17C96.4592 183.112 95.1278 182.979 93.9099 182.81C93.2967 182.724 92.74 183.195 92.74 183.814V185.415C92.74 185.929 93.1291 186.36 93.641 186.404C94.566 186.483 95.5664 186.548 96.6243 186.587C97.2634 186.611 97.7296 187.21 97.57 187.829C96.9026 190.42 96.0072 193.275 94.976 195.552C94.7266 196.103 94.9855 196.761 95.5546 196.966L97.2103 197.56C97.6626 197.722 98.1568 197.534 98.4128 197.128C98.5397 196.926 98.6709 196.738 98.83 196.55C100.6 194.27 103.63 193.04 107.05 193.04C109.93 193.04 111.49 194.54 111.49 196.31C111.49 200.344 105.916 201.324 99.949 200.633C99.2265 200.55 98.6279 201.217 98.8197 201.918L99.28 203.601C99.3886 203.999 99.7313 204.29 100.141 204.327C109.363 205.163 115.48 202.72 115.48 196.19C115.48 192.41 112.3 189.83 107.5 189.83C105.661 189.83 104.041 190.075 102.445 190.638C101.587 190.941 100.605 190.118 100.835 189.238C100.998 188.608 101.156 187.956 101.304 187.306C101.404 186.866 101.783 186.544 102.233 186.516C105.686 186.301 109.55 185.847 112.399 185.43C112.893 185.357 113.254 184.928 113.246 184.429L113.22 182.921Z" fill="white"/>
<path d="M140.07 179.054C139.474 178.993 138.959 179.466 138.937 180.065C138.887 181.431 138.716 182.924 138.453 184.484C138.378 184.931 138.006 185.265 137.555 185.299C136.349 185.389 135.25 185.455 134.48 185.48C133.802 185.499 133.16 185.529 132.509 185.527C131.891 185.526 131.376 186.041 131.427 186.656L131.572 188.422C131.619 189.003 132.152 189.421 132.729 189.339C133.524 189.225 134.397 189.11 134.96 189.05C135.245 189.005 135.619 188.953 136.053 188.896C136.752 188.806 137.313 189.455 137.116 190.132C136.085 193.676 134.459 198.154 132.253 201.542C131.895 202.093 132.108 202.849 132.718 203.093L134.633 203.859C135.083 204.039 135.598 203.872 135.839 203.452C138.232 199.29 140.147 193.246 141.26 188.998C141.369 188.581 141.731 188.279 142.161 188.248C142.691 188.209 143.144 188.18 143.48 188.18C145.37 188.18 146.39 188.51 146.39 190.88C146.39 193.82 146 197.36 145.16 199.01C144.71 200 143.93 200.3 142.94 200.3C142.472 200.3 141.67 200.192 140.857 200.035C140.134 199.895 139.451 200.512 139.573 201.238L139.861 202.949C139.927 203.344 140.222 203.664 140.615 203.737C141.518 203.905 142.6 204.02 143.51 204.02C145.76 204.02 147.41 203.36 148.4 201.29C149.66 198.71 150.08 193.97 150.08 190.46C150.08 186.2 147.86 184.79 144.71 184.79C144.386 184.79 143.975 184.807 143.509 184.833C142.856 184.869 142.344 184.285 142.475 183.644C142.605 183.007 142.729 182.395 142.82 181.85C142.903 181.435 143.004 180.965 143.109 180.495C143.24 179.908 142.831 179.336 142.232 179.275L140.07 179.054ZM151.251 183.167C150.636 183.423 150.434 184.203 150.799 184.762C152.412 187.236 153.929 190.963 154.746 193.798C154.922 194.409 155.601 194.735 156.176 194.463L158.018 193.594C158.471 193.38 158.697 192.864 158.529 192.391C157.559 189.664 155.636 185.344 154.062 182.846C153.813 182.45 153.313 182.308 152.88 182.488L151.251 183.167Z" fill="white"/>
<path d="M179.928 178.939C179.374 178.846 178.845 179.216 178.753 179.77L178.512 181.227C178.423 181.771 178.788 182.285 179.332 182.369C182.486 182.861 186.72 183.351 189.612 183.624C190.143 183.674 190.617 183.295 190.689 182.767L190.894 181.271C190.973 180.693 190.544 180.171 189.963 180.127C187.097 179.911 182.908 179.438 179.928 178.939ZM191.187 188.878C191.659 188.51 191.743 187.816 191.348 187.367L190.351 186.233C190.079 185.923 189.643 185.809 189.242 185.9C188.904 185.976 188.52 186.047 188.22 186.08C185.76 186.41 179.01 186.71 177.6 186.71C177.027 186.71 176.454 186.702 175.939 186.685C175.318 186.664 174.8 187.187 174.854 187.807L175.013 189.628C175.065 190.218 175.615 190.632 176.2 190.544C176.641 190.479 177.135 190.416 177.66 190.37C178.799 190.27 180.748 190.104 182.544 189.977C183.441 189.914 183.924 190.964 183.297 191.607C180.282 194.699 175.95 199.015 174.69 200.3C174.337 200.653 173.99 200.976 173.666 201.262C173.16 201.708 173.183 202.521 173.736 202.906L175.384 204.05C175.819 204.353 176.415 204.263 176.748 203.849C178.613 201.534 180.52 199.48 181.47 198.53C182.16 197.81 182.79 197.33 183.39 197.33C183.99 197.33 184.62 197.72 184.98 198.77C185.19 199.52 185.52 200.9 185.85 201.77C186.57 203.72 188.1 204.32 190.92 204.32C192.192 204.32 194.52 204.196 195.976 204.016C196.428 203.96 196.76 203.583 196.788 203.128L196.9 201.297C196.941 200.642 196.349 200.124 195.699 200.215C194.398 200.395 192.844 200.51 191.16 200.51C189.99 200.51 189.33 200.06 189.06 199.13C188.79 198.38 188.52 197.24 188.25 196.43C187.836 195.336 187.306 194.708 186.458 194.432C186.433 194.424 186.412 194.416 186.388 194.405C186.005 194.228 185.786 193.694 186.09 193.402C187.223 192.316 189.105 190.607 190.14 189.71C190.455 189.465 190.8 189.18 191.187 188.878Z" fill="white"/>
<path d="M217.317 178.864C216.762 178.84 216.296 179.273 216.264 179.827C216.226 180.495 216.167 181.243 216.07 181.94C215.62 185 215.23 188.69 215.23 191.45C215.23 192.956 215.352 194.376 215.476 195.471C215.535 195.995 215.999 196.373 216.524 196.339L218.215 196.229C218.792 196.192 219.213 195.675 219.168 195.099C219.102 194.257 219.108 193.594 219.13 193.01C219.28 189.11 222.34 183.83 225.85 183.83C228.31 183.83 229.84 186.38 229.84 190.97C229.84 197.6 225.922 199.957 220.148 201.085C219.435 201.224 219.07 202.039 219.466 202.648L220.507 204.243C220.727 204.58 221.129 204.754 221.524 204.673C229.015 203.131 233.89 199.105 233.89 190.94C233.89 184.4 230.68 180.35 226.54 180.35C224.861 180.35 223.377 180.979 222.136 181.893C221.279 182.525 219.723 181.84 219.95 180.799C219.993 180.603 220.036 180.411 220.079 180.227C220.225 179.598 219.77 178.973 219.125 178.944L217.317 178.864Z" fill="white"/>
<path d="M108.655 235.735C108.167 236.165 107.532 236.38 106.751 236.38C105.735 236.38 104.979 236.023 104.48 235.311C103.982 234.598 103.733 233.426 103.733 231.795V231.355C103.733 229.744 103.982 228.582 104.48 227.869C104.988 227.146 105.735 226.785 106.722 226.785C107.522 226.785 108.167 227.044 108.655 227.562C109.043 227.965 109.283 228.467 109.375 229.068C109.416 229.336 109.634 229.554 109.905 229.554H112.881C113.16 229.554 113.386 229.326 113.367 229.049C113.251 227.408 112.647 226.077 111.556 225.057C110.364 223.924 108.777 223.357 106.795 223.357C104.529 223.357 102.747 224.085 101.448 225.54C100.149 226.995 99.5 228.943 99.5 231.385V231.663C99.5 234.202 100.154 236.194 101.463 237.64C102.771 239.075 104.559 239.793 106.824 239.793C108.035 239.793 109.139 239.549 110.135 239.061C111.141 238.562 111.932 237.869 112.508 236.98C112.993 236.224 113.277 235.406 113.361 234.525C113.387 234.249 113.16 234.021 112.882 234.021H109.903C109.633 234.021 109.417 234.239 109.364 234.505C109.264 234.997 109.028 235.408 108.655 235.735Z" fill="white"/>
<path d="M92.6738 235.779C92.2246 236.199 92 236.746 92 237.42C92 238.084 92.2246 238.626 92.6738 239.046C93.123 239.456 93.6943 239.661 94.3877 239.661C95.0908 239.661 95.667 239.456 96.1162 239.046C96.5654 238.626 96.79 238.084 96.79 237.42C96.79 236.746 96.5605 236.199 96.1016 235.779C95.6523 235.359 95.0811 235.149 94.3877 235.149C93.7041 235.149 93.1328 235.359 92.6738 235.779Z" fill="white"/>
<path fill-rule="evenodd" clip-rule="evenodd" d="M115.5 231.429C115.5 229.856 115.803 228.455 116.408 227.225C117.014 225.994 117.883 225.042 119.016 224.368C120.158 223.694 121.481 223.357 122.985 223.357C125.124 223.357 126.867 224.012 128.215 225.32C129.572 226.629 130.329 228.406 130.485 230.652L130.515 231.736C130.515 234.168 129.836 236.121 128.479 237.596C127.121 239.061 125.3 239.793 123.015 239.793C120.729 239.793 118.903 239.061 117.536 237.596C116.179 236.131 115.5 234.139 115.5 231.619V231.429ZM119.733 231.736C119.733 233.24 120.017 234.393 120.583 235.193C121.149 235.984 121.96 236.38 123.015 236.38C124.04 236.38 124.841 235.989 125.417 235.208C125.993 234.417 126.281 233.157 126.281 231.429C126.281 229.954 125.993 228.812 125.417 228.001C124.841 227.19 124.03 226.785 122.985 226.785C121.95 226.785 121.149 227.19 120.583 228.001C120.017 228.802 119.733 230.047 119.733 231.736Z" fill="white"/>
<path d="M138.241 224.541C137.886 224.822 137.292 224.622 137.258 224.172L137.254 224.113C137.235 223.852 137.017 223.65 136.756 223.65H133.75C133.474 223.65 133.25 223.874 133.25 224.15V239C133.25 239.276 133.474 239.5 133.75 239.5H136.983C137.26 239.5 137.483 239.276 137.483 239V228.42C137.483 228.337 137.503 228.255 137.545 228.184C138.086 227.261 138.935 226.8 140.091 226.8C140.96 226.8 141.575 227.005 141.937 227.415C142.298 227.825 142.479 228.489 142.479 229.407V239C142.479 239.276 142.702 239.5 142.979 239.5H146.211C146.488 239.5 146.712 239.276 146.711 238.999L146.697 228.714C146.697 228.649 146.709 228.585 146.735 228.526C147.23 227.375 148.096 226.8 149.334 226.8C150.223 226.8 150.843 227.01 151.194 227.43C151.546 227.84 151.722 228.494 151.722 229.393V239C151.722 239.276 151.946 239.5 152.222 239.5H155.47C155.746 239.5 155.97 239.276 155.97 239V229.378C155.97 227.366 155.55 225.862 154.71 224.866C153.87 223.86 152.591 223.357 150.872 223.357C149.124 223.357 147.717 223.937 146.651 225.096C146.39 225.38 145.899 225.339 145.672 225.028C144.859 223.914 143.604 223.357 141.907 223.357C140.458 223.357 139.236 223.752 138.241 224.541Z" fill="white"/>
</svg>
