<svg width="752" height="96" viewBox="0 0 752 96" fill="none" xmlns="http://www.w3.org/2000/svg">
<path d="M48 96C44.7509 96.0008 41.5101 95.6742 38.3265 95.025C35.2383 94.3923 32.2202 93.4554 29.3165 92.228C26.4623 91.0195 23.7319 89.5375 21.1635 87.8025C18.6144 86.0793 16.2356 84.1168 14.0595 81.9415C11.8842 79.7654 9.92163 77.3866 8.19849 74.8375C6.46357 72.2689 4.98145 69.5383 3.77295 66.684C2.54562 63.7803 1.60872 60.7623 0.975954 57.674C0.326412 54.4903 -0.000525797 51.2493 1.57658e-06 48C-0.000828087 44.7509 0.325798 41.5101 0.974977 38.3265C1.60774 35.2382 2.54464 32.2202 3.77197 29.3165C4.98047 26.4622 6.46259 23.7316 8.19751 21.163C9.92065 18.6139 11.8832 16.2351 14.0585 14.059C16.2345 11.8845 18.6132 9.92257 21.162 8.2C23.7304 6.46508 26.4608 4.983 29.3149 3.7745C32.2186 2.54711 35.2367 1.6102 38.325 0.977502C41.5089 0.327383 44.7503 -0.00010615 48 1.57646e-06C51.2491 -0.000828087 54.4899 0.325823 57.6735 0.975002C60.7617 1.6077 63.7798 2.5446 66.6835 3.772C69.5378 4.98049 72.2684 6.46258 74.837 8.1975C77.3862 9.92063 79.765 11.8832 81.941 14.0585C84.1157 16.2347 86.0776 18.6134 87.8 21.1625C89.535 23.7311 91.017 26.4617 92.2255 29.316C93.4529 32.2197 94.3898 35.2377 95.0225 38.326C95.6725 41.5096 96 44.7507 96 48C96.0008 51.2491 95.6742 54.4899 95.025 57.6735C94.3924 60.7618 93.4555 63.7798 92.228 66.6835C91.0196 69.5378 89.5374 72.2684 87.8025 74.837C86.0794 77.3861 84.1168 79.7649 81.9415 81.941C79.7654 84.1163 77.3867 86.0789 74.8375 87.802C72.2689 89.5369 69.5383 91.019 66.684 92.2275C63.7803 93.4549 60.7622 94.3918 57.674 95.0245C54.4903 95.6739 51.2493 96.0007 48 96ZM52 63.918V68C51.997 69.6046 52.3177 71.1933 52.943 72.671C53.5451 74.097 54.4183 75.3927 55.514 76.486C56.6067 77.5822 57.9018 78.4559 59.3275 79.0585C60.8057 79.6838 62.395 80.004 64 80C65.6046 80.0031 67.1934 79.6822 68.671 79.0565C70.0969 78.454 71.3922 77.5803 72.485 76.484C73.5809 75.3907 74.4543 74.0951 75.0565 72.669C75.6817 71.1919 76.0026 69.6039 76 68C76.0017 66.6431 75.7728 65.2957 75.323 64.0155C74.8887 62.7808 74.2544 61.6259 73.4456 60.597C74.9521 60.1835 76.4764 59.724 77.9764 59.231C79.0822 56.2766 79.7434 53.1745 79.9385 50.026C69.7578 53.9944 58.9237 56.0207 47.9969 56C37.0724 56.019 26.2409 53.9921 16.0625 50.024C16.2578 53.1725 16.9191 56.2745 18.0245 59.229C27.6984 62.4026 37.8165 64.0128 47.9976 63.999C49.3226 63.999 50.6695 63.9715 52.0005 63.9175L52 63.918Z" fill="#FBC02D"/>
<path d="M219.635 79.3315C217.768 77.1667 214.232 77.1667 212.365 79.3315C203.563 89.5387 190.536 96 176 96C149.49 96 128 74.5097 128 48C128 21.4903 149.49 0 176 0C190.536 0 203.563 6.4613 212.365 16.6685C214.232 18.8333 217.768 18.8333 219.635 16.6685C228.437 6.4613 241.464 0 256 0C270.536 0 283.563 6.4613 292.365 16.6685C294.232 18.8333 297.768 18.8333 299.635 16.6685C308.437 6.4613 321.464 0 336 0C350.536 0 363.563 6.4613 372.365 16.6685C374.232 18.8333 377.768 18.8333 379.635 16.6685C388.437 6.4613 401.464 0 416 0C430.536 0 443.563 6.4613 452.365 16.6685C454.232 18.8333 457.768 18.8333 459.635 16.6685C468.437 6.4613 481.464 0 496 0C510.536 0 523.563 6.4613 532.365 16.6685C534.232 18.8333 537.768 18.8333 539.635 16.6685C548.437 6.4613 561.464 0 576 0C602.51 0 624 21.4903 624 48C624 74.5097 602.51 96 576 96C561.464 96 548.437 89.5387 539.635 79.3315C537.768 77.1667 534.232 77.1667 532.365 79.3315C523.563 89.5387 510.536 96 496 96C481.464 96 468.437 89.5387 459.635 79.3315C457.768 77.1667 454.232 77.1667 452.365 79.3315C443.563 89.5387 430.536 96 416 96C401.464 96 388.437 89.5387 379.635 79.3315C377.768 77.1667 374.232 77.1667 372.365 79.3315C363.563 89.5387 350.536 96 336 96C321.464 96 308.437 89.5387 299.635 79.3315C297.768 77.1667 294.232 77.1667 292.365 79.3315C283.563 89.5387 270.536 96 256 96C241.464 96 228.437 89.5387 219.635 79.3315Z" fill="#FBC02D"/>
<path d="M163.74 64.66C162.18 64.66 159.42 62.98 159.42 61.18C159.42 59.6472 160.699 57.9227 162.812 56.3797C163.991 55.5195 165.543 56.4237 165.585 57.8822C165.635 59.6419 165.66 61.1112 165.66 62.08C165.66 64.12 164.82 64.66 163.74 64.66ZM172.2 43.3C172.2 42.1115 172.2 40.8951 172.219 39.6699C172.235 38.6852 172.98 37.8726 173.957 37.7445C176.72 37.3821 179.508 36.9562 182.009 36.4459C182.938 36.2563 183.584 35.4199 183.561 34.4717L183.483 31.2518C183.451 29.9414 182.187 29.0127 180.913 29.3185C179.027 29.7711 176.969 30.1791 174.864 30.5232C173.635 30.7242 172.545 29.7359 172.598 28.491C172.625 27.8463 172.653 27.2207 172.68 26.62C172.744 25.8183 172.843 24.7082 172.939 23.6834C173.05 22.4966 172.118 21.46 170.926 21.46H167.361C166.125 21.46 165.157 22.5744 165.261 23.8059C165.352 24.879 165.42 26.0091 165.42 26.68C165.42 27.3819 165.42 28.4249 165.4 29.6916C165.384 30.7352 164.556 31.5863 163.513 31.626C162.975 31.6465 162.451 31.66 161.94 31.66C160.281 31.66 158.374 31.6246 156.002 31.4179C154.794 31.3125 153.738 32.261 153.758 33.4738L153.81 36.5879C153.827 37.6078 154.609 38.4537 155.627 38.5154C157.748 38.6438 160.024 38.68 162.12 38.68C162.464 38.68 162.823 38.6723 163.194 38.6597C164.34 38.6208 165.3 39.5221 165.3 40.668V43.54C165.3 44.4634 165.3 45.3869 165.318 46.3103C165.334 47.1361 164.859 47.8939 164.115 48.2523C157.42 51.4765 152.04 56.5015 152.04 61.42C152.04 67.72 160.26 72.7 166.08 72.7C169.92 72.7 172.62 70.78 172.62 63.4C172.62 61.585 172.478 57.7753 172.362 53.6189C172.336 52.7026 172.938 51.883 173.829 51.6661C177.025 50.8873 180.32 50.44 183.48 50.44C188.64 50.44 192.24 52.78 192.24 56.8C192.24 61.12 188.4 63.58 183.6 64.42C182.261 64.6496 180.75 64.7571 179.131 64.8049C177.745 64.8459 176.779 66.2171 177.251 67.5211L178.536 71.0679C178.835 71.8949 179.64 72.4328 180.518 72.3693C182.486 72.2268 184.644 71.9773 186.84 71.5C196.26 69.16 199.92 63.88 199.92 56.86C199.92 48.7 192.72 43.84 183.6 43.84C180.859 43.84 177.581 44.2124 174.245 44.923C173.203 45.1449 172.2 44.3652 172.2 43.3ZM187.893 31.843C187.323 32.8484 187.719 34.1269 188.743 34.6627C191.924 36.3265 196.323 38.8567 199.208 40.8771C200.234 41.5956 201.707 41.3419 202.342 40.2623L203.79 37.8005C204.316 36.9063 204.073 35.7596 203.202 35.1963C200.184 33.2451 195.552 30.626 191.819 28.7189C190.879 28.2385 189.734 28.5954 189.214 29.5139L187.893 31.843Z" fill="white"/>
<path d="M269.872 44.6631C268.303 45.0018 267.74 46.9766 268.747 48.2271C271.014 51.0432 272.3 53.9608 272.3 56.98C272.3 61.9 267.74 65.68 259.46 65.68C253.58 65.68 250.58 62.98 250.58 58.12C250.58 57.4486 250.626 56.615 250.69 55.6624C250.761 54.6135 251.636 53.8 252.687 53.8C252.867 53.8 253.045 53.8 253.22 53.8C256.239 53.8 259.136 53.6367 261.943 53.4111C262.956 53.3297 263.74 52.4932 263.765 51.4773L263.842 48.4639C263.873 47.2546 262.831 46.2961 261.627 46.4057C258.357 46.7034 254.923 46.9 251.96 46.9C251.736 46.9 251.562 46.7052 251.588 46.4828C251.812 44.5378 252.066 42.5066 252.328 40.5302C252.459 39.5387 253.306 38.8016 254.306 38.7914C257.449 38.7592 259.927 38.6366 262.401 38.4237C263.398 38.3379 264.165 37.5145 264.199 36.5147L264.299 33.5796C264.341 32.331 263.241 31.3469 261.997 31.4698C260.171 31.6502 258.082 31.7758 255.83 31.8465C254.591 31.8854 253.631 30.7814 253.802 29.5541C253.921 28.6915 254.021 27.9634 254.12 27.4C254.266 26.4517 254.434 25.5033 254.651 24.4203C254.894 23.2117 254.023 22.0557 252.792 21.9848L249.047 21.7693C247.852 21.7005 246.867 22.6925 246.844 23.8902C246.824 24.9561 246.752 25.9488 246.68 26.92C246.604 27.7588 246.528 28.7188 246.42 29.7691C246.312 30.8298 245.365 31.5934 244.305 31.4792C241.6 31.1879 238.913 30.7528 236.522 30.1591C235.246 29.8424 233.942 30.7274 233.862 32.0393L233.699 34.7216C233.641 35.665 234.251 36.5231 235.169 36.7453C237.7 37.3574 240.518 37.8514 243.369 38.2078C244.49 38.3479 245.297 39.3665 245.158 40.4871C244.985 41.8751 244.821 43.2669 244.648 44.6385C244.514 45.702 243.558 46.4647 242.493 46.3365C240.087 46.0468 237.635 45.6195 235.221 44.9696C233.942 44.6253 232.624 45.51 232.547 46.8319L232.374 49.7965C232.319 50.7331 232.922 51.5859 233.834 51.807C236.168 52.3732 238.819 52.8262 241.691 53.166C242.788 53.2958 243.591 54.2714 243.494 55.372C243.353 56.9739 243.26 58.3468 243.26 59.38C243.26 69.28 249.86 73.36 259.22 73.36C272.24 73.36 280.28 66.88 280.28 57.94C280.28 53.2346 278.711 49.2614 275.28 44.6532C274.824 44.0396 274.046 43.7624 273.298 43.9237L269.872 44.6631Z" fill="white"/>
<path d="M354.441 29.8418C354.42 28.5791 353.248 27.652 352.008 27.8921C346.151 29.0263 339.869 29.7455 334.272 30.1114C333.344 30.1721 332.618 29.3323 332.8 28.42C333.049 27.2483 333.255 26.0766 333.519 24.88C333.802 23.5959 332.89 22.3047 331.576 22.2484L327.93 22.0921C326.769 22.0423 325.821 22.9897 325.789 24.1514C325.758 25.2638 325.664 26.4174 325.48 28C325.463 28.2084 325.435 28.4219 325.402 28.6418C325.251 29.6456 324.354 30.3898 323.341 30.3406C320.918 30.2232 318.256 29.9577 315.82 29.6193C314.593 29.4489 313.48 30.3894 313.48 31.6275V34.83C313.48 35.8575 314.258 36.7196 315.282 36.8072C317.132 36.9655 319.133 37.0956 321.249 37.1739C322.527 37.2213 323.459 38.4197 323.14 39.6585C321.805 44.8393 320.014 50.5498 317.952 55.1044C317.453 56.206 317.971 57.5229 319.109 57.9314L322.421 59.1201C323.325 59.4449 324.314 59.0684 324.826 58.2551C325.079 57.8521 325.342 57.476 325.66 57.1C329.2 52.54 335.26 50.08 342.1 50.08C347.86 50.08 350.98 53.08 350.98 56.62C350.98 64.6887 339.832 66.6489 327.898 65.267C326.453 65.0996 325.256 66.4334 325.639 67.8366L326.56 71.2029C326.777 71.9972 327.463 72.5799 328.283 72.6542C346.725 74.3262 358.96 69.4409 358.96 56.38C358.96 48.82 352.6 43.66 343 43.66C339.323 43.66 336.081 44.1498 332.89 45.276C331.174 45.8817 329.211 44.2367 329.669 42.4756C329.997 41.2167 330.313 39.9121 330.609 38.6116C330.809 37.732 331.565 37.0882 332.466 37.0322C339.371 36.602 347.1 35.6949 352.798 34.8596C353.786 34.7148 354.508 33.8563 354.491 32.8578L354.441 29.8418Z" fill="white"/>
<path d="M408.139 22.1084C406.948 21.9868 405.918 22.933 405.875 24.1299C405.774 26.8617 405.432 29.8479 404.907 32.9687C404.756 33.8612 404.013 34.531 403.11 34.5983C400.697 34.7784 398.5 34.9103 396.96 34.96C395.605 34.9976 394.321 35.0589 393.018 35.0548C391.782 35.051 390.752 36.0811 390.853 37.3127L391.143 40.8448C391.239 42.0069 392.304 42.8426 393.458 42.6771C395.047 42.4492 396.794 42.2206 397.92 42.1C398.489 42.0101 399.238 41.9052 400.107 41.7929C401.505 41.6121 402.626 42.9109 402.233 44.2645C400.171 51.352 396.919 60.3081 392.506 67.0844C391.789 68.1855 392.217 69.6987 393.437 70.1867L397.266 71.7182C398.165 72.078 399.195 71.745 399.678 70.905C404.463 62.5799 408.294 50.4925 410.52 41.996C410.739 41.1616 411.461 40.5572 412.322 40.4951C413.381 40.4187 414.288 40.36 414.96 40.36C418.74 40.36 420.78 41.02 420.78 45.76C420.78 51.64 420 58.72 418.32 62.02C417.42 64 415.86 64.6 413.88 64.6C412.945 64.6 411.341 64.3843 409.715 64.0693C408.269 63.7892 406.903 65.0238 407.147 66.4768L407.721 69.8984C407.854 70.6879 408.444 71.3273 409.23 71.474C411.037 71.8106 413.2 72.04 415.02 72.04C419.52 72.04 422.82 70.72 424.8 66.58C427.32 61.42 428.16 51.94 428.16 44.92C428.16 36.4 423.72 33.58 417.42 33.58C416.772 33.58 415.949 33.6149 415.017 33.666C413.712 33.7376 412.688 32.5699 412.95 31.289C413.21 30.0138 413.458 28.7908 413.64 27.7C413.806 26.8699 414.009 25.9296 414.218 24.9909C414.479 23.8161 413.662 22.672 412.464 22.5498L408.139 22.1084ZM430.502 30.334C429.271 30.8469 428.869 32.4063 429.597 33.5234C432.824 38.4719 435.858 45.9268 437.491 51.5958C437.843 52.8176 439.202 53.4691 440.352 52.9263L444.036 51.1877C444.943 50.7597 445.394 49.7271 445.058 48.7823C443.118 43.3273 439.271 34.6874 436.124 29.6916C435.625 28.8992 434.625 28.6161 433.761 28.9763L430.502 30.334Z" fill="white"/>
<path d="M487.855 21.8778C486.748 21.6922 485.689 22.4319 485.506 23.5396L485.025 26.4549C484.845 27.5415 485.576 28.5691 486.665 28.7389C492.973 29.723 501.44 30.7011 507.225 31.2479C508.286 31.3483 509.233 30.5905 509.378 29.5343L509.787 26.5418C509.945 25.3868 509.089 24.3421 507.926 24.2544C502.193 23.8214 493.816 22.8768 487.855 21.8778ZM510.374 41.7554C511.317 41.0195 511.487 39.6315 510.697 38.7333L508.702 36.4654C508.158 35.847 507.287 35.6174 506.483 35.7993C505.807 35.9525 505.04 36.0933 504.44 36.16C499.52 36.82 486.02 37.42 483.2 37.42C482.054 37.42 480.908 37.4031 479.879 37.3693C478.636 37.3285 477.599 38.3749 477.708 39.6133L478.027 43.2558C478.13 44.4355 479.23 45.2637 480.401 45.0889C481.283 44.9571 482.27 44.8326 483.32 44.74C485.597 44.5402 489.497 44.2075 493.089 43.9542C494.882 43.8278 495.848 45.9273 494.594 47.2142C488.565 53.398 479.9 62.0306 477.38 64.6C476.674 65.3063 475.98 65.9511 475.331 66.5233C474.32 67.4159 474.365 69.0419 475.473 69.8117L478.767 72.101C479.639 72.7064 480.83 72.5252 481.496 71.699C485.226 67.0684 489.04 62.9596 490.94 61.06C492.32 59.62 493.58 58.66 494.78 58.66C495.98 58.66 497.24 59.44 497.96 61.54C498.38 63.04 499.04 65.8 499.7 67.54C501.14 71.44 504.2 72.64 509.84 72.64C512.383 72.64 517.04 72.3913 519.953 72.0318C520.857 71.9202 521.519 71.1652 521.575 70.2561L521.8 66.5936C521.881 65.2834 520.698 64.2485 519.398 64.4291C516.795 64.7908 513.689 65.02 510.32 65.02C507.98 65.02 506.66 64.12 506.12 62.26C505.58 60.76 505.04 58.48 504.5 56.86C503.672 54.6723 502.611 53.4168 500.916 52.864C500.866 52.8477 500.824 52.8313 500.776 52.8093C500.01 52.4559 499.572 51.3877 500.181 50.8039C502.446 48.6314 506.21 45.2143 508.28 43.42C508.909 42.9307 509.599 42.36 510.374 41.7554Z" fill="white"/>
<path d="M562.635 21.7289C561.525 21.6799 560.591 22.5451 560.528 23.6544C560.452 24.9907 560.334 26.4854 560.14 27.88C559.24 34 558.46 41.38 558.46 46.9C558.46 49.913 558.703 52.7524 558.952 54.9423C559.07 55.9891 559.997 56.7468 561.048 56.6784L564.431 56.4585C565.584 56.3835 566.427 55.3498 566.337 54.1979C566.205 52.5138 566.217 51.1888 566.26 50.02C566.56 42.22 572.68 31.66 579.7 31.66C584.62 31.66 587.68 36.76 587.68 45.94C587.68 59.2008 579.844 63.9134 568.296 66.1691C566.87 66.4477 566.139 68.0788 566.933 69.2957L569.013 72.4855C569.453 73.1606 570.258 73.5083 571.047 73.3459C586.03 70.263 595.78 62.2097 595.78 45.88C595.78 32.8 589.36 24.7 581.08 24.7C577.722 24.7 574.754 25.9581 572.273 27.786C570.558 29.0496 567.445 27.6799 567.9 25.5984C567.986 25.2054 568.072 24.8225 568.157 24.4541C568.449 23.1952 567.54 21.9453 566.249 21.8883L562.635 21.7289Z" fill="white"/>
<path d="M657.311 87.4707C656.334 88.3301 655.064 88.7598 653.502 88.7598C651.471 88.7598 649.957 88.0469 648.961 86.6211C647.965 85.1953 647.467 82.8516 647.467 79.5898V78.7109C647.467 75.4883 647.965 73.1641 648.961 71.7383C649.977 70.293 651.471 69.5703 653.443 69.5703C655.045 69.5703 656.334 70.0879 657.311 71.123C658.086 71.9298 658.566 72.9338 658.75 74.135C658.833 74.6718 659.267 75.1074 659.81 75.1074H665.763C666.319 75.1074 666.772 74.6527 666.733 74.0978C666.501 70.8155 665.294 68.154 663.111 66.1133C660.729 63.8477 657.555 62.7148 653.59 62.7148C649.059 62.7148 645.494 64.1699 642.896 67.0801C640.299 69.9902 639 73.8867 639 78.7695V79.3262C639 84.4043 640.309 88.3887 642.926 91.2793C645.543 94.1504 649.117 95.5859 653.648 95.5859C656.07 95.5859 658.277 95.0977 660.27 94.1211C662.281 93.125 663.863 91.7383 665.016 89.9609C665.985 88.4486 666.554 86.8118 666.722 85.0505C666.774 84.4971 666.32 84.043 665.764 84.043H659.807C659.265 84.043 658.835 84.4781 658.727 85.009C658.528 85.9944 658.056 86.815 657.311 87.4707Z" fill="white"/>
<path d="M625.348 87.5586C624.449 88.3984 624 89.4922 624 90.8398C624 92.168 624.449 93.252 625.348 94.0918C626.246 94.9121 627.389 95.3223 628.775 95.3223C630.182 95.3223 631.334 94.9121 632.232 94.0918C633.131 93.252 633.58 92.168 633.58 90.8398C633.58 89.4922 633.121 88.3984 632.203 87.5586C631.305 86.7188 630.162 86.2988 628.775 86.2988C627.408 86.2988 626.266 86.7188 625.348 87.5586Z" fill="white"/>
<path fill-rule="evenodd" clip-rule="evenodd" d="M671 78.8574C671 75.7129 671.605 72.9102 672.816 70.4492C674.027 67.9883 675.766 66.084 678.031 64.7363C680.316 63.3887 682.963 62.7148 685.971 62.7148C690.248 62.7148 693.734 64.0234 696.43 66.6406C699.145 69.2578 700.658 72.8125 700.971 77.3047L701.029 79.4727C701.029 84.3359 699.672 88.2422 696.957 91.1914C694.242 94.1211 690.6 95.5859 686.029 95.5859C681.459 95.5859 677.807 94.1211 675.072 91.1914C672.357 88.2617 671 84.2773 671 79.2383V78.8574ZM679.467 79.4727C679.467 82.4805 680.033 84.7852 681.166 86.3867C682.299 87.9688 683.92 88.7598 686.029 88.7598C688.08 88.7598 689.682 87.9785 690.834 86.416C691.986 84.834 692.562 82.3145 692.562 78.8574C692.562 75.9082 691.986 73.623 690.834 72.002C689.682 70.3809 688.061 69.5703 685.971 69.5703C683.9 69.5703 682.299 70.3809 681.166 72.002C680.033 73.6035 679.467 76.0938 679.467 79.4727Z" fill="white"/>
<path d="M716.481 65.0816C715.773 65.643 714.584 65.2447 714.517 64.3432L714.508 64.2266C714.469 63.7045 714.035 63.3008 713.511 63.3008H707.5C706.948 63.3008 706.5 63.7485 706.5 64.3008V94C706.5 94.5523 706.948 95 707.5 95H713.967C714.519 95 714.967 94.5523 714.967 94V72.8403C714.967 72.6746 715.007 72.5106 715.091 72.3677C716.173 70.5223 717.87 69.5996 720.182 69.5996C721.92 69.5996 723.15 70.0098 723.873 70.8301C724.596 71.6504 724.957 72.9785 724.957 74.8145V94C724.957 94.5523 725.405 95 725.957 95H732.422C732.975 95 733.423 94.5515 733.422 93.9987L733.395 73.4271C733.395 73.2985 733.419 73.1705 733.47 73.0523C734.46 70.7505 736.193 69.5996 738.668 69.5996C740.445 69.5996 741.686 70.0195 742.389 70.8594C743.092 71.6797 743.443 72.9883 743.443 74.7852V94C743.443 94.5523 743.891 95 744.443 95H750.939C751.492 95 751.939 94.5523 751.939 94V74.7559C751.939 70.7324 751.1 67.7246 749.42 65.7324C747.74 63.7207 745.182 62.7148 741.744 62.7148C738.248 62.7148 735.434 63.8742 733.302 66.1929C732.78 66.7599 731.797 66.679 731.343 66.0567C729.718 63.8288 727.208 62.7148 723.814 62.7148C720.917 62.7148 718.472 63.5038 716.481 65.0816Z" fill="white"/>
</svg>
