<svg width="184" height="208" viewBox="0 0 184 208" fill="none" xmlns="http://www.w3.org/2000/svg">
<path d="M92 144C87.1264 144.001 82.2651 143.511 77.4898 142.538C72.8574 141.588 68.3303 140.183 63.9748 138.342C59.6935 136.529 55.5978 134.306 51.7452 131.704C47.9215 129.119 44.3533 126.175 41.0892 122.912C37.8262 119.648 34.8824 116.08 32.2977 112.256C29.6954 108.403 27.4722 104.307 25.6594 100.026C23.8184 95.6705 22.4131 91.1434 21.4639 86.511C20.4896 81.7355 19.9992 76.8739 20 72C19.9988 67.1264 20.4887 62.2651 21.4625 57.4897C22.4116 52.8574 23.817 48.3303 25.658 43.9748C27.4707 39.6933 29.6939 35.5974 32.2963 31.7445C34.881 27.9208 37.8248 24.3526 41.0877 21.0885C44.3518 17.8267 47.9197 14.8839 51.743 12.3C55.5956 9.69762 59.6912 7.47449 63.9724 5.66175C68.3279 3.82066 72.855 2.41531 77.4874 1.46625C82.2634 0.491074 87.1255 -0.000159225 92 2.36469e-06C96.8736 -0.00124213 101.735 0.488734 106.51 1.4625C111.143 2.41155 115.67 3.81691 120.025 5.658C124.307 7.47074 128.403 9.69386 132.256 12.2963C136.079 14.8809 139.647 17.8248 142.912 21.0878C146.174 24.352 149.116 27.9202 151.7 31.7438C154.303 35.5966 156.526 39.6925 158.338 43.974C160.179 48.3295 161.585 52.8566 162.534 57.489C163.509 62.2645 164 67.126 164 72C164.001 76.8736 163.511 81.7349 162.538 86.5103C161.589 91.1427 160.183 95.6698 158.342 100.025C156.529 104.307 154.306 108.403 151.704 112.255C149.119 116.079 146.175 119.647 142.912 122.911C139.648 126.174 136.08 129.118 132.256 131.703C128.403 134.305 124.307 136.529 120.026 138.341C115.67 140.182 111.143 141.588 106.511 142.537C101.735 143.511 96.8739 144.001 92 144ZM98 95.877V102C97.9955 104.407 98.4766 106.79 99.4145 109.007C100.318 111.146 101.627 113.089 103.271 114.729C104.91 116.373 106.853 117.684 108.991 118.588C111.209 119.526 113.592 120.006 116 120C118.407 120.005 120.79 119.523 123.007 118.585C125.145 117.681 127.088 116.37 128.727 114.726C130.371 113.086 131.681 111.143 132.585 109.003C133.523 106.788 134.004 104.406 134 102C134.003 99.9646 133.659 97.9436 132.984 96.0233C132.333 94.1713 131.382 92.4389 130.168 90.8955C132.428 90.2753 134.715 89.586 136.965 88.8465C138.623 84.4149 139.615 79.7617 139.908 75.039C124.637 80.9916 108.386 84.0311 91.9954 84C75.6086 84.0285 59.3614 80.9881 44.0938 75.036C44.3867 79.7587 45.3786 84.4118 47.0368 88.8435C61.5475 93.6039 76.7247 96.0192 91.9963 95.9985C93.9838 95.9985 96.0042 95.9573 98.0007 95.8763L98 95.877Z" fill="#FBC02D"/>
<path d="M27.3857 184.729C27.3857 187.878 26.8291 190.64 25.7158 193.013C24.6025 195.386 23.0059 197.217 20.9258 198.506C18.8604 199.795 16.4873 200.439 13.8066 200.439C11.1553 200.439 8.78955 199.802 6.70947 198.528C4.62939 197.253 3.01807 195.437 1.87549 193.079C0.73291 190.706 0.154297 187.981 0.139648 184.905V183.323C0.139648 180.173 0.703613 177.405 1.83154 175.017C2.97412 172.615 4.57812 170.776 6.64355 169.502C8.72363 168.213 11.0967 167.568 13.7627 167.568C16.4287 167.568 18.7944 168.213 20.8599 169.502C22.9399 170.776 24.5439 172.615 25.6719 175.017C26.8145 177.405 27.3857 180.166 27.3857 183.301V184.729ZM20.7061 183.279C20.7061 179.924 20.1055 177.375 18.9043 175.632C17.7031 173.889 15.9893 173.018 13.7627 173.018C11.5508 173.018 9.84424 173.882 8.64307 175.61C7.44189 177.324 6.83398 179.844 6.81934 183.169V184.729C6.81934 187.996 7.41992 190.53 8.62109 192.332C9.82227 194.133 11.5508 195.034 13.8066 195.034C16.0186 195.034 17.7178 194.17 18.9043 192.441C20.0908 190.698 20.6914 188.164 20.7061 184.839V183.279Z" fill="#616161"/>
<path d="M51.5346 191.365L54.6547 176.226H60.7851L54.7206 200H49.4032L44.8988 185.037L40.3944 200H35.099L29.0346 176.226H35.1649L38.2631 191.343L42.6137 176.226H47.206L51.5346 191.365Z" fill="#616161"/>
<path d="M68.8938 176.226L69.0916 178.972C70.7908 176.848 73.0686 175.786 75.9251 175.786C78.4446 175.786 80.3196 176.526 81.5501 178.005C82.7806 179.485 83.4104 181.697 83.4397 184.641V200H77.0896V184.795C77.0896 183.447 76.7967 182.473 76.2107 181.873C75.6248 181.257 74.6507 180.95 73.2884 180.95C71.5013 180.95 70.1609 181.711 69.2674 183.235V200H62.9173V176.226H68.8938Z" fill="#616161"/>
<path d="M93.933 188.728V200H87.3412V168.008H99.8217C102.224 168.008 104.333 168.447 106.15 169.326C107.981 170.205 109.387 171.458 110.369 173.083C111.35 174.695 111.841 176.533 111.841 178.599C111.841 181.733 110.764 184.209 108.611 186.025C106.472 187.827 103.506 188.728 99.7118 188.728H93.933ZM93.933 183.389H99.8217C101.565 183.389 102.891 182.979 103.799 182.158C104.722 181.338 105.183 180.166 105.183 178.643C105.183 177.075 104.722 175.808 103.799 174.841C102.876 173.875 101.601 173.376 99.9755 173.347H93.933V183.389Z" fill="#616161"/>
<path d="M120.873 200H114.501V166.25H120.873V200Z" fill="#616161"/>
<path d="M139.002 200C138.709 199.429 138.496 198.718 138.364 197.869C136.826 199.583 134.827 200.439 132.366 200.439C130.037 200.439 128.103 199.766 126.565 198.418C125.042 197.07 124.28 195.371 124.28 193.32C124.28 190.801 125.21 188.867 127.07 187.52C128.945 186.172 131.648 185.491 135.178 185.476H138.101V184.114C138.101 183.015 137.815 182.136 137.244 181.477C136.687 180.818 135.801 180.488 134.585 180.488C133.516 180.488 132.673 180.745 132.058 181.257C131.458 181.77 131.157 182.473 131.157 183.367H124.807C124.807 181.99 125.232 180.715 126.082 179.543C126.931 178.372 128.132 177.456 129.685 176.797C131.238 176.123 132.981 175.786 134.915 175.786C137.844 175.786 140.166 176.526 141.88 178.005C143.608 179.47 144.473 181.536 144.473 184.202V194.507C144.487 196.763 144.802 198.469 145.418 199.626V200H139.002ZM133.75 195.583C134.688 195.583 135.552 195.378 136.343 194.968C137.134 194.543 137.72 193.979 138.101 193.276V189.189H135.728C132.549 189.189 130.857 190.288 130.652 192.485L130.63 192.859C130.63 193.65 130.908 194.302 131.465 194.814C132.022 195.327 132.783 195.583 133.75 195.583Z" fill="#616161"/>
<path d="M156.503 170.381V176.226H160.568V180.884H156.503V192.749C156.503 193.628 156.672 194.258 157.009 194.639C157.346 195.02 157.99 195.21 158.942 195.21C159.645 195.21 160.268 195.159 160.81 195.056V199.868C159.565 200.249 158.283 200.439 156.965 200.439C152.512 200.439 150.241 198.191 150.153 193.694V180.884H146.681V176.226H150.153V170.381H156.503Z" fill="#616161"/>
<path d="M174.148 200.439C170.662 200.439 167.82 199.37 165.623 197.231C163.44 195.093 162.349 192.244 162.349 188.684V188.069C162.349 185.681 162.81 183.55 163.733 181.675C164.656 179.785 165.96 178.335 167.644 177.324C169.343 176.299 171.277 175.786 173.445 175.786C176.697 175.786 179.253 176.812 181.113 178.862C182.988 180.913 183.926 183.821 183.926 187.585V190.178H168.787C168.992 191.731 169.607 192.976 170.633 193.914C171.673 194.851 172.984 195.32 174.566 195.32C177.012 195.32 178.924 194.434 180.3 192.661L183.421 196.155C182.468 197.502 181.179 198.557 179.553 199.319C177.927 200.066 176.126 200.439 174.148 200.439ZM173.423 180.928C172.163 180.928 171.138 181.353 170.347 182.202C169.571 183.052 169.072 184.268 168.853 185.85H177.686V185.344C177.656 183.938 177.276 182.854 176.543 182.092C175.811 181.316 174.771 180.928 173.423 180.928Z" fill="#616161"/>
</svg>
