<svg width="192" height="192" viewBox="0 0 192 192" fill="none" xmlns="http://www.w3.org/2000/svg">
<path fill-rule="evenodd" clip-rule="evenodd" d="M96 192C149.019 192 192 149.019 192 96C192 42.9807 149.019 0 96 0C42.9807 0 0 42.9807 0 96C0 149.019 42.9807 192 96 192ZM96 96C73.8866 96 52.6463 99.7384 32.8767 106.618C33.7734 111.988 35.3389 117.132 37.4846 121.961C55.7915 115.51 75.4859 112 96 112C98.6811 112 101.348 112.06 104 112.179V136C104 149.255 114.745 160 128 160C141.255 160 152 149.255 152 136C152 129.281 149.239 123.207 144.79 118.85C148.072 119.795 151.315 120.833 154.515 121.961C156.661 117.132 158.227 111.988 159.123 106.618C139.354 99.7384 118.113 96 96 96Z" fill="black" fill-opacity="0.1"/>
</svg>
