<svg width="496" height="96" viewBox="0 0 496 96" fill="none" xmlns="http://www.w3.org/2000/svg">
<path d="M48 96C44.7509 96.0008 41.5101 95.6742 38.3265 95.025C35.2383 94.3923 32.2202 93.4554 29.3165 92.228C26.4623 91.0195 23.7319 89.5375 21.1635 87.8025C18.6144 86.0793 16.2356 84.1168 14.0595 81.9415C11.8842 79.7654 9.92163 77.3866 8.19849 74.8375C6.46357 72.2689 4.98145 69.5383 3.77295 66.684C2.54562 63.7803 1.60872 60.7623 0.975954 57.674C0.326412 54.4903 -0.000525797 51.2493 1.57658e-06 48C-0.000828087 44.7509 0.325798 41.5101 0.974977 38.3265C1.60774 35.2382 2.54464 32.2202 3.77197 29.3165C4.98047 26.4622 6.46259 23.7316 8.19751 21.163C9.92065 18.6139 11.8832 16.2351 14.0585 14.059C16.2345 11.8845 18.6132 9.92257 21.162 8.2C23.7304 6.46508 26.4608 4.983 29.3149 3.7745C32.2186 2.54711 35.2367 1.6102 38.325 0.977502C41.5089 0.327383 44.7503 -0.00010615 48 1.57646e-06C51.2491 -0.000828087 54.4899 0.325823 57.6735 0.975002C60.7617 1.6077 63.7798 2.5446 66.6835 3.772C69.5378 4.98049 72.2684 6.46258 74.837 8.1975C77.3862 9.92063 79.765 11.8832 81.941 14.0585C84.1157 16.2347 86.0776 18.6134 87.8 21.1625C89.535 23.7311 91.017 26.4617 92.2255 29.316C93.4529 32.2197 94.3898 35.2377 95.0225 38.326C95.6725 41.5096 96 44.7507 96 48C96.0008 51.2491 95.6742 54.4899 95.025 57.6735C94.3924 60.7618 93.4555 63.7798 92.228 66.6835C91.0196 69.5378 89.5374 72.2684 87.8025 74.837C86.0794 77.3861 84.1168 79.7649 81.9415 81.941C79.7654 84.1163 77.3867 86.0789 74.8375 87.802C72.2689 89.5369 69.5383 91.019 66.684 92.2275C63.7803 93.4549 60.7622 94.3918 57.674 95.0245C54.4903 95.6739 51.2493 96.0007 48 96ZM52 63.918V68C51.997 69.6046 52.3177 71.1933 52.943 72.671C53.5451 74.097 54.4183 75.3927 55.514 76.486C56.6067 77.5822 57.9018 78.4559 59.3275 79.0585C60.8057 79.6838 62.395 80.004 64 80C65.6046 80.0031 67.1934 79.6822 68.671 79.0565C70.0969 78.454 71.3922 77.5803 72.485 76.484C73.5809 75.3907 74.4543 74.0951 75.0565 72.669C75.6817 71.1919 76.0026 69.6039 76 68C76.0017 66.6431 75.7728 65.2957 75.323 64.0155C74.8887 62.7808 74.2544 61.6259 73.4456 60.597C74.9521 60.1835 76.4764 59.724 77.9764 59.231C79.0822 56.2766 79.7434 53.1745 79.9385 50.026C69.7578 53.9944 58.9237 56.0207 47.9969 56C37.0724 56.019 26.2409 53.9921 16.0625 50.024C16.2578 53.1725 16.9191 56.2745 18.0245 59.229C27.6984 62.4026 37.8165 64.0128 47.9976 63.999C49.3226 63.999 50.6695 63.9715 52.0005 63.9175L52 63.918Z" fill="white"/>
<path d="M182.771 49.458C182.771 55.7568 181.658 61.2793 179.432 66.0254C177.205 70.7715 174.012 74.4336 169.852 77.0117C165.721 79.5898 160.975 80.8789 155.613 80.8789C150.311 80.8789 145.579 79.6045 141.419 77.0557C137.259 74.5068 134.036 70.874 131.751 66.1572C129.466 61.4111 128.309 55.9619 128.279 49.8096V46.6455C128.279 40.3467 129.407 34.8096 131.663 30.0342C133.948 25.2295 137.156 21.5527 141.287 19.0039C145.447 16.4258 150.193 15.1367 155.525 15.1367C160.857 15.1367 165.589 16.4258 169.72 19.0039C173.88 21.5527 177.088 25.2295 179.344 30.0342C181.629 34.8096 182.771 40.332 182.771 46.6016V49.458ZM169.412 46.5576C169.412 39.8486 168.211 34.751 165.809 31.2646C163.406 27.7783 159.979 26.0352 155.525 26.0352C151.102 26.0352 147.688 27.7637 145.286 31.2207C142.884 34.6484 141.668 39.6875 141.639 46.3379V49.458C141.639 55.9912 142.84 61.0596 145.242 64.6631C147.645 68.2666 151.102 70.0684 155.613 70.0684C160.037 70.0684 163.436 68.3398 165.809 64.8828C168.182 61.3965 169.383 56.3281 169.412 49.6777V46.5576Z" fill="white"/>
<path d="M231.069 62.7295L237.309 32.4512H249.57L237.441 80H226.806L217.798 50.0732L208.789 80H198.198L186.069 32.4512H198.33L204.526 62.6855L213.227 32.4512H222.412L231.069 62.7295Z" fill="white"/>
<path d="M265.788 32.4512L266.183 37.9443C269.582 33.6963 274.137 31.5723 279.85 31.5723C284.889 31.5723 288.639 33.0518 291.1 36.0107C293.561 38.9697 294.821 43.3936 294.879 49.2822V80H282.179V49.5898C282.179 46.8945 281.593 44.9463 280.421 43.7451C279.25 42.5146 277.301 41.8994 274.577 41.8994C271.003 41.8994 268.322 43.4229 266.535 46.4697V80H253.835V32.4512H265.788Z" fill="white"/>
<path d="M315.866 57.4561V80H302.682V16.0156H327.643C332.448 16.0156 336.667 16.8945 340.3 18.6523C343.962 20.4102 346.774 22.915 348.737 26.167C350.7 29.3896 351.681 33.0664 351.681 37.1973C351.681 43.4668 349.528 48.418 345.221 52.0508C340.944 55.6543 335.012 57.4561 327.424 57.4561H315.866ZM315.866 46.7773H327.643C331.13 46.7773 333.781 45.957 335.597 44.3164C337.443 42.6758 338.366 40.332 338.366 37.2852C338.366 34.1504 337.443 31.6162 335.597 29.6826C333.752 27.749 331.203 26.7529 327.951 26.6943H315.866V46.7773Z" fill="white"/>
<path d="M369.746 80H357.002V12.5H369.746V80Z" fill="white"/>
<path d="M406.003 80C405.417 78.8574 404.992 77.4365 404.729 75.7373C401.653 79.165 397.654 80.8789 392.732 80.8789C388.073 80.8789 384.206 79.5312 381.13 76.8359C378.083 74.1406 376.56 70.7422 376.56 66.6406C376.56 61.6016 378.42 57.7344 382.141 55.0391C385.891 52.3438 391.296 50.9814 398.357 50.9521H404.201V48.2275C404.201 46.0303 403.63 44.2725 402.487 42.9541C401.374 41.6357 399.602 40.9766 397.17 40.9766C395.031 40.9766 393.347 41.4893 392.116 42.5146C390.915 43.54 390.315 44.9463 390.315 46.7334H377.614C377.614 43.9795 378.464 41.4307 380.163 39.0869C381.863 36.7432 384.265 34.9121 387.37 33.5938C390.476 32.2461 393.962 31.5723 397.829 31.5723C403.689 31.5723 408.332 33.0518 411.76 36.0107C415.217 38.9404 416.945 43.0713 416.945 48.4033V69.0137C416.975 73.5254 417.605 76.9385 418.835 79.2529V80H406.003ZM395.5 71.167C397.375 71.167 399.104 70.7568 400.686 69.9365C402.268 69.0869 403.44 67.959 404.201 66.5527V58.3789H399.455C393.098 58.3789 389.714 60.5762 389.304 64.9707L389.26 65.7178C389.26 67.2998 389.817 68.6035 390.93 69.6289C392.043 70.6543 393.567 71.167 395.5 71.167Z" fill="white"/>
<path d="M441.006 20.7617V32.4512H449.136V41.7676H441.006V65.498C441.006 67.2559 441.343 68.5156 442.017 69.2773C442.691 70.0391 443.98 70.4199 445.884 70.4199C447.291 70.4199 448.536 70.3174 449.62 70.1123V79.7363C447.129 80.498 444.566 80.8789 441.929 80.8789C433.023 80.8789 428.482 76.3818 428.306 67.3877V41.7676H421.363V32.4512H428.306V20.7617H441.006Z" fill="white"/>
<path d="M476.296 80.8789C469.324 80.8789 463.64 78.7402 459.246 74.4629C454.88 70.1855 452.698 64.4873 452.698 57.3682V56.1377C452.698 51.3623 453.621 47.0996 455.466 43.3496C457.312 39.5703 459.919 36.6699 463.288 34.6484C466.687 32.5977 470.554 31.5723 474.89 31.5723C481.394 31.5723 486.506 33.623 490.227 37.7246C493.977 41.8262 495.852 47.6416 495.852 55.1709V60.3564H465.574C465.984 63.4619 467.214 65.9521 469.265 67.8271C471.345 69.7021 473.967 70.6396 477.131 70.6396C482.024 70.6396 485.847 68.8672 488.601 65.3223L494.841 72.3096C492.937 75.0049 490.359 77.1143 487.107 78.6377C483.855 80.1318 480.251 80.8789 476.296 80.8789ZM474.846 41.8555C472.327 41.8555 470.276 42.7051 468.694 44.4043C467.141 46.1035 466.145 48.5352 465.705 51.6992H483.371V50.6885C483.313 47.876 482.551 45.708 481.086 44.1846C479.621 42.6318 477.541 41.8555 474.846 41.8555Z" fill="white"/>
</svg>
