<svg width="192" height="192" viewBox="0 0 192 192" fill="none" xmlns="http://www.w3.org/2000/svg">
<rect width="192" height="192" rx="58" fill="white"/>
<path d="M96 168C91.1264 168.001 86.2651 167.511 81.4898 166.538C76.8574 165.588 72.3303 164.183 67.9748 162.342C63.6935 160.529 59.5978 158.306 55.7452 155.704C51.9215 153.119 48.3533 150.175 45.0892 146.912C41.8262 143.648 38.8824 140.08 36.2977 136.256C33.6954 132.403 31.4722 128.307 29.6594 124.026C27.8184 119.67 26.4131 115.143 25.4639 110.511C24.4896 105.735 23.9992 100.874 24 96C23.9988 91.1264 24.4887 86.2651 25.4625 81.4897C26.4116 76.8574 27.817 72.3303 29.658 67.9748C31.4707 63.6933 33.6939 59.5974 36.2963 55.7445C38.881 51.9208 41.8248 48.3526 45.0877 45.0885C48.3518 41.8267 51.9197 38.8839 55.743 36.3C59.5956 33.6976 63.6912 31.4745 67.9724 29.6618C72.3279 27.8207 76.855 26.4153 81.4874 25.4663C86.2634 24.4911 91.1255 23.9998 96 24C100.874 23.9988 105.735 24.4887 110.51 25.4625C115.143 26.4116 119.67 27.8169 124.025 29.658C128.307 31.4707 132.403 33.6939 136.256 36.2963C140.079 38.8809 143.647 41.8248 146.912 45.0878C150.173 48.352 153.116 51.9202 155.7 55.7438C158.303 59.5966 160.526 63.6925 162.338 67.974C164.179 72.3295 165.585 76.8566 166.534 81.489C167.509 86.2644 168 91.126 168 96C168.001 100.874 167.511 105.735 166.538 110.51C165.589 115.143 164.183 119.67 162.342 124.025C160.529 128.307 158.306 132.403 155.704 136.255C153.119 140.079 150.175 143.647 146.912 146.912C143.648 150.174 140.08 153.118 136.256 155.703C132.403 158.305 128.307 160.529 124.026 162.341C119.67 164.182 115.143 165.588 110.511 166.537C105.735 167.511 100.874 168.001 96 168V168ZM102 119.877V126C101.995 128.407 102.477 130.79 103.414 133.006C104.318 135.146 105.627 137.089 107.271 138.729C108.91 140.373 110.853 141.684 112.991 142.588C115.209 143.526 117.592 144.006 120 144C122.407 144.005 124.79 143.523 127.007 142.585C129.145 141.681 131.088 140.37 132.727 138.726C134.371 137.086 135.681 135.143 136.585 133.003C137.523 130.788 138.004 128.406 138 126C138.003 123.965 137.659 121.944 136.984 120.023C136.333 118.171 135.382 116.439 134.168 114.896C136.428 114.275 138.715 113.586 140.965 112.846C142.623 108.415 143.615 103.762 143.908 99.039C128.637 104.992 112.386 108.031 95.9954 108C79.6086 108.029 63.3614 104.988 48.0938 99.036C48.3867 103.759 49.3786 108.412 51.0368 112.844C65.5475 117.604 80.7247 120.019 95.9963 119.999C97.9838 119.999 100.004 119.957 102.001 119.876L102 119.877Z" fill="#FBC02D"/>
</svg>
