<svg xmlns="http://www.w3.org/2000/svg" xmlns:xlink="http://www.w3.org/1999/xlink" width="496" height="96" viewBox="0 0 496 96">
  <defs>
    <clipPath id="clip-OwnPlate-Logo-Horizontal-YellowBlack">
      <rect width="496" height="96"/>
    </clipPath>
  </defs>
  <g id="OwnPlate-Logo-Horizontal-YellowBlack" clip-path="url(#clip-OwnPlate-Logo-Horizontal-YellowBlack)">
    <g id="Logo" transform="translate(-479.999 -444)">
      <g id="Logo-Mark" transform="translate(479.999 444)">
        <path id="Logo-Mark-2" data-name="Logo-Mark" d="M48,96A48.012,48.012,0,0,1,29.316,3.772,48.012,48.012,0,0,1,66.682,92.226,47.7,47.7,0,0,1,48,96Zm4-32.081h0V68a12,12,0,1,0,21.443-7.4c1.508-.413,3.033-.873,4.531-1.366a31.917,31.917,0,0,0,1.962-9.205A87.5,87.5,0,0,1,48,56a87.5,87.5,0,0,1-31.935-5.976,31.874,31.874,0,0,0,1.962,9.205A95.743,95.743,0,0,0,48,64c1.333,0,2.68-.027,4-.081Z" transform="translate(0 0)" fill="#fbc02d"/>
      </g>
      <g id="Logo-Text" transform="translate(607.999 444)">
        <rect id="Base" width="367.999" height="96" fill="red" opacity="0"/>
        <path id="Logo-Text-2" data-name="Logo-Text" d="M62.051-98.042a38.626,38.626,0,0,1-3.34,16.567,25.152,25.152,0,0,1-9.558,10.986,26.44,26.44,0,0,1-14.26,3.867A26.619,26.619,0,0,1,20.7-70.444a25.4,25.4,0,0,1-9.668-10.92A37.521,37.521,0,0,1,7.559-97.69v-3.164a38.423,38.423,0,0,1,3.406-16.633,25.358,25.358,0,0,1,9.624-11.03A26.473,26.473,0,0,1,34.8-132.363a26.473,26.473,0,0,1,14.216,3.845,25.358,25.358,0,0,1,9.624,11.03A38.314,38.314,0,0,1,62.051-100.9Zm-13.359-2.9q0-10.063-3.6-15.293A11.743,11.743,0,0,0,34.8-121.465,11.747,11.747,0,0,0,24.565-116.3q-3.6,5.164-3.647,15.139v3.12q0,9.8,3.6,15.205a11.712,11.712,0,0,0,10.371,5.405,11.607,11.607,0,0,0,10.2-5.208q3.56-5.208,3.6-15.183Zm61.657,16.172,6.24-30.278h12.261L116.72-67.5H106.086L97.077-97.427,88.068-67.5H77.477L65.348-115.049H77.609l6.2,30.234,8.7-30.234h9.185Zm34.675-30.278.4,5.493a16.6,16.6,0,0,1,13.667-6.372q7.559,0,11.25,4.438t3.779,13.271V-67.5h-12.7V-97.91q0-4.043-1.758-5.867t-5.845-1.824a8.737,8.737,0,0,0-8.042,4.57V-67.5h-12.7v-47.549Zm50.034,25V-67.5H181.874v-63.984h24.961a28.879,28.879,0,0,1,12.678,2.637,19.43,19.43,0,0,1,8.416,7.493,20.892,20.892,0,0,1,2.944,11.052q0,9.4-6.438,14.832t-17.82,5.427Zm0-10.679h11.777q5.229,0,7.976-2.461a8.951,8.951,0,0,0,2.747-7.031,10.554,10.554,0,0,0-2.769-7.6,10.342,10.342,0,0,0-7.646-2.988H195.057ZM248.894-67.5H236.149V-135h12.744Zm36.213,0a14.1,14.1,0,0,1-1.274-4.263,15.367,15.367,0,0,1-12,5.142,16.882,16.882,0,0,1-11.58-4.043,13,13,0,0,1-4.592-10.2q0-7.559,5.6-11.6t16.194-4.087H283.3v-2.725a7.836,7.836,0,0,0-1.692-5.273q-1.692-1.978-5.339-1.978a7.567,7.567,0,0,0-5.032,1.538,5.225,5.225,0,0,0-1.824,4.219h-12.7a12.757,12.757,0,0,1,2.549-7.646,16.848,16.848,0,0,1,7.207-5.515,26.265,26.265,0,0,1,10.459-2q8.789,0,13.953,4.417T296.049-99.1v20.61q.044,6.768,1.89,10.239v.747Zm-10.5-8.833a10.938,10.938,0,0,0,5.186-1.252,8.226,8.226,0,0,0,3.516-3.362v-8.174h-4.746q-9.536,0-10.151,6.592l-.044.747a5.084,5.084,0,0,0,1.67,3.911A6.487,6.487,0,0,0,274.6-76.333Zm45.506-50.405v11.689h8.13v9.316h-8.13V-82a5.666,5.666,0,0,0,1.011,3.779q1.011,1.143,3.867,1.143a20.253,20.253,0,0,0,3.735-.308v9.624a26.145,26.145,0,0,1-7.69,1.143q-13.359,0-13.623-13.491v-25.62h-6.943v-9.316h6.943v-11.689ZM355.4-66.621q-10.459,0-17.029-6.416T331.8-90.132v-1.23a28.724,28.724,0,0,1,2.769-12.81,20.318,20.318,0,0,1,7.844-8.7,22.017,22.017,0,0,1,11.58-3.054q9.756,0,15.359,6.152t5.6,17.446v5.186H344.677a11.8,11.8,0,0,0,3.713,7.471,11.225,11.225,0,0,0,7.844,2.813q7.339,0,11.47-5.317l6.24,6.987a19.065,19.065,0,0,1-7.734,6.306A25.375,25.375,0,0,1,355.4-66.621Zm-1.45-39.023a7.953,7.953,0,0,0-6.13,2.549,13.168,13.168,0,0,0-3.01,7.295h17.666v-1.011a9.388,9.388,0,0,0-2.285-6.526A8.208,8.208,0,0,0,353.949-105.645Z" transform="translate(-7.279 147.5)" fill="#FFFFFF"/>
      </g>
    </g>
  </g>
</svg>
